<svg xmlns="http://www.w3.org/2000/svg" viewBox="0 0 448.08 448.08"><defs><style>.cls-1{fill:#ff7a04;}</style></defs><title>CRYPTO DEPOSITS</title><g id="Layer_2" data-name="Layer 2"><g id="Layer_1-2" data-name="Layer 1"><g id="exchange"><path class="cls-1" d="M336.06,385.07h-14a35,35,0,0,1-35-35,7,7,0,0,1,14,0,21,21,0,0,0,21,21h14a21,21,0,0,0,0-42h-14a35,35,0,1,1,0-70h14a35,35,0,0,1,35,35,7,7,0,0,1-14,0,21,21,0,0,0-21-21h-14a21,21,0,1,0,0,42h14a35,35,0,0,1,0,70Z"/><path class="cls-1" d="M329.06,273.05a7,7,0,0,1-7-7V252a7,7,0,0,1,14,0v14A7,7,0,0,1,329.06,273.05Z"/><path class="cls-1" d="M329.06,399.07a7,7,0,0,1-7-7v-14a7,7,0,1,1,14,0v14A7,7,0,0,1,329.06,399.07Z"/><path class="cls-1" d="M322.06,448.08A125.09,125.09,0,0,1,247.94,424a7,7,0,0,1,8.25-11.32A112,112,0,1,0,368.19,220,7,7,0,0,1,374,207.19a126,126,0,0,1-51.9,240.89Z"/><path class="cls-1" d="M126,448.08a126,126,0,0,1-44.48-244,7,7,0,0,1,4.95,13.1,112,112,0,1,0,148.42,78.44,7,7,0,0,1,13.62-3.29A126.17,126.17,0,0,1,126,448.08Z"/><path class="cls-1" d="M126,399.07a7,7,0,0,1-5.73-3l-49-70a7,7,0,0,1,0-8l49-70a7.25,7.25,0,0,1,11.47,0l49,70a7,7,0,0,1,0,8l-49,70A7,7,0,0,1,126,399.07Zm-40.46-77L126,379.86l40.46-57.8L126,264.25Z"/><path class="cls-1" d="M126,350.06a7,7,0,0,1-2.76-.57l-49-21a7,7,0,0,1,5.52-12.87L126,335.44l46.25-19.82a7,7,0,0,1,5.52,12.87l-49,21A7,7,0,0,1,126,350.06Z"/><path class="cls-1" d="M224,84a7,7,0,0,1-7-7V63a7,7,0,0,1,14,0V77A7,7,0,0,1,224,84Z"/><path class="cls-1" d="M224,210a7,7,0,0,1-7-7V189a7,7,0,0,1,14,0v14A7,7,0,0,1,224,210Z"/><path class="cls-1" d="M246.44,196H182a7,7,0,0,1,0-14h64.41a21,21,0,1,0,0-42H196a7,7,0,1,1,0-14h50.41a35,35,0,1,1,0,70Z"/><path class="cls-1" d="M235.24,140a7,7,0,1,1,0-14,21,21,0,1,0,0-42H182a7,7,0,0,1,0-14h53.21a35,35,0,1,1,0,70Z"/><path class="cls-1" d="M196,196a7,7,0,0,1-7-7V77a7,7,0,0,1,14,0V189A7,7,0,0,1,196,196Z"/><path class="cls-1" d="M224,266.05c-73.35,0-133-59.68-133-133S150.69,0,224,0s133,59.67,133,133S297.39,266.05,224,266.05Zm0-252a119,119,0,1,0,119,119A119.15,119.15,0,0,0,224,14Z"/></g></g></g></svg>