<?xml version="1.0" encoding="UTF-8"?> <svg xmlns="http://www.w3.org/2000/svg" width="208" height="49" viewBox="0 0 208 49" fill="none"><path d="M53.6357 15.4531H74.819V19.3645H66.4897V41.3526H61.9095V19.3645H53.6172V15.4531H53.6357ZM73.914 22.5997H77.8293V26.2187H77.9032C78.0325 25.7069 78.2726 25.2134 78.6235 24.7382C78.9744 24.263 79.3991 23.806 79.8978 23.4222C80.3964 23.0201 80.9505 22.7094 81.5599 22.4535C82.1694 22.2159 82.7973 22.0879 83.4253 22.0879C83.9054 22.0879 84.2563 22.1062 84.441 22.1245C84.6257 22.1428 84.8104 22.1793 85.0136 22.1976V26.1821C84.7181 26.1273 84.4226 26.0907 84.1086 26.0542C83.7946 26.0176 83.4991 25.9993 83.2036 25.9993C82.5018 25.9993 81.837 26.1456 81.2091 26.4197C80.5811 26.6939 80.0455 27.1143 79.5838 27.6443C79.1221 28.1927 78.7528 28.8507 78.4757 29.6549C78.1987 30.4591 78.0694 31.373 78.0694 32.4148V41.3343H73.8955V22.5997H73.914ZM104.202 41.3526H100.102V38.7389H100.028C99.5113 39.6893 98.7541 40.4387 97.7383 41.0053C96.7225 41.5719 95.6883 41.8644 94.6356 41.8644C92.1424 41.8644 90.3325 41.2612 89.2244 40.0366C88.1162 38.812 87.5622 36.9659 87.5622 34.4985V22.5997H91.7361V34.0963C91.7361 35.7413 92.05 36.9111 92.6964 37.5874C93.3244 38.2637 94.2293 38.6109 95.3744 38.6109C96.2608 38.6109 96.9811 38.483 97.5721 38.2088C98.1631 37.9347 98.6433 37.5874 98.9942 37.1304C99.3635 36.6918 99.6221 36.1434 99.7883 35.522C99.9545 34.9006 100.028 34.2243 100.028 33.4932V22.618H104.202V41.3526ZM111.313 35.3392C111.442 36.5456 111.904 37.3863 112.698 37.8798C113.51 38.355 114.471 38.6109 115.597 38.6109C115.985 38.6109 116.428 38.5744 116.927 38.5195C117.426 38.4647 117.906 38.3368 118.331 38.1723C118.774 38.0078 119.125 37.7519 119.42 37.4229C119.697 37.0939 119.827 36.6735 119.808 36.1434C119.79 35.6134 119.586 35.1747 119.217 34.8457C118.848 34.4985 118.386 34.2426 117.814 34.0232C117.241 33.8222 116.595 33.6394 115.856 33.4932C115.117 33.347 114.378 33.1825 113.621 33.018C112.846 32.8535 112.088 32.6341 111.368 32.3965C110.648 32.1589 110.001 31.8299 109.429 31.4095C108.856 31.0074 108.395 30.4774 108.062 29.8377C107.711 29.1979 107.545 28.412 107.545 27.4616C107.545 26.438 107.804 25.5972 108.302 24.9027C108.801 24.2081 109.447 23.6598 110.205 23.2394C110.98 22.819 111.83 22.5266 112.772 22.3438C113.714 22.1793 114.618 22.0879 115.468 22.0879C116.447 22.0879 117.389 22.1976 118.275 22.3986C119.162 22.5997 119.974 22.9287 120.695 23.4039C121.415 23.8609 122.006 24.464 122.486 25.1951C122.966 25.9262 123.262 26.8218 123.391 27.8637H119.032C118.829 26.8767 118.386 26.2004 117.666 25.8714C116.946 25.5241 116.114 25.3596 115.191 25.3596C114.896 25.3596 114.545 25.3779 114.138 25.4327C113.732 25.4876 113.363 25.579 112.993 25.7069C112.642 25.8348 112.347 26.0359 112.088 26.2918C111.848 26.5477 111.719 26.8767 111.719 27.2971C111.719 27.8088 111.904 28.2109 112.255 28.5217C112.605 28.8324 113.067 29.0883 113.64 29.3076C114.212 29.5087 114.859 29.6914 115.597 29.8377C116.336 29.9839 117.093 30.1484 117.869 30.3129C118.626 30.4774 119.365 30.6967 120.104 30.9343C120.842 31.1719 121.489 31.5009 122.061 31.9213C122.634 32.3417 123.095 32.8535 123.446 33.4749C123.797 34.0963 123.982 34.8823 123.982 35.7962C123.982 36.9111 123.723 37.8433 123.206 38.6292C122.689 39.3969 122.024 40.0366 121.212 40.5118C120.399 40.987 119.476 41.3526 118.478 41.5719C117.481 41.7912 116.484 41.9009 115.505 41.9009C114.305 41.9009 113.196 41.773 112.181 41.4988C111.165 41.2246 110.278 40.8225 109.54 40.2925C108.801 39.7441 108.21 39.0679 107.785 38.2637C107.36 37.4594 107.139 36.4907 107.102 35.3758H111.313V35.3392ZM125.09 22.5997H128.248V16.9702H132.422V22.5997H136.19V25.6886H132.422V35.7048C132.422 36.1434 132.441 36.509 132.477 36.838C132.514 37.1487 132.607 37.4229 132.736 37.6422C132.865 37.8615 133.068 38.026 133.345 38.1357C133.623 38.2454 133.973 38.3002 134.454 38.3002C134.749 38.3002 135.045 38.3002 135.34 38.2819C135.636 38.2637 135.931 38.2271 136.227 38.154V41.3526C135.765 41.4074 135.303 41.444 134.878 41.4988C134.435 41.5536 133.992 41.5719 133.53 41.5719C132.422 41.5719 131.536 41.4622 130.871 41.2612C130.206 41.0601 129.67 40.7494 129.301 40.3473C128.913 39.9452 128.673 39.4517 128.525 38.8485C128.396 38.2454 128.304 37.5508 128.285 36.7832V25.7252H125.127V22.5997H125.09ZM139.145 22.5997H143.097V25.1403H143.171C143.762 24.0436 144.574 23.276 145.627 22.8007C146.68 22.3255 147.806 22.0879 149.044 22.0879C150.54 22.0879 151.832 22.3438 152.941 22.8739C154.049 23.3856 154.972 24.0985 155.711 25.0123C156.45 25.9262 156.985 26.9863 157.354 28.1927C157.724 29.399 157.909 30.6967 157.909 32.0675C157.909 33.3287 157.742 34.5533 157.41 35.7231C157.077 36.9111 156.579 37.9529 155.914 38.8668C155.249 39.7807 154.4 40.4935 153.365 41.0419C152.331 41.5902 151.131 41.8644 149.727 41.8644C149.118 41.8644 148.508 41.8095 147.899 41.6999C147.289 41.5902 146.698 41.4074 146.144 41.1698C145.59 40.9322 145.054 40.6215 144.593 40.2376C144.113 39.8538 143.725 39.4151 143.392 38.9217H143.318V48.2798H139.145V22.5997ZM153.735 31.9944C153.735 31.1536 153.624 30.3311 153.402 29.5269C153.181 28.7227 152.848 28.0282 152.405 27.4067C151.962 26.7853 151.408 26.2918 150.761 25.9262C150.096 25.5607 149.339 25.3596 148.49 25.3596C146.735 25.3596 145.405 25.9628 144.519 27.1691C143.632 28.3754 143.189 29.9839 143.189 31.9944C143.189 32.9449 143.3 33.8222 143.54 34.6264C143.78 35.4306 144.113 36.1252 144.593 36.7101C145.054 37.2949 145.609 37.7519 146.255 38.0809C146.901 38.4282 147.659 38.5927 148.508 38.5927C149.468 38.5927 150.263 38.3916 150.927 38.0078C151.592 37.6239 152.128 37.1122 152.553 36.509C152.977 35.8876 153.291 35.193 153.476 34.4071C153.642 33.6211 153.735 32.8169 153.735 31.9944ZM161.104 15.4531H165.277V19.3645H161.104V15.4531ZM161.104 22.5997H165.277V41.3526H161.104V22.5997ZM169.008 15.4531H173.182V41.3526H169.008V15.4531ZM185.981 41.8644C184.466 41.8644 183.118 41.6085 181.936 41.115C180.754 40.6215 179.757 39.9269 178.926 39.0679C178.113 38.1905 177.485 37.1487 177.06 35.9424C176.636 34.7361 176.414 33.4018 176.414 31.9579C176.414 30.5322 176.636 29.2162 177.06 28.0099C177.485 26.8036 178.113 25.7617 178.926 24.8844C179.738 24.0071 180.754 23.3308 181.936 22.8373C183.118 22.3438 184.466 22.0879 185.981 22.0879C187.495 22.0879 188.843 22.3438 190.025 22.8373C191.207 23.3308 192.204 24.0254 193.036 24.8844C193.848 25.7617 194.476 26.8036 194.901 28.0099C195.326 29.2162 195.547 30.5322 195.547 31.9579C195.547 33.4018 195.326 34.7361 194.901 35.9424C194.476 37.1487 193.848 38.1905 193.036 39.0679C192.223 39.9452 191.207 40.6215 190.025 41.115C188.843 41.6085 187.495 41.8644 185.981 41.8644ZM185.981 38.5927C186.904 38.5927 187.717 38.3916 188.4 38.0078C189.083 37.6239 189.637 37.1122 190.081 36.4907C190.524 35.8693 190.838 35.1565 191.059 34.3705C191.263 33.5846 191.373 32.7804 191.373 31.9579C191.373 31.1536 191.263 30.3677 191.059 29.5635C190.856 28.7593 190.524 28.0647 190.081 27.4433C189.637 26.8218 189.083 26.3283 188.4 25.9445C187.717 25.5607 186.904 25.3596 185.981 25.3596C185.057 25.3596 184.245 25.5607 183.561 25.9445C182.878 26.3283 182.324 26.8401 181.881 27.4433C181.437 28.0647 181.123 28.7593 180.902 29.5635C180.699 30.3677 180.588 31.1536 180.588 31.9579C180.588 32.7804 180.699 33.5846 180.902 34.3705C181.105 35.1565 181.437 35.8693 181.881 36.4907C182.324 37.1122 182.878 37.6239 183.561 38.0078C184.245 38.4099 185.057 38.5927 185.981 38.5927ZM196.766 22.5997H199.924V16.9702H204.098V22.5997H207.866V25.6886H204.098V35.7048C204.098 36.1434 204.117 36.509 204.154 36.838C204.19 37.1487 204.283 37.4229 204.412 37.6422C204.541 37.8615 204.745 38.026 205.022 38.1357C205.299 38.2454 205.649 38.3002 206.13 38.3002C206.425 38.3002 206.721 38.3002 207.016 38.2819C207.312 38.2637 207.607 38.2271 207.903 38.154V41.3526C207.441 41.4074 206.979 41.444 206.554 41.4988C206.111 41.5536 205.668 41.5719 205.206 41.5719C204.098 41.5719 203.212 41.4622 202.547 41.2612C201.882 41.0601 201.346 40.7494 200.977 40.3473C200.589 39.9452 200.349 39.4517 200.201 38.8485C200.072 38.2454 199.98 37.5508 199.961 36.7832V25.7252H196.803V22.5997H196.766Z" fill="#2A2A2B"></path><path d="M22.4316 31.8412L32.1786 29.4222L36.251 41.7133L22.4316 31.8412ZM44.8631 15.9543H27.7057L22.4316 0.132812L17.1575 15.9543H0L13.8862 25.761L8.61213 41.5825L22.4983 31.7758L31.0437 25.761L44.8631 15.9543Z" fill="#00B67A"></path></svg> 