<?xml version="1.0" encoding="UTF-8"?> <svg xmlns="http://www.w3.org/2000/svg" width="52" height="52" fill="none"><path d="M52 26a26 26 0 10-52 0 26 26 0 0052 0z" fill="#EF1320"></path><path fill-rule="evenodd" clip-rule="evenodd" d="M16.34 13.3c3.18-.8 6.45-1.21 9.72-1.23a40.63 40.63 0 0114.95 2.91 15 15 0 01-.83 1.72 33.98 33.98 0 00-14.2-2.82 35.3 35.3 0 00-7.38.72c-2.28.47-4.5 1.18-6.62 2.1-.3-.56-.6-1.13-.84-1.72 1.7-.67 3.43-1.23 5.2-1.68zm5.44 1.74c.4-.03.81-.07 1.22-.08l1.52 1.86 1.56 1.9 3.08-3.76A30.27 30.27 0 0139.7 17.5c-.09.15-.19.27-.29.4a8.05 8.05 0 01-1.92 1.69c-.57.37-1.18.7-1.82.95-.04-.4-.14-.81-.39-1.14-.2-.28-.5-.48-.81-.61a5.5 5.5 0 00-1.45-.35 24 24 0 00-2.73-.12c-.03 0-.04 0-.04.02l-4.13 23.2-.05.27-.5-2.74L22.1 19.6c-.08-.43-.14-.86-.23-1.28-.66 0-1.32.01-1.97.06-.65.04-1.3.11-1.93.31-.4.13-.8.34-1.07.68-.26.33-.37.76-.42 1.18-.7-.29-1.37-.64-2-1.07a8.02 8.02 0 01-2.02-1.97 30.3 30.3 0 019.33-2.46z" fill="#fff"></path></svg> 