<svg xmlns="http://www.w3.org/2000/svg" xmlns:xlink="http://www.w3.org/1999/xlink" width="87.97" height="54.03" viewBox="0 0 87.97 54.03">
  <metadata><?xpacket begin="﻿" id="W5M0MpCehiHzreSzNTczkc9d"?>
<x:xmpmeta xmlns:x="adobe:ns:meta/" x:xmptk="Adobe XMP Core 5.6-c142 79.160924, 2017/07/13-01:06:39        ">
   <rdf:RDF xmlns:rdf="http://www.w3.org/1999/02/22-rdf-syntax-ns#">
      <rdf:Description rdf:about=""/>
   </rdf:RDF>
</x:xmpmeta>
                                                                                                    
                                                                                                    
                                                                                                    
                                                                                                    
                                                                                                    
                                                                                                    
                                                                                                    
                                                                                                    
                                                                                                    
                                                                                                    
                                                                                                    
                                                                                                    
                                                                                                    
                                                                                                    
                                                                                                    
                                                                                                    
                                                                                                    
                                                                                                    
                                                                                                    
                                                                                                    
                           
<?xpacket end="w"?></metadata>
<defs>
    <style>
      .cls-1 {
        fill-rule: evenodd;
        fill: url(#linear-gradient);
      }
    </style>
    <linearGradient id="linear-gradient" x1="1602.441" y1="5048.03" x2="1637.529" y2="4994" gradientUnits="userSpaceOnUse">
      <stop offset="-0.765" stop-color="#4aa5ee"/>
      <stop offset="1.765" stop-color="#593dea"/>
    </linearGradient>
  </defs>
  <path class="cls-1" d="M1603.16,5048.02h-8.98a1.035,1.035,0,0,1-.93-0.58l-8.99-18.93a1.014,1.014,0,0,1,.07-0.97,1.029,1.029,0,0,1,.86-0.47h12.71a1.02,1.02,0,0,1,.99.74l5.26,18.93a0.989,0.989,0,0,1-.17.88A1.053,1.053,0,0,1,1603.16,5048.02Zm-8.33-2.02h6.99l-4.7-16.91h-10.31Zm4.54-16.91H1587.4c-0.23-.02-11.67-1.36-11.39-11.64a11.619,11.619,0,0,1,9.74-11.57l13.62-.01a1.016,1.016,0,0,1,1.02,1.01v21.2A1.016,1.016,0,0,1,1599.37,5029.09Zm-13.48-21.2a9.477,9.477,0,0,0-7.83,9.61c-0.23,8.41,9.06,9.53,9.45,9.57h10.83v-19.18h-12.45Zm46.46,32.42a1.042,1.042,0,0,1-.65-0.22c-0.01-.02-1.53-1.23-3.93-2.86-5.26-3.57-15.15-9.53-23.19-9.28a1,1,0,0,1-1.06-.98,1.024,1.024,0,0,1,1-1.04c8.49-.3,18.95,5.93,24.41,9.64,0.95,0.64,1.75,1.22,2.39,1.68v-40.01c-0.83.67-1.71,1.33-2.64,1.96-10.49,7.15-23.42,9.21-23.97,9.3a1.013,1.013,0,1,1-.32-2c0.13-.02,13.03-2.08,23.12-8.96a36.6,36.6,0,0,0,4.14-3.27,1.029,1.029,0,0,1,1.11-.19,1.016,1.016,0,0,1,.62.93v44.29a1.023,1.023,0,0,1-.59.92A1.117,1.117,0,0,1,1632.35,5040.31Zm8.17-34.94a1.034,1.034,0,0,1-.86-0.46,1.007,1.007,0,0,1,.29-1.4l12.89-8.4a1.039,1.039,0,0,1,1.42.28,1,1,0,0,1-.29,1.4l-12.89,8.41A1.048,1.048,0,0,1,1640.52,5005.37Zm-0.93,12.42a1.021,1.021,0,0,1-1.03-.99,1.033,1.033,0,0,1,1.02-1.03l23.36-.27h0.01a1.01,1.01,0,1,1,.01,2.02l-23.36.27h-0.01Zm11.73,19.54a1.056,1.056,0,0,1-.57-0.17l-12.83-8.49a1,1,0,0,1-.28-1.4,1.04,1.04,0,0,1,1.43-.28l12.83,8.49a1,1,0,0,1,.27,1.4A1.018,1.018,0,0,1,1651.32,5037.33Z" transform="translate(-1576 -4994)"/>
</svg>
