<svg 
 xmlns="http://www.w3.org/2000/svg"
 xmlns:xlink="http://www.w3.org/1999/xlink"
 width="79px" height="65px">
<defs>
<linearGradient id="PSgrad_0" x1="0%" x2="54.464%" y1="83.867%" y2="0%">
  <stop offset="0%" stop-color="rgb(74,165,238)" stop-opacity="1" />
  <stop offset="100%" stop-color="rgb(89,61,234)" stop-opacity="1" />
</linearGradient>

</defs>
<path fill-rule="evenodd"  fill="url(#PSgrad_0)"
 d="M78.028,18.456 L77.798,19.403 C75.986,26.852 76.172,55.938 76.227,61.692 L76.239,62.989 L75.019,62.511 C70.606,60.784 65.907,59.909 61.049,59.909 C51.435,59.909 44.200,63.309 42.847,63.991 L42.657,64.086 L35.374,64.086 L35.185,63.991 C33.831,63.309 26.592,59.909 16.982,59.909 C12.127,59.909 7.426,60.784 3.012,62.511 L1.791,62.989 L1.804,61.692 C1.968,45.025 1.642,25.162 0.241,19.403 L0.011,18.456 L0.991,18.336 C2.279,18.178 4.920,17.890 8.191,17.723 L7.788,8.615 L8.636,8.547 C13.800,8.140 18.846,8.894 23.645,10.780 L23.645,0.080 L24.835,0.516 C36.992,4.971 39.251,16.947 39.655,20.512 L39.718,21.069 L39.770,21.012 C40.465,20.243 41.212,19.476 41.993,18.733 C42.216,18.521 42.446,18.310 42.682,18.100 C42.918,17.882 43.181,17.654 43.453,17.425 C43.971,16.983 44.533,16.520 45.126,16.058 C45.657,15.650 46.169,15.274 46.685,14.915 L46.685,14.911 L46.853,14.797 C46.920,14.752 46.986,14.707 47.051,14.662 L47.286,14.507 C47.557,14.327 47.830,14.150 48.112,13.968 C48.403,13.785 48.693,13.608 48.990,13.430 L49.319,13.233 C49.601,13.069 49.879,12.915 50.162,12.758 L50.592,12.525 C50.926,12.345 51.269,12.170 51.620,12.001 C52.105,11.762 52.613,11.520 53.135,11.300 C53.477,11.145 53.851,10.990 54.222,10.841 C59.089,8.901 64.198,8.130 69.397,8.547 L70.244,8.616 L69.840,17.724 C73.136,17.892 75.766,18.179 77.048,18.336 L78.028,18.456 ZM8.393,19.458 C5.783,19.588 3.592,19.796 2.161,19.954 C3.682,28.102 3.653,51.441 3.581,60.437 C7.845,58.930 12.347,58.166 16.982,58.166 C24.788,58.166 31.110,60.328 34.190,61.619 L34.190,23.472 C31.647,21.839 28.065,20.665 23.516,19.994 C19.250,19.358 14.021,19.172 8.393,19.458 ZM24.670,13.107 C24.513,13.034 24.370,12.973 24.228,12.913 C23.843,12.741 23.494,12.594 23.145,12.455 C18.819,10.730 14.274,9.979 9.627,10.228 L9.887,16.130 C10.318,16.113 10.755,16.100 11.186,16.090 L11.392,16.089 C12.060,16.074 12.750,16.066 13.423,16.066 C17.293,16.066 20.854,16.304 24.008,16.772 C28.442,17.426 32.115,18.549 34.956,20.117 C34.911,20.073 34.866,20.030 34.820,19.987 C34.613,19.789 34.399,19.592 34.177,19.396 C33.934,19.178 33.695,18.964 33.442,18.750 C32.450,17.896 31.366,17.058 30.208,16.250 L29.597,15.838 C29.041,15.470 28.475,15.119 27.909,14.791 C27.581,14.596 27.256,14.411 26.926,14.228 L26.794,14.159 C26.416,13.954 26.030,13.756 25.635,13.565 C25.316,13.407 24.995,13.254 24.670,13.107 ZM25.411,2.626 L25.411,9.864 C25.663,9.970 25.941,10.095 26.219,10.226 C26.646,10.425 27.077,10.634 27.491,10.842 L27.601,10.896 C27.964,11.083 28.291,11.259 28.618,11.436 C29.407,11.866 30.189,12.332 31.010,12.865 C31.375,13.094 31.734,13.331 32.076,13.574 C33.204,14.348 34.326,15.207 35.402,16.118 L36.250,16.856 C36.429,17.015 36.580,17.156 36.732,17.297 C36.965,17.503 37.195,17.726 37.421,17.948 C36.394,13.487 33.502,6.153 25.411,2.626 ZM42.282,23.976 L35.956,23.976 L35.956,62.343 L42.236,62.343 C42.249,62.337 42.268,62.328 42.282,62.321 L42.282,23.976 ZM54.885,12.455 C54.539,12.594 54.190,12.741 53.848,12.895 C53.337,13.109 52.862,13.335 52.403,13.562 C52.005,13.755 51.621,13.952 51.250,14.156 L51.028,14.276 C50.756,14.427 50.488,14.576 50.224,14.729 L50.123,14.791 C50.042,14.841 49.963,14.888 49.886,14.932 C49.619,15.092 49.341,15.262 49.069,15.432 C48.861,15.567 48.655,15.700 48.450,15.835 L47.833,16.248 C47.296,16.619 46.765,17.007 46.216,17.428 C45.650,17.870 45.107,18.316 44.603,18.747 C44.347,18.962 44.104,19.172 43.876,19.383 C43.642,19.591 43.427,19.789 43.218,19.988 C43.171,20.033 43.123,20.078 43.076,20.124 C45.917,18.557 49.592,17.432 54.023,16.772 C58.116,16.166 62.878,15.943 68.144,16.130 L68.405,10.227 C63.767,9.974 59.226,10.724 54.885,12.455 ZM69.671,19.458 C69.207,19.435 68.782,19.412 68.358,19.398 C66.056,19.312 63.878,19.302 61.884,19.368 C61.438,19.382 60.998,19.398 60.558,19.419 C59.702,19.465 58.861,19.517 58.041,19.584 C56.900,19.681 55.714,19.819 54.516,19.994 C50.084,20.655 46.575,21.787 44.048,23.350 L44.048,61.535 C47.194,60.236 53.403,58.166 61.049,58.166 C65.686,58.166 70.187,58.930 74.451,60.437 C74.380,51.444 74.355,28.112 75.878,19.954 C74.450,19.796 72.263,19.588 69.671,19.458 ZM64.201,41.308 C64.105,41.171 63.995,41.043 63.872,40.920 L62.010,39.087 L63.861,37.267 L63.863,37.265 C63.990,37.139 64.103,37.006 64.203,36.866 C64.308,36.722 64.397,36.572 64.471,36.415 C65.111,37.309 65.488,38.402 65.488,39.581 C65.488,40.621 65.195,41.594 64.686,42.423 C64.606,42.018 64.444,41.645 64.201,41.308 ZM63.082,36.499 L61.239,38.327 L59.385,36.489 L59.382,36.487 C59.235,36.342 59.116,36.188 59.025,36.023 C58.880,35.756 58.808,35.460 58.808,35.130 L58.808,35.054 L58.808,34.195 C59.167,34.123 59.539,34.085 59.919,34.085 C61.340,34.085 62.634,34.610 63.618,35.474 C63.586,35.695 63.512,35.894 63.405,36.083 C63.319,36.230 63.213,36.368 63.082,36.499 ZM58.598,40.926 C58.449,41.071 58.320,41.226 58.208,41.390 C57.875,41.875 57.707,42.434 57.707,43.057 L57.707,43.163 L57.707,43.352 L57.707,44.625 C55.731,43.780 54.351,41.840 54.351,39.581 C54.351,37.321 55.732,35.381 57.707,34.538 L57.707,34.837 L57.707,35.054 L57.707,35.132 C57.707,35.753 57.873,36.308 58.199,36.792 C58.313,36.958 58.444,37.118 58.596,37.267 L60.451,39.089 L58.598,40.926 ZM59.382,41.674 L61.242,39.845 L63.083,41.666 C63.213,41.800 63.323,41.943 63.408,42.092 C63.570,42.380 63.659,42.702 63.659,43.059 L63.645,43.664 C63.306,43.967 62.929,44.227 62.522,44.439 C61.744,44.846 60.859,45.076 59.919,45.076 C59.539,45.076 59.166,45.039 58.808,44.968 L58.808,44.045 L58.808,43.163 L58.808,43.057 C58.808,42.723 58.880,42.421 59.025,42.148 C59.115,41.981 59.232,41.824 59.382,41.674 Z"/>
</svg>