<svg 
 xmlns="http://www.w3.org/2000/svg"
 xmlns:xlink="http://www.w3.org/1999/xlink"
 width="67px" height="58px">
<defs>
<linearGradient id="PSgrad_0" x1="0%" x2="54.464%" y1="83.867%" y2="0%">
  <stop offset="0%" stop-color="rgb(74,165,238)" stop-opacity="1" />
  <stop offset="100%" stop-color="rgb(89,61,234)" stop-opacity="1" />
</linearGradient>

</defs>
<path fill-rule="evenodd"  fill="url(#PSgrad_0)"
 d="M51.289,52.426 C51.019,51.851 50.626,51.319 50.145,50.862 C59.525,43.990 65.050,34.462 65.050,24.379 C65.050,20.758 65.028,17.132 65.007,13.506 C64.990,10.605 64.972,7.702 64.966,4.801 C62.234,6.828 58.181,8.030 53.824,8.030 C48.151,8.030 43.045,5.954 40.659,2.829 C38.274,5.954 33.168,8.030 27.495,8.030 C23.137,8.030 19.084,6.828 16.353,4.801 C16.349,6.445 16.338,10.967 16.329,12.611 C15.712,12.412 15.051,14.247 14.393,14.276 C14.405,11.987 14.420,4.899 14.420,2.611 C14.420,2.208 14.674,1.849 15.054,1.710 C15.435,1.572 15.863,1.683 16.125,1.989 C18.303,4.531 22.659,6.111 27.495,6.111 C33.279,6.111 38.328,3.834 39.774,0.575 C39.928,0.226 40.276,0.002 40.659,0.002 C41.043,0.002 41.390,0.226 41.545,0.575 C42.991,3.834 48.040,6.111 53.824,6.111 C58.659,6.111 63.016,4.531 65.194,1.989 C65.456,1.683 65.886,1.572 66.265,1.710 C66.645,1.849 66.898,2.208 66.898,2.611 C66.898,6.237 66.920,9.866 66.941,13.495 C66.963,17.125 66.984,20.754 66.984,24.379 C66.984,35.091 61.172,45.191 51.289,52.426 ZM24.924,15.304 L44.468,25.612 C44.855,25.817 45.052,26.255 44.946,26.677 C44.840,27.099 44.458,27.395 44.021,27.395 L4.934,27.395 C4.496,27.395 4.115,27.099 4.008,26.677 C3.902,26.255 4.099,25.817 4.486,25.612 L24.029,15.304 C24.308,15.156 24.645,15.156 24.924,15.304 ZM40.193,25.501 L24.477,17.211 L8.761,25.501 L40.193,25.501 ZM44.453,30.433 C44.980,30.433 45.407,30.857 45.407,31.379 C45.407,31.902 44.980,32.326 44.453,32.326 L40.827,32.326 C40.829,32.350 40.842,32.371 40.842,32.396 L40.842,51.169 L43.392,51.169 C43.918,51.169 44.345,51.593 44.345,52.116 C44.345,52.638 43.918,53.063 43.392,53.063 L5.563,53.063 C5.036,53.063 4.609,52.638 4.609,52.116 C4.609,51.593 5.036,51.169 5.563,51.169 L7.384,51.169 L7.384,32.396 C7.384,32.371 7.397,32.350 7.399,32.326 L4.502,32.326 C3.975,32.326 3.548,31.902 3.548,31.379 C3.548,30.857 3.975,30.433 4.502,30.433 L44.453,30.433 ZM35.979,32.396 L35.979,51.169 L38.934,51.169 L38.934,32.396 C38.934,32.371 38.947,32.350 38.949,32.326 L35.964,32.326 C35.966,32.350 35.979,32.371 35.979,32.396 ZM14.154,32.396 L14.154,51.169 L34.071,51.169 L34.071,32.396 C34.071,32.371 34.084,32.350 34.086,32.326 L14.139,32.326 C14.141,32.350 14.154,32.371 14.154,32.396 ZM9.292,32.396 L9.292,51.169 L12.247,51.169 L12.247,32.396 C12.247,32.371 12.260,32.350 12.262,32.326 L9.277,32.326 C9.279,32.350 9.292,32.371 9.292,32.396 ZM24.775,46.177 L24.775,47.572 C24.775,47.992 24.431,48.334 24.007,48.334 C23.583,48.334 23.239,47.992 23.239,47.572 L23.239,46.085 C22.591,45.967 21.954,45.779 21.289,45.560 L21.137,45.509 C20.734,45.376 20.517,44.944 20.650,44.545 C20.784,44.146 21.221,43.929 21.622,44.062 L21.775,44.113 C22.542,44.367 23.205,44.586 23.847,44.658 C25.141,44.802 25.895,44.427 26.169,44.027 C26.278,43.868 26.375,43.617 26.218,43.325 C26.006,42.928 25.275,42.500 24.033,42.510 C24.026,42.510 24.018,42.510 24.010,42.510 C22.288,42.510 20.987,41.921 20.435,40.892 C20.049,40.170 20.101,39.326 20.576,38.634 C21.104,37.862 22.064,37.398 23.239,37.305 L23.239,35.924 C23.239,35.503 23.583,35.161 24.007,35.161 C24.431,35.161 24.775,35.503 24.775,35.924 L24.775,37.401 C25.444,37.519 26.101,37.713 26.787,37.940 L26.926,37.986 C27.328,38.119 27.546,38.551 27.412,38.950 C27.279,39.349 26.843,39.567 26.440,39.433 L26.300,39.387 C25.526,39.130 24.858,38.909 24.209,38.837 C22.891,38.690 22.128,39.079 21.847,39.491 C21.739,39.648 21.642,39.895 21.792,40.176 C22.003,40.568 22.695,40.986 24.009,40.986 C24.025,40.985 24.036,40.984 24.051,40.985 C25.738,40.985 27.022,41.576 27.576,42.610 C27.967,43.340 27.916,44.191 27.440,44.885 C26.915,45.649 25.949,46.090 24.775,46.177 ZM48.956,57.045 C48.956,57.567 48.528,57.992 48.002,57.992 L0.953,57.992 C0.426,57.992 -0.001,57.567 -0.001,57.045 C-0.001,56.522 0.426,56.098 0.953,56.098 L48.002,56.098 C48.528,56.098 48.956,56.522 48.956,57.045 Z"/>
</svg>