<svg xmlns="http://www.w3.org/2000/svg" xmlns:xlink="http://www.w3.org/1999/xlink" width="66" height="66" viewBox="0 0 66 66">
  <metadata><?xpacket begin="﻿" id="W5M0MpCehiHzreSzNTczkc9d"?>
<x:xmpmeta xmlns:x="adobe:ns:meta/" x:xmptk="Adobe XMP Core 5.6-c142 79.160924, 2017/07/13-01:06:39        ">
   <rdf:RDF xmlns:rdf="http://www.w3.org/1999/02/22-rdf-syntax-ns#">
      <rdf:Description rdf:about=""/>
   </rdf:RDF>
</x:xmpmeta>
                                                                                                    
                                                                                                    
                                                                                                    
                                                                                                    
                                                                                                    
                                                                                                    
                                                                                                    
                                                                                                    
                                                                                                    
                                                                                                    
                                                                                                    
                                                                                                    
                                                                                                    
                                                                                                    
                                                                                                    
                                                                                                    
                                                                                                    
                                                                                                    
                                                                                                    
                                                                                                    
                           
<?xpacket end="w"?></metadata>
<defs>
    <style>
      .cls-1 {
        fill-rule: evenodd;
        fill: url(#linear-gradient);
      }
    </style>
    <linearGradient id="linear-gradient" x1="1703.57" y1="5052" x2="1746.43" y2="4986" gradientUnits="userSpaceOnUse">
      <stop offset="-0.765" stop-color="#4aa5ee"/>
      <stop offset="1.765" stop-color="#593dea"/>
    </linearGradient>
  </defs>
  <path class="cls-1" d="M1697.37,5042.1m39.78-46.44-3.66,3.36-1.27-1.31,5.95-5.46,3.28,7.39-1.7.71-2.17-4.87m-36.11,43.81v-53.28h-1.93v7.74h-7.55v1.87h7.55v5.05h-7.55v1.87h7.55v5.04h-7.55v1.87h7.55v5.05h-7.55v1.87h7.55v5.05h-7.55v1.87h7.55v5.05h-7.55v1.87h7.55v5.05h-7.55v1.87h7.55v5.04h-7.55v1.87h7.55v7.95h1.93v-7.31h5.21v7.31h1.93v-7.31h5.21v7.31h1.93v-7.31h5.21v7.31h1.93v-7.31h5.21v7.31h1.93v-7.31h5.22v7.31h1.92v-7.31h5.59v7.31h1.93v-7.31h5.21v7.31h1.93v-7.31h6.18v-1.87h-42.3l-14.19-.1-0.06-3Zm40.72-6.08,0.25-4.88,1.85,0.09-0.4,7.93-7.64-3.13,0.72-1.65,5.04,2.06m-0.1.72-10.18-10.26-13.16-4.83-17.2,3.24-0.38-1.86,17.76-3.34,14.08,5.17,10.49,10.57Zm-40.51-15.61-0.44-1.84,20.17-4.53,13.04-9.09,2.73-8.81,1.87,0.54-2.92,9.43-13.9,9.69Z" transform="translate(-1692 -4986)"/>
</svg>
