<svg xmlns="http://www.w3.org/2000/svg" width="56" height="62" viewBox="0 0 56 62"><path fill="#0095eb" d="M28 62c-.2 0-.4 0-.5-.1C.3 45.4 0 12.2 0 11.9c0-.6.4-1 1-1 5.5 0 10-4.4 10-9.9 0-.6.4-1 1-1h32c.6 0 1 .4 1 1 0 5.5 4.5 9.9 10 9.9.6 0 1 .4 1 1 0 .3-.3 33.5-27.5 49.9-.1.2-.3.2-.5.2zM2 12.9c.3 5.4 2.8 32.6 26 47 23.1-14.4 25.7-41.5 26-47-5.8-.5-10.5-5.1-11-10.9H13c-.5 5.8-5.2 10.4-11 10.9z"/><path fill="#0095eb" d="M27 40c-.3 0-.5-.1-.7-.3l-11-11c-.4-.4-.4-1 0-1.4l4-4c.4-.4 1-.4 1.4 0l6.3 6.3 11.3-11.3c.4-.4 1-.4 1.4 0l4 4c.4.4.4 1 0 1.4l-16 16c-.2.2-.4.3-.7.3zm-9.6-12l9.6 9.6L41.6 23 39 20.4 27.7 31.7c-.4.4-1 .4-1.4 0L20 25.4 17.4 28z"/></svg>