<svg xmlns="http://www.w3.org/2000/svg" xmlns:xlink="http://www.w3.org/1999/xlink" width="28" height="28" viewBox="0 0 28 28">
  <defs>
    <clipPath id="clip-path">
      <circle id="Ellipse_2414" data-name="Ellipse 2414" cx="14" cy="14" r="14" transform="translate(816.75 232)" fill="#eaeff4"/>
    </clipPath>
  </defs>
  <g id="Mask_Group_881" data-name="Mask Group 881" transform="translate(-816.75 -232)" clip-path="url(#clip-path)">
    <path id="certificate" d="M10,7a2.75,2.75,0,1,0,2.75,2.75A2.753,2.753,0,0,0,10,7Zm1.166,2.309-1,1.5a.5.5,0,0,1-.693.138l-.75-.5a.5.5,0,1,1,.555-.832l.334.222c.8-1.2.755-1.163.889-1.239A.5.5,0,0,1,11.166,9.308ZM7.75,12.748V15.5a.5.5,0,0,0,.748.434l1.5-.858,1.5.858a.5.5,0,0,0,.748-.434V12.748A3.741,3.741,0,0,1,7.75,12.748ZM11,6.135V1.086A1.087,1.087,0,0,0,9.914,0H1.086A1.087,1.087,0,0,0,0,1.086V12.664a1.087,1.087,0,0,0,1.086,1.086H6.75c0-2.152,0-2.018.008-2.117A3.754,3.754,0,0,1,11,6.135ZM3,2.5H7.25a.5.5,0,1,1,0,1H3a.5.5,0,0,1,0-1Zm2.5,5H3a.5.5,0,0,1,0-1H5.5a.5.5,0,1,1,0,1ZM3,5.5a.5.5,0,0,1,0-1H7.25a.5.5,0,1,1,0,1Z" transform="translate(824.379 238.004)" fill="#1794c9"/>
  </g>
</svg>
