<svg xmlns="http://www.w3.org/2000/svg" xmlns:xlink="http://www.w3.org/1999/xlink" width="36" height="36" viewBox="0 0 36 36">
  <defs>
    <clipPath id="clip-path">
      <circle id="Ellipse_2427" data-name="Ellipse 2427" cx="18" cy="18" r="18" fill="#eaeff4"/>
    </clipPath>
  </defs>
  <g id="Mask_Group_119101" data-name="Mask Group 119101" clip-path="url(#clip-path)">
    <g id="Group_117562" data-name="Group 117562">
      <g id="Group_117560" data-name="Group 117560">
        <circle id="Ellipse_2398" data-name="Ellipse 2398" cx="18" cy="18" r="18" fill="#eaeff4"/>
        <path id="certificate" d="M63.652,8.15a3.2,3.2,0,1,0,3.2,3.2A3.205,3.205,0,0,0,63.652,8.15Zm1.357,2.688-1.164,1.746a.582.582,0,0,1-.807.161l-.873-.582a.582.582,0,1,1,.646-.968l.389.259c.928-1.392.878-1.354,1.035-1.443A.582.582,0,0,1,65.01,10.837Zm-3.977,4v3.2a.582.582,0,0,0,.871.505l1.749-1,1.749,1a.582.582,0,0,0,.871-.505v-3.2A4.355,4.355,0,0,1,61.033,14.842Zm3.784-7.7V1.264A1.266,1.266,0,0,0,63.552,0H53.274A1.266,1.266,0,0,0,52.01,1.264V14.744a1.266,1.266,0,0,0,1.264,1.264h6.594c0-2.5,0-2.35.009-2.465A4.37,4.37,0,0,1,64.816,7.143ZM55.5,2.911h4.948a.582.582,0,1,1,0,1.164H55.5a.582.582,0,0,1,0-1.164Zm2.911,5.821H55.5a.582.582,0,0,1,0-1.164h2.911a.582.582,0,1,1,0,1.164ZM55.5,6.4a.582.582,0,0,1,0-1.164h4.948a.582.582,0,1,1,0,1.164Z" transform="translate(-41.432 8.686)" fill="#5d676e"/>
      </g>
    </g>
  </g>
</svg>
