<svg xmlns="http://www.w3.org/2000/svg" xmlns:xlink="http://www.w3.org/1999/xlink" width="32" height="32" viewBox="0 0 32 32">
  <defs>
    <clipPath id="clip-path">
      <rect id="Rectangle_19411" data-name="Rectangle 19411" width="32" height="32" transform="translate(356 87.004)" fill="#989797" stroke="#707070" stroke-width="1"/>
    </clipPath>
  </defs>
  <g id="Mask_Group_838" data-name="Mask Group 838" transform="translate(-356 -87.004)" clip-path="url(#clip-path)">
    <g id="crown" transform="translate(360.358 94.22)">
      <path id="Path_76707" data-name="Path 76707" d="M69.82,327.529a.529.529,0,0,0,.529.529H86.226a.529.529,0,0,0,.529-.529v-1.588H69.82Zm0,0" transform="translate(-66.645 -311.49)" fill="#ffd200"/>
      <path id="Path_76708" data-name="Path 76708" d="M21.7,3.18A1.589,1.589,0,0,0,20.11,4.767a1.593,1.593,0,0,0,.019.193L15.518,7.265,12.485,2.932a1.588,1.588,0,1,0-1.686,0L7.766,7.265,3.155,4.96a1.558,1.558,0,0,0,.02-.193A1.588,1.588,0,1,0,1.394,6.336l1.781,7.428H20.11l1.781-7.428A1.584,1.584,0,0,0,21.7,3.18Zm0,0" transform="translate(0 1)" fill="#ffd200"/>
    </g>
  </g>
</svg>
