<svg xmlns="http://www.w3.org/2000/svg" xmlns:xlink="http://www.w3.org/1999/xlink" width="32" height="32" viewBox="0 0 32 32">
  <defs>
    <clipPath id="clip-path">
      <rect id="Rectangle_19411" data-name="Rectangle 19411" width="32" height="32" transform="translate(356 87.004)" fill="#fff" stroke="#707070" stroke-width="1"/>
    </clipPath>
  </defs>
  <g id="Mask_Group_838" data-name="Mask Group 838" transform="translate(-356 -87.004)" clip-path="url(#clip-path)">
    <g id="_57-Resume" data-name="57-Resume" transform="translate(357.718 88.996)">
      <path id="Path_76705" data-name="Path 76705" d="M19.575,8.857A2.571,2.571,0,0,1,17,6.286V2H7.571A2.571,2.571,0,0,0,5,4.571V23.429A2.571,2.571,0,0,0,7.571,26H21.279a2.571,2.571,0,0,0,2.571-2.571V8.854ZM11.857,6.286A2.571,2.571,0,1,1,9.286,8.857a2.571,2.571,0,0,1,2.571-2.571ZM8.429,14.857A2.571,2.571,0,0,1,11,12.286h1.714a2.571,2.571,0,0,1,2.571,2.571v1.718a.857.857,0,0,1-.857.857H9.286a.857.857,0,0,1-.857-.857Zm11.146,6.857H9.286a.857.857,0,0,1,0-1.714H19.575a.857.857,0,0,1,0,1.714Zm0-4.286H17.857a.857.857,0,1,1,0-1.714h1.718a.857.857,0,0,1,0,1.714Zm0-4.286H17.857a.857.857,0,1,1,0-1.714h1.718a.857.857,0,0,1,0,1.714Z" fill="#ac1e2d"/>
      <path id="Path_76706" data-name="Path 76706" d="M21.857,7.226h3.789L21,2.58V6.369A.857.857,0,0,0,21.857,7.226Z" transform="translate(-2.287 -0.082)" fill="#ac1e2d"/>
    </g>
  </g>
</svg>
