<svg xmlns="http://www.w3.org/2000/svg" width="192" height="192" viewBox="0 0 192 192">
  <g fill="none" fill-rule="evenodd" stroke-linecap="round" stroke-linejoin="round">
    <g stroke="#CFAFEC" stroke-width="4" transform="translate(43 48)">
      <path fill="#CFAFEC" d="M16.32,39 L20,39 L20,78 L16.32,78 C7.30671288,78 0,70.8759549 0,62.088 L0,54.912 C0,46.1240451 7.30671288,39 16.32,39 Z"/>
      <path fill="#CFAFEC" d="M120.32,39 L124,39 L124,78 L120.32,78 C111.306713,78 104,70.8759549 104,62.088 L104,54.912 C104,46.1240451 111.306713,39 120.32,39 Z" transform="rotate(-180 114 58.5)"/>
      <rect width="36" height="16" x="49" y="103" fill="#CFAFEC" rx=".93"/>
      <path d="M48.0150071,109 C47.4764169,108.87551 46.9427666,108.744214 46.4142851,108.606106 C30.6956853,104.49835 19.5496956,94.3636847 19,78.0098016 L19,38.3288158 C19.68,16.9021237 38.3015385,0 61.5261538,0 C84.7507692,0 103.633846,16.9021237 104,38.3288158 L104,78.0618081"/>
    </g>
    <g stroke="#282828" stroke-width="4" transform="translate(34 37)">
      <path d="M16.32,39 L20,39 L20,78 L16.32,78 C7.30671288,78 0,70.8759549 0,62.088 L0,54.912 C0,46.1240451 7.30671288,39 16.32,39 Z"/>
      <path d="M120.32,39 L124,39 L124,78 L120.32,78 C111.306713,78 104,70.8759549 104,62.088 L104,54.912 C104,46.1240451 111.306713,39 120.32,39 Z" transform="rotate(-180 114 58.5)"/>
      <rect width="36" height="16" x="49" y="103" rx=".93"/>
      <path d="M48.0150071,109 C47.4764169,108.87551 46.9427666,108.744214 46.4142851,108.606106 C30.6956853,104.49835 19.5496956,94.3636847 19,78.0098016 L19,38.3288158 C19.68,16.9021237 38.3015385,0 61.5261538,0 C84.7507692,0 103.633846,16.9021237 104,38.3288158 L104,78.0618081"/>
    </g>
  </g>
</svg>
