<svg xmlns="http://www.w3.org/2000/svg" viewBox="0 0 473.13 365.01"><defs><style>.cls-1{fill:#ff7a04;}</style></defs><title>Asset 7</title><g id="Layer_2" data-name="Layer 2"><g id="Layer_1-2" data-name="Layer 1"><path class="cls-1" d="M323.46,268.57c-69.39,0-90.51-22.25-92.69-24.78A7.5,7.5,0,0,1,229,238.9v-48a7.5,7.5,0,0,1,7.5-7.5A76.77,76.77,0,0,0,292,160.07v-76a70.64,70.64,0,0,0-15.47-15.46c-10.1-7.46-15.67-17.22-15.67-27.48C260.82,18.08,288.29,0,323.35,0s62.52,18.08,62.52,41.16c0,10.14-5.44,19.81-15.33,27.23A72.05,72.05,0,0,0,355,84.08v76a76.8,76.8,0,0,0,55.5,23.33,7.5,7.5,0,0,1,7.5,7.5v48a7.5,7.5,0,0,1-1.81,4.89C414,246.32,392.86,268.57,323.46,268.57Zm-79.5-33c6.08,4.72,27.79,18,79.5,18,52,0,73.57-13.31,79.5-18V198.11c-39.14-3.07-60.44-29.37-61.38-30.55A7.52,7.52,0,0,1,340,162.9V81.71a7.52,7.52,0,0,1,1.36-4.31l1.16-1.65a86.71,86.71,0,0,1,19-19.35c4.26-3.2,9.34-8.44,9.34-15.24C370.87,27,349.11,15,323.35,15s-47.53,12-47.53,26.16c0,6.89,5.21,12.19,9.58,15.42a85.16,85.16,0,0,1,19,19.06l1.22,1.72A7.46,7.46,0,0,1,307,81.71V162.9a7.52,7.52,0,0,1-1.62,4.66c-.94,1.18-22.23,27.48-61.38,30.55Zm103.5-72.66h0Z"/><path class="cls-1" d="M369.11,215.65A7.5,7.5,0,0,1,366.9,201l1.54-.48A7.5,7.5,0,1,1,373,214.79l-1.67.53A7.74,7.74,0,0,1,369.11,215.65Z"/><path class="cls-1" d="M323.46,221.82c-19.92,0-58.25-3.2-91.1-24.64a7.5,7.5,0,0,1,8.2-12.56c29.59,19.31,64.64,22.2,82.9,22.2a158.44,158.44,0,0,0,21.21-1.46,7.5,7.5,0,0,1,2,14.86A173.56,173.56,0,0,1,323.46,221.82Z"/><path class="cls-1" d="M464.1,304.3H7.5A7.51,7.51,0,0,1,.78,293.46L106.06,81.66a7.5,7.5,0,0,1,6.72-4.16h150.8a7.5,7.5,0,0,1,0,15H117.42L19.6,289.3H452.09L429,241.93a7.5,7.5,0,0,1,13.48-6.58l28.4,58.16a7.5,7.5,0,0,1-6.74,10.79Z"/><path class="cls-1" d="M264.63,129h-121a7.5,7.5,0,0,1,0-15h121a7.5,7.5,0,1,1,0,15Z"/><path class="cls-1" d="M254.63,166h-131a7.5,7.5,0,0,1,0-15h131a7.5,7.5,0,0,1,0,15Z"/><path class="cls-1" d="M176.63,210h-75a7.5,7.5,0,0,1,0-15h75a7.5,7.5,0,0,1,0,15Z"/><path class="cls-1" d="M464,334H7.5A7.49,7.49,0,0,1,.79,323.17l4.85-9.75A7.5,7.5,0,0,1,19.51,319H450.56A7.5,7.5,0,0,1,464,312.74l6.24,9.72A7.51,7.51,0,0,1,464,334Z"/><path class="cls-1" d="M464,365H7.5A7.49,7.49,0,0,1,.79,354.17l5.92-11.89A7.5,7.5,0,1,1,20.14,349l-.52,1h431.9l-.45-.86a7.5,7.5,0,0,1,13.26-7L470.59,354A7.5,7.5,0,0,1,464,365Z"/><path class="cls-1" d="M392.13,128.51a7.5,7.5,0,0,1-7.5-7.5V80a7.5,7.5,0,1,1,15,0v41A7.5,7.5,0,0,1,392.13,128.51Z"/><path class="cls-1" d="M412.46,145.4a7.5,7.5,0,0,1-5.6-12.49l26.31-29.5a7.5,7.5,0,1,1,11.19,10l-26.3,29.5A7.49,7.49,0,0,1,412.46,145.4Z"/><path class="cls-1" d="M465.63,168h-38a7.5,7.5,0,0,1,0-15h38a7.5,7.5,0,0,1,0,15Z"/></g></g></svg>