<?xml version="1.0" encoding="UTF-8"?> <svg xmlns="http://www.w3.org/2000/svg" width="52" height="52" fill="none"><path d="M52 26a26 26 0 10-52 0 26 26 0 0052 0z" fill="#3F444E"></path><path fill-rule="evenodd" clip-rule="evenodd" d="M37.11 19.17a7.3 7.3 0 00-5.75-3.11c-2.43-.26-4.77 1.45-6 1.45-1.26 0-3.16-1.43-5.21-1.39a7.66 7.66 0 00-6.45 3.94c-2.79 4.83-.7 11.92 1.96 15.83 1.34 1.9 2.9 4.04 4.95 3.97 2-.09 2.74-1.28 5.16-1.28 2.39 0 3.09 1.28 5.17 1.23 2.15-.04 3.5-1.92 4.8-3.85a15.75 15.75 0 002.18-4.46 6.9 6.9 0 01-4.2-6.34c-.04-3.97 3.24-5.9 3.4-5.99zm-8.7-5.68A7.03 7.03 0 0030 8.46a7.15 7.15 0 00-4.62 2.4c-1 1.15-1.88 3.05-1.65 4.84 1.74.13 3.54-.88 4.66-2.2z" fill="#fff"></path></svg> 