<?xml version="1.0" encoding="UTF-8"?> <svg xmlns="http://www.w3.org/2000/svg" width="52" height="52" fill="none"><circle cx="26" cy="26" r="26" fill="#000"></circle><g clip-path="url(#clip0)" fill="#fff"><path d="M15.11 30.34h-2.4L12 28.62H8l-.66 1.72H5l3.58-8.67h2.57l3.96 8.67zm-5.2-6.6L8.6 27.1h2.73l-1.42-3.38zM23.76 21.67h1.93v8.67h-2.22v-5.4l-2.4 2.71h-.33l-2.4-2.73v5.4h-2.21v-8.65h1.92l2.86 3.22 2.85-3.22zM31.3 21.67c3.25 0 4.93 1.97 4.93 4.34 0 2.5-1.62 4.33-5.16 4.33h-3.69v-8.67h3.92zm-1.7 7.08h1.44c2.23 0 2.9-1.47 2.9-2.75 0-1.5-.83-2.74-2.92-2.74H29.6v5.49zM45.2 23.73h-4.58L37.83 21H48v9.92l-2.8-2.73v-4.46zM40.62 28.2v-3.93l-2.87 2.8V31h4.02l2.88-2.8h-4.03z"></path></g><defs><clipPath id="clip0"><path fill="#fff" transform="translate(5 21)" d="M0 0h43v10H0z"></path></clipPath></defs></svg> 