<?xml version="1.0" encoding="UTF-8"?> <svg xmlns="http://www.w3.org/2000/svg" width="219" height="66" viewBox="0 0 219 66" fill="none"><rect x="2.15625" y="0.488281" width="215.324" height="64.6016" rx="7" fill="black"></rect><path d="M75.4986 41.4664L71.9155 31.7853L68.3491 41.4664H75.4986ZM63.0078 48.6493L70.4355 29.187H73.4122L80.8399 48.6493H78.0969L76.322 43.653H67.559L65.7842 48.6493H63.0078ZM85.8863 46.4627V54.202H83.4882V34.0498H85.8863V36.2531C86.3926 35.3851 87.0268 34.7453 87.7947 34.328C88.5736 33.8996 89.4916 33.6882 90.5543 33.6882C92.3292 33.6882 93.7702 34.3948 94.8774 35.808C95.9957 37.2101 96.5521 39.0628 96.5521 41.3662C96.5521 43.6585 95.9957 45.5057 94.8774 46.9245C93.7702 48.3266 92.3292 49.0276 90.5543 49.0276C89.4916 49.0276 88.5736 48.8218 87.7947 48.4045C87.0268 47.9761 86.3926 47.3251 85.8863 46.4627ZM94.054 41.3662C94.054 39.6025 93.6867 38.2171 92.9523 37.2101C92.2401 36.203 91.2498 35.6967 89.9757 35.6967C88.7071 35.6967 87.7001 36.203 86.9656 37.2101C86.2423 38.2171 85.8807 39.6025 85.8807 41.3662C85.8807 43.13 86.2423 44.5154 86.9656 45.5224C87.7001 46.5183 88.7016 47.0191 89.9757 47.0191C91.2442 47.0191 92.2401 46.5183 92.9523 45.5224C93.6867 44.5154 94.054 43.13 94.054 41.3662ZM102.85 46.4627V54.202H100.436V34.0498H102.85V36.2531C103.357 35.3851 103.985 34.7453 104.742 34.328C105.521 33.8996 106.445 33.6882 107.518 33.6882C109.282 33.6882 110.718 34.3948 111.825 35.808C112.943 37.2101 113.5 39.0628 113.5 41.3662C113.5 43.6585 112.943 45.5057 111.825 46.9245C110.718 48.3266 109.282 49.0276 107.518 49.0276C106.445 49.0276 105.521 48.8218 104.742 48.4045C103.985 47.9761 103.351 47.3251 102.85 46.4627ZM111.001 41.3662C111.001 39.6025 110.634 38.2171 109.9 37.2101C109.188 36.203 108.197 35.6967 106.923 35.6967C105.655 35.6967 104.647 36.203 103.913 37.2101C103.201 38.2171 102.845 39.6025 102.845 41.3662C102.845 43.13 103.201 44.5154 103.913 45.5224C104.647 46.5183 105.649 47.0191 106.923 47.0191C108.192 47.0191 109.188 46.5183 109.9 45.5224C110.634 44.5154 111.001 43.13 111.001 41.3662ZM130.758 45.8729V40.6485H126.469V38.4786H133.373V46.8466C132.355 47.5699 131.231 48.1152 130.002 48.4879C128.783 48.8496 127.481 49.0276 126.09 49.0276C123.041 49.0276 120.66 48.1374 118.941 46.3625C117.233 44.5877 116.376 42.1118 116.376 38.9348C116.376 35.7579 117.233 33.282 118.941 31.5071C120.66 29.7211 123.047 28.8254 126.09 28.8254C127.359 28.8254 128.561 28.9867 129.69 29.3039C130.842 29.6099 131.899 30.0717 132.862 30.6837V33.4934C131.888 32.6589 130.853 32.0357 129.757 31.6184C128.661 31.2011 127.509 30.9953 126.307 30.9953C123.932 30.9953 122.14 31.6574 120.933 32.9816C119.748 34.3169 119.158 36.3032 119.158 38.9293C119.158 41.5554 119.748 43.5361 120.933 44.8603C122.14 46.1845 123.932 46.8466 126.307 46.8466C127.237 46.8466 128.071 46.7687 128.806 46.6185C129.529 46.4627 130.18 46.2123 130.758 45.8729ZM147.016 41.2995H144.635C142.693 41.2995 141.352 41.522 140.606 41.9727C139.861 42.4122 139.488 43.1689 139.488 44.2427C139.488 45.0996 139.766 45.7783 140.328 46.2791C140.885 46.7743 141.647 47.0191 142.615 47.0191C143.95 47.0191 145.019 46.5462 145.82 45.6059C146.621 44.6656 147.022 43.4082 147.022 41.8392V41.2995H147.016ZM149.414 40.3147V48.6493H147.016V46.4293C146.471 47.3195 145.786 47.9761 144.98 48.4045C144.156 48.8218 143.155 49.0276 141.97 49.0276C140.479 49.0276 139.288 48.6103 138.403 47.7758C137.524 46.9301 137.09 45.8006 137.09 44.3874C137.09 42.7572 137.635 41.5165 138.731 40.6708C139.839 39.8362 141.48 39.4189 143.661 39.4189H147.016V39.1908C147.016 38.0836 146.654 37.2267 145.931 36.6259C145.208 36.025 144.19 35.7245 142.877 35.7245C142.042 35.7245 141.235 35.8247 140.445 36.0194C139.655 36.2141 138.893 36.5201 138.158 36.9207V34.7008C139.037 34.3614 139.889 34.111 140.723 33.9441C141.547 33.7661 142.342 33.6826 143.121 33.6826C145.236 33.6826 146.816 34.2278 147.856 35.3239C148.897 36.4311 149.414 38.0891 149.414 40.3147ZM154.36 48.6493V28.3691H156.758V48.6493H154.36ZM161.777 48.6493V28.3691H164.175V48.6493H161.777ZM181.612 40.7431V41.9282H170.584C170.684 43.5695 171.174 44.8325 172.064 45.706C172.96 46.5628 174.206 46.9857 175.798 46.9857C176.716 46.9857 177.606 46.8744 178.463 46.6574C179.342 46.4293 180.199 46.0899 181.044 45.6393V47.9093C180.188 48.2709 179.308 48.5491 178.396 48.7494C177.5 48.933 176.582 49.0276 175.653 49.0276C173.327 49.0276 171.486 48.3488 170.111 46.9913C168.754 45.6448 168.075 43.8143 168.075 41.4998C168.075 39.1018 168.72 37.2045 170.017 35.8135C171.308 34.4003 173.055 33.6937 175.241 33.6937C177.205 33.6937 178.752 34.328 179.893 35.6021C181.039 36.8595 181.612 38.5732 181.612 40.7431ZM170.651 40.0532H179.214C179.192 38.7401 178.819 37.6885 178.096 36.8985C177.383 36.1195 176.437 35.7301 175.252 35.7301C173.917 35.7301 172.843 36.1084 172.031 36.8651C171.23 37.6218 170.774 38.6845 170.651 40.0532ZM193.908 33.8217L193.925 36.2865C193.652 36.1307 193.357 36.0194 193.034 35.9415C192.712 35.8636 192.372 35.8247 191.999 35.8247C190.642 35.8247 189.596 36.2698 188.862 37.1544C188.138 38.0335 187.777 39.2965 187.777 40.9489V48.6437H185.379V34.0498H187.777V36.3198C188.283 35.4296 188.939 34.7731 189.752 34.3447C190.564 33.9051 191.543 33.6882 192.695 33.6882C192.862 33.6882 193.046 33.7049 193.251 33.7382C193.446 33.7494 193.669 33.7772 193.908 33.8217ZM208.93 34.0498L202.521 49.9957C201.842 51.7372 201.18 52.8778 200.534 53.4119C199.889 53.9405 199.027 54.202 197.953 54.202H196.028V52.199H197.441C198.097 52.199 198.615 52.0376 198.988 51.7205C199.349 51.4145 199.75 50.6745 200.189 49.5005L200.635 48.4156L194.715 34.0498H197.263L201.831 45.4556L206.382 34.0498H208.93Z" fill="white"></path><path d="M62.8594 22.3477V12.305H69.2021V13.44H64.2058V16.4167H68.9907V17.5684H64.2058V21.2015H69.3357V22.3533H62.8594V22.3477ZM74.204 16.9897L71.0827 12.305H72.546L75.0441 16.0383L77.5423 12.305H79.0056L75.7841 17.1233L79.217 22.3477H77.7537L74.944 18.0747L72.0842 22.3477H70.6209L74.204 16.9897ZM84.0631 13.4233H82.355V17.19H84.0631C84.6974 17.19 85.1926 17.0287 85.5431 16.7115C85.8825 16.3833 86.055 15.9104 86.055 15.2983C86.055 14.7086 85.8825 14.2468 85.5431 13.9185C85.1926 13.5902 84.6974 13.4233 84.0631 13.4233ZM81.0086 22.3477V12.305H84.0631C85.1926 12.305 86.0438 12.5554 86.628 13.0617C87.1955 13.5791 87.4848 14.3191 87.4848 15.2983C87.4848 16.2943 87.2011 17.0454 86.628 17.5517C86.0494 18.058 85.1926 18.3084 84.0631 18.3084H82.355V22.3533H81.0086V22.3477ZM89.3098 22.3477V12.305H90.6729V21.196H95.5691V22.3477H89.3098ZM100.582 13.2286C99.5973 13.2286 98.8072 13.5958 98.2175 14.3302C97.65 15.0647 97.3606 16.0661 97.3606 17.3403C97.3606 18.5977 97.6444 19.6047 98.2175 20.3503C98.8072 21.0847 99.5973 21.4519 100.582 21.4519C101.567 21.4519 102.346 21.0847 102.913 20.3503C103.492 19.6047 103.787 18.6032 103.787 17.3403C103.787 16.0717 103.498 15.0647 102.913 14.3302C102.346 13.5902 101.567 13.2286 100.582 13.2286ZM100.582 12.127C101.984 12.127 103.108 12.5999 103.954 13.5402C104.799 14.4805 105.217 15.749 105.217 17.3347C105.217 18.9259 104.794 20.1889 103.954 21.1292C103.108 22.0695 101.984 22.5424 100.582 22.5424C99.1689 22.5424 98.0339 22.0695 97.177 21.1292C96.3313 20.1889 95.9141 18.9204 95.9141 17.3347C95.9141 15.7434 96.3369 14.4805 97.177 13.5402C98.0339 12.5943 99.1689 12.127 100.582 12.127ZM112.105 17.6296C112.4 17.7297 112.683 17.9412 112.962 18.2694C113.234 18.5866 113.512 19.0317 113.802 19.5992L115.182 22.3421H113.718L112.439 19.7605C112.099 19.0929 111.777 18.6478 111.47 18.4308C111.153 18.2138 110.725 18.1025 110.191 18.1025H108.711V22.3421H107.348V12.305H110.419C111.571 12.305 112.427 12.5442 113.001 13.0283C113.557 13.5012 113.841 14.2245 113.841 15.1982C113.841 15.8325 113.69 16.361 113.396 16.7783C113.09 17.19 112.667 17.4794 112.105 17.6296ZM110.413 13.4233H108.705V16.9897H110.413C111.07 16.9897 111.565 16.8339 111.893 16.5279C112.233 16.2219 112.405 15.7768 112.405 15.1982C112.405 14.6084 112.233 14.1633 111.893 13.8684C111.565 13.5735 111.07 13.4233 110.413 13.4233ZM116.923 22.3477V12.305H123.266V13.44H118.286V16.4167H123.071V17.5684H118.286V21.2015H123.399V22.3533H116.923V22.3477ZM130.004 22.3477V12.305H131.367V22.3477H130.004ZM132.685 13.44V12.305H141.181V13.44H137.615V22.3477H136.252V13.44H132.685ZM150.946 13.2286C149.961 13.2286 149.177 13.5958 148.598 14.3302C148.019 15.0647 147.724 16.0661 147.724 17.3403C147.724 18.5977 148.014 19.6047 148.598 20.3503C149.177 21.0847 149.961 21.4519 150.946 21.4519C151.931 21.4519 152.715 21.0847 153.294 20.3503C153.861 19.6047 154.151 18.6032 154.151 17.3403C154.151 16.0717 153.867 15.0647 153.294 14.3302C152.715 13.5902 151.931 13.2286 150.946 13.2286ZM150.946 12.127C152.359 12.127 153.489 12.5999 154.334 13.5402C155.18 14.4805 155.597 15.749 155.597 17.3347C155.597 18.9259 155.174 20.1889 154.334 21.1292C153.494 22.0695 152.359 22.5424 150.946 22.5424C149.533 22.5424 148.403 22.0695 147.557 21.1292C146.712 20.1889 146.294 18.9204 146.294 17.3347C146.294 15.7434 146.717 14.4805 147.557 13.5402C148.403 12.5943 149.533 12.127 150.946 12.127ZM157.717 22.3477V12.305H159.542L163.999 20.7064V12.305H165.328V22.3477H163.487L159.03 13.9463V22.3477H157.717Z" fill="white"></path><path d="M45.6665 12.3379H27.7844C19.3496 12.3379 16.2617 15.4091 16.2617 23.8439V41.726C16.2617 50.1608 19.3496 53.2487 27.7844 53.2487H45.6665C54.0846 53.2487 57.1725 50.1608 57.1725 41.726V23.8439C57.1725 15.4091 54.1013 12.3379 45.6665 12.3379Z" fill="#E23650"></path><path fill-rule="evenodd" clip-rule="evenodd" d="M33.7178 37.0265L33.2227 38.1281H32.121L34.469 32.7868H35.4204L37.7683 38.1281H36.6333L36.1548 37.0265H33.7178ZM34.1073 36.0584H35.7486L34.9252 34.15L34.1073 36.0584ZM51.5332 32.7868H52.6182V38.1281H51.5332V32.7868ZM47.2769 37.16H50.2535V38.1281H46.2086V32.7868H50.1367V33.7716H47.2769V34.8566H49.252V35.8414H47.2769V37.16ZM44.2001 32.7868H45.3351L43.4768 38.1448H42.5588L41.3403 34.6285L40.1218 38.1448H39.2316L37.3566 32.7868H38.525L39.7101 36.4701L40.9119 32.7868H41.8021L43.0206 36.4701L44.2001 32.7868ZM30.4797 32.7868H31.5647V35.8136C31.5647 37.3436 30.7245 38.2283 29.2445 38.2283C27.7979 38.2283 26.9578 37.3547 26.9578 35.847V32.7924H28.0428V35.8191C28.0428 36.7205 28.4712 37.199 29.2612 37.199C30.0513 37.199 30.4797 36.7205 30.4797 35.8525V32.7868ZM24.3651 32.7868H25.45V38.1448H24.3651V35.9582H21.917V38.1448H20.832V32.7868H21.917V34.94H24.3651V32.7868ZM36.7223 25.9823C32.9556 25.9823 29.9178 22.9278 29.9178 19.1777H30.8692C30.8692 22.3992 33.5009 25.0142 36.7223 25.0142C39.9438 25.0142 42.5755 22.3992 42.5755 19.1777H43.5269C43.5269 22.9222 40.4723 25.9823 36.7223 25.9823Z" fill="white"></path><path d="M210.76 1.78031C212.559 1.78031 214.284 2.49497 215.556 3.76706C216.828 5.03915 217.543 6.76447 217.543 8.56348V57.0146C217.543 58.8137 216.828 60.539 215.556 61.8111C214.284 63.0832 212.559 63.7978 210.76 63.7978H8.87988C7.08088 63.7978 5.35555 63.0832 4.08346 61.8111C2.81137 60.539 2.09672 58.8137 2.09672 57.0146V8.56348C2.09672 6.76447 2.81137 5.03915 4.08346 3.76706C5.35555 2.49497 7.08088 1.78031 8.87988 1.78031H210.76ZM210.76 0.488281H8.87988C6.73821 0.488281 4.68425 1.33906 3.16986 2.85345C1.65546 4.36784 0.804688 6.4218 0.804688 8.56348L0.804688 57.0146C0.804688 59.1563 1.65546 61.2103 3.16986 62.7247C4.68425 64.2391 6.73821 65.0898 8.87988 65.0898H210.76C212.901 65.0898 214.955 64.2391 216.47 62.7247C217.984 61.2103 218.835 59.1563 218.835 57.0146V8.56348C218.835 6.4218 217.984 4.36784 216.47 2.85345C214.955 1.33906 212.901 0.488281 210.76 0.488281V0.488281Z" fill="#A7A6A6"></path></svg> 