<?xml version="1.0" encoding="UTF-8"?> <svg xmlns="http://www.w3.org/2000/svg" width="52" height="52" fill="none"><circle cx="26" cy="26" r="26" fill="#F0F0F0"></circle><path d="M33 11.2a15.7 15.7 0 00-25.3.8l-.5.8a7.8 7.8 0 01-.5.8 5 5 0 00-.3.8L6 15l-.6 1.8-.2.7-.2 1.5v1.6a15 15 0 003.2 9.3 15.7 15.7 0 0024.7 0 15 15 0 000-18.7z" fill="#032774"></path><path d="M8.2 17.5l-3 1.5c0-.5 0-1 .2-1.5h2.8zM11.9 11.2v2.9l-4.2-2c.1-.4.3-.6.5-.8H12zM8.2 14.4H6.4c0-.3.2-.5.3-.8l1.5.8zM23 14.4v-2.1l-4.2 2H23zM20.8 11.2h-5.7v2.9l5.7-2.9zM23 19.5v-2h-4.2l4.2 2zM6.1 20.6H12v-2.9l-5.8 2.9zM15 20.6h5.8l-5.7-2.9v2.9z" fill="#032774"></path><path d="M23 12.3l-4.2 2H23v3.2h-4.2l4.2 2v.4l-5-2.4h-1.4l6.4 3h-2.1L15 17.8v2.9h-3.2v-2.9l-5.8 2.9h-.7l6.4-3.1h-1.5L5 20l.1-1 3-1.5H5.4l.2-.7a14.5 14.5 0 01.9-2.4h1.8l-1.5-.8c0-.1 0-.2.2-.3l2 1h1.4l-3.1-1.5.5-.8 4.2 2v-2.8h3.2v2.9l5.7-2.9h.7l-6.3 3.2h1.5l6.3-3.1v1z" fill="#fff"></path><path d="M10.3 14.4H9l-2-1 .3-.6 3.1 1.6zM16.6 17.5l6.4 3V20l-5-2.4h-1.4zM15.2 14.4h1.4l6.4-3.2h-1.5l-6.3 3.2zM11.7 17.5l-6.3 3H5V20l5.3-2.5h1.4z" fill="#DF0333"></path><path d="M23 15v1.8h-8.6v3.8h-1.9v-3.8h-7L6 15h6.4v-3.8h2V15H23z" fill="#DF0333"></path><path d="M13.5 26.5l-1.2 1.3.2-1.8-1.8-.1 1.5-1-1-1.4 1.7.6.6-1.7.5 1.7 1.7-.6-1 1.5 1.5.9-1.7.1.2 1.8-1.2-1.3zM29 27.4l-.6.6.1-.8-.8-.1.7-.4-.4-.7.8.2.2-.8.3.8.8-.2-.5.7.8.4h-.9l.1.9-.6-.6zM25.7 20l-.6.6v-.8l-.8-.1.8-.5-.5-.6.8.2.3-.8.2.8.8-.2-.4.6.7.5h-.8v.9l-.5-.6zM29 15l-.6.6.1-.9h-.8l.7-.5-.4-.7.8.3.2-.8.3.8.8-.3-.5.7.8.4-.9.1.1.9-.6-.7zM33.2 18.8l-.6.6.1-.9H32l.7-.5-.4-.7.8.3.2-.8.3.8.8-.3-.4.7.7.5h-.9l.1.9-.6-.6zM31 21.7l-.5.3.1-.5-.4-.4h.5l.2-.6.2.6h.6l-.4.4.1.5-.5-.3zM45.4 37.3c-.3.9-.8 1.7-1.3 2.4H17.8c-.5-.7-.9-1.5-1.2-2.4h28.8z" fill="#fff"></path><path d="M46.2 35a14 14 0 01-.8 2.3H16.6l-.8-2.3h30.4z" fill="#B12233"></path><path d="M46.6 32.6l-.4 2.4H15.8l-.4-2.4h31.2z" fill="#fff"></path><path d="M44.1 39.7l-1.8 2.4H19.7l-1.9-2.4h26.3zM39.3 44.4a15.9 15.9 0 01-16.6 0h16.6z" fill="#B12233"></path><path d="M42.3 42c-1 1-1.9 1.7-3 2.4H22.7l-3-2.3h22.6zM42.3 20.8H19.7c.9-.9 1.9-1.7 3-2.3h16.6c1.1.6 2 1.4 3 2.3z" fill="#fff"></path><path d="M39.3 18.5H22.7l1.5-.9h.2l.5-.3h.3a15.6 15.6 0 0114.2 1.3zM44.1 23.2H17.8l.5-.6c.4-.7 1-1.2 1.4-1.8h22.6c.7.8 1.3 1.5 1.8 2.4zM46.2 28H15.8c.2-1 .5-1.7.8-2.5h28.8l.8 2.4z" fill="#B12233"></path><path d="M45.4 25.5H16.6l.2-.4.5-1 .5-.9h26.3c.5.7 1 1.5 1.3 2.3zM46.6 30.3H15.4V30l.2-.9.2-1.2h30.4l.4 2.4z" fill="#fff"></path><path d="M46.6 31.5v1.1H15.4v-1.1-1.2h31.2v1.2z" fill="#B12233"></path><path d="M31 16.1v16.5H15.4v-1.1-1.2-.3l.2-.9.2-1.2.8-2.4.2-.4.5-1 .5-.9.5-.6c.4-.7 1-1.2 1.4-1.8.9-.9 1.9-1.7 3-2.3l1.5-.9h.2l.5-.3h.3C27 16.4 28.9 16 31 16z" fill="#3C3B6D"></path><path d="M29 17l.3.6h.7l-.6.4.2.6-.6-.4-.5.4.2-.6-.6-.4h.7l.2-.7zM25.6 18.5v.1l-.2-.1-.3-.3-.4.3-.2.1v-.1l.2-.5-.5-.4H24.8l.1-.3h.3l.1.3h.7l-.6.4.2.5zM29 20.2l.3.7h.7l-.6.4.2.6-.6-.4-.5.4.2-.6-.6-.4h.7l.2-.7zM25 20.2l.3.7h.7l-.6.4.2.6-.5-.4-.6.4.2-.6-.6-.4h.7l.3-.7zM21.1 20.2l.2.7h.7l-.5.4.2.6-.6-.4-.6.4.2-.6-.5-.4h.7l.2-.7zM29 23.5l.3.7h.7l-.6.4.2.6-.6-.4-.5.4.2-.6-.6-.4h.7l.2-.7zM25 23.5l.3.7h.7l-.6.4.3.6-.6-.4-.6.4.2-.6-.6-.4h.7l.3-.7zM21.1 23.5l.2.7h.7l-.5.4.2.6-.6-.4-.6.4.2-.6-.5-.4h.7l.2-.7zM17.5 24.6l.2.6-.5-.4-.4.3.5-1h.8l-.6.5zM29 26.8l.3.7h.7l-.6.4.2.6-.6-.4-.5.4.2-.6-.6-.4h.7l.2-.7zM25 26.8l.3.7h.7l-.6.4.2.6-.5-.4-.6.4.2-.6-.6-.4h.7l.3-.7zM21.1 26.8l.2.7h.7l-.5.4.2.6-.6-.4-.6.4.2-.6-.5-.4h.7l.2-.7zM17.2 26.8l.2.7h.7l-.6.4.2.6-.5-.4-.6.4.2-.6-.6-.4h.7l.3-.7zM29 30.1l.3.7h.7l-.6.4.2.6-.6-.4-.5.4.2-.6-.6-.4h.7l.2-.7zM25 30.1l.3.7h.7l-.6.4.2.6-.5-.4-.6.4.2-.6-.6-.4h.7l.3-.7zM21.1 30.1l.2.7h.7l-.5.4.2.6-.6-.4-.6.4.2-.6-.5-.4h.7l.2-.7zM17.2 30.1l.2.7h.7l-.6.4.2.6-.5-.4-.6.4.2-.6-.6-.4h.7l.3-.7zM27 28.5l.3.6h.7l-.6.4.2.7-.5-.4-.6.4.2-.7-.6-.4h.7l.3-.6zM23 28.5l.3.6h.7l-.6.4.3.7-.6-.4-.6.4.2-.7-.6-.4h.8l.2-.6zM19.1 28.5l.2.6h.8l-.6.4.2.7-.6-.4-.5.4.2-.7-.6-.4h.7l.2-.6zM15.5 29.5l.2.7-.2-.2V29h.6l-.6.4zM27 25.2l.3.6h.7l-.6.4.2.7-.5-.4-.6.4.2-.7-.6-.4h.7l.3-.6zM23 25.2l.3.6h.7l-.6.4.3.7-.6-.4-.6.4.2-.7-.6-.4h.8l.2-.6zM19.1 25.2l.2.6h.8l-.6.4.2.7-.6-.4-.5.4.2-.7-.6-.4h.7l.2-.6zM27 21.9l.3.6h.7l-.6.4.2.7-.5-.4-.6.4.2-.7-.6-.4h.7l.3-.6zM23 21.9l.3.6h.7l-.6.4.3.7-.6-.4-.6.4.2-.7-.6-.4h.8l.2-.6zM19.6 23.2l.1.4-.5-.4-.6.4v-.4l.2-.3-.5-.3h.6l.2-.7.2.6h.8l-.6.4v.3zM27 18.6l.3.6h.7l-.6.4.2.7-.5-.4-.6.4.2-.7-.6-.4h.7l.3-.6zM23 18.6l.3.6h.7l-.6.4.3.7-.6-.4-.6.4.2-.7-.6-.4h.8l.2-.6z" fill="#fff"></path></svg> 