<?xml version="1.0" encoding="UTF-8"?> <svg xmlns="http://www.w3.org/2000/svg" width="53" height="52" viewBox="0 0 53 52" fill="none"><rect x="3.75" y="3.25" width="45.5" height="45.5" rx="22.75" fill="white"></rect><path d="M21.0052 15.7497C21.0052 17.2684 19.6888 18.4995 18.0651 18.4995C16.4413 18.4995 15.125 17.2684 15.125 15.7497C15.125 14.2311 16.4413 13 18.0651 13C19.6888 13 21.0052 14.2311 21.0052 15.7497Z" fill="#4B47FF"></path><path d="M15.5271 20.5207H20.5528V35.75H15.5271V20.5207Z" fill="#4B47FF"></path><path d="M28.6443 20.5207H23.6186V35.75H28.6443C28.6443 35.75 28.6443 30.9556 28.6443 27.9579C28.6443 26.1586 29.2587 24.3515 31.7101 24.3515C34.4804 24.3515 34.4637 26.7061 34.4508 28.5303C34.4339 30.9147 34.4742 33.348 34.4742 35.75H39.5V27.7123C39.4574 22.58 38.1201 20.2151 33.7204 20.2151C31.1075 20.2151 29.4879 21.4013 28.6443 22.4745V20.5207Z" fill="#4B47FF"></path></svg> 