<?xml version="1.0" encoding="UTF-8"?> <svg xmlns="http://www.w3.org/2000/svg" width="53" height="52" viewBox="0 0 53 52" fill="none"><rect x="3.75" y="3.25" width="45.5" height="45.5" rx="6" fill="white"></rect><rect x="3.75" y="3.25" width="45.5" height="45.5" rx="6" fill="white"></rect><rect x="3.75" y="3.25" width="45.5" height="45.5" rx="6" fill="white"></rect><path d="M37.875 17.0625C37.875 18.4087 36.7837 19.5 35.4375 19.5C34.0913 19.5 33 18.4087 33 17.0625C33 15.7163 34.0913 14.625 35.4375 14.625C36.7837 14.625 37.875 15.7163 37.875 17.0625Z" fill="#4B47FF"></path><path fill-rule="evenodd" clip-rule="evenodd" d="M26.5 34.125C30.9873 34.125 34.625 30.4873 34.625 26C34.625 21.5127 30.9873 17.875 26.5 17.875C22.0127 17.875 18.375 21.5127 18.375 26C18.375 30.4873 22.0127 34.125 26.5 34.125ZM26.5 30.875C29.1924 30.875 31.375 28.6924 31.375 26C31.375 23.3076 29.1924 21.125 26.5 21.125C23.8076 21.125 21.625 23.3076 21.625 26C21.625 28.6924 23.8076 30.875 26.5 30.875Z" fill="#4B47FF"></path><path fill-rule="evenodd" clip-rule="evenodd" d="M10.25 25.35C10.25 19.8895 10.25 17.1592 11.3127 15.0736C12.2475 13.239 13.739 11.7475 15.5736 10.8127C17.6592 9.75 20.3895 9.75 25.85 9.75H27.15C32.6105 9.75 35.3408 9.75 37.4264 10.8127C39.261 11.7475 40.7526 13.239 41.6873 15.0736C42.75 17.1592 42.75 19.8895 42.75 25.35V26.65C42.75 32.1105 42.75 34.8408 41.6873 36.9264C40.7526 38.761 39.261 40.2526 37.4264 41.1873C35.3408 42.25 32.6105 42.25 27.15 42.25H25.85C20.3895 42.25 17.6592 42.25 15.5736 41.1873C13.739 40.2526 12.2475 38.761 11.3127 36.9264C10.25 34.8408 10.25 32.1105 10.25 26.65V25.35ZM25.85 13H27.15C29.9339 13 31.8263 13.0025 33.2891 13.122C34.714 13.2385 35.4426 13.4495 35.9509 13.7085C37.174 14.3316 38.1684 15.326 38.7915 16.5491C39.0505 17.0574 39.2615 17.786 39.378 19.2109C39.4975 20.6737 39.5 22.5661 39.5 25.35V26.65C39.5 29.4339 39.4975 31.3263 39.378 32.7891C39.2615 34.214 39.0505 34.9426 38.7915 35.4509C38.1684 36.674 37.174 37.6684 35.9509 38.2915C35.4426 38.5505 34.714 38.7615 33.2891 38.878C31.8263 38.9975 29.9339 39 27.15 39H25.85C23.0661 39 21.1737 38.9975 19.7109 38.878C18.286 38.7615 17.5574 38.5505 17.0491 38.2915C15.826 37.6684 14.8316 36.674 14.2085 35.4509C13.9495 34.9426 13.7385 34.214 13.622 32.7891C13.5025 31.3263 13.5 29.4339 13.5 26.65V25.35C13.5 22.5661 13.5025 20.6737 13.622 19.2109C13.7385 17.786 13.9495 17.0574 14.2085 16.5491C14.8316 15.326 15.826 14.3316 17.0491 13.7085C17.5574 13.4495 18.286 13.2385 19.7109 13.122C21.1737 13.0025 23.0661 13 25.85 13Z" fill="#4B47FF"></path></svg> 