<?xml version="1.0" encoding="UTF-8"?> <svg xmlns="http://www.w3.org/2000/svg" width="52" height="52" fill="none"><path d="M52 26a26 26 0 11-52 0 26 26 0 0152 0z" fill="url(#paint0_linear)"></path><path d="M30.3 23.9A12 12 0 107.7 16 12 12 0 0030.3 24z" fill="#FF9400"></path><path d="M23.6 21.7c-.1-.5-.7-.9-1.3-1.2a2 2 0 001.2-.6c.3-.2.5-.6.7-1.1v-1.2a2 2 0 00-.4-1l-1-.6-1.1-.5.6-2.2-1.4-.3-.5 2-1-.2.5-2-1.3-.4-.6 2-2.3-.6-.4 1.2.4.1h.1l.4.1c.1 0 .3.2.3.5l-.1.2v.1l-1.7 6.2c0 .1-.1.3-.5.3l-.8-.2-.4 1.3 1.4.4 1.2.3-.6 2.2 1.3.3.6-2.2 1 .3-.5 2.2 1.3.4.6-2.3c.5.1 1 .3 1.4.2.4 0 .9 0 1.2-.2a2.8 2.8 0 001.7-1.9c.2-.6.2-1 0-1.6zM19 16.3c.5 0 3 .5 2.6 2-.3 1.6-3.4.5-3.4.5l.7-2.5zM17 23.1l.8-2.7s3.9.1 3.4 2.3c-.4 1.8-4.2.4-4.2.4zM42 36.6c-.2.6-.5 1.3-.9 1.8H21c-.4-.5-.7-1.2-1-1.8h22.2z" fill="#fff"></path><path d="M42.7 34.8l-.6 1.8H19.9l-.6-1.8h23.4z" fill="#B12233"></path><path d="M43 33l-.3 1.8H19.3l-.3-1.9h24z" fill="#fff"></path><path d="M41.1 38.5l-1.4 1.8H22.3L21 38.5H41zM37.4 42.1a12 12 0 01-12.8 0h12.8z" fill="#B12233"></path><path d="M39.7 40.3c-.7.7-1.5 1.3-2.3 1.8H24.6c-.8-.5-1.6-1.1-2.3-1.8h17.4zM39.7 23.7H22.3l2.3-1.9h12.8a12 12 0 012.3 1.9z" fill="#fff"></path><path d="M37.4 21.9H24.6l1.2-.7h.1l.4-.3h.2a11.8 11.8 0 0110.9 1zM41.1 25.5H21l.3-.4 1.1-1.4h17.4l1.4 1.8zM42.7 29.2H19.3l.6-1.8h22.2l.6 1.8z" fill="#B12233"></path><path d="M42 27.4H20V27l.5-.8.4-.7H41l1 1.9zM43 31H19v-.2l.1-.6.2-1h23.4l.3 1.9z" fill="#fff"></path><path d="M43 32v1H19v-1-1h24v1z" fill="#B12233"></path><path d="M31 20v13H19v-1-1-.2l.1-.6.2-1a14.9 14.9 0 01.8-2.2l.4-.8.4-.7.3-.4 1.1-1.4 2.3-1.9 1.2-.6h.1l.4-.3h.2c1.4-.6 3-.9 4.5-.9z" fill="#3C3B6D"></path><path d="M29.5 20.6l.2.5h.5l-.5.4.2.5-.4-.4-.5.4.2-.5-.4-.4h.5l.2-.5zM26.8 21.9h-.1l-.3-.3-.2.3H26l.2-.4-.4-.3h.5v-.3h.2l.1.2h.6l-.5.4.1.4zM29.5 23.2l.2.5h.5l-.5.3.2.5-.4-.3-.5.3.2-.5-.4-.3h.5l.2-.5zM26.4 23.2l.2.5h.6l-.5.3.2.5-.5-.3-.4.3.2-.5-.5-.3h.6l.1-.5zM23.4 23.2l.2.5h.5l-.4.3.1.5-.4-.3-.4.3.1-.5-.4-.3h.5l.2-.5zM29.5 25.8l.2.5h.5l-.5.3.2.5-.4-.3-.5.3.2-.5-.4-.3h.5l.2-.5zM26.4 25.8l.2.5h.6l-.5.3.2.5-.5-.3-.4.3.2-.5-.5-.3h.6l.1-.5zM23.4 25.8l.2.5h.5l-.4.3.1.5-.4-.3-.4.3.1-.5-.4-.3h.5l.2-.5zM20.6 26.6l.2.5-.4-.3-.3.2.4-.8v.1h.6l-.5.3zM29.5 28.4l.2.5h.5l-.5.3.2.5-.4-.3-.5.3.2-.5-.4-.3h.5l.2-.5zM26.4 28.4l.2.5h.6l-.5.3.2.5-.5-.3-.4.3.2-.5-.5-.3h.6l.1-.5zM23.4 28.4l.2.5h.5l-.4.3.1.5-.4-.3-.4.3.1-.5-.4-.3h.5l.2-.5zM20.4 28.4l.1.5h.6l-.5.3.2.5-.4-.3-.5.3.2-.5-.5-.3h.6l.2-.5zM29.5 31l.2.5h.5l-.5.3.2.5-.4-.3-.5.3.2-.5-.4-.3h.5l.2-.5zM26.4 31l.2.5h.6l-.5.3.2.5-.5-.3-.4.3.2-.5-.5-.3h.6l.1-.5zM23.4 31l.2.5h.5l-.4.3.1.5-.4-.3-.4.3.1-.5-.4-.3h.5l.2-.5zM20.4 31l.1.5h.6l-.5.3.2.5-.4-.3-.5.3.2-.5-.5-.3h.6l.2-.5zM28 29.7l.1.5h.6l-.5.3.2.5-.4-.3-.5.3.2-.5-.5-.3h.6l.2-.5zM25 29.7v.5h.7l-.5.3.2.5-.5-.3-.4.3.2-.5-.5-.3h.6l.1-.5zM21.9 29.7l.1.5h.6l-.4.3.1.5-.4-.3-.4.3.1-.5-.4-.3h.5l.2-.5zM19.1 30.5l.2.5-.2-.2v-.6h.5l-.5.3zM28 27l.1.6h.6l-.5.3.2.5-.4-.3-.5.3.2-.5-.5-.3h.6l.2-.5zM25 27v.6h.7l-.5.3.2.5-.5-.3-.4.3.2-.5-.5-.3h.6l.1-.5zM21.9 27l.1.6h.6l-.4.3.1.5-.4-.3-.4.3.1-.5-.4-.3h.5l.2-.5zM28 24.5l.1.5h.6l-.5.3.2.5-.4-.3-.5.3.2-.5-.5-.3h.6l.2-.5zM25 24.5v.5h.7l-.5.3.2.5-.5-.3-.4.3.2-.5-.5-.3h.6l.1-.5zM22.2 25.5l.1.3-.4-.3-.4.3v-.3l.1-.2-.4-.2h.5l.2-.6.1.5h.6l-.4.3v.2zM28 22l.1.4h.6l-.5.3.2.6-.4-.4-.5.4.2-.6-.5-.3h.6l.2-.5zM25 22v.4h.7l-.5.3.2.6-.5-.4-.4.4.2-.6-.5-.3h.6l.1-.5z" fill="#fff"></path><defs><linearGradient id="paint0_linear" x1="12.2" y1="4.6" x2="42.1" y2="45.9" gradientUnits="userSpaceOnUse"><stop stop-color="#fff"></stop><stop offset="1" stop-color="#DDD"></stop></linearGradient></defs></svg> 