<?xml version="1.0" encoding="UTF-8"?> <svg xmlns="http://www.w3.org/2000/svg" width="52" height="52" fill="none"><path d="M52 26a26 26 0 10-52 0 26 26 0 0052 0z" fill="#212121"></path><path fill-rule="evenodd" clip-rule="evenodd" d="M30.6 22.7C27.6 19.4 26 13 26 13s-1.7 6.4-4.6 9.7c-3 3.3-5 7.1-2.9 11.1s6 4.8 7.5 4.8c1.4 0 5.4-.7 7.5-4.8 2-4 .1-7.8-2.9-11.1z" fill="#fff"></path><circle cx="42" cy="42" r="10" fill="#fff"></circle><path d="M50.3 45.5a8 8 0 01-.7 1.3H34.4a8 8 0 01-.7-1.3h16.6z" fill="#fff"></path><path d="M50.8 44l-.5 1.5H33.7l-.5-1.4h17.6z" fill="#B12233"></path><path d="M51 42.7l-.2 1.4H33.2l-.2-1.4h18z" fill="#fff"></path><path d="M49.6 46.8l-1.1 1.4h-13c-.4-.4-.8-.9-1-1.4h15zM46.8 49.6a9 9 0 01-9.6 0h9.6z" fill="#B12233"></path><path d="M48.5 48.2c-.5.5-1 1-1.7 1.4h-9.6l-1.7-1.4h13zM48.5 35.8h-13c.5-.6 1-1 1.7-1.4h9.6a9 9 0 011.7 1.4z" fill="#fff"></path><path d="M46.8 34.4h-9.6l.9-.5.4-.2h.1a8.9 8.9 0 018.2.7zM49.6 37.2H34.4c0-.2.2-.3.3-.4l.8-1h13c.4.4.8.9 1 1.4zM50.8 40H33.2l.5-1.5h16.6l.5 1.4z" fill="#B12233"></path><path d="M50.3 38.5H33.7l.1-.2.3-.7.3-.4h15.2l.7 1.3zM51 41.3H33v-.2l.1-.5.1-.7h17.6l.2 1.4z" fill="#fff"></path><path d="M51 42v.7H33V42v-.7h18v.7z" fill="#B12233"></path><path d="M42 33v9.7h-9V42v-.7-.2l.1-.5.1-.7.5-1.4.1-.2.3-.7.3-.4c0-.2.2-.3.3-.4l.8-1c.5-.6 1-1 1.7-1.4l.9-.5.4-.2h.1c1-.5 2.2-.7 3.4-.7z" fill="#3C3B6D"></path><path d="M40.9 33.5l.1.3h.4l-.3.3.1.4-.3-.3-.4.3.2-.4-.4-.3h.4l.2-.3zM38.9 34.4h-.1l-.2-.2-.2.2h-.1V34l-.2-.2h.4v-.2h.1l.1.1h.4l-.3.3v.3zM40.9 35.4l.1.4h.4l-.3.2.1.4-.3-.2-.4.2.2-.4-.4-.2h.4l.2-.4zM38.6 35.4l.1.4h.4l-.3.2.1.4-.3-.2-.3.2V36l-.2-.2h.4v-.4zM36.3 35.4l.1.4h.4l-.3.2.1.4-.3-.2-.3.2V36l-.2-.2h.4l.1-.4zM40.9 37.3l.1.4h.4l-.3.3.1.3-.3-.2-.4.2.2-.3-.4-.3h.4l.2-.4zM38.6 37.3l.1.4h.4l-.3.3.1.3-.3-.2-.3.2V38l-.2-.3h.4v-.4zM36.3 37.3l.1.4h.4l-.3.3.1.3-.3-.2-.3.2V38l-.2-.3h.4l.1-.4zM34.2 38l.2.3-.4-.2-.2.2.3-.7v.1h.5l-.4.3zM40.9 39.3l.1.4h.4l-.3.2.1.4-.3-.3-.4.3.2-.4-.4-.2h.4l.2-.4zM38.6 39.3l.1.4h.4l-.3.2.1.4-.3-.3-.3.3v-.4l-.2-.2h.4v-.4zM36.3 39.3l.1.4h.4l-.3.2.1.4-.3-.3-.3.3v-.4l-.2-.2h.4l.1-.4zM34 39.3l.2.4h.4l-.4.2.2.4-.4-.3-.3.3.1-.4-.3-.2h.4l.1-.4zM40.9 41.2l.1.4h.4l-.3.2.1.4-.3-.2-.4.2.2-.4-.4-.2h.4l.2-.4zM38.6 41.2l.1.4h.4l-.3.2.1.4-.3-.2-.3.2v-.4l-.2-.2h.4v-.4zM36.3 41.2l.1.4h.4l-.3.2.1.4-.3-.2-.3.2v-.4l-.2-.2h.4l.1-.4zM34 41.2l.2.4h.4l-.4.2.2.4-.4-.2-.3.2.1-.4-.3-.2h.4l.1-.4zM39.7 40.2l.1.4h.5l-.4.3.2.4-.4-.3-.3.3.1-.4-.3-.3h.4l.1-.4zM37.4 40.2l.2.4h.4l-.4.3.2.4-.4-.3-.3.3.1-.4-.3-.3h.4l.1-.4zM35.2 40.2v.4h.5l-.3.3v.4l-.2-.3-.4.3.2-.4-.4-.3h.4l.2-.4zM33 40.9l.2.4-.2-.2.1-.5h.3l-.3.3zM39.7 38.3l.1.4h.5l-.4.2.2.4-.4-.2-.3.2.1-.4-.3-.2h.4l.1-.4zM37.4 38.3l.2.4h.4l-.4.2.2.4-.4-.2-.3.2.1-.4-.3-.2h.4l.1-.4zM35.2 38.3v.4h.5l-.3.2v.4l-.2-.2-.4.2.2-.4-.4-.2h.4l.2-.4zM39.7 36.4l.1.4h.5l-.4.2.2.4-.4-.3-.3.3.1-.4-.3-.2h.4l.1-.4zM37.4 36.4l.2.4h.4l-.4.2.2.4-.4-.3-.3.3.1-.4-.3-.2h.4l.1-.4zM35.4 37.2l.1.2-.3-.2-.4.2.1-.2V37l-.2-.2h.3l.2-.4v.4h.5l-.3.2v.2zM39.7 34.4l.1.4h.5l-.4.3.1.3-.3-.2-.3.2.1-.3-.3-.3h.4l.1-.4zM37.4 34.4l.2.4h.4l-.4.3.2.3-.4-.2-.3.2.1-.3-.3-.3h.4l.1-.4z" fill="#fff"></path></svg> 