<?xml version="1.0" encoding="UTF-8"?> <svg xmlns="http://www.w3.org/2000/svg" width="52" height="52" fill="none"><path d="M52 26c0 14.36-11.64 26-26 26S0 40.36 0 26 11.64 0 26 0s26 11.64 26 26Z" fill="url(#a)"></path><path d="M14.5 21.6c.752 0 1.396.188 1.932.564.544.368.956.872 1.236 1.512.288.632.432 1.34.432 2.124s-.144 1.496-.432 2.136a3.538 3.538 0 0 1-1.236 1.512c-.536.368-1.18.552-1.932.552h-2.868a.74.74 0 0 1-.528-.204.74.74 0 0 1-.204-.528v-6.936a.718.718 0 0 1 .732-.732H14.5Zm-.12 7.02c.72 0 1.26-.264 1.62-.792.36-.536.54-1.212.54-2.028 0-.816-.184-1.488-.552-2.016-.36-.536-.896-.804-1.608-.804H12.4v5.64h1.98ZM24.23 28.62a.68.68 0 0 1 .516.216.64.64 0 0 1 .216.48c0 .2-.072.364-.216.492a.723.723 0 0 1-.516.192h-4.02a.74.74 0 0 1-.528-.204.74.74 0 0 1-.204-.528v-6.936a.718.718 0 0 1 .732-.732h4.02a.7.7 0 0 1 .516.204.642.642 0 0 1 .216.504c0 .2-.068.364-.204.492a.769.769 0 0 1-.528.18h-3.252v2.04h2.712a.7.7 0 0 1 .516.204.642.642 0 0 1 .216.504c0 .2-.068.364-.204.492a.769.769 0 0 1-.528.18h-2.712v2.22h3.252ZM32.31 26.4c.191 0 .351.064.48.192a.651.651 0 0 1 .191.48c0 .184-.064.34-.192.468a.675.675 0 0 1-.48.18h-.504v1.548a.718.718 0 0 1-.732.732.685.685 0 0 1-.504-.204.74.74 0 0 1-.204-.528V27.72h-3.12a.725.725 0 0 1-.492-.204.674.674 0 0 1-.228-.504c0-.176.06-.336.18-.48l3.792-4.644a.728.728 0 0 1 .6-.288c.2 0 .368.072.504.216a.7.7 0 0 1 .204.516V26.4h.504Zm-1.945 0V24l-1.944 2.4h1.944ZM37.625 30.12c-.672 0-1.252-.18-1.74-.54-.48-.36-.844-.864-1.092-1.512-.248-.656-.372-1.412-.372-2.268 0-.856.124-1.608.372-2.256.248-.656.612-1.164 1.092-1.524.488-.36 1.068-.54 1.74-.54.672 0 1.248.18 1.728.54.488.36.856.868 1.104 1.524.248.648.372 1.4.372 2.256 0 .856-.124 1.612-.372 2.268-.248.648-.616 1.152-1.104 1.512-.48.36-1.056.54-1.728.54Zm0-1.44c.512 0 .912-.244 1.2-.732.296-.488.444-1.204.444-2.148 0-.944-.148-1.66-.444-2.148-.288-.488-.688-.732-1.2-.732s-.916.244-1.212.732c-.288.488-.432 1.204-.432 2.148 0 .944.144 1.66.432 2.148.296.488.7.732 1.212.732Z" fill="#000"></path><defs><linearGradient id="a" x1="12.235" y1="4.588" x2="42.059" y2="45.882" gradientUnits="userSpaceOnUse"><stop stop-color="#fff"></stop><stop offset="1" stop-color="#DDD"></stop></linearGradient></defs></svg> 