<?xml version="1.0" encoding="UTF-8"?> <svg xmlns="http://www.w3.org/2000/svg" width="38" height="38" viewBox="0 0 38 38" fill="none"><path d="M38 19C38 29.4934 29.4934 38 19 38C8.50659 38 0 29.4934 0 19C0 8.50659 8.50659 0 19 0C29.4934 0 38 8.50659 38 19Z" fill="url(#paint0_linear)"></path><path d="M25.45 10H12.55C11.1439 10 10 11.1439 10 12.55V25.45C10 26.8561 11.1439 28 12.55 28H25.45C26.8561 28 28 26.8561 28 25.45V12.55C28 11.1439 26.8561 10 25.45 10ZM16.45 21.55V19.4065L17.4476 18.3466L19.5791 20.5154C19.7455 20.6848 20.0149 20.6956 20.1945 20.5402L21.55 19.3678V21.55H16.45ZM21.55 22.45V27.1H16.45V22.45H21.55ZM10.9 16.45H15.55V16.7806C15.55 17.0291 15.7515 17.2306 16 17.2306C16.2485 17.2306 16.45 17.0291 16.45 16.7806V16.45H23.5472L19.925 19.5834L17.7616 17.3821C17.6759 17.2949 17.5581 17.2465 17.4359 17.2476C17.3135 17.249 17.1969 17.3 17.113 17.3891L10.9 23.9894V16.45ZM16.45 15.55V10.9H21.55V15.55H16.45V15.55ZM15.55 20.3625V21.55H14.4323L15.55 20.3625ZM22.4356 18.6016L24.9229 16.45H27.1V21.55H22.45V18.7129C22.45 18.6744 22.4446 18.6373 22.4356 18.6016ZM27.1 15.55H25.9634L27.1 14.5668V15.55ZM27.1 12.55V13.3767L24.5876 15.55H24.1362C24.1301 15.55 24.1242 15.5506 24.1181 15.5509C24.112 15.5506 24.1061 15.55 24.1 15.55H22.45V10.9H25.45C26.3597 10.9 27.1 11.6402 27.1 12.55ZM12.55 10.9H15.55V15.55H10.9V12.55C10.9 11.6402 11.6402 10.9 12.55 10.9ZM10.9 25.45V25.3025L13.5858 22.4494C13.5905 22.4495 13.5952 22.4501 13.6 22.4501H15.55V27.1001H12.55C11.6402 27.1 10.9 26.3597 10.9 25.45ZM25.45 27.1H22.45V22.45H27.1V25.45C27.1 26.3597 26.3597 27.1 25.45 27.1Z" fill="black"></path><defs><linearGradient id="paint0_linear" x1="8.94118" y1="3.35294" x2="30.7353" y2="33.5294" gradientUnits="userSpaceOnUse"><stop stop-color="white"></stop><stop offset="1" stop-color="#DDDDDD"></stop></linearGradient></defs></svg> 