<?xml version="1.0" encoding="UTF-8"?> <svg xmlns="http://www.w3.org/2000/svg" width="33" height="32" viewBox="0 0 33 32" fill="none"><g clip-path="url(#clip0_0_185)"><path d="M32.5 16C32.5 17.8987 32.1692 19.7201 31.5619 21.4101C30.0911 25.5049 26.9981 28.8261 23.058 30.5985C21.0567 31.4991 18.837 32 16.5 32C14.163 32 11.9433 31.4991 9.94198 30.5985C6.00192 28.8261 2.90892 25.5049 1.43809 21.4101C0.830805 19.7201 0.5 17.8987 0.5 16C0.5 14.1013 0.830805 12.2791 1.43847 10.5891C2.90929 6.49508 6.00192 3.1743 9.94198 1.40152C11.9433 0.501264 14.163 0 16.5 0C18.837 0 21.0567 0.501264 23.058 1.40152C26.9981 3.1743 30.0907 6.49508 31.5615 10.5891C32.1692 12.2791 32.5 14.101 32.5 16Z" fill="#002DA0"></path><path d="M16.5037 4.65375L16.8791 5.74731L18.0353 5.76642L17.1114 6.46137L17.4505 7.56693L16.5037 6.90269L15.5574 7.56693L15.8965 6.46137L14.9722 5.76642L16.1284 5.74731L16.5037 4.65375Z" fill="#FDCC00"></path><path d="M6.84185 14.4235L7.21724 15.5175L8.37337 15.5366L7.44914 16.2315L7.78818 17.3367L6.84185 16.6728L5.89514 17.3367L6.23456 16.2315L5.31033 15.5366L6.46646 15.5175L6.84185 14.4235Z" fill="#FDCC00"></path><path d="M8.09389 9.49968L8.46928 10.5932L9.62541 10.6124L8.70118 11.3073L9.04023 12.4129L8.09389 11.7486L7.14719 12.4129L7.48623 11.3073L6.56238 10.6124L7.71851 10.5932L8.09389 9.49968Z" fill="#FDCC00"></path><path d="M11.6458 6.00842L12.0212 7.10199L13.1774 7.12109L12.2531 7.81605L12.5922 8.9216L11.6458 8.25737L10.6991 8.9216L11.0385 7.81605L10.1143 7.12109L11.2704 7.10199L11.6458 6.00842Z" fill="#FDCC00"></path><path d="M24.8949 9.49968L24.5195 10.5932L23.3634 10.6124L24.2876 11.3073L23.9485 12.4129L24.8949 11.7486L25.8416 12.4129L25.5022 11.3073L26.4264 10.6124L25.2703 10.5932L24.8949 9.49968Z" fill="#FDCC00"></path><path d="M8.09389 19.2549L8.46928 20.3488L9.62541 20.3675L8.70118 21.0625L9.04023 22.168L8.09389 21.5038L7.14719 22.168L7.48623 21.0625L6.56238 20.3675L7.71851 20.3488L8.09389 19.2549Z" fill="#FDCC00"></path><path d="M24.8949 19.2549L24.5195 20.3488L23.3634 20.3675L24.2876 21.0625L23.9485 22.168L24.8949 21.5038L25.8416 22.168L25.5022 21.0625L26.4264 20.3675L25.2703 20.3488L24.8949 19.2549Z" fill="#FDCC00"></path><path d="M21.3429 6.00842L20.9675 7.10199L19.8114 7.12109L20.7356 7.81605L20.3962 8.9216L21.3429 8.25737L22.2893 8.9216L21.9502 7.81605L22.8744 7.12109L21.7183 7.10199L21.3429 6.00842Z" fill="#FDCC00"></path><path d="M11.6458 22.7461L12.0212 23.8397L13.1774 23.8588L12.2531 24.5537L12.5922 25.6593L11.6458 24.995L10.6991 25.6593L11.0385 24.5537L10.1143 23.8588L11.2704 23.8397L11.6458 22.7461Z" fill="#FDCC00"></path><path d="M21.3429 22.7461L20.9675 23.8397L19.8114 23.8588L20.7356 24.5537L20.3962 25.6593L21.3429 24.995L22.2893 25.6593L21.9502 24.5537L22.8744 23.8588L21.7183 23.8397L21.3429 22.7461Z" fill="#FDCC00"></path><path d="M26.2323 14.4235L26.6077 15.5175L27.7638 15.5366L26.84 16.2315L27.179 17.3367L26.2323 16.6728L25.286 17.3367L25.625 16.2315L24.7008 15.5366L25.8569 15.5175L26.2323 14.4235Z" fill="#FDCC00"></path><path d="M16.5037 24.0862L16.8791 25.1797L18.0353 25.1988L17.1114 25.8938L17.4505 26.9993L16.5037 26.3351L15.5574 26.9993L15.8965 25.8938L14.9722 25.1988L16.1284 25.1797L16.5037 24.0862Z" fill="#FDCC00"></path></g><defs><clipPath id="clip0_0_185"><rect width="32" height="32" fill="white" transform="translate(0.5)"></rect></clipPath></defs></svg> 