<?xml version="1.0" encoding="UTF-8"?> <svg xmlns="http://www.w3.org/2000/svg" width="52" height="52" fill="none"><path d="M52 26a26 26 0 11-52 0 26 26 0 0152 0z" fill="url(#paint0_linear)"></path><path d="M32 20a12 12 0 10-24 0 12 12 0 0024 0z" fill="#fff"></path><path fill-rule="evenodd" clip-rule="evenodd" d="M20 10l-.13.46v13.22l.13.13 6-3.63L20 10z" fill="#343434"></path><path fill-rule="evenodd" clip-rule="evenodd" d="M20 10L14 20.2l6 3.62V10z" fill="#8C8C8C"></path><path fill-rule="evenodd" clip-rule="evenodd" d="M20 24.98l-.08.09v4.7L20 30l6-8.65-6 3.63z" fill="#3C3C3B"></path><path fill-rule="evenodd" clip-rule="evenodd" d="M20 30v-5.02l-6-3.63L20 30z" fill="#8C8C8C"></path><path fill-rule="evenodd" clip-rule="evenodd" d="M20 23.81l6-3.63-6-2.79v6.42z" fill="#141414"></path><path fill-rule="evenodd" clip-rule="evenodd" d="M14 20.18l6 3.63V17.4l-6 2.8z" fill="#393939"></path><path d="M32 44a12 12 0 100-24 12 12 0 000 24z" fill="#063397"></path><path d="M28.52 36.99l.27.8h.84l-.68.5.27.8-.7-.5-.67.5.27-.8-.7-.5h.86l.24-.8zM35.5 36.99l.25.8h.86l-.7.5.27.8-.67-.5-.7.5.26-.8-.67-.5h.84l.27-.8zM28.52 24.94l.27.8h.84l-.68.5.27.8-.7-.49-.67.49.27-.8-.7-.5h.86l.24-.8zM35.5 24.94l.25.8h.86l-.7.5.27.8-.67-.49-.7.49.26-.8-.67-.5h.84l.27-.8zM38.04 27.47l.27.81h.84l-.68.51.25.78-.68-.48-.67.48.24-.78-.67-.51h.83l.27-.8zM25.99 27.47l.27.81h.83l-.67.51.24.79-.67-.49-.68.49.25-.79-.68-.5h.84l.27-.82zM38.04 34.46l.27.78h.84l-.68.51.24.78-.67-.48-.67.48.24-.78-.68-.51h.84l.27-.78zM25.99 34.46l.27.78h.83l-.67.51.24.78-.67-.48-.68.48.25-.78-.68-.51h.84l.27-.78zM32 24l.27.8h.84l-.68.51.27.79-.7-.49-.67.49.27-.79-.7-.5h.86l.24-.82zM32 37.93l.27.81h.84l-.68.49.27.8-.7-.5-.67.5.27-.8-.7-.49h.86l.24-.8zM38.98 30.95l.25.8h.83l-.67.5.27.8-.68-.48-.7.48.27-.8-.67-.5h.83l.27-.8zM25.07 30.95l.24.8h.84l-.68.5.27.8-.67-.48-.7.48.27-.8-.68-.5h.84l.27-.8z" fill="#FECB17"></path><defs><linearGradient id="paint0_linear" x1="12.24" y1="4.59" x2="42.06" y2="45.88" gradientUnits="userSpaceOnUse"><stop stop-color="#fff"></stop><stop offset="1" stop-color="#DDD"></stop></linearGradient></defs></svg> 