<?xml version="1.0" encoding="UTF-8"?> <svg xmlns="http://www.w3.org/2000/svg" width="52" height="52" fill="none"><path d="M52 26a26 26 0 11-52 0 26 26 0 0152 0z" fill="url(#paint0_linear)"></path><path d="M19.83 31.44a12.99 12.99 0 100-25.97 12.99 12.99 0 000 25.97z" fill="#063397"></path><path d="M16.06 23.86l.3.87h.9l-.73.53.29.87-.76-.55-.73.55.3-.87-.76-.53h.93l.26-.87zM23.62 23.86l.26.87h.94l-.76.53.29.87-.73-.55-.76.55.3-.87-.74-.53h.9l.3-.87zM16.06 10.81l.3.88h.9l-.73.52.29.88-.76-.53-.73.53.3-.88-.76-.52h.93l.26-.88zM23.62 10.81l.26.88h.94l-.76.52.29.88-.73-.53-.76.53.3-.88-.74-.52h.9l.3-.88zM26.36 13.56l.3.87h.9l-.73.56.26.84-.73-.52-.73.52.27-.84-.73-.56h.9l.3-.87zM13.32 13.56l.3.87h.9l-.73.56.26.84-.73-.52-.73.52.26-.84-.73-.56h.9l.3-.87zM26.36 21.12l.3.84h.9l-.73.56.26.84-.73-.52-.73.52.27-.84-.73-.56h.9l.3-.84zM13.32 21.12l.3.84h.9l-.73.56.26.84-.73-.52-.73.52.26-.84-.73-.56h.9l.3-.84zM19.83 9.8l.29.87h.9l-.73.55.3.85-.76-.53-.73.53.29-.85-.76-.55h.93l.27-.88zM19.83 24.88l.29.87h.9l-.73.53.3.88-.76-.56-.73.56.29-.88-.76-.53h.93l.27-.87zM27.38 17.32l.27.88h.9l-.73.52.3.88-.74-.53-.75.53.29-.88-.73-.52h.9l.3-.88zM12.33 17.32l.26.88h.9l-.72.52.29.88-.73-.53-.76.53.29-.88-.73-.52h.9l.3-.88z" fill="#FECB17"></path><path d="M43.79 32.14H32.9l-12.22 8.17a12.92 12.92 0 0010.1 4.85h.02c7.15 0 12.99-5.84 12.99-13.02z" fill="#D7141A"></path><path d="M20.68 24l12.22 8.14H43.8A13.01 13.01 0 0020.68 24z" fill="#fff"></path><path d="M32.9 32.14L20.68 24a12.94 12.94 0 000 16.28l12.22-8.14z" fill="#11457E"></path><defs><linearGradient id="paint0_linear" x1="12.24" y1="4.59" x2="42.06" y2="45.88" gradientUnits="userSpaceOnUse"><stop stop-color="#fff"></stop><stop offset="1" stop-color="#DDD"></stop></linearGradient></defs></svg> 