<?xml version="1.0" encoding="UTF-8"?> <svg xmlns="http://www.w3.org/2000/svg" width="52" height="52" fill="none"><path d="M52 26a26 26 0 11-52 0 26 26 0 0152 0z" fill="url(#paint0_linear)"></path><path d="M21.2 32.81a12.99 12.99 0 100-25.97 12.99 12.99 0 000 25.97z" fill="#063397"></path><path d="M17.43 25.23l.3.87h.9l-.73.53.29.87-.76-.55-.73.55.3-.87-.77-.53h.94l.26-.87zM24.99 25.23l.26.87h.94l-.76.53.29.87-.73-.55-.76.55.3-.87-.74-.53h.9l.3-.87zM17.43 12.18l.3.88h.9l-.73.52.29.88-.76-.53-.73.53.3-.88-.77-.52h.94l.26-.88zM24.99 12.18l.26.88h.94l-.76.52.29.88-.73-.53-.76.53.3-.88-.74-.52h.9l.3-.88zM27.73 14.93l.3.87h.9l-.73.56.26.84-.73-.52-.73.52.27-.84-.73-.56h.9l.3-.87zM14.69 14.93l.29.87h.9l-.72.56.26.84-.73-.52-.73.52.26-.84-.73-.56h.9l.3-.87zM27.73 22.48l.3.85h.9l-.73.55.26.85-.73-.52-.73.52.27-.85-.73-.55h.9l.3-.85zM14.69 22.48l.29.85h.9l-.72.55.26.85-.73-.52-.73.52.26-.85-.73-.55h.9l.3-.85zM21.2 11.16l.29.88h.9l-.73.55.3.85-.76-.53-.73.53.29-.85-.76-.55h.93l.27-.88zM21.2 26.25l.29.87h.9l-.73.53.3.87-.76-.55-.73.55.29-.87-.76-.53h.93l.27-.87zM28.75 18.69l.27.88h.9l-.73.52.3.88-.74-.53-.76.53.3-.88-.73-.52h.9l.3-.88zM13.7 18.69l.26.88h.9l-.73.52.3.88-.73-.53-.76.53.29-.88-.73-.52h.9l.3-.88z" fill="#FECB17"></path><path d="M32.14 19.16a13.01 13.01 0 00-12.98 12.98h26c0-7.15-5.84-12.98-13.02-12.98z" fill="#fff"></path><path d="M32.14 45.16c7.18 0 13.02-5.84 13.02-12.99h-26c0 7.15 5.83 12.99 12.98 12.99z" fill="#DB153B"></path><defs><linearGradient id="paint0_linear" x1="12.24" y1="4.59" x2="42.06" y2="45.88" gradientUnits="userSpaceOnUse"><stop stop-color="#fff"></stop><stop offset="1" stop-color="#DDD"></stop></linearGradient></defs></svg> 