<?xml version="1.0" encoding="UTF-8"?> <svg xmlns="http://www.w3.org/2000/svg" width="52" height="52" fill="none"><path d="M52 26a26 26 0 11-52 0 26 26 0 0152 0z" fill="url(#paint0_linear)"></path><path d="M21.2 32.8a13 13 0 100-26 13 13 0 000 26z" fill="#063397"></path><path d="M17.4 25.2l.3.9h1l-.8.5.3.9-.8-.6-.7.6.3-.9-.8-.5h1l.2-.9zM25 25.2l.3.9h.9l-.8.5.3.9-.7-.6-.8.6.3-.9-.7-.5h.9l.3-.9zM17.4 12.2l.3.9h1l-.8.5.3.9-.8-.6-.7.6.3-1-.8-.4h1l.2-1zM25 12.2l.3.9h.9l-.8.5.3.9-.7-.6-.8.6.3-1-.7-.4h.9l.3-1zM27.7 15l.3.8h1l-.8.6.3.8-.8-.5-.7.5.3-.8-.8-.6h1l.2-.9zM14.7 15l.3.8h.9l-.7.6.2.8-.7-.5-.7.5.2-.8-.7-.6h.9l.3-.9zM27.7 22.5l.3.8h1l-.8.6.3.8-.8-.5-.7.5.3-.8-.8-.6h1l.2-.8zM14.7 22.5l.3.8h.9l-.7.6.2.8-.7-.5-.7.5.2-.8-.7-.6h.9l.3-.8zM21.2 11.2l.3.8h.9l-.7.6.3.8-.8-.5-.7.5.3-.8-.8-.6h1l.2-.8zM21.2 26.2l.3 1h.9l-.7.4.3 1-.8-.6-.7.5.3-.9-.8-.5h1l.2-.9zM28.8 18.7l.2.9h1l-.8.5.3.9-.7-.6-.8.6.3-1-.7-.4h.9l.3-1zM13.7 18.7l.3.9h.9l-.8.5.3.9-.7-.6-.8.6.3-1-.7-.4h.9l.3-1z" fill="#FECB17"></path><path d="M44.2 35.8l-1 2h-22c-.4-.7-.8-1.3-1-2h24z" fill="#fff"></path><path d="M44.8 33.8a12 12 0 01-.6 2h-24l-.7-2h25.3z" fill="#B12233"></path><path d="M45.1 31.8c0 .7-.1 1.3-.3 2H19.5a16 16 0 01-.3-2h26z" fill="#fff"></path><path d="M43.1 37.8l-1.6 2H22.8l-1.6-2h22zM39 41.8a13 13 0 01-13.8 0h13.9z" fill="#B12233"></path><path d="M41.5 39.8c-.7.7-1.5 1.4-2.4 2H25.2l-2.4-2h18.7zM41.5 21.8H22.8c.7-.8 1.5-1.4 2.4-2h13.9c.9.6 1.7 1.2 2.4 2z" fill="#fff"></path><path d="M39 19.8H25.3l1.3-.7h.1l.5-.3h.2a12.8 12.8 0 0111.8 1zM43.1 23.8H21.2l.4-.5 1.2-1.5h18.7l1.6 2zM44.8 27.8H19.5l.6-2h24c.3.6.6 1.3.7 2z" fill="#B12233"></path><path d="M44.2 25.8h-24l.1-.4.5-1 .4-.6h22l1 2zM45.1 29.8h-26l.1-.3.1-.7.2-1h25.3c.2.6.3 1.3.3 2z" fill="#fff"></path><path d="M45.2 30.8v1h-26v-1-1h26v1z" fill="#B12233"></path><path d="M32.2 17.8v14h-13v-1-1-.3l.1-.7.2-1 .7-2 .1-.4.5-1 .4-.6.4-.5 1.2-1.5c.7-.8 1.5-1.4 2.4-2l1.3-.7h.1l.5-.3h.2c1.5-.7 3.2-1 4.9-1z" fill="#3C3B6D"></path><path d="M30.5 18.5l.2.5h.6l-.5.4.2.5-.5-.3-.5.3.2-.5-.4-.4h.5l.2-.5zM27.6 19.8l.1.1-.2-.1-.3-.2-.3.2-.2.1.1-.1.1-.4-.4-.3h.5l.1-.3h.2l.1.2h.6l-.5.4.1.4zM30.5 21.3l.2.5h.6l-.5.4.2.5-.5-.3-.5.3.2-.5-.4-.4h.5l.2-.5zM27.2 21.3l.2.5h.6l-.5.4.2.5-.5-.3-.5.3.2-.5-.4-.4h.5l.2-.5zM24 21.3l.1.5h.6l-.5.4.2.5-.5-.3-.5.3.2-.5-.4-.4h.5l.2-.5zM30.5 24l.2.6h.6l-.5.4.2.5-.5-.3-.5.3.2-.5-.4-.4h.5l.2-.5zM27.2 24l.2.6h.6l-.5.4.2.5-.5-.3-.5.3.2-.5-.4-.4h.5l.2-.5zM24 24l.1.6h.6l-.5.4.2.5-.5-.3-.5.3.2-.5-.4-.4h.5l.2-.5zM21 25l.1.5-.5-.3-.3.2.5-1v.2h.6l-.5.4zM30.5 26.9l.2.5h.6l-.5.4.2.5-.5-.3-.5.3.2-.5-.4-.4h.5l.2-.5zM27.2 26.9l.2.5h.6l-.5.4.2.5-.5-.3-.5.3.2-.5-.4-.4h.5l.2-.5zM24 26.9l.1.5h.6l-.5.4.2.5-.5-.3-.5.3.2-.5-.4-.4h.5l.2-.5zM20.6 26.9l.2.5h.6l-.5.4.2.5-.5-.3-.4.3.2-.5-.5-.4h.5l.2-.5zM30.5 29.7l.2.5h.6l-.5.4.2.5-.5-.3-.5.3.2-.5-.4-.4h.5l.2-.5zM27.2 29.7l.2.5h.6l-.5.4.2.5-.5-.3-.5.3.2-.5-.4-.4h.5l.2-.5zM24 29.7l.1.5h.6l-.5.4.2.5-.5-.3-.5.3.2-.5-.4-.4h.5l.2-.5zM20.6 29.7l.2.5h.6l-.5.4.2.5-.5-.3-.4.3.2-.5-.5-.4h.5l.2-.5zM28.9 28.3l.2.5h.5l-.4.4.1.5-.4-.3-.5.3.2-.5-.5-.4h.6l.2-.5zM25.6 28.3l.2.5h.6l-.5.4.1.5-.4-.3-.5.3.2-.5-.5-.4h.6l.2-.5zM22.3 28.3l.2.5h.6l-.5.4.1.5-.4-.3-.5.3.2-.5-.5-.4h.6l.2-.5zM19.3 29.2l.2.5-.3-.2.1-.7h.5l-.5.4zM28.9 25.5l.2.5h.5l-.4.4.1.5-.4-.3-.5.3.2-.5-.5-.4h.6l.2-.5zM25.6 25.5l.2.5h.6l-.5.4.1.5-.4-.3-.5.3.2-.5-.5-.4h.6l.2-.5zM22.3 25.5l.2.5h.6l-.5.4.1.5-.4-.3-.5.3.2-.5-.5-.4h.6l.2-.5zM28.9 22.7l.2.5h.5l-.4.4.1.5-.4-.3-.5.3.2-.5-.5-.4h.6l.2-.5zM25.6 22.7l.2.5h.6l-.5.4.1.5-.4-.3-.5.3.2-.5-.5-.4h.6l.2-.5zM22.7 23.8v.3l-.4-.3-.5.3.1-.3v-.2l-.3-.3h.5l.2-.6.2.5h.6l-.5.4v.2zM28.9 19.9l.2.5h.5l-.4.4.1.5-.4-.3-.5.3.2-.5-.5-.4h.6l.2-.5zM25.6 19.9l.2.5h.6l-.5.4.1.5-.4-.3-.5.3.2-.5-.5-.4h.6l.2-.5z" fill="#fff"></path><defs><linearGradient id="paint0_linear" x1="12.2" y1="4.6" x2="42.1" y2="45.9" gradientUnits="userSpaceOnUse"><stop stop-color="#fff"></stop><stop offset="1" stop-color="#DDD"></stop></linearGradient></defs></svg> 