<?xml version="1.0" encoding="UTF-8"?> <svg xmlns="http://www.w3.org/2000/svg" width="32" height="32" viewBox="0 0 32 32" fill="none"><path d="M16 0C7.164 0 0 7.164 0 16C0 24.836 7.164 32 16 32C24.836 32 32 24.836 32 16C32 7.164 24.836 0 16 0ZM20.996 9.704H19.524C18.072 9.704 17.62 10.604 17.62 11.528V13.72H20.86L20.344 17.096H17.624V25.26C17.028 25.352 16.42 25.4 15.8 25.4C15.18 25.4 14.568 25.352 13.976 25.26V17.096H11.012V13.72H13.976V11.148C13.976 8.22 15.72 6.604 18.388 6.604C19.668 6.604 21.004 6.832 21.004 6.832V9.708L20.996 9.704Z" fill="#821EC8"></path></svg> 