<?xml version="1.0" encoding="UTF-8"?> <svg xmlns="http://www.w3.org/2000/svg" width="32" height="32" viewBox="0 0 32 32" fill="none"><path fill-rule="evenodd" clip-rule="evenodd" d="M16 0C7.164 0 0 7.164 0 16C0 24.836 7.164 32 16 32C24.836 32 32 24.836 32 16C32 7.164 24.836 0 16 0ZM24.944 19.712C24.9 20.668 24.748 21.324 24.524 21.896C24.292 22.488 23.988 22.988 23.484 23.492C22.98 23.996 22.48 24.3 21.888 24.532C21.316 24.756 20.66 24.908 19.704 24.952C18.744 24.996 18.436 25.008 15.992 25.008C13.548 25.008 13.24 24.996 12.28 24.952C11.324 24.908 10.668 24.756 10.096 24.532C9.504 24.304 9.004 23.996 8.5 23.492C8 22.992 7.692 22.488 7.46 21.896C7.236 21.324 7.084 20.668 7.04 19.712C6.996 18.752 6.984 18.444 6.984 16C6.984 13.556 6.996 13.248 7.04 12.288C7.084 11.332 7.236 10.676 7.46 10.104C7.688 9.512 7.996 9.012 8.5 8.508C9 8.008 9.504 7.7 10.096 7.468C10.668 7.244 11.324 7.092 12.28 7.048C13.24 7.004 13.548 6.992 15.992 6.992C18.436 6.992 18.744 7.004 19.704 7.048C20.66 7.092 21.316 7.244 21.888 7.468C22.48 7.696 22.98 8.004 23.484 8.508C23.988 9.012 24.292 9.512 24.524 10.104C24.748 10.676 24.9 11.332 24.944 12.288C24.988 13.248 25 13.556 25 16C25 18.444 24.988 18.752 24.944 19.712Z" fill="#821EC8"></path><path fill-rule="evenodd" clip-rule="evenodd" d="M23.017 10.693C22.853 10.273 22.657 9.973 22.345 9.657C22.029 9.341 21.729 9.145 21.309 8.985C20.993 8.861 20.517 8.717 19.637 8.677C18.689 8.633 18.405 8.625 16.001 8.625C13.597 8.625 13.313 8.633 12.365 8.677C11.489 8.717 11.009 8.865 10.693 8.985C10.273 9.149 9.973 9.345 9.657 9.657C9.341 9.973 9.149 10.273 8.985 10.693C8.861 11.009 8.717 11.485 8.677 12.365C8.633 13.313 8.625 13.597 8.625 16.001C8.625 18.405 8.633 18.689 8.677 19.637C8.717 20.513 8.865 20.993 8.985 21.309C9.149 21.729 9.345 22.029 9.657 22.345C9.973 22.661 10.273 22.853 10.693 23.017C11.009 23.141 11.485 23.285 12.365 23.325C13.313 23.369 13.597 23.377 16.001 23.377C18.405 23.377 18.689 23.369 19.637 23.325C20.513 23.285 20.993 23.137 21.309 23.017C21.729 22.853 22.029 22.657 22.345 22.345C22.661 22.029 22.857 21.729 23.017 21.309C23.141 20.993 23.285 20.517 23.325 19.637C23.369 18.689 23.377 18.405 23.377 16.001C23.377 13.597 23.369 13.313 23.325 12.365C23.285 11.489 23.137 11.013 23.017 10.693ZM16.001 20.621C13.449 20.621 11.381 18.553 11.381 16.001C11.381 13.449 13.449 11.381 16.001 11.381C18.553 11.381 20.621 13.449 20.621 16.001C20.621 18.553 18.553 20.621 16.001 20.621ZM20.805 12.277C20.209 12.277 19.725 11.793 19.725 11.197C19.725 10.601 20.209 10.117 20.805 10.117C21.401 10.117 21.885 10.601 21.885 11.197C21.885 11.793 21.401 12.277 20.805 12.277Z" fill="#821EC8"></path><path d="M16 19C17.6569 19 19 17.6569 19 16C19 14.3431 17.6569 13 16 13C14.3431 13 13 14.3431 13 16C13 17.6569 14.3431 19 16 19Z" fill="#821EC8"></path></svg> 