<?xml version="1.0" encoding="UTF-8"?> <svg xmlns="http://www.w3.org/2000/svg" width="32" height="32" viewBox="0 0 32 32" fill="none"><path d="M16 0C7.164 0 0 7.164 0 16C0 24.836 7.164 32 16 32C24.836 32 32 24.836 32 16C32 7.164 24.836 0 16 0ZM11.324 24C10.36 23.988 9.396 23.992 8.436 24C8.28 24 8.236 23.964 8.236 23.804C8.24 20.372 8.24 16.94 8.236 13.508C8.236 13.368 8.272 13.316 8.42 13.316C9.396 13.324 10.372 13.324 11.352 13.316C11.54 13.316 11.564 13.388 11.564 13.548C11.56 15.256 11.564 16.964 11.564 18.676C11.564 20.388 11.564 22.064 11.568 23.76C11.568 23.948 11.52 24.004 11.328 24.004L11.324 24ZM9.9 11.844C8.852 11.844 7.98 10.976 7.976 9.928C7.976 8.868 8.844 7.996 9.904 7.996C10.956 7.996 11.824 8.86 11.824 9.908C11.824 10.972 10.96 11.84 9.9 11.84V11.844ZM24.02 23.78C24.02 23.956 23.972 24 23.8 24C22.836 23.992 21.872 23.992 20.908 24C20.74 24 20.7 23.948 20.704 23.788C20.708 22.008 20.712 20.228 20.704 18.448C20.704 18.004 20.676 17.556 20.548 17.124C20.316 16.324 19.744 15.92 18.908 15.964C17.764 16.024 17.172 16.588 17.024 17.752C16.988 18.028 16.972 18.308 16.972 18.588C16.972 20.32 16.972 22.048 16.976 23.78C16.976 23.952 16.932 24.004 16.756 24C15.784 23.992 14.816 23.992 13.844 24C13.688 24 13.644 23.96 13.644 23.8C13.648 20.372 13.648 16.948 13.644 13.52C13.644 13.352 13.7 13.312 13.86 13.312C14.78 13.32 15.704 13.32 16.624 13.312C16.792 13.312 16.836 13.364 16.832 13.524C16.824 13.932 16.832 14.344 16.832 14.752C17.056 14.504 17.236 14.248 17.464 14.032C18.164 13.372 18.996 13.036 19.964 13.044C20.496 13.048 21.024 13.088 21.536 13.236C22.712 13.576 23.392 14.384 23.72 15.532C23.964 16.392 24.008 17.276 24.012 18.164C24.012 20.036 24.008 21.904 24.012 23.772L24.02 23.78Z" fill="#821EC8"></path></svg> 