<?xml version="1.0" encoding="UTF-8"?> <svg xmlns="http://www.w3.org/2000/svg" width="32" height="32" viewBox="0 0 32 32" fill="none"><g clip-path="url(#clip0_18489_10713)"><path d="M16 32C24.8366 32 32 24.8366 32 16C32 7.16344 24.8366 0 16 0C7.16344 0 0 7.16344 0 16C0 24.8366 7.16344 32 16 32Z" fill="#821EC8"></path><path d="M26.2211 10.8661C25.9769 9.9488 25.254 9.22584 24.3343 8.97932C22.6703 8.53369 16 8.53369 16 8.53369C16 8.53369 9.32982 8.53369 7.66582 8.97932C6.74849 9.22584 6.02552 9.94643 5.779 10.8661C5.33337 12.5301 5.33337 16.0004 5.33337 16.0004C5.33337 16.0004 5.33337 19.4706 5.779 21.1346C6.02315 22.0519 6.74611 22.7749 7.66582 23.0214C9.32982 23.467 16 23.467 16 23.467C16 23.467 22.6703 23.467 24.3343 23.0214C25.2516 22.7749 25.9746 22.0543 26.2211 21.1346C26.6667 19.4706 26.6667 16.0004 26.6667 16.0004C26.6667 16.0004 26.6667 12.5301 26.2211 10.8661ZM13.8667 19.2004V12.8004L19.4086 16.0004L13.8667 19.2004Z" fill="#FAFAFA"></path></g><defs><clipPath id="clip0_18489_10713"><rect width="32" height="32" fill="white"></rect></clipPath></defs></svg> 