<?xml version="1.0" encoding="UTF-8"?> <svg xmlns="http://www.w3.org/2000/svg" width="16" height="16" viewBox="0 0 16 16" fill="none"><g clip-path="url(#clip0_18151_72251)"><path d="M2.75 1V2.74995" stroke="#4B47FF" stroke-width="0.75" stroke-linecap="round" stroke-linejoin="round"></path><path d="M2.75 7.125V14.9998" stroke="#4B47FF" stroke-width="0.75" stroke-linecap="round" stroke-linejoin="round"></path><path d="M8 1V9.74973" stroke="#4B47FF" stroke-width="0.75" stroke-linecap="round" stroke-linejoin="round"></path><path d="M8 14.1245V14.9995" stroke="#4B47FF" stroke-width="0.75" stroke-linecap="round" stroke-linejoin="round"></path><path d="M1 3.62497C1 3.39292 1.09218 3.17036 1.25627 3.00627C1.42036 2.84218 1.64292 2.75 1.87497 2.75H3.62492C3.85698 2.75 4.07953 2.84218 4.24362 3.00627C4.40771 3.17036 4.49989 3.39292 4.49989 3.62497V6.24989C4.49989 6.48195 4.40771 6.7045 4.24362 6.86859C4.07953 7.03268 3.85698 7.12487 3.62492 7.12487H1.87497C1.64292 7.12487 1.42036 7.03268 1.25627 6.86859C1.09218 6.7045 1 6.48195 1 6.24989V3.62497Z" stroke="#4B47FF" stroke-width="0.75" stroke-linecap="round" stroke-linejoin="round"></path><path d="M13.25 1V1.87497" stroke="#4B47FF" stroke-width="0.75" stroke-linecap="round" stroke-linejoin="round"></path><path d="M6.25 10.625C6.25 10.3929 6.34218 10.1704 6.50627 10.0063C6.67036 9.84218 6.89292 9.75 7.12497 9.75H8.87492C9.10698 9.75 9.32953 9.84218 9.49362 10.0063C9.65771 10.1704 9.74989 10.3929 9.74989 10.625V13.2499C9.74989 13.482 9.65771 13.7045 9.49362 13.8686C9.32953 14.0327 9.10698 14.1249 8.87492 14.1249H7.12497C6.89292 14.1249 6.67036 14.0327 6.50627 13.8686C6.34218 13.7045 6.25 13.482 6.25 13.2499V10.625Z" stroke="#4B47FF" stroke-width="0.75" stroke-linecap="round" stroke-linejoin="round"></path><path d="M13.25 7.125V14.9998" stroke="#4B47FF" stroke-width="0.75" stroke-linecap="round" stroke-linejoin="round"></path><path d="M11.5 2.75046C11.5 2.5184 11.5922 2.29585 11.7563 2.13176C11.9204 1.96767 12.1429 1.87549 12.375 1.87549H14.1249C14.357 1.87549 14.5795 1.96767 14.7436 2.13176C14.9077 2.29585 14.9999 2.5184 14.9999 2.75046V6.25035C14.9999 6.48241 14.9077 6.70496 14.7436 6.86905C14.5795 7.03314 14.357 7.12533 14.1249 7.12533H12.375C12.1429 7.12533 11.9204 7.03314 11.7563 6.86905C11.5922 6.70496 11.5 6.48241 11.5 6.25035V2.75046Z" stroke="#4B47FF" stroke-width="0.75" stroke-linecap="round" stroke-linejoin="round"></path></g><defs><clipPath id="clip0_18151_72251"><rect width="16" height="16" fill="white"></rect></clipPath></defs></svg> 