<?xml version="1.0" encoding="UTF-8"?> <svg xmlns="http://www.w3.org/2000/svg" width="20" height="20" viewBox="0 0 20 20" fill="none"><g clip-path="url(#clip0_18149_72176)"><path d="M3.33203 11.6667V9.16667C3.33203 7.39856 4.03441 5.70286 5.28465 4.45262C6.5349 3.20238 8.23059 2.5 9.9987 2.5C11.7668 2.5 13.4625 3.20238 14.7127 4.45262C15.963 5.70286 16.6654 7.39856 16.6654 9.16667V11.6667" stroke="#4B47FF" stroke-linecap="round" stroke-linejoin="round"></path><path d="M15 15.8335C15 17.2143 12.7617 18.3335 10 18.3335" stroke="#4B47FF" stroke-linecap="round" stroke-linejoin="round"></path><path d="M3.33203 11.6667C3.33203 11.2246 3.50763 10.8007 3.82019 10.4882C4.13275 10.1756 4.55667 10 4.9987 10H5.83203C6.27406 10 6.69798 10.1756 7.01054 10.4882C7.3231 10.8007 7.4987 11.2246 7.4987 11.6667V14.1667C7.4987 14.6087 7.3231 15.0326 7.01054 15.3452C6.69798 15.6577 6.27406 15.8333 5.83203 15.8333H4.9987C4.55667 15.8333 4.13275 15.6577 3.82019 15.3452C3.50763 15.0326 3.33203 14.6087 3.33203 14.1667V11.6667Z" stroke="#4B47FF" stroke-linecap="round" stroke-linejoin="round"></path><path d="M12.5 11.6667C12.5 11.2246 12.6756 10.8007 12.9882 10.4882C13.3007 10.1756 13.7246 10 14.1667 10H15C15.442 10 15.866 10.1756 16.1785 10.4882C16.4911 10.8007 16.6667 11.2246 16.6667 11.6667V14.1667C16.6667 14.6087 16.4911 15.0326 16.1785 15.3452C15.866 15.6577 15.442 15.8333 15 15.8333H14.1667C13.7246 15.8333 13.3007 15.6577 12.9882 15.3452C12.6756 15.0326 12.5 14.6087 12.5 14.1667V11.6667Z" stroke="#4B47FF" stroke-linecap="round" stroke-linejoin="round"></path></g><defs><clipPath id="clip0_18149_72176"><rect width="20" height="20" fill="white"></rect></clipPath></defs></svg> 