<?xml version="1.0" encoding="UTF-8"?> <svg xmlns="http://www.w3.org/2000/svg" width="20" height="20" viewBox="0 0 20 20" fill="none"><g clip-path="url(#clip0_18149_72121)"><path d="M0.789063 10.2271C0.789062 11.4063 1.02132 12.5739 1.47259 13.6634C1.92385 14.7528 2.58527 15.7427 3.41909 16.5765C4.25292 17.4103 5.24281 18.0718 6.33225 18.523C7.42169 18.9743 8.58935 19.2065 9.76855 19.2065C10.9478 19.2065 12.1154 18.9743 13.2049 18.523C14.2943 18.0718 15.2842 17.4103 16.118 16.5765C16.9518 15.7427 17.6133 14.7528 18.0645 13.6634C18.5158 12.5739 18.748 11.4063 18.748 10.2271C18.748 9.04785 18.5158 7.88019 18.0645 6.79075C17.6133 5.70131 16.9518 4.71141 16.118 3.87759C15.2842 3.04377 14.2943 2.38234 13.2049 1.93108C12.1154 1.47982 10.9478 1.24756 9.76855 1.24756C8.58935 1.24756 7.42169 1.47982 6.33225 1.93108C5.24281 2.38234 4.25292 3.04377 3.41909 3.87759C2.58527 4.71141 1.92385 5.70131 1.47259 6.79075C1.02132 7.88019 0.789062 9.04785 0.789063 10.2271Z" stroke="#4B47FF" stroke-linecap="round" stroke-linejoin="round"></path><path d="M8.01161 4.1875H6.05078V13.3831L8.01161 11.2594V4.1875Z" fill="#4B47FF"></path><path d="M11.2332 7.5835L8.00781 11.2595L11.3725 15.2971H13.844L10.2472 11.2244L13.7047 7.5835H11.2332Z" fill="#4B47FF"></path><path d="M7.03133 15.3684C7.57287 15.3684 8.01187 14.9269 8.01187 14.3822C8.01187 13.8375 7.57287 13.396 7.03133 13.396C6.48979 13.396 6.05078 13.8375 6.05078 14.3822C6.05078 14.9269 6.48979 15.3684 7.03133 15.3684Z" fill="#A2E801"></path></g><defs><clipPath id="clip0_18149_72121"><rect width="20" height="20" fill="white"></rect></clipPath></defs></svg> 