<?xml version="1.0" encoding="UTF-8"?> <svg xmlns="http://www.w3.org/2000/svg" width="16" height="16" viewBox="0 0 16 16" fill="none"><g clip-path="url(#clip0_18151_72265)"><path d="M3.56481 4.87109H12.4354C12.661 4.87107 12.884 4.91982 13.0889 5.01402C13.2939 5.10822 13.4761 5.24563 13.623 5.41684C13.7699 5.58804 13.8781 5.78899 13.94 6.0059C14.002 6.22282 14.0164 6.45057 13.9821 6.67354L13.0003 13.0509C12.915 13.6052 12.6342 14.1106 12.2086 14.4756C11.7829 14.8407 11.2407 15.0413 10.6799 15.0411H5.31953C4.75893 15.0411 4.21685 14.8404 3.79139 14.4754C3.36593 14.1103 3.08519 13.605 2.99998 13.0509L2.01818 6.67354C1.98389 6.45057 1.99822 6.22282 2.06019 6.0059C2.12217 5.78899 2.23031 5.58804 2.37722 5.41684C2.52412 5.24563 2.70631 5.10822 2.9113 5.01402C3.11629 4.91982 3.33922 4.87107 3.56481 4.87109Z" stroke="#4B47FF" stroke-width="0.75" stroke-linecap="round" stroke-linejoin="round"></path><path d="M5.65234 7.21747V3.30592C5.65234 2.68347 5.89961 2.08652 6.33974 1.64639C6.77988 1.20625 7.37683 0.958984 7.99928 0.958984C8.62172 0.958984 9.21867 1.20625 9.65881 1.64639C10.0989 2.08652 10.3462 2.68347 10.3462 3.30592V7.21747" stroke="#4B47FF" stroke-width="0.75" stroke-linecap="round" stroke-linejoin="round"></path></g><defs><clipPath id="clip0_18151_72265"><rect width="16" height="16" fill="white"></rect></clipPath></defs></svg> 