<?xml version="1.0" encoding="UTF-8"?> <svg xmlns="http://www.w3.org/2000/svg" width="20" height="20" viewBox="0 0 20 20" fill="none"><g clip-path="url(#clip0_18261_20800)"><path d="M2.91406 3.07229C2.91406 2.80979 3.01834 2.55803 3.20396 2.37242C3.38958 2.1868 3.64133 2.08252 3.90383 2.08252H5.88337C6.14587 2.08252 6.39763 2.1868 6.58324 2.37242C6.76886 2.55803 6.87314 2.80979 6.87314 3.07229V16.9291C6.87314 17.1916 6.76886 17.4433 6.58324 17.6289C6.39763 17.8146 6.14587 17.9188 5.88337 17.9188H3.90383C3.64133 17.9188 3.38958 17.8146 3.20396 17.6289C3.01834 17.4433 2.91406 17.1916 2.91406 16.9291V3.07229Z" stroke="#4B47FF" stroke-linecap="round" stroke-linejoin="round"></path><path d="M6.875 3.07229C6.875 2.80979 6.97928 2.55803 7.1649 2.37242C7.35051 2.1868 7.60227 2.08252 7.86477 2.08252H9.84431C10.1068 2.08252 10.3586 2.1868 10.5442 2.37242C10.7298 2.55803 10.8341 2.80979 10.8341 3.07229V16.9291C10.8341 17.1916 10.7298 17.4433 10.5442 17.6289C10.3586 17.8146 10.1068 17.9188 9.84431 17.9188H7.86477C7.60227 17.9188 7.35051 17.8146 7.1649 17.6289C6.97928 17.4433 6.875 17.1916 6.875 16.9291V3.07229Z" stroke="#4B47FF" stroke-linecap="round" stroke-linejoin="round"></path><path d="M2.91406 6.04053H6.87314" stroke="#4B47FF" stroke-linecap="round" stroke-linejoin="round"></path><path d="M6.875 13.9595H10.8341" stroke="#4B47FF" stroke-linecap="round" stroke-linejoin="round"></path><path d="M11.6289 2.63585L13.7905 2.11127C14.3468 1.97765 14.9119 2.29933 15.0594 2.83578L18.7166 16.1165C18.7811 16.3596 18.7525 16.6181 18.6365 16.8413C18.5204 17.0645 18.3252 17.2363 18.0891 17.323L17.9574 17.3636L15.7958 17.8882C15.2395 18.0218 14.6744 17.7001 14.5269 17.1637L10.8697 3.88296C10.8052 3.63982 10.8338 3.38136 10.9498 3.15818C11.0659 2.93501 11.2611 2.76321 11.4972 2.67643L11.6289 2.63585Z" stroke="#4B47FF" stroke-linecap="round" stroke-linejoin="round"></path><path d="M11.8203 7.0303L15.7794 6.04053" stroke="#4B47FF" stroke-linecap="round" stroke-linejoin="round"></path><path d="M13.8047 13.9597L17.6876 12.9897" stroke="#4B47FF" stroke-linecap="round" stroke-linejoin="round"></path></g><defs><clipPath id="clip0_18261_20800"><rect width="20" height="20" fill="white"></rect></clipPath></defs></svg> 