<?xml version="1.0" encoding="UTF-8"?> <svg xmlns="http://www.w3.org/2000/svg" width="20" height="20" viewBox="0 0 20 20" fill="none"><g clip-path="url(#clip0_18149_72136)"><path d="M2.5 7.50016C2.5 7.05814 2.67559 6.63421 2.98816 6.32165C3.30072 6.00909 3.72464 5.8335 4.16667 5.8335H15.8333C16.2754 5.8335 16.6993 6.00909 17.0118 6.32165C17.3244 6.63421 17.5 7.05814 17.5 7.50016V15.0002C17.5 15.4422 17.3244 15.8661 17.0118 16.1787C16.6993 16.4912 16.2754 16.6668 15.8333 16.6668H4.16667C3.72464 16.6668 3.30072 16.4912 2.98816 16.1787C2.67559 15.8661 2.5 15.4422 2.5 15.0002V7.50016Z" stroke="#4B47FF" stroke-linecap="round" stroke-linejoin="round"></path><path d="M6.66797 5.83333V4.16667C6.66797 3.72464 6.84356 3.30072 7.15612 2.98816C7.46869 2.67559 7.89261 2.5 8.33464 2.5H11.668C12.11 2.5 12.5339 2.67559 12.8465 2.98816C13.159 3.30072 13.3346 3.72464 13.3346 4.16667V5.83333" stroke="#4B47FF" stroke-linecap="round" stroke-linejoin="round"></path><path d="M10 10V10.0083" stroke="#4B47FF" stroke-linecap="round" stroke-linejoin="round"></path><path d="M2.5 10.8335C4.82632 12.0057 7.39502 12.6164 10 12.6164C12.605 12.6164 15.1737 12.0057 17.5 10.8335" stroke="#4B47FF" stroke-linecap="round" stroke-linejoin="round"></path></g><defs><clipPath id="clip0_18149_72136"><rect width="20" height="20" fill="white"></rect></clipPath></defs></svg> 