<?xml version="1.0" encoding="UTF-8"?> <svg xmlns="http://www.w3.org/2000/svg" width="20" height="20" viewBox="0 0 20 20" fill="none"><g clip-path="url(#clip0_18261_20794)"><path d="M13.332 5.00016H15.832C16.053 5.00016 16.265 5.08796 16.4213 5.24424C16.5776 5.40052 16.6654 5.61248 16.6654 5.8335V15.0002C16.6654 15.4422 16.4898 15.8661 16.1772 16.1787C15.8646 16.4912 15.4407 16.6668 14.9987 16.6668M14.9987 16.6668C14.5567 16.6668 14.1327 16.4912 13.8202 16.1787C13.5076 15.8661 13.332 15.4422 13.332 15.0002V4.16683C13.332 3.94582 13.2442 3.73385 13.088 3.57757C12.9317 3.42129 12.7197 3.3335 12.4987 3.3335H4.16536C3.94435 3.3335 3.73239 3.42129 3.57611 3.57757C3.41983 3.73385 3.33203 3.94582 3.33203 4.16683V14.1668C3.33203 14.8299 3.59542 15.4658 4.06426 15.9346C4.53311 16.4034 5.16899 16.6668 5.83203 16.6668H14.9987Z" stroke="#4B47FF" stroke-linecap="round" stroke-linejoin="round"></path><path d="M6.66797 6.6665H10.0013" stroke="#4B47FF" stroke-linecap="round" stroke-linejoin="round"></path><path d="M6.66797 10H10.0013" stroke="#4B47FF" stroke-linecap="round" stroke-linejoin="round"></path><path d="M6.66797 13.3335H10.0013" stroke="#4B47FF" stroke-linecap="round" stroke-linejoin="round"></path></g><defs><clipPath id="clip0_18261_20794"><rect width="20" height="20" fill="white"></rect></clipPath></defs></svg> 