<?xml version="1.0" encoding="UTF-8"?> <svg xmlns="http://www.w3.org/2000/svg" width="52" height="52" fill="none"><path d="M52 26a26 26 0 10-52 0 26 26 0 0052 0z" fill="#212121"></path><path fill-rule="evenodd" clip-rule="evenodd" d="M30.65 22.68C27.67 19.35 26 13 26 13s-1.67 6.35-4.65 9.68c-2.97 3.32-4.93 7.13-2.83 11.16A8.83 8.83 0 0026 38.63c1.44 0 5.38-.76 7.48-4.79 2.1-4.03.14-7.84-2.83-11.16z" fill="#fff"></path><circle cx="42" cy="42" r="10" fill="#fff"></circle><path d="M39 33.5v4.97l-4.08-2.02A9.2 9.2 0 0139 33.5zM49.08 36.45L45 38.5V33.5a9.2 9.2 0 014.08 2.95zM39 45.53v4.96a8.9 8.9 0 01-4.08-2.92L39 45.53zM49.08 47.57A9 9 0 0145 50.49v-4.96l4.08 2.04z" fill="#04247B"></path><path d="M51 42.01a8.9 8.9 0 01-.5 2.99h-2.53l2.08 1.05a8.73 8.73 0 01-.97 1.52L45 45.53v4.96a8.9 8.9 0 01-5.98 0v-4.96l-4.1 2.04-.36-.5L38.68 45h-2.69l-2.04 1.03a9.33 9.33 0 01-.95-4.02 8.76 8.76 0 01.5-2.99h2.51l-2.06-1.05c.28-.55.6-1.05.97-1.54L39 38.47v-4.96a8.95 8.95 0 016 0v4.96l4.08-2.04.36.49L45.3 39H48l2.06-1.03a9.33 9.33 0 01.95 4.04z" fill="#fff"></path><path d="M36.01 39h-2.5c.14-.34.28-.69.44-1.03L36.01 39zM50.5 45c-.13.36-.29.7-.45 1.05L47.97 45h2.52zM50.05 37.97L47.99 39H45.3l4.14-2.08c.23.34.43.69.61 1.05zM38.7 45l-4.14 2.06a8.62 8.62 0 01-.61-1.03L35.99 45h2.7z" fill="#CE152A"></path><path d="M51 42.01c0 .6-.06 1.21-.18 1.8H43.8v7.03c-.59.1-1.2.16-1.8.16a8.9 8.9 0 01-1.8-.18V43.8h-7.03a8.9 8.9 0 010-3.6h7.03v-7.03a8.61 8.61 0 013.6 0v7.03h7.03c.1.57.16 1.17.16 1.8z" fill="#CE152A"></path></svg> 