<?xml version="1.0" encoding="UTF-8"?> <svg xmlns="http://www.w3.org/2000/svg" width="52" height="52" viewBox="0 0 52 52" fill="none"><g clip-path="url(#clip0_329_11190)"><path d="M52 26C52 40.3594 40.3594 52 26 52C11.6406 52 0 40.3594 0 26C0 11.6406 11.6406 0 26 0C40.3594 0 52 11.6406 52 26Z" fill="url(#paint0_linear_329_11190)"></path><g clip-path="url(#clip1_329_11190)"><path fill-rule="evenodd" clip-rule="evenodd" d="M36.9052 28.9055C35.3356 28.9055 34.3604 27.9938 34.3604 26.5253C34.3604 24.9994 35.2602 24.0513 36.709 24.0513L36.8314 24.0506C37.0126 24.0506 37.2629 24.0563 37.6047 24.0998V22.2588H38.6297V28.7399C38.6297 28.7399 37.6563 28.9055 36.9052 28.9055ZM36.8963 24.8597C35.9044 24.8597 35.4221 25.3963 35.4221 26.4999C35.4221 27.4902 36.0035 28.1053 36.939 28.1053C37.1186 28.1053 37.3244 28.0941 37.6047 28.0694V24.9252C37.3241 24.8806 37.0989 24.8597 36.8963 24.8597Z" fill="#404041"></path><path fill-rule="evenodd" clip-rule="evenodd" d="M22.8811 28.7575L20.1149 23.9177L20.1142 28.7575H19.1504V22.6313H20.4994L23.2656 27.4279L23.2644 22.6313H24.2406V28.7575H22.8811Z" fill="#404041"></path><path fill-rule="evenodd" clip-rule="evenodd" d="M31.6889 28.8515C31.2234 28.8515 30.7375 28.7993 30.1591 28.6878L30.0976 28.6756V27.8198L30.1892 27.84C30.6984 27.9485 31.1386 28.0424 31.5784 28.0424C31.9345 28.0424 32.7629 27.9856 32.7629 27.4611C32.7629 27.0208 32.1904 26.9106 31.7303 26.8224L31.7015 26.8167C31.6161 26.7998 31.5352 26.7837 31.466 26.7663C30.7916 26.5907 30.0723 26.3273 30.0723 25.4211C30.0723 24.5375 30.7702 24.0308 31.9868 24.0308C32.5705 24.0308 32.9945 24.0939 33.3349 24.1448L33.5014 24.1698V24.9992L33.4126 24.9839C33.0272 24.9127 32.5755 24.8396 32.1404 24.8396C31.6581 24.8396 31.0836 24.9301 31.0836 25.3613C31.0836 25.7186 31.553 25.8209 32.0967 25.9394C32.8563 26.1051 33.7991 26.3115 33.7991 27.3505C33.7991 28.3044 33.0299 28.8515 31.6889 28.8515Z" fill="#404041"></path><path fill-rule="evenodd" clip-rule="evenodd" d="M41.5042 28.8515C40.4433 28.8515 39.4619 28.6647 39.4619 27.308C39.4619 25.8317 40.9799 25.8317 41.8871 25.8317C41.9778 25.8317 42.404 25.8512 42.5354 25.8571C42.5342 25.029 42.523 24.8314 41.3251 24.8314C40.8502 24.8314 40.3225 24.926 39.8569 25.0093L39.768 25.0254V24.2073L39.8288 24.1949C40.3682 24.0846 40.8883 24.0308 41.4188 24.0308C42.5799 24.0308 43.5639 24.1482 43.5639 25.5919V28.7414L43.493 28.7487C42.6889 28.8391 42.0499 28.8515 41.5042 28.8515ZM41.8612 26.5618C40.9868 26.5618 40.4449 26.6908 40.4449 27.3331C40.4449 28.0763 41.1367 28.1383 41.785 28.1383C42.0278 28.1383 42.4635 28.1074 42.5966 28.0974V26.587C42.4086 26.5799 41.9204 26.5618 41.8612 26.5618Z" fill="#404041"></path><path fill-rule="evenodd" clip-rule="evenodd" d="M27.136 28.8515C26.0751 28.8515 25.0938 28.6647 25.0938 27.308C25.0938 25.8317 26.6117 25.8317 27.5189 25.8317C27.6093 25.8317 28.0358 25.8512 28.1672 25.8571C28.1661 25.029 28.1549 24.8314 26.9569 24.8314C26.482 24.8314 25.9545 24.926 25.4887 25.0093L25.3999 25.0254V24.2073L25.4606 24.1949C26.0002 24.0846 26.5201 24.0308 27.0506 24.0308C28.2118 24.0308 29.1956 24.1482 29.1956 25.5919V28.7414L29.1248 28.7487C28.3207 28.8391 27.6818 28.8515 27.136 28.8515ZM27.4931 26.5618C26.6186 26.5618 26.0767 26.6908 26.0767 27.3331C26.0767 28.0763 26.7685 28.1383 27.4168 28.1383C27.6596 28.1383 28.0952 28.1074 28.2284 28.0974V26.587C28.0404 26.5799 27.5522 26.5618 27.4931 26.5618Z" fill="#404041"></path><path fill-rule="evenodd" clip-rule="evenodd" d="M47.6413 30.8384V28.8293C47.2412 28.8856 47.0285 28.8856 46.8571 28.8856C46.4518 28.8856 46.0015 28.7972 45.6522 28.6488C44.872 28.324 44.4062 27.4973 44.4062 26.437C44.4062 25.9068 44.5349 24.9392 45.3959 24.4177C45.8269 24.159 46.3377 24.0483 47.104 24.0483C47.3792 24.0483 47.7498 24.0696 48.1078 24.0905L48.6893 24.1205V30.3733L47.6413 30.8384ZM47.0272 24.857C45.9875 24.857 45.4598 25.3885 45.4598 26.437C45.4598 27.7854 46.2473 28.0685 46.9083 28.0685C47.0689 28.0685 47.2503 28.0685 47.6508 28.0178V24.8861C47.3371 24.8648 47.193 24.857 47.0272 24.857Z" fill="#404041"></path><path fill-rule="evenodd" clip-rule="evenodd" d="M14.5749 19L11.1878 28.3285C11.1046 28.5587 10.8947 28.7267 10.6429 28.7522V28.7577H14.2231C14.5039 28.7577 14.7437 28.5788 14.8337 28.3285L18.2209 19H14.5749ZM10.3517 28.6152C10.5585 28.6152 10.7408 28.5126 10.8522 28.3559C10.8639 28.3396 10.9046 28.2824 10.9329 28.2043L12.1754 24.7815L11.4487 22.7826C11.3559 22.5607 11.1369 22.4047 10.8817 22.4047C10.6752 22.4047 10.4927 22.5071 10.3812 22.664C10.3695 22.68 10.3211 22.7531 10.3005 22.8156L9.0585 26.2371L9.78817 28.2439C9.88273 28.4622 10.0991 28.6152 10.3517 28.6152ZM6.99775 22.2617H10.617V22.2637C10.3481 22.2749 10.1203 22.4483 10.0331 22.6906L6.64618 32.0189H3L6.38689 22.6906C6.47736 22.4403 6.71677 22.2617 6.99775 22.2617Z" fill="#0090BA"></path></g></g><defs><linearGradient id="paint0_linear_329_11190" x1="12.2353" y1="4.58823" x2="42.0588" y2="45.8824" gradientUnits="userSpaceOnUse"><stop stop-color="white"></stop><stop offset="1" stop-color="#DDDDDD"></stop></linearGradient><clipPath id="clip0_329_11190"><rect width="52" height="52" fill="white"></rect></clipPath><clipPath id="clip1_329_11190"><rect width="46" height="13.0189" fill="white" transform="translate(3 19)"></rect></clipPath></defs></svg> 