<?xml version="1.0" encoding="UTF-8"?> <svg xmlns="http://www.w3.org/2000/svg" width="52" height="52" fill="none"><path d="M52 26C52 11.64 40.36 0 26 0S0 11.64 0 26s11.64 26 26 26 26-11.64 26-26z" fill="#77B900"></path><path fill-rule="evenodd" clip-rule="evenodd" d="M19.43 21.263v-2.22c.217-.016.434-.028.656-.035 6.072-.19 10.055 5.219 10.055 5.219s-4.303 5.975-8.916 5.975a5.59 5.59 0 01-1.795-.288v-6.732c2.364.286 2.84 1.33 4.262 3.7l3.16-2.666s-2.307-3.026-6.197-3.026c-.422 0-.826.03-1.225.073zm0-7.334v3.315c.218-.016.437-.03.656-.037 8.443-.285 13.945 6.924 13.945 6.924s-6.319 7.684-12.901 7.684a9.642 9.642 0 01-1.7-.15v2.05c.454.057.925.092 1.415.092 6.126 0 10.556-3.13 14.846-6.832.712.57 3.624 1.955 4.222 2.562-4.079 3.414-13.585 6.168-18.974 6.168-.52 0-1.017-.032-1.509-.08v2.881h23.285V13.93H19.43zm0 15.986v1.75c-5.665-1.01-7.238-6.9-7.238-6.9s2.72-3.014 7.238-3.502v1.92l-.008-.001c-2.372-.285-4.224 1.93-4.224 1.93s1.038 3.73 4.232 4.803zM9.367 24.51s3.358-4.955 10.063-5.469v-1.796c-7.426.596-13.858 6.886-13.858 6.886S9.215 34.66 19.43 35.626v-1.911C11.934 32.77 9.367 24.51 9.367 24.51z" fill="#F7F9FA"></path></svg> 