<?xml version="1.0" encoding="UTF-8"?> <svg xmlns="http://www.w3.org/2000/svg" width="52" height="52" fill="none"><path d="M52 26a26 26 0 11-52 0 26 26 0 0152 0z" fill="url(#paint0_linear)"></path><rect x="9" y="21" width="35" height="17" rx="2" fill="#AEAEAE"></rect><rect x="9" y="19" width="35" height="17" rx="2" fill="#F2F2F2"></rect><path d="M24 23.3c.38 0 .73.11 1.07.34.34.22.6.52.81.9a2.56 2.56 0 01-.81 3.38c-.34.22-.7.33-1.07.33H22.1v2.08c0 .2-.06.36-.18.48a.6.6 0 01-.46.19.6.6 0 01-.45-.19.7.7 0 01-.18-.48v-6.36c0-.19.07-.35.2-.47.12-.13.28-.2.48-.2H24zm0 3.7c.14 0 .28-.06.41-.18a1.4 1.4 0 000-2.08.61.61 0 00-.4-.18h-1.92V27H24zM30.34 29.76c.1 0 .2.05.28.15.08.1.13.22.13.39 0 .2-.11.36-.33.5-.21.13-.46.2-.73.2-.45 0-.84-.1-1.15-.29-.31-.2-.46-.6-.46-1.24v-3.04h-.51a.6.6 0 01-.62-.61c0-.17.06-.3.18-.42a.6.6 0 01.44-.17h.5v-.7c0-.2.07-.36.2-.48.12-.13.29-.2.48-.2.18 0 .33.07.46.2.12.12.19.28.19.47v.7h.78a.6.6 0 01.61.62c0 .17-.06.31-.17.43a.62.62 0 01-.44.16h-.78v2.99c0 .15.04.26.12.34.08.06.19.1.33.1.05 0 .14-.02.24-.05a.66.66 0 01.25-.05z" fill="#7B7B7B"></path><defs><linearGradient id="paint0_linear" x1="12.24" y1="4.59" x2="42.06" y2="45.88" gradientUnits="userSpaceOnUse"><stop stop-color="#fff"></stop><stop offset="1" stop-color="#DDD"></stop></linearGradient></defs></svg> 