<?xml version="1.0" encoding="UTF-8"?> <svg xmlns="http://www.w3.org/2000/svg" width="32" height="32" viewBox="0 0 32 32" fill="none"><g clip-path="url(#clip0_2235_2922)"><rect width="32" height="32" rx="16" fill="#F0F0F0"></rect><path d="M27.0862 20.6017C26.8168 21.2474 26.4936 21.8663 26.1165 22.4314H5.88673C5.50961 21.8663 5.18636 21.2474 4.91699 20.6017H27.0862Z" fill="white"></path><path d="M27.6782 18.7717C27.5435 19.3906 27.328 20.0094 27.0855 20.6014H4.91635C4.67391 20.0094 4.48535 19.3906 4.32373 18.7717H27.6782Z" fill="#B12233"></path><path d="M27.9734 16.9156C27.9195 17.5345 27.8387 18.1534 27.6771 18.7722H4.32267C4.18799 18.1534 4.08024 17.5345 4.02637 16.9156H27.9734Z" fill="white"></path><path d="M26.115 22.4581C25.684 23.1039 25.1991 23.7228 24.6604 24.2878H7.33986C6.80111 23.7228 6.31625 23.1039 5.88525 22.4581H26.115Z" fill="#B12233"></path><path d="M22.3981 26.1434C20.5395 27.3004 18.3576 28 16.014 28C13.6705 28 11.4617 27.3004 9.60303 26.1434H22.3981Z" fill="#B12233"></path><path d="M24.6618 24.2874C23.9884 24.9869 23.2342 25.6058 22.3991 26.1439H9.60402C8.79591 25.6058 8.01474 24.9869 7.34131 24.2874H24.6618Z" fill="white"></path><path d="M24.6618 7.68629H7.34131C8.01474 6.98671 8.76897 6.36785 9.60402 5.82971H22.3722C23.2342 6.36785 23.9884 6.98671 24.6618 7.68629Z" fill="white"></path><path d="M22.3981 5.85657H9.60303C10.0071 5.61441 10.3842 5.39916 10.7883 5.1839C10.8152 5.157 10.8691 5.157 10.896 5.13009C11.0307 5.07627 11.1654 4.99555 11.327 4.94174C11.3809 4.91483 11.4617 4.88793 11.5156 4.86102C12.9163 4.32288 14.4248 4 16.014 4C18.3576 4 20.5395 4.67267 22.3981 5.85657Z" fill="#B12233"></path><path d="M26.115 9.54224H5.88525C5.993 9.3808 6.10075 9.19245 6.23544 9.05792C6.23544 9.03101 6.26237 9.03101 6.26237 9.03101C6.58562 8.54669 6.96274 8.11618 7.33986 7.68567H24.6604C25.1991 8.25071 25.684 8.86957 26.115 9.54224Z" fill="#B12233"></path><path d="M27.6782 13.2294H4.32373C4.48535 12.5836 4.67391 11.9917 4.91635 11.3728H27.0855C27.328 11.9648 27.5435 12.5836 27.6782 13.2294Z" fill="#B12233"></path><path d="M27.0862 11.3714H4.91699C4.97087 11.2638 5.02474 11.1562 5.07861 11.0216C5.2133 10.7526 5.34799 10.4566 5.50961 10.1875C5.61736 9.97226 5.75204 9.757 5.88673 9.54175H26.1165C26.4936 10.1068 26.8168 10.7256 27.0862 11.3714Z" fill="white"></path><path d="M27.9734 15.0855H4.02637C4.02637 15.0047 4.02637 14.924 4.0533 14.8433C4.08024 14.628 4.10718 14.3859 4.13412 14.1706C4.18799 13.8477 4.24186 13.5249 4.32267 13.2289H27.6771C27.8387 13.8208 27.9195 14.4397 27.9734 15.0855Z" fill="white"></path><path d="M28.0009 16.0011C28.0009 16.324 28.0009 16.62 27.974 16.916H4.02694C4 16.62 4 16.2971 4 16.0011C4 15.6783 4 15.3823 4.02694 15.0863H27.974C28.0009 15.3823 28.0009 15.6783 28.0009 16.0011Z" fill="#B12233"></path><path d="M16.0139 4V16.9153H4.02694C4 16.6193 4 16.2964 4 16.0005C4 15.6776 4 15.3816 4.02694 15.0856C4.02694 15.0049 4.02694 14.9242 4.05387 14.8435C4.08081 14.6282 4.10775 14.386 4.13469 14.1708C4.18856 13.8479 4.24243 13.525 4.32324 13.2291C4.48487 12.5833 4.67343 11.9913 4.91586 11.3725C4.96973 11.2649 5.02361 11.1572 5.07748 11.0227C5.21217 10.7536 5.34685 10.4576 5.50848 10.1886C5.61622 9.97332 5.75091 9.75807 5.88559 9.54281C5.99334 9.38137 6.10109 9.19302 6.23578 9.05849C6.23578 9.03158 6.26271 9.03158 6.26271 9.03158C6.58596 8.54726 6.96308 8.11675 7.3402 7.68624C8.01362 6.98666 8.76786 6.3678 9.60291 5.82967C10.007 5.61441 10.3841 5.39916 10.7881 5.1839C10.8151 5.157 10.869 5.157 10.8959 5.13009C11.0306 5.07627 11.1653 4.99555 11.3269 4.94174C11.3808 4.91483 11.4616 4.88793 11.5154 4.86102C12.9162 4.32288 14.4246 4 16.0139 4Z" fill="#3C3B6D"></path><path d="M14.4772 4.61963L14.6658 5.13086H15.2045L14.7466 5.45374L14.9351 5.96497L14.4772 5.64209L14.0462 5.96497L14.2078 5.45374L13.7769 5.13086H14.3156L14.4772 4.61963Z" fill="white"></path><path d="M11.8377 5.85946L11.8915 5.96721L11.703 5.85946L11.4336 5.64397L11.1642 5.85946L11.0026 5.96721L11.0565 5.85946L11.1642 5.45541L10.7871 5.18604L10.9218 5.13216H11.272L11.3259 4.9436L11.5144 4.86279L11.6222 5.13216H12.1609L11.7299 5.45541L11.8377 5.85946Z" fill="white"></path><path d="M14.4758 7.20154L14.6643 7.71277H15.2031L14.7451 8.03565L14.9337 8.54688L14.4758 8.224L14.0448 8.54688L14.2064 8.03565L13.7754 7.71277H14.3141L14.4758 7.20154Z" fill="white"></path><path d="M11.4333 7.2019L11.6218 7.71313H12.1606L11.7296 8.03602L11.8912 8.54725L11.4333 8.22437L11.0023 8.54725L11.1639 8.03602L10.7329 7.71313H11.2717L11.4333 7.2019Z" fill="white"></path><path d="M8.41578 7.2019L8.5774 7.71313H9.11614L8.68515 8.03602L8.84677 8.54725L8.41578 8.22437L7.95785 8.54725L8.11947 8.03602L7.68848 7.71313H8.22722L8.41578 7.2019Z" fill="white"></path><path d="M14.4801 9.78394L14.6687 10.2952H15.2074L14.7495 10.618L14.9381 11.1293L14.4801 10.8064L14.0492 11.1293L14.2108 10.618L13.7798 10.2952H14.3185L14.4801 9.78394Z" fill="white"></path><path d="M11.4347 9.78394L11.6233 10.2952H12.162L11.731 10.618L11.8927 11.1293L11.4347 10.8064L11.0037 11.1293L11.1654 10.618L10.7344 10.2952H11.2731L11.4347 9.78394Z" fill="white"></path><path d="M8.41871 9.78394L8.58033 10.2952H9.11907L8.68808 10.618L8.8497 11.1293L8.41871 10.8064L7.96078 11.1293L8.1224 10.618L7.69141 10.2952H8.23015L8.41871 9.78394Z" fill="white"></path><path d="M5.6438 10.6192L5.80543 11.131L5.37443 10.8078L5.07812 11.0233C5.21281 10.7539 5.3475 10.4576 5.50912 10.1882L5.53606 10.296H6.0748L5.6438 10.6192Z" fill="white"></path><path d="M14.4772 12.3691L14.6658 12.8804H15.2045L14.7466 13.2033L14.9351 13.7145L14.4772 13.3916L14.0462 13.7145L14.2078 13.2033L13.7769 12.8804H14.3156L14.4772 12.3691Z" fill="white"></path><path d="M11.4318 12.3691L11.6204 12.8804H12.1591L11.7281 13.2033L11.8897 13.7145L11.4318 13.3916L11.0008 13.7145L11.1624 13.2033L10.7314 12.8804H11.2702L11.4318 12.3691Z" fill="white"></path><path d="M8.41578 12.3691L8.5774 12.8804H9.11614L8.68515 13.2033L8.84677 13.7145L8.41578 13.3916L7.95785 13.7145L8.11947 13.2033L7.68848 12.8804H8.22722L8.41578 12.3691Z" fill="white"></path><path d="M5.37183 12.369L5.53345 12.8802H6.0722L5.6412 13.2031L5.80283 13.7144L5.37183 13.3915L4.9139 13.7144L5.10246 13.2031L4.64453 12.8802H5.18327L5.37183 12.369Z" fill="white"></path><path d="M14.4772 14.9514L14.6658 15.4626H15.2045L14.7466 15.7855L14.9351 16.2968L14.4772 15.9739L14.0462 16.2968L14.2078 15.7855L13.7769 15.4626H14.3156L14.4772 14.9514Z" fill="white"></path><path d="M11.4318 14.9514L11.6204 15.4626H12.1591L11.7281 15.7855L11.8897 16.2968L11.4318 15.9739L11.0008 16.2968L11.1624 15.7855L10.7314 15.4626H11.2702L11.4318 14.9514Z" fill="white"></path><path d="M8.41578 14.9514L8.5774 15.4626H9.11614L8.68515 15.7855L8.84677 16.2968L8.41578 15.9739L7.95785 16.2968L8.11947 15.7855L7.68848 15.4626H8.22722L8.41578 14.9514Z" fill="white"></path><path d="M5.37183 14.9515L5.53345 15.4628H6.0722L5.6412 15.7856L5.80283 16.2969L5.37183 15.974L4.9139 16.2969L5.10246 15.7856L4.64453 15.4628H5.18327L5.37183 14.9515Z" fill="white"></path><path d="M12.969 13.658L13.1306 14.1692H13.6694L13.2384 14.4921L13.4 15.0033L12.969 14.6804L12.5111 15.0033L12.6996 14.4921L12.2417 14.1692H12.8074L12.969 13.658Z" fill="white"></path><path d="M9.92457 13.658L10.0862 14.1692H10.6519L10.1939 14.4921L10.3556 15.0033L9.92457 14.6804L9.49357 15.0033L9.6552 14.4921L9.19727 14.1692H9.76294L9.92457 13.658Z" fill="white"></path><path d="M6.88152 13.658L7.04314 14.1692H7.60882L7.15089 14.4921L7.31251 15.0033L6.88152 14.6804L6.45052 15.0033L6.61215 14.4921L6.18115 14.1692H6.71989L6.88152 13.658Z" fill="white"></path><path d="M4.10661 14.4928L4.26823 15.0046L4.05273 14.843C4.07967 14.6275 4.10661 14.3851 4.13355 14.1696H4.56454L4.10661 14.4928Z" fill="white"></path><path d="M12.969 11.0769L13.1306 11.5881H13.6694L13.2384 11.911L13.4 12.4222L12.969 12.0994L12.5111 12.4222L12.6996 11.911L12.2417 11.5881H12.8074L12.969 11.0769Z" fill="white"></path><path d="M9.92603 11.0769L10.0877 11.5881H10.6533L10.1954 11.911L10.357 12.4222L9.92603 12.0994L9.49504 12.4222L9.65666 11.911L9.19873 11.5881H9.76441L9.92603 11.0769Z" fill="white"></path><path d="M6.88152 11.0769L7.04314 11.5881H7.60882L7.15089 11.911L7.31251 12.4222L6.88152 12.0994L6.45052 12.4222L6.61215 11.911L6.18115 11.5881H6.71989L6.88152 11.0769Z" fill="white"></path><path d="M12.969 8.49414L13.1306 9.00537H13.6694L13.2384 9.32825L13.4 9.83948L12.969 9.5166L12.5111 9.83948L12.6996 9.32825L12.2417 9.00537H12.8074L12.969 8.49414Z" fill="white"></path><path d="M9.92603 8.49414L10.0877 9.00537H10.6533L10.1954 9.32825L10.357 9.83948L9.92603 9.5166L9.49504 9.83948L9.65666 9.32825L9.19873 9.00537H9.76441L9.92603 8.49414Z" fill="white"></path><path d="M7.23202 9.54363L7.33977 9.83961L6.90878 9.54363L6.88184 9.51672V9.54363L6.45085 9.83961L6.53166 9.54363L6.61247 9.32838L6.23535 9.05931L6.26229 9.00549H6.72022L6.88184 8.49426L7.04346 9.00549H7.60914L7.15121 9.32838L7.23202 9.54363Z" fill="white"></path><path d="M12.9705 5.91187L13.1321 6.4231H13.6708L13.2398 6.74598L13.4015 7.25721L12.9705 6.93433L12.5125 7.25721L12.7011 6.74598L12.2432 6.4231H12.8088L12.9705 5.91187Z" fill="white"></path><path d="M9.92603 5.91174L10.0877 6.42297H10.6533L10.1954 6.74586L10.357 7.25709L9.92603 6.9342L9.49504 7.25709L9.65666 6.74586L9.19873 6.42297H9.76441L9.92603 5.91174Z" fill="white"></path></g><defs><clipPath id="clip0_2235_2922"><rect width="32" height="32" fill="white"></rect></clipPath></defs></svg> 