<?xml version="1.0" encoding="UTF-8"?> <svg xmlns="http://www.w3.org/2000/svg" width="176" height="128" viewBox="0 0 176 128" fill="none"><path d="M102.801 54.7847L100.263 60.397H66L68.0758 54.7847H102.801ZM97.9057 65.5224L95.1124 71.2629H66L68.0758 65.5224H97.9057ZM109.464 40.7666L105.363 49.5311C104.68 49.0527 103.851 48.5317 102.877 47.9679C101.921 47.387 100.819 46.9001 99.5715 46.5071C98.3414 46.0971 96.9746 45.8921 95.4712 45.8921C93.0964 45.8921 91.0291 46.49 89.2694 47.686C87.5097 48.8819 86.1429 50.7441 85.1691 53.2727C84.2123 55.8012 83.734 59.0473 83.734 63.011C83.734 67.0088 84.2123 70.2634 85.1691 72.7749C86.1429 75.2692 87.5097 77.1059 89.2694 78.2847C91.0291 79.4465 93.0964 80.0274 95.4712 80.0274C96.9746 80.0274 98.3414 79.8309 99.5715 79.4379C100.802 79.045 101.878 78.5751 102.801 78.0284C103.74 77.4817 104.526 76.9777 105.158 76.5164L109.31 85.2809C107.448 86.8185 105.338 87.9803 102.98 88.7662C100.622 89.535 98.1193 89.9194 95.4712 89.9194C90.995 89.9194 87.0313 88.8602 83.5802 86.7417C80.1462 84.6061 77.4553 81.5393 75.5077 77.5415C73.56 73.5266 72.5862 68.6831 72.5862 63.011C72.5862 57.3559 73.56 52.5124 75.5077 48.4804C77.4553 44.4484 80.1462 41.3646 83.5802 39.229C87.0313 37.0763 90.995 36 95.4712 36C98.2218 36 100.767 36.41 103.108 37.2301C105.449 38.0502 107.567 39.229 109.464 40.7666Z" fill="#A2E801"></path><path fill-rule="evenodd" clip-rule="evenodd" d="M0.6875 104.895V74.9861V50.2032V20.2947C0.6875 18.9241 1.7952 17.8164 3.16575 17.8164H33.0738H143.15H173.057C174.428 17.8164 175.537 18.9241 175.537 20.2947V50.2032C175.537 50.226 175.536 50.2488 175.536 50.2716V74.9177C175.536 74.9405 175.537 74.9633 175.537 74.9861V104.895C175.537 104.94 175.535 104.984 175.533 105.028C175.473 106.345 174.389 107.392 173.057 107.392V107.373L143.15 107.373C143.144 107.373 143.138 107.373 143.132 107.373H33.092L33.0738 107.373H3.16575C1.7952 107.373 0.6875 106.265 0.6875 104.895ZM170.579 77.5772V102.435L145.723 102.435C146.905 89.2742 157.419 78.7604 170.579 77.5772ZM170.579 72.6018C154.69 73.8109 141.964 86.5426 140.765 102.435H35.4595C34.2594 86.536 21.524 73.8004 5.62523 72.6003V52.589C21.524 51.3889 34.2595 38.6532 35.4595 22.7542H140.765C141.964 38.6466 154.69 51.3784 170.579 52.5875V72.6018ZM170.579 47.6309V22.7542H145.723V22.773C146.905 35.9339 157.419 46.4477 170.579 47.6309ZM30.4829 102.435C29.3 89.2738 18.7862 78.7599 5.62523 77.5771V102.435H30.4829ZM30.4829 22.7542C29.3001 35.9154 18.7863 46.4294 5.62523 47.6122V22.7542H30.4829Z" fill="#821EC8"></path></svg> 