<?xml version="1.0" encoding="UTF-8"?> <svg xmlns="http://www.w3.org/2000/svg" width="155" height="171" viewBox="0 0 155 171" fill="none"><g filter="url(#filter0_b_17881_41787)"><path d="M1.68359 139.684C1.68359 142.282 3.34541 143.929 5.7072 143.929H54.0972C54.3011 159.077 63.9645 169.765 77.6632 169.765C91.2895 169.765 100.953 159.084 101.157 143.929H149.547C151.903 143.929 153.57 142.282 153.57 139.684C153.57 130.93 146.076 123.755 139.537 116.186C130.062 105.381 130.974 83.5056 128.029 62.6724C125.089 42.1587 116.733 25.5245 97.3049 20.7109C95.8512 8.65312 87.9355 1 77.6632 1C67.3185 1 59.3968 8.65312 57.9489 20.7109C38.5212 25.5245 30.1649 42.1587 27.2254 62.6724C24.28 83.5056 25.1923 105.381 15.7166 116.186C9.17223 123.755 1.68359 130.93 1.68359 139.684ZM6.27407 139.743V138.872C6.30187 133.583 13.1571 125.395 18.7902 119.451C29.6327 107.94 28.0316 84.145 31.2962 63.6298C34.7117 43.0173 41.8229 29.7925 56.9308 25.6733C60.0547 24.758 61.8606 23.6467 62.3364 20.7728C63.6074 12.2345 68.8177 5.24132 77.6632 5.24132C86.4363 5.24132 91.6407 12.2345 92.9176 20.7728C93.3934 23.6467 95.1933 24.758 98.3173 25.6733C113.431 29.7925 120.542 43.0173 123.958 63.6298C127.222 84.145 125.621 107.94 136.458 119.451C142.096 125.395 148.946 133.583 148.975 138.872V139.743H6.27407ZM58.2287 143.929H97.0253C96.3515 157.135 88.403 165.72 77.6632 165.72C66.851 165.72 58.8966 157.135 58.2287 143.929Z" fill="#821EC8"></path><path d="M139.915 115.859L139.913 115.856C135.28 110.573 133.153 102.536 131.829 93.12C131.188 88.5584 130.738 83.7001 130.276 78.7049L130.235 78.2573C129.758 73.1093 129.262 67.8244 128.524 62.6024L128.523 62.6014C125.59 42.1317 117.247 25.3044 97.7583 20.3095C96.1727 8.24718 88.1387 0.5 77.6632 0.5C67.1173 0.5 59.0757 8.24573 57.4954 20.3096C38.0066 25.3045 29.6636 42.1317 26.7305 62.6014L26.7304 62.6024C25.9921 67.8244 25.4958 73.1093 25.0192 78.2573L24.9779 78.7037C24.5156 83.6993 24.066 88.5581 23.4247 93.12C22.1012 102.536 19.9734 110.573 15.3407 115.856L15.3384 115.859C14.517 116.809 13.677 117.757 12.8363 118.705C10.3512 121.509 7.86136 124.318 5.83666 127.204C3.11994 131.076 1.18359 135.16 1.18359 139.684C1.18359 141.091 1.63549 142.284 2.44992 143.128C3.2653 143.973 4.40647 144.429 5.7072 144.429H53.6073C54.0158 159.539 63.7923 170.265 77.6632 170.265C91.4634 170.265 101.238 159.545 101.647 144.429H149.547C150.845 144.429 151.986 143.973 152.802 143.128C153.617 142.284 154.07 141.092 154.07 139.684C154.07 135.16 152.132 131.075 149.415 127.203C147.394 124.325 144.911 121.522 142.433 118.725C141.587 117.77 140.742 116.816 139.915 115.859ZM19.1531 119.795L19.1542 119.794C24.6923 113.914 27.0161 104.945 28.3803 94.9848C28.9931 90.511 29.4148 85.8113 29.8399 81.0746C29.889 80.5278 29.9381 79.9805 29.9876 79.433C30.466 74.1375 30.9767 68.8196 31.7898 63.7099C35.1974 43.146 42.2528 30.1935 57.0623 26.1557L57.0623 26.1558L57.0714 26.1531C58.6489 25.6909 59.9636 25.1612 60.9468 24.3416C61.9513 23.5042 62.5747 22.3948 62.8297 20.8545L62.8298 20.8545L62.831 20.8464C63.4555 16.6506 65.0437 12.8677 67.5288 10.1421C70.0049 7.42642 73.3864 5.74132 77.6632 5.74132C86.089 5.74132 91.1658 12.4397 92.4231 20.8467L92.423 20.8467L92.4243 20.8545C92.6793 22.3943 93.3008 23.5037 94.3039 24.3413C95.2857 25.1612 96.5991 25.6909 98.1767 26.1531L98.1767 26.1532L98.1858 26.1557C113.001 30.1935 120.056 43.1456 123.464 63.709C124.277 68.819 124.788 74.1372 125.266 79.433C125.316 79.9824 125.365 80.5316 125.414 81.0803C125.839 85.815 126.261 90.5128 126.873 94.9847C128.236 104.945 130.559 113.914 136.094 119.794L136.095 119.795C138.908 122.76 142.01 126.273 144.411 129.694C145.611 131.405 146.628 133.083 147.345 134.65C148.065 136.222 148.468 137.652 148.475 138.874V139.243H6.77407V138.873C6.78076 137.651 7.18412 136.222 7.90389 134.65C8.62158 133.083 9.63916 131.405 10.8394 129.694C13.2402 126.273 16.3429 122.76 19.1531 119.795ZM64.5131 159.442C61.2702 155.846 59.1729 150.701 58.7587 144.429H96.4951C95.6506 157.142 87.9268 165.22 77.6632 165.22C72.3983 165.22 67.8417 163.134 64.5131 159.442Z" stroke="#821EC8"></path></g><path d="M118.661 21.4147C118.661 30.4826 111.211 38.04 102.338 38.04C93.516 38.04 86.0703 30.4861 86.0703 21.4147C86.0703 12.2791 93.5193 4.72852 102.338 4.72852C111.207 4.72852 118.661 12.2827 118.661 21.4147Z" fill="#A2E801" stroke="white" stroke-width="3"></path><defs><filter id="filter0_b_17881_41787" x="-3.31641" y="-4" width="161.887" height="178.766" filterUnits="userSpaceOnUse" color-interpolation-filters="sRGB"><feFlood flood-opacity="0" result="BackgroundImageFix"></feFlood><feGaussianBlur in="BackgroundImageFix" stdDeviation="2"></feGaussianBlur><feComposite in2="SourceAlpha" operator="in" result="effect1_backgroundBlur_17881_41787"></feComposite><feBlend mode="normal" in="SourceGraphic" in2="effect1_backgroundBlur_17881_41787" result="shape"></feBlend></filter></defs></svg> 