<?xml version="1.0" encoding="UTF-8"?> <svg xmlns="http://www.w3.org/2000/svg" width="147" height="170" viewBox="0 0 147 170" fill="none"><g filter="url(#filter0_b_17881_41770)"><path d="M73.3705 0L0.0507812 26.3639V84.9615C0.0507812 151.175 71.1986 169.186 71.9146 169.362L73.3705 169.711L74.8264 169.362C75.5424 169.186 146.69 151.175 146.69 84.9615V26.3639L73.3705 0Z" fill="white" fill-opacity="0.2"></path></g><g filter="url(#filter1_b_17881_41770)"><path fill-rule="evenodd" clip-rule="evenodd" d="M6.05078 30.5825V84.9615C6.05078 115.539 22.3492 134.975 39.2075 147.047C47.663 153.103 56.1782 157.229 62.6402 159.852C68.8708 162.381 73.0937 163.471 73.343 163.535C73.3475 163.536 73.3508 163.537 73.3527 163.537L73.3543 163.538L73.3705 163.541L73.3867 163.538C73.3852 163.538 73.3889 163.537 73.3978 163.535C73.6445 163.472 77.8681 162.381 84.1008 159.852C90.5629 157.229 99.078 153.103 107.534 147.047C124.392 134.975 140.69 115.539 140.69 84.9615V30.5825L73.3705 6.37609L6.05078 30.5825ZM73.3705 0L0.0507812 26.3639V84.9615C0.0507812 151.175 71.1986 169.186 71.9146 169.362L73.3705 169.711L74.8264 169.362C75.5424 169.186 146.69 151.175 146.69 84.9615V26.3639L73.3705 0Z" fill="#821EC8"></path></g><path d="M52.4296 129.999C57.5468 129.999 61.6951 125.9 61.6951 120.844C61.6951 115.788 57.5468 111.689 52.4296 111.689C47.3124 111.689 43.1641 115.788 43.1641 120.844C43.1641 125.9 47.3124 129.999 52.4296 129.999Z" fill="#A2E801"></path><path d="M61.6951 91.0167L61.6849 24H43.1641V111.691L61.6951 91.0167Z" fill="#821EC8"></path><path d="M92.8386 56.7637H116.477L83.6236 91.4131L118.268 130H94.6246L61.6992 91.3517L92.8386 56.7637Z" fill="#821EC8"></path><defs><filter id="filter0_b_17881_41770" x="-43.5752" y="-43.626" width="233.893" height="256.963" filterUnits="userSpaceOnUse" color-interpolation-filters="sRGB"><feFlood flood-opacity="0" result="BackgroundImageFix"></feFlood><feGaussianBlur in="BackgroundImageFix" stdDeviation="21.813"></feGaussianBlur><feComposite in2="SourceAlpha" operator="in" result="effect1_backgroundBlur_17881_41770"></feComposite><feBlend mode="normal" in="SourceGraphic" in2="effect1_backgroundBlur_17881_41770" result="shape"></feBlend></filter><filter id="filter1_b_17881_41770" x="-43.5752" y="-43.626" width="233.893" height="256.963" filterUnits="userSpaceOnUse" color-interpolation-filters="sRGB"><feFlood flood-opacity="0" result="BackgroundImageFix"></feFlood><feGaussianBlur in="BackgroundImageFix" stdDeviation="21.813"></feGaussianBlur><feComposite in2="SourceAlpha" operator="in" result="effect1_backgroundBlur_17881_41770"></feComposite><feBlend mode="normal" in="SourceGraphic" in2="effect1_backgroundBlur_17881_41770" result="shape"></feBlend></filter></defs></svg> 