<?xml version="1.0" encoding="UTF-8"?> <svg xmlns="http://www.w3.org/2000/svg" width="128" height="151" viewBox="0 0 128 151" fill="none"><path d="M100.067 55.6567C99.1752 54.5673 98.0944 53.7327 96.853 53.1802C95.6248 52.6333 94.2249 52.3555 92.693 52.3555C91.1611 52.3555 89.7823 52.6344 88.5608 53.1813C87.3293 53.7349 86.2563 54.5696 85.3707 55.6601C83.6626 57.7639 82.7969 60.7068 82.7969 64.4094C82.7969 68.1121 83.6626 71.1344 85.3673 73.2481C86.2541 74.3475 87.3271 75.1855 88.5596 75.7423C89.78 76.2947 91.1722 76.5748 92.6941 76.5748C94.216 76.5748 95.6293 76.2936 96.8596 75.7379C98.1 75.1799 99.1818 74.3353 100.074 73.2305C101.793 71.1046 102.665 68.1374 102.665 64.4094C102.665 60.6814 101.792 57.7595 100.069 55.6556L100.067 55.6567ZM95.473 70.1078C94.788 71.0903 93.9045 71.5468 92.693 71.5468C91.4815 71.5468 90.6346 71.0903 89.9507 70.1078C89.1837 69.0074 88.778 67.037 88.778 64.4094C88.778 61.7819 89.1815 59.8699 89.943 58.7959C90.6258 57.8333 91.5003 57.3857 92.693 57.3857C93.8857 57.3857 94.7702 57.8366 95.4652 58.8037C96.2378 59.8765 96.6446 61.8161 96.6446 64.4105C96.6446 67.005 96.2378 69.0085 95.4719 70.1089L95.473 70.1078Z" fill="#A2E801"></path><path d="M77.4048 52.8924C79.1295 50.8007 80.0029 47.8478 80.0029 44.1165C80.0029 42.2961 79.7835 40.6377 79.3523 39.1855C78.9078 37.6948 78.2594 36.4025 77.4225 35.344C76.5612 34.2546 75.4916 33.4055 74.2457 32.8223C73.0109 32.2445 71.6176 31.9512 70.1057 31.9512C68.5938 31.9512 67.1706 32.2334 65.9424 32.7881C64.7043 33.3482 63.6269 34.1939 62.7401 35.2988C61.0365 37.4246 60.1719 40.3907 60.1719 44.1154C60.1719 47.8401 61.0387 50.7962 62.7479 52.8868C63.6346 53.9718 64.712 54.7999 65.9491 55.349C67.175 55.8937 68.5727 56.1694 70.1046 56.1694C71.6365 56.1694 72.9932 55.8937 74.2102 55.349C75.4362 54.7999 76.5103 53.974 77.4026 52.8913L77.4048 52.8924ZM67.3014 38.449C67.9975 37.472 68.8897 37.0178 70.1079 37.0178C71.3261 37.0178 72.1696 37.4709 72.8535 38.4424C73.6183 39.5307 74.0229 41.4922 74.0229 44.1165C74.0229 46.7408 73.6194 48.656 72.8568 49.7311C72.174 50.6937 71.3006 51.1425 70.1079 51.1425C68.9152 51.1425 67.9941 50.6915 67.298 49.7245C66.5266 48.6516 66.1186 46.7132 66.1186 44.1176C66.1186 41.522 66.5277 39.5362 67.3014 38.4501V38.449Z" fill="#A2E801"></path><path d="M90.8227 35.1088C90.4447 34.9247 90.0401 34.832 89.6211 34.832C88.5648 34.832 87.6215 35.4186 87.1582 36.3614L70.7555 69.7711C70.4352 70.425 70.3886 71.1637 70.6269 71.8529C70.8652 72.542 71.3574 73.0967 72.0147 73.4164C72.3927 73.6006 72.7972 73.6932 73.2162 73.6932C74.2726 73.6932 75.2158 73.1066 75.6792 72.1638L92.0818 38.7541C92.7447 37.4034 92.1794 35.7682 90.8227 35.1088Z" fill="#A2E801"></path><path d="M87.5582 13.9312C82.8435 5.27043 75.2007 0.939453 64.63 0.939453C52.8809 0.939453 44.7625 7.10482 40.2773 19.4356C37.8811 26.0539 36.6836 33.9787 36.6836 43.2066C36.6836 55.1212 38.6806 64.6153 42.6723 71.6878C47.4635 80.1607 54.7632 84.3966 64.5738 84.3966C64.679 84.3966 64.7842 84.3966 64.8882 84.3942V75.0867C64.7555 75.0903 64.6216 75.0915 64.4866 75.0915C57.8609 75.0915 53.1761 71.2539 50.4333 63.5751C48.643 58.5451 47.7479 51.8875 47.7479 43.6036C47.7479 32.5973 49.1474 24.267 51.9475 18.6129C54.7465 12.9587 59.1743 10.1304 65.23 10.1304C71.8186 10.1304 76.256 13.1097 78.5399 19.0658C79.5988 21.8263 80.4126 24.9375 80.9803 28.4018H92.1175C91.2355 22.7132 89.7153 17.8889 87.5582 13.9312Z" fill="#A2E801"></path><path d="M43.918 131.16C44.9549 130.123 46.0464 128.431 49.3755 128.431H89.543C92.5719 128.431 109.245 111.704 111.373 109.33C113.42 107.037 122.507 93.3935 125.017 87.4994C123.434 85.3709 119.15 83.5972 114.102 84.7706C109.272 85.8894 106.434 89.3549 103.187 95.6857L90.6891 102.18" stroke="#821EC8" stroke-width="4" stroke-miterlimit="10"></path><path d="M59.5317 112.056H84.0906C95.0057 112.056 95.0057 98.4126 84.0906 98.4126H67.718C65.4531 98.4126 61.169 92.9551 57.567 92.9551H43.9231C40.2393 92.9551 35.655 95.9567 33.008 98.4126C28.9149 102.506 21.7109 109.328 21.7109 109.328" stroke="#821EC8" stroke-width="4" stroke-miterlimit="10"></path><path d="M16.6418 103.866L3 117.508L33.0235 147.531L46.6653 133.89L16.6418 103.866Z" stroke="#821EC8" stroke-width="4" stroke-miterlimit="10"></path></svg> 