<?xml version="1.0" encoding="UTF-8"?> <svg xmlns="http://www.w3.org/2000/svg" width="126" height="126" viewBox="0 0 126 126" fill="none"><path d="M68.0411 62.0136C67.1099 62.939 65.6024 62.939 64.6712 62.0136C63.7418 61.0863 63.7418 59.585 64.6712 58.6595C65.6024 57.7323 67.1099 57.7323 68.0411 58.6595C68.9705 59.585 68.9705 61.0863 68.0411 62.0136ZM98.3557 45.2417C93.7127 49.8653 86.1574 49.8635 81.5135 45.2417C76.8704 40.6153 76.8704 33.0916 81.5135 28.4689C86.1676 23.8342 93.7026 23.8342 98.3567 28.4689C103.012 33.1035 103.011 40.607 98.3567 45.2408L98.3557 45.2417ZM94.9876 31.8238C92.195 29.0428 87.6742 29.0428 84.8815 31.8238C82.0963 34.5975 82.0963 39.1122 84.8815 41.8877C87.6678 44.6613 92.2014 44.6613 94.9867 41.8877C97.7794 39.1067 97.7794 34.6048 94.9867 31.8247L94.9876 31.8238ZM125.999 3.39621C125.98 3.93263 125.465 16.7015 120.076 31.8815C115.763 44.0434 109.59 54.1824 101.725 62.0145C99.9617 63.7702 98.0928 65.4783 96.1523 67.1114C100.73 74.8556 99.2943 81.0611 97.1865 84.9836C92.332 94.0158 79.1519 99.607 69.7242 99.607C68.7609 99.607 67.8922 99.0294 67.5236 98.1424C67.155 97.2563 67.359 96.2365 68.0393 95.5573C72.823 90.7945 72.5233 84.9186 72.2705 82.999L71.4368 82.1687C67.53 83.8036 63.6462 85.12 59.87 86.0857C58.5729 86.4162 57.1316 86.3493 55.7307 85.8001C54.6735 88.0831 53.1219 90.2865 51.197 92.2042C45.0657 98.3099 30.1225 99.5493 29.4901 99.5988C29.4276 99.6034 29.3651 99.6061 29.3026 99.6061C28.6738 99.6061 28.0671 99.358 27.6185 98.9113C27.1258 98.4207 26.8739 97.7396 26.9282 97.0476C26.9778 96.4169 28.2234 81.5371 34.3547 75.4314C36.2814 73.5128 38.494 71.9676 40.7866 70.9149C40.2663 69.5967 40.1477 68.1559 40.498 66.7947C41.4678 63.0324 42.7905 59.1648 44.4323 55.2744L43.5986 54.4441C41.6709 54.1915 35.7712 53.894 30.9875 58.6577C30.5316 59.1108 29.923 59.3525 29.3026 59.3525C28.9955 59.3525 28.6858 59.293 28.3916 59.1722C27.5018 58.8051 26.9208 57.94 26.9208 56.9807C26.9208 47.5924 32.5355 34.4675 41.6056 29.6333C45.5446 27.5343 51.7761 26.1044 59.5529 30.6631C61.1937 28.7298 62.909 26.8688 64.6712 25.114C72.5362 17.2818 82.7167 11.1331 94.9307 6.83901C110.172 1.47388 122.994 0.960339 123.533 0.941116C124.196 0.9164 124.834 1.16813 125.302 1.63407C125.77 2.10001 126.023 2.73804 125.999 3.39621ZM45.2679 49.9184C46.0639 50.0969 46.4932 50.6343 46.5282 50.6562C49.3236 44.9076 52.6779 39.4646 56.5359 34.4116C52.0078 31.9428 47.7489 31.7396 43.8523 33.8157C38.0215 36.9235 33.7241 44.7483 32.2441 51.8792C38.6383 48.495 44.9406 49.8452 45.2679 49.9184ZM51.8349 82.7766L43.8192 74.7943C41.6819 75.5742 39.5548 76.9592 37.7209 78.7854C34.4457 82.047 32.7184 89.6969 32.0134 94.533C36.8697 93.8309 44.5518 92.1108 47.827 88.8493C49.6609 87.0231 51.0517 84.9049 51.8349 82.7766ZM67.7819 78.5291L48.0854 58.9149C46.872 61.9797 45.8746 65.0151 45.1116 67.9737C44.936 68.6593 45.1944 69.4539 45.7891 70.0462C49.546 73.7874 51.2466 75.4818 51.9406 76.172C52.3184 76.5482 53.5245 77.7492 56.6058 80.8176C57.1996 81.408 57.9975 81.6662 58.6869 81.4904C61.657 80.7316 64.7043 79.7374 67.7819 78.5291ZM92.388 70.113C87.3139 73.9549 81.8471 77.2943 76.0752 80.0789C76.1037 80.1237 76.6056 80.51 76.7996 81.2771C77.6333 84.5799 77.1305 90.0256 74.8471 94.3041C82.0071 92.8313 89.8647 88.5509 92.9855 82.7445C95.0704 78.8651 94.8672 74.6231 92.388 70.113ZM115.071 31.6975L95.1127 11.8224C84.2004 15.8483 75.0944 21.4405 68.0374 28.468C65.8919 30.6045 63.819 32.9058 61.8739 35.3096C57.206 41.083 53.2515 47.4377 50.104 54.2181L72.4985 76.518C79.3073 73.3837 85.6886 69.4457 91.4863 64.7964C93.8984 62.8612 96.2093 60.797 98.3557 58.6595C105.413 51.6321 111.028 42.5632 115.071 31.6975ZM121.037 5.88242C117.098 6.25956 109.207 7.31044 100.137 10.1161L116.786 26.6949C119.603 17.6636 120.657 9.80581 121.037 5.88242ZM49.0193 105.825C48.09 104.899 46.5815 104.899 45.6512 105.825L29.5167 121.89C28.5865 122.817 28.5865 124.319 29.5167 125.244C30.4461 126.171 31.9546 126.171 32.8848 125.244L49.0193 109.179C49.9496 108.253 49.9496 106.751 49.0193 105.825ZM23.7384 103.454C22.8081 102.527 21.2997 102.527 20.3703 103.454L4.23585 119.519C3.30558 120.445 3.30558 121.947 4.23585 122.873C5.1652 123.799 6.67367 123.799 7.60394 122.873L23.7384 106.808C24.6687 105.881 24.6687 104.379 23.7384 103.454ZM20.1984 80.9531C19.2682 80.0267 17.7597 80.0267 16.8303 80.9531L0.697702 97.021C-0.232567 97.9474 -0.232567 99.4496 0.697702 100.376C1.62797 101.302 3.13644 101.302 4.06579 100.376L20.1984 84.3089C21.1287 83.3825 21.1287 81.8795 20.1984 80.9531ZM78.1444 48.5957C77.2142 47.6693 75.7066 47.6693 74.7754 48.5957L71.4073 51.9497C70.4771 52.8761 70.4771 54.3782 71.4073 55.3046C72.3376 56.231 73.8461 56.231 74.7764 55.3046L78.1444 51.9506C79.0747 51.0242 79.0747 49.5221 78.1444 48.5957Z" fill="#821EC8"></path><path d="M101 36.9629C101 42.9109 95.9798 47.9395 89.9782 47.9395C84.0206 47.9395 79 42.9179 79 36.9629C79 30.9545 84.0271 25.9395 89.9782 25.9395C95.9732 25.9395 101 30.9615 101 36.9629Z" fill="white" stroke="#A2E801" stroke-width="6"></path></svg> 