<?xml version="1.0" encoding="UTF-8"?> <svg xmlns="http://www.w3.org/2000/svg" width="176" height="128" viewBox="0 0 176 128" fill="none"><path d="M106.821 52.1818H101.022L95.178 45H100.799L103.921 48.747L107.088 45H112.664L106.821 52.1818ZM97.899 67.7052C97.899 72.0767 100.665 74.9762 104.813 74.9762C106.731 74.9762 108.516 74.2625 109.631 73.1473V78.7679C108.337 79.66 106.285 80.1953 104.501 80.1953C96.7838 80.1953 91.6094 75.1993 91.6094 67.7052C91.6094 60.2558 96.7838 55.2597 104.501 55.2597C106.241 55.2597 108.114 55.7504 109.497 56.5087V62.1293C108.382 61.1033 106.642 60.4342 104.813 60.4342C100.665 60.4342 97.899 63.3337 97.899 67.7052Z" fill="#A2E801"></path><path d="M84.2964 79.7498L73.323 65.4754H70.2897V79.7498H64V46.7402H70.2897V60.3009H73.1891L83.6719 46.7402H91.2106L78.5866 62.8435L91.8351 79.7498H84.2964Z" fill="#A2E801"></path><path fill-rule="evenodd" clip-rule="evenodd" d="M0.6875 104.895V74.9861V50.2032V20.2947C0.6875 18.9241 1.7952 17.8164 3.16575 17.8164H33.0738H143.15H173.057C174.428 17.8164 175.537 18.9241 175.537 20.2947V50.2032C175.537 50.226 175.536 50.2488 175.536 50.2716V74.9177C175.536 74.9405 175.537 74.9633 175.537 74.9861V104.895C175.537 104.94 175.535 104.984 175.533 105.028C175.473 106.345 174.389 107.392 173.057 107.392V107.373L143.15 107.373C143.144 107.373 143.138 107.373 143.132 107.373H33.092L33.0738 107.373H3.16575C1.7952 107.373 0.6875 106.265 0.6875 104.895ZM170.579 77.5772V102.435L145.723 102.435C146.905 89.2742 157.419 78.7604 170.579 77.5772ZM170.579 72.6018C154.69 73.8109 141.964 86.5426 140.765 102.435H35.4595C34.2594 86.536 21.524 73.8004 5.62523 72.6003V52.589C21.524 51.3889 34.2595 38.6532 35.4595 22.7542H140.765C141.964 38.6466 154.69 51.3784 170.579 52.5875V72.6018ZM170.579 47.6309V22.7542H145.723V22.773C146.905 35.9339 157.419 46.4477 170.579 47.6309ZM30.4829 102.435C29.3 89.2738 18.7862 78.7599 5.62523 77.5771V102.435H30.4829ZM30.4829 22.7542C29.3001 35.9154 18.7863 46.4294 5.62523 47.6122V22.7542H30.4829Z" fill="#821EC8"></path></svg> 