<?xml version="1.0" encoding="UTF-8"?> <svg xmlns="http://www.w3.org/2000/svg" width="185" height="134" viewBox="0 0 185 134" fill="none"><path d="M181.82 31.7366L92.5376 2.02524C92.1972 1.91086 91.8309 1.91086 91.4906 2.02524L2.20809 31.7366C1.48329 31.979 0.992298 32.6898 1.00009 33.4877C1.00788 34.2857 1.51187 34.9855 2.24186 35.2089L26.2017 42.6081C27.1188 42.8886 28.0826 42.3412 28.3527 41.3799C28.6229 40.4186 28.0982 39.4082 27.1811 39.125L8.65073 33.4033L92.0154 5.66087L175.38 33.4033L92.0154 59.1577L44.41 44.4518L89.4046 29.479C90.3164 29.1767 90.8204 28.1555 90.532 27.1996C90.2437 26.2437 89.2721 25.7154 88.3576 26.0177L37.9699 42.7851C37.2503 43.0248 36.7619 43.7247 36.7619 44.5144V90.6937C32.5275 91.5461 29.3191 95.4541 29.3191 100.135C29.3191 105.438 33.4341 109.754 38.4947 109.754C43.5553 109.754 47.6729 105.44 47.6729 100.135C47.6729 95.4514 44.4619 91.5434 40.2275 90.6937V46.9273C40.269 46.9436 40.3054 46.9654 40.347 46.979L91.527 62.7906C91.6881 62.8396 91.8517 62.8641 92.0154 62.8641C92.1791 62.8641 92.3453 62.8396 92.5038 62.7906L130.583 51.0259V87.0091C130.583 88.526 130.058 90.9252 129.302 91.9464C126.424 95.8353 117.069 104.855 92.2856 104.855C92.1972 104.855 92.1063 104.855 92.018 104.855C67.0476 104.79 57.6252 95.7945 54.7338 91.9274C53.9752 90.9143 53.4453 88.5232 53.4453 87.0091V56.5297C53.4453 55.5275 52.6711 54.7133 51.7125 54.7133C50.7539 54.7133 49.9798 55.5248 49.9798 56.5297V87.0091C49.9798 88.801 50.5201 92.1861 52.0061 94.1687C55.986 99.4873 66.4734 108.417 92.0076 108.485C92.1037 108.485 92.1946 108.485 92.2882 108.485C117.646 108.485 128.073 99.5254 132.038 94.1714C133.511 92.1807 134.043 88.7983 134.043 87.0091V49.9583L181.784 35.2116C182.514 34.9855 183.018 34.2884 183.025 33.4904C183.033 32.6925 182.542 31.9817 181.818 31.7421L181.82 31.7366ZM44.2048 100.135C44.2048 103.436 41.6433 106.124 38.4921 106.124C35.3409 106.124 32.7795 103.439 32.7795 100.135C32.7795 96.8321 35.3409 94.1469 38.4921 94.1469C41.6433 94.1469 44.2048 96.8321 44.2048 100.135Z" fill="#821EC8"></path><path fill-rule="evenodd" clip-rule="evenodd" d="M182.19 31.9186C182.174 31.9084 182.158 31.8985 182.141 31.8888C182.056 31.8386 181.966 31.7957 181.871 31.7609C181.854 31.7544 181.836 31.7483 181.818 31.7424C181.818 31.7423 181.818 31.7425 181.818 31.7424L181.82 31.7366L181.773 31.7209L92.5376 2.02524C92.1972 1.91086 91.8309 1.91086 91.4906 2.02524L2.20809 31.7366C1.48329 31.979 0.992297 32.6898 1.00009 33.4877C1.00788 34.2857 1.51186 34.9855 2.24186 35.2089L26.2017 42.6081C27.1188 42.8886 28.0826 42.3412 28.3527 41.3799C28.6229 40.4186 28.0982 39.4082 27.1811 39.125L8.65073 33.4033L92.0154 5.66087L175.38 33.4033L92.0154 59.1577L44.41 44.4518L89.4046 29.479C90.3164 29.1767 90.8204 28.1555 90.532 27.1996C90.2437 26.2437 89.2721 25.7154 88.3576 26.0177L37.9699 42.7851C37.2503 43.0248 36.7619 43.7247 36.7619 44.5144V90.6937C32.5275 91.5461 29.3191 95.4541 29.3191 100.135C29.3191 105.438 33.4341 109.754 38.4947 109.754C43.5553 109.754 47.6729 105.44 47.6729 100.135C47.6729 95.4514 44.4619 91.5434 40.2275 90.6937V46.9273C40.2452 46.9343 40.262 46.9422 40.2786 46.9501C40.301 46.9607 40.3231 46.9712 40.347 46.979L91.527 62.7906C91.6881 62.8396 91.8517 62.8641 92.0154 62.8641C92.1791 62.8641 92.3453 62.8396 92.5038 62.7906L130.583 51.0259V87.0091C130.583 88.526 130.058 90.9252 129.302 91.9464C126.424 95.8353 117.069 104.855 92.2856 104.855H92.018C67.0476 104.79 57.6252 95.7945 54.7338 91.9274C53.9752 90.9143 53.4453 88.5232 53.4453 87.0091V56.5297C53.4453 55.5275 52.6711 54.7133 51.7125 54.7133C50.7539 54.7133 49.9798 55.5248 49.9798 56.5297V87.0091C49.9798 88.801 50.5201 92.1861 52.0061 94.1687C55.986 99.4873 66.4734 108.417 92.0076 108.485H92.2882C117.646 108.485 128.073 99.5254 132.038 94.1714C133.511 92.1807 134.043 88.7983 134.043 87.0091V49.9583L181.784 35.2116C182.514 34.9855 183.018 34.2884 183.025 33.4904C183.032 32.8385 182.705 32.2447 182.19 31.9186ZM135.043 50.6961V87.0091C135.043 87.9864 134.9 89.3578 134.565 90.7487C134.233 92.1287 133.691 93.6181 132.842 94.7662C128.661 100.413 117.913 109.485 92.2882 109.485H92.0049C66.209 109.416 55.4029 100.377 51.2054 94.7678C50.3478 93.6232 49.8 92.1342 49.464 90.7539C49.1253 89.3624 48.9798 87.9888 48.9798 87.0091V56.5297C48.9798 55.0175 50.1577 53.7133 51.7125 53.7133C53.2683 53.7133 54.4453 55.0212 54.4453 56.5297V87.0091C54.4453 87.6681 54.5633 88.562 54.7755 89.4147C54.9942 90.2937 55.2778 90.9855 55.5343 91.328C58.2141 94.9122 67.3234 103.79 92.0206 103.855H92.2851C116.79 103.855 125.83 94.9563 128.498 91.3515C128.755 91.0044 129.038 90.3073 129.255 89.4247C129.466 88.5681 129.583 87.6706 129.583 87.0091V52.3815L92.7993 63.746C92.5434 63.8251 92.2774 63.8641 92.0154 63.8641C91.751 63.8641 91.4893 63.8244 91.2358 63.7473L91.2318 63.7461L41.2275 48.2977V89.9101C45.5414 91.1628 48.6729 95.2928 48.6729 100.135C48.6729 105.948 44.1511 110.754 38.4947 110.754C32.8377 110.754 28.3191 105.945 28.3191 100.135C28.3191 95.2953 31.4484 91.1655 35.7619 89.9106V44.5144C35.7619 43.3191 36.5027 42.2198 37.654 41.8364L88.0438 25.0682C89.5259 24.5782 91.049 25.4507 91.4894 26.9108C91.9234 28.3493 91.1802 29.9432 89.7203 30.4278M89.7192 30.4282L47.6835 44.4164L92.0154 58.1111L172.107 33.3679L92.0154 6.71479L11.9248 33.3677L27.4761 38.1695C28.9457 38.6234 29.7224 40.2023 29.3154 41.6505C28.9029 43.1185 27.3957 44.0191 25.9092 43.5644L25.9067 43.5636L1.94933 36.1651C1.94902 36.165 1.94964 36.1652 1.94933 36.1651C0.776196 35.8058 0.0119073 34.7025 0.000138106 33.4975C-0.0116454 32.291 0.731504 31.176 1.89094 30.7882L1.89233 30.7878L91.172 1.07734C91.1725 1.07718 91.173 1.07702 91.1735 1.07686C91.7196 0.89365 92.3086 0.89365 92.8547 1.07686C92.8552 1.07702 92.8557 1.07718 92.8561 1.07734L183.207 31.1443L183.104 31.3622C183.691 31.8978 184.033 32.6785 184.025 33.5002C184.014 34.7081 183.248 35.805 182.08 36.1668L135.043 50.6961M38.4921 105.124C41.0468 105.124 43.2048 102.929 43.2048 100.135C43.2048 97.3394 41.0471 95.1469 38.4921 95.1469C35.9371 95.1469 33.7795 97.3394 33.7795 100.135C33.7795 102.932 35.9371 105.124 38.4921 105.124ZM38.4921 106.124C41.6433 106.124 44.2048 103.436 44.2048 100.135C44.2048 96.8321 41.6433 94.1469 38.4921 94.1469C35.3409 94.1469 32.7795 96.8321 32.7795 100.135C32.7795 103.439 35.3409 106.124 38.4921 106.124Z" fill="#821EC8"></path><path d="M32.7055 109.984C31.8066 109.641 30.8116 110.125 30.4843 111.068L23.6624 130.708C23.4701 131.264 23.5481 131.885 23.8702 132.369C24.1949 132.854 24.7249 133.143 25.2886 133.143H51.6983C52.262 133.143 52.7894 132.857 53.1141 132.375C53.4388 131.893 53.5194 131.275 53.3297 130.719L46.5649 110.806C46.2428 109.861 45.2504 109.368 44.3516 109.706C43.4501 110.044 42.9799 111.081 43.302 112.026L49.2433 129.515H27.7644L33.7394 112.312C34.0667 111.37 33.6043 110.327 32.7055 109.984Z" fill="#A2E801"></path><path d="M37.9813 112.939C44.5396 112.939 50 107.484 50 100.96C50 94.3949 44.5396 88.9395 37.9813 88.9395C31.4547 88.9395 26 94.3949 26 100.96C26 107.484 31.4547 112.939 37.9813 112.939Z" fill="white"></path><path fill-rule="evenodd" clip-rule="evenodd" d="M37.9813 108.939C42.3399 108.939 46 105.265 46 100.96C46 96.6048 42.3312 92.9395 37.9813 92.9395C33.6724 92.9395 30 96.5955 30 100.96C30 105.275 33.6637 108.939 37.9813 108.939ZM50 100.96C50 107.484 44.5396 112.939 37.9813 112.939C31.4547 112.939 26 107.484 26 100.96C26 94.3949 31.4547 88.9395 37.9813 88.9395C44.5396 88.9395 50 94.3949 50 100.96Z" fill="#A2E801"></path></svg> 