<?xml version="1.0" encoding="UTF-8"?> <svg xmlns="http://www.w3.org/2000/svg" width="128" height="169" viewBox="0 0 128 169" fill="none"><path d="M104.52 48.6291C110.007 48.6291 114.455 44.1309 114.455 38.5821C114.455 33.0333 110.007 28.5352 104.52 28.5352C99.0337 28.5352 94.5859 33.0333 94.5859 38.5821C94.5859 44.1309 99.0337 48.6291 104.52 48.6291Z" fill="#A2E801"></path><path d="M115.716 0H52.5453C46.2092 0 41.0598 5.27094 41.0598 11.7565V60.2522C41.0598 61.8792 42.349 63.1913 43.9312 63.1913C45.5134 63.1913 46.8026 61.8792 46.8026 60.2522V20.5739H121.458V145.487C121.458 148.726 118.88 151.365 115.716 151.365H95.6159C94.0337 151.365 92.7445 152.677 92.7445 154.304C92.7445 155.931 94.0337 157.243 95.6159 157.243H115.716C122.052 157.243 127.201 151.973 127.201 145.487V11.7565C127.201 5.27094 122.052 0 115.716 0ZM46.8026 14.6957V11.7565C46.8026 8.51748 49.3809 5.87826 52.5453 5.87826H115.716C118.88 5.87826 121.458 8.51748 121.458 11.7565V14.6957H46.8026ZM112.002 119.642L74.0806 158.458V166.061C74.0806 167.688 72.7914 169 71.2092 169C69.627 169 68.3379 167.688 68.3379 166.061V157.243C68.3379 156.464 68.6382 155.714 69.1802 155.167L107.944 115.488C109.958 113.426 109.965 109.955 107.944 107.886C105.893 105.794 102.567 105.794 100.516 107.886L80.4167 128.46C78.6587 130.259 75.5163 128.932 75.5163 126.383V47.7609C75.5163 44.117 72.6156 41.1478 69.0557 41.1478C65.4958 41.1478 62.5951 44.117 62.5951 47.7609V94.0522C62.5951 95.6792 61.3059 96.9913 59.7237 96.9913C58.1415 96.9913 56.8524 95.6792 56.8524 94.0522V74.9478H49.6739C46.5096 74.9478 43.9312 77.5871 43.9312 80.8261V100.298C43.9312 101.925 42.642 103.237 41.0598 103.237C39.4776 103.237 38.1884 101.925 38.1884 100.298V80.8261H29.5743C26.4099 80.8261 23.8316 83.4653 23.8316 86.7044V105.809C23.8316 107.436 22.5424 108.748 20.9602 108.748C19.378 108.748 18.0888 107.436 18.0888 105.809V89.6435H12.3461C10.7785 89.6435 9.30623 90.2733 8.20749 91.413C7.1527 92.5151 6.58136 93.9547 6.60333 95.4693C6.77913 106.806 15.071 145.929 15.1515 146.327C15.1955 146.529 15.2175 166.053 15.2175 166.053C15.2175 167.68 13.9283 168.993 12.3461 168.993C10.7639 168.993 9.47471 167.68 9.47471 166.053V147.264C8.62502 143.253 1.03639 107.061 0.86059 95.5667C0.81664 92.4626 1.96665 89.5235 4.11286 87.2892C6.30301 85.0173 9.22566 83.7652 12.3461 83.7652H18.4551C19.7369 78.6967 24.2344 74.9478 29.5743 74.9478H39.734C41.7264 71.4389 45.4328 69.0696 49.6739 69.0696H56.8524V47.7609C56.8524 40.8704 62.3241 35.2696 69.0557 35.2696C75.7873 35.2696 81.259 40.8704 81.259 47.7609V119.29L96.4583 103.732C103.3 96.7289 115.115 101.917 115.108 111.687C115.108 114.611 114.067 117.535 112.002 119.642Z" fill="#821EC8"></path></svg> 