<?xml version="1.0" encoding="UTF-8"?> <svg xmlns="http://www.w3.org/2000/svg" width="52" height="52" fill="none"><path d="M52 26a26 26 0 11-52 0 26 26 0 0152 0z" fill="url(#paint0_linear)"></path><path d="M31.85 24.83c-.3.7-.64 1.37-1.05 1.98H8.88c-.4-.61-.75-1.28-1.05-1.98h24.02z" fill="#fff"></path><path d="M32.5 22.84c-.15.67-.39 1.34-.65 1.99H7.83a15.7 15.7 0 01-.64-1.99h25.3z" fill="#B12233"></path><path d="M32.81 20.83a12 12 0 01-.32 2.01H7.2c-.14-.67-.26-1.34-.32-2h25.94z" fill="#fff"></path><path d="M30.8 26.84c-.47.7-1 1.37-1.58 1.98H10.46c-.58-.61-1.1-1.28-1.58-1.98H30.8zM26.77 30.83a13.06 13.06 0 01-6.91 2.01c-2.54 0-4.93-.76-6.95-2.01h13.86z" fill="#B12233"></path><path d="M29.22 28.82c-.73.76-1.54 1.43-2.45 2.01H12.91a14.77 14.77 0 01-2.45-2.01h18.76zM29.22 10.84H10.46c.73-.76 1.55-1.43 2.45-2.02h13.83a12.9 12.9 0 012.48 2.02z" fill="#fff"></path><path d="M26.77 8.85H12.91c.44-.26.85-.5 1.29-.73.03-.02.08-.02.11-.05.15-.06.3-.15.47-.2l.2-.1c1.52-.58 3.16-.93 4.88-.93 2.54 0 4.9.73 6.91 2.01zM30.8 12.85H8.88c.12-.18.24-.38.38-.53 0-.03.03-.03.03-.03.35-.52.76-.99 1.17-1.45h18.76c.59.6 1.11 1.28 1.58 2zM32.5 16.84H7.2c.17-.7.37-1.34.63-2.01h24.02c.26.64.5 1.31.64 2z" fill="#B12233"></path><path d="M31.85 14.83H7.83l.18-.38c.14-.3.3-.61.47-.9.11-.24.26-.47.4-.7H30.8c.4.6.76 1.28 1.05 1.98zM32.81 18.85H6.87c0-.09 0-.17.03-.26l.09-.73c.06-.35.11-.7.2-1.02h25.3c.18.64.26 1.31.32 2.01z" fill="#fff"></path><path d="M32.84 19.84c0 .35 0 .67-.03 1H6.87c-.03-.33-.03-.68-.03-1 0-.35 0-.67.03-.99h25.94c.03.32.03.64.03 1z" fill="#B12233"></path><path d="M19.86 6.84v14H6.87c-.03-.33-.03-.68-.03-1 0-.35 0-.67.03-.99 0-.09 0-.17.03-.26l.09-.73c.06-.35.11-.7.2-1.02.18-.7.38-1.34.64-2.01l.18-.38c.14-.3.3-.61.47-.9.11-.24.26-.47.4-.7.12-.18.24-.38.38-.53 0-.03.03-.03.03-.03.35-.52.76-.99 1.17-1.45.73-.76 1.55-1.43 2.45-2.02l1.29-.7c.02-.02.08-.02.11-.05.15-.06.3-.15.47-.2l.2-.1c1.52-.58 3.15-.93 4.88-.93z" fill="#3C3B6D"></path><path d="M18.2 7.51l.2.56h.58l-.5.35.2.55-.49-.35-.46.35.17-.55-.47-.35h.59l.17-.56zM15.33 8.86l.06.11-.2-.11-.3-.24-.29.24-.17.11.06-.11.11-.44-.4-.3.14-.05h.38l.06-.2.2-.1.12.3h.58l-.46.35.11.44zM18.2 10.31l.2.56h.58l-.5.34.21.56-.5-.35-.46.35.17-.56-.46-.34h.58l.17-.56zM14.9 10.31l.2.56h.58l-.46.34.17.56-.5-.35-.46.35.17-.56-.46-.34h.58l.18-.56zM11.63 10.31l.17.56h.59l-.47.34.17.56-.46-.35-.5.35.18-.56-.47-.34h.58l.2-.56zM18.2 13.1l.2.56h.58l-.5.35.21.56-.5-.35-.46.35.17-.56-.46-.35h.58l.17-.55zM14.9 13.1l.2.56h.59l-.47.35.17.56-.5-.35-.46.35.18-.56-.47-.35h.58l.18-.55zM11.63 13.1l.17.56h.59l-.47.35.17.56-.46-.35-.5.35.18-.56-.47-.35h.58l.2-.55zM8.62 14.01l.18.56-.47-.35-.32.23c.15-.3.3-.61.47-.9l.03.11h.58l-.47.35zM18.2 15.9l.2.56h.58l-.5.35.21.55-.5-.34-.46.34.17-.55-.46-.35h.58l.17-.55zM14.9 15.9l.2.56h.59l-.47.35.17.55-.5-.34-.46.34.18-.55-.47-.35h.58l.18-.55zM11.63 15.9l.17.56h.59l-.47.35.17.55-.46-.34-.5.34.18-.55-.47-.35h.58l.2-.55zM8.33 15.9l.18.56h.58l-.47.35.18.55-.47-.34-.5.34.2-.55-.49-.35h.59l.2-.55zM18.2 18.7l.2.56h.58l-.5.35.21.55-.5-.35-.46.35.17-.55-.46-.35h.58l.17-.55zM14.9 18.7l.2.56h.59l-.47.35.17.55-.5-.35-.46.35.18-.55-.47-.35h.58l.18-.55zM11.63 18.7l.17.56h.59l-.47.35.17.55-.46-.35-.5.35.18-.55-.47-.35h.58l.2-.55zM8.33 18.7l.18.56h.58l-.47.35.18.55-.47-.35-.5.35.2-.55-.49-.35h.59l.2-.55zM16.56 17.3l.17.56h.59l-.47.35.18.55-.47-.35-.5.35.2-.55-.49-.35h.61l.18-.55zM13.26 17.3l.18.56h.61l-.5.35.18.55-.47-.35-.46.35.17-.55-.5-.35h.62l.17-.55zM9.96 17.3l.18.56h.61l-.5.35.18.55-.47-.35-.46.35.17-.55-.46-.35h.58l.17-.55zM6.96 18.21l.17.56-.23-.18.09-.73h.46l-.5.35zM16.56 14.5l.17.56h.59l-.47.35.18.56-.47-.35-.5.35.2-.56-.49-.35h.61l.18-.55zM13.26 14.5l.18.56h.6l-.49.35.18.56-.47-.35-.47.35.18-.56-.5-.35h.62l.17-.55zM9.96 14.5l.18.56h.61l-.5.35.18.56-.47-.35-.46.35.17-.56-.46-.35h.58l.17-.55zM16.56 11.71l.17.55h.59l-.47.35.18.56-.47-.35-.5.35.2-.56-.49-.35h.61l.18-.55zM13.26 11.71l.18.55h.6l-.49.35.18.56-.47-.35-.47.35.18-.56-.5-.35h.62l.17-.55zM10.34 12.85l.12.32-.47-.32-.03-.03v.03l-.46.32.08-.32.1-.24-.42-.29.03-.06h.5l.17-.55.18.55h.61l-.5.35.1.24zM16.56 8.91l.17.56h.59l-.47.35.18.55-.47-.35-.5.35.2-.55-.49-.35h.61l.18-.56zM13.26 8.91l.18.56h.61l-.5.35.18.55-.47-.35-.46.35.17-.55-.5-.35h.62l.17-.56z" fill="#fff"></path><mask id="a" style="mask-type:alpha" maskUnits="userSpaceOnUse" x="19" y="19" width="27" height="27"><path d="M45.16 32.29a12.87 12.87 0 10-25.75 0 12.87 12.87 0 0025.75 0z" fill="#fff"></path></mask><g mask="url(#a)"><path d="M45.16 32.29a12.87 12.87 0 10-25.75 0 12.87 12.87 0 0025.75 0z" fill="#D11242"></path><path fill-rule="evenodd" clip-rule="evenodd" d="M15.02 19.41h34.53v25.75H15.02V19.4z" fill="#D52B1E"></path><path fill-rule="evenodd" clip-rule="evenodd" d="M25.4 30.2h13.77v4.18H25.4V30.2z" fill="#fff"></path><path fill-rule="evenodd" clip-rule="evenodd" d="M34.38 25.4v13.77H30.2V25.4h4.2z" fill="#fff"></path></g><defs><linearGradient id="paint0_linear" x1="12.24" y1="4.59" x2="42.06" y2="45.88" gradientUnits="userSpaceOnUse"><stop stop-color="#fff"></stop><stop offset="1" stop-color="#DDD"></stop></linearGradient></defs></svg> 