<?xml version="1.0" encoding="UTF-8"?> <svg xmlns="http://www.w3.org/2000/svg" width="52" height="52" fill="none"><path d="M52 26a26 26 0 11-52 0 26 26 0 0152 0z" fill="url(#paint0_linear)"></path><path d="M31.85 26.2c-.3.7-.64 1.36-1.05 1.98H8.88c-.4-.62-.75-1.29-1.05-1.99h24.02z" fill="#fff"></path><path d="M32.5 24.21c-.15.67-.39 1.34-.65 1.98H7.83a15.7 15.7 0 01-.64-1.98h25.3z" fill="#B12233"></path><path d="M32.81 22.2a12 12 0 01-.32 2.01H7.2c-.14-.67-.26-1.34-.32-2h25.94z" fill="#fff"></path><path d="M30.8 28.2c-.47.7-1 1.38-1.58 1.99H10.46c-.58-.61-1.1-1.28-1.58-1.98H30.8zm-4.03 4a13.06 13.06 0 01-6.91 2.01c-2.54 0-4.93-.76-6.95-2.01h13.86z" fill="#B12233"></path><path d="M29.22 30.19c-.73.76-1.54 1.43-2.45 2H12.91a14.77 14.77 0 01-2.45-2h18.76zm0-17.99H10.46c.73-.75 1.55-1.42 2.45-2h13.83a12.9 12.9 0 012.48 2z" fill="#fff"></path><path d="M26.77 10.22H12.91c.44-.26.85-.5 1.29-.73.03-.03.08-.03.11-.06.15-.05.3-.14.47-.2l.2-.09c1.52-.58 3.16-.93 4.88-.93 2.54 0 4.9.73 6.91 2.01zm4.03 3.99H8.88c.12-.17.24-.37.38-.52 0-.03.03-.03.03-.03.35-.52.76-.99 1.17-1.46h18.76c.59.62 1.11 1.29 1.58 2.01zm1.7 3.99H7.2c.17-.7.37-1.33.63-2h24.02c.26.64.5 1.3.64 2z" fill="#B12233"></path><path d="M31.85 16.2H7.83l.18-.38c.14-.3.3-.61.47-.9.11-.24.26-.47.4-.7H30.8c.4.6.76 1.28 1.05 1.98zm.96 4.02H6.87c0-.09 0-.18.03-.26l.09-.73c.06-.35.11-.7.2-1.02h25.3c.18.64.26 1.31.32 2z" fill="#fff"></path><path d="M32.84 21.21c0 .35 0 .67-.03 1H6.87c-.03-.33-.03-.68-.03-1 0-.35 0-.67.03-1h25.94c.03.33.03.65.03 1z" fill="#B12233"></path><path d="M19.86 8.21v14H6.87c-.03-.33-.03-.68-.03-1a10.91 10.91 0 01.06-1.25l.09-.73c.06-.35.11-.7.2-1.02a16.12 16.12 0 01.82-2.4c.14-.28.3-.6.47-.9.11-.23.26-.46.4-.7.12-.17.24-.37.38-.52 0-.03.03-.03.03-.03.35-.52.76-.99 1.17-1.46.73-.75 1.55-1.42 2.45-2l1.29-.7c.02-.04.08-.04.11-.07.15-.05.3-.14.47-.2l.2-.09c1.52-.58 3.15-.93 4.88-.93z" fill="#3C3B6D"></path><path d="M18.2 8.88l.2.56h.58l-.5.35.2.55-.49-.35-.46.35.17-.55-.47-.35h.59l.17-.56zm-2.87 1.34l.06.12-.2-.12-.3-.23-.29.23-.17.12.06-.12.11-.43-.4-.3.14-.05h.38l.06-.2.2-.1.12.3h.58l-.46.35.11.43zm2.87 1.46l.2.55h.58l-.5.35.21.56-.5-.35-.46.35.17-.56-.46-.35h.58l.17-.55zm-3.3 0l.2.55h.58l-.46.35.17.56-.5-.35-.46.35.17-.56-.46-.35h.58l.18-.55zm-3.27 0l.17.55h.59l-.47.35.17.56-.46-.35-.5.35.18-.56-.47-.35h.58l.2-.55zm6.57 2.8l.2.55h.58l-.5.35.21.55-.5-.35-.46.35.17-.55-.46-.35h.58l.17-.55zm-3.3 0l.2.55h.59l-.47.35.17.55-.5-.35-.46.35.18-.55-.47-.35h.58l.18-.55zm-3.27 0l.17.55h.59l-.47.35.17.55-.46-.35-.5.35.18-.55-.47-.35h.58l.2-.55zm-3.01.9l.18.56-.47-.35-.32.23c.15-.3.3-.61.47-.9l.03.11h.58l-.47.35zm9.58 1.9l.2.55h.58l-.5.35.21.55-.5-.35-.46.35.17-.55-.46-.35h.58l.17-.55zm-3.3 0l.2.55h.59l-.47.35.17.55-.5-.35-.46.35.18-.55-.47-.35h.58l.18-.55zm-3.27 0l.17.55h.59l-.47.35.17.55-.46-.35-.5.35.18-.55-.47-.35h.58l.2-.55zm-3.3 0l.18.55h.58l-.47.35.18.55-.47-.35-.5.35.2-.55-.49-.35h.59l.2-.55zm9.87 2.79l.2.56h.58l-.5.35.21.55-.5-.35-.46.35.17-.55-.46-.35h.58l.17-.56zm-3.3 0l.2.56h.59l-.47.35.17.55-.5-.35-.46.35.18-.55-.47-.35h.58l.18-.56zm-3.27 0l.17.56h.59l-.47.35.17.55-.46-.35-.5.35.18-.55-.47-.35h.58l.2-.56zm-3.3 0l.18.56h.58l-.47.35.18.55-.47-.35-.5.35.2-.55-.49-.35h.59l.2-.56zm8.23-1.4l.17.56h.59l-.47.35.18.55-.47-.35-.5.35.2-.55-.49-.35h.61l.18-.56zm-3.3 0l.18.56h.61l-.5.35.18.55-.47-.35-.46.35.17-.55-.5-.35h.62l.17-.56zm-3.3 0l.18.56h.61l-.5.35.18.55-.47-.35-.46.35.17-.55-.46-.35h.58l.17-.56zm-3 .91l.17.55-.23-.17.09-.73h.46l-.5.35zm9.6-3.7l.17.55h.59l-.47.35.18.55-.47-.35-.5.35.2-.55-.49-.35h.61l.18-.55zm-3.3 0l.18.55h.6l-.49.35.18.55-.47-.35-.47.35.18-.55-.5-.35h.62l.17-.55zm-3.3 0l.18.55h.61l-.5.35.18.55-.47-.35-.46.35.17-.55-.46-.35h.58l.17-.55zm6.6-2.8l.17.55h.59l-.47.35.18.56-.47-.35-.5.35.2-.56-.49-.35h.61l.18-.55zm-3.3 0l.18.55h.6l-.49.35.18.56-.47-.35-.47.35.18-.56-.5-.35h.62l.17-.55zm-2.92 1.14l.12.32-.47-.32-.03-.03v.03l-.46.32.08-.32.1-.24-.42-.29.03-.06h.5l.17-.55.18.55h.61l-.5.35.1.24zm6.22-3.94l.17.55h.59l-.47.35.18.56-.47-.35-.5.35.2-.56-.49-.35h.61l.18-.55zm-3.3 0l.18.55h.61l-.5.35.18.56-.47-.35-.46.35.17-.56-.5-.35h.62l.17-.55z" fill="#fff"></path><mask id="a" style="mask-type:alpha" maskUnits="userSpaceOnUse" x="19" y="19" width="26" height="26"><path d="M44.9 32.03a12.87 12.87 0 10-25.74 0 12.87 12.87 0 0025.74 0z" fill="#fff"></path></mask><g mask="url(#a)"><path d="M44.9 32.03a12.87 12.87 0 10-25.74 0 12.87 12.87 0 0025.74 0z" fill="#D11242"></path><path fill-rule="evenodd" clip-rule="evenodd" d="M14.76 19.16H49.3V44.9H14.76V19.16z" fill="#D52B1E"></path><path fill-rule="evenodd" clip-rule="evenodd" d="M25.14 19.16h13.77V44.9H25.14V19.16z" fill="#fff"></path><path fill-rule="evenodd" clip-rule="evenodd" d="M32.03 25.74l-1 1.9c-.1.2-.3.18-.51.07l-.72-.38.54 2.9c.1.54-.25.54-.43.31l-1.26-1.44-.2.73a.24.24 0 01-.28.18l-1.59-.35.42 1.55c.09.35.16.5-.1.58l-.56.28 2.73 2.26c.11.09.17.25.13.39l-.24.8c.94-.11 1.78-.28 2.72-.38.09-.01.23.13.23.23l-.13 2.94h.46l-.07-2.94c0-.1.12-.24.2-.23.95.1 1.79.27 2.73.38l-.24-.8a.37.37 0 01.13-.39l2.73-2.26-.57-.28c-.25-.09-.18-.23-.09-.58l.42-1.55-1.59.35a.24.24 0 01-.28-.18l-.2-.73-1.26 1.44c-.18.23-.54.23-.43-.3l.54-2.91-.72.38c-.2.11-.4.13-.52-.07" fill="#D52B1E"></path></g><defs><linearGradient id="paint0_linear" x1="12.24" y1="4.59" x2="42.06" y2="45.88" gradientUnits="userSpaceOnUse"><stop stop-color="#fff"></stop><stop offset="1" stop-color="#DDD"></stop></linearGradient></defs></svg> 