<?xml version="1.0" encoding="UTF-8"?> <svg xmlns="http://www.w3.org/2000/svg" width="52" height="52" fill="none"><path d="M52 26a26 26 0 1 1-52 0 26 26 0 0 1 52 0Z" fill="url(#a)"></path><path d="M31.85 26.2c-.3.7-.64 1.37-1.05 1.98H8.88c-.4-.61-.75-1.29-1.05-1.98h24.02Z" fill="#fff"></path><path d="M32.5 24.21c-.15.67-.39 1.34-.65 1.98H7.83a15.7 15.7 0 0 1-.64-1.98h25.3Z" fill="#B12233"></path><path d="M32.81 22.2c-.06.67-.14 1.34-.32 2.01H7.2a16 16 0 0 1-.32-2h25.94Z" fill="#fff"></path><path d="M30.8 28.2c-.47.7-1 1.38-1.58 1.99H10.46c-.58-.61-1.1-1.28-1.58-1.98H30.8ZM26.77 32.2a13.06 13.06 0 0 1-6.91 2.01c-2.54 0-4.93-.76-6.95-2.01h13.86Z" fill="#B12233"></path><path d="M29.22 30.19c-.73.76-1.54 1.43-2.45 2H12.91a14.75 14.75 0 0 1-2.45-2h18.76ZM29.22 12.2H10.46c.73-.75 1.55-1.42 2.45-2h13.83a12.9 12.9 0 0 1 2.48 2Z" fill="#fff"></path><path d="M26.77 10.22H12.91c.44-.26.85-.5 1.29-.73.02-.03.08-.03.11-.06.15-.05.3-.14.47-.2l.2-.09c1.52-.58 3.16-.93 4.88-.93 2.54 0 4.9.73 6.91 2.01ZM30.8 14.22H8.88c.12-.18.24-.38.38-.53 0-.03.03-.03.03-.03.35-.52.76-.99 1.17-1.46h18.76c.59.62 1.11 1.29 1.58 2.02ZM32.5 18.2H7.2c.17-.7.37-1.33.63-2h24.02c.26.64.5 1.3.64 2Z" fill="#B12233"></path><path d="M31.85 16.2H7.83l.18-.38c.15-.3.3-.61.47-.9.11-.24.26-.47.4-.7H30.8c.4.6.76 1.28 1.05 1.98ZM32.81 20.22H6.87c0-.09 0-.18.03-.26l.09-.73c.06-.35.11-.7.2-1.02h25.3c.18.64.26 1.31.32 2.01Z" fill="#fff"></path><path d="M32.84 21.21c0 .35 0 .67-.03 1H6.87c-.03-.33-.03-.68-.03-1 0-.35 0-.67.03-1h25.94c.03.33.03.65.03 1Z" fill="#B12233"></path><path d="M19.86 8.21v14H6.87c-.03-.33-.03-.68-.03-1 0-.35 0-.67.03-.99 0-.09 0-.18.03-.26l.09-.73c.06-.35.11-.7.2-1.02.18-.7.38-1.34.64-2.01l.18-.38c.15-.3.3-.61.47-.9.11-.24.26-.47.4-.7.12-.18.24-.38.38-.53 0-.03.03-.03.03-.03.35-.52.76-.99 1.17-1.46.73-.75 1.55-1.42 2.45-2l1.29-.7c.02-.04.08-.04.11-.07.15-.05.3-.14.47-.2l.2-.09c1.52-.58 3.16-.93 4.88-.93Z" fill="#3C3B6D"></path><path d="m18.2 8.88.2.56h.58l-.5.35.21.55-.5-.35-.46.35.17-.55-.47-.35h.59l.17-.56ZM15.33 10.22l.06.12-.2-.12-.3-.23-.29.23-.17.12.06-.12.11-.43-.4-.3.14-.05h.38l.06-.2.2-.1.12.3h.58l-.46.35.11.43ZM18.2 11.68l.2.55h.58l-.5.35.21.56-.5-.35-.46.35.17-.56-.47-.35h.59l.17-.55ZM14.9 11.68l.2.55h.58l-.46.35.17.56-.5-.35-.46.35.17-.56-.46-.35h.58l.18-.55ZM11.63 11.68l.17.55h.59l-.47.35.17.56-.46-.35-.5.35.18-.56-.47-.35h.58l.2-.55ZM18.2 14.48l.2.55h.58l-.5.35.21.55-.5-.35-.46.35.17-.55-.47-.35h.59l.17-.55ZM14.9 14.48l.2.55h.58l-.46.35.17.55-.5-.35-.46.35.17-.55-.46-.35h.58l.18-.55ZM11.63 14.48l.17.55h.59l-.47.35.17.55-.46-.35-.5.35.18-.55-.47-.35h.58l.2-.55ZM8.62 15.38l.18.56-.47-.35-.32.23c.15-.3.3-.61.47-.9l.03.11h.58l-.47.35ZM18.2 17.28l.2.55h.58l-.5.35.2.55-.49-.35-.46.35.17-.55-.47-.35h.59l.17-.55ZM14.9 17.28l.2.55h.58l-.46.35.17.55-.5-.35-.46.35.17-.55-.46-.35h.58l.18-.55ZM11.63 17.28l.17.55h.59l-.47.35.17.55-.46-.35-.5.35.18-.55-.47-.35h.58l.2-.55ZM8.33 17.28l.18.55h.58l-.47.35.18.55-.47-.35-.5.35.2-.55-.49-.35h.59l.2-.55ZM18.2 20.07l.2.56h.58l-.5.35.2.55-.49-.35-.46.35.17-.55-.47-.35h.59l.17-.56ZM14.9 20.07l.2.56h.58l-.46.35.17.55-.5-.35-.46.35.17-.55-.46-.35h.58l.18-.56ZM11.63 20.07l.17.56h.59l-.47.35.17.55-.46-.35-.5.35.18-.55-.47-.35h.58l.2-.56ZM8.33 20.07l.18.56h.58l-.47.35.18.55-.47-.35-.5.35.2-.55-.49-.35h.59l.2-.56ZM16.56 18.68l.17.55h.59l-.47.35.18.55-.47-.35-.5.35.2-.55-.49-.35h.61l.18-.55ZM13.26 18.68l.18.55h.61l-.5.35.18.55-.47-.35-.46.35.17-.55-.5-.35h.62l.17-.55ZM9.96 18.68l.18.55h.61l-.5.35.18.55-.47-.35-.46.35.17-.55-.46-.35h.58l.17-.55ZM6.96 19.58l.17.55-.23-.17.09-.73h.47l-.5.35ZM16.56 15.88l.17.55h.59l-.47.35.18.55-.47-.35-.5.35.2-.55-.49-.35h.61l.18-.55ZM13.26 15.88l.18.55h.61l-.5.35.18.55-.47-.35-.46.35.17-.55-.5-.35h.62l.17-.55ZM9.96 15.88l.18.55h.61l-.5.35.18.55-.47-.35-.46.35.17-.55-.46-.35h.58l.17-.55ZM16.56 13.08l.17.55h.59l-.47.35.18.56-.47-.35-.5.35.2-.56-.49-.35h.61l.18-.55ZM13.26 13.08l.18.55h.61l-.5.35.18.56-.47-.35-.46.35.17-.56-.5-.35h.62l.17-.55ZM10.34 14.22l.12.32-.47-.32-.03-.03v.03l-.46.32.09-.32.08-.24-.4-.29.02-.06h.5l.17-.55.18.55h.61l-.5.35.1.24ZM16.56 10.28l.17.55h.59l-.47.35.18.56-.47-.35-.5.35.2-.56-.49-.35h.61l.18-.55ZM13.26 10.28l.18.55h.61l-.5.35.18.56-.47-.35-.46.35.17-.56-.5-.35h.62l.17-.55Z" fill="#fff"></path><path d="M43.79 32.14H32.9l-12.23 8.17a12.92 12.92 0 0 0 10.1 4.85h.02c7.15 0 12.99-5.84 12.99-13.02Z" fill="#D7141A"></path><path d="m20.68 24 12.23 8.14h10.88A13.01 13.01 0 0 0 20.68 24Z" fill="#fff"></path><path d="M32.9 32.14 20.69 24a12.94 12.94 0 0 0 0 16.28l12.23-8.14Z" fill="#11457E"></path><defs><linearGradient id="a" x1="12.24" y1="4.59" x2="42.06" y2="45.88" gradientUnits="userSpaceOnUse"><stop stop-color="#fff"></stop><stop offset="1" stop-color="#DDD"></stop></linearGradient></defs></svg> 