<?xml version="1.0" encoding="UTF-8"?> <svg xmlns="http://www.w3.org/2000/svg" width="52" height="52" fill="none"><path d="M52 26a26 26 0 11-52 0 26 26 0 0152 0z" fill="url(#paint0_linear)"></path><path d="M31.8 25.4c-.2.7-.6 1.4-1 2h-22l-1-2h24z" fill="#fff"></path><path d="M32.5 23.5a12 12 0 01-.7 2h-24l-.6-2h25.3z" fill="#B12233"></path><path d="M32.8 21.5l-.3 2H7.2a16 16 0 01-.3-2h26z" fill="#fff"></path><path d="M30.8 27.5l-1.6 2H10.5l-1.6-2h21.9zM26.8 31.5a13 13 0 01-13.9 0h13.9z" fill="#B12233"></path><path d="M29.2 29.4c-.7.8-1.5 1.5-2.4 2H12.9c-.9-.5-1.7-1.2-2.4-2h18.7zM29.2 11.5H10.5c.7-.8 1.5-1.5 2.4-2h13.8c1 .5 1.8 1.2 2.5 2z" fill="#fff"></path><path d="M26.8 9.5H12.9l1.3-.8h.1l.5-.2.2-.1a12.8 12.8 0 0111.8 1zM30.8 13.5h-22l.5-.6 1.2-1.4h18.7c.6.6 1.1 1.2 1.6 2zM32.5 17.5H7.2l.6-2h24l.7 2z" fill="#B12233"></path><path d="M31.8 15.4h-24l.2-.3.5-1c0-.2.2-.4.4-.6h21.9c.4.6.8 1.2 1 2zM32.8 19.5h-26l.1-.3v-.7l.3-1h25.3c.2.6.3 1.3.3 2z" fill="#fff"></path><path d="M32.8 20.5v1h-26v-1-1h26v1z" fill="#B12233"></path><path d="M19.9 7.5v14h-13v-1-1-.3-.7l.3-1 .6-2L8 15l.5-1c0-.2.2-.4.4-.6l.4-.6 1.2-1.4c.7-.8 1.5-1.5 2.4-2l1.3-.8h.1l.5-.2.2-.1c1.5-.6 3.1-1 4.9-1z" fill="#3C3B6D"></path><path d="M18.2 8.1l.2.6h.6l-.5.3.2.6-.5-.4-.5.4.2-.6-.5-.3h.6l.2-.6zM15.3 9.5h-.1l-.3-.3-.3.3h-.2l.2-.5-.4-.3h.5v-.2l.3-.1.1.3h.6l-.5.3.1.5zM18.2 11l.2.5h.6l-.5.3.2.6-.5-.4-.5.4.2-.6-.5-.3h.6l.2-.6zM14.9 11l.2.5h.6l-.5.3.2.6-.5-.4-.5.4.2-.6-.5-.3h.6l.2-.6zM11.6 11l.2.5h.6l-.5.3.2.6-.5-.4-.5.4.2-.6-.5-.3h.6l.2-.6zM18.2 13.7l.2.6h.6l-.5.3.2.6-.5-.4-.5.4.2-.6-.5-.3h.6l.2-.6zM14.9 13.7l.2.6h.6l-.5.3.2.6-.5-.4-.5.4.2-.6-.5-.3h.6l.2-.6zM11.6 13.7l.2.6h.6l-.5.3.2.6-.5-.4-.5.4.2-.6-.5-.3h.6l.2-.6zM8.6 14.6l.2.6-.5-.4-.3.3.5-1v.2h.6l-.5.3zM18.2 16.5l.2.6h.6l-.5.3.2.6-.5-.4-.5.4.2-.6-.5-.3h.6l.2-.6zM14.9 16.5l.2.6h.6l-.5.3.2.6-.5-.4-.5.4.2-.6-.5-.3h.6l.2-.6zM11.6 16.5l.2.6h.6l-.5.3.2.6-.5-.4-.5.4.2-.6-.5-.3h.6l.2-.6zM8.3 16.5l.2.6h.6l-.5.3.2.6-.5-.4-.5.4.2-.6-.5-.3h.6l.2-.6zM18.2 19.3l.2.6h.6l-.5.3.2.6-.5-.4-.5.4.2-.6-.5-.3h.6l.2-.6zM14.9 19.3l.2.6h.6l-.5.3.2.6-.5-.4-.5.4.2-.6-.5-.3h.6l.2-.6zM11.6 19.3l.2.6h.6l-.5.3.2.6-.5-.4-.5.4.2-.6-.5-.3h.6l.2-.6zM8.3 19.3l.2.6h.6l-.5.3.2.6-.5-.4-.5.4.2-.6-.5-.3h.6l.2-.6zM16.6 18l.1.5h.6l-.4.3.1.6-.4-.4-.5.4.2-.6-.5-.3h.6l.2-.6zM13.3 18l.1.5h.7l-.5.3.1.6-.4-.4-.5.4.2-.6-.5-.3h.6l.2-.6zM10 18l.1.5h.7l-.5.3.1.6-.4-.4-.5.4.2-.6-.5-.3h.6l.2-.6zM7 18.8l.1.6-.2-.2v-.7h.6l-.5.3zM16.6 15.1l.1.6h.6l-.4.3.1.6-.4-.4-.5.4.2-.6-.5-.3h.6l.2-.6zM13.3 15.1l.1.6h.6l-.4.3.1.6-.4-.4-.5.4.2-.6-.5-.3h.6l.2-.6zM10 15.1l.1.6h.7l-.5.3.1.6-.4-.4-.5.4.2-.6-.5-.3h.6l.2-.6zM16.6 12.3l.1.6h.6l-.4.3.1.6-.4-.4-.5.4.2-.6-.5-.3h.6l.2-.6zM13.3 12.3l.1.6h.6l-.4.3.1.6-.4-.4-.5.4.2-.6-.5-.3h.6l.2-.6zM10.3 13.5l.2.3-.5-.3-.5.3v-.3l.2-.3-.4-.3h.5l.2-.6.1.6h.7l-.5.3v.3zM16.6 9.5l.1.6h.6l-.4.3.1.6-.4-.4-.5.4.2-.6-.5-.3h.6l.2-.6zM13.3 9.5l.1.6h.7l-.5.3.1.6-.4-.4-.5.4.2-.6-.5-.3h.6l.2-.6zM45.4 32.2a13 13 0 11-14.6-13H34a13 13 0 0111.5 13z" fill="#fff"></path><path d="M32.4 40a7.8 7.8 0 100-15.6 7.8 7.8 0 000 15.6z" fill="#BB022C"></path><defs><linearGradient id="paint0_linear" x1="12.2" y1="4.6" x2="42.1" y2="45.9" gradientUnits="userSpaceOnUse"><stop stop-color="#fff"></stop><stop offset="1" stop-color="#DDD"></stop></linearGradient></defs></svg> 