<?xml version="1.0" encoding="UTF-8"?> <svg xmlns="http://www.w3.org/2000/svg" width="52" height="52" fill="none"><path d="M52 26a26 26 0 11-52 0 26 26 0 0152 0z" fill="url(#paint0_linear)"></path><path d="M33.2 24.8l-1 2h-22l-1-2h24z" fill="#fff"></path><path d="M33.9 22.8a12 12 0 01-.7 2h-24c-.3-.6-.5-1.3-.6-2h25.3z" fill="#B12233"></path><path d="M34.2 20.8c0 .7-.2 1.4-.3 2H8.6a16 16 0 01-.4-2h26z" fill="#fff"></path><path d="M32.2 26.8l-1.6 2H11.8c-.6-.6-1-1.3-1.5-2h21.9zM28.1 30.8a13 13 0 01-13.8 0H28z" fill="#B12233"></path><path d="M30.6 28.8c-.7.8-1.6 1.4-2.5 2H14.3c-.9-.6-1.7-1.2-2.5-2h18.8zM30.6 10.8H11.8l2.5-2H28c1 .6 1.8 1.3 2.5 2z" fill="#fff"></path><path d="M28.1 8.9H14.3l1.3-.8.5-.2.3-.1a12.8 12.8 0 0111.8 1zM32.2 12.8h-22l.4-.5 1.2-1.5h18.8l1.6 2zM33.9 16.8H8.6c.1-.7.3-1.3.6-2h24l.7 2z" fill="#B12233"></path><path d="M33.2 14.8h-24l.2-.4.4-.9.5-.7h21.9l1 2zM34.2 18.9h-26v-.3l.2-.7c0-.4 0-.7.2-1h25.3l.3 2z" fill="#fff"></path><path d="M34.2 19.8v1h-26v-1-1h26v1z" fill="#B12233"></path><path d="M21.2 6.8v14h-13v-1-1-.2l.2-.7a16.1 16.1 0 01.8-3l.2-.5.4-.9.5-.7.3-.5 1.2-1.5 2.5-2 1.3-.7.5-.2.3-.1c1.5-.6 3.1-1 4.8-1z" fill="#3C3B6D"></path><path d="M19.6 7.5l.2.6h.5l-.4.3.2.6-.5-.4-.5.4.2-.6-.5-.3h.6l.2-.6zM16.7 8.9h-.1l-.3-.3-.3.3h-.2l.2-.5-.4-.3h.5v-.2l.3-.1V8h.7l-.5.3.1.5zM19.6 10.3l.2.6h.6l-.5.3.2.6-.5-.4-.5.4.2-.6-.5-.3h.6l.2-.6zM16.3 10.3l.2.6h.6l-.5.3.2.6-.5-.4-.5.4.2-.6-.5-.3h.6l.2-.6zM13 10.3l.2.6h.6l-.5.3.2.6-.5-.4-.5.4.2-.6-.5-.3h.6l.2-.6zM19.6 13.1l.2.6h.6l-.5.3.2.6-.5-.4-.5.4.2-.6-.5-.3h.6l.2-.6zM16.3 13.1l.2.6h.6l-.5.3.2.6-.5-.4-.5.4.2-.6-.5-.3h.6l.2-.6zM13 13.1l.2.6h.6l-.5.3.2.6-.5-.4-.5.4.2-.6-.5-.3h.6l.2-.6zM10 14l.2.6-.5-.4-.3.3.4-1v.2h.7l-.5.3zM19.6 16l.2.5h.6l-.5.3.2.6-.5-.4-.5.4.2-.6-.5-.3h.6l.2-.6zM16.3 16l.2.5h.6l-.5.3.2.6-.5-.4-.5.4.2-.6-.5-.3h.6l.2-.6zM13 16l.2.5h.6l-.5.3.2.6-.5-.4-.5.4.2-.6-.5-.3h.6l.2-.6zM9.7 16l.2.5h.6l-.5.3.2.6-.5-.4-.5.4.2-.6-.5-.3h.6l.2-.6zM19.6 18.7l.2.6h.6l-.5.3.2.6-.5-.4-.5.4.2-.6-.5-.3h.6l.2-.6zM16.3 18.7l.2.6h.6l-.5.3.2.6-.5-.4-.5.4.2-.6-.5-.3h.6l.2-.6zM13 18.7l.2.6h.6l-.5.3.2.6-.5-.4-.5.4.2-.6-.5-.3h.6l.2-.6zM9.7 18.7l.2.6h.6l-.5.3.2.6-.5-.4-.5.4.2-.6-.5-.3h.6l.2-.6zM18 17.3l.1.6h.6l-.5.3.2.6-.5-.4-.5.4.2-.6-.5-.3h.7l.1-.6zM14.6 17.3l.2.6h.6l-.5.3.2.6-.5-.4-.4.4.1-.6-.5-.3h.7l.1-.6zM11.3 17.3l.2.6h.6l-.5.3.2.6-.5-.4-.4.4.1-.6-.4-.3h.6l.1-.6zM8.3 18.2l.2.6-.2-.2v-.7h.5l-.5.3zM18 14.5l.1.6h.6l-.5.3.2.6-.5-.4-.5.4.2-.6-.5-.3h.7l.1-.6zM14.6 14.5l.2.6h.6l-.5.3.2.6-.5-.4-.4.4.1-.6-.5-.3h.7l.1-.6zM11.3 14.5l.2.6h.6l-.5.3.2.6-.5-.4-.4.4.1-.6-.4-.3h.6l.1-.6zM18 11.7l.1.6h.6l-.5.3.2.6-.5-.4-.5.4.2-.6-.5-.3h.7l.1-.6zM14.6 11.7l.2.6h.6l-.5.3.2.6-.5-.4-.4.4.1-.6-.5-.3h.7l.1-.6zM11.7 12.8l.1.4-.4-.4-.5.4v-.4l.1-.2-.4-.3h.6l.1-.6.2.6h.6l-.5.3.1.2zM18 9l.1.5h.6l-.5.3.2.6-.5-.4-.5.4.2-.6-.5-.3h.7l.1-.6zM14.6 9l.2.5h.6l-.5.3.2.6-.5-.4-.4.4.1-.6-.5-.3h.7l.1-.6zM32.1 19.2a13 13 0 00-13 13h26a13 13 0 00-13-13z" fill="#fff"></path><path d="M32.1 45.2a13 13 0 0013-13h-26a13 13 0 0013 13z" fill="#DB153B"></path><defs><linearGradient id="paint0_linear" x1="12.2" y1="4.6" x2="42.1" y2="45.9" gradientUnits="userSpaceOnUse"><stop stop-color="#fff"></stop><stop offset="1" stop-color="#DDD"></stop></linearGradient></defs></svg> 