<?xml version="1.0" encoding="UTF-8"?> <svg xmlns="http://www.w3.org/2000/svg" width="32" height="32" viewBox="0 0 32 32" fill="none"><g clip-path="url(#clip0_3044_1513)"><rect width="32" height="32" rx="16" fill="#F0F0F0"></rect><mask id="mask0_3044_1513" style="mask-type:luminance" maskUnits="userSpaceOnUse" x="4" y="4" width="24" height="24"><path d="M16 28C22.6274 28 28 22.6274 28 16C28 9.37258 22.6274 4 16 4C9.37258 4 4 9.37258 4 16C4 22.6274 9.37258 28 16 28Z" fill="white"></path></mask><g mask="url(#mask0_3044_1513)"><path d="M3.02051 3.59021L18.5834 15.9168L3.02051 28.2426V3.59021Z" fill="#4218C6"></path><path d="M17.7249 15.9168H42.5944V3.59021H3.02051L17.7249 15.9168Z" fill="white"></path><path d="M3.02051 28.2426L17.7249 15.9169H42.5944V28.2426H3.02051Z" fill="#D80707"></path><path d="M28.5604 16.0958H3.63232V31.7257H28.5604V16.0958Z" fill="#D80707"></path><path d="M28.5604 0.466003H3.63232V16.0959H28.5604V0.466003Z" fill="white"></path></g></g><defs><clipPath id="clip0_3044_1513"><rect width="32" height="32" fill="white" transform="matrix(1 0 0 -1 0 32)"></rect></clipPath></defs></svg> 