<?xml version="1.0" encoding="UTF-8"?> <svg xmlns="http://www.w3.org/2000/svg" width="52" height="52" fill="none"><mask id="a" style="mask-type:alpha" maskUnits="userSpaceOnUse" x="0" y="0" width="52" height="52"><path d="M52 26C52 11.64 40.36 0 26 0S0 11.64 0 26s11.64 26 26 26 26-11.64 26-26z" fill="#fff"></path></mask><g mask="url(#a)"><path d="M52 26C52 11.64 40.36 0 26 0S0 11.64 0 26s11.64 26 26 26 26-11.64 26-26z" fill="#fff"></path><path fill-rule="evenodd" clip-rule="evenodd" d="M0 0h59.429v59.429H0V0z" fill="#FFAD00"></path><path fill-rule="evenodd" clip-rule="evenodd" d="M17.914 23.872h16.172l-4.039-8.086h-8.088l-4.045 8.086zm9.556 11.027h16.173l-4.04-8.086h-8.088l-4.045 8.086zm-19.113 0H24.53l-4.039-8.086h-8.09l-4.044 8.086z" fill="#fff"></path></g></svg> 