<svg xmlns="http://www.w3.org/2000/svg" xmlns:xlink="http://www.w3.org/1999/xlink" width="36" height="36" viewBox="0 0 36 36">
  <defs>
    <clipPath id="clip-path">
      <circle id="Ellipse_2617" data-name="Ellipse 2617" cx="18" cy="18" r="18" transform="translate(7908 2069)" fill="#fff" stroke="#707070" stroke-width="1"/>
    </clipPath>
  </defs>
  <g id="Mask_Group_119374" data-name="Mask Group 119374" transform="translate(-7908 -2069)" clip-path="url(#clip-path)">
    <g id="engineering" transform="translate(7918.267 2077.558)">
      <path id="Path_105182" data-name="Path 105182" d="M30.825,226.2v.549a.549.549,0,0,0,.4.528,32.327,32.327,0,0,0,7.835,1.119,32.327,32.327,0,0,0,7.835-1.119.549.549,0,0,0,.4-.528V226.2a.549.549,0,0,0-.549-.549H31.374A.549.549,0,0,0,30.825,226.2Z" transform="translate(-30.825 -217.392)" fill="#ffd200"/>
      <path id="Path_105183" data-name="Path 105183" d="M74.548,307.889a.549.549,0,0,0,.549-.549v-1.455c-.779.184-1.953.43-3.32.621a3.824,3.824,0,0,1-7.632,0c-1.368-.19-2.541-.437-3.32-.621v1.455a.549.549,0,0,0,.549.549h.778a5.932,5.932,0,0,0,.54,1.293l-.554.554a.549.549,0,0,0,0,.776l1.552,1.552a.549.549,0,0,0,.776,0l.554-.554a5.936,5.936,0,0,0,1.293.54v.815a.549.549,0,0,0,.549.549h2.2a.549.549,0,0,0,.549-.549v-.815a5.933,5.933,0,0,0,1.293-.54l.554.554a.549.549,0,0,0,.776,0l1.552-1.552a.549.549,0,0,0,0-.776l-.554-.554a5.934,5.934,0,0,0,.54-1.293Z" transform="translate(-59.727 -294.691)" fill="#ffd200"/>
      <path id="Path_105184" data-name="Path 105184" d="M69.876,6.013a.548.548,0,0,1-.726-.274L67.437,1.9A7.2,7.2,0,0,0,63.718,7.16h14.06A7.2,7.2,0,0,0,74.06,1.9L72.346,5.739a.549.549,0,1,1-1-.451l1.9-4.243A.551.551,0,0,0,72.9.287a8.24,8.24,0,0,0-4.308,0,.551.551,0,0,0-.341.758l1.9,4.243A.548.548,0,0,1,69.876,6.013Z" transform="translate(-62.514 0)" fill="#ffd200"/>
    </g>
  </g>
</svg>
