<svg xmlns="http://www.w3.org/2000/svg" xmlns:xlink="http://www.w3.org/1999/xlink" width="36" height="36" viewBox="0 0 36 36">
  <defs>
    <clipPath id="clip-path">
      <circle id="Ellipse_2619" data-name="Ellipse 2619" cx="18" cy="18" r="18" transform="translate(8419 1969)" fill="#fff" stroke="#707070" stroke-width="1"/>
    </clipPath>
  </defs>
  <g id="Mask_Group_119378" data-name="Mask Group 119378" transform="translate(-8419 -1969)" clip-path="url(#clip-path)">
    <g id="_21_-_30" data-name="21 - 30" transform="translate(8428.618 1979.421)">
      <g id="Art" transform="translate(0 0)">
        <path id="Path_105190" data-name="Path 105190" d="M41.749,17.648a9.3,9.3,0,0,0-.437-.848l-2.063,5.6a1.932,1.932,0,0,1-.338.574,3.613,3.613,0,0,0,3.016-4.895c-.055-.148-.114-.292-.177-.434Z" transform="translate(-23.597 -11.632)" fill="#c1d42f"/>
        <path id="Path_105191" data-name="Path 105191" d="M7.318,5.6A9.5,9.5,0,0,0,1.683,18.075c.013.025.021.05.034.076a3.61,3.61,0,0,0,6.328.617A6.752,6.752,0,0,1,11.17,16.23c.04-.016.081-.028.121-.043a2.5,2.5,0,0,1,1.559-1.4,1.965,1.965,0,0,1,.182-.882L16.224,7A9.516,9.516,0,0,0,7.318,5.6ZM4.841,16.149a1.616,1.616,0,1,1,1.616-1.616A1.616,1.616,0,0,1,4.841,16.149ZM6.861,11.5A1.616,1.616,0,1,1,8.477,9.887,1.616,1.616,0,0,1,6.861,11.5Zm4.848-1.414a1.616,1.616,0,1,1,1.616-1.616A1.616,1.616,0,0,1,11.709,10.089Z" transform="translate(-1.005 -4.638)" fill="#c1d42f"/>
        <path id="Path_105192" data-name="Path 105192" d="M34.814,4.066a.751.751,0,0,0-.97.379l-4.236,9.173a1.154,1.154,0,0,0,.216,1.285,1.707,1.707,0,0,0-1.965,1.006c-.654,1.58.381,2.273-.274,3.852a4.253,4.253,0,0,0,3.434-2.545,1.7,1.7,0,0,0-.505-1.974,1.151,1.151,0,0,0,1.227-.742l3.491-9.482A.751.751,0,0,0,34.814,4.066Z" transform="translate(-16.847 -4.008)" fill="#c1d42f"/>
      </g>
    </g>
  </g>
</svg>
