<svg xmlns="http://www.w3.org/2000/svg" xmlns:xlink="http://www.w3.org/1999/xlink" width="36" height="36" viewBox="0 0 36 36">
  <defs>
    <clipPath id="clip-path">
      <circle id="Ellipse_2616" data-name="Ellipse 2616" cx="18" cy="18" r="18" transform="translate(7861 2069)" fill="#fff" stroke="#707070" stroke-width="1"/>
    </clipPath>
  </defs>
  <g id="Mask_Group_119372" data-name="Mask Group 119372" transform="translate(-7861 -2069)" clip-path="url(#clip-path)">
    <g id="customer" transform="translate(7869.638 2077.042)">
      <g id="Group_136246" data-name="Group 136246" transform="translate(8.103)">
        <g id="Group_136245" data-name="Group 136245">
          <path id="Path_105177" data-name="Path 105177" d="M212.383,0a2.384,2.384,0,0,0-2.354,2.354,2.384,2.384,0,0,0,2.354,2.354,2.354,2.354,0,0,0,0-4.708Z" transform="translate(-210.029)" fill="#c1d42f"/>
        </g>
      </g>
      <g id="Group_136248" data-name="Group 136248" transform="translate(6.946 4.708)">
        <g id="Group_136247" data-name="Group 136247">
          <path id="Path_105178" data-name="Path 105178" d="M186.11,122a3.452,3.452,0,0,1-2.57,1.158A3.536,3.536,0,0,1,180.932,122a3.446,3.446,0,0,0-.9,2.315v.579a.578.578,0,0,0,.579.579h5.827a.578.578,0,0,0,.579-.579v-.579A3.446,3.446,0,0,0,186.11,122Z" transform="translate(-180.029 -122)" fill="#c1d42f"/>
        </g>
      </g>
      <g id="Group_136250" data-name="Group 136250" transform="translate(0 11.211)">
        <g id="Group_136249" data-name="Group 136249" transform="translate(0)">
          <path id="Path_105179" data-name="Path 105179" d="M5.616,297.086l-2.95-5.914a1.157,1.157,0,0,0-1.55-.521l-.771.382a.579.579,0,0,0-.261.778l3.473,6.946a.579.579,0,0,0,.775.26l.761-.377A1.158,1.158,0,0,0,5.616,297.086Z" transform="translate(-0.024 -290.532)" fill="#c1d42f"/>
        </g>
      </g>
      <g id="Group_136252" data-name="Group 136252" transform="translate(3.434 9.125)">
        <g id="Group_136251" data-name="Group 136251">
          <path id="Path_105180" data-name="Path 105180" d="M104.864,236.911a1.154,1.154,0,0,0-1.528.151l-3.164,3.89a1.4,1.4,0,0,1-.857.37h-2.7a.579.579,0,1,1,0-1.158h2.315a1.158,1.158,0,1,0,0-2.315H95.9c-.288,0-.432-.183-.66-.382a4.027,4.027,0,0,0-3.593-.88,4.222,4.222,0,0,0-1.777.887l-.017-.014-.837.737,3.29,6.6h6.627a3.487,3.487,0,0,0,2.778-1.389l3.4-4.862A1.167,1.167,0,0,0,104.864,236.911Z" transform="translate(-89.016 -236.479)" fill="#c1d42f"/>
        </g>
      </g>
    </g>
  </g>
</svg>
