<svg xmlns="http://www.w3.org/2000/svg" xmlns:xlink="http://www.w3.org/1999/xlink" width="36" height="36" viewBox="0 0 36 36">
  <defs>
    <clipPath id="clip-path">
      <circle id="Ellipse_2608" data-name="Ellipse 2608" cx="18" cy="18" r="18" transform="translate(8052 2069)" fill="#fff" stroke="#707070" stroke-width="1"/>
    </clipPath>
  </defs>
  <g id="Mask_Group_119360" data-name="Mask Group 119360" transform="translate(-8052 -2069)" clip-path="url(#clip-path)">
    <g id="surface1" transform="translate(8061.324 2077.727)">
      <path id="Path_105144" data-name="Path 105144" d="M.539,394.381h9.768a.539.539,0,0,0,.539-.539v-.575a1.077,1.077,0,0,0-1.077-1.077v-.644A1.548,1.548,0,0,0,8.221,390h-5.6a1.548,1.548,0,0,0-1.547,1.546v.644A1.077,1.077,0,0,0,0,393.268v.575A.539.539,0,0,0,.539,394.381Zm0,0" transform="translate(0 -375.995)" fill="#c9187e"/>
      <path id="Path_105145" data-name="Path 105145" d="M94.876,168.518a1.077,1.077,0,0,0,1.721-1.3l-3.242-4.3a1.077,1.077,0,1,0-1.721,1.3Zm0,0" transform="translate(-88.135 -156.655)" fill="#c9187e"/>
      <path id="Path_105146" data-name="Path 105146" d="M310.509,6.027a1.077,1.077,0,1,0,1.721-1.3l-3.242-4.3a1.077,1.077,0,1,0-1.721,1.3Zm0,0" transform="translate(-296.024 0)" fill="#c9187e"/>
      <path id="Path_105147" data-name="Path 105147" d="M168.259,63.448a5.842,5.842,0,0,0,1.768-2.129l-3.772-5.006a6.015,6.015,0,0,0-4.3,3.242l3.772,5.006A5.843,5.843,0,0,0,168.259,63.448Zm0,0" transform="translate(-156.137 -54.29)" fill="#c9187e"/>
      <path id="Path_105148" data-name="Path 105148" d="M331.873,258.906a6.5,6.5,0,0,1-1.721,1.3l.7.932,1.721-1.3Zm0,0" transform="translate(-318.296 -249.608)" fill="#c9187e"/>
      <path id="Path_105149" data-name="Path 105149" d="M369.487,308.824l-1.721,1.3,3.242,4.3a1.077,1.077,0,1,0,1.721-1.3Zm0,0" transform="translate(-354.559 -297.734)" fill="#c9187e"/>
    </g>
  </g>
</svg>
