<svg xmlns="http://www.w3.org/2000/svg" xmlns:xlink="http://www.w3.org/1999/xlink" width="36" height="36" viewBox="0 0 36 36">
  <defs>
    <clipPath id="clip-path">
      <circle id="Ellipse_2615" data-name="Ellipse 2615" cx="18" cy="18" r="18" transform="translate(8297 2069)" fill="#fff" stroke="#707070" stroke-width="1"/>
    </clipPath>
  </defs>
  <g id="Mask_Group_119370" data-name="Mask Group 119370" transform="translate(-8297 -2069)" clip-path="url(#clip-path)">
    <g id="stem-cells" transform="translate(8303.429 2076.117)">
      <circle id="Ellipse_2614" data-name="Ellipse 2614" cx="1.754" cy="1.754" r="1.754" transform="translate(9.473 9.473)" fill="#f99d25"/>
      <path id="Path_105172" data-name="Path 105172" d="M294.642,9.573,296.3,7.916a4.39,4.39,0,1,0-.93-.93l-1.658,1.658A3.093,3.093,0,0,1,294.642,9.573Zm3.228-7.6h2.059a.548.548,0,0,1,0,1.1h-.485V6.25a.548.548,0,0,1-1.1,0V3.07h-.477a.548.548,0,1,1,0-1.1Z" transform="translate(-280.831)" fill="#f99d25"/>
      <path id="Path_105173" data-name="Path 105173" d="M8.643,293.713l-1.658,1.658a4.39,4.39,0,1,0,.93.93l1.658-1.658a3.093,3.093,0,0,1-.93-.93Zm-3.588,4.639a.548.548,0,0,1,0,1.1H4.149v.768H5.171a.548.548,0,1,1,0,1.1H3.6a.548.548,0,0,1-.548-.548v-3.728a.548.548,0,0,1,.548-.548H5.171a.548.548,0,1,1,0,1.1H4.149v.768Z" transform="translate(0 -280.832)" fill="#f99d25"/>
      <path id="Path_105174" data-name="Path 105174" d="M298.9,294.515a4.362,4.362,0,0,0-2.6.856l-1.658-1.658a3.094,3.094,0,0,1-.93.93l1.658,1.658a4.384,4.384,0,1,0,3.53-1.786Zm-2.438,5.807.686-3.448a.552.552,0,0,1,.019-.069.628.628,0,0,1,.59-.426h0a.628.628,0,0,1,.591.417l.007.022.541,1.756.543-1.756,0-.014a.628.628,0,0,1,.59-.426h0a.628.628,0,0,1,.591.418.555.555,0,0,1,.021.077l.684,3.456a.548.548,0,1,1-1.076.213l-.321-1.624-.506,1.634a.548.548,0,0,1-1.06.044l-.517-1.678-.322,1.618a.548.548,0,1,1-1.075-.214Z" transform="translate(-280.832 -280.832)" fill="#f99d25"/>
      <path id="Path_105175" data-name="Path 105175" d="M4.6,9.21a4.581,4.581,0,0,0,2.756-.918L8.643,9.573a3.093,3.093,0,0,1,.93-.93L8.292,7.361A4.6,4.6,0,1,0,4.6,9.21ZM3.026,5.51a.548.548,0,0,1,.774.038,1.215,1.215,0,0,0,.893.373.555.555,0,0,0,.57-.356c.04-.222-.324-.374-.436-.416C4.247,4.935,3.731,4.7,3.71,4.7a.547.547,0,0,1-.076-.041A1.266,1.266,0,0,1,3.068,3.4,1.393,1.393,0,0,1,4.076,2.275,2.259,2.259,0,0,1,6.043,2.7a.548.548,0,1,1-.7.842,1.156,1.156,0,0,0-.949-.221c-.194.058-.232.181-.239.232a.176.176,0,0,0,.054.16c.142.062.556.24,1,.4A1.481,1.481,0,0,1,6.343,5.757a1.619,1.619,0,0,1-1.65,1.26,2.3,2.3,0,0,1-1.705-.733.548.548,0,0,1,.038-.774Z" fill="#f99d25"/>
    </g>
  </g>
</svg>
