<svg xmlns="http://www.w3.org/2000/svg" xmlns:xlink="http://www.w3.org/1999/xlink" width="36" height="36" viewBox="0 0 36 36">
  <defs>
    <clipPath id="clip-path">
      <circle id="Ellipse_2618" data-name="Ellipse 2618" cx="18" cy="18" r="18" transform="translate(3593 -859)" fill="#fff" stroke="#707070" stroke-width="1"/>
    </clipPath>
  </defs>
  <g id="Mask_Group_119376" data-name="Mask Group 119376" transform="translate(-3593 859)" clip-path="url(#clip-path)">
    <g id="boxes" transform="translate(3600.606 -849.76)">
      <path id="Path_105186" data-name="Path 105186" d="M20.623,15.862H14.636V3.665a.665.665,0,1,0-1.331,0v7.761h-.912L10.306,5.515a2.442,2.442,0,0,0-2.3-1.628H5.1a.666.666,0,0,0-.665.665V9.209h-2A2.441,2.441,0,0,0,0,11.648V15.64a1.554,1.554,0,0,0,1.552,1.552h.267a2.217,2.217,0,0,0,4.345,0H8.027a2.217,2.217,0,0,0,4.345,0h8.25a.665.665,0,0,0,0-1.331ZM5.766,5.218H8.006a1.111,1.111,0,0,1,1.046.74l1.93,5.469H6.874a1.11,1.11,0,0,1-1.109-1.109v-5.1ZM3.992,17.636a.887.887,0,1,1,.887-.887A.888.888,0,0,1,3.992,17.636Zm6.209,0a.887.887,0,1,1,.887-.887A.888.888,0,0,1,10.2,17.636Z" transform="translate(0 -3)" fill="#873694"/>
      <path id="Path_105187" data-name="Path 105187" d="M21.326,11v.665a.665.665,0,1,1-1.331,0V11H18.444a.444.444,0,0,0-.444.444v3.548a.444.444,0,0,0,.444.444h4.435a.444.444,0,0,0,.444-.444V11.444A.444.444,0,0,0,22.879,11Z" transform="translate(-2.034 -3.904)" fill="#873694"/>
      <path id="Path_105188" data-name="Path 105188" d="M21.326,5v.665a.665.665,0,1,1-1.331,0V5H18.444A.444.444,0,0,0,18,5.444V8.992a.444.444,0,0,0,.444.444h4.435a.444.444,0,0,0,.444-.444V5.444A.444.444,0,0,0,22.879,5Z" transform="translate(-2.034 -3.226)" fill="#873694"/>
    </g>
  </g>
</svg>
