<svg xmlns="http://www.w3.org/2000/svg" xmlns:xlink="http://www.w3.org/1999/xlink" width="36" height="36" viewBox="0 0 36 36">
  <defs>
    <clipPath id="clip-path">
      <circle id="Ellipse_2605" data-name="Ellipse 2605" cx="18" cy="18" r="18" transform="translate(7813 2069)" fill="#fff" stroke="#707070" stroke-width="1"/>
    </clipPath>
  </defs>
  <g id="Mask_Group_119354" data-name="Mask Group 119354" transform="translate(-7813 -2069)" clip-path="url(#clip-path)">
    <g id="claw" transform="translate(7822.738 2078.14)">
      <path id="Path_105132" data-name="Path 105132" d="M249.78,1.029a.514.514,0,0,0,0-1.029h-8.266a.514.514,0,1,0,0,1.029h2.572V4.15h-.514a.514.514,0,0,0-.364.151l-2.058,2.058a.514.514,0,0,0-.151.364V8.78a.514.514,0,0,0,.151.364l1.393,1.393V9.081l-.514-.514V6.935l1.756-1.756h3.724l1.756,1.756V8.567l-.514.514v1.455l1.393-1.393a.514.514,0,0,0,.151-.364V6.722a.514.514,0,0,0-.151-.364L248.086,4.3a.514.514,0,0,0-.364-.151h-.514V1.029Z" transform="translate(-232.734)" fill="#f58220"/>
      <path id="Path_105133" data-name="Path 105133" d="M15.468,392H2.092a2.058,2.058,0,1,0,0,4.116H15.468a2.058,2.058,0,1,0,0-4.116ZM2.607,394.572a.514.514,0,1,1,.514-.514A.514.514,0,0,1,2.607,394.572Zm2.058,0a.514.514,0,1,1,.514-.514A.514.514,0,0,1,4.664,394.572Zm2.058,0a.514.514,0,1,1,.514-.514A.514.514,0,0,1,6.722,394.572Zm2.058,0a.514.514,0,1,1,.514-.514A.514.514,0,0,1,8.78,394.572Zm2.058,0a.514.514,0,1,1,.514-.514A.514.514,0,0,1,10.838,394.572Zm2.058,0a.514.514,0,1,1,.514-.514A.514.514,0,0,1,12.9,394.572Zm2.058,0a.514.514,0,1,1,.514-.514A.514.514,0,0,1,14.953,394.572Z" transform="translate(0 -378.556)" fill="#f58220"/>
      <path id="Path_105134" data-name="Path 105134" d="M79.6,241H76.514a.514.514,0,0,0-.514.514v3.635h4.116v-3.635A.514.514,0,0,0,79.6,241Z" transform="translate(-73.393 -232.734)" fill="#f58220"/>
      <path id="Path_105135" data-name="Path 105135" d="M319.635,241h-3.121a.514.514,0,0,0-.514.514v3.635h4.15v-3.635A.514.514,0,0,0,319.635,241Z" transform="translate(-305.162 -232.734)" fill="#f58220"/>
    </g>
  </g>
</svg>
