<?xml version="1.0" encoding="UTF-8"?> <svg xmlns="http://www.w3.org/2000/svg" width="20" height="17" viewBox="0 0 20 17" fill="none"><path d="M18 0.637695H2C0.9 0.637695 0 1.5377 0 2.6377V14.6377C0 15.7377 0.9 16.6377 2 16.6377H18C19.1 16.6377 20 15.7377 20 14.6377V2.6377C20 1.5377 19.1 0.637695 18 0.637695ZM17.6 4.8877L11.06 8.9777C10.41 9.3877 9.59 9.3877 8.94 8.9777L2.4 4.8877C2.15 4.7277 2 4.4577 2 4.1677C2 3.4977 2.73 3.0977 3.3 3.4477L10 7.6377L16.7 3.4477C17.27 3.0977 18 3.4977 18 4.1677C18 4.4577 17.85 4.7277 17.6 4.8877Z" fill="#821ec8"></path></svg> 