<?xml version="1.0" encoding="UTF-8"?> <svg xmlns="http://www.w3.org/2000/svg" width="24" height="25" viewBox="0 0 24 25" fill="none"><path d="M23 12.9375L20.56 10.1575L20.9 6.47754L17.29 5.65754L15.4 2.47754L12 3.93754L8.6 2.47754L6.71 5.65754L3.1 6.46754L3.44 10.1475L1 12.9375L3.44 15.7175L3.1 19.4075L6.71 20.2275L8.6 23.4075L12 21.9375L15.4 23.3975L17.29 20.2175L20.9 19.3975L20.56 15.7175L23 12.9375ZM18.49 15.0475L18.75 17.8375L16.01 18.4575L14.58 20.8675L12 19.7575L9.42 20.8675L7.99 18.4575L5.25 17.8375L5.51 15.0375L3.66 12.9375L5.51 10.8175L5.25 8.03754L7.99 7.42754L9.42 5.01754L12 6.11754L14.58 5.00754L16.01 7.41754L18.75 8.03754L18.49 10.8275L20.34 12.9375L18.49 15.0475ZM11 15.9375H13V17.9375H11V15.9375ZM11 7.93754H13V13.9375H11V7.93754Z" fill="#821ec8"></path></svg> 