<?xml version="1.0" encoding="UTF-8"?> <svg xmlns="http://www.w3.org/2000/svg" width="23" height="26" viewBox="0 0 23 26" fill="none"><path d="M23 5.12115C23 2.29305 20.6846 0 17.8289 0H5.17114C2.31544 0 0 2.29305 0 5.12115V15.0959C0 17.6183 1.85235 19.7202 4.28356 20.1406V24.4592C4.28356 24.765 4.47651 25.0707 4.74664 25.2236C4.86242 25.3 5.01678 25.3 5.13255 25.3C5.3255 25.3 5.47986 25.2618 5.63423 25.1471L8.2198 23.2745C11.0369 21.2489 14.3557 20.1789 17.8289 20.1789C20.6846 20.1789 23 17.8858 23 15.0577V5.12115ZM21.302 15.0959C21.302 16.9686 19.7584 18.4973 17.8674 18.4973C14.047 18.4973 10.3809 19.682 7.25503 21.8986L6.02013 22.7776V19.3381C6.02013 18.8795 5.63423 18.4973 5.17114 18.4973C3.2802 18.4973 1.73658 16.9686 1.73658 15.0959V5.12115C1.73658 3.24849 3.2802 1.71979 5.17114 1.71979H17.8674C19.7584 1.71979 21.302 3.24849 21.302 5.12115V15.0959Z" fill="#821ec8"></path><path d="M11.5006 5.38867C10.0728 5.38867 8.68359 6.30589 8.68359 8.06391C8.68359 8.52252 9.06949 8.90469 9.53257 8.90469C9.99564 8.90469 10.3815 8.52252 10.3815 8.06391C10.3815 7.14668 11.3849 7.10847 11.5006 7.10847C11.6164 7.10847 12.6197 7.14668 12.6197 8.06391V8.25499C12.6197 8.63717 12.4268 8.94291 12.0795 9.134L11.3077 9.55439C10.8832 9.7837 10.6517 10.2041 10.6517 10.6627V11.3506C10.6517 11.8092 11.0376 12.1914 11.5006 12.1914C11.9637 12.1914 12.3496 11.8092 12.3496 11.3506V10.9302L12.8899 10.6627C13.7774 10.2041 14.3177 9.28687 14.3177 8.29321V8.06391C14.3177 6.30589 12.8899 5.38867 11.5006 5.38867Z" fill="#821ec8"></path><path d="M11.4989 13.1465C10.1097 13.1465 10.1097 15.2868 11.4989 15.2868C12.8882 15.2868 12.8882 13.1465 11.4989 13.1465Z" fill="#821ec8"></path></svg> 