<svg xmlns="http://www.w3.org/2000/svg" width="56" height="56" viewBox="0 0 56 56">
    <defs>
        <filter id="j1qv16odaa">
            <feColorMatrix in="SourceGraphic" values="0 0 0 0 0.160296 0 0 0 0 0.165580 0 0 0 0 0.176149 0 0 0 1.000000 0"/>
        </filter>
    </defs>
    <g fill="none" fill-rule="evenodd">
        <g filter="url(#j1qv16odaa)" transform="translate(-1092 -1149)">
            <g>
                <g stroke="#51555C" stroke-width="1.6">
                    <path d="M30 9.6c0-1.325-1.075-2.4-2.4-2.4s-2.4 1.075-2.4 2.4 1.075 2.4 2.4 2.4M25.2 14.4c0 1.325 1.075 2.4 2.4 2.4s2.4-1.075 2.4-2.4-1.075-2.4-2.4-2.4M27.6 7.2L27.6 4.8M27.6 19.2L27.6 16.8" transform="translate(1092 1149) translate(.8 .8)"/>
                    <path d="M39.6 12c0-6.628-5.374-12-12-12-6.628 0-12 5.372-12 12s5.372 12 12 12c6.626 0 12-5.372 12-12zM24 37.2c0-6.628-5.372-12-12-12s-12 5.372-12 12 5.372 12 12 12 12-5.372 12-12z" transform="translate(1092 1149) translate(.8 .8)"/>
                    <path d="M16.653 34.56c-.963-1.306-2.478-2.16-4.2-2.16-2.915 0-5.278 2.418-5.278 5.4 0 2.983 2.363 5.4 5.278 5.4 1.722 0 3.237-.853 4.2-2.16M4.8 36L10.8 36 13.2 36M4.8 39.6L10.8 39.6 13.2 39.6M55.2 37.2c0-6.628-5.374-12-12-12s-12 5.372-12 12 5.374 12 12 12 12-5.372 12-12zM43.2 36L43.2 44.4" transform="translate(1092 1149) translate(.8 .8)"/>
                    <path d="M38.4 31.2L43.2 36 48 31.2M39.6 38.4L46.8 38.4M39.6 42L46.8 42M7.411 22.182c-1.874-1.874-1.874-4.914 0-6.788L10.805 12" transform="translate(1092 1149) translate(.8 .8)"/>
                    <path d="M4.017 12L10.805 12 10.805 18.788M43.2 11.297c2.65 0 4.8 2.15 4.8 4.8v4.8" transform="translate(1092 1149) translate(.8 .8)"/>
                    <path d="M52.8 16.097L48 20.897 43.2 16.097M31.2 45.6c0 2.65-2.15 4.8-4.8 4.8h-4.8" transform="translate(1092 1149) translate(.8 .8)"/>
                    <path d="M26.4 55.2L21.6 50.4 26.4 45.6" transform="translate(1092 1149) translate(.8 .8)"/>
                </g>
            </g>
        </g>
    </g>
</svg>
