<svg xmlns="http://www.w3.org/2000/svg" width="38" height="38" viewBox="0 0 38 38">
    <defs>
        <filter id="feh47yrv2a">
            <feColorMatrix in="SourceGraphic" values="0 0 0 0 0.949020 0 0 0 0 0.023529 0 0 0 0 0.215686 0 0 0 1.000000 0"/>
        </filter>
    </defs>
    <g fill="none" fill-rule="evenodd">
        <g>
            <g filter="url(#feh47yrv2a)" transform="translate(-986 -3210) translate(971 3211)">
                <g>
                    <path fill="#FF0037" stroke="#979797" stroke-width=".75" d="M18 0c9.941 0 18 8.059 18 18s-8.059 18-18 18S0 27.941 0 18 8.059 0 18 0zm0 1.461c-2.233 0-4.4.437-6.437 1.3-1.97.832-3.738 2.025-5.258 3.544-1.52 1.52-2.712 3.289-3.545 5.258C1.898 13.6 1.461 15.767 1.461 18c0 2.233.437 4.4 1.3 6.437.832 1.97 2.025 3.738 3.544 5.258 1.52 1.52 3.289 2.712 5.258 3.545 2.038.862 4.204 1.299 6.437 1.299 2.233 0 4.4-.437 6.437-1.3 1.97-.832 3.738-2.025 5.258-3.544 1.52-1.52 2.712-3.289 3.545-5.258.862-2.038 1.299-4.204 1.299-6.437 0-2.233-.437-4.4-1.3-6.437-.832-1.97-2.025-3.738-3.544-5.258-1.52-1.52-3.289-2.712-5.258-3.545C22.4 1.898 20.233 1.461 18 1.461zM22.353 14c.406 0 .736.329.736.735 0 .407-.33.736-.736.736h-9.422v9.784c0 .406-.329.736-.735.736-.407 0-.736-.33-.736-.736v-10.52c0-.406.33-.735.736-.735h10.157zm.624 7.963l1.814 2.902c.215.345.11.799-.234 1.014-.121.076-.256.112-.39.112-.245 0-.484-.123-.624-.346l-1.814-2.902c-.215-.344-.11-.798.234-1.014.344-.215.798-.11 1.014.234zM21.99 10.01c2.606 0 4.726 2.12 4.726 4.726s-2.12 4.726-4.726 4.726H15.44c-.406 0-.736-.33-.736-.736 0-.406.33-.735.736-.735h6.551c1.795 0 3.255-1.46 3.255-3.255 0-1.794-1.46-3.254-3.255-3.254H10.02c-.407 0-.736-.33-.736-.736 0-.406.33-.736.735-.736H21.99z" transform="translate(16)"/>
                </g>
            </g>
        </g>
    </g>
</svg>
