<svg xmlns="http://www.w3.org/2000/svg" width="56" height="56" viewBox="0 0 56 56">
    <defs>
        <filter id="c6ozhxx2ga">
            <feColorMatrix in="SourceGraphic" values="0 0 0 0 0.160296 0 0 0 0 0.165580 0 0 0 0 0.176149 0 0 0 1.000000 0"/>
        </filter>
    </defs>
    <g fill="none" fill-rule="evenodd">
        <g filter="url(#c6ozhxx2ga)" transform="translate(-692 -1149)">
            <g>
                <g stroke="#51555C" stroke-width="1.6">
                    <path stroke-linecap="round" d="M16.8 34.8H9.6c-5.302 0-9.6-4.298-9.6-9.6V24c0-5.302 4.298-9.6 9.6-9.6h1.2" transform="translate(692 1149) translate(1.6 .8)"/>
                    <path stroke-linecap="round" d="M10.8 18v-4.8C10.8 5.91 16.71 0 24 0c6.25 0 11.485 4.344 12.852 10.176M38.4 34.8h7.8c3.644 0 6.6-2.954 6.6-6.6 0-3.035-2.048-5.59-4.837-6.362-.562-.155-1.152-.238-1.763-.238h-2.05M32.017 12.597C33.66 11.464 35.653 10.8 37.8 10.8 43.434 10.8 48 15.367 48 21" transform="translate(692 1149) translate(1.6 .8)"/>
                    <path d="M22.8 26.4L22.8 34.8 32.4 34.8 32.4 26.4M27.6 44.4L27.6 25.2M27.6 18L27.6 15.6M27.6 22.8L27.6 20.4M32.4 24L32.4 21.6M22.8 24L22.8 21.6M16.8 43.2L16.8 40.8 2.4 40.8 2.4 50.4 16.8 50.4 16.8 48M38.4 43.2L38.4 40.8 52.8 40.8 52.8 50.4 38.4 50.4 38.4 48M20.4 43.2L20.4 40.8 34.8 40.8 34.8 43.2M34.8 48L34.8 50.4 20.4 50.4 20.4 48M3.6 45.6L49.2 45.6M9.6 50.4L9.6 54M6 54L13.2 54M27.6 50.4L27.6 54M24 54L31.2 54M45.6 50.4L45.6 54M42 54L49.2 54" transform="translate(692 1149) translate(1.6 .8)"/>
                </g>
            </g>
        </g>
    </g>
</svg>
