<svg xmlns="http://www.w3.org/2000/svg" width="192" height="192" viewBox="0 0 192 192">
  <g fill="none" fill-rule="evenodd" transform="translate(40 32)">
    <path fill="#CFAFEC" d="M15.15625,54 L109.84375,54 C111.579687,54 113,55.3153846 113,56.9230769 L113,127.076923 C113,128.684615 111.579687,130 109.84375,130 L15.15625,130 C13.4203125,130 12,128.684615 12,127.076923 L12,56.9230769 C12,55.3153846 13.4203125,54 15.15625,54 Z"/>
    <path stroke="#000" stroke-width="4" d="M3.15625,43 L97.84375,43 C99.5796875,43 101,44.4128205 101,46.1396011 L101,115.860399 C101,117.587179 99.5796875,119 97.84375,119 L3.15625,119 C1.4203125,119 0,117.587179 0,115.860399 L0,46.1396011 C0,44.4128205 1.4203125,43 3.15625,43 Z"/>
    <path stroke="#282828" stroke-linejoin="round" stroke-width="4" d="M86,42.9303848 C86,16.8318685 76.5742188,0 50.0000474,0 C23.4258761,1.94359844e-15 14.0000948,17.6612142 14,43"/>
    <circle cx="50" cy="79" r="8" stroke="#000" stroke-width="4"/>
    <path stroke="#000" stroke-linecap="round" stroke-linejoin="round" stroke-width="4" d="M50,100 L50,87"/>
  </g>
</svg>
