<svg xmlns="http://www.w3.org/2000/svg" width="56" height="56" viewBox="0 0 56 56">
    <defs>
        <filter id="9u6glht6ra">
            <feColorMatrix in="SourceGraphic" values="0 0 0 0 0.160296 0 0 0 0 0.165580 0 0 0 0 0.176149 0 0 0 1.000000 0"/>
        </filter>
    </defs>
    <g fill="none" fill-rule="evenodd">
        <g filter="url(#9u6glht6ra)" transform="translate(-292 -1149)">
            <g fill="#51555C">
                <path stroke="#51555C" stroke-width=".5" d="M2.64 53.356h50.72v-1.48H2.64v1.48zm2.775-2.523h45.257v-1.479H5.415v1.479zm1.864-2.523H48.72v-1.48H7.28v1.48zm12.094-2.524h-3.988V28.298c0-1.103.895-2.001 1.994-2.001 1.1 0 1.994.898 1.994 2.001v17.488zm10.621 0h-3.988V28.298c0-1.103.895-2.001 1.994-2.001 1.1 0 1.994.898 1.994 2.001v17.488zm10.62 0h-3.987V28.298c0-1.103.894-2.001 1.994-2.001s1.994.898 1.994 2.001v17.488zM10.055 20.73h35.98v25.057h-4.379V28.298c0-1.68-1.36-3.045-3.034-3.045-1.673 0-3.035 1.366-3.035 3.045v17.488h-4.552V28.298c0-1.68-1.36-3.045-3.034-3.045-1.673 0-3.034 1.366-3.034 3.045v17.488h-4.552V28.298c0-1.68-1.361-3.045-3.035-3.045-1.673 0-3.034 1.366-3.034 3.045v17.488h-4.292V20.73zm-1.648-1.044H47.68v-1.436H8.406v1.436zm-3.113-2.48h45.414v-1.736H5.293v1.736zm22.7-14.548c.031-.018.07-.018.101 0L48.61 14.425H7.476L27.993 2.657zm25.464 48.176h-1.745v-1.577c0-.522-.423-.946-.942-.946h-1.008v-1.577c0-.522-.424-.947-.943-.947h-1.745V20.73h.867c.43 0 .78-.352.78-.783v-1.697h2.166c.474 0 .86-.387.86-.864V15.29c0-.476-.386-.864-.86-.864h-.18L28.61 1.751c-.35-.2-.784-.202-1.135 0L5.38 14.425h-.267c-.474 0-.86.388-.86.864v2.096c0 .477.386.864.86.864h2.253v1.697c0 .431.35.783.78.783h.867v25.057H7.181c-.52 0-.942.425-.942.947v1.577h-.922c-.52 0-.943.424-.943.946v1.577h-1.83c-.52 0-.944.424-.944.946v1.73c0 .49.399.891.889.891h51.023c.49 0 .888-.4.888-.892v-1.73c0-.52-.423-.945-.943-.945h0z" transform="translate(292 1149)"/>
                <path d="M27.976 10.397c-1.062 0-1.927-.864-1.927-1.926 0-1.062.865-1.926 1.927-1.926 1.061 0 1.926.864 1.926 1.926 0 1.062-.865 1.926-1.926 1.926m0-4.953c-1.67 0-3.027 1.358-3.027 3.027 0 1.67 1.357 3.027 3.027 3.027 1.668 0 3.026-1.358 3.026-3.027s-1.358-3.027-3.026-3.027" transform="translate(292 1149)"/>
            </g>
        </g>
    </g>
</svg>
