<svg xmlns="http://www.w3.org/2000/svg" width="58" height="20" viewBox="0 0 58 20">
    <g fill="none">
        <path fill="#9EA0A4" d="M25.102 18.847h-4.704L23.338.58h4.705l-2.941 18.267zM16.44.58l-4.485 12.564-.53-2.705-1.583-8.214S9.651.58 7.611.58H.196L.11.89s2.268.476 4.921 2.087l4.087 15.87h4.902L21.503.58H16.44zm37.002 18.267h4.32L53.994.58h-3.781c-1.747 0-2.172 1.36-2.172 1.36l-7.016 16.907h4.904l.98-2.713h5.98l.552 2.713zm-5.177-6.462l2.472-6.836 1.39 6.836h-3.862zm-6.871-7.412l.671-3.923S39.993.254 37.834.254c-2.335 0-7.878 1.031-7.878 6.047 0 4.72 6.506 4.778 6.506 7.257s-5.836 2.034-7.762.471l-.7 4.102s2.101 1.031 5.31 1.031c3.21 0 8.054-1.68 8.054-6.254 0-4.75-6.565-5.191-6.565-7.256 0-2.066 4.582-1.8 6.595-.68z" transform="translate(0 .455)"/>
        <path fill="#ADB0B4" d="M11.425 10.44L9.842 2.223S9.651.58 7.611.58H.196L.11.889s3.564.746 6.982 3.544c3.268 2.674 4.334 6.006 4.334 6.006z" transform="translate(0 .455)"/>
    </g>
</svg>
