<svg 
 xmlns="http://www.w3.org/2000/svg"
 xmlns:xlink="http://www.w3.org/1999/xlink"
 width="81px" height="66px">
<defs>
<linearGradient id="PSgrad_0" x1="0%" x2="54.464%" y1="83.867%" y2="0%">
  <stop offset="0%" stop-color="rgb(74,165,238)" stop-opacity="1" />
  <stop offset="100%" stop-color="rgb(89,61,234)" stop-opacity="1" />
</linearGradient>

</defs>
<path fill-rule="evenodd"  fill="url(#PSgrad_0)"
 d="M80.780,62.098 C80.531,62.364 80.144,62.442 79.809,62.298 L76.779,60.984 L76.076,64.340 C76.000,64.706 75.694,64.979 75.321,65.016 C75.292,65.019 75.263,65.021 75.236,65.021 C74.895,65.021 74.582,64.819 74.446,64.501 L71.462,57.545 C71.372,57.548 71.284,57.558 71.193,57.558 C70.731,57.558 70.280,57.511 69.842,57.428 L66.945,63.398 C66.801,63.694 66.499,63.880 66.172,63.880 C66.145,63.880 66.119,63.880 66.093,63.876 C65.736,63.843 65.438,63.595 65.343,63.250 L64.547,60.343 L61.463,61.540 C61.123,61.673 60.732,61.575 60.496,61.295 C60.258,61.015 60.226,60.616 60.415,60.302 L64.607,53.338 C64.184,52.423 63.942,51.408 63.942,50.336 C63.942,46.353 67.195,43.113 71.193,43.113 C75.190,43.113 78.442,46.353 78.442,50.336 C78.442,51.754 78.024,53.074 77.312,54.191 L80.915,61.120 C81.082,61.442 81.028,61.834 80.780,62.098 ZM63.179,59.037 L64.812,58.403 C65.039,58.314 65.292,58.327 65.510,58.436 C65.728,58.545 65.888,58.741 65.953,58.975 L66.397,60.596 L68.189,56.901 C67.197,56.449 66.324,55.786 65.632,54.963 L63.179,59.037 ZM71.193,44.824 C68.141,44.824 65.660,47.296 65.660,50.336 C65.660,53.375 68.141,55.847 71.193,55.847 C74.243,55.847 76.725,53.375 76.725,50.336 C76.725,47.296 74.243,44.824 71.193,44.824 ZM76.120,55.618 C75.302,56.376 74.312,56.949 73.211,57.268 L74.952,61.327 L75.313,59.606 C75.365,59.353 75.529,59.139 75.759,59.020 C75.987,58.901 76.258,58.892 76.496,58.995 L78.278,59.768 L76.120,55.618 ZM62.198,53.261 L47.625,53.261 C47.151,53.261 46.767,52.879 46.767,52.406 C46.767,51.933 47.151,51.550 47.625,51.550 L62.198,51.550 C62.673,51.550 63.057,51.933 63.057,52.406 C63.057,52.879 62.673,53.261 62.198,53.261 ZM47.625,40.482 L65.850,40.482 C66.324,40.482 66.708,40.864 66.708,41.338 C66.708,41.810 66.324,42.193 65.850,42.193 L47.625,42.193 C47.151,42.193 46.767,41.810 46.767,41.338 C46.767,40.864 47.151,40.482 47.625,40.482 ZM47.625,47.905 L62.198,47.905 C62.673,47.905 63.057,48.289 63.057,48.761 C63.057,49.234 62.673,49.617 62.198,49.617 L47.625,49.617 C47.151,49.617 46.767,49.234 46.767,48.761 C46.767,48.289 47.151,47.905 47.625,47.905 ZM47.625,44.262 L62.198,44.262 C62.673,44.262 63.057,44.645 63.057,45.117 C63.057,45.590 62.673,45.973 62.198,45.973 L47.625,45.973 C47.151,45.973 46.767,45.590 46.767,45.117 C46.767,44.645 47.151,44.262 47.625,44.262 ZM74.476,43.006 C74.001,43.006 73.617,42.623 73.617,42.150 L73.617,37.500 C73.617,37.024 73.493,36.678 73.239,36.441 C72.789,36.024 71.982,35.981 71.702,36.001 C71.543,36.018 61.016,35.971 53.279,35.971 C49.364,35.971 46.152,35.979 45.325,36.004 C44.770,36.019 44.355,36.167 44.095,36.443 C43.730,36.830 43.725,37.395 43.725,37.401 C43.732,38.033 43.867,52.452 43.725,55.506 C43.694,56.160 43.837,56.644 44.150,56.944 C44.603,57.382 45.391,57.428 45.655,57.402 L59.753,57.398 C60.228,57.398 60.612,57.781 60.612,58.254 C60.612,58.727 60.228,59.110 59.753,59.110 L45.730,59.110 C45.710,59.112 45.627,59.119 45.498,59.119 C45.006,59.119 43.842,59.017 42.970,58.189 C42.277,57.530 41.954,56.601 42.009,55.427 C42.041,54.724 42.059,53.371 42.066,51.714 C37.925,54.123 33.130,55.541 27.992,55.541 C27.967,55.541 27.941,55.539 27.915,55.539 C27.912,55.539 27.909,55.541 27.905,55.541 C27.901,55.541 27.897,55.538 27.893,55.538 C19.391,55.509 11.774,51.695 6.657,45.710 C6.647,45.696 6.630,45.691 6.621,45.676 C6.618,45.672 6.618,45.667 6.615,45.662 C2.499,40.826 0.010,34.582 0.010,27.770 C0.010,12.491 12.509,0.055 27.893,0.001 C27.897,0.001 27.901,-0.001 27.905,-0.001 C27.909,-0.001 27.912,0.001 27.915,0.001 C27.941,0.000 27.967,-0.001 27.992,-0.001 C43.353,-0.001 55.858,12.347 55.970,27.565 C55.970,27.574 55.975,27.582 55.975,27.591 C55.975,27.598 55.971,27.604 55.971,27.611 C55.971,27.664 55.975,27.717 55.975,27.770 C55.975,30.009 55.684,32.177 55.174,34.262 C62.439,34.266 71.051,34.292 71.639,34.292 C71.742,34.277 73.314,34.183 74.398,35.178 C74.825,35.571 75.335,36.292 75.335,37.500 L75.335,42.150 C75.335,42.623 74.951,43.006 74.476,43.006 ZM23.643,53.441 C20.442,49.271 18.241,45.378 16.722,41.943 C13.045,43.130 10.123,44.634 8.720,45.414 C12.586,49.569 17.783,52.466 23.643,53.441 ZM7.554,44.100 C8.859,43.348 11.989,41.670 16.054,40.350 C13.643,34.299 13.386,29.919 13.384,28.447 L1.762,28.447 C1.917,34.363 4.052,39.794 7.554,44.100 ZM1.781,26.736 L13.393,26.736 L13.393,26.730 C13.634,22.215 14.510,18.299 15.664,14.948 C11.763,13.624 8.817,12.017 7.637,11.330 C4.155,15.567 2.013,20.911 1.781,26.736 ZM8.813,10.023 C10.100,10.744 12.803,12.152 16.252,13.326 C18.386,7.886 21.195,4.183 22.961,2.201 C17.424,3.272 12.520,6.083 8.813,10.023 ZM27.046,1.757 C26.604,1.773 26.160,1.786 25.723,1.824 C25.389,2.125 20.971,6.209 17.920,13.851 C20.269,14.541 22.862,15.072 25.525,15.186 L27.046,15.186 L27.046,1.757 ZM27.046,16.896 L25.488,16.896 C22.599,16.773 19.819,16.206 17.325,15.472 C16.203,18.684 15.348,22.433 15.113,26.736 L27.046,26.736 L27.046,16.896 ZM27.046,28.447 L15.108,28.447 C15.128,29.821 15.415,34.039 17.736,39.844 C20.067,39.195 22.623,38.702 25.271,38.589 L27.046,38.589 L27.046,28.447 ZM27.046,40.300 L25.309,40.300 C22.912,40.402 20.569,40.847 18.409,41.439 C20.033,45.092 22.443,49.273 26.053,53.732 C26.382,53.756 26.714,53.770 27.046,53.782 L27.046,40.300 ZM42.071,49.747 C42.072,47.563 42.062,45.127 42.049,43.000 C41.085,42.641 40.143,42.319 39.248,42.048 C37.764,45.443 35.599,49.297 32.420,53.445 C35.920,52.852 39.185,51.572 42.071,49.747 ZM28.764,53.800 C29.175,53.789 29.589,53.785 29.996,53.754 C33.589,49.314 35.964,45.176 37.553,41.569 C33.184,40.425 30.143,40.301 30.092,40.299 L28.764,40.300 L28.764,53.800 ZM28.764,38.589 L30.120,38.588 C30.357,38.596 33.610,38.733 38.227,39.970 C40.722,33.640 40.715,29.269 40.685,28.447 L28.764,28.447 L28.764,38.589 ZM28.764,26.736 L40.650,26.736 C40.392,22.477 39.504,18.746 38.347,15.536 C33.767,16.755 30.546,16.889 30.326,16.896 L28.764,16.896 L28.764,26.736 ZM28.764,1.748 L28.764,15.186 L30.298,15.185 C30.333,15.184 33.373,15.054 37.734,13.913 C34.550,6.160 29.950,1.978 29.749,1.798 C29.422,1.776 29.094,1.758 28.764,1.748 ZM32.465,2.116 C34.260,4.104 37.195,7.894 39.423,13.437 C41.838,12.708 44.551,11.661 47.335,10.202 C43.489,6.036 38.311,3.118 32.465,2.116 ZM48.499,11.530 C45.505,13.136 42.603,14.268 40.026,15.056 C41.208,18.396 42.109,22.282 42.371,26.736 L54.205,26.736 C53.976,20.999 51.889,15.736 48.499,11.530 ZM42.406,28.447 C42.453,29.473 42.459,33.972 39.914,40.456 C40.600,40.667 41.312,40.908 42.038,41.168 C42.023,39.012 42.008,37.485 42.008,37.437 C42.005,37.328 41.992,36.174 42.844,35.271 C43.429,34.651 44.246,34.322 45.274,34.292 C46.133,34.268 49.411,34.261 53.381,34.261 C53.871,32.394 54.174,30.453 54.231,28.447 L42.406,28.447 Z"/>
</svg>