<svg 
 xmlns="http://www.w3.org/2000/svg"
 xmlns:xlink="http://www.w3.org/1999/xlink"
 width="57px" height="61px">
<defs>
<linearGradient id="PSgrad_0" x1="0%" x2="54.464%" y1="83.867%" y2="0%">
  <stop offset="0%" stop-color="rgb(74,165,238)" stop-opacity="1" />
  <stop offset="100%" stop-color="rgb(89,61,234)" stop-opacity="1" />
</linearGradient>

</defs>
<path fill-rule="evenodd"  fill="url(#PSgrad_0)"
 d="M56.030,53.686 C56.030,53.986 55.911,54.274 55.699,54.485 L50.505,59.688 C50.285,59.909 49.997,60.019 49.707,60.019 C49.417,60.019 49.129,59.909 48.909,59.688 L35.899,46.657 C32.252,49.045 27.906,50.447 23.233,50.447 C10.427,50.447 0.009,40.012 0.009,27.183 C0.009,14.356 10.427,3.921 23.233,3.921 C26.848,3.921 30.312,4.730 33.528,6.326 C34.087,6.604 34.316,7.282 34.039,7.842 C33.762,8.401 33.086,8.632 32.526,8.353 C29.624,6.913 26.498,6.183 23.233,6.183 C11.672,6.183 2.267,15.604 2.267,27.183 C2.267,38.763 11.672,48.184 23.233,48.184 C34.793,48.184 44.197,38.763 44.197,27.183 C44.197,24.067 43.533,21.069 42.222,18.272 C41.957,17.707 42.200,17.034 42.764,16.767 C43.329,16.503 44.003,16.746 44.267,17.312 C45.719,20.410 46.456,23.731 46.456,27.183 C46.456,31.855 45.061,36.201 42.685,39.850 L55.699,52.886 C55.911,53.098 56.030,53.386 56.030,53.686 ZM41.639,42.000 L37.983,45.544 L49.707,57.289 L53.304,53.686 L41.639,42.000 ZM23.494,42.067 C24.118,42.067 24.623,42.574 24.623,43.199 C24.623,43.823 24.118,44.330 23.494,44.330 C14.055,44.330 6.376,36.638 6.376,27.183 C6.376,26.558 6.881,26.052 7.505,26.052 C8.129,26.052 8.634,26.558 8.634,27.183 C8.634,35.390 15.300,42.067 23.494,42.067 ZM25.359,34.805 C25.169,35.108 24.846,35.302 24.488,35.328 C24.461,35.330 24.434,35.331 24.406,35.331 C24.079,35.331 23.766,35.189 23.551,34.939 L12.969,22.659 C12.561,22.186 12.614,21.472 13.086,21.064 C13.555,20.656 14.271,20.707 14.678,21.181 L24.267,32.307 L44.373,0.532 C44.707,0.005 45.406,-0.152 45.931,0.182 C46.458,0.517 46.614,1.215 46.280,1.743 L25.359,34.805 Z"/>
</svg>