<svg xmlns="http://www.w3.org/2000/svg" xmlns:xlink="http://www.w3.org/1999/xlink" width="36" height="36" viewBox="0 0 36 36">
  <defs>
    <clipPath id="clip-path">
      <circle id="Ellipse_2603" data-name="Ellipse 2603" cx="18" cy="18" r="18" transform="translate(7674 2069)" fill="#fff" stroke="#707070" stroke-width="1"/>
    </clipPath>
  </defs>
  <g id="Mask_Group_119350" data-name="Mask Group 119350" transform="translate(-7674 -2069)" clip-path="url(#clip-path)">
    <g id="administrator" transform="translate(7682.539 2078.234)">
      <path id="Path_105124" data-name="Path 105124" d="M18.112,7.636,16.9,7.408a5.393,5.393,0,0,0-.607-1.366l.759-.987a.8.8,0,0,0-.076-.987L15.228,2.322a.8.8,0,0,0-.987-.076l-.987.683a9.048,9.048,0,0,0-1.518-.607l-.228-1.215A.739.739,0,0,0,10.749.5H8.243a.817.817,0,0,0-.759.607L7.332,2.322a3.922,3.922,0,0,0-1.442.607l-.911-.683a.715.715,0,0,0-.987.076L2.246,4.068a.8.8,0,0,0-.076.987l.683.911a5.3,5.3,0,0,0-.607,1.518l-1.139.152A.739.739,0,0,0,.5,8.4V10.9a.817.817,0,0,0,.607.759l1.139.152a12.657,12.657,0,0,0,.607,1.518l-.607.911a.715.715,0,0,0,.076.987l1.746,1.746a.8.8,0,0,0,.987.076l.911-.683a10.755,10.755,0,0,0,1.366.607l.152,1.139a.739.739,0,0,0,.759.607h2.505a.817.817,0,0,0,.759-.607l.152-1.139a8.227,8.227,0,0,0,1.442-.607l.987.683a.8.8,0,0,0,.987-.076l1.746-1.746a.8.8,0,0,0,.076-.987l-.683-.987a10.755,10.755,0,0,0,.607-1.366l1.215-.228a.739.739,0,0,0,.607-.759V8.4a.681.681,0,0,0-.531-.759Zm-4.1,5.542a5.74,5.74,0,0,0-2.581-1.822c-.152-.076-.3,0-.38,0a4.433,4.433,0,0,1-1.366.3,2.78,2.78,0,0,1-1.366-.3.339.339,0,0,0-.38,0,5.357,5.357,0,0,0-2.581,1.822A5.677,5.677,0,0,1,9.838,3.992a5.622,5.622,0,0,1,5.618,5.694A7.95,7.95,0,0,1,14.013,13.178Z" transform="translate(-0.5 -0.5)" fill="#008445"/>
      <path id="Path_105125" data-name="Path 105125" d="M11.777,7.6A2.284,2.284,0,0,0,9.5,9.877a2.237,2.237,0,0,0,2.277,2.277,2.284,2.284,0,0,0,2.277-2.277A2.237,2.237,0,0,0,11.777,7.6Z" transform="translate(-2.668 -2.21)" fill="#008445"/>
    </g>
  </g>
</svg>
