<svg xmlns="http://www.w3.org/2000/svg" viewBox="0 0 70 70"><path fill="#dab96b" d="M35.5 22c-4.7 0-7.5 5.6-7.5 12.5S30.8 47 35.5 47 43 41.4 43 34.5 40.2 22 35.5 22zm0 23C32 45 30 40.2 30 34.5S32 24 35.5 24 41 28.8 41 34.5 39 45 35.5 45zm-17-23c-4.7 0-7.5 5.6-7.5 12.5S13.8 47 18.5 47 26 41.4 26 34.5 23.2 22 18.5 22zm0 23C15 45 13 40.2 13 34.5S15 24 18.5 24 24 28.8 24 34.5 22 45 18.5 45zM55 27.001C55 24.273 52.727 22 49.999 22s-5.001 2.273-5.001 5.001 2.273 5.001 5.001 5.001S55 29.729 55 27.001zm-8.002 0c0-1.629 1.372-3.001 3.001-3.001S53 25.372 53 27.001s-1.372 3.001-3.001 3.001-3.001-1.372-3.001-3.001zM65.6 22.2c-.5-.3-1.1-.2-1.4.2l-16 23c-.3.5-.2 1.1.2 1.4.2.1.4.2.6.2.3 0 .6-.1.8-.4l16-23c.3-.5.2-1.1-.2-1.4zM69 42c0-2.727-2.273-5-5-5s-5 2.273-5 5 2.273 5 5 5 5-2.273 5-5zm-5 3c-1.629 0-3-1.371-3-3s1.371-3 3-3 3 1.371 3 3-1.371 3-3 3zM63 5h2v2c0 .6.4 1 1 1s1-.4 1-1V5h2c.6 0 1-.4 1-1s-.4-1-1-1h-2V1c0-.6-.4-1-1-1s-1 .4-1 1v2h-2c-.6 0-1 .4-1 1s.4 1 1 1zm-30 5c0 .6.4 1 1 1s1-.4 1-1c.6 0 1-.4 1-1s-.4-1-1-1c0-.6-.4-1-1-1s-1 .4-1 1c-.6 0-1 .4-1 1s.4 1 1 1zM5 7h1v1c0 .6.4 1 1 1s1-.4 1-1V7h1c.6 0 1-.4 1-1s-.4-1-1-1H8V4c0-.6-.4-1-1-1s-1 .4-1 1v1H5c-.6 0-1 .4-1 1s.4 1 1 1zm39 10v-1h1c.6 0 1-.4 1-1s-.4-1-1-1h-1v-1c0-.6-.4-1-1-1s-1 .4-1 1v1h-1c-.6 0-1 .4-1 1s.4 1 1 1h1v1c0 .6.4 1 1 1s1-.4 1-1zm-6 41h-2v-2c0-.6-.4-1-1-1s-1 .4-1 1v2h-2c-.6 0-1 .4-1 1s.4 1 1 1h2v2c0 .6.4 1 1 1s1-.4 1-1v-2h2c.6 0 1-.4 1-1s-.4-1-1-1zm-7 9c0-.6-.4-1-1-1s-1 .4-1 1c-.6 0-1 .4-1 1s.4 1 1 1c0 .6.4 1 1 1s1-.4 1-1c.6 0 1-.4 1-1s-.4-1-1-1zM18 54h-1v-1c0-.6-.4-1-1-1s-1 .4-1 1v1h-1c-.6 0-1 .4-1 1s.4 1 1 1h1v1c0 .6.4 1 1 1s1-.4 1-1v-1h1c.6 0 1-.4 1-1s-.4-1-1-1zm41 10h-1v-1c0-.6-.4-1-1-1s-1 .4-1 1v1h-1c-.6 0-1 .4-1 1s.4 1 1 1h1v1c0 .6.4 1 1 1s1-.4 1-1v-1h1c.6 0 1-.4 1-1s-.4-1-1-1zm10-11c0-.6-.4-1-1-1s-1 .4-1 1c-.6 0-1 .4-1 1s.4 1 1 1c0 .6.4 1 1 1s1-.4 1-1c.6 0 1-.4 1-1s-.4-1-1-1zM3 59c0-.6-.4-1-1-1s-1 .4-1 1c-.6 0-1 .4-1 1s.4 1 1 1c0 .6.4 1 1 1s1-.4 1-1c.6 0 1-.4 1-1s-.4-1-1-1zm4-11.998a1 1 0 0 1-1-1V25.705l-4.241 4.948a.998.998 0 0 1-1.409.108.998.998 0 0 1-.108-1.41l6-7A1 1 0 0 1 8 23.002v23a1 1 0 0 1-1 1z"/></svg>