<svg width="24" height="25" viewBox="0 0 24 25" fill="none" xmlns="http://www.w3.org/2000/svg">
<path d="M15.5006 14.5H14.7106L14.4306 14.23C15.6306 12.83 16.2506 10.92 15.9106 8.89C15.4406 6.11 13.1206 3.89 10.3206 3.55C6.09063 3.03 2.53063 6.59 3.05063 10.82C3.39063 13.62 5.61063 15.94 8.39063 16.41C10.4206 16.75 12.3306 16.13 13.7306 14.93L14.0006 15.21V16L18.2506 20.25C18.6606 20.66 19.3306 20.66 19.7406 20.25C20.1506 19.84 20.1506 19.17 19.7406 18.76L15.5006 14.5ZM9.50063 14.5C7.01063 14.5 5.00063 12.49 5.00063 10C5.00063 7.51 7.01063 5.5 9.50063 5.5C11.9906 5.5 14.0006 7.51 14.0006 10C14.0006 12.49 11.9906 14.5 9.50063 14.5Z" fill="#2A2A2B"/>
</svg>
