<svg width="11" height="12" viewBox="0 0 11 12" fill="none" xmlns="http://www.w3.org/2000/svg">
<path d="M10.4765 0.0175781H6.26842C5.93551 0.0357908 5.61879 0.167104 5.37067 0.389792L0.152064 5.60609C0.0546039 5.70534 0 5.83888 0 5.97798C0 6.11707 0.0546039 6.25061 0.152064 6.34986L4.668 10.8655C4.76726 10.963 4.9008 11.0176 5.03991 11.0176C5.17901 11.0176 5.31255 10.963 5.41181 10.8655L10.6284 5.64922C10.8509 5.40102 10.982 5.08434 11 4.75153V0.54372C10.9988 0.404554 10.943 0.271431 10.8445 0.173022C10.7461 0.0746125 10.613 0.0187906 10.4738 0.0175781H10.4765ZM7.84893 4.22472C7.64093 4.22472 7.43759 4.16305 7.26464 4.04749C7.0917 3.93194 6.9569 3.7677 6.8773 3.57554C6.7977 3.38338 6.77687 3.17194 6.81745 2.96794C6.85803 2.76395 6.9582 2.57657 7.10528 2.42949C7.25236 2.28242 7.43975 2.18227 7.64376 2.14169C7.84776 2.10111 8.05922 2.12194 8.25139 2.20153C8.44356 2.28113 8.60781 2.41592 8.72337 2.58885C8.83893 2.76179 8.90061 2.96511 8.90061 3.1731C8.90061 3.45201 8.78981 3.71949 8.59258 3.91671C8.39535 4.11393 8.12785 4.22472 7.84893 4.22472Z" fill="#959292"/>
</svg>
