<!-- Generated by IcoMoon.io -->
<svg version="1.1" xmlns="http://www.w3.org/2000/svg" width="1024" height="1024" viewBox="0 0 1024 1024">
<title></title>
<g id="icomoon-ignore">
</g>
<path fill="#83C11F" d="M204.838 648.519v0 0z"></path>
<path fill="#83C11F" d="M750.946 0.015v273.054h273.054z"></path>
<path fill="#83C11F" d="M340.409 981.576l-52.29-209.774c32.63-31.060 53.246-74.749 53.246-123.284 0-94.067-76.592-170.659-170.659-170.659s-170.659 76.592-170.659 170.659c0 48.535 20.616 92.224 53.246 123.284l-52.29 209.774c-3.208 12.902 1.434 26.555 11.81 34.951 10.376 8.328 24.711 9.762 36.589 3.891l121.304-60.686 121.236 60.686c4.847 2.321 10.103 3.55 15.291 3.55 7.577 0 15.155-2.526 21.366-7.441 10.376-8.396 15.018-21.981 11.81-34.951zM170.706 750.914c-56.454 0-102.395-45.941-102.395-102.395s45.941-102.395 102.395-102.395 102.395 45.941 102.395 102.395-45.941 102.395-102.395 102.395z"></path>
<path fill="#83C11F" d="M750.946 341.333c-37.613 0-68.264-30.65-68.264-68.264v-273.054h-409.581c-37.613 0-68.264 30.65-68.264 68.264v344.799c115.502 16.725 204.791 115.365 204.791 235.441 0 51.607-16.383 100.62-46.692 141.374l41.368 165.812h551.433c37.681 0 68.264-30.582 68.264-68.264v-546.108h-273.054zM375.496 273.069c-18.841 0-34.132-15.291-34.132-34.132s15.291-34.132 34.132-34.132h204.791c18.841 0 34.132 15.291 34.132 34.132s-15.291 34.132-34.132 34.132h-204.791zM853.341 682.65h-341.318c-18.841 0-34.132-15.291-34.132-34.132s15.291-34.132 34.132-34.132h341.318c18.841 0 34.132 15.291 34.132 34.132s-15.291 34.132-34.132 34.132zM853.341 477.86h-409.581c-18.841 0-34.132-15.291-34.132-34.132s15.291-34.132 34.132-34.132h409.581c18.841 0 34.132 15.291 34.132 34.132s-15.291 34.132-34.132 34.132z"></path>
</svg>
