<?xml version="1.0" encoding="UTF-8"?> <svg xmlns="http://www.w3.org/2000/svg" width="97" height="51" viewBox="0 0 97 51" fill="none"><path d="M34.5068 13.3999H39.5068V37.9529H43.2138V42.0709H34.5138L34.5068 13.3999Z" fill="#821ec8"></path><path d="M45.8631 16.0841C45.8491 15.6892 45.9167 15.2957 46.0614 14.928C46.2062 14.5604 46.4252 14.2265 46.7047 13.9472C46.9842 13.6679 47.3182 13.4492 47.6859 13.3046C48.0537 13.1601 48.4473 13.0928 48.8421 13.1071C49.2351 13.0935 49.6266 13.1616 49.9919 13.3069C50.3573 13.4521 50.6886 13.6716 50.9649 13.9513C51.2412 14.231 51.4566 14.5649 51.5974 14.932C51.7382 15.2991 51.8015 15.6914 51.7831 16.0841C51.8009 16.475 51.737 16.8653 51.5955 17.2301C51.454 17.5949 51.238 17.9262 50.9612 18.2029C50.6845 18.4795 50.3531 18.6955 49.9882 18.8369C49.6234 18.9782 49.233 19.042 48.8421 19.0241C48.4494 19.0424 48.0571 18.9792 47.69 18.8384C47.3229 18.6977 46.9889 18.4824 46.709 18.2063C46.4292 17.9301 46.2095 17.5989 46.064 17.2337C45.9184 16.8685 45.85 16.4771 45.8631 16.0841ZM46.3411 22.2591H51.3411V42.0671H46.3411V22.2591Z" fill="#821ec8"></path><path d="M77.475 32.077C77.475 38.289 73.32 42.441 67.996 42.441C66.7153 42.5063 65.4391 42.2443 64.2877 41.6797C63.1363 41.1151 62.1476 40.2665 61.415 39.214V50.167H56.415V22.259H61.229L61.34 25.236C62.0648 24.15 63.0592 23.2707 64.2257 22.6842C65.3922 22.0977 66.691 21.824 67.995 21.89C73.32 21.89 77.475 25.934 77.475 32.077ZM72.292 32.113C72.292 28.547 70.092 26.157 66.847 26.157C63.576 26.157 61.402 28.547 61.402 32.149C61.402 35.751 63.572 38.141 66.847 38.141C70.088 38.141 72.292 35.747 72.292 32.109V32.113Z" fill="#821ec8"></path><path d="M80.4883 40.0859L82.3643 37.0609C84.0918 38.0684 86.0649 38.5773 88.0643 38.5309C89.9013 38.5309 91.1523 37.7589 91.1523 36.5459C91.1523 35.3329 89.7523 34.6699 87.7703 34.1559L86.1163 33.7159C82.7703 32.8329 80.4913 31.5459 80.4913 28.4219C80.4913 24.4889 83.5792 21.8789 88.2842 21.8789C90.9106 21.7656 93.5104 22.4443 95.7463 23.8269L93.6462 27.0979C92.1054 26.2394 90.368 25.7959 88.6042 25.8109C86.8042 25.8109 85.5533 26.4729 85.5533 27.6109C85.5533 28.7889 86.8033 29.3389 88.5323 29.7809L90.1863 30.2589C93.5663 31.1399 96.2502 32.6789 96.2502 36.1759C96.2502 39.9249 92.9433 42.4279 87.9813 42.4279C85.2837 42.5697 82.6249 41.7386 80.4883 40.0859Z" fill="#821ec8"></path><path d="M4.36098 42.0601C6.35472 42.0601 7.97098 40.4438 7.97098 38.4501C7.97098 36.4563 6.35472 34.8401 4.36098 34.8401C2.36723 34.8401 0.750977 36.4563 0.750977 38.4501C0.750977 40.4438 2.36723 42.0601 4.36098 42.0601Z" fill="#ADF837"></path><path d="M7.97502 26.93L7.97102 0.61499H0.749023V35.048L7.97502 26.93Z" fill="#821ec8"></path><path d="M20.0056 13.4119H29.1376L16.4456 26.9549L29.8296 42.0369H20.6956L7.97559 26.9309L20.0056 13.4119Z" fill="#821ec8"></path></svg> 