<svg xmlns="http://www.w3.org/2000/svg" viewBox="0 0 24 24"><defs><style>.cls-1{fill:#fff;}</style></defs><title>Grey IG</title><g id="Layer_2" data-name="Layer 2"><g id="Layer_1-2" data-name="Layer 1"><path class="cls-1" d="M18,0H6A6,6,0,0,0,0,6V18a6,6,0,0,0,6,6H18a6,6,0,0,0,6-6V6A6,6,0,0,0,18,0Zm4,18a4,4,0,0,1-4,4H6a4,4,0,0,1-4-4V6A4,4,0,0,1,6,2H18a4,4,0,0,1,4,4Z"/><circle class="cls-1" cx="18.5" cy="5.5" r="1.5"/><path class="cls-1" d="M12,6a6,6,0,1,0,6,6A6,6,0,0,0,12,6Zm0,10a4,4,0,1,1,4-4A4,4,0,0,1,12,16Z"/></g></g></svg>