<svg xmlns="http://www.w3.org/2000/svg" viewBox="0 0 34.28 24"><defs><style>.cls-1{fill:#fff;}</style></defs><title>Grey YT</title><g id="Layer_2" data-name="Layer 2"><g id="Layer_1-2" data-name="Layer 1"><path class="cls-1" d="M33.57,3.76a4.28,4.28,0,0,0-3-3C27.87,0,17.14,0,17.14,0S6.41,0,3.73.71a4.37,4.37,0,0,0-3,3.05A44.69,44.69,0,0,0,0,12a44.67,44.67,0,0,0,.71,8.24,4.28,4.28,0,0,0,3,3C6.44,24,17.14,24,17.14,24s10.73,0,13.41-.71a4.28,4.28,0,0,0,3-3A45.15,45.15,0,0,0,34.28,12S34.31,6.44,33.57,3.76ZM13.72,17.14V6.86L22.64,12Z"/></g></g></svg>