<svg width="101" height="101" viewBox="0 0 101 101" fill="none" xmlns="http://www.w3.org/2000/svg">
<g clip-path="url(#clip0_17_4968)">
<path d="M50.6174 100.969C78.2357 100.969 100.621 78.5839 100.621 50.9656C100.621 23.3473 78.2357 0.969238 50.6174 0.969238C22.9991 0.969238 0.61377 23.3546 0.61377 50.9729C0.61377 78.5912 22.9991 100.977 50.6174 100.977V100.969Z" fill="#F0F0F0"/>
<path d="M10.949 20.5201C7.02427 25.6367 4.05167 31.5383 2.33643 37.9196H28.3558L10.949 20.5201Z" fill="#0052B4"/>
<path d="M98.8988 37.9196C97.1835 31.5311 94.2109 25.6367 90.2862 20.5201L72.8867 37.9196H98.9061H98.8988Z" fill="#0052B4"/>
<path d="M2.33643 64.0189C4.05167 70.4074 7.02427 76.3018 10.949 81.4184L28.3485 64.0189H2.33643Z" fill="#0052B4"/>
<path d="M81.0631 11.3043C75.9464 7.37958 70.0449 4.40698 63.6636 2.69174V28.7111L81.0631 11.3116V11.3043Z" fill="#0052B4"/>
<path d="M20.1646 90.6415C25.2812 94.5662 31.1828 97.5388 37.5641 99.254V73.2347L20.1646 90.6342V90.6415Z" fill="#0052B4"/>
<path d="M37.5641 2.68448C31.1755 4.39972 25.2812 7.37232 20.1646 11.297L37.5641 28.6965V2.68448Z" fill="#0052B4"/>
<path d="M63.6636 99.254C70.0521 97.5388 75.9464 94.5662 81.0631 90.6415L63.6636 73.2419V99.2613V99.254Z" fill="#0052B4"/>
<path d="M72.8793 64.0189L90.2789 81.4184C94.2036 76.3018 97.1762 70.4002 98.8914 64.0189H72.8721H72.8793Z" fill="#0052B4"/>
<path d="M100.185 44.4462H57.1368V1.39805C55.0073 1.10733 52.8196 0.969238 50.6101 0.969238C48.4007 0.969238 46.213 1.10733 44.0835 1.39805V44.4462H1.04258C0.751861 46.5757 0.61377 48.7634 0.61377 50.9729C0.61377 53.1823 0.751861 55.37 1.04258 57.4995H44.0908V100.548C46.2203 100.838 48.4079 100.977 50.6174 100.977C52.8269 100.977 55.0145 100.838 57.144 100.548V57.4995H100.192C100.483 55.37 100.621 53.1823 100.621 50.9729C100.621 48.7634 100.483 46.5757 100.192 44.4462H100.185Z" fill="#D80027"/>
<path d="M63.6636 64.0189L85.969 86.3243C87.001 85.3068 87.9822 84.2311 88.9198 83.1191L69.8195 64.0189H63.6636Z" fill="#D80027"/>
<path d="M37.5642 64.0189L15.2588 86.3243C16.2763 87.3563 17.352 88.3375 18.464 89.2751L37.5642 70.1749V64.0189Z" fill="#D80027"/>
<path d="M37.5643 37.9196L15.2589 15.6142C14.2268 16.6317 13.2457 17.7074 12.3081 18.8194L31.4083 37.9196H37.5643Z" fill="#D80027"/>
<path d="M63.6636 37.9196L85.969 15.6142C84.9515 14.5821 83.8758 13.601 82.7638 12.6634L63.6636 31.7636V37.9196Z" fill="#D80027"/>
</g>
<defs>
<clipPath id="clip0_17_4968">
<rect width="100" height="100" fill="white" transform="translate(0.61377 0.969238)"/>
</clipPath>
</defs>
</svg>