<svg width="40" height="40" viewBox="0 0 120 120" fill="none" xmlns="http://www.w3.org/2000/svg">
<path d="M60.0127 86.3022C49.1155 86.3022 39.7682 79.6763 35.7808 70.2344L3.17188 79.2858C11.2058 102.962 33.6156 120 60.0127 120C75.9859 120 90.5038 113.752 101.247 103.577L76.8023 80.2442C72.247 84.0305 66.3902 86.3022 60.0127 86.3022Z" fill="#FF0033"/>
<path d="M33.7093 60.0118C33.7093 45.4822 45.4822 33.7093 60.0118 33.7093C61.763 33.7093 63.4668 33.8868 65.1114 34.2063L73.3938 1.50266C69.087 0.520607 64.6145 0 60.0118 0C26.8704 0 0 26.8704 0 60.0118C0 65.4545 0.721751 70.7316 2.08243 75.7484L34.5731 66.7206C34.017 64.579 33.7093 62.3309 33.7093 60.0118Z" fill="#FF0033"/>
<path d="M86.3015 60.0118C86.3015 66.8152 83.7222 73.0152 79.4745 77.6888L103.848 100.974C113.87 90.2544 119.999 75.8549 119.999 60.0118C119.999 32.7628 101.837 9.76139 76.9661 2.44922L68.6719 35.1883C78.942 38.7616 86.3015 48.523 86.3015 60.0118Z" fill="#FF0033"/>
</svg>