<svg width="280" height="97" viewBox="0 0 280 97" fill="none" xmlns="http://www.w3.org/2000/svg">
<path d="M47.2069 53.0283H37.9336C37.3045 53.0283 36.8056 52.3993 36.8056 51.6183V22.2908C36.8056 21.8027 36.5995 21.7268 36.4585 21.7268C36.2525 21.7268 36.1114 21.8678 35.8945 22.2149L29.5713 33.8201C29.0833 34.6661 28.3783 35.0131 27.4672 35.0131H21.8381C20.9271 35.0131 20.2221 34.6661 19.734 33.8201L13.4108 22.2149C13.2047 21.8678 13.0637 21.7268 12.8468 21.7268C12.7058 21.7268 12.4997 21.7919 12.4997 22.2908V51.6075C12.4997 52.3776 12.0117 53.0175 11.3718 53.0175H2.08759C1.5236 53.0175 0.894531 52.8006 0.894531 52.0305V3.16932C0.894531 1.69427 1.9466 0.783203 3.42165 0.783203H10.0268C11.5019 0.783203 12.4889 1.48819 13.118 2.68125L23.8772 22.7246C24.1592 23.2886 24.3652 23.6357 24.6472 23.6357C24.9292 23.6357 25.1353 23.2886 25.4173 22.7246L36.1765 2.68125C36.8056 1.48819 37.7926 0.783203 39.2676 0.783203H45.8728C47.3479 0.783203 48.4 1.77019 48.4 3.24524V52.0413C48.4108 52.8114 47.7709 53.0283 47.2069 53.0283Z" fill="white"/>
<path d="M77.8681 53.6576C66.2629 53.6576 57.0547 47.3994 57.0547 31.0871V22.7248C57.0547 6.41243 66.2629 0.154297 77.8681 0.154297C89.4733 0.154297 98.6816 6.41243 98.6816 22.7248V31.0871C98.6816 47.3994 89.4733 53.6576 77.8681 53.6576ZM86.5883 22.7139C86.5883 14.2758 83.7792 10.6857 77.8681 10.6857C71.9571 10.6857 69.2239 14.2758 69.2239 22.7139V31.0762C69.2239 39.5144 71.9679 43.1044 77.8681 43.1044C83.7683 43.1044 86.5883 39.5144 86.5883 31.0762V22.7139Z" fill="white"/>
<path d="M146.002 53.0283H139.115C137.64 53.0283 136.588 52.7463 135.46 50.8483L119.429 23.1476C119.147 22.7246 119.006 22.5836 118.8 22.5836C118.594 22.5836 118.453 22.7246 118.453 23.1476V51.6292C118.453 52.3993 117.824 53.0392 117.043 53.0392H108.746C107.976 53.0392 107.336 52.4101 107.336 51.6292V3.45132C107.336 1.97626 108.529 0.783203 110.004 0.783203H117.108C118.518 0.783203 119.212 1.48819 120.058 2.96325L136.718 31.9329C137 32.3559 137.065 32.4969 137.282 32.4969C137.423 32.4969 137.629 32.3559 137.629 31.8678V2.11726C137.629 1.34719 138.258 0.783203 139.039 0.783203H147.336C148.106 0.783203 148.746 1.34719 148.746 2.11726V50.3494C148.746 51.8244 147.477 53.0283 146.002 53.0283Z" fill="white"/>
<path d="M190.516 52.7465C188.054 53.0936 184.464 53.6576 176.871 53.6576C167.804 53.6576 159.789 51.3365 159.789 38.5382V15.1977C159.789 2.39942 167.88 0.154297 176.947 0.154297C184.54 0.154297 188.054 0.718288 190.516 1.06536C191.503 1.20636 191.926 1.55343 191.926 2.47534V9.01547C191.926 9.78553 191.297 10.4254 190.516 10.4254H176.242C172.934 10.4254 171.741 11.5534 171.741 15.2085V21.6077H189.952C190.722 21.6077 191.362 22.2367 191.362 23.0176V29.6988C191.362 30.4688 190.733 31.1087 189.952 31.1087H171.741V38.5599C171.741 42.215 172.934 43.343 176.242 43.343H190.516C191.286 43.343 191.926 43.9721 191.926 44.753V51.2931C191.915 52.1825 191.503 52.6055 190.516 52.7465Z" fill="white"/>
<path d="M235.298 10.6964H223.91V51.6183C223.91 52.3884 223.281 53.0283 222.5 53.0283H213.292C212.522 53.0283 211.882 52.3993 211.882 51.6183V10.6964H200.418C199.648 10.6964 199.008 10.1324 199.008 9.36238V2.11726C199.008 1.34719 199.637 0.783203 200.418 0.783203H235.298C236.069 0.783203 236.774 1.34719 236.774 2.11726V9.36238C236.784 10.1324 236.079 10.6964 235.298 10.6964Z" fill="white"/>
<path d="M278.127 53.0286H268.279C267.574 53.0286 267.01 52.4646 266.869 51.7596L264.342 40.2303H249.928L247.4 51.7596C247.259 52.4646 246.695 53.0286 245.99 53.0286H236.142C235.437 53.0286 234.949 52.6056 234.949 51.9006C234.949 51.8247 235.014 51.6837 235.014 51.5535L245.492 7.95267C247.108 1.20646 252.314 0.143555 257.162 0.143555C262.01 0.143555 267.151 1.19562 268.767 7.95267L279.244 51.5535C279.244 51.6945 279.309 51.8355 279.309 51.9006C279.32 52.6056 278.821 53.0286 278.127 53.0286ZM258.084 11.1848C257.943 10.4798 257.802 10.1327 257.173 10.1327C256.544 10.1327 256.327 10.4798 256.186 11.1848L251.891 30.5882H262.368L258.084 11.1848Z" fill="white"/>
<path d="M0.730469 96.0867L4.19034 71.9219H4.58079L14.4073 91.7483L24.1361 71.9219H24.5266L28.0081 96.0867H25.6437L23.2576 78.8091L14.7109 96.0867H14.0927L5.44847 78.6789L3.0732 96.0867H0.730469Z" fill="white"/>
<path d="M65.4909 71.9219L76.7599 96.0867H74.146L70.3499 88.1366H59.9377L56.1742 96.0867H53.4844L64.8943 71.9219H65.4909ZM65.1763 77.0629L61.0332 85.8047H69.2978L65.1763 77.0629Z" fill="white"/>
<path d="M103.508 71.9219H108.323C111.002 71.9219 112.825 72.0303 113.779 72.2473C115.211 72.5726 116.382 73.2776 117.282 74.3622C118.182 75.4468 118.627 76.77 118.627 78.3536C118.627 79.6659 118.313 80.8264 117.694 81.8243C117.076 82.8221 116.187 83.5813 115.037 84.0802C113.887 84.59 112.304 84.8503 110.276 84.8611L118.963 96.0759H115.981L107.293 84.8611H105.926V96.0759H103.508V71.9219ZM105.926 74.2971V82.5076L110.091 82.5401C111.707 82.5401 112.9 82.3883 113.67 82.0846C114.441 81.7809 115.048 81.2928 115.482 80.6204C115.916 79.9479 116.133 79.1887 116.133 78.3644C116.133 77.5401 115.916 76.8134 115.471 76.1518C115.026 75.4902 114.451 75.013 113.746 74.731C113.031 74.449 111.848 74.308 110.189 74.308L105.926 74.2971Z" fill="white"/>
<path d="M146.664 71.9219H149.126V80.9891L158.79 71.9219H162.033L150.428 82.7679L162.933 96.0867H159.723L149.137 84.8286V96.0867H146.675L146.664 71.9219Z" fill="white"/>
<path d="M189.441 71.9219H203.292V74.2863H191.86V81.8676H203.194V84.2321H191.86V93.7223H203.194V96.0867H189.441V71.9219Z" fill="white"/>
<path d="M227.934 74.297V71.9326H241.177V74.297H235.786V96.0975H233.324V74.297H227.934Z" fill="white"/>
<path d="M265.027 91.5856L267.077 90.3492C268.52 93.0064 270.19 94.3405 272.088 94.3405C272.902 94.3405 273.661 94.1561 274.377 93.7765C275.092 93.3969 275.635 92.8871 276.003 92.2581C276.372 91.629 276.557 90.9457 276.557 90.2407C276.557 89.4273 276.285 88.6355 275.732 87.8546C274.973 86.7808 273.596 85.4902 271.589 83.9826C269.572 82.4641 268.325 81.3578 267.826 80.6854C266.969 79.5466 266.546 78.3101 266.546 76.9869C266.546 75.9348 266.795 74.9804 267.305 74.1127C267.804 73.245 268.52 72.5617 269.431 72.0628C270.342 71.5639 271.34 71.3145 272.413 71.3145C273.552 71.3145 274.615 71.5964 275.613 72.1604C276.611 72.7244 277.652 73.7656 278.758 75.2732L276.784 76.77C275.873 75.5661 275.103 74.7743 274.463 74.3839C273.823 74.0043 273.129 73.809 272.37 73.809C271.394 73.809 270.602 74.1019 269.984 74.6984C269.366 75.2949 269.051 76.0216 269.051 76.8784C269.051 77.3991 269.16 77.9088 269.377 78.4077C269.593 78.8958 269.995 79.4381 270.58 80.0129C270.895 80.3166 271.936 81.1192 273.704 82.4316C275.797 83.9717 277.229 85.3492 278.01 86.5531C278.791 87.757 279.181 88.9717 279.181 90.1865C279.181 91.9435 278.52 93.462 277.186 94.7526C275.852 96.0433 274.236 96.6941 272.327 96.6941C270.862 96.6941 269.528 96.3036 268.335 95.5227C267.142 94.7418 266.036 93.4294 265.027 91.5856Z" fill="white"/>
</svg>