<svg xmlns="http://www.w3.org/2000/svg" width="30" height="30" viewBox="0 0 30 30">
    <g fill="#9EA0A4" fill-rule="evenodd">
        <path d="M6.12 13.573h-.236c.018-.426-.035-.77-.158-1.031-.124-.262-.287-.453-.49-.575-.201-.122-.393-.182-.574-.182-.277-.019-.473.054-.588.219-.114.164-.166.334-.153.51 0 .159.043.326.13.502.088.177.231.399.43.666l.95 1.223c.14.164.258.359.358.584.1.225.15.474.15.748.017.499-.137.94-.462 1.323-.326.383-.79.578-1.394.584-.247 0-.552-.046-.913-.137l-.254-.091c-.084-.03-.175-.058-.271-.082-.133-.037-.232-.046-.299-.028-.114.03-.18.097-.199.2h-.235l.308-2.262h.217c0 .237.033.504.1.799.066.295.203.56.41.798.209.237.506.368.892.392.386.024.65-.062.792-.26.142-.198.212-.409.212-.634 0-.401-.226-.888-.678-1.46l-.706-.857c-.205-.268-.354-.539-.448-.812-.093-.274-.14-.539-.14-.794.012-.28.08-.535.204-.766.123-.232.301-.42.533-.566.233-.146.512-.219.837-.219.17 0 .404.043.706.128.374.103.606.158.697.164.229 0 .362-.097.398-.292h.235l-.362 2.208zm.078 4.157c0-.105.035-.192.106-.26.07-.069.154-.103.25-.103.105 0 .19.034.257.103.067.068.1.155.1.26 0 .102-.034.187-.105.255-.07.068-.154.103-.251.103s-.18-.034-.251-.1c-.071-.067-.106-.153-.106-.258zm19.523 0c0-.105.036-.192.106-.26.071-.069.155-.103.252-.103.104 0 .19.034.256.103.067.068.1.155.1.26 0 .102-.035.187-.105.255-.071.068-.155.103-.251.103-.097 0-.18-.034-.252-.1-.07-.067-.106-.153-.106-.258zm-5.238 0c0-.105.036-.192.106-.26.071-.069.155-.103.252-.103.104 0 .19.034.256.103.067.068.1.155.1.26 0 .102-.035.187-.105.255-.071.068-.155.103-.251.103-.097 0-.18-.034-.252-.1-.07-.067-.106-.153-.106-.258zm-4.047 0c0-.105.035-.192.106-.26.07-.069.154-.103.25-.103.105 0 .19.034.258.103.067.068.1.155.1.26 0 .102-.035.187-.106.255-.07.068-.154.103-.251.103s-.18-.034-.251-.1c-.07-.067-.106-.153-.106-.258zm-4.524 0c0-.105.035-.192.106-.26.07-.069.154-.103.251-.103.104 0 .19.034.257.103.067.068.1.155.1.26 0 .102-.035.187-.106.255-.07.068-.154.103-.25.103-.098 0-.181-.034-.252-.1-.07-.067-.106-.153-.106-.258zm.106-1.791l1.384-2.573c.296-.535.425-.9.389-1.095 0-.255-.175-.392-.525-.41l.064-.256h1.863l-.063.256c-.18 0-.314.042-.398.127-.085.085-.187.231-.308.438l-3.275 5.821h-.308l-.135-4.188-2.398 4.188h-.317l-.18-5.812c-.013-.273-.11-.444-.29-.51-.024-.013-.062-.023-.113-.033-.051-.009-.101-.016-.15-.022-.017 0-.034-.002-.05-.005-.014-.003-.034-.004-.058-.004l.063-.256h2.389l-.072.256c-.206.018-.335.076-.39.173-.054.097-.08.228-.08.392l.135 3.513 1.493-2.673-.018-.812c0-.268-.085-.441-.254-.52-.024-.013-.105-.034-.244-.064-.018 0-.035-.002-.05-.005s-.04-.004-.077-.004l.082-.256h2.406l-.063.256c-.211.03-.357.09-.439.177-.081.089-.122.251-.122.489l.109 3.412zm3.771-3.34l.027-.086c.006-.021.012-.047.018-.078.03-.121.046-.2.046-.237.018-.164-.043-.274-.181-.328-.043-.006-.109-.01-.2-.01h-.117l.063-.255h2.362l-.064.256h-.1c-.102 0-.174.003-.216.009-.103.024-.184.073-.245.146-.06.073-.105.162-.135.269l-.09.315-1.123 4.516-.018.077c-.006.028-.015.053-.027.078-.03.134-.045.219-.045.255-.018.164.042.274.18.329.043.012.112.018.209.018h.118l-.064.237h-2.37l.063-.237h.1c.102 0 .174-.006.217-.018.15-.043.25-.114.298-.215.049-.1.106-.275.172-.524L15.79 12.6zm6.829.822h-.245c.067-.36.05-.682-.05-.967-.099-.286-.363-.43-.791-.43h-.869l-.615 2.482h.823c.272 0 .468-.082.589-.246.066-.073.135-.213.208-.42.024-.073.043-.135.058-.187.016-.051.026-.092.032-.123h.235l-.642 2.518h-.226c.018-.067.042-.213.072-.438.024-.194.024-.334 0-.42-.048-.182-.202-.273-.461-.273h-.787l-.552 2.199c-.012.079-.024.13-.036.155-.03.091-.046.176-.046.255-.018.17.04.28.172.329.03.012.1.018.208.018h.127l-.072.237h-2.362l.063-.237h.1c.103 0 .175-.006.217-.018.15-.043.252-.119.303-.228.052-.11.107-.28.168-.511L19.36 12.6c.012-.037.024-.092.036-.165.036-.097.054-.176.054-.237.018-.176-.042-.286-.181-.328-.018-.013-.047-.019-.086-.019-.04 0-.077.003-.113.01h-.118l.064-.256h3.827l-.226 1.816zm4.915.337h-.221c.192-1.186-.102-1.779-.885-1.779h-.28l-1.208 5.137c0 .018-.011.07-.034.155-.034.11-.05.194-.05.255-.012.177.047.286.178.329.028.012.093.018.195.018h.102l-.06.237h-2.227l.06-.237h.11c.09 0 .156-.006.196-.018.141-.037.24-.114.293-.233.054-.119.103-.287.149-.506l1.207-5.137h-.331c-.737 0-1.287.593-1.65 1.78h-.213l.528-2.154h4.472l-.331 2.153z" transform="translate(0 .234)"/>
        <path fill-rule="nonzero" d="M15 0c8.282 0 15 6.608 15 14.766 0 8.157-6.718 14.765-15 14.765S0 22.923 0 14.766C0 6.71 6.55.168 14.686.003c.006-.002.011-.001.016 0L15 0zm9.727 24.726h-3.913c-1.02 1.62-2.271 2.88-3.664 3.685 2.92-.441 5.542-1.765 7.577-3.685zm-15.682 0H5.273c1.987 1.875 4.534 3.18 7.37 3.651-1.366-.808-2.594-2.055-3.598-3.651zm5.478-.001l-4.332.001c1.212 1.737 2.71 2.935 4.332 3.455v-3.456zm5.145.001l-4.192-.001v3.404c1.568-.542 3.015-1.719 4.192-3.403zM7.026 19.924h-5.06c.58 1.414 1.392 2.713 2.389 3.85h4.141c-.617-1.165-1.114-2.462-1.47-3.85zm7.497-.001H8.011c.382 1.407.915 2.708 1.575 3.852l4.937-.002v-3.85zm7.327.001l-6.374-.001v3.85l4.797.002c.661-1.143 1.195-2.444 1.577-3.85zm6.184 0h-5.198c-.357 1.388-.854 2.686-1.472 3.85h4.281c.997-1.137 1.809-2.436 2.389-3.85zm.35-9.364H1.616c-.43 1.326-.664 2.74-.664 4.206 0 1.466.233 2.88.664 4.206h26.768c.43-1.326.664-2.74.664-4.206 0-1.467-.233-2.88-.664-4.206zM8.393 5.758H4.354c-.996 1.137-1.808 2.435-2.388 3.849h5.011L7 9.512c.342-1.36.814-2.622 1.393-3.754zm6.13 0H9.474c-.63 1.134-1.146 2.43-1.514 3.849h6.563V5.758zm5.87 0h-4.917v3.849h6.43c-.368-1.419-.883-2.714-1.513-3.849zm5.253 0h-4.172c.626 1.225 1.126 2.601 1.472 4.09l-.058-.241h5.146c-.58-1.414-1.392-2.712-2.388-3.849zM12.214 1.231l-.268.056c-2.556.557-4.85 1.799-6.673 3.518h3.652c.913-1.506 2.032-2.727 3.29-3.574zm-2.157 3.574h4.466v-3.65c-1.7.546-3.246 1.832-4.466 3.65zm5.42-3.611l-.001 3.611h4.336c-1.189-1.773-2.687-3.041-4.335-3.611zm2.136.005l.144.099c1.216.845 2.298 2.041 3.186 3.507h3.784C22.8 2.987 20.347 1.704 17.613 1.2z" transform="translate(0 .234)"/>
    </g>
</svg>
