<svg xmlns="http://www.w3.org/2000/svg" width="52" height="32" viewBox="0 0 52 32">
    <g fill="none" fill-rule="evenodd">
        <g fill-rule="nonzero">
            <g>
                <g>
                    <path fill="#B3B6BA" d="M18.97 3.421H33.031V28.579H18.97z" transform="translate(-722 -5081) translate(0 5048) translate(722 33)"/>
                    <path fill="#9EA0A4" d="M19.863 16C19.858 11.09 22.122 6.452 26 3.421 19.412-1.735 9.95-.985 4.264 5.145c-5.685 6.13-5.685 15.58 0 21.71 5.686 6.13 15.148 6.88 21.736 1.724-3.878-3.031-6.142-7.67-6.137-12.579z" transform="translate(-722 -5081) translate(0 5048) translate(722 33)"/>
                    <path fill="#C5C7C9" d="M52 16c0 6.126-3.512 11.713-9.046 14.39C37.42 33.069 30.837 32.365 26 28.58c3.876-3.034 6.138-7.67 6.138-12.579 0-4.908-2.262-9.545-6.138-12.579 4.837-3.785 11.42-4.489 16.954-1.812C48.488 4.287 52 9.874 52 16z" transform="translate(-722 -5081) translate(0 5048) translate(722 33)"/>
                    <path fill="#9EA0A4" d="M50.467 25.916V25.4h.209v-.106h-.532v.106h.209v.516h.114zm1.032 0v-.623h-.163l-.188.429-.187-.429h-.163v.623h.115v-.47l.176.405h.119l.176-.406v.471h.115z" transform="translate(-722 -5081) translate(0 5048) translate(722 33)"/>
                </g>
            </g>
        </g>
    </g>
</svg>
