<?xml version="1.0" encoding="UTF-8"?> <svg xmlns="http://www.w3.org/2000/svg" width="81" height="81" viewBox="0 0 81 81" fill="none"><path d="M40.2226 2.13281C61.6236 2.13281 78.9725 19.4817 78.9725 40.8827C78.9725 62.2837 61.6236 79.6326 40.2226 79.6326C18.8216 79.6326 1.47265 62.2837 1.47265 40.8827C1.47265 19.4817 18.8216 2.13281 40.2226 2.13281Z" stroke="url(#paint0_linear_16696_23797)" stroke-width="2.49999"></path><mask id="mask0_16696_23797" style="mask-type:alpha" maskUnits="userSpaceOnUse" x="13" y="11" width="55" height="56"><circle cx="40.5" cy="39.1885" r="27.5" fill="black"></circle></mask><g mask="url(#mask0_16696_23797)"><path fill-rule="evenodd" clip-rule="evenodd" d="M91 75.8588H-10.1016V5.08496H91V75.8588Z" fill="white"></path><path fill-rule="evenodd" clip-rule="evenodd" d="M91 21.0088H-10.1016V11.7197H91V21.0088ZM91 69.4585H-10.1016V60.1694H91V69.4585ZM24.2348 31.4452L39.454 57.9301L55.0049 31.5696L24.2348 31.459V31.4452Z" fill="#0000CC"></path><path fill-rule="evenodd" clip-rule="evenodd" d="M36.5919 49.0146L39.481 53.9218L42.4391 49.0423L36.5781 49.0146H36.5919Z" fill="white"></path><path fill-rule="evenodd" clip-rule="evenodd" d="M24.1797 49.4019L39.4127 22.917L54.9497 49.2913L24.1797 49.4019Z" fill="#0000CC"></path><path fill-rule="evenodd" clip-rule="evenodd" d="M36.5892 31.5703L39.4782 26.6631L42.4364 31.5564L36.5754 31.5703H36.5892ZM30.5348 42.5596L27.5352 47.5358L33.2026 47.522L30.5348 42.5457V42.5596ZM27.5904 33.3672L33.2855 33.4087L30.5486 38.4265L27.5904 33.3672ZM48.4909 42.6287L51.3799 47.5358L45.6157 47.4667L48.4909 42.6287ZM51.3246 33.3672L45.6295 33.4087L48.3664 38.4265L51.3246 33.3672ZM35.5249 33.3672L31.5991 40.4723L35.5802 47.4253L42.8787 47.5911L47.3021 40.4723L43.2105 33.2843L35.5249 33.3534V33.3672Z" fill="white"></path></g><defs><linearGradient id="paint0_linear_16696_23797" x1="0.222658" y1="87.9032" x2="105.647" y2="31.2832" gradientUnits="userSpaceOnUse"><stop stop-color="#8E00ED"></stop><stop offset="1" stop-color="#1384E8"></stop></linearGradient></defs></svg> 