<?xml version="1.0" encoding="UTF-8"?>
<svg width="100px" height="120px" viewBox="0 0 100 120" version="1.1" xmlns="http://www.w3.org/2000/svg" xmlns:xlink="http://www.w3.org/1999/xlink">
    <!-- Generator: Sketch 52.5 (67469) - http://www.bohemiancoding.com/sketch -->
    <title>B</title>
    <desc>Created with Sketch.</desc>
    <g id="Page-1" stroke="none" stroke-width="1" fill="none" fill-rule="evenodd">
        <g id="Desktop-HD" transform="translate(-1044.000000, -209.000000)" fill="#FFFFFF">
            <path d="M1144,243.95 C1144,253.7 1140.54655,262.1 1133.48949,269 C1140.54655,275.75 1144,284.15 1144,294.05 C1144,298.85 1143.0991,303.35 1141.2973,307.55 C1139.4955,311.9 1136.94294,315.5 1133.78979,318.65 C1130.63664,321.95 1126.88288,324.35 1122.52853,326.3 C1118.32432,328.1 1113.81982,329 1109.01502,329 L1063.96997,329 L1063.96997,308.9 L1109.01502,308.9 C1110.96697,308.9 1112.91892,308.6 1114.72072,307.85 C1116.67267,307.1 1118.32432,306.05 1119.67568,304.55 C1121.02703,303.2 1122.07808,301.55 1122.82883,299.75 C1123.57958,297.95 1124.03003,296 1124.03003,294.05 C1124.03003,292.1 1123.57958,290.15 1122.82883,288.35 C1122.07808,286.55 1121.02703,284.9 1119.67568,283.55 C1118.32432,282.2 1116.82282,281 1115.02102,280.25 C1113.06907,279.5 1111.11712,279.05 1109.01502,279.05 L1044,279.05 L1044,259.1 L1109.01502,259.1 C1110.96697,259.1 1112.91892,258.8 1114.72072,257.9 C1116.67267,257.15 1118.32432,256.1 1119.67568,254.6 C1121.02703,253.25 1122.07808,251.6 1122.82883,249.8 C1123.57958,248 1124.03003,246.05 1124.03003,243.95 C1124.03003,242 1123.57958,240.05 1122.82883,238.25 C1122.07808,236.45 1121.02703,234.8 1119.67568,233.45 C1118.32432,231.95 1116.67267,230.9 1114.72072,230.15 C1112.91892,229.4 1110.96697,229.1 1109.01502,229.1 L1063.96997,229.1 L1044,209 L1109.01502,209 C1113.66967,209 1118.17417,209.9 1122.52853,211.7 C1126.88288,213.65 1130.63664,216.05 1133.78979,219.35 C1136.94294,222.5 1139.4955,226.1 1141.2973,230.45 C1143.0991,234.65 1144,239.15 1144,243.95 Z" id="B"></path>
        </g>
    </g>
</svg>