<svg xmlns="http://www.w3.org/2000/svg" width="181" height="224" viewBox="0 0 181 224" fill="none"><path d="M0 10C0 4.47715 4.47715 0 10 0H170.381C175.903 0 180.381 4.47715 180.381 10V214C180.381 219.523 175.903 224 170.381 224H10C4.47716 224 0 219.523 0 214V10Z" fill="white"></path><path fill-rule="evenodd" clip-rule="evenodd" d="M170.381 0.5H10C4.75329 0.5 0.5 4.7533 0.5 10V214C0.5 219.247 4.75331 223.5 10 223.5H170.381C175.627 223.5 179.881 219.247 179.881 214V10C179.881 4.7533 175.627 0.5 170.381 0.5ZM10 0C4.47715 0 0 4.47715 0 10V214C0 219.523 4.47716 224 10 224H170.381C175.903 224 180.381 219.523 180.381 214V10C180.381 4.47715 175.903 0 170.381 0H10Z" fill="#CCCCCC"></path><path d="M54.4259 174.656V176H47.7539V164.912H49.3059V174.656H54.4259ZM63.1113 171.84C63.1113 172.501 63.0153 173.099 62.8233 173.632C62.6313 174.165 62.3593 174.624 62.0073 175.008C61.666 175.392 61.2553 175.691 60.7753 175.904C60.2953 176.107 59.7726 176.208 59.2073 176.208C58.642 176.208 58.1193 176.107 57.6393 175.904C57.1593 175.691 56.7433 175.392 56.3913 175.008C56.05 174.624 55.7833 174.165 55.5913 173.632C55.3993 173.099 55.3033 172.501 55.3033 171.84C55.3033 171.189 55.3993 170.597 55.5913 170.064C55.7833 169.52 56.05 169.056 56.3913 168.672C56.7433 168.288 57.1593 167.995 57.6393 167.792C58.1193 167.579 58.642 167.472 59.2073 167.472C59.7726 167.472 60.2953 167.579 60.7753 167.792C61.2553 167.995 61.666 168.288 62.0073 168.672C62.3593 169.056 62.6313 169.52 62.8233 170.064C63.0153 170.597 63.1113 171.189 63.1113 171.84ZM61.5593 171.84C61.5593 170.901 61.346 170.16 60.9193 169.616C60.5033 169.061 59.9326 168.784 59.2073 168.784C58.482 168.784 57.906 169.061 57.4793 169.616C57.0633 170.16 56.8553 170.901 56.8553 171.84C56.8553 172.779 57.0633 173.525 57.4793 174.08C57.906 174.624 58.482 174.896 59.2073 174.896C59.9326 174.896 60.5033 174.624 60.9193 174.08C61.346 173.525 61.5593 172.779 61.5593 171.84ZM66.5968 167.68H69.7488V168.928H66.5968V172.768C66.5968 173.184 66.6288 173.531 66.6928 173.808C66.7568 174.075 66.8528 174.288 66.9808 174.448C67.1088 174.597 67.2688 174.704 67.4608 174.768C67.6528 174.832 67.8768 174.864 68.1328 174.864C68.5808 174.864 68.9381 174.816 69.2048 174.72C69.4821 174.613 69.6741 174.539 69.7808 174.496L70.0688 175.728C69.9195 175.803 69.6581 175.893 69.2848 176C68.9115 176.117 68.4848 176.176 68.0048 176.176C67.4395 176.176 66.9701 176.107 66.5968 175.968C66.2341 175.819 65.9408 175.6 65.7168 175.312C65.4928 175.024 65.3328 174.672 65.2368 174.256C65.1515 173.829 65.1088 173.339 65.1088 172.784V165.36L66.5968 165.104V167.68ZM73.5783 174.928C74.1863 174.928 74.6343 174.848 74.9223 174.688C75.221 174.528 75.3703 174.272 75.3703 173.92C75.3703 173.557 75.2263 173.269 74.9383 173.056C74.6503 172.843 74.1756 172.603 73.5143 172.336C73.1943 172.208 72.885 172.08 72.5863 171.952C72.2983 171.813 72.0476 171.653 71.8343 171.472C71.621 171.291 71.4503 171.072 71.3223 170.816C71.1943 170.56 71.1303 170.245 71.1303 169.872C71.1303 169.136 71.4023 168.555 71.9463 168.128C72.4903 167.691 73.2316 167.472 74.1703 167.472C74.405 167.472 74.6396 167.488 74.8743 167.52C75.109 167.541 75.3276 167.573 75.5303 167.616C75.733 167.648 75.909 167.685 76.0583 167.728C76.2183 167.771 76.341 167.808 76.4263 167.84L76.1543 169.12C75.9943 169.035 75.7436 168.949 75.4023 168.864C75.061 168.768 74.6503 168.72 74.1703 168.72C73.7543 168.72 73.3916 168.805 73.0823 168.976C72.773 169.136 72.6183 169.392 72.6183 169.744C72.6183 169.925 72.6503 170.085 72.7143 170.224C72.789 170.363 72.8956 170.491 73.0343 170.608C73.1836 170.715 73.365 170.816 73.5783 170.912C73.7916 171.008 74.0476 171.109 74.3463 171.216C74.741 171.365 75.093 171.515 75.4023 171.664C75.7116 171.803 75.973 171.968 76.1863 172.16C76.4103 172.352 76.581 172.587 76.6983 172.864C76.8156 173.131 76.8743 173.461 76.8743 173.856C76.8743 174.624 76.5863 175.205 76.0103 175.6C75.445 175.995 74.6343 176.192 73.5783 176.192C72.8423 176.192 72.2663 176.128 71.8503 176C71.4343 175.883 71.1516 175.792 71.0023 175.728L71.2743 174.448C71.445 174.512 71.717 174.608 72.0903 174.736C72.4636 174.864 72.9596 174.928 73.5783 174.928ZM80.5429 175.136C80.5429 175.424 80.4469 175.675 80.2549 175.888C80.0629 176.101 79.8016 176.208 79.4709 176.208C79.1403 176.208 78.8789 176.101 78.6869 175.888C78.4949 175.675 78.3989 175.424 78.3989 175.136C78.3989 174.848 78.4949 174.597 78.6869 174.384C78.8789 174.171 79.1403 174.064 79.4709 174.064C79.8016 174.064 80.0629 174.171 80.2549 174.384C80.4469 174.597 80.5429 174.848 80.5429 175.136ZM80.5429 168.752C80.5429 169.04 80.4469 169.291 80.2549 169.504C80.0629 169.717 79.8016 169.824 79.4709 169.824C79.1403 169.824 78.8789 169.717 78.6869 169.504C78.4949 169.291 78.3989 169.04 78.3989 168.752C78.3989 168.464 78.4949 168.213 78.6869 168C78.8789 167.787 79.1403 167.68 79.4709 167.68C79.8016 167.68 80.0629 167.787 80.2549 168C80.4469 168.213 80.5429 168.464 80.5429 168.752ZM88.3276 169.184C89.9382 169.248 91.1169 169.6 91.8636 170.24C92.6209 170.88 92.9996 171.749 92.9996 172.848C92.9996 173.339 92.9142 173.792 92.7436 174.208C92.5836 174.624 92.3329 174.981 91.9916 175.28C91.6609 175.579 91.2396 175.813 90.7276 175.984C90.2156 176.155 89.6076 176.24 88.9036 176.24C88.6262 176.24 88.3436 176.219 88.0556 176.176C87.7676 176.133 87.5009 176.08 87.2556 176.016C87.0102 175.952 86.7916 175.888 86.5996 175.824C86.4076 175.76 86.2689 175.707 86.1836 175.664L86.4716 174.368C86.6529 174.453 86.9462 174.565 87.3516 174.704C87.7676 174.843 88.2742 174.912 88.8716 174.912C89.3516 174.912 89.7516 174.859 90.0716 174.752C90.4022 174.645 90.6689 174.501 90.8716 174.32C91.0742 174.139 91.2182 173.931 91.3036 173.696C91.3996 173.451 91.4476 173.195 91.4476 172.928C91.4476 172.523 91.3782 172.165 91.2396 171.856C91.1009 171.536 90.8556 171.269 90.5036 171.056C90.1516 170.843 89.6822 170.683 89.0956 170.576C88.5089 170.459 87.7676 170.4 86.8716 170.4C86.9356 169.877 86.9836 169.387 87.0156 168.928C87.0582 168.469 87.0956 168.021 87.1276 167.584C87.1596 167.147 87.1862 166.715 87.2076 166.288C87.2289 165.851 87.2502 165.392 87.2716 164.912H92.6156V166.176H88.5676C88.5569 166.336 88.5409 166.555 88.5196 166.832C88.4982 167.099 88.4769 167.381 88.4556 167.68C88.4342 167.968 88.4129 168.251 88.3916 168.528C88.3702 168.805 88.3489 169.024 88.3276 169.184ZM94.9748 170.448C94.9748 168.592 95.3001 167.163 95.9508 166.16C96.6121 165.157 97.5241 164.656 98.6868 164.656C99.8495 164.656 100.756 165.157 101.407 166.16C102.068 167.163 102.399 168.592 102.399 170.448C102.399 172.304 102.068 173.733 101.407 174.736C100.756 175.739 99.8495 176.24 98.6868 176.24C97.5241 176.24 96.6121 175.739 95.9508 174.736C95.3001 173.733 94.9748 172.304 94.9748 170.448ZM100.831 170.448C100.831 169.84 100.793 169.264 100.719 168.72C100.655 168.176 100.537 167.701 100.367 167.296C100.207 166.891 99.9881 166.571 99.7108 166.336C99.4335 166.091 99.0921 165.968 98.6868 165.968C98.2815 165.968 97.9401 166.091 97.6628 166.336C97.3855 166.571 97.1615 166.891 96.9908 167.296C96.8308 167.701 96.7135 168.176 96.6388 168.72C96.5748 169.264 96.5428 169.84 96.5428 170.448C96.5428 171.056 96.5748 171.632 96.6388 172.176C96.7135 172.72 96.8308 173.195 96.9908 173.6C97.1615 174.005 97.3855 174.331 97.6628 174.576C97.9401 174.811 98.2815 174.928 98.6868 174.928C99.0921 174.928 99.4335 174.811 99.7108 174.576C99.9881 174.331 100.207 174.005 100.367 173.6C100.537 173.195 100.655 172.72 100.719 172.176C100.793 171.632 100.831 171.056 100.831 170.448ZM104.006 170.448C104.006 168.592 104.331 167.163 104.982 166.16C105.643 165.157 106.555 164.656 107.718 164.656C108.881 164.656 109.787 165.157 110.438 166.16C111.099 167.163 111.43 168.592 111.43 170.448C111.43 172.304 111.099 173.733 110.438 174.736C109.787 175.739 108.881 176.24 107.718 176.24C106.555 176.24 105.643 175.739 104.982 174.736C104.331 173.733 104.006 172.304 104.006 170.448ZM109.862 170.448C109.862 169.84 109.825 169.264 109.75 168.72C109.686 168.176 109.569 167.701 109.398 167.296C109.238 166.891 109.019 166.571 108.742 166.336C108.465 166.091 108.123 165.968 107.718 165.968C107.313 165.968 106.971 166.091 106.694 166.336C106.417 166.571 106.193 166.891 106.022 167.296C105.862 167.701 105.745 168.176 105.67 168.72C105.606 169.264 105.574 169.84 105.574 170.448C105.574 171.056 105.606 171.632 105.67 172.176C105.745 172.72 105.862 173.195 106.022 173.6C106.193 174.005 106.417 174.331 106.694 174.576C106.971 174.811 107.313 174.928 107.718 174.928C108.123 174.928 108.465 174.811 108.742 174.576C109.019 174.331 109.238 174.005 109.398 173.6C109.569 173.195 109.686 172.72 109.75 172.176C109.825 171.632 109.862 171.056 109.862 170.448ZM113.037 170.448C113.037 168.592 113.363 167.163 114.013 166.16C114.675 165.157 115.587 164.656 116.749 164.656C117.912 164.656 118.819 165.157 119.469 166.16C120.131 167.163 120.461 168.592 120.461 170.448C120.461 172.304 120.131 173.733 119.469 174.736C118.819 175.739 117.912 176.24 116.749 176.24C115.587 176.24 114.675 175.739 114.013 174.736C113.363 173.733 113.037 172.304 113.037 170.448ZM118.893 170.448C118.893 169.84 118.856 169.264 118.781 168.72C118.717 168.176 118.6 167.701 118.429 167.296C118.269 166.891 118.051 166.571 117.773 166.336C117.496 166.091 117.155 165.968 116.749 165.968C116.344 165.968 116.003 166.091 115.725 166.336C115.448 166.571 115.224 166.891 115.053 167.296C114.893 167.701 114.776 168.176 114.701 168.72C114.637 169.264 114.605 169.84 114.605 170.448C114.605 171.056 114.637 171.632 114.701 172.176C114.776 172.72 114.893 173.195 115.053 173.6C115.224 174.005 115.448 174.331 115.725 174.576C116.003 174.811 116.344 174.928 116.749 174.928C117.155 174.928 117.496 174.811 117.773 174.576C118.051 174.331 118.269 174.005 118.429 173.6C118.6 173.195 118.717 172.72 118.781 172.176C118.856 171.632 118.893 171.056 118.893 170.448ZM122.117 170.576H125.141V167.28H126.421V170.576H129.445V171.84H126.421V175.152H125.141V171.84H122.117V170.576ZM48.2917 182.8C49.849 182.8 51.0437 183.099 51.8757 183.696C52.7183 184.283 53.1397 185.163 53.1397 186.336C53.1397 186.976 53.0223 187.525 52.7877 187.984C52.5637 188.432 52.233 188.8 51.7957 189.088C51.369 189.365 50.8463 189.568 50.2277 189.696C49.609 189.824 48.9103 189.888 48.1317 189.888H46.8997V194H45.3477V183.072C45.785 182.965 46.2703 182.896 46.8037 182.864C47.3477 182.821 47.8437 182.8 48.2917 182.8ZM48.4197 184.16C47.7583 184.16 47.2517 184.176 46.8997 184.208V188.56H48.0677C48.601 188.56 49.081 188.528 49.5077 188.464C49.9343 188.389 50.2917 188.272 50.5797 188.112C50.8783 187.941 51.1077 187.712 51.2677 187.424C51.4277 187.136 51.5077 186.768 51.5077 186.32C51.5077 185.893 51.4223 185.541 51.2517 185.264C51.0917 184.987 50.8677 184.768 50.5797 184.608C50.3023 184.437 49.977 184.32 49.6037 184.256C49.2303 184.192 48.8357 184.16 48.4197 184.16ZM61.9863 189.84C61.9863 190.501 61.8903 191.099 61.6983 191.632C61.5063 192.165 61.2343 192.624 60.8823 193.008C60.541 193.392 60.1303 193.691 59.6503 193.904C59.1703 194.107 58.6476 194.208 58.0823 194.208C57.517 194.208 56.9943 194.107 56.5143 193.904C56.0343 193.691 55.6183 193.392 55.2663 193.008C54.925 192.624 54.6583 192.165 54.4663 191.632C54.2743 191.099 54.1783 190.501 54.1783 189.84C54.1783 189.189 54.2743 188.597 54.4663 188.064C54.6583 187.52 54.925 187.056 55.2663 186.672C55.6183 186.288 56.0343 185.995 56.5143 185.792C56.9943 185.579 57.517 185.472 58.0823 185.472C58.6476 185.472 59.1703 185.579 59.6503 185.792C60.1303 185.995 60.541 186.288 60.8823 186.672C61.2343 187.056 61.5063 187.52 61.6983 188.064C61.8903 188.597 61.9863 189.189 61.9863 189.84ZM60.4343 189.84C60.4343 188.901 60.221 188.16 59.7943 187.616C59.3783 187.061 58.8076 186.784 58.0823 186.784C57.357 186.784 56.781 187.061 56.3543 187.616C55.9383 188.16 55.7303 188.901 55.7303 189.84C55.7303 190.779 55.9383 191.525 56.3543 192.08C56.781 192.624 57.357 192.896 58.0823 192.896C58.8076 192.896 59.3783 192.624 59.7943 192.08C60.221 191.525 60.4343 190.779 60.4343 189.84ZM65.5678 194H64.0798V185.68H65.5678V194ZM64.8158 184.176C64.5491 184.176 64.3198 184.091 64.1278 183.92C63.9465 183.739 63.8558 183.499 63.8558 183.2C63.8558 182.901 63.9465 182.667 64.1278 182.496C64.3198 182.315 64.5491 182.224 64.8158 182.224C65.0825 182.224 65.3065 182.315 65.4878 182.496C65.6798 182.667 65.7758 182.901 65.7758 183.2C65.7758 183.499 65.6798 183.739 65.4878 183.92C65.3065 184.091 65.0825 184.176 64.8158 184.176ZM68.1267 185.92C68.468 185.835 68.9213 185.744 69.4867 185.648C70.052 185.552 70.7027 185.504 71.4387 185.504C72.1 185.504 72.6493 185.6 73.0867 185.792C73.524 185.973 73.8707 186.235 74.1267 186.576C74.3933 186.907 74.58 187.307 74.6867 187.776C74.7933 188.245 74.8467 188.763 74.8467 189.328V194H73.3587V189.648C73.3587 189.136 73.3213 188.699 73.2467 188.336C73.1827 187.973 73.0707 187.68 72.9107 187.456C72.7507 187.232 72.5373 187.072 72.2707 186.976C72.004 186.869 71.6733 186.816 71.2787 186.816C71.1187 186.816 70.9533 186.821 70.7827 186.832C70.612 186.843 70.4467 186.859 70.2867 186.88C70.1373 186.891 69.9987 186.907 69.8707 186.928C69.7533 186.949 69.668 186.965 69.6147 186.976V194H68.1267V185.92ZM78.7062 185.68H81.8582V186.928H78.7062V190.768C78.7062 191.184 78.7382 191.531 78.8022 191.808C78.8662 192.075 78.9622 192.288 79.0902 192.448C79.2182 192.597 79.3782 192.704 79.5702 192.768C79.7622 192.832 79.9862 192.864 80.2422 192.864C80.6902 192.864 81.0475 192.816 81.3142 192.72C81.5915 192.613 81.7835 192.539 81.8902 192.496L82.1782 193.728C82.0288 193.803 81.7675 193.893 81.3942 194C81.0208 194.117 80.5942 194.176 80.1142 194.176C79.5488 194.176 79.0795 194.107 78.7062 193.968C78.3435 193.819 78.0502 193.6 77.8262 193.312C77.6022 193.024 77.4422 192.672 77.3462 192.256C77.2608 191.829 77.2182 191.339 77.2182 190.784V183.36L78.7062 183.104V185.68ZM85.6877 192.928C86.2957 192.928 86.7437 192.848 87.0317 192.688C87.3303 192.528 87.4797 192.272 87.4797 191.92C87.4797 191.557 87.3357 191.269 87.0477 191.056C86.7597 190.843 86.285 190.603 85.6237 190.336C85.3037 190.208 84.9943 190.08 84.6957 189.952C84.4077 189.813 84.157 189.653 83.9437 189.472C83.7303 189.291 83.5597 189.072 83.4317 188.816C83.3037 188.56 83.2397 188.245 83.2397 187.872C83.2397 187.136 83.5117 186.555 84.0557 186.128C84.5997 185.691 85.341 185.472 86.2797 185.472C86.5143 185.472 86.749 185.488 86.9837 185.52C87.2183 185.541 87.437 185.573 87.6397 185.616C87.8423 185.648 88.0183 185.685 88.1677 185.728C88.3277 185.771 88.4503 185.808 88.5357 185.84L88.2637 187.12C88.1037 187.035 87.853 186.949 87.5117 186.864C87.1703 186.768 86.7597 186.72 86.2797 186.72C85.8637 186.72 85.501 186.805 85.1917 186.976C84.8823 187.136 84.7277 187.392 84.7277 187.744C84.7277 187.925 84.7597 188.085 84.8237 188.224C84.8983 188.363 85.005 188.491 85.1437 188.608C85.293 188.715 85.4743 188.816 85.6877 188.912C85.901 189.008 86.157 189.109 86.4557 189.216C86.8503 189.365 87.2023 189.515 87.5117 189.664C87.821 189.803 88.0823 189.968 88.2957 190.16C88.5197 190.352 88.6903 190.587 88.8077 190.864C88.925 191.131 88.9837 191.461 88.9837 191.856C88.9837 192.624 88.6957 193.205 88.1197 193.6C87.5543 193.995 86.7437 194.192 85.6877 194.192C84.9517 194.192 84.3757 194.128 83.9597 194C83.5437 193.883 83.261 193.792 83.1117 193.728L83.3837 192.448C83.5543 192.512 83.8263 192.608 84.1997 192.736C84.573 192.864 85.069 192.928 85.6877 192.928ZM90.7483 196.96H89.2283L94.6523 181.472H96.1403L90.7483 196.96ZM103.801 192.656V194H97.1289V182.912H98.6809V192.656H103.801ZM112.486 189.84C112.486 190.501 112.39 191.099 112.198 191.632C112.006 192.165 111.734 192.624 111.382 193.008C111.041 193.392 110.63 193.691 110.15 193.904C109.67 194.107 109.148 194.208 108.582 194.208C108.017 194.208 107.494 194.107 107.014 193.904C106.534 193.691 106.118 193.392 105.766 193.008C105.425 192.624 105.158 192.165 104.966 191.632C104.774 191.099 104.678 190.501 104.678 189.84C104.678 189.189 104.774 188.597 104.966 188.064C105.158 187.52 105.425 187.056 105.766 186.672C106.118 186.288 106.534 185.995 107.014 185.792C107.494 185.579 108.017 185.472 108.582 185.472C109.148 185.472 109.67 185.579 110.15 185.792C110.63 185.995 111.041 186.288 111.382 186.672C111.734 187.056 112.006 187.52 112.198 188.064C112.39 188.597 112.486 189.189 112.486 189.84ZM110.934 189.84C110.934 188.901 110.721 188.16 110.294 187.616C109.878 187.061 109.308 186.784 108.582 186.784C107.857 186.784 107.281 187.061 106.854 187.616C106.438 188.16 106.23 188.901 106.23 189.84C106.23 190.779 106.438 191.525 106.854 192.08C107.281 192.624 107.857 192.896 108.582 192.896C109.308 192.896 109.878 192.624 110.294 192.08C110.721 191.525 110.934 190.779 110.934 189.84ZM115.972 185.68H119.124V186.928H115.972V190.768C115.972 191.184 116.004 191.531 116.068 191.808C116.132 192.075 116.228 192.288 116.356 192.448C116.484 192.597 116.644 192.704 116.836 192.768C117.028 192.832 117.252 192.864 117.508 192.864C117.956 192.864 118.313 192.816 118.58 192.72C118.857 192.613 119.049 192.539 119.156 192.496L119.444 193.728C119.294 193.803 119.033 193.893 118.66 194C118.286 194.117 117.86 194.176 117.38 194.176C116.814 194.176 116.345 194.107 115.972 193.968C115.609 193.819 115.316 193.6 115.092 193.312C114.868 193.024 114.708 192.672 114.612 192.256C114.526 191.829 114.484 191.339 114.484 190.784V183.36L115.972 183.104V185.68ZM122.777 193.136C122.777 193.424 122.681 193.675 122.489 193.888C122.297 194.101 122.036 194.208 121.705 194.208C121.375 194.208 121.113 194.101 120.921 193.888C120.729 193.675 120.633 193.424 120.633 193.136C120.633 192.848 120.729 192.597 120.921 192.384C121.113 192.171 121.375 192.064 121.705 192.064C122.036 192.064 122.297 192.171 122.489 192.384C122.681 192.597 122.777 192.848 122.777 193.136ZM122.777 186.752C122.777 187.04 122.681 187.291 122.489 187.504C122.297 187.717 122.036 187.824 121.705 187.824C121.375 187.824 121.113 187.717 120.921 187.504C120.729 187.291 120.633 187.04 120.633 186.752C120.633 186.464 120.729 186.213 120.921 186C121.113 185.787 121.375 185.68 121.705 185.68C122.036 185.68 122.297 185.787 122.489 186C122.681 186.213 122.777 186.464 122.777 186.752ZM128.866 185.2C129.474 184.965 130.066 184.667 130.642 184.304C131.218 183.931 131.746 183.467 132.226 182.912H133.282V194H131.794V184.976C131.666 185.093 131.506 185.216 131.314 185.344C131.133 185.472 130.93 185.595 130.706 185.712C130.493 185.829 130.263 185.941 130.018 186.048C129.783 186.155 129.554 186.245 129.33 186.32L128.866 185.2Z" fill="#333333"></path><path d="M45.0502 146.504C45.2262 146.52 45.4582 146.536 45.7462 146.552C46.0342 146.552 46.4262 146.552 46.9222 146.552C48.9542 146.552 50.4662 146.04 51.4582 145.016C52.4662 143.976 52.9702 142.528 52.9702 140.672C52.9702 138.784 52.4822 137.336 51.5062 136.328C50.5302 135.32 49.0182 134.816 46.9702 134.816C46.0742 134.816 45.4342 134.84 45.0502 134.888V146.504ZM56.1382 140.672C56.1382 142.112 55.9142 143.368 55.4662 144.44C55.0182 145.496 54.3782 146.384 53.5462 147.104C52.7302 147.808 51.7382 148.336 50.5702 148.688C49.4182 149.024 48.1382 149.192 46.7302 149.192C46.0582 149.192 45.2982 149.16 44.4502 149.096C43.6022 149.048 42.7942 148.936 42.0262 148.76V132.608C42.7942 132.432 43.6102 132.32 44.4742 132.272C45.3382 132.224 46.1062 132.2 46.7782 132.2C48.1702 132.2 49.4422 132.368 50.5942 132.704C51.7462 133.024 52.7302 133.536 53.5462 134.24C54.3782 134.928 55.0182 135.808 55.4662 136.88C55.9142 137.936 56.1382 139.2 56.1382 140.672ZM62.2242 149H59.3202V136.448H62.2242V149ZM62.5362 132.776C62.5362 133.32 62.3602 133.752 62.0082 134.072C61.6562 134.392 61.2402 134.552 60.7602 134.552C60.2642 134.552 59.8402 134.392 59.4882 134.072C59.1362 133.752 58.9602 133.32 58.9602 132.776C58.9602 132.216 59.1362 131.776 59.4882 131.456C59.8402 131.136 60.2642 130.976 60.7602 130.976C61.2402 130.976 61.6562 131.136 62.0082 131.456C62.3602 131.776 62.5362 132.216 62.5362 132.776ZM70.3451 146.96C71.2411 146.96 71.9211 146.912 72.3851 146.816V143.6C72.2251 143.552 71.9931 143.504 71.6891 143.456C71.3851 143.408 71.0491 143.384 70.6811 143.384C70.3611 143.384 70.0331 143.408 69.6971 143.456C69.3771 143.504 69.0811 143.592 68.8091 143.72C68.5531 143.848 68.3451 144.032 68.1851 144.272C68.0251 144.496 67.9451 144.784 67.9451 145.136C67.9451 145.824 68.1611 146.304 68.5931 146.576C69.0251 146.832 69.6091 146.96 70.3451 146.96ZM70.1051 136.136C71.0651 136.136 71.8731 136.256 72.5291 136.496C73.1851 136.736 73.7051 137.072 74.0891 137.504C74.4891 137.936 74.7691 138.464 74.9291 139.088C75.1051 139.696 75.1931 140.368 75.1931 141.104V148.712C74.7451 148.808 74.0651 148.92 73.1531 149.048C72.2571 149.192 71.2411 149.264 70.1051 149.264C69.3531 149.264 68.6651 149.192 68.0411 149.048C67.4171 148.904 66.8811 148.672 66.4331 148.352C66.0011 148.032 65.6571 147.616 65.4011 147.104C65.1611 146.592 65.0411 145.96 65.0411 145.208C65.0411 144.488 65.1771 143.88 65.4491 143.384C65.7371 142.888 66.1211 142.488 66.6011 142.184C67.0811 141.864 67.6331 141.64 68.2571 141.512C68.8971 141.368 69.5611 141.296 70.2491 141.296C70.5691 141.296 70.9051 141.32 71.2571 141.368C71.6091 141.4 71.9851 141.464 72.3851 141.56V141.08C72.3851 140.744 72.3451 140.424 72.2651 140.12C72.1851 139.816 72.0411 139.552 71.8331 139.328C71.6411 139.088 71.3771 138.904 71.0411 138.776C70.7211 138.648 70.3131 138.584 69.8171 138.584C69.1451 138.584 68.5291 138.632 67.9691 138.728C67.4091 138.824 66.9531 138.936 66.6011 139.064L66.2411 136.712C66.6091 136.584 67.1451 136.456 67.8491 136.328C68.5531 136.2 69.3051 136.136 70.1051 136.136ZM85.9014 142.4C85.9014 141.088 85.7334 140.144 85.3974 139.568C85.0774 138.976 84.4694 138.68 83.5734 138.68C83.2534 138.68 82.9014 138.704 82.5174 138.752C82.1334 138.8 81.8454 138.84 81.6534 138.872V149H78.7494V136.856C79.3094 136.696 80.0374 136.544 80.9334 136.4C81.8454 136.256 82.8054 136.184 83.8134 136.184C84.6774 136.184 85.3814 136.296 85.9254 136.52C86.4854 136.744 86.9494 137.04 87.3174 137.408C87.4934 137.28 87.7174 137.144 87.9894 137C88.2614 136.856 88.5654 136.728 88.9014 136.616C89.2374 136.488 89.5894 136.384 89.9574 136.304C90.3414 136.224 90.7254 136.184 91.1094 136.184C92.0854 136.184 92.8854 136.328 93.5094 136.616C94.1494 136.888 94.6454 137.28 94.9974 137.792C95.3654 138.288 95.6134 138.896 95.7414 139.616C95.8854 140.32 95.9574 141.096 95.9574 141.944V149H93.0534V142.4C93.0534 141.088 92.8934 140.144 92.5734 139.568C92.2534 138.976 91.6374 138.68 90.7254 138.68C90.2614 138.68 89.8214 138.76 89.4054 138.92C88.9894 139.064 88.6774 139.208 88.4694 139.352C88.5974 139.752 88.6854 140.176 88.7334 140.624C88.7814 141.072 88.8054 141.552 88.8054 142.064V149H85.9014V142.4ZM110.867 142.712C110.867 143.704 110.723 144.608 110.435 145.424C110.147 146.24 109.739 146.936 109.211 147.512C108.683 148.088 108.043 148.536 107.291 148.856C106.555 149.176 105.739 149.336 104.843 149.336C103.947 149.336 103.131 149.176 102.395 148.856C101.659 148.536 101.027 148.088 100.499 147.512C99.971 146.936 99.555 146.24 99.251 145.424C98.963 144.608 98.819 143.704 98.819 142.712C98.819 141.72 98.963 140.824 99.251 140.024C99.555 139.208 99.971 138.512 100.499 137.936C101.043 137.36 101.683 136.92 102.419 136.616C103.155 136.296 103.963 136.136 104.843 136.136C105.723 136.136 106.531 136.296 107.267 136.616C108.019 136.92 108.659 137.36 109.187 137.936C109.715 138.512 110.123 139.208 110.411 140.024C110.715 140.824 110.867 141.72 110.867 142.712ZM107.891 142.712C107.891 141.464 107.619 140.48 107.075 139.76C106.547 139.024 105.803 138.656 104.843 138.656C103.883 138.656 103.131 139.024 102.587 139.76C102.059 140.48 101.795 141.464 101.795 142.712C101.795 143.976 102.059 144.976 102.587 145.712C103.131 146.448 103.883 146.816 104.843 146.816C105.803 146.816 106.547 146.448 107.075 145.712C107.619 144.976 107.891 143.976 107.891 142.712ZM113.859 136.856C114.419 136.696 115.147 136.544 116.043 136.4C116.939 136.256 117.931 136.184 119.019 136.184C120.043 136.184 120.899 136.328 121.587 136.616C122.275 136.888 122.819 137.28 123.219 137.792C123.635 138.288 123.923 138.896 124.083 139.616C124.259 140.32 124.347 141.096 124.347 141.944V149H121.443V142.4C121.443 141.728 121.395 141.16 121.299 140.696C121.219 140.216 121.075 139.832 120.867 139.544C120.675 139.24 120.403 139.024 120.051 138.896C119.715 138.752 119.299 138.68 118.803 138.68C118.435 138.68 118.051 138.704 117.651 138.752C117.251 138.8 116.955 138.84 116.763 138.872V149H113.859V136.856ZM130.178 142.688C130.178 143.968 130.482 144.976 131.09 145.712C131.698 146.432 132.538 146.792 133.61 146.792C134.074 146.792 134.466 146.776 134.786 146.744C135.122 146.696 135.394 146.648 135.602 146.6V139.4C135.346 139.224 135.002 139.064 134.57 138.92C134.154 138.76 133.706 138.68 133.226 138.68C132.17 138.68 131.394 139.04 130.898 139.76C130.418 140.48 130.178 141.456 130.178 142.688ZM138.506 148.616C137.93 148.792 137.202 148.952 136.322 149.096C135.458 149.24 134.546 149.312 133.586 149.312C132.594 149.312 131.706 149.16 130.922 148.856C130.138 148.552 129.466 148.12 128.906 147.56C128.362 146.984 127.938 146.296 127.634 145.496C127.346 144.68 127.202 143.768 127.202 142.76C127.202 141.768 127.322 140.872 127.562 140.072C127.818 139.256 128.186 138.56 128.666 137.984C129.146 137.408 129.73 136.968 130.418 136.664C131.106 136.344 131.898 136.184 132.794 136.184C133.402 136.184 133.938 136.256 134.402 136.4C134.866 136.544 135.266 136.704 135.602 136.88V130.856L138.506 130.376V148.616Z" fill="#333333"></path><circle cx="90.1904" cy="69" r="40" fill="#00C8FF"></circle><path d="M79.4628 56.8008C79.1831 56.8008 78.9149 56.9119 78.7171 57.1097C78.5193 57.3075 78.4082 57.5757 78.4082 57.8554V85.6363C78.4081 85.8219 78.457 86.0043 78.55 86.165C78.643 86.3257 78.7768 86.459 78.9378 86.5515C79.0989 86.6439 79.2815 86.6922 79.4671 86.6914C79.6528 86.6906 79.835 86.6409 79.9952 86.5471L90.1877 80.5885L91.5723 69.3534L90.1877 56.8008H79.4628Z" fill="#93E5FF"></path><path d="M100.914 56.8008H90.189V80.5885L100.381 86.5471C100.542 86.6408 100.724 86.6906 100.909 86.6914C101.095 86.6922 101.277 86.644 101.438 86.5517C101.599 86.4593 101.733 86.3262 101.826 86.1656C101.919 86.005 101.968 85.8227 101.968 85.6371V57.8554C101.968 57.5757 101.857 57.3075 101.66 57.1097C101.462 56.9119 101.194 56.8008 100.914 56.8008Z" fill="#7BE0FF"></path><path d="M74.1259 50.6914C73.8462 50.6914 73.578 50.8025 73.3802 51.0003C73.1824 51.1981 73.0713 51.4663 73.0713 51.746C73.0733 53.6451 73.8286 55.4659 75.1715 56.8088C76.5144 58.1516 78.3351 58.9069 80.2342 58.909H90.1911L91.5757 55.0817L90.1911 50.6914H74.1259Z" fill="#68DBFF"></path><path d="M106.256 50.6914H90.1909V58.909H100.148C102.047 58.9069 103.868 58.1516 105.21 56.8088C106.553 55.4659 107.309 53.6451 107.311 51.746C107.311 51.6075 107.283 51.4704 107.23 51.3424C107.177 51.2145 107.1 51.0982 107.002 51.0003C106.904 50.9024 106.788 50.8247 106.66 50.7717C106.532 50.7187 106.395 50.6914 106.256 50.6914V50.6914Z" fill="#68DBFF"></path><path d="M89.238 63.1314L87.9928 66.9586H83.9648C83.7537 66.9588 83.5481 67.0257 83.3773 67.1498C83.2066 67.274 83.0795 67.449 83.0143 67.6498C82.949 67.8506 82.949 68.0668 83.0142 68.2676C83.0794 68.4684 83.2064 68.6434 83.3772 68.7676L86.6363 71.1354L85.3911 74.9627C85.326 75.1635 85.326 75.3798 85.3913 75.5806C85.4565 75.7814 85.5836 75.9563 85.7544 76.0805C85.9252 76.2046 86.1308 76.2715 86.3419 76.2716C86.5531 76.2718 86.7588 76.2051 86.9297 76.0811L90.1888 73.7133L91.0691 69.4608L90.1888 62.4297C89.9777 62.4297 89.7721 62.4966 89.6013 62.6206C89.4305 62.7447 89.3033 62.9196 89.238 63.1203V63.1314Z" fill="#52D5FF"></path><path d="M97.3624 67.6499C97.297 67.4492 97.1698 67.2743 96.999 67.1502C96.8282 67.0262 96.6226 66.9593 96.4115 66.9593H92.3835L91.1384 63.132C91.073 62.9313 90.9458 62.7564 90.7751 62.6323C90.6043 62.5083 90.3986 62.4415 90.1875 62.4414V73.7174L93.4466 76.0852C93.6196 76.204 93.8245 76.2677 94.0343 76.2677C94.2442 76.2677 94.4491 76.204 94.622 76.0852C94.7931 75.9612 94.9204 75.7861 94.9857 75.5851C95.051 75.3841 95.0508 75.1676 94.9852 74.9668L93.7401 71.1395L96.9992 68.7717C97.1708 68.6473 97.2984 68.4716 97.3637 68.27C97.4289 68.0684 97.4285 67.8512 97.3624 67.6499Z" fill="#2ECDFF"></path></svg>