<svg xmlns="http://www.w3.org/2000/svg" width="182" height="224" viewBox="0 0 182 224" fill="none"><path d="M0.760742 10C0.760742 4.47715 5.2379 0 10.7607 0H171.141C176.664 0 181.141 4.47715 181.141 10V214C181.141 219.523 176.664 224 171.141 224H10.7608C5.23791 224 0.760742 219.523 0.760742 214V10Z" fill="white"></path><path fill-rule="evenodd" clip-rule="evenodd" d="M171.141 0.5H10.7607C5.51404 0.5 1.26074 4.7533 1.26074 10V214C1.26074 219.247 5.51405 223.5 10.7608 223.5H171.141C176.388 223.5 180.641 219.247 180.641 214V10C180.641 4.7533 176.388 0.5 171.141 0.5ZM10.7607 0C5.23789 0 0.760742 4.47715 0.760742 10V214C0.760742 219.523 5.23791 224 10.7608 224H171.141C176.664 224 181.141 219.523 181.141 214V10C181.141 4.47715 176.664 0 171.141 0H10.7607Z" fill="#CCCCCC"></path><path d="M38.0927 177.656V179H31.4207V167.912H32.9727V177.656H38.0927ZM46.7781 174.84C46.7781 175.501 46.6821 176.099 46.4901 176.632C46.2981 177.165 46.0261 177.624 45.6741 178.008C45.3327 178.392 44.9221 178.691 44.4421 178.904C43.9621 179.107 43.4394 179.208 42.8741 179.208C42.3087 179.208 41.7861 179.107 41.3061 178.904C40.8261 178.691 40.4101 178.392 40.0581 178.008C39.7167 177.624 39.4501 177.165 39.2581 176.632C39.0661 176.099 38.9701 175.501 38.9701 174.84C38.9701 174.189 39.0661 173.597 39.2581 173.064C39.4501 172.52 39.7167 172.056 40.0581 171.672C40.4101 171.288 40.8261 170.995 41.3061 170.792C41.7861 170.579 42.3087 170.472 42.8741 170.472C43.4394 170.472 43.9621 170.579 44.4421 170.792C44.9221 170.995 45.3327 171.288 45.6741 171.672C46.0261 172.056 46.2981 172.52 46.4901 173.064C46.6821 173.597 46.7781 174.189 46.7781 174.84ZM45.2261 174.84C45.2261 173.901 45.0127 173.16 44.5861 172.616C44.1701 172.061 43.5994 171.784 42.8741 171.784C42.1487 171.784 41.5727 172.061 41.1461 172.616C40.7301 173.16 40.5221 173.901 40.5221 174.84C40.5221 175.779 40.7301 176.525 41.1461 177.08C41.5727 177.624 42.1487 177.896 42.8741 177.896C43.5994 177.896 44.1701 177.624 44.5861 177.08C45.0127 176.525 45.2261 175.779 45.2261 174.84ZM50.2636 170.68H53.4156V171.928H50.2636V175.768C50.2636 176.184 50.2956 176.531 50.3596 176.808C50.4236 177.075 50.5196 177.288 50.6476 177.448C50.7756 177.597 50.9356 177.704 51.1276 177.768C51.3196 177.832 51.5436 177.864 51.7996 177.864C52.2476 177.864 52.6049 177.816 52.8716 177.72C53.1489 177.613 53.3409 177.539 53.4476 177.496L53.7356 178.728C53.5862 178.803 53.3249 178.893 52.9516 179C52.5782 179.117 52.1516 179.176 51.6716 179.176C51.1062 179.176 50.6369 179.107 50.2636 178.968C49.9009 178.819 49.6076 178.6 49.3836 178.312C49.1596 178.024 48.9996 177.672 48.9036 177.256C48.8182 176.829 48.7756 176.339 48.7756 175.784V168.36L50.2636 168.104V170.68ZM57.2451 177.928C57.8531 177.928 58.3011 177.848 58.5891 177.688C58.8877 177.528 59.0371 177.272 59.0371 176.92C59.0371 176.557 58.8931 176.269 58.6051 176.056C58.3171 175.843 57.8424 175.603 57.1811 175.336C56.8611 175.208 56.5517 175.08 56.2531 174.952C55.9651 174.813 55.7144 174.653 55.5011 174.472C55.2877 174.291 55.1171 174.072 54.9891 173.816C54.8611 173.56 54.7971 173.245 54.7971 172.872C54.7971 172.136 55.0691 171.555 55.6131 171.128C56.1571 170.691 56.8984 170.472 57.8371 170.472C58.0717 170.472 58.3064 170.488 58.5411 170.52C58.7757 170.541 58.9944 170.573 59.1971 170.616C59.3997 170.648 59.5757 170.685 59.7251 170.728C59.8851 170.771 60.0077 170.808 60.0931 170.84L59.8211 172.12C59.6611 172.035 59.4104 171.949 59.0691 171.864C58.7277 171.768 58.3171 171.72 57.8371 171.72C57.4211 171.72 57.0584 171.805 56.7491 171.976C56.4397 172.136 56.2851 172.392 56.2851 172.744C56.2851 172.925 56.3171 173.085 56.3811 173.224C56.4557 173.363 56.5624 173.491 56.7011 173.608C56.8504 173.715 57.0317 173.816 57.2451 173.912C57.4584 174.008 57.7144 174.109 58.0131 174.216C58.4077 174.365 58.7597 174.515 59.0691 174.664C59.3784 174.803 59.6397 174.968 59.8531 175.16C60.0771 175.352 60.2477 175.587 60.3651 175.864C60.4824 176.131 60.5411 176.461 60.5411 176.856C60.5411 177.624 60.2531 178.205 59.6771 178.6C59.1117 178.995 58.3011 179.192 57.2451 179.192C56.5091 179.192 55.9331 179.128 55.5171 179C55.1011 178.883 54.8184 178.792 54.6691 178.728L54.9411 177.448C55.1117 177.512 55.3837 177.608 55.7571 177.736C56.1304 177.864 56.6264 177.928 57.2451 177.928ZM64.2097 178.136C64.2097 178.424 64.1137 178.675 63.9217 178.888C63.7297 179.101 63.4683 179.208 63.1377 179.208C62.807 179.208 62.5457 179.101 62.3537 178.888C62.1617 178.675 62.0657 178.424 62.0657 178.136C62.0657 177.848 62.1617 177.597 62.3537 177.384C62.5457 177.171 62.807 177.064 63.1377 177.064C63.4683 177.064 63.7297 177.171 63.9217 177.384C64.1137 177.597 64.2097 177.848 64.2097 178.136ZM64.2097 171.752C64.2097 172.04 64.1137 172.291 63.9217 172.504C63.7297 172.717 63.4683 172.824 63.1377 172.824C62.807 172.824 62.5457 172.717 62.3537 172.504C62.1617 172.291 62.0657 172.04 62.0657 171.752C62.0657 171.464 62.1617 171.213 62.3537 171C62.5457 170.787 62.807 170.68 63.1377 170.68C63.4683 170.68 63.7297 170.787 63.9217 171C64.1137 171.213 64.2097 171.464 64.2097 171.752ZM76.2823 170.744C76.2823 171.128 76.2023 171.501 76.0423 171.864C75.893 172.216 75.6903 172.568 75.4343 172.92C75.1783 173.261 74.8903 173.603 74.5703 173.944C74.2503 174.275 73.9303 174.6 73.6103 174.92C73.429 175.101 73.2156 175.315 72.9703 175.56C72.7356 175.805 72.5116 176.061 72.2983 176.328C72.085 176.595 71.9036 176.851 71.7543 177.096C71.6156 177.341 71.5463 177.555 71.5463 177.736H76.6503V179H69.9303C69.9196 178.936 69.9143 178.872 69.9143 178.808C69.9143 178.744 69.9143 178.685 69.9143 178.632C69.9143 178.131 69.9943 177.667 70.1543 177.24C70.325 176.803 70.5436 176.392 70.8103 176.008C71.077 175.624 71.3756 175.261 71.7063 174.92C72.037 174.579 72.3623 174.248 72.6823 173.928C72.949 173.672 73.1996 173.421 73.4343 173.176C73.6796 172.92 73.893 172.669 74.0743 172.424C74.2663 172.168 74.4156 171.907 74.5223 171.64C74.6396 171.373 74.6983 171.091 74.6983 170.792C74.6983 170.472 74.645 170.2 74.5383 169.976C74.4423 169.752 74.309 169.565 74.1383 169.416C73.9676 169.267 73.765 169.16 73.5303 169.096C73.3063 169.021 73.0663 168.984 72.8103 168.984C72.501 168.984 72.2183 169.027 71.9623 169.112C71.7063 169.197 71.477 169.299 71.2743 169.416C71.0716 169.523 70.901 169.64 70.7623 169.768C70.6236 169.885 70.517 169.976 70.4423 170.04L69.7063 168.984C69.8023 168.877 69.9463 168.749 70.1383 168.6C70.3303 168.44 70.5596 168.291 70.8263 168.152C71.093 168.013 71.3916 167.896 71.7223 167.8C72.053 167.704 72.4103 167.656 72.7943 167.656C73.957 167.656 74.8263 167.928 75.4023 168.472C75.989 169.005 76.2823 169.763 76.2823 170.744ZM78.6416 173.448C78.6416 171.592 78.9669 170.163 79.6176 169.16C80.2789 168.157 81.1909 167.656 82.3536 167.656C83.5162 167.656 84.4229 168.157 85.0736 169.16C85.7349 170.163 86.0656 171.592 86.0656 173.448C86.0656 175.304 85.7349 176.733 85.0736 177.736C84.4229 178.739 83.5162 179.24 82.3536 179.24C81.1909 179.24 80.2789 178.739 79.6176 177.736C78.9669 176.733 78.6416 175.304 78.6416 173.448ZM84.4976 173.448C84.4976 172.84 84.4602 172.264 84.3856 171.72C84.3216 171.176 84.2042 170.701 84.0336 170.296C83.8736 169.891 83.6549 169.571 83.3776 169.336C83.1002 169.091 82.7589 168.968 82.3536 168.968C81.9482 168.968 81.6069 169.091 81.3296 169.336C81.0522 169.571 80.8282 169.891 80.6576 170.296C80.4976 170.701 80.3802 171.176 80.3056 171.72C80.2416 172.264 80.2096 172.84 80.2096 173.448C80.2096 174.056 80.2416 174.632 80.3056 175.176C80.3802 175.72 80.4976 176.195 80.6576 176.6C80.8282 177.005 81.0522 177.331 81.3296 177.576C81.6069 177.811 81.9482 177.928 82.3536 177.928C82.7589 177.928 83.1002 177.811 83.3776 177.576C83.6549 177.331 83.8736 177.005 84.0336 176.6C84.2042 176.195 84.3216 175.72 84.3856 175.176C84.4602 174.632 84.4976 174.056 84.4976 173.448ZM90.9919 173.512H94.9439V174.904H90.9919V173.512ZM99.7003 175.16C99.903 174.691 100.18 174.147 100.532 173.528C100.884 172.899 101.279 172.253 101.716 171.592C102.164 170.931 102.639 170.28 103.14 169.64C103.652 169 104.164 168.424 104.676 167.912H106.1V174.952H107.412V176.168H106.1V179H104.66V176.168H99.7003V175.16ZM104.66 169.672C104.34 170.013 104.015 170.397 103.684 170.824C103.364 171.24 103.05 171.677 102.74 172.136C102.431 172.595 102.138 173.064 101.86 173.544C101.594 174.024 101.354 174.493 101.14 174.952H104.66V169.672ZM116.108 172.344C116.108 174.541 115.558 176.205 114.46 177.336C113.372 178.456 111.75 179.021 109.596 179.032L109.548 177.784C110.22 177.784 110.822 177.72 111.356 177.592C111.9 177.464 112.374 177.261 112.78 176.984C113.185 176.696 113.521 176.328 113.788 175.88C114.065 175.432 114.268 174.883 114.396 174.232C114.118 174.36 113.804 174.467 113.452 174.552C113.1 174.627 112.737 174.664 112.364 174.664C111.734 174.664 111.201 174.573 110.764 174.392C110.326 174.2 109.969 173.949 109.692 173.64C109.414 173.32 109.212 172.957 109.084 172.552C108.966 172.136 108.908 171.704 108.908 171.256C108.908 170.861 108.977 170.451 109.116 170.024C109.254 169.597 109.462 169.208 109.74 168.856C110.028 168.504 110.39 168.216 110.828 167.992C111.265 167.768 111.782 167.656 112.38 167.656C112.988 167.656 113.521 167.763 113.98 167.976C114.449 168.189 114.838 168.499 115.148 168.904C115.468 169.309 115.708 169.805 115.868 170.392C116.028 170.968 116.108 171.619 116.108 172.344ZM112.524 173.448C112.897 173.448 113.249 173.416 113.58 173.352C113.91 173.277 114.23 173.171 114.54 173.032C114.55 172.915 114.556 172.803 114.556 172.696C114.556 172.579 114.556 172.461 114.556 172.344C114.556 171.885 114.524 171.448 114.46 171.032C114.396 170.605 114.278 170.237 114.108 169.928C113.948 169.608 113.729 169.357 113.452 169.176C113.174 168.984 112.822 168.888 112.396 168.888C112.044 168.888 111.745 168.963 111.5 169.112C111.254 169.261 111.052 169.453 110.892 169.688C110.732 169.912 110.614 170.163 110.54 170.44C110.476 170.707 110.444 170.968 110.444 171.224C110.444 171.949 110.614 172.504 110.956 172.888C111.308 173.261 111.83 173.448 112.524 173.448ZM125.139 172.344C125.139 174.541 124.589 176.205 123.491 177.336C122.403 178.456 120.781 179.021 118.627 179.032L118.579 177.784C119.251 177.784 119.853 177.72 120.387 177.592C120.931 177.464 121.405 177.261 121.811 176.984C122.216 176.696 122.552 176.328 122.819 175.88C123.096 175.432 123.299 174.883 123.427 174.232C123.149 174.36 122.835 174.467 122.483 174.552C122.131 174.627 121.768 174.664 121.395 174.664C120.765 174.664 120.232 174.573 119.795 174.392C119.357 174.2 119 173.949 118.723 173.64C118.445 173.32 118.243 172.957 118.115 172.552C117.997 172.136 117.939 171.704 117.939 171.256C117.939 170.861 118.008 170.451 118.147 170.024C118.285 169.597 118.493 169.208 118.771 168.856C119.059 168.504 119.421 168.216 119.859 167.992C120.296 167.768 120.813 167.656 121.411 167.656C122.019 167.656 122.552 167.763 123.011 167.976C123.48 168.189 123.869 168.499 124.179 168.904C124.499 169.309 124.739 169.805 124.899 170.392C125.059 170.968 125.139 171.619 125.139 172.344ZM121.555 173.448C121.928 173.448 122.28 173.416 122.611 173.352C122.941 173.277 123.261 173.171 123.571 173.032C123.581 172.915 123.587 172.803 123.587 172.696C123.587 172.579 123.587 172.461 123.587 172.344C123.587 171.885 123.555 171.448 123.491 171.032C123.427 170.605 123.309 170.237 123.139 169.928C122.979 169.608 122.76 169.357 122.483 169.176C122.205 168.984 121.853 168.888 121.427 168.888C121.075 168.888 120.776 168.963 120.531 169.112C120.285 169.261 120.083 169.453 119.923 169.688C119.763 169.912 119.645 170.163 119.571 170.44C119.507 170.707 119.475 170.968 119.475 171.224C119.475 171.949 119.645 172.504 119.987 172.888C120.339 173.261 120.861 173.448 121.555 173.448ZM129.194 178.136C129.194 178.424 129.098 178.675 128.906 178.888C128.714 179.101 128.453 179.208 128.122 179.208C127.791 179.208 127.53 179.101 127.338 178.888C127.146 178.675 127.05 178.424 127.05 178.136C127.05 177.848 127.146 177.597 127.338 177.384C127.53 177.171 127.791 177.064 128.122 177.064C128.453 177.064 128.714 177.171 128.906 177.384C129.098 177.597 129.194 177.848 129.194 178.136ZM138.108 172.344C138.108 174.541 137.558 176.205 136.46 177.336C135.372 178.456 133.75 179.021 131.596 179.032L131.548 177.784C132.22 177.784 132.822 177.72 133.356 177.592C133.9 177.464 134.374 177.261 134.78 176.984C135.185 176.696 135.521 176.328 135.788 175.88C136.065 175.432 136.268 174.883 136.396 174.232C136.118 174.36 135.804 174.467 135.452 174.552C135.1 174.627 134.737 174.664 134.364 174.664C133.734 174.664 133.201 174.573 132.764 174.392C132.326 174.2 131.969 173.949 131.692 173.64C131.414 173.32 131.212 172.957 131.084 172.552C130.966 172.136 130.908 171.704 130.908 171.256C130.908 170.861 130.977 170.451 131.116 170.024C131.254 169.597 131.462 169.208 131.74 168.856C132.028 168.504 132.39 168.216 132.828 167.992C133.265 167.768 133.782 167.656 134.38 167.656C134.988 167.656 135.521 167.763 135.98 167.976C136.449 168.189 136.838 168.499 137.148 168.904C137.468 169.309 137.708 169.805 137.868 170.392C138.028 170.968 138.108 171.619 138.108 172.344ZM134.524 173.448C134.897 173.448 135.249 173.416 135.58 173.352C135.91 173.277 136.23 173.171 136.54 173.032C136.55 172.915 136.556 172.803 136.556 172.696C136.556 172.579 136.556 172.461 136.556 172.344C136.556 171.885 136.524 171.448 136.46 171.032C136.396 170.605 136.278 170.237 136.108 169.928C135.948 169.608 135.729 169.357 135.452 169.176C135.174 168.984 134.822 168.888 134.396 168.888C134.044 168.888 133.745 168.963 133.5 169.112C133.254 169.261 133.052 169.453 132.892 169.688C132.732 169.912 132.614 170.163 132.54 170.44C132.476 170.707 132.444 170.968 132.444 171.224C132.444 171.949 132.614 172.504 132.956 172.888C133.308 173.261 133.83 173.448 134.524 173.448ZM147.139 172.344C147.139 174.541 146.589 176.205 145.491 177.336C144.403 178.456 142.781 179.021 140.627 179.032L140.579 177.784C141.251 177.784 141.853 177.72 142.387 177.592C142.931 177.464 143.405 177.261 143.811 176.984C144.216 176.696 144.552 176.328 144.819 175.88C145.096 175.432 145.299 174.883 145.427 174.232C145.149 174.36 144.835 174.467 144.483 174.552C144.131 174.627 143.768 174.664 143.395 174.664C142.765 174.664 142.232 174.573 141.795 174.392C141.357 174.2 141 173.949 140.723 173.64C140.445 173.32 140.243 172.957 140.115 172.552C139.997 172.136 139.939 171.704 139.939 171.256C139.939 170.861 140.008 170.451 140.147 170.024C140.285 169.597 140.493 169.208 140.771 168.856C141.059 168.504 141.421 168.216 141.859 167.992C142.296 167.768 142.813 167.656 143.411 167.656C144.019 167.656 144.552 167.763 145.011 167.976C145.48 168.189 145.869 168.499 146.179 168.904C146.499 169.309 146.739 169.805 146.899 170.392C147.059 170.968 147.139 171.619 147.139 172.344ZM143.555 173.448C143.928 173.448 144.28 173.416 144.611 173.352C144.941 173.277 145.261 173.171 145.571 173.032C145.581 172.915 145.587 172.803 145.587 172.696C145.587 172.579 145.587 172.461 145.587 172.344C145.587 171.885 145.555 171.448 145.491 171.032C145.427 170.605 145.309 170.237 145.139 169.928C144.979 169.608 144.76 169.357 144.483 169.176C144.205 168.984 143.853 168.888 143.427 168.888C143.075 168.888 142.776 168.963 142.531 169.112C142.285 169.261 142.083 169.453 141.923 169.688C141.763 169.912 141.645 170.163 141.571 170.44C141.507 170.707 141.475 170.968 141.475 171.224C141.475 171.949 141.645 172.504 141.987 172.888C142.339 173.261 142.861 173.448 143.555 173.448ZM42.5678 185.8C44.1251 185.8 45.3198 186.099 46.1518 186.696C46.9945 187.283 47.4158 188.163 47.4158 189.336C47.4158 189.976 47.2985 190.525 47.0638 190.984C46.8398 191.432 46.5091 191.8 46.0718 192.088C45.6451 192.365 45.1225 192.568 44.5038 192.696C43.8851 192.824 43.1865 192.888 42.4078 192.888H41.1758V197H39.6238V186.072C40.0611 185.965 40.5465 185.896 41.0798 185.864C41.6238 185.821 42.1198 185.8 42.5678 185.8ZM42.6958 187.16C42.0345 187.16 41.5278 187.176 41.1758 187.208V191.56H42.3438C42.8771 191.56 43.3571 191.528 43.7838 191.464C44.2105 191.389 44.5678 191.272 44.8558 191.112C45.1545 190.941 45.3838 190.712 45.5438 190.424C45.7038 190.136 45.7838 189.768 45.7838 189.32C45.7838 188.893 45.6985 188.541 45.5278 188.264C45.3678 187.987 45.1438 187.768 44.8558 187.608C44.5785 187.437 44.2531 187.32 43.8798 187.256C43.5065 187.192 43.1118 187.16 42.6958 187.16ZM56.2624 192.84C56.2624 193.501 56.1664 194.099 55.9744 194.632C55.7824 195.165 55.5104 195.624 55.1584 196.008C54.8171 196.392 54.4064 196.691 53.9264 196.904C53.4464 197.107 52.9238 197.208 52.3584 197.208C51.7931 197.208 51.2704 197.107 50.7904 196.904C50.3104 196.691 49.8944 196.392 49.5424 196.008C49.2011 195.624 48.9344 195.165 48.7424 194.632C48.5504 194.099 48.4544 193.501 48.4544 192.84C48.4544 192.189 48.5504 191.597 48.7424 191.064C48.9344 190.52 49.2011 190.056 49.5424 189.672C49.8944 189.288 50.3104 188.995 50.7904 188.792C51.2704 188.579 51.7931 188.472 52.3584 188.472C52.9238 188.472 53.4464 188.579 53.9264 188.792C54.4064 188.995 54.8171 189.288 55.1584 189.672C55.5104 190.056 55.7824 190.52 55.9744 191.064C56.1664 191.597 56.2624 192.189 56.2624 192.84ZM54.7104 192.84C54.7104 191.901 54.4971 191.16 54.0704 190.616C53.6544 190.061 53.0838 189.784 52.3584 189.784C51.6331 189.784 51.0571 190.061 50.6304 190.616C50.2144 191.16 50.0064 191.901 50.0064 192.84C50.0064 193.779 50.2144 194.525 50.6304 195.08C51.0571 195.624 51.6331 195.896 52.3584 195.896C53.0838 195.896 53.6544 195.624 54.0704 195.08C54.4971 194.525 54.7104 193.779 54.7104 192.84ZM59.8439 197H58.3559V188.68H59.8439V197ZM59.0919 187.176C58.8253 187.176 58.5959 187.091 58.4039 186.92C58.2226 186.739 58.1319 186.499 58.1319 186.2C58.1319 185.901 58.2226 185.667 58.4039 185.496C58.5959 185.315 58.8253 185.224 59.0919 185.224C59.3586 185.224 59.5826 185.315 59.7639 185.496C59.9559 185.667 60.0519 185.901 60.0519 186.2C60.0519 186.499 59.9559 186.739 59.7639 186.92C59.5826 187.091 59.3586 187.176 59.0919 187.176ZM62.4028 188.92C62.7441 188.835 63.1975 188.744 63.7628 188.648C64.3281 188.552 64.9788 188.504 65.7148 188.504C66.3761 188.504 66.9255 188.6 67.3628 188.792C67.8001 188.973 68.1468 189.235 68.4028 189.576C68.6695 189.907 68.8561 190.307 68.9628 190.776C69.0695 191.245 69.1228 191.763 69.1228 192.328V197H67.6348V192.648C67.6348 192.136 67.5975 191.699 67.5228 191.336C67.4588 190.973 67.3468 190.68 67.1868 190.456C67.0268 190.232 66.8135 190.072 66.5468 189.976C66.2801 189.869 65.9495 189.816 65.5548 189.816C65.3948 189.816 65.2295 189.821 65.0588 189.832C64.8881 189.843 64.7228 189.859 64.5628 189.88C64.4135 189.891 64.2748 189.907 64.1468 189.928C64.0295 189.949 63.9441 189.965 63.8908 189.976V197H62.4028V188.92ZM72.9823 188.68H76.1343V189.928H72.9823V193.768C72.9823 194.184 73.0143 194.531 73.0783 194.808C73.1423 195.075 73.2383 195.288 73.3663 195.448C73.4943 195.597 73.6543 195.704 73.8463 195.768C74.0383 195.832 74.2623 195.864 74.5183 195.864C74.9663 195.864 75.3236 195.816 75.5903 195.72C75.8676 195.613 76.0596 195.539 76.1663 195.496L76.4543 196.728C76.305 196.803 76.0436 196.893 75.6703 197C75.297 197.117 74.8703 197.176 74.3903 197.176C73.825 197.176 73.3556 197.107 72.9823 196.968C72.6196 196.819 72.3263 196.6 72.1023 196.312C71.8783 196.024 71.7183 195.672 71.6223 195.256C71.537 194.829 71.4943 194.339 71.4943 193.784V186.36L72.9823 186.104V188.68ZM79.9638 195.928C80.5718 195.928 81.0198 195.848 81.3078 195.688C81.6065 195.528 81.7558 195.272 81.7558 194.92C81.7558 194.557 81.6118 194.269 81.3238 194.056C81.0358 193.843 80.5611 193.603 79.8998 193.336C79.5798 193.208 79.2705 193.08 78.9718 192.952C78.6838 192.813 78.4331 192.653 78.2198 192.472C78.0065 192.291 77.8358 192.072 77.7078 191.816C77.5798 191.56 77.5158 191.245 77.5158 190.872C77.5158 190.136 77.7878 189.555 78.3318 189.128C78.8758 188.691 79.6171 188.472 80.5558 188.472C80.7905 188.472 81.0251 188.488 81.2598 188.52C81.4945 188.541 81.7131 188.573 81.9158 188.616C82.1185 188.648 82.2945 188.685 82.4438 188.728C82.6038 188.771 82.7265 188.808 82.8118 188.84L82.5398 190.12C82.3798 190.035 82.1291 189.949 81.7878 189.864C81.4465 189.768 81.0358 189.72 80.5558 189.72C80.1398 189.72 79.7771 189.805 79.4678 189.976C79.1585 190.136 79.0038 190.392 79.0038 190.744C79.0038 190.925 79.0358 191.085 79.0998 191.224C79.1745 191.363 79.2811 191.491 79.4198 191.608C79.5691 191.715 79.7505 191.816 79.9638 191.912C80.1771 192.008 80.4331 192.109 80.7318 192.216C81.1265 192.365 81.4785 192.515 81.7878 192.664C82.0971 192.803 82.3585 192.968 82.5718 193.16C82.7958 193.352 82.9665 193.587 83.0838 193.864C83.2011 194.131 83.2598 194.461 83.2598 194.856C83.2598 195.624 82.9718 196.205 82.3958 196.6C81.8305 196.995 81.0198 197.192 79.9638 197.192C79.2278 197.192 78.6518 197.128 78.2358 197C77.8198 196.883 77.5371 196.792 77.3878 196.728L77.6598 195.448C77.8305 195.512 78.1025 195.608 78.4758 195.736C78.8491 195.864 79.3451 195.928 79.9638 195.928ZM85.0244 199.96H83.5044L88.9284 184.472H90.4164L85.0244 199.96ZM98.0771 195.656V197H91.4051V185.912H92.9571V195.656H98.0771ZM106.762 192.84C106.762 193.501 106.666 194.099 106.474 194.632C106.282 195.165 106.01 195.624 105.658 196.008C105.317 196.392 104.906 196.691 104.426 196.904C103.946 197.107 103.424 197.208 102.858 197.208C102.293 197.208 101.77 197.107 101.29 196.904C100.81 196.691 100.394 196.392 100.042 196.008C99.7011 195.624 99.4344 195.165 99.2424 194.632C99.0504 194.099 98.9544 193.501 98.9544 192.84C98.9544 192.189 99.0504 191.597 99.2424 191.064C99.4344 190.52 99.7011 190.056 100.042 189.672C100.394 189.288 100.81 188.995 101.29 188.792C101.77 188.579 102.293 188.472 102.858 188.472C103.424 188.472 103.946 188.579 104.426 188.792C104.906 188.995 105.317 189.288 105.658 189.672C106.01 190.056 106.282 190.52 106.474 191.064C106.666 191.597 106.762 192.189 106.762 192.84ZM105.21 192.84C105.21 191.901 104.997 191.16 104.57 190.616C104.154 190.061 103.584 189.784 102.858 189.784C102.133 189.784 101.557 190.061 101.13 190.616C100.714 191.16 100.506 191.901 100.506 192.84C100.506 193.779 100.714 194.525 101.13 195.08C101.557 195.624 102.133 195.896 102.858 195.896C103.584 195.896 104.154 195.624 104.57 195.08C104.997 194.525 105.21 193.779 105.21 192.84ZM110.248 188.68H113.4V189.928H110.248V193.768C110.248 194.184 110.28 194.531 110.344 194.808C110.408 195.075 110.504 195.288 110.632 195.448C110.76 195.597 110.92 195.704 111.112 195.768C111.304 195.832 111.528 195.864 111.784 195.864C112.232 195.864 112.589 195.816 112.856 195.72C113.133 195.613 113.325 195.539 113.432 195.496L113.72 196.728C113.571 196.803 113.309 196.893 112.936 197C112.563 197.117 112.136 197.176 111.656 197.176C111.091 197.176 110.621 197.107 110.248 196.968C109.885 196.819 109.592 196.6 109.368 196.312C109.144 196.024 108.984 195.672 108.888 195.256C108.803 194.829 108.76 194.339 108.76 193.784V186.36L110.248 186.104V188.68ZM117.053 196.136C117.053 196.424 116.957 196.675 116.765 196.888C116.573 197.101 116.312 197.208 115.981 197.208C115.651 197.208 115.389 197.101 115.197 196.888C115.005 196.675 114.909 196.424 114.909 196.136C114.909 195.848 115.005 195.597 115.197 195.384C115.389 195.171 115.651 195.064 115.981 195.064C116.312 195.064 116.573 195.171 116.765 195.384C116.957 195.597 117.053 195.848 117.053 196.136ZM117.053 189.752C117.053 190.04 116.957 190.291 116.765 190.504C116.573 190.717 116.312 190.824 115.981 190.824C115.651 190.824 115.389 190.717 115.197 190.504C115.005 190.291 114.909 190.04 114.909 189.752C114.909 189.464 115.005 189.213 115.197 189C115.389 188.787 115.651 188.68 115.981 188.68C116.312 188.68 116.573 188.787 116.765 189C116.957 189.213 117.053 189.464 117.053 189.752ZM122.454 191.448C122.454 189.592 122.779 188.163 123.43 187.16C124.091 186.157 125.003 185.656 126.166 185.656C127.329 185.656 128.235 186.157 128.886 187.16C129.547 188.163 129.878 189.592 129.878 191.448C129.878 193.304 129.547 194.733 128.886 195.736C128.235 196.739 127.329 197.24 126.166 197.24C125.003 197.24 124.091 196.739 123.43 195.736C122.779 194.733 122.454 193.304 122.454 191.448ZM128.31 191.448C128.31 190.84 128.273 190.264 128.198 189.72C128.134 189.176 128.017 188.701 127.846 188.296C127.686 187.891 127.467 187.571 127.19 187.336C126.913 187.091 126.571 186.968 126.166 186.968C125.761 186.968 125.419 187.091 125.142 187.336C124.865 187.571 124.641 187.891 124.47 188.296C124.31 188.701 124.193 189.176 124.118 189.72C124.054 190.264 124.022 190.84 124.022 191.448C124.022 192.056 124.054 192.632 124.118 193.176C124.193 193.72 124.31 194.195 124.47 194.6C124.641 195.005 124.865 195.331 125.142 195.576C125.419 195.811 125.761 195.928 126.166 195.928C126.571 195.928 126.913 195.811 127.19 195.576C127.467 195.331 127.686 195.005 127.846 194.6C128.017 194.195 128.134 193.72 128.198 193.176C128.273 192.632 128.31 192.056 128.31 191.448ZM133.725 196.136C133.725 196.424 133.629 196.675 133.437 196.888C133.245 197.101 132.984 197.208 132.653 197.208C132.323 197.208 132.061 197.101 131.869 196.888C131.677 196.675 131.581 196.424 131.581 196.136C131.581 195.848 131.677 195.597 131.869 195.384C132.061 195.171 132.323 195.064 132.653 195.064C132.984 195.064 133.245 195.171 133.437 195.384C133.629 195.597 133.725 195.848 133.725 196.136ZM137.807 190.184C139.417 190.248 140.596 190.6 141.343 191.24C142.1 191.88 142.479 192.749 142.479 193.848C142.479 194.339 142.393 194.792 142.223 195.208C142.063 195.624 141.812 195.981 141.471 196.28C141.14 196.579 140.719 196.813 140.207 196.984C139.695 197.155 139.087 197.24 138.383 197.24C138.105 197.24 137.823 197.219 137.535 197.176C137.247 197.133 136.98 197.08 136.735 197.016C136.489 196.952 136.271 196.888 136.079 196.824C135.887 196.76 135.748 196.707 135.663 196.664L135.951 195.368C136.132 195.453 136.425 195.565 136.831 195.704C137.247 195.843 137.753 195.912 138.351 195.912C138.831 195.912 139.231 195.859 139.551 195.752C139.881 195.645 140.148 195.501 140.351 195.32C140.553 195.139 140.697 194.931 140.783 194.696C140.879 194.451 140.927 194.195 140.927 193.928C140.927 193.523 140.857 193.165 140.719 192.856C140.58 192.536 140.335 192.269 139.983 192.056C139.631 191.843 139.161 191.683 138.575 191.576C137.988 191.459 137.247 191.4 136.351 191.4C136.415 190.877 136.463 190.387 136.495 189.928C136.537 189.469 136.575 189.021 136.607 188.584C136.639 188.147 136.665 187.715 136.687 187.288C136.708 186.851 136.729 186.392 136.751 185.912H142.095V187.176H138.047C138.036 187.336 138.02 187.555 137.999 187.832C137.977 188.099 137.956 188.381 137.935 188.68C137.913 188.968 137.892 189.251 137.871 189.528C137.849 189.805 137.828 190.024 137.807 190.184Z" fill="#333333"></path><path d="M74.6447 137.648C72.9327 137.648 71.6207 138.184 70.7087 139.256C69.8127 140.312 69.3647 141.784 69.3647 143.672C69.3647 144.568 69.4687 145.392 69.6767 146.144C69.9007 146.88 70.2207 147.512 70.6367 148.04C71.0687 148.568 71.5967 148.984 72.2207 149.288C72.8607 149.576 73.6047 149.72 74.4527 149.72C74.9807 149.72 75.4367 149.704 75.8207 149.672C76.2047 149.624 76.5087 149.568 76.7327 149.504V143.528H79.7567V151.52C79.3407 151.68 78.6367 151.856 77.6447 152.048C76.6527 152.24 75.5087 152.336 74.2127 152.336C73.0127 152.336 71.9167 152.144 70.9247 151.76C69.9327 151.376 69.0847 150.816 68.3807 150.08C67.6927 149.344 67.1567 148.44 66.7727 147.368C66.3887 146.296 66.1967 145.064 66.1967 143.672C66.1967 142.28 66.4047 141.048 66.8207 139.976C67.2527 138.904 67.8367 138 68.5727 137.264C69.3087 136.512 70.1727 135.944 71.1647 135.56C72.1567 135.176 73.2127 134.984 74.3327 134.984C75.1007 134.984 75.7807 135.04 76.3727 135.152C76.9807 135.248 77.5007 135.36 77.9327 135.488C78.3647 135.616 78.7167 135.752 78.9887 135.896C79.2767 136.04 79.4767 136.144 79.5887 136.208L78.6767 138.68C78.1967 138.392 77.5967 138.152 76.8767 137.96C76.1727 137.752 75.4287 137.648 74.6447 137.648ZM94.4595 145.712C94.4595 146.704 94.3155 147.608 94.0275 148.424C93.7395 149.24 93.3315 149.936 92.8035 150.512C92.2755 151.088 91.6355 151.536 90.8835 151.856C90.1475 152.176 89.3315 152.336 88.4355 152.336C87.5395 152.336 86.7235 152.176 85.9875 151.856C85.2515 151.536 84.6195 151.088 84.0915 150.512C83.5635 149.936 83.1475 149.24 82.8435 148.424C82.5555 147.608 82.4115 146.704 82.4115 145.712C82.4115 144.72 82.5555 143.824 82.8435 143.024C83.1475 142.208 83.5635 141.512 84.0915 140.936C84.6355 140.36 85.2755 139.92 86.0115 139.616C86.7475 139.296 87.5555 139.136 88.4355 139.136C89.3155 139.136 90.1235 139.296 90.8595 139.616C91.6115 139.92 92.2515 140.36 92.7795 140.936C93.3075 141.512 93.7155 142.208 94.0035 143.024C94.3075 143.824 94.4595 144.72 94.4595 145.712ZM91.4835 145.712C91.4835 144.464 91.2115 143.48 90.6675 142.76C90.1395 142.024 89.3955 141.656 88.4355 141.656C87.4755 141.656 86.7235 142.024 86.1795 142.76C85.6515 143.48 85.3875 144.464 85.3875 145.712C85.3875 146.976 85.6515 147.976 86.1795 148.712C86.7235 149.448 87.4755 149.816 88.4355 149.816C89.3955 149.816 90.1395 149.448 90.6675 148.712C91.2115 147.976 91.4835 146.976 91.4835 145.712ZM101.819 152.24C100.955 152.224 100.235 152.128 99.6593 151.952C99.0993 151.776 98.6513 151.528 98.3153 151.208C97.9793 150.872 97.7393 150.464 97.5953 149.984C97.4673 149.488 97.4033 148.928 97.4033 148.304V133.856L100.307 133.376V147.752C100.307 148.104 100.331 148.4 100.379 148.64C100.443 148.88 100.547 149.088 100.691 149.264C100.835 149.424 101.027 149.552 101.267 149.648C101.523 149.728 101.843 149.792 102.227 149.84L101.819 152.24ZM106.856 145.688C106.856 146.968 107.16 147.976 107.768 148.712C108.376 149.432 109.216 149.792 110.288 149.792C110.752 149.792 111.144 149.776 111.464 149.744C111.8 149.696 112.072 149.648 112.28 149.6V142.4C112.024 142.224 111.68 142.064 111.248 141.92C110.832 141.76 110.384 141.68 109.904 141.68C108.848 141.68 108.072 142.04 107.576 142.76C107.096 143.48 106.856 144.456 106.856 145.688ZM115.184 151.616C114.608 151.792 113.88 151.952 113 152.096C112.136 152.24 111.224 152.312 110.264 152.312C109.272 152.312 108.384 152.16 107.6 151.856C106.816 151.552 106.144 151.12 105.584 150.56C105.04 149.984 104.616 149.296 104.312 148.496C104.024 147.68 103.88 146.768 103.88 145.76C103.88 144.768 104 143.872 104.24 143.072C104.496 142.256 104.864 141.56 105.344 140.984C105.824 140.408 106.408 139.968 107.096 139.664C107.784 139.344 108.576 139.184 109.472 139.184C110.08 139.184 110.616 139.256 111.08 139.4C111.544 139.544 111.944 139.704 112.28 139.88V133.856L115.184 133.376V151.616Z" fill="#333333"></path><circle cx="90.9509" cy="72" r="40" fill="#00C8FF"></circle><path d="M80.2229 60.1094C79.9432 60.1094 79.6749 60.2205 79.4771 60.4183C79.2793 60.6161 79.1682 60.8843 79.1682 61.164V88.9461C79.1681 89.1318 79.217 89.3142 79.3101 89.4749C79.4031 89.6356 79.5368 89.7689 79.6979 89.8613C79.8589 89.9537 80.0415 90.002 80.2272 90.0013C80.4129 90.0005 80.595 89.9507 80.7553 89.857L90.9482 83.8981L92.3329 72.6625L90.9482 60.1094H80.2229Z" fill="#FDBF00"></path><path d="M101.676 60.1094H90.9511V83.8981L101.144 89.857C101.304 89.9507 101.486 90.0005 101.672 90.0013C101.858 90.0021 102.04 89.9539 102.201 89.8615C102.362 89.7692 102.496 89.636 102.589 89.4754C102.682 89.3148 102.731 89.1325 102.731 88.9469V61.164C102.731 60.8843 102.62 60.6161 102.422 60.4183C102.224 60.2205 101.956 60.1094 101.676 60.1094Z" fill="#FFD74A"></path><path d="M74.885 54C74.6053 54 74.337 54.1111 74.1392 54.3089C73.9414 54.5067 73.8303 54.775 73.8303 55.0547C73.8323 56.9539 74.5877 58.7747 75.9306 60.1176C77.2736 61.4605 79.0944 62.2159 80.9936 62.2179H90.9508L92.3355 58.3905L90.9508 54H74.885Z" fill="#EDB200"></path><path d="M107.017 54H90.9508V62.2179H100.908C102.807 62.2159 104.628 61.4605 105.971 60.1176C107.314 58.7747 108.069 56.9539 108.071 55.0547C108.071 54.9162 108.044 54.779 107.991 54.6511C107.938 54.5231 107.86 54.4068 107.762 54.3089C107.665 54.211 107.548 54.1333 107.42 54.0803C107.292 54.0273 107.155 54 107.017 54V54Z" fill="#EDB200"></path><path d="M89.9995 66.4397L88.7543 70.2672H84.7261C84.515 70.2673 84.3093 70.3342 84.1386 70.4584C83.9678 70.5825 83.8407 70.7575 83.7755 70.9583C83.7103 71.1591 83.7103 71.3754 83.7754 71.5762C83.8406 71.777 83.9677 71.9521 84.1384 72.0763L87.3977 74.4442L86.1525 78.2716C86.0873 78.4724 86.0874 78.6887 86.1526 78.8895C86.2179 79.0903 86.345 79.2653 86.5157 79.3894C86.6865 79.5136 86.8922 79.5805 87.1033 79.5806C87.3144 79.5807 87.5202 79.514 87.6911 79.39L90.9504 77.0221L91.8307 72.7694L90.9504 65.738C90.7393 65.7381 90.5336 65.8049 90.3628 65.929C90.192 66.053 90.0648 66.2279 89.9995 66.4287V66.4397Z" fill="#D8AA05"></path><path d="M98.1258 70.9604C98.0605 70.7597 97.9333 70.5848 97.7625 70.4607C97.5917 70.3367 97.386 70.2698 97.1749 70.2698H93.1468L91.9016 66.4423C91.8363 66.2416 91.7091 66.0667 91.5383 65.9426C91.3675 65.8186 91.1618 65.7518 90.9507 65.7517V77.0282L94.21 79.3961C94.3829 79.5149 94.5878 79.5785 94.7977 79.5785C95.0075 79.5785 95.2124 79.5149 95.3854 79.3961C95.5565 79.272 95.6838 79.097 95.7491 78.896C95.8144 78.695 95.8142 78.4785 95.7486 78.2776L94.5034 74.4502L97.7627 72.0823C97.9342 71.9579 98.0619 71.7822 98.1271 71.5806C98.1924 71.3789 98.192 71.1618 98.1258 70.9604Z" fill="#F0B70C"></path></svg>