<svg xmlns="http://www.w3.org/2000/svg" width="181" height="224" viewBox="0 0 181 224" fill="none"><path d="M0.380371 10C0.380371 4.47715 4.85752 0 10.3804 0H170.761C176.284 0 180.761 4.47715 180.761 10V214C180.761 219.523 176.284 224 170.761 224H10.3804C4.85754 224 0.380371 219.523 0.380371 214V10Z" fill="white"></path><path fill-rule="evenodd" clip-rule="evenodd" d="M170.761 0.5H10.3804C5.13367 0.5 0.880371 4.7533 0.880371 10V214C0.880371 219.247 5.13368 223.5 10.3804 223.5H170.761C176.008 223.5 180.261 219.247 180.261 214V10C180.261 4.7533 176.008 0.5 170.761 0.5ZM10.3804 0C4.85752 0 0.380371 4.47715 0.380371 10V214C0.380371 219.523 4.85754 224 10.3804 224H170.761C176.284 224 180.761 219.523 180.761 214V10C180.761 4.47715 176.284 0 170.761 0H10.3804Z" fill="#CCCCCC"></path><path d="M28.6813 177.656V179H22.0093V167.912H23.5613V177.656H28.6813ZM37.3667 174.84C37.3667 175.501 37.2707 176.099 37.0787 176.632C36.8867 177.165 36.6147 177.624 36.2627 178.008C35.9213 178.392 35.5107 178.691 35.0307 178.904C34.5507 179.107 34.028 179.208 33.4627 179.208C32.8973 179.208 32.3747 179.107 31.8947 178.904C31.4147 178.691 30.9987 178.392 30.6467 178.008C30.3053 177.624 30.0387 177.165 29.8467 176.632C29.6547 176.099 29.5587 175.501 29.5587 174.84C29.5587 174.189 29.6547 173.597 29.8467 173.064C30.0387 172.52 30.3053 172.056 30.6467 171.672C30.9987 171.288 31.4147 170.995 31.8947 170.792C32.3747 170.579 32.8973 170.472 33.4627 170.472C34.028 170.472 34.5507 170.579 35.0307 170.792C35.5107 170.995 35.9213 171.288 36.2627 171.672C36.6147 172.056 36.8867 172.52 37.0787 173.064C37.2707 173.597 37.3667 174.189 37.3667 174.84ZM35.8147 174.84C35.8147 173.901 35.6013 173.16 35.1747 172.616C34.7587 172.061 34.188 171.784 33.4627 171.784C32.7373 171.784 32.1613 172.061 31.7347 172.616C31.3187 173.16 31.1107 173.901 31.1107 174.84C31.1107 175.779 31.3187 176.525 31.7347 177.08C32.1613 177.624 32.7373 177.896 33.4627 177.896C34.188 177.896 34.7587 177.624 35.1747 177.08C35.6013 176.525 35.8147 175.779 35.8147 174.84ZM40.8522 170.68H44.0042V171.928H40.8522V175.768C40.8522 176.184 40.8842 176.531 40.9482 176.808C41.0122 177.075 41.1082 177.288 41.2362 177.448C41.3642 177.597 41.5242 177.704 41.7162 177.768C41.9082 177.832 42.1322 177.864 42.3882 177.864C42.8362 177.864 43.1935 177.816 43.4602 177.72C43.7375 177.613 43.9295 177.539 44.0362 177.496L44.3242 178.728C44.1748 178.803 43.9135 178.893 43.5402 179C43.1668 179.117 42.7402 179.176 42.2602 179.176C41.6948 179.176 41.2255 179.107 40.8522 178.968C40.4895 178.819 40.1962 178.6 39.9722 178.312C39.7482 178.024 39.5882 177.672 39.4922 177.256C39.4068 176.829 39.3642 176.339 39.3642 175.784V168.36L40.8522 168.104V170.68ZM47.8337 177.928C48.4417 177.928 48.8897 177.848 49.1777 177.688C49.4763 177.528 49.6257 177.272 49.6257 176.92C49.6257 176.557 49.4817 176.269 49.1937 176.056C48.9057 175.843 48.431 175.603 47.7697 175.336C47.4497 175.208 47.1403 175.08 46.8417 174.952C46.5537 174.813 46.303 174.653 46.0897 174.472C45.8763 174.291 45.7057 174.072 45.5777 173.816C45.4497 173.56 45.3857 173.245 45.3857 172.872C45.3857 172.136 45.6577 171.555 46.2017 171.128C46.7457 170.691 47.487 170.472 48.4257 170.472C48.6603 170.472 48.895 170.488 49.1297 170.52C49.3643 170.541 49.583 170.573 49.7857 170.616C49.9883 170.648 50.1643 170.685 50.3137 170.728C50.4737 170.771 50.5963 170.808 50.6817 170.84L50.4097 172.12C50.2497 172.035 49.999 171.949 49.6577 171.864C49.3163 171.768 48.9057 171.72 48.4257 171.72C48.0097 171.72 47.647 171.805 47.3377 171.976C47.0283 172.136 46.8737 172.392 46.8737 172.744C46.8737 172.925 46.9057 173.085 46.9697 173.224C47.0443 173.363 47.151 173.491 47.2897 173.608C47.439 173.715 47.6203 173.816 47.8337 173.912C48.047 174.008 48.303 174.109 48.6017 174.216C48.9963 174.365 49.3483 174.515 49.6577 174.664C49.967 174.803 50.2283 174.968 50.4417 175.16C50.6657 175.352 50.8363 175.587 50.9537 175.864C51.071 176.131 51.1297 176.461 51.1297 176.856C51.1297 177.624 50.8417 178.205 50.2657 178.6C49.7003 178.995 48.8897 179.192 47.8337 179.192C47.0977 179.192 46.5217 179.128 46.1057 179C45.6897 178.883 45.407 178.792 45.2577 178.728L45.5297 177.448C45.7003 177.512 45.9723 177.608 46.3457 177.736C46.719 177.864 47.215 177.928 47.8337 177.928ZM54.7983 178.136C54.7983 178.424 54.7023 178.675 54.5103 178.888C54.3183 179.101 54.057 179.208 53.7263 179.208C53.3956 179.208 53.1343 179.101 52.9423 178.888C52.7503 178.675 52.6543 178.424 52.6543 178.136C52.6543 177.848 52.7503 177.597 52.9423 177.384C53.1343 177.171 53.3956 177.064 53.7263 177.064C54.057 177.064 54.3183 177.171 54.5103 177.384C54.7023 177.597 54.7983 177.848 54.7983 178.136ZM54.7983 171.752C54.7983 172.04 54.7023 172.291 54.5103 172.504C54.3183 172.717 54.057 172.824 53.7263 172.824C53.3956 172.824 53.1343 172.717 52.9423 172.504C52.7503 172.291 52.6543 172.04 52.6543 171.752C52.6543 171.464 52.7503 171.213 52.9423 171C53.1343 170.787 53.3956 170.68 53.7263 170.68C54.057 170.68 54.3183 170.787 54.5103 171C54.7023 171.213 54.7983 171.464 54.7983 171.752ZM62.5829 172.184C64.1936 172.248 65.3723 172.6 66.1189 173.24C66.8763 173.88 67.2549 174.749 67.2549 175.848C67.2549 176.339 67.1696 176.792 66.9989 177.208C66.8389 177.624 66.5883 177.981 66.2469 178.28C65.9163 178.579 65.4949 178.813 64.9829 178.984C64.4709 179.155 63.8629 179.24 63.1589 179.24C62.8816 179.24 62.5989 179.219 62.3109 179.176C62.0229 179.133 61.7563 179.08 61.5109 179.016C61.2656 178.952 61.0469 178.888 60.8549 178.824C60.6629 178.76 60.5243 178.707 60.4389 178.664L60.7269 177.368C60.9083 177.453 61.2016 177.565 61.6069 177.704C62.0229 177.843 62.5296 177.912 63.1269 177.912C63.6069 177.912 64.0069 177.859 64.3269 177.752C64.6576 177.645 64.9243 177.501 65.1269 177.32C65.3296 177.139 65.4736 176.931 65.5589 176.696C65.6549 176.451 65.7029 176.195 65.7029 175.928C65.7029 175.523 65.6336 175.165 65.4949 174.856C65.3563 174.536 65.1109 174.269 64.7589 174.056C64.4069 173.843 63.9376 173.683 63.3509 173.576C62.7643 173.459 62.0229 173.4 61.1269 173.4C61.1909 172.877 61.2389 172.387 61.2709 171.928C61.3136 171.469 61.3509 171.021 61.3829 170.584C61.4149 170.147 61.4416 169.715 61.4629 169.288C61.4843 168.851 61.5056 168.392 61.5269 167.912H66.8709V169.176H62.8229C62.8123 169.336 62.7963 169.555 62.7749 169.832C62.7536 170.099 62.7323 170.381 62.7109 170.68C62.6896 170.968 62.6683 171.251 62.6469 171.528C62.6256 171.805 62.6043 172.024 62.5829 172.184ZM69.2302 173.448C69.2302 171.592 69.5555 170.163 70.2062 169.16C70.8675 168.157 71.7795 167.656 72.9422 167.656C74.1048 167.656 75.0115 168.157 75.6622 169.16C76.3235 170.163 76.6542 171.592 76.6542 173.448C76.6542 175.304 76.3235 176.733 75.6622 177.736C75.0115 178.739 74.1048 179.24 72.9422 179.24C71.7795 179.24 70.8675 178.739 70.2062 177.736C69.5555 176.733 69.2302 175.304 69.2302 173.448ZM75.0862 173.448C75.0862 172.84 75.0488 172.264 74.9742 171.72C74.9102 171.176 74.7928 170.701 74.6222 170.296C74.4622 169.891 74.2435 169.571 73.9662 169.336C73.6888 169.091 73.3475 168.968 72.9422 168.968C72.5368 168.968 72.1955 169.091 71.9182 169.336C71.6408 169.571 71.4168 169.891 71.2462 170.296C71.0862 170.701 70.9688 171.176 70.8942 171.72C70.8302 172.264 70.7982 172.84 70.7982 173.448C70.7982 174.056 70.8302 174.632 70.8942 175.176C70.9688 175.72 71.0862 176.195 71.2462 176.6C71.4168 177.005 71.6408 177.331 71.9182 177.576C72.1955 177.811 72.5368 177.928 72.9422 177.928C73.3475 177.928 73.6888 177.811 73.9662 177.576C74.2435 177.331 74.4622 177.005 74.6222 176.6C74.7928 176.195 74.9102 175.72 74.9742 175.176C75.0488 174.632 75.0862 174.056 75.0862 173.448ZM78.2614 173.448C78.2614 171.592 78.5868 170.163 79.2374 169.16C79.8988 168.157 80.8108 167.656 81.9734 167.656C83.1361 167.656 84.0428 168.157 84.6934 169.16C85.3548 170.163 85.6854 171.592 85.6854 173.448C85.6854 175.304 85.3548 176.733 84.6934 177.736C84.0428 178.739 83.1361 179.24 81.9734 179.24C80.8108 179.24 79.8988 178.739 79.2374 177.736C78.5868 176.733 78.2614 175.304 78.2614 173.448ZM84.1174 173.448C84.1174 172.84 84.0801 172.264 84.0054 171.72C83.9414 171.176 83.8241 170.701 83.6534 170.296C83.4934 169.891 83.2748 169.571 82.9974 169.336C82.7201 169.091 82.3788 168.968 81.9734 168.968C81.5681 168.968 81.2268 169.091 80.9494 169.336C80.6721 169.571 80.4481 169.891 80.2774 170.296C80.1174 170.701 80.0001 171.176 79.9254 171.72C79.8614 172.264 79.8294 172.84 79.8294 173.448C79.8294 174.056 79.8614 174.632 79.9254 175.176C80.0001 175.72 80.1174 176.195 80.2774 176.6C80.4481 177.005 80.6721 177.331 80.9494 177.576C81.2268 177.811 81.5681 177.928 81.9734 177.928C82.3788 177.928 82.7201 177.811 82.9974 177.576C83.2748 177.331 83.4934 177.005 83.6534 176.6C83.8241 176.195 83.9414 175.72 84.0054 175.176C84.0801 174.632 84.1174 174.056 84.1174 173.448ZM90.6118 173.512H94.5638V174.904H90.6118V173.512ZM99.3202 175.16C99.5228 174.691 99.8002 174.147 100.152 173.528C100.504 172.899 100.899 172.253 101.336 171.592C101.784 170.931 102.259 170.28 102.76 169.64C103.272 169 103.784 168.424 104.296 167.912H105.72V174.952H107.032V176.168H105.72V179H104.28V176.168H99.3202V175.16ZM104.28 169.672C103.96 170.013 103.635 170.397 103.304 170.824C102.984 171.24 102.67 171.677 102.36 172.136C102.051 172.595 101.758 173.064 101.48 173.544C101.214 174.024 100.974 174.493 100.76 174.952H104.28V169.672ZM115.727 172.344C115.727 174.541 115.178 176.205 114.079 177.336C112.991 178.456 111.37 179.021 109.215 179.032L109.167 177.784C109.839 177.784 110.442 177.72 110.975 177.592C111.519 177.464 111.994 177.261 112.399 176.984C112.805 176.696 113.141 176.328 113.407 175.88C113.685 175.432 113.887 174.883 114.015 174.232C113.738 174.36 113.423 174.467 113.071 174.552C112.719 174.627 112.357 174.664 111.983 174.664C111.354 174.664 110.821 174.573 110.383 174.392C109.946 174.2 109.589 173.949 109.311 173.64C109.034 173.32 108.831 172.957 108.703 172.552C108.586 172.136 108.527 171.704 108.527 171.256C108.527 170.861 108.597 170.451 108.735 170.024C108.874 169.597 109.082 169.208 109.359 168.856C109.647 168.504 110.01 168.216 110.447 167.992C110.885 167.768 111.402 167.656 111.999 167.656C112.607 167.656 113.141 167.763 113.599 167.976C114.069 168.189 114.458 168.499 114.767 168.904C115.087 169.309 115.327 169.805 115.487 170.392C115.647 170.968 115.727 171.619 115.727 172.344ZM112.143 173.448C112.517 173.448 112.869 173.416 113.199 173.352C113.53 173.277 113.85 173.171 114.159 173.032C114.17 172.915 114.175 172.803 114.175 172.696C114.175 172.579 114.175 172.461 114.175 172.344C114.175 171.885 114.143 171.448 114.079 171.032C114.015 170.605 113.898 170.237 113.727 169.928C113.567 169.608 113.349 169.357 113.071 169.176C112.794 168.984 112.442 168.888 112.015 168.888C111.663 168.888 111.365 168.963 111.119 169.112C110.874 169.261 110.671 169.453 110.511 169.688C110.351 169.912 110.234 170.163 110.159 170.44C110.095 170.707 110.063 170.968 110.063 171.224C110.063 171.949 110.234 172.504 110.575 172.888C110.927 173.261 111.45 173.448 112.143 173.448ZM124.759 172.344C124.759 174.541 124.209 176.205 123.111 177.336C122.023 178.456 120.401 179.021 118.247 179.032L118.199 177.784C118.871 177.784 119.473 177.72 120.007 177.592C120.551 177.464 121.025 177.261 121.431 176.984C121.836 176.696 122.172 176.328 122.439 175.88C122.716 175.432 122.919 174.883 123.047 174.232C122.769 174.36 122.455 174.467 122.103 174.552C121.751 174.627 121.388 174.664 121.015 174.664C120.385 174.664 119.852 174.573 119.415 174.392C118.977 174.2 118.62 173.949 118.343 173.64C118.065 173.32 117.863 172.957 117.735 172.552C117.617 172.136 117.559 171.704 117.559 171.256C117.559 170.861 117.628 170.451 117.767 170.024C117.905 169.597 118.113 169.208 118.391 168.856C118.679 168.504 119.041 168.216 119.479 167.992C119.916 167.768 120.433 167.656 121.031 167.656C121.639 167.656 122.172 167.763 122.631 167.976C123.1 168.189 123.489 168.499 123.799 168.904C124.119 169.309 124.359 169.805 124.519 170.392C124.679 170.968 124.759 171.619 124.759 172.344ZM121.175 173.448C121.548 173.448 121.9 173.416 122.231 173.352C122.561 173.277 122.881 173.171 123.191 173.032C123.201 172.915 123.207 172.803 123.207 172.696C123.207 172.579 123.207 172.461 123.207 172.344C123.207 171.885 123.175 171.448 123.111 171.032C123.047 170.605 122.929 170.237 122.759 169.928C122.599 169.608 122.38 169.357 122.103 169.176C121.825 168.984 121.473 168.888 121.047 168.888C120.695 168.888 120.396 168.963 120.151 169.112C119.905 169.261 119.703 169.453 119.543 169.688C119.383 169.912 119.265 170.163 119.191 170.44C119.127 170.707 119.095 170.968 119.095 171.224C119.095 171.949 119.265 172.504 119.607 172.888C119.959 173.261 120.481 173.448 121.175 173.448ZM133.79 172.344C133.79 174.541 133.241 176.205 132.142 177.336C131.054 178.456 129.433 179.021 127.278 179.032L127.23 177.784C127.902 177.784 128.505 177.72 129.038 177.592C129.582 177.464 130.057 177.261 130.462 176.984C130.867 176.696 131.203 176.328 131.47 175.88C131.747 175.432 131.95 174.883 132.078 174.232C131.801 174.36 131.486 174.467 131.134 174.552C130.782 174.627 130.419 174.664 130.046 174.664C129.417 174.664 128.883 174.573 128.446 174.392C128.009 174.2 127.651 173.949 127.374 173.64C127.097 173.32 126.894 172.957 126.766 172.552C126.649 172.136 126.59 171.704 126.59 171.256C126.59 170.861 126.659 170.451 126.798 170.024C126.937 169.597 127.145 169.208 127.422 168.856C127.71 168.504 128.073 168.216 128.51 167.992C128.947 167.768 129.465 167.656 130.062 167.656C130.67 167.656 131.203 167.763 131.662 167.976C132.131 168.189 132.521 168.499 132.83 168.904C133.15 169.309 133.39 169.805 133.55 170.392C133.71 170.968 133.79 171.619 133.79 172.344ZM130.206 173.448C130.579 173.448 130.931 173.416 131.262 173.352C131.593 173.277 131.913 173.171 132.222 173.032C132.233 172.915 132.238 172.803 132.238 172.696C132.238 172.579 132.238 172.461 132.238 172.344C132.238 171.885 132.206 171.448 132.142 171.032C132.078 170.605 131.961 170.237 131.79 169.928C131.63 169.608 131.411 169.357 131.134 169.176C130.857 168.984 130.505 168.888 130.078 168.888C129.726 168.888 129.427 168.963 129.182 169.112C128.937 169.261 128.734 169.453 128.574 169.688C128.414 169.912 128.297 170.163 128.222 170.44C128.158 170.707 128.126 170.968 128.126 171.224C128.126 171.949 128.297 172.504 128.638 172.888C128.99 173.261 129.513 173.448 130.206 173.448ZM137.845 178.136C137.845 178.424 137.749 178.675 137.557 178.888C137.365 179.101 137.104 179.208 136.773 179.208C136.443 179.208 136.181 179.101 135.989 178.888C135.797 178.675 135.701 178.424 135.701 178.136C135.701 177.848 135.797 177.597 135.989 177.384C136.181 177.171 136.443 177.064 136.773 177.064C137.104 177.064 137.365 177.171 137.557 177.384C137.749 177.597 137.845 177.848 137.845 178.136ZM146.759 172.344C146.759 174.541 146.209 176.205 145.111 177.336C144.023 178.456 142.401 179.021 140.247 179.032L140.199 177.784C140.871 177.784 141.473 177.72 142.007 177.592C142.551 177.464 143.025 177.261 143.431 176.984C143.836 176.696 144.172 176.328 144.439 175.88C144.716 175.432 144.919 174.883 145.047 174.232C144.769 174.36 144.455 174.467 144.103 174.552C143.751 174.627 143.388 174.664 143.015 174.664C142.385 174.664 141.852 174.573 141.415 174.392C140.977 174.2 140.62 173.949 140.343 173.64C140.065 173.32 139.863 172.957 139.735 172.552C139.617 172.136 139.559 171.704 139.559 171.256C139.559 170.861 139.628 170.451 139.767 170.024C139.905 169.597 140.113 169.208 140.391 168.856C140.679 168.504 141.041 168.216 141.479 167.992C141.916 167.768 142.433 167.656 143.031 167.656C143.639 167.656 144.172 167.763 144.631 167.976C145.1 168.189 145.489 168.499 145.799 168.904C146.119 169.309 146.359 169.805 146.519 170.392C146.679 170.968 146.759 171.619 146.759 172.344ZM143.175 173.448C143.548 173.448 143.9 173.416 144.231 173.352C144.561 173.277 144.881 173.171 145.191 173.032C145.201 172.915 145.207 172.803 145.207 172.696C145.207 172.579 145.207 172.461 145.207 172.344C145.207 171.885 145.175 171.448 145.111 171.032C145.047 170.605 144.929 170.237 144.759 169.928C144.599 169.608 144.38 169.357 144.103 169.176C143.825 168.984 143.473 168.888 143.047 168.888C142.695 168.888 142.396 168.963 142.151 169.112C141.905 169.261 141.703 169.453 141.543 169.688C141.383 169.912 141.265 170.163 141.191 170.44C141.127 170.707 141.095 170.968 141.095 171.224C141.095 171.949 141.265 172.504 141.607 172.888C141.959 173.261 142.481 173.448 143.175 173.448ZM155.79 172.344C155.79 174.541 155.241 176.205 154.142 177.336C153.054 178.456 151.433 179.021 149.278 179.032L149.23 177.784C149.902 177.784 150.505 177.72 151.038 177.592C151.582 177.464 152.057 177.261 152.462 176.984C152.867 176.696 153.203 176.328 153.47 175.88C153.747 175.432 153.95 174.883 154.078 174.232C153.801 174.36 153.486 174.467 153.134 174.552C152.782 174.627 152.419 174.664 152.046 174.664C151.417 174.664 150.883 174.573 150.446 174.392C150.009 174.2 149.651 173.949 149.374 173.64C149.097 173.32 148.894 172.957 148.766 172.552C148.649 172.136 148.59 171.704 148.59 171.256C148.59 170.861 148.659 170.451 148.798 170.024C148.937 169.597 149.145 169.208 149.422 168.856C149.71 168.504 150.073 168.216 150.51 167.992C150.947 167.768 151.465 167.656 152.062 167.656C152.67 167.656 153.203 167.763 153.662 167.976C154.131 168.189 154.521 168.499 154.83 168.904C155.15 169.309 155.39 169.805 155.55 170.392C155.71 170.968 155.79 171.619 155.79 172.344ZM152.206 173.448C152.579 173.448 152.931 173.416 153.262 173.352C153.593 173.277 153.913 173.171 154.222 173.032C154.233 172.915 154.238 172.803 154.238 172.696C154.238 172.579 154.238 172.461 154.238 172.344C154.238 171.885 154.206 171.448 154.142 171.032C154.078 170.605 153.961 170.237 153.79 169.928C153.63 169.608 153.411 169.357 153.134 169.176C152.857 168.984 152.505 168.888 152.078 168.888C151.726 168.888 151.427 168.963 151.182 169.112C150.937 169.261 150.734 169.453 150.574 169.688C150.414 169.912 150.297 170.163 150.222 170.44C150.158 170.707 150.126 170.968 150.126 171.224C150.126 171.949 150.297 172.504 150.638 172.888C150.99 173.261 151.513 173.448 152.206 173.448ZM42.1877 185.8C43.745 185.8 44.9397 186.099 45.7717 186.696C46.6143 187.283 47.0357 188.163 47.0357 189.336C47.0357 189.976 46.9183 190.525 46.6837 190.984C46.4597 191.432 46.129 191.8 45.6917 192.088C45.265 192.365 44.7423 192.568 44.1237 192.696C43.505 192.824 42.8063 192.888 42.0277 192.888H40.7957V197H39.2437V186.072C39.681 185.965 40.1663 185.896 40.6997 185.864C41.2437 185.821 41.7397 185.8 42.1877 185.8ZM42.3157 187.16C41.6543 187.16 41.1477 187.176 40.7957 187.208V191.56H41.9637C42.497 191.56 42.977 191.528 43.4037 191.464C43.8303 191.389 44.1877 191.272 44.4757 191.112C44.7743 190.941 45.0037 190.712 45.1637 190.424C45.3237 190.136 45.4037 189.768 45.4037 189.32C45.4037 188.893 45.3183 188.541 45.1477 188.264C44.9877 187.987 44.7637 187.768 44.4757 187.608C44.1983 187.437 43.873 187.32 43.4997 187.256C43.1263 187.192 42.7317 187.16 42.3157 187.16ZM55.8823 192.84C55.8823 193.501 55.7863 194.099 55.5943 194.632C55.4023 195.165 55.1303 195.624 54.7783 196.008C54.437 196.392 54.0263 196.691 53.5463 196.904C53.0663 197.107 52.5436 197.208 51.9783 197.208C51.413 197.208 50.8903 197.107 50.4103 196.904C49.9303 196.691 49.5143 196.392 49.1623 196.008C48.821 195.624 48.5543 195.165 48.3623 194.632C48.1703 194.099 48.0743 193.501 48.0743 192.84C48.0743 192.189 48.1703 191.597 48.3623 191.064C48.5543 190.52 48.821 190.056 49.1623 189.672C49.5143 189.288 49.9303 188.995 50.4103 188.792C50.8903 188.579 51.413 188.472 51.9783 188.472C52.5436 188.472 53.0663 188.579 53.5463 188.792C54.0263 188.995 54.437 189.288 54.7783 189.672C55.1303 190.056 55.4023 190.52 55.5943 191.064C55.7863 191.597 55.8823 192.189 55.8823 192.84ZM54.3303 192.84C54.3303 191.901 54.117 191.16 53.6903 190.616C53.2743 190.061 52.7036 189.784 51.9783 189.784C51.253 189.784 50.677 190.061 50.2503 190.616C49.8343 191.16 49.6263 191.901 49.6263 192.84C49.6263 193.779 49.8343 194.525 50.2503 195.08C50.677 195.624 51.253 195.896 51.9783 195.896C52.7036 195.896 53.2743 195.624 53.6903 195.08C54.117 194.525 54.3303 193.779 54.3303 192.84ZM59.4638 197H57.9758V188.68H59.4638V197ZM58.7118 187.176C58.4451 187.176 58.2158 187.091 58.0238 186.92C57.8425 186.739 57.7518 186.499 57.7518 186.2C57.7518 185.901 57.8425 185.667 58.0238 185.496C58.2158 185.315 58.4451 185.224 58.7118 185.224C58.9785 185.224 59.2025 185.315 59.3838 185.496C59.5758 185.667 59.6718 185.901 59.6718 186.2C59.6718 186.499 59.5758 186.739 59.3838 186.92C59.2025 187.091 58.9785 187.176 58.7118 187.176ZM62.0227 188.92C62.364 188.835 62.8173 188.744 63.3827 188.648C63.948 188.552 64.5987 188.504 65.3347 188.504C65.996 188.504 66.5453 188.6 66.9827 188.792C67.42 188.973 67.7667 189.235 68.0227 189.576C68.2893 189.907 68.476 190.307 68.5827 190.776C68.6893 191.245 68.7427 191.763 68.7427 192.328V197H67.2547V192.648C67.2547 192.136 67.2173 191.699 67.1427 191.336C67.0787 190.973 66.9667 190.68 66.8067 190.456C66.6467 190.232 66.4333 190.072 66.1667 189.976C65.9 189.869 65.5693 189.816 65.1747 189.816C65.0147 189.816 64.8493 189.821 64.6787 189.832C64.508 189.843 64.3427 189.859 64.1827 189.88C64.0333 189.891 63.8947 189.907 63.7667 189.928C63.6493 189.949 63.564 189.965 63.5107 189.976V197H62.0227V188.92ZM72.6022 188.68H75.7542V189.928H72.6022V193.768C72.6022 194.184 72.6342 194.531 72.6982 194.808C72.7622 195.075 72.8582 195.288 72.9862 195.448C73.1142 195.597 73.2742 195.704 73.4662 195.768C73.6582 195.832 73.8822 195.864 74.1382 195.864C74.5862 195.864 74.9435 195.816 75.2102 195.72C75.4875 195.613 75.6795 195.539 75.7862 195.496L76.0742 196.728C75.9248 196.803 75.6635 196.893 75.2902 197C74.9168 197.117 74.4902 197.176 74.0102 197.176C73.4448 197.176 72.9755 197.107 72.6022 196.968C72.2395 196.819 71.9462 196.6 71.7222 196.312C71.4982 196.024 71.3382 195.672 71.2422 195.256C71.1568 194.829 71.1142 194.339 71.1142 193.784V186.36L72.6022 186.104V188.68ZM79.5837 195.928C80.1917 195.928 80.6397 195.848 80.9277 195.688C81.2263 195.528 81.3757 195.272 81.3757 194.92C81.3757 194.557 81.2317 194.269 80.9437 194.056C80.6557 193.843 80.181 193.603 79.5197 193.336C79.1997 193.208 78.8903 193.08 78.5917 192.952C78.3037 192.813 78.053 192.653 77.8397 192.472C77.6263 192.291 77.4557 192.072 77.3277 191.816C77.1997 191.56 77.1357 191.245 77.1357 190.872C77.1357 190.136 77.4077 189.555 77.9517 189.128C78.4957 188.691 79.237 188.472 80.1757 188.472C80.4103 188.472 80.645 188.488 80.8797 188.52C81.1143 188.541 81.333 188.573 81.5357 188.616C81.7383 188.648 81.9143 188.685 82.0637 188.728C82.2237 188.771 82.3463 188.808 82.4317 188.84L82.1597 190.12C81.9997 190.035 81.749 189.949 81.4077 189.864C81.0663 189.768 80.6557 189.72 80.1757 189.72C79.7597 189.72 79.397 189.805 79.0877 189.976C78.7783 190.136 78.6237 190.392 78.6237 190.744C78.6237 190.925 78.6557 191.085 78.7197 191.224C78.7943 191.363 78.901 191.491 79.0397 191.608C79.189 191.715 79.3703 191.816 79.5837 191.912C79.797 192.008 80.053 192.109 80.3517 192.216C80.7463 192.365 81.0983 192.515 81.4077 192.664C81.717 192.803 81.9783 192.968 82.1917 193.16C82.4157 193.352 82.5863 193.587 82.7037 193.864C82.821 194.131 82.8797 194.461 82.8797 194.856C82.8797 195.624 82.5917 196.205 82.0157 196.6C81.4503 196.995 80.6397 197.192 79.5837 197.192C78.8477 197.192 78.2717 197.128 77.8557 197C77.4397 196.883 77.157 196.792 77.0077 196.728L77.2797 195.448C77.4503 195.512 77.7223 195.608 78.0957 195.736C78.469 195.864 78.965 195.928 79.5837 195.928ZM84.6443 199.96H83.1243L88.5483 184.472H90.0363L84.6443 199.96ZM97.6969 195.656V197H91.0249V185.912H92.5769V195.656H97.6969ZM106.382 192.84C106.382 193.501 106.286 194.099 106.094 194.632C105.902 195.165 105.63 195.624 105.278 196.008C104.937 196.392 104.526 196.691 104.046 196.904C103.566 197.107 103.044 197.208 102.478 197.208C101.913 197.208 101.39 197.107 100.91 196.904C100.43 196.691 100.014 196.392 99.6623 196.008C99.321 195.624 99.0543 195.165 98.8623 194.632C98.6703 194.099 98.5743 193.501 98.5743 192.84C98.5743 192.189 98.6703 191.597 98.8623 191.064C99.0543 190.52 99.321 190.056 99.6623 189.672C100.014 189.288 100.43 188.995 100.91 188.792C101.39 188.579 101.913 188.472 102.478 188.472C103.044 188.472 103.566 188.579 104.046 188.792C104.526 188.995 104.937 189.288 105.278 189.672C105.63 190.056 105.902 190.52 106.094 191.064C106.286 191.597 106.382 192.189 106.382 192.84ZM104.83 192.84C104.83 191.901 104.617 191.16 104.19 190.616C103.774 190.061 103.204 189.784 102.478 189.784C101.753 189.784 101.177 190.061 100.75 190.616C100.334 191.16 100.126 191.901 100.126 192.84C100.126 193.779 100.334 194.525 100.75 195.08C101.177 195.624 101.753 195.896 102.478 195.896C103.204 195.896 103.774 195.624 104.19 195.08C104.617 194.525 104.83 193.779 104.83 192.84ZM109.868 188.68H113.02V189.928H109.868V193.768C109.868 194.184 109.9 194.531 109.964 194.808C110.028 195.075 110.124 195.288 110.252 195.448C110.38 195.597 110.54 195.704 110.732 195.768C110.924 195.832 111.148 195.864 111.404 195.864C111.852 195.864 112.209 195.816 112.476 195.72C112.753 195.613 112.945 195.539 113.052 195.496L113.34 196.728C113.19 196.803 112.929 196.893 112.556 197C112.182 197.117 111.756 197.176 111.276 197.176C110.71 197.176 110.241 197.107 109.868 196.968C109.505 196.819 109.212 196.6 108.988 196.312C108.764 196.024 108.604 195.672 108.508 195.256C108.422 194.829 108.38 194.339 108.38 193.784V186.36L109.868 186.104V188.68ZM116.673 196.136C116.673 196.424 116.577 196.675 116.385 196.888C116.193 197.101 115.932 197.208 115.601 197.208C115.271 197.208 115.009 197.101 114.817 196.888C114.625 196.675 114.529 196.424 114.529 196.136C114.529 195.848 114.625 195.597 114.817 195.384C115.009 195.171 115.271 195.064 115.601 195.064C115.932 195.064 116.193 195.171 116.385 195.384C116.577 195.597 116.673 195.848 116.673 196.136ZM116.673 189.752C116.673 190.04 116.577 190.291 116.385 190.504C116.193 190.717 115.932 190.824 115.601 190.824C115.271 190.824 115.009 190.717 114.817 190.504C114.625 190.291 114.529 190.04 114.529 189.752C114.529 189.464 114.625 189.213 114.817 189C115.009 188.787 115.271 188.68 115.601 188.68C115.932 188.68 116.193 188.787 116.385 189C116.577 189.213 116.673 189.464 116.673 189.752ZM122.074 191.448C122.074 189.592 122.399 188.163 123.05 187.16C123.711 186.157 124.623 185.656 125.786 185.656C126.949 185.656 127.855 186.157 128.506 187.16C129.167 188.163 129.498 189.592 129.498 191.448C129.498 193.304 129.167 194.733 128.506 195.736C127.855 196.739 126.949 197.24 125.786 197.24C124.623 197.24 123.711 196.739 123.05 195.736C122.399 194.733 122.074 193.304 122.074 191.448ZM127.93 191.448C127.93 190.84 127.893 190.264 127.818 189.72C127.754 189.176 127.637 188.701 127.466 188.296C127.306 187.891 127.087 187.571 126.81 187.336C126.533 187.091 126.191 186.968 125.786 186.968C125.381 186.968 125.039 187.091 124.762 187.336C124.485 187.571 124.261 187.891 124.09 188.296C123.93 188.701 123.813 189.176 123.738 189.72C123.674 190.264 123.642 190.84 123.642 191.448C123.642 192.056 123.674 192.632 123.738 193.176C123.813 193.72 123.93 194.195 124.09 194.6C124.261 195.005 124.485 195.331 124.762 195.576C125.039 195.811 125.381 195.928 125.786 195.928C126.191 195.928 126.533 195.811 126.81 195.576C127.087 195.331 127.306 195.005 127.466 194.6C127.637 194.195 127.754 193.72 127.818 193.176C127.893 192.632 127.93 192.056 127.93 191.448ZM133.345 196.136C133.345 196.424 133.249 196.675 133.057 196.888C132.865 197.101 132.604 197.208 132.273 197.208C131.943 197.208 131.681 197.101 131.489 196.888C131.297 196.675 131.201 196.424 131.201 196.136C131.201 195.848 131.297 195.597 131.489 195.384C131.681 195.171 131.943 195.064 132.273 195.064C132.604 195.064 132.865 195.171 133.057 195.384C133.249 195.597 133.345 195.848 133.345 196.136ZM136.851 197C136.915 196.147 137.064 195.251 137.299 194.312C137.544 193.363 137.843 192.445 138.195 191.56C138.547 190.664 138.931 189.837 139.347 189.08C139.773 188.312 140.189 187.688 140.595 187.208H135.203V185.912H142.259V187.144C141.907 187.549 141.517 188.109 141.091 188.824C140.664 189.528 140.259 190.323 139.875 191.208C139.501 192.083 139.176 193.021 138.899 194.024C138.632 195.016 138.467 196.008 138.403 197H136.851Z" fill="#333333"></path><path d="M47.0871 135.2C49.5031 135.2 51.3511 135.64 52.6311 136.52C53.9271 137.4 54.5751 138.776 54.5751 140.648C54.5751 141.624 54.3991 142.464 54.0471 143.168C53.7111 143.856 53.2151 144.424 52.5591 144.872C51.9031 145.304 51.1031 145.624 50.1591 145.832C49.2151 146.04 48.1351 146.144 46.9191 146.144H45.4071V152H42.3831V135.608C43.0871 135.448 43.8631 135.344 44.7111 135.296C45.5751 135.232 46.3671 135.2 47.0871 135.2ZM47.3031 137.816C46.5351 137.816 45.9031 137.84 45.4071 137.888V143.552H46.8711C48.3271 143.552 49.4471 143.352 50.2311 142.952C51.0151 142.536 51.4071 141.76 51.4071 140.624C51.4071 140.08 51.3031 139.624 51.0951 139.256C50.8871 138.888 50.5991 138.6 50.2311 138.392C49.8631 138.184 49.4231 138.04 48.9111 137.96C48.4151 137.864 47.8791 137.816 47.3031 137.816ZM61.5602 152.24C60.6962 152.224 59.9762 152.128 59.4002 151.952C58.8402 151.776 58.3922 151.528 58.0562 151.208C57.7202 150.872 57.4802 150.464 57.3362 149.984C57.2082 149.488 57.1442 148.928 57.1442 148.304V133.856L60.0482 133.376V147.752C60.0482 148.104 60.0722 148.4 60.1202 148.64C60.1842 148.88 60.2882 149.088 60.4322 149.264C60.5762 149.424 60.7682 149.552 61.0082 149.648C61.2642 149.728 61.5842 149.792 61.9682 149.84L61.5602 152.24ZM68.7332 149.96C69.6292 149.96 70.3092 149.912 70.7732 149.816V146.6C70.6132 146.552 70.3812 146.504 70.0772 146.456C69.7732 146.408 69.4372 146.384 69.0692 146.384C68.7492 146.384 68.4212 146.408 68.0852 146.456C67.7652 146.504 67.4692 146.592 67.1972 146.72C66.9412 146.848 66.7332 147.032 66.5732 147.272C66.4132 147.496 66.3332 147.784 66.3332 148.136C66.3332 148.824 66.5492 149.304 66.9812 149.576C67.4132 149.832 67.9972 149.96 68.7332 149.96ZM68.4932 139.136C69.4532 139.136 70.2612 139.256 70.9172 139.496C71.5732 139.736 72.0932 140.072 72.4772 140.504C72.8772 140.936 73.1572 141.464 73.3172 142.088C73.4932 142.696 73.5812 143.368 73.5812 144.104V151.712C73.1332 151.808 72.4532 151.92 71.5412 152.048C70.6452 152.192 69.6292 152.264 68.4932 152.264C67.7412 152.264 67.0532 152.192 66.4292 152.048C65.8052 151.904 65.2692 151.672 64.8212 151.352C64.3892 151.032 64.0452 150.616 63.7892 150.104C63.5492 149.592 63.4292 148.96 63.4292 148.208C63.4292 147.488 63.5652 146.88 63.8372 146.384C64.1252 145.888 64.5092 145.488 64.9892 145.184C65.4692 144.864 66.0212 144.64 66.6452 144.512C67.2852 144.368 67.9492 144.296 68.6372 144.296C68.9572 144.296 69.2932 144.32 69.6452 144.368C69.9972 144.4 70.3732 144.464 70.7732 144.56V144.08C70.7732 143.744 70.7332 143.424 70.6532 143.12C70.5732 142.816 70.4292 142.552 70.2212 142.328C70.0292 142.088 69.7652 141.904 69.4292 141.776C69.1092 141.648 68.7012 141.584 68.2052 141.584C67.5332 141.584 66.9172 141.632 66.3572 141.728C65.7972 141.824 65.3412 141.936 64.9892 142.064L64.6292 139.712C64.9972 139.584 65.5332 139.456 66.2372 139.328C66.9412 139.2 67.6932 139.136 68.4932 139.136ZM76.9936 136.136L79.8976 135.656V139.448H84.3616V141.872H79.8976V146.984C79.8976 147.992 80.0576 148.712 80.3776 149.144C80.6976 149.576 81.2416 149.792 82.0096 149.792C82.5376 149.792 83.0016 149.736 83.4016 149.624C83.8176 149.512 84.1456 149.408 84.3856 149.312L84.8656 151.616C84.5296 151.76 84.0896 151.904 83.5456 152.048C83.0016 152.208 82.3616 152.288 81.6256 152.288C80.7296 152.288 79.9776 152.168 79.3696 151.928C78.7776 151.688 78.3056 151.344 77.9536 150.896C77.6016 150.432 77.3536 149.88 77.2096 149.24C77.0656 148.584 76.9936 147.84 76.9936 147.008V136.136ZM90.0968 152H87.1928V139.448H90.0968V152ZM90.4088 135.776C90.4088 136.32 90.2328 136.752 89.8808 137.072C89.5288 137.392 89.1128 137.552 88.6328 137.552C88.1368 137.552 87.7128 137.392 87.3608 137.072C87.0088 136.752 86.8328 136.32 86.8328 135.776C86.8328 135.216 87.0088 134.776 87.3608 134.456C87.7128 134.136 88.1368 133.976 88.6328 133.976C89.1128 133.976 89.5288 134.136 89.8808 134.456C90.2328 134.776 90.4088 135.216 90.4088 135.776ZM93.8016 139.856C94.3616 139.696 95.0896 139.544 95.9856 139.4C96.8816 139.256 97.8736 139.184 98.9616 139.184C99.9856 139.184 100.842 139.328 101.53 139.616C102.218 139.888 102.762 140.28 103.162 140.792C103.578 141.288 103.866 141.896 104.026 142.616C104.202 143.32 104.29 144.096 104.29 144.944V152H101.386V145.4C101.386 144.728 101.338 144.16 101.242 143.696C101.162 143.216 101.018 142.832 100.81 142.544C100.618 142.24 100.346 142.024 99.9936 141.896C99.6576 141.752 99.2416 141.68 98.7456 141.68C98.3776 141.68 97.9936 141.704 97.5936 141.752C97.1936 141.8 96.8976 141.84 96.7056 141.872V152H93.8016V139.856ZM118.137 151.616C117.577 151.76 116.849 151.904 115.953 152.048C115.057 152.208 114.073 152.288 113.001 152.288C111.993 152.288 111.145 152.144 110.457 151.856C109.785 151.568 109.241 151.168 108.825 150.656C108.425 150.144 108.137 149.536 107.961 148.832C107.785 148.112 107.697 147.328 107.697 146.48V139.448H110.601V146.024C110.601 147.368 110.793 148.328 111.177 148.904C111.577 149.48 112.265 149.768 113.241 149.768C113.593 149.768 113.961 149.752 114.345 149.72C114.745 149.688 115.041 149.648 115.233 149.6V139.448H118.137V151.616ZM128.985 145.4C128.985 144.088 128.817 143.144 128.481 142.568C128.161 141.976 127.553 141.68 126.657 141.68C126.337 141.68 125.985 141.704 125.601 141.752C125.217 141.8 124.929 141.84 124.737 141.872V152H121.833V139.856C122.393 139.696 123.121 139.544 124.017 139.4C124.929 139.256 125.889 139.184 126.897 139.184C127.761 139.184 128.465 139.296 129.009 139.52C129.569 139.744 130.033 140.04 130.401 140.408C130.577 140.28 130.801 140.144 131.073 140C131.345 139.856 131.649 139.728 131.985 139.616C132.321 139.488 132.673 139.384 133.041 139.304C133.425 139.224 133.809 139.184 134.193 139.184C135.169 139.184 135.969 139.328 136.593 139.616C137.233 139.888 137.729 140.28 138.081 140.792C138.449 141.288 138.697 141.896 138.825 142.616C138.969 143.32 139.041 144.096 139.041 144.944V152H136.137V145.4C136.137 144.088 135.977 143.144 135.657 142.568C135.337 141.976 134.721 141.68 133.809 141.68C133.345 141.68 132.905 141.76 132.489 141.92C132.073 142.064 131.761 142.208 131.553 142.352C131.681 142.752 131.769 143.176 131.817 143.624C131.865 144.072 131.889 144.552 131.889 145.064V152H128.985V145.4Z" fill="#333333"></path><circle cx="90.5708" cy="72" r="40" fill="#00C8FF"></circle><path d="M79.8428 60.1094C79.563 60.1094 79.2948 60.2205 79.097 60.4183C78.8992 60.6161 78.7881 60.8843 78.7881 61.164V88.9461C78.788 89.1318 78.8369 89.3142 78.9299 89.4749C79.0229 89.6356 79.1567 89.7689 79.3178 89.8613C79.4788 89.9537 79.6614 90.002 79.847 90.0013C80.0327 90.0005 80.2149 89.9507 80.3752 89.857L90.5681 83.8981L91.9527 72.6625L90.5681 60.1094H79.8428Z" fill="#828282"></path><path d="M101.296 60.1094H90.571V83.8981L100.764 89.857C100.924 89.9507 101.106 90.0005 101.292 90.0013C101.477 90.0021 101.66 89.9539 101.821 89.8615C101.982 89.7692 102.116 89.636 102.209 89.4754C102.302 89.3148 102.351 89.1325 102.351 88.9469V61.164C102.351 60.8843 102.24 60.6161 102.042 60.4183C101.844 60.2205 101.576 60.1094 101.296 60.1094Z" fill="#999999"></path><path d="M74.5049 54C74.2251 54 73.9569 54.1111 73.7591 54.3089C73.5613 54.5067 73.4502 54.775 73.4502 55.0547C73.4522 56.9539 74.2076 58.7747 75.5505 60.1176C76.8934 61.4605 78.7143 62.2159 80.6134 62.2179H90.5707L91.9554 58.3905L90.5707 54H74.5049Z" fill="#767676"></path><path d="M106.637 54H90.5707V62.2179H100.528C102.427 62.2159 104.248 61.4605 105.591 60.1176C106.934 58.7747 107.689 56.9539 107.691 55.0547C107.691 54.9162 107.664 54.779 107.611 54.6511C107.558 54.5231 107.48 54.4068 107.382 54.3089C107.284 54.211 107.168 54.1333 107.04 54.0803C106.912 54.0273 106.775 54 106.637 54V54Z" fill="#767676"></path><path d="M89.6194 66.4397L88.3742 70.2672H84.346C84.1349 70.2673 83.9292 70.3342 83.7585 70.4584C83.5877 70.5825 83.4606 70.7575 83.3954 70.9583C83.3301 71.1591 83.3301 71.3754 83.3953 71.5762C83.4605 71.777 83.5875 71.9521 83.7583 72.0763L87.0175 74.4442L85.7724 78.2716C85.7072 78.4724 85.7072 78.6887 85.7725 78.8895C85.8377 79.0903 85.9649 79.2653 86.1356 79.3894C86.3064 79.5136 86.5121 79.5805 86.7232 79.5806C86.9343 79.5807 87.1401 79.514 87.311 79.39L90.5703 77.0221L91.4506 72.7694L90.5703 65.738C90.3592 65.7381 90.1535 65.8049 89.9827 65.929C89.8119 66.053 89.6847 66.2279 89.6194 66.4287V66.4397Z" fill="#706F6F"></path><path opacity="0.997" d="M97.7457 70.9604C97.6804 70.7597 97.5532 70.5848 97.3824 70.4607C97.2116 70.3367 97.0059 70.2698 96.7948 70.2698H92.7667L91.5215 66.4423C91.4561 66.2416 91.3289 66.0667 91.1581 65.9426C90.9873 65.8186 90.7817 65.7518 90.5706 65.7517V77.0282L93.8298 79.3961C94.0028 79.5149 94.2077 79.5785 94.4176 79.5785C94.6274 79.5785 94.8323 79.5149 95.0053 79.3961C95.1764 79.272 95.3037 79.097 95.369 78.896C95.4342 78.695 95.434 78.4785 95.3684 78.2776L94.1233 74.4502L97.3825 72.0823C97.5541 71.9579 97.6817 71.7822 97.747 71.5806C97.8123 71.3789 97.8118 71.1618 97.7457 70.9604Z" fill="#848383"></path></svg>