<svg xmlns="http://www.w3.org/2000/svg" width="181" height="224" viewBox="0 0 181 224" fill="none"><path d="M0.141113 10C0.141113 4.47715 4.61827 0 10.1411 0H170.522C176.045 0 180.522 4.47715 180.522 10V214C180.522 219.523 176.045 224 170.522 224H10.1411C4.61828 224 0.141113 219.523 0.141113 214V10Z" fill="white"></path><path fill-rule="evenodd" clip-rule="evenodd" d="M170.522 0.5H10.1411C4.89441 0.5 0.641113 4.7533 0.641113 10V214C0.641113 219.247 4.89442 223.5 10.1411 223.5H170.522C175.768 223.5 180.022 219.247 180.022 214V10C180.022 4.7533 175.768 0.5 170.522 0.5ZM10.1411 0C4.61827 0 0.141113 4.47715 0.141113 10V214C0.141113 219.523 4.61828 224 10.1411 224H170.522C176.045 224 180.522 219.523 180.522 214V10C180.522 4.47715 176.045 0 170.522 0H10.1411Z" fill="#CCCCCC"></path><circle cx="90.3311" cy="72" r="40" fill="#00C8FF"></circle><path d="M79.6035 60.1094C79.3238 60.1094 79.0555 60.2205 78.8577 60.4183C78.6599 60.6161 78.5488 60.8843 78.5488 61.164V88.9461C78.5487 89.1318 78.5977 89.3142 78.6907 89.4749C78.7837 89.6356 78.9175 89.7689 79.0785 89.8613C79.2395 89.9537 79.4221 90.002 79.6078 90.0013C79.7935 90.0005 79.9757 89.9507 80.1359 89.857L90.3288 83.8981L91.7135 72.6625L90.3288 60.1094H79.6035Z" fill="#DEDEDD"></path><path d="M101.057 60.1094H90.3317V83.8981L100.525 89.857C100.685 89.9507 100.867 90.0005 101.052 90.0013C101.238 90.002 101.421 89.9539 101.582 89.8615C101.743 89.7692 101.876 89.636 101.969 89.4754C102.063 89.3148 102.112 89.1325 102.112 88.9469V61.164C102.112 60.8843 102.001 60.6161 101.803 60.4183C101.605 60.2205 101.337 60.1094 101.057 60.1094Z" fill="#F2F2F2"></path><path d="M74.2666 54C73.9869 54 73.7186 54.1111 73.5208 54.3089C73.323 54.5067 73.2119 54.775 73.2119 55.0547C73.2139 56.9539 73.9693 58.7747 75.3122 60.1176C76.6551 61.4605 78.476 62.2159 80.3752 62.2179H90.3324L91.7171 58.3905L90.3324 54H74.2666Z" fill="#D6D5D4"></path><path d="M106.398 54H90.3324V62.2179H100.29C102.189 62.2159 104.01 61.4605 105.353 60.1176C106.696 58.7747 107.451 56.9539 107.453 55.0547C107.453 54.9162 107.426 54.779 107.373 54.6511C107.32 54.5231 107.242 54.4068 107.144 54.3089C107.046 54.211 106.93 54.1333 106.802 54.0803C106.674 54.0273 106.537 54 106.398 54V54Z" fill="#D6D5D4"></path><path d="M89.3823 66.4361L88.1371 70.2635H84.1089C83.8978 70.2636 83.6921 70.3306 83.5214 70.4547C83.3506 70.5789 83.2235 70.7539 83.1583 70.9547C83.0931 71.1555 83.0931 71.3718 83.1582 71.5726C83.2234 71.7734 83.3505 71.9484 83.5212 72.0726L86.7805 74.4405L85.5353 78.2679C85.4701 78.4687 85.4702 78.685 85.5354 78.8858C85.6007 79.0866 85.7278 79.2616 85.8986 79.3857C86.0693 79.5099 86.275 79.5768 86.4861 79.5769C86.6973 79.577 86.903 79.5103 87.0739 79.3864L90.3332 77.0185L91.2135 72.7658L90.3332 65.7344C90.1221 65.7344 89.9164 65.8013 89.7456 65.9253C89.5748 66.0494 89.4476 66.2243 89.3823 66.425V66.4361Z" fill="#C5C5C5"></path><path opacity="0.997" d="M97.5087 70.9567C97.4433 70.756 97.3161 70.5811 97.1453 70.457C96.9745 70.333 96.7688 70.2662 96.5577 70.2661H92.5296L91.2844 66.4387C91.2191 66.2379 91.0919 66.063 90.9211 65.939C90.7503 65.8149 90.5446 65.7481 90.3335 65.748V77.0245L93.5928 79.3924C93.7657 79.5113 93.9706 79.5749 94.1805 79.5749C94.3903 79.5749 94.5953 79.5113 94.7682 79.3924C94.9393 79.2684 95.0666 79.0933 95.1319 78.8923C95.1972 78.6913 95.197 78.4748 95.1314 78.2739L93.8862 74.4465L97.1455 72.0786C97.3171 71.9542 97.4447 71.7785 97.51 71.5769C97.5752 71.3753 97.5748 71.1581 97.5087 70.9567Z" fill="#DDDDDD"></path><path d="M65.1246 149.744C66.2126 149.744 67.0046 149.56 67.5006 149.192C67.9966 148.824 68.2446 148.304 68.2446 147.632C68.2446 147.232 68.1566 146.888 67.9806 146.6C67.8206 146.312 67.5806 146.056 67.2606 145.832C66.9566 145.592 66.5806 145.376 66.1326 145.184C65.6846 144.976 65.1726 144.776 64.5966 144.584C64.0206 144.376 63.4606 144.152 62.9166 143.912C62.3886 143.656 61.9166 143.344 61.5006 142.976C61.1006 142.608 60.7726 142.168 60.5166 141.656C60.2766 141.144 60.1566 140.528 60.1566 139.808C60.1566 138.304 60.6766 137.128 61.7166 136.28C62.7566 135.416 64.1726 134.984 65.9646 134.984C67.0046 134.984 67.9246 135.104 68.7246 135.344C69.5406 135.568 70.1806 135.816 70.6446 136.088L69.7086 138.536C69.1646 138.232 68.5646 138 67.9086 137.84C67.2686 137.68 66.6046 137.6 65.9166 137.6C65.1006 137.6 64.4606 137.768 63.9966 138.104C63.5486 138.44 63.3246 138.912 63.3246 139.52C63.3246 139.888 63.3966 140.208 63.5406 140.48C63.7006 140.736 63.9166 140.968 64.1886 141.176C64.4766 141.384 64.8046 141.576 65.1726 141.752C65.5566 141.928 65.9726 142.096 66.4206 142.256C67.2046 142.544 67.9006 142.84 68.5086 143.144C69.1326 143.432 69.6526 143.784 70.0686 144.2C70.5006 144.6 70.8286 145.08 71.0526 145.64C71.2766 146.184 71.3886 146.848 71.3886 147.632C71.3886 149.136 70.8526 150.304 69.7806 151.136C68.7246 151.952 67.1726 152.36 65.1246 152.36C64.4366 152.36 63.8046 152.312 63.2286 152.216C62.6686 152.136 62.1646 152.032 61.7166 151.904C61.2846 151.776 60.9086 151.648 60.5886 151.52C60.2686 151.376 60.0126 151.248 59.8206 151.136L60.7086 148.664C61.1406 148.904 61.7246 149.144 62.4606 149.384C63.1966 149.624 64.0846 149.744 65.1246 149.744ZM76.8375 152H73.9335V139.448H76.8375V152ZM77.1495 135.776C77.1495 136.32 76.9735 136.752 76.6215 137.072C76.2695 137.392 75.8535 137.552 75.3735 137.552C74.8775 137.552 74.4535 137.392 74.1015 137.072C73.7495 136.752 73.5735 136.32 73.5735 135.776C73.5735 135.216 73.7495 134.776 74.1015 134.456C74.4535 134.136 74.8775 133.976 75.3735 133.976C75.8535 133.976 76.2695 134.136 76.6215 134.456C76.9735 134.776 77.1495 135.216 77.1495 135.776ZM84.9103 152.24C84.0463 152.224 83.3263 152.128 82.7503 151.952C82.1903 151.776 81.7423 151.528 81.4063 151.208C81.0703 150.872 80.8303 150.464 80.6863 149.984C80.5583 149.488 80.4943 148.928 80.4943 148.304V133.856L83.3983 133.376V147.752C83.3983 148.104 83.4223 148.4 83.4703 148.64C83.5343 148.88 83.6383 149.088 83.7823 149.264C83.9263 149.424 84.1183 149.552 84.3583 149.648C84.6143 149.728 84.9343 149.792 85.3183 149.84L84.9103 152.24ZM90.8833 152C90.0833 150.352 89.2593 148.464 88.4113 146.336C87.5793 144.192 86.8193 141.896 86.1313 139.448H89.2273C89.4033 140.152 89.6033 140.912 89.8273 141.728C90.0673 142.528 90.3153 143.336 90.5713 144.152C90.8433 144.952 91.1153 145.736 91.3873 146.504C91.6753 147.256 91.9393 147.936 92.1793 148.544C92.4193 147.936 92.6753 147.256 92.9473 146.504C93.2193 145.736 93.4833 144.952 93.7393 144.152C94.0113 143.336 94.2673 142.528 94.5073 141.728C94.7473 140.912 94.9553 140.152 95.1313 139.448H98.1313C97.4433 141.896 96.6753 144.192 95.8273 146.336C94.9953 148.464 94.1793 150.352 93.3793 152H90.8833ZM99.3229 145.784C99.3229 144.68 99.4829 143.712 99.8029 142.88C100.139 142.048 100.579 141.36 101.123 140.816C101.667 140.256 102.291 139.84 102.995 139.568C103.699 139.28 104.419 139.136 105.155 139.136C106.883 139.136 108.227 139.672 109.187 140.744C110.163 141.816 110.651 143.416 110.651 145.544C110.651 145.704 110.643 145.888 110.627 146.096C110.627 146.288 110.619 146.464 110.603 146.624H102.323C102.403 147.632 102.755 148.416 103.379 148.976C104.019 149.52 104.939 149.792 106.139 149.792C106.843 149.792 107.483 149.728 108.059 149.6C108.651 149.472 109.115 149.336 109.451 149.192L109.835 151.568C109.675 151.648 109.451 151.736 109.163 151.832C108.891 151.912 108.571 151.984 108.203 152.048C107.851 152.128 107.467 152.192 107.051 152.24C106.635 152.288 106.211 152.312 105.779 152.312C104.675 152.312 103.715 152.152 102.899 151.832C102.083 151.496 101.411 151.04 100.883 150.464C100.355 149.872 99.9629 149.184 99.7069 148.4C99.4509 147.6 99.3229 146.728 99.3229 145.784ZM107.747 144.488C107.747 144.088 107.691 143.712 107.579 143.36C107.467 142.992 107.299 142.68 107.075 142.424C106.867 142.152 106.603 141.944 106.283 141.8C105.979 141.64 105.611 141.56 105.179 141.56C104.731 141.56 104.339 141.648 104.003 141.824C103.667 141.984 103.379 142.2 103.139 142.472C102.915 142.744 102.739 143.056 102.611 143.408C102.483 143.76 102.395 144.12 102.347 144.488H107.747ZM120.882 142.064C120.642 141.984 120.306 141.904 119.874 141.824C119.458 141.728 118.97 141.68 118.41 141.68C118.09 141.68 117.746 141.712 117.378 141.776C117.026 141.84 116.778 141.896 116.634 141.944V152H113.73V140.048C114.29 139.84 114.986 139.648 115.818 139.472C116.666 139.28 117.602 139.184 118.626 139.184C118.818 139.184 119.042 139.2 119.298 139.232C119.554 139.248 119.81 139.28 120.066 139.328C120.322 139.36 120.57 139.408 120.81 139.472C121.05 139.52 121.242 139.568 121.386 139.616L120.882 142.064Z" fill="#333333"></path><path d="M46.5041 177.656V179H39.8321V167.912H41.3841V177.656H46.5041ZM55.1894 174.84C55.1894 175.501 55.0934 176.099 54.9014 176.632C54.7094 177.165 54.4374 177.624 54.0854 178.008C53.7441 178.392 53.3334 178.691 52.8534 178.904C52.3734 179.107 51.8508 179.208 51.2854 179.208C50.7201 179.208 50.1974 179.107 49.7174 178.904C49.2374 178.691 48.8214 178.392 48.4694 178.008C48.1281 177.624 47.8614 177.165 47.6694 176.632C47.4774 176.099 47.3814 175.501 47.3814 174.84C47.3814 174.189 47.4774 173.597 47.6694 173.064C47.8614 172.52 48.1281 172.056 48.4694 171.672C48.8214 171.288 49.2374 170.995 49.7174 170.792C50.1974 170.579 50.7201 170.472 51.2854 170.472C51.8508 170.472 52.3734 170.579 52.8534 170.792C53.3334 170.995 53.7441 171.288 54.0854 171.672C54.4374 172.056 54.7094 172.52 54.9014 173.064C55.0934 173.597 55.1894 174.189 55.1894 174.84ZM53.6374 174.84C53.6374 173.901 53.4241 173.16 52.9974 172.616C52.5814 172.061 52.0108 171.784 51.2854 171.784C50.5601 171.784 49.9841 172.061 49.5574 172.616C49.1414 173.16 48.9334 173.901 48.9334 174.84C48.9334 175.779 49.1414 176.525 49.5574 177.08C49.9841 177.624 50.5601 177.896 51.2854 177.896C52.0108 177.896 52.5814 177.624 52.9974 177.08C53.4241 176.525 53.6374 175.779 53.6374 174.84ZM58.6749 170.68H61.8269V171.928H58.6749V175.768C58.6749 176.184 58.7069 176.531 58.7709 176.808C58.8349 177.075 58.9309 177.288 59.0589 177.448C59.1869 177.597 59.3469 177.704 59.5389 177.768C59.7309 177.832 59.9549 177.864 60.2109 177.864C60.6589 177.864 61.0163 177.816 61.2829 177.72C61.5603 177.613 61.7523 177.539 61.8589 177.496L62.1469 178.728C61.9976 178.803 61.7363 178.893 61.3629 179C60.9896 179.117 60.5629 179.176 60.0829 179.176C59.5176 179.176 59.0483 179.107 58.6749 178.968C58.3123 178.819 58.0189 178.6 57.7949 178.312C57.5709 178.024 57.4109 177.672 57.3149 177.256C57.2296 176.829 57.1869 176.339 57.1869 175.784V168.36L58.6749 168.104V170.68ZM65.6564 177.928C66.2644 177.928 66.7124 177.848 67.0004 177.688C67.2991 177.528 67.4484 177.272 67.4484 176.92C67.4484 176.557 67.3044 176.269 67.0164 176.056C66.7284 175.843 66.2538 175.603 65.5924 175.336C65.2724 175.208 64.9631 175.08 64.6644 174.952C64.3764 174.813 64.1258 174.653 63.9124 174.472C63.6991 174.291 63.5284 174.072 63.4004 173.816C63.2724 173.56 63.2084 173.245 63.2084 172.872C63.2084 172.136 63.4804 171.555 64.0244 171.128C64.5684 170.691 65.3098 170.472 66.2484 170.472C66.4831 170.472 66.7178 170.488 66.9524 170.52C67.1871 170.541 67.4058 170.573 67.6084 170.616C67.8111 170.648 67.9871 170.685 68.1364 170.728C68.2964 170.771 68.4191 170.808 68.5044 170.84L68.2324 172.12C68.0724 172.035 67.8218 171.949 67.4804 171.864C67.1391 171.768 66.7284 171.72 66.2484 171.72C65.8324 171.72 65.4698 171.805 65.1604 171.976C64.8511 172.136 64.6964 172.392 64.6964 172.744C64.6964 172.925 64.7284 173.085 64.7924 173.224C64.8671 173.363 64.9738 173.491 65.1124 173.608C65.2618 173.715 65.4431 173.816 65.6564 173.912C65.8698 174.008 66.1258 174.109 66.4244 174.216C66.8191 174.365 67.1711 174.515 67.4804 174.664C67.7898 174.803 68.0511 174.968 68.2644 175.16C68.4884 175.352 68.6591 175.587 68.7764 175.864C68.8938 176.131 68.9524 176.461 68.9524 176.856C68.9524 177.624 68.6644 178.205 68.0884 178.6C67.5231 178.995 66.7124 179.192 65.6564 179.192C64.9204 179.192 64.3444 179.128 63.9284 179C63.5124 178.883 63.2298 178.792 63.0804 178.728L63.3524 177.448C63.5231 177.512 63.7951 177.608 64.1684 177.736C64.5418 177.864 65.0378 177.928 65.6564 177.928ZM72.6211 178.136C72.6211 178.424 72.5251 178.675 72.3331 178.888C72.1411 179.101 71.8797 179.208 71.5491 179.208C71.2184 179.208 70.9571 179.101 70.7651 178.888C70.5731 178.675 70.4771 178.424 70.4771 178.136C70.4771 177.848 70.5731 177.597 70.7651 177.384C70.9571 177.171 71.2184 177.064 71.5491 177.064C71.8797 177.064 72.1411 177.171 72.3331 177.384C72.5251 177.597 72.6211 177.848 72.6211 178.136ZM72.6211 171.752C72.6211 172.04 72.5251 172.291 72.3331 172.504C72.1411 172.717 71.8797 172.824 71.5491 172.824C71.2184 172.824 70.9571 172.717 70.7651 172.504C70.5731 172.291 70.4771 172.04 70.4771 171.752C70.4771 171.464 70.5731 171.213 70.7651 171C70.9571 170.787 71.2184 170.68 71.5491 170.68C71.8797 170.68 72.1411 170.787 72.3331 171C72.5251 171.213 72.6211 171.464 72.6211 171.752ZM78.0217 173.448C78.0217 171.592 78.347 170.163 78.9977 169.16C79.659 168.157 80.571 167.656 81.7337 167.656C82.8963 167.656 83.803 168.157 84.4537 169.16C85.115 170.163 85.4457 171.592 85.4457 173.448C85.4457 175.304 85.115 176.733 84.4537 177.736C83.803 178.739 82.8963 179.24 81.7337 179.24C80.571 179.24 79.659 178.739 78.9977 177.736C78.347 176.733 78.0217 175.304 78.0217 173.448ZM83.8777 173.448C83.8777 172.84 83.8403 172.264 83.7657 171.72C83.7017 171.176 83.5843 170.701 83.4137 170.296C83.2537 169.891 83.035 169.571 82.7577 169.336C82.4803 169.091 82.139 168.968 81.7337 168.968C81.3283 168.968 80.987 169.091 80.7097 169.336C80.4323 169.571 80.2083 169.891 80.0377 170.296C79.8777 170.701 79.7603 171.176 79.6857 171.72C79.6217 172.264 79.5897 172.84 79.5897 173.448C79.5897 174.056 79.6217 174.632 79.6857 175.176C79.7603 175.72 79.8777 176.195 80.0377 176.6C80.2083 177.005 80.4323 177.331 80.7097 177.576C80.987 177.811 81.3283 177.928 81.7337 177.928C82.139 177.928 82.4803 177.811 82.7577 177.576C83.035 177.331 83.2537 177.005 83.4137 176.6C83.5843 176.195 83.7017 175.72 83.7657 175.176C83.8403 174.632 83.8777 174.056 83.8777 173.448ZM90.3721 173.512H94.3241V174.904H90.3721V173.512ZM99.9284 170.2C100.536 169.965 101.128 169.667 101.704 169.304C102.28 168.931 102.808 168.467 103.288 167.912H104.344V179H102.856V169.976C102.728 170.093 102.568 170.216 102.376 170.344C102.195 170.472 101.992 170.595 101.768 170.712C101.555 170.829 101.326 170.941 101.08 171.048C100.846 171.155 100.616 171.245 100.392 171.32L99.9284 170.2ZM115.488 172.344C115.488 174.541 114.938 176.205 113.84 177.336C112.752 178.456 111.13 179.021 108.976 179.032L108.928 177.784C109.6 177.784 110.202 177.72 110.736 177.592C111.28 177.464 111.754 177.261 112.16 176.984C112.565 176.696 112.901 176.328 113.168 175.88C113.445 175.432 113.648 174.883 113.776 174.232C113.498 174.36 113.184 174.467 112.832 174.552C112.48 174.627 112.117 174.664 111.744 174.664C111.114 174.664 110.581 174.573 110.144 174.392C109.706 174.2 109.349 173.949 109.072 173.64C108.794 173.32 108.592 172.957 108.464 172.552C108.346 172.136 108.288 171.704 108.288 171.256C108.288 170.861 108.357 170.451 108.496 170.024C108.634 169.597 108.842 169.208 109.12 168.856C109.408 168.504 109.77 168.216 110.208 167.992C110.645 167.768 111.162 167.656 111.76 167.656C112.368 167.656 112.901 167.763 113.36 167.976C113.829 168.189 114.218 168.499 114.528 168.904C114.848 169.309 115.088 169.805 115.248 170.392C115.408 170.968 115.488 171.619 115.488 172.344ZM111.904 173.448C112.277 173.448 112.629 173.416 112.96 173.352C113.29 173.277 113.61 173.171 113.92 173.032C113.93 172.915 113.936 172.803 113.936 172.696C113.936 172.579 113.936 172.461 113.936 172.344C113.936 171.885 113.904 171.448 113.84 171.032C113.776 170.605 113.658 170.237 113.488 169.928C113.328 169.608 113.109 169.357 112.832 169.176C112.554 168.984 112.202 168.888 111.776 168.888C111.424 168.888 111.125 168.963 110.88 169.112C110.634 169.261 110.432 169.453 110.272 169.688C110.112 169.912 109.994 170.163 109.92 170.44C109.856 170.707 109.824 170.968 109.824 171.224C109.824 171.949 109.994 172.504 110.336 172.888C110.688 173.261 111.21 173.448 111.904 173.448ZM119.543 178.136C119.543 178.424 119.447 178.675 119.255 178.888C119.063 179.101 118.802 179.208 118.471 179.208C118.14 179.208 117.879 179.101 117.687 178.888C117.495 178.675 117.399 178.424 117.399 178.136C117.399 177.848 117.495 177.597 117.687 177.384C117.879 177.171 118.14 177.064 118.471 177.064C118.802 177.064 119.063 177.171 119.255 177.384C119.447 177.597 119.543 177.848 119.543 178.136ZM128.456 172.344C128.456 174.541 127.907 176.205 126.808 177.336C125.72 178.456 124.099 179.021 121.944 179.032L121.896 177.784C122.568 177.784 123.171 177.72 123.704 177.592C124.248 177.464 124.723 177.261 125.128 176.984C125.534 176.696 125.87 176.328 126.136 175.88C126.414 175.432 126.616 174.883 126.744 174.232C126.467 174.36 126.152 174.467 125.8 174.552C125.448 174.627 125.086 174.664 124.712 174.664C124.083 174.664 123.55 174.573 123.112 174.392C122.675 174.2 122.318 173.949 122.04 173.64C121.763 173.32 121.56 172.957 121.432 172.552C121.315 172.136 121.256 171.704 121.256 171.256C121.256 170.861 121.326 170.451 121.464 170.024C121.603 169.597 121.811 169.208 122.088 168.856C122.376 168.504 122.739 168.216 123.176 167.992C123.614 167.768 124.131 167.656 124.728 167.656C125.336 167.656 125.87 167.763 126.328 167.976C126.798 168.189 127.187 168.499 127.496 168.904C127.816 169.309 128.056 169.805 128.216 170.392C128.376 170.968 128.456 171.619 128.456 172.344ZM124.872 173.448C125.246 173.448 125.598 173.416 125.928 173.352C126.259 173.277 126.579 173.171 126.888 173.032C126.899 172.915 126.904 172.803 126.904 172.696C126.904 172.579 126.904 172.461 126.904 172.344C126.904 171.885 126.872 171.448 126.808 171.032C126.744 170.605 126.627 170.237 126.456 169.928C126.296 169.608 126.078 169.357 125.8 169.176C125.523 168.984 125.171 168.888 124.744 168.888C124.392 168.888 124.094 168.963 123.848 169.112C123.603 169.261 123.4 169.453 123.24 169.688C123.08 169.912 122.963 170.163 122.888 170.44C122.824 170.707 122.792 170.968 122.792 171.224C122.792 171.949 122.963 172.504 123.304 172.888C123.656 173.261 124.179 173.448 124.872 173.448ZM137.488 172.344C137.488 174.541 136.938 176.205 135.84 177.336C134.752 178.456 133.13 179.021 130.976 179.032L130.928 177.784C131.6 177.784 132.202 177.72 132.736 177.592C133.28 177.464 133.754 177.261 134.16 176.984C134.565 176.696 134.901 176.328 135.168 175.88C135.445 175.432 135.648 174.883 135.776 174.232C135.498 174.36 135.184 174.467 134.832 174.552C134.48 174.627 134.117 174.664 133.744 174.664C133.114 174.664 132.581 174.573 132.144 174.392C131.706 174.2 131.349 173.949 131.072 173.64C130.794 173.32 130.592 172.957 130.464 172.552C130.346 172.136 130.288 171.704 130.288 171.256C130.288 170.861 130.357 170.451 130.496 170.024C130.634 169.597 130.842 169.208 131.12 168.856C131.408 168.504 131.77 168.216 132.208 167.992C132.645 167.768 133.162 167.656 133.76 167.656C134.368 167.656 134.901 167.763 135.36 167.976C135.829 168.189 136.218 168.499 136.528 168.904C136.848 169.309 137.088 169.805 137.248 170.392C137.408 170.968 137.488 171.619 137.488 172.344ZM133.904 173.448C134.277 173.448 134.629 173.416 134.96 173.352C135.29 173.277 135.61 173.171 135.92 173.032C135.93 172.915 135.936 172.803 135.936 172.696C135.936 172.579 135.936 172.461 135.936 172.344C135.936 171.885 135.904 171.448 135.84 171.032C135.776 170.605 135.658 170.237 135.488 169.928C135.328 169.608 135.109 169.357 134.832 169.176C134.554 168.984 134.202 168.888 133.776 168.888C133.424 168.888 133.125 168.963 132.88 169.112C132.634 169.261 132.432 169.453 132.272 169.688C132.112 169.912 131.994 170.163 131.92 170.44C131.856 170.707 131.824 170.968 131.824 171.224C131.824 171.949 131.994 172.504 132.336 172.888C132.688 173.261 133.21 173.448 133.904 173.448ZM41.9479 185.8C43.5053 185.8 44.6999 186.099 45.5319 186.696C46.3746 187.283 46.7959 188.163 46.7959 189.336C46.7959 189.976 46.6786 190.525 46.4439 190.984C46.2199 191.432 45.8893 191.8 45.4519 192.088C45.0253 192.365 44.5026 192.568 43.8839 192.696C43.2653 192.824 42.5666 192.888 41.7879 192.888H40.5559V197H39.0039V186.072C39.4413 185.965 39.9266 185.896 40.4599 185.864C41.0039 185.821 41.4999 185.8 41.9479 185.8ZM42.0759 187.16C41.4146 187.16 40.9079 187.176 40.5559 187.208V191.56H41.7239C42.2573 191.56 42.7373 191.528 43.1639 191.464C43.5906 191.389 43.9479 191.272 44.2359 191.112C44.5346 190.941 44.7639 190.712 44.9239 190.424C45.0839 190.136 45.1639 189.768 45.1639 189.32C45.1639 188.893 45.0786 188.541 44.9079 188.264C44.7479 187.987 44.5239 187.768 44.2359 187.608C43.9586 187.437 43.6333 187.32 43.2599 187.256C42.8866 187.192 42.4919 187.16 42.0759 187.16ZM55.6426 192.84C55.6426 193.501 55.5466 194.099 55.3546 194.632C55.1626 195.165 54.8906 195.624 54.5386 196.008C54.1972 196.392 53.7866 196.691 53.3066 196.904C52.8266 197.107 52.3039 197.208 51.7386 197.208C51.1732 197.208 50.6506 197.107 50.1706 196.904C49.6906 196.691 49.2746 196.392 48.9226 196.008C48.5812 195.624 48.3146 195.165 48.1226 194.632C47.9306 194.099 47.8346 193.501 47.8346 192.84C47.8346 192.189 47.9306 191.597 48.1226 191.064C48.3146 190.52 48.5812 190.056 48.9226 189.672C49.2746 189.288 49.6906 188.995 50.1706 188.792C50.6506 188.579 51.1732 188.472 51.7386 188.472C52.3039 188.472 52.8266 188.579 53.3066 188.792C53.7866 188.995 54.1972 189.288 54.5386 189.672C54.8906 190.056 55.1626 190.52 55.3546 191.064C55.5466 191.597 55.6426 192.189 55.6426 192.84ZM54.0906 192.84C54.0906 191.901 53.8772 191.16 53.4506 190.616C53.0346 190.061 52.4639 189.784 51.7386 189.784C51.0132 189.784 50.4372 190.061 50.0106 190.616C49.5946 191.16 49.3866 191.901 49.3866 192.84C49.3866 193.779 49.5946 194.525 50.0106 195.08C50.4372 195.624 51.0132 195.896 51.7386 195.896C52.4639 195.896 53.0346 195.624 53.4506 195.08C53.8772 194.525 54.0906 193.779 54.0906 192.84ZM59.2241 197H57.7361V188.68H59.2241V197ZM58.4721 187.176C58.2054 187.176 57.9761 187.091 57.7841 186.92C57.6027 186.739 57.5121 186.499 57.5121 186.2C57.5121 185.901 57.6027 185.667 57.7841 185.496C57.9761 185.315 58.2054 185.224 58.4721 185.224C58.7387 185.224 58.9627 185.315 59.1441 185.496C59.3361 185.667 59.4321 185.901 59.4321 186.2C59.4321 186.499 59.3361 186.739 59.1441 186.92C58.9627 187.091 58.7387 187.176 58.4721 187.176ZM61.7829 188.92C62.1243 188.835 62.5776 188.744 63.1429 188.648C63.7083 188.552 64.3589 188.504 65.0949 188.504C65.7563 188.504 66.3056 188.6 66.7429 188.792C67.1803 188.973 67.5269 189.235 67.7829 189.576C68.0496 189.907 68.2363 190.307 68.3429 190.776C68.4496 191.245 68.5029 191.763 68.5029 192.328V197H67.0149V192.648C67.0149 192.136 66.9776 191.699 66.9029 191.336C66.8389 190.973 66.7269 190.68 66.5669 190.456C66.4069 190.232 66.1936 190.072 65.9269 189.976C65.6603 189.869 65.3296 189.816 64.9349 189.816C64.7749 189.816 64.6096 189.821 64.4389 189.832C64.2683 189.843 64.1029 189.859 63.9429 189.88C63.7936 189.891 63.6549 189.907 63.5269 189.928C63.4096 189.949 63.3243 189.965 63.2709 189.976V197H61.7829V188.92ZM72.3624 188.68H75.5144V189.928H72.3624V193.768C72.3624 194.184 72.3944 194.531 72.4584 194.808C72.5224 195.075 72.6184 195.288 72.7464 195.448C72.8744 195.597 73.0344 195.704 73.2264 195.768C73.4184 195.832 73.6424 195.864 73.8984 195.864C74.3464 195.864 74.7038 195.816 74.9704 195.72C75.2478 195.613 75.4398 195.539 75.5464 195.496L75.8344 196.728C75.6851 196.803 75.4238 196.893 75.0504 197C74.6771 197.117 74.2504 197.176 73.7704 197.176C73.2051 197.176 72.7358 197.107 72.3624 196.968C71.9998 196.819 71.7064 196.6 71.4824 196.312C71.2584 196.024 71.0984 195.672 71.0024 195.256C70.9171 194.829 70.8744 194.339 70.8744 193.784V186.36L72.3624 186.104V188.68ZM79.3439 195.928C79.9519 195.928 80.3999 195.848 80.6879 195.688C80.9866 195.528 81.1359 195.272 81.1359 194.92C81.1359 194.557 80.9919 194.269 80.7039 194.056C80.4159 193.843 79.9413 193.603 79.2799 193.336C78.9599 193.208 78.6506 193.08 78.3519 192.952C78.0639 192.813 77.8133 192.653 77.5999 192.472C77.3866 192.291 77.2159 192.072 77.0879 191.816C76.9599 191.56 76.8959 191.245 76.8959 190.872C76.8959 190.136 77.1679 189.555 77.7119 189.128C78.2559 188.691 78.9973 188.472 79.9359 188.472C80.1706 188.472 80.4053 188.488 80.6399 188.52C80.8746 188.541 81.0933 188.573 81.2959 188.616C81.4986 188.648 81.6746 188.685 81.8239 188.728C81.9839 188.771 82.1066 188.808 82.1919 188.84L81.9199 190.12C81.7599 190.035 81.5093 189.949 81.1679 189.864C80.8266 189.768 80.4159 189.72 79.9359 189.72C79.5199 189.72 79.1573 189.805 78.8479 189.976C78.5386 190.136 78.3839 190.392 78.3839 190.744C78.3839 190.925 78.4159 191.085 78.4799 191.224C78.5546 191.363 78.6613 191.491 78.7999 191.608C78.9493 191.715 79.1306 191.816 79.3439 191.912C79.5573 192.008 79.8133 192.109 80.1119 192.216C80.5066 192.365 80.8586 192.515 81.1679 192.664C81.4773 192.803 81.7386 192.968 81.9519 193.16C82.1759 193.352 82.3466 193.587 82.4639 193.864C82.5813 194.131 82.6399 194.461 82.6399 194.856C82.6399 195.624 82.3519 196.205 81.7759 196.6C81.2106 196.995 80.3999 197.192 79.3439 197.192C78.6079 197.192 78.0319 197.128 77.6159 197C77.1999 196.883 76.9173 196.792 76.7679 196.728L77.0399 195.448C77.2106 195.512 77.4826 195.608 77.8559 195.736C78.2293 195.864 78.7253 195.928 79.3439 195.928ZM84.4046 199.96H82.8846L88.3086 184.472H89.7966L84.4046 199.96ZM97.4572 195.656V197H90.7852V185.912H92.3372V195.656H97.4572ZM106.143 192.84C106.143 193.501 106.047 194.099 105.855 194.632C105.663 195.165 105.391 195.624 105.039 196.008C104.697 196.392 104.287 196.691 103.807 196.904C103.327 197.107 102.804 197.208 102.239 197.208C101.673 197.208 101.151 197.107 100.671 196.904C100.191 196.691 99.7746 196.392 99.4226 196.008C99.0812 195.624 98.8146 195.165 98.6226 194.632C98.4306 194.099 98.3346 193.501 98.3346 192.84C98.3346 192.189 98.4306 191.597 98.6226 191.064C98.8146 190.52 99.0812 190.056 99.4226 189.672C99.7746 189.288 100.191 188.995 100.671 188.792C101.151 188.579 101.673 188.472 102.239 188.472C102.804 188.472 103.327 188.579 103.807 188.792C104.287 188.995 104.697 189.288 105.039 189.672C105.391 190.056 105.663 190.52 105.855 191.064C106.047 191.597 106.143 192.189 106.143 192.84ZM104.591 192.84C104.591 191.901 104.377 191.16 103.951 190.616C103.535 190.061 102.964 189.784 102.239 189.784C101.513 189.784 100.937 190.061 100.511 190.616C100.095 191.16 99.8866 191.901 99.8866 192.84C99.8866 193.779 100.095 194.525 100.511 195.08C100.937 195.624 101.513 195.896 102.239 195.896C102.964 195.896 103.535 195.624 103.951 195.08C104.377 194.525 104.591 193.779 104.591 192.84ZM109.628 188.68H112.78V189.928H109.628V193.768C109.628 194.184 109.66 194.531 109.724 194.808C109.788 195.075 109.884 195.288 110.012 195.448C110.14 195.597 110.3 195.704 110.492 195.768C110.684 195.832 110.908 195.864 111.164 195.864C111.612 195.864 111.969 195.816 112.236 195.72C112.513 195.613 112.705 195.539 112.812 195.496L113.1 196.728C112.951 196.803 112.689 196.893 112.316 197C111.943 197.117 111.516 197.176 111.036 197.176C110.471 197.176 110.001 197.107 109.628 196.968C109.265 196.819 108.972 196.6 108.748 196.312C108.524 196.024 108.364 195.672 108.268 195.256C108.183 194.829 108.14 194.339 108.14 193.784V186.36L109.628 186.104V188.68ZM116.434 196.136C116.434 196.424 116.338 196.675 116.146 196.888C115.954 197.101 115.692 197.208 115.362 197.208C115.031 197.208 114.77 197.101 114.578 196.888C114.386 196.675 114.29 196.424 114.29 196.136C114.29 195.848 114.386 195.597 114.578 195.384C114.77 195.171 115.031 195.064 115.362 195.064C115.692 195.064 115.954 195.171 116.146 195.384C116.338 195.597 116.434 195.848 116.434 196.136ZM116.434 189.752C116.434 190.04 116.338 190.291 116.146 190.504C115.954 190.717 115.692 190.824 115.362 190.824C115.031 190.824 114.77 190.717 114.578 190.504C114.386 190.291 114.29 190.04 114.29 189.752C114.29 189.464 114.386 189.213 114.578 189C114.77 188.787 115.031 188.68 115.362 188.68C115.692 188.68 115.954 188.787 116.146 189C116.338 189.213 116.434 189.464 116.434 189.752ZM121.834 191.448C121.834 189.592 122.16 188.163 122.81 187.16C123.472 186.157 124.384 185.656 125.546 185.656C126.709 185.656 127.616 186.157 128.266 187.16C128.928 188.163 129.258 189.592 129.258 191.448C129.258 193.304 128.928 194.733 128.266 195.736C127.616 196.739 126.709 197.24 125.546 197.24C124.384 197.24 123.472 196.739 122.81 195.736C122.16 194.733 121.834 193.304 121.834 191.448ZM127.69 191.448C127.69 190.84 127.653 190.264 127.578 189.72C127.514 189.176 127.397 188.701 127.226 188.296C127.066 187.891 126.848 187.571 126.57 187.336C126.293 187.091 125.952 186.968 125.546 186.968C125.141 186.968 124.8 187.091 124.522 187.336C124.245 187.571 124.021 187.891 123.85 188.296C123.69 188.701 123.573 189.176 123.498 189.72C123.434 190.264 123.402 190.84 123.402 191.448C123.402 192.056 123.434 192.632 123.498 193.176C123.573 193.72 123.69 194.195 123.85 194.6C124.021 195.005 124.245 195.331 124.522 195.576C124.8 195.811 125.141 195.928 125.546 195.928C125.952 195.928 126.293 195.811 126.57 195.576C126.848 195.331 127.066 195.005 127.226 194.6C127.397 194.195 127.514 193.72 127.578 193.176C127.653 192.632 127.69 192.056 127.69 191.448ZM133.105 196.136C133.105 196.424 133.009 196.675 132.817 196.888C132.625 197.101 132.364 197.208 132.033 197.208C131.703 197.208 131.441 197.101 131.249 196.888C131.057 196.675 130.961 196.424 130.961 196.136C130.961 195.848 131.057 195.597 131.249 195.384C131.441 195.171 131.703 195.064 132.033 195.064C132.364 195.064 132.625 195.171 132.817 195.384C133.009 195.597 133.105 195.848 133.105 196.136ZM141.475 188.744C141.475 189.128 141.395 189.501 141.235 189.864C141.086 190.216 140.883 190.568 140.627 190.92C140.371 191.261 140.083 191.603 139.763 191.944C139.443 192.275 139.123 192.6 138.803 192.92C138.622 193.101 138.408 193.315 138.163 193.56C137.928 193.805 137.704 194.061 137.491 194.328C137.278 194.595 137.096 194.851 136.947 195.096C136.808 195.341 136.739 195.555 136.739 195.736H141.843V197H135.123C135.112 196.936 135.107 196.872 135.107 196.808C135.107 196.744 135.107 196.685 135.107 196.632C135.107 196.131 135.187 195.667 135.347 195.24C135.518 194.803 135.736 194.392 136.003 194.008C136.27 193.624 136.568 193.261 136.899 192.92C137.23 192.579 137.555 192.248 137.875 191.928C138.142 191.672 138.392 191.421 138.627 191.176C138.872 190.92 139.086 190.669 139.267 190.424C139.459 190.168 139.608 189.907 139.715 189.64C139.832 189.373 139.891 189.091 139.891 188.792C139.891 188.472 139.838 188.2 139.731 187.976C139.635 187.752 139.502 187.565 139.331 187.416C139.16 187.267 138.958 187.16 138.723 187.096C138.499 187.021 138.259 186.984 138.003 186.984C137.694 186.984 137.411 187.027 137.155 187.112C136.899 187.197 136.67 187.299 136.467 187.416C136.264 187.523 136.094 187.64 135.955 187.768C135.816 187.885 135.71 187.976 135.635 188.04L134.899 186.984C134.995 186.877 135.139 186.749 135.331 186.6C135.523 186.44 135.752 186.291 136.019 186.152C136.286 186.013 136.584 185.896 136.915 185.8C137.246 185.704 137.603 185.656 137.987 185.656C139.15 185.656 140.019 185.928 140.595 186.472C141.182 187.005 141.475 187.763 141.475 188.744Z" fill="#333333"></path></svg>