<svg width="146" height="27" viewBox="0 0 146 27" fill="none" xmlns="http://www.w3.org/2000/svg">
<g clip-path="url(#clip0_1389_641)">
<path d="M22.6786 0L20.002 2.68051L29.3946 12.0379L20.002 21.444L22.6786 24.0758L34.6993 12.0379L22.6786 0Z" fill="#EF443B"/>
<path d="M-0.0169265 12.0542L12.0273 24.1157L24.0716 12.0542L12.0273 -0.00736361L-0.0169265 12.0542Z" fill="#EF443B"/>
<path d="M51.7326 21.0053L50.4186 16.7653H43.9459L42.6319 21.0053H38.5439L44.8706 3.07031H49.4939L55.8206 21.0053H51.7326ZM49.5426 13.5974C48.3259 9.74721 47.6933 7.55407 47.5473 7.0667C47.4013 6.57934 47.2553 6.14071 47.2066 5.84829C46.9146 6.87176 46.1846 9.45479 44.9193 13.5974H49.5426Z" fill="white"/>
<path d="M70.3232 21.0052H66.6246V13.0612C66.6246 12.0864 66.4299 11.3554 66.0893 10.868C65.7486 10.3807 65.1646 10.137 64.4346 10.137C63.4126 10.137 62.6339 10.4781 62.1959 11.1605C61.7579 11.8428 61.5146 13.0124 61.5146 14.6207V21.054H57.8159V7.40774H60.6386L61.1252 9.16226H61.3199C61.7579 8.47995 62.2933 7.99258 63.0233 7.65143C63.7533 7.31027 64.5806 7.16406 65.5053 7.16406C67.1113 7.16406 68.2793 7.60269 69.1066 8.43121C69.9339 9.25973 70.3232 10.5269 70.3232 12.1352V21.0052Z" fill="white"/>
<path d="M71.832 7.35889H75.92L78.4994 15.0592C78.7427 15.7416 78.8887 16.5213 78.9374 17.4473H79.0347C79.132 16.6188 79.278 15.839 79.57 15.0592L82.1007 7.35889H86.0914L80.3 22.7596C79.7647 24.173 79.0347 25.2452 78.0614 25.9762C77.088 26.7073 75.92 27.0484 74.606 27.0484C73.9734 27.0484 73.3407 26.9997 72.708 26.8535V23.8805C73.146 23.978 73.6327 24.0268 74.168 24.0268C74.8494 24.0268 75.3847 23.8318 75.8714 23.4419C76.358 23.052 76.7474 22.4185 77.0394 21.6387L77.2827 20.9564L71.832 7.35889Z" fill="white"/>
<path d="M103.076 11.8913C103.076 14.8155 102.249 17.0574 100.594 18.6657C98.9393 20.274 96.5059 21.005 93.3426 21.005H88.2812V3.16748H93.8779C96.7979 3.16748 99.0366 3.94726 100.643 5.45809C102.249 7.01766 103.076 9.16206 103.076 11.8913ZM99.1339 11.9888C99.1339 8.1386 97.4306 6.23788 94.0726 6.23788H92.0773V17.8372H93.6833C97.3333 17.8859 99.1339 15.9364 99.1339 11.9888Z" fill="white"/>
<path d="M112.031 21.2488C109.841 21.2488 108.137 20.664 106.872 19.4456C105.655 18.2271 105.023 16.5214 105.023 14.2795C105.023 11.9889 105.607 10.2344 106.726 8.96722C107.845 7.70007 109.451 7.11523 111.447 7.11523C113.393 7.11523 114.853 7.65134 115.924 8.77227C116.995 9.89321 117.53 11.404 117.53 13.3048V15.108H108.721C108.77 16.1802 109.062 17.0087 109.646 17.5936C110.23 18.1784 111.057 18.4708 112.128 18.4708C112.955 18.4708 113.734 18.3734 114.464 18.2271C115.194 18.0322 115.973 17.7885 116.751 17.3986V20.2741C116.119 20.6152 115.389 20.8589 114.659 21.0051C113.977 21.1513 113.101 21.2488 112.031 21.2488ZM111.495 9.747C110.717 9.747 110.084 9.99069 109.646 10.478C109.208 10.9654 108.965 11.6965 108.867 12.6225H114.075C114.075 11.6965 113.831 11.0142 113.345 10.478C112.907 9.99069 112.274 9.747 111.495 9.747Z" fill="white"/>
<path d="M130.135 16.9601C130.135 18.3734 129.648 19.4457 128.675 20.1767C127.701 20.9077 126.241 21.2976 124.295 21.2976C123.321 21.2976 122.445 21.2489 121.764 21.1027C121.083 20.9565 120.401 20.7615 119.817 20.5179V17.4475C120.499 17.7886 121.277 18.0323 122.153 18.276C123.029 18.5197 123.759 18.6171 124.441 18.6171C125.803 18.6171 126.485 18.2272 126.485 17.4475C126.485 17.155 126.387 16.9114 126.193 16.7164C125.998 16.5215 125.706 16.3265 125.268 16.0828C124.83 15.8392 124.246 15.5955 123.516 15.2543C122.445 14.8157 121.715 14.4258 121.229 14.0359C120.742 13.646 120.401 13.2561 120.158 12.7688C119.915 12.2814 119.817 11.6966 119.817 10.9655C119.817 9.74709 120.304 8.8211 121.229 8.13879C122.153 7.45648 123.516 7.16406 125.219 7.16406C126.874 7.16406 128.48 7.50522 129.989 8.23626L128.869 10.9168C128.188 10.6244 127.555 10.3807 126.971 10.1857C126.387 9.99078 125.755 9.8933 125.171 9.8933C124.051 9.8933 123.516 10.1857 123.516 10.7706C123.516 11.1117 123.711 11.4041 124.051 11.6478C124.392 11.8915 125.171 12.2327 126.387 12.72C127.458 13.1586 128.237 13.5485 128.723 13.9384C129.21 14.3283 129.599 14.7669 129.843 15.2543C129.989 15.6929 130.135 16.2778 130.135 16.9601Z" fill="white"/>
<path d="M136.023 13.5973L137.629 11.5017L141.425 7.35906H145.611L140.209 13.2562L146 21.0053H141.717L137.775 15.498L136.169 16.7652V21.0053H132.471V1.99805H136.169V10.4782L135.975 13.5973H136.023Z" fill="white"/>
</g>
<defs>
<clipPath id="clip0_1389_641">
<rect width="146" height="27" fill="white"/>
</clipPath>
</defs>
</svg>
