<svg width="129" height="53" viewBox="0 0 129 53" fill="none" xmlns="http://www.w3.org/2000/svg">
<g clip-path="url(#clip0_1035_822)">
<path d="M85.8302 16.018C86.8459 16.6082 87.8899 17.2264 88.9056 17.8165C92.0093 18.6877 95.113 19.5589 98.2167 20.4581L85.3787 11.7185C84.5605 11.7747 83.714 11.8028 82.8958 11.859C83.573 12.9268 84.2783 13.9947 84.9555 15.0626C83.9962 13.8823 83.0087 12.702 82.0493 11.4936L74.8262 6.68823C73.8951 7.55939 72.964 8.40244 72.0329 9.2736C72.174 9.61082 72.3151 9.94804 72.4562 10.2853C69.2961 6.85684 66.1077 3.42842 62.9194 0C59.7029 3.23171 56.4863 6.46342 53.2698 9.66702C54.1727 10.6506 55.0756 11.606 55.9785 12.5896L49.9122 8.06522L29.4844 19.868L40.1779 17.2264L43.0841 14.1352C42.5762 15.2874 42.0966 16.4115 41.5887 17.5636C45.3978 18.9125 49.2068 20.2333 52.9877 21.5822C50.5894 19.4464 48.1629 17.2826 45.7646 15.1469C47.7396 15.7932 49.7147 16.4115 51.6898 17.0578C51.3512 16.1866 51.0126 15.3155 50.674 14.4443C52.5644 15.5403 54.4266 16.6082 56.3171 17.7041C58.1793 17.4512 60.0132 17.1983 61.8755 16.9454L70.8479 22.0318C68.6753 19.9804 66.531 17.9009 64.3584 15.8494C63.7094 15.5403 63.0887 15.2312 62.4398 14.9221C61.5369 15.0345 60.634 15.1188 59.7593 15.2312C60.7186 14.9502 61.6497 14.641 62.609 14.36L62.6655 14.3319C63.2862 14.641 63.9069 14.9502 64.5277 15.2593C66.4745 16.0461 68.4496 16.833 70.3965 17.5917L63.9069 12.3648C63.4273 10.2853 62.9476 8.20573 62.4962 6.12619C63.4273 7.7561 64.3302 9.386 65.2613 11.0159C64.6688 7.98091 64.0762 4.94592 63.5119 1.93902C65.8538 5.00212 68.1957 8.03712 70.5375 11.1002L75.588 11.4655L90.6268 21.1326C89.8085 20.149 89.0185 19.1654 88.2003 18.1819C87.382 17.4231 86.592 16.7206 85.8302 16.018ZM49.8558 9.49841C49.3479 9.69512 48.8118 9.91994 48.2757 10.1448C47.6832 10.3977 47.1189 10.6506 46.5546 10.9035C47.6832 10.2291 48.8118 9.58272 49.9404 8.90827C50.5329 9.44221 51.1255 9.94804 51.7462 10.482C51.0972 10.1448 50.4765 9.83563 49.8558 9.49841ZM74.8827 7.69989C74.4877 7.98091 74.0926 8.26193 73.6976 8.54295C74.0926 8.14952 74.4594 7.7561 74.8545 7.36267C75.7856 8.00901 76.6884 8.68346 77.6195 9.3298C76.7167 8.76776 75.8138 8.23383 74.8827 7.69989ZM85.1248 12.3648C84.7016 12.3086 84.3065 12.2805 83.8833 12.2243C84.3065 12.1681 84.758 12.1119 85.1812 12.0838C86.0277 12.7582 86.8459 13.4608 87.6924 14.1352C86.8459 13.5451 85.9713 12.9549 85.1248 12.3648Z" fill="url(#paint0_linear_1035_822)"/>
<path d="M30.2734 22.2286C30.2734 22.2286 30.5556 22.2848 31.0635 22.3691C31.5713 22.4815 32.3049 22.622 33.236 22.7906C33.7157 22.8749 34.2236 22.9873 34.7879 23.0716C35.3522 23.1559 35.9729 23.2683 36.6219 23.3808C37.9198 23.6056 39.387 23.8023 40.9952 24.0271C42.6035 24.2238 44.3246 24.4205 46.1304 24.5329C47.9644 24.6453 49.883 24.7296 51.8581 24.7296C52.366 24.7296 52.8456 24.7296 53.3535 24.7015C53.8614 24.7015 54.3692 24.6734 54.8771 24.6453C55.8929 24.5891 56.9086 24.5048 57.9526 24.4486C60.0687 24.2519 62.1002 23.9709 64.2446 23.6337C66.3607 23.3245 68.5333 22.9592 70.7058 22.7063C71.778 22.5658 72.8784 22.4534 73.9506 22.3691C74.4867 22.341 75.0228 22.3129 75.5589 22.2567C76.0949 22.2286 76.631 22.2286 77.1671 22.2005C79.2833 22.1724 81.3148 22.2567 83.2334 22.5096C83.7131 22.5658 84.1927 22.622 84.6442 22.7063C85.0956 22.7906 85.5753 22.8468 85.9985 22.9311C86.9014 23.1278 87.7478 23.2683 88.5661 23.4651C90.1743 23.8585 91.6698 24.3081 92.9394 24.7296C94.2091 25.1793 95.3095 25.6289 96.1842 25.9942C97.0589 26.3595 97.736 26.7249 98.2157 26.9497C98.6671 27.1745 98.9211 27.315 98.9211 27.315C98.9211 27.315 98.6389 27.2588 98.131 27.1745C97.6232 27.0902 96.8896 26.9497 95.9302 26.7811C94.9991 26.6125 93.8423 26.472 92.5444 26.3033C91.2465 26.1347 89.7793 25.9942 88.1711 25.8537C87.381 25.7975 86.5346 25.7694 85.6881 25.7132C84.8417 25.7132 83.9388 25.657 83.0359 25.6851C81.2301 25.6851 79.3115 25.7975 77.3364 25.9661C76.8568 26.0223 76.3489 26.0785 75.841 26.1066C75.3331 26.1628 74.8535 26.219 74.3456 26.3033C73.3299 26.4439 72.3141 26.5844 71.2701 26.753C69.154 27.0902 67.0096 27.4555 64.8653 27.7927C63.7649 27.9614 62.6927 28.1019 61.5641 28.2143C60.9998 28.2705 60.4355 28.3548 59.8994 28.3829C59.3633 28.411 58.799 28.4672 58.2629 28.4953C57.1625 28.5515 56.0621 28.5796 54.9618 28.5515C53.8896 28.5515 52.8174 28.4953 51.7452 28.411C49.6573 28.2705 47.6258 27.9895 45.7354 27.6241C43.845 27.2869 42.0956 26.8092 40.4873 26.3595C39.6973 26.1066 38.9355 25.8818 38.2019 25.6289C37.4965 25.376 36.8194 25.1512 36.1986 24.8983C35.5779 24.6453 34.9854 24.4205 34.4493 24.1957C33.9132 23.9428 33.4335 23.718 32.9821 23.5213C32.7564 23.4089 32.5589 23.3245 32.3614 23.2402C32.1639 23.1559 31.9946 23.0435 31.8253 22.9592C31.4867 22.7906 31.2045 22.6501 30.9788 22.5096C30.5274 22.3691 30.2734 22.2286 30.2734 22.2286Z" fill="url(#paint1_linear_1035_822)"/>
<path d="M31.375 22.6501C31.375 22.6501 31.6289 22.7064 32.1368 22.8469C32.6447 22.9874 33.3501 23.156 34.2812 23.4089C34.7326 23.5213 35.2405 23.6618 35.8048 23.8023C36.3691 23.9147 36.9616 24.0833 37.6106 24.2238C38.9085 24.533 40.3474 24.8421 41.9275 25.1512C43.5076 25.4322 45.2287 25.7413 47.0345 25.9662C48.8402 26.191 50.7589 26.3877 52.7339 26.5001C53.2418 26.5282 53.7215 26.5563 54.2293 26.5563C54.7372 26.5844 55.2451 26.5844 55.753 26.6125C56.7687 26.6406 57.7845 26.6125 58.8284 26.5844C60.9446 26.5001 62.9761 26.3596 65.1486 26.1629C67.293 25.9943 69.4656 25.7694 71.6381 25.6289C72.7385 25.5446 73.8107 25.5165 74.8829 25.5165C75.419 25.5165 75.9551 25.5165 76.4911 25.5165C77.0272 25.5165 77.5633 25.5446 78.0994 25.5727C80.2156 25.6851 82.2471 25.8819 84.1375 26.2472C84.6171 26.3315 85.0686 26.4158 85.5482 26.5282C85.9997 26.6406 86.4511 26.7249 86.9026 26.8373C87.7772 27.0902 88.6237 27.2869 89.4137 27.5399C90.9938 28.0176 92.461 28.5515 93.7024 29.0855C94.9439 29.5913 96.0161 30.1252 96.8625 30.5749C97.7372 30.9964 98.3862 31.3898 98.8094 31.6708C99.2608 31.9237 99.4866 32.0924 99.4866 32.0924C99.4866 32.0924 99.2326 32.0362 98.7247 31.8956C98.2169 31.7832 97.4833 31.6146 96.5522 31.3898C95.6211 31.165 94.4925 30.9402 93.1946 30.6873C91.8967 30.4343 90.4577 30.1814 88.8494 29.9847C88.0594 29.9004 87.2411 29.788 86.3665 29.7037C85.52 29.6475 84.6171 29.5351 83.7142 29.507C81.9085 29.3946 79.9898 29.3665 78.0148 29.4227C77.5351 29.4508 77.0272 29.4508 76.5194 29.4789C76.0115 29.507 75.5036 29.5351 74.9957 29.5632C73.98 29.6475 72.936 29.7318 71.8921 29.8161C69.7759 30.0409 67.6034 30.2376 65.459 30.4625C64.3586 30.5468 63.2582 30.6311 62.1296 30.6873C61.5653 30.7154 60.9728 30.7435 60.4649 30.7435C59.9006 30.7435 59.3645 30.7435 58.8284 30.7435C57.728 30.7435 56.6276 30.6873 55.5272 30.603C54.4551 30.5187 53.3829 30.4062 52.3389 30.2657C50.251 29.9847 48.2477 29.5913 46.3855 29.1136C44.5233 28.6358 42.8022 28.0738 41.2221 27.5118C40.4321 27.2026 39.6985 26.9497 38.9931 26.6406C38.2877 26.3315 37.6388 26.0786 37.018 25.7694C36.3973 25.4884 35.833 25.2074 35.3251 24.9545C34.8173 24.6735 34.3376 24.4206 33.9144 24.1957C33.6886 24.0833 33.4911 23.9709 33.3219 23.8866C33.1243 23.7742 32.9551 23.6618 32.814 23.5775C32.5036 23.3808 32.2215 23.2122 31.9957 23.0998C31.6007 22.7907 31.375 22.6501 31.375 22.6501Z" fill="url(#paint2_linear_1035_822)"/>
<path d="M6.23556 49.2607V48.6425H6.43307C6.60236 48.6425 6.74344 48.6425 6.91273 48.6144C7.05381 48.5863 7.19488 48.5301 7.27953 48.4739C7.39239 48.3896 7.47703 48.3053 7.53346 48.1648C7.58989 48.0242 7.61811 47.8556 7.61811 47.6027V44.1743H2.87795V47.6027C2.87795 47.8275 2.90617 48.0242 2.9626 48.1648C3.01903 48.3053 3.10367 48.4177 3.21654 48.4739C3.3294 48.5582 3.44226 48.5863 3.61155 48.6144C3.75262 48.6425 3.92192 48.6425 4.09121 48.6425H4.28871V49.2607H0V48.6425H0.197507C0.366798 48.6425 0.507874 48.6425 0.677165 48.6144C0.818241 48.5863 0.959318 48.5301 1.07218 48.4739C1.18504 48.3896 1.26968 48.3053 1.32612 48.1648C1.38255 48.0242 1.41076 47.8556 1.41076 47.6027V40.4368C1.41076 40.2119 1.38255 40.0433 1.32612 39.9309C1.26968 39.7904 1.18504 39.7061 1.07218 39.6218C0.959318 39.5375 0.846457 39.5094 0.677165 39.4813C0.536089 39.4532 0.366798 39.4532 0.225722 39.4532H0V38.835H4.2605V39.4532H4.06299C3.8937 39.4532 3.75262 39.4532 3.58333 39.4813C3.44226 39.5094 3.30118 39.5656 3.18832 39.6218C3.07546 39.7061 2.99081 39.7904 2.93438 39.9309C2.87795 40.0714 2.84974 40.24 2.84974 40.493V43.4437H7.61811V40.493C7.61811 40.2682 7.58989 40.0714 7.53346 39.9309C7.47703 39.7904 7.39239 39.678 7.27953 39.6218C7.16667 39.5375 7.05381 39.5094 6.91273 39.4813C6.77165 39.4532 6.60236 39.4532 6.43307 39.4532H6.23556V38.835H10.4961V39.4532H10.2986C10.1293 39.4532 9.98819 39.4532 9.8189 39.4813C9.67782 39.5094 9.53675 39.5656 9.42388 39.6218C9.31102 39.7061 9.22638 39.7904 9.16995 39.9309C9.11352 40.0714 9.0853 40.24 9.0853 40.493V47.6589C9.0853 47.8837 9.11352 48.0524 9.16995 48.1648C9.22638 48.3053 9.31102 48.3896 9.42388 48.4739C9.53675 48.5301 9.6496 48.5863 9.8189 48.6144C9.95997 48.6425 10.1293 48.6425 10.2703 48.6425H10.4678V49.2607H6.23556Z" fill="white"/>
<path d="M15.2929 49.4012C14.7569 49.4012 14.2772 49.3169 13.854 49.1202C13.4307 48.9516 13.0639 48.6706 12.7818 48.3334C12.4996 47.9961 12.2739 47.5746 12.1046 47.0688C11.9353 46.5629 11.8789 46.0009 11.8789 45.3827C11.8789 44.0057 12.1611 42.994 12.7254 42.2915C13.2897 41.5889 14.0797 41.2517 15.1237 41.2517C15.6033 41.2517 16.0265 41.336 16.3933 41.4765C16.7601 41.617 17.0987 41.8418 17.3527 42.1229C17.6066 42.4039 17.8041 42.7692 17.9452 43.2188C18.0863 43.6404 18.1427 44.1462 18.1427 44.7363V45.4108H13.3179C13.3179 45.9447 13.3743 46.3943 13.4872 46.7878C13.5718 47.1812 13.7129 47.4903 13.9104 47.7432C14.1079 47.9961 14.3336 48.1648 14.5876 48.2772C14.8415 48.3896 15.1519 48.4458 15.5187 48.4458C15.7726 48.4458 15.9983 48.4177 16.2241 48.3615C16.4498 48.3053 16.6473 48.221 16.8166 48.1367C16.9859 48.0523 17.1552 47.9399 17.2962 47.7994C17.4373 47.687 17.5502 47.5465 17.6348 47.406C17.6912 47.4341 17.7759 47.4903 17.8323 47.5746C17.8888 47.6589 17.917 47.7713 17.917 47.8837C17.917 48.0242 17.8605 48.1929 17.7477 48.3615C17.6348 48.5301 17.4937 48.6987 17.268 48.8392C17.0423 48.9797 16.7884 49.0921 16.4498 49.2045C16.1112 49.3731 15.7162 49.4012 15.2929 49.4012ZM15.1237 42.0667C14.5876 42.0667 14.1643 42.2915 13.854 42.713C13.5718 43.1626 13.3743 43.809 13.3461 44.652H16.7319C16.7319 44.2586 16.7037 43.9214 16.6473 43.5842C16.5908 43.275 16.5062 42.994 16.3651 42.7692C16.2523 42.5444 16.083 42.3758 15.8855 42.2353C15.6597 42.151 15.4058 42.0667 15.1237 42.0667Z" fill="white"/>
<path d="M26.3524 47.6589C26.3524 47.8837 26.3806 48.0523 26.437 48.1647C26.4934 48.3052 26.5781 48.3895 26.6909 48.4738C26.8038 48.5581 26.9167 48.5863 27.086 48.6144C27.227 48.6425 27.3963 48.6425 27.5374 48.6425H27.6503V49.2607H25.1673L24.998 47.9399H24.9416C24.8287 48.1647 24.7159 48.3614 24.5748 48.53C24.4337 48.6987 24.2644 48.8673 24.0951 48.9797C23.9259 49.0921 23.7001 49.2045 23.4744 49.2607C23.2487 49.3169 22.9948 49.3731 22.7126 49.3731C22.2329 49.3731 21.8097 49.2888 21.4429 49.1202C21.0761 48.9516 20.7657 48.7268 20.5118 48.3895C20.2579 48.0523 20.0604 47.6308 19.9475 47.125C19.8064 46.6191 19.75 46.0009 19.75 45.2983C19.75 44.5958 19.8064 43.9776 19.9475 43.4717C20.0886 42.9659 20.2579 42.5444 20.5118 42.2071C20.7657 41.8699 21.0761 41.617 21.4429 41.4765C21.8097 41.3079 22.2329 41.2236 22.7126 41.2236C22.9948 41.2236 23.2487 41.2517 23.4744 41.3079C23.7001 41.3641 23.8976 41.4484 24.0951 41.5608C24.2927 41.6732 24.4337 41.8137 24.5748 41.9542C24.7159 42.1228 24.8287 42.2914 24.9416 42.4882H25.0262C24.998 42.2633 24.998 42.0385 24.9698 41.8137C24.9698 41.6451 24.9416 41.4484 24.9416 41.2798C24.9416 41.1112 24.9134 40.9707 24.9134 40.8864V39.678C24.9134 39.4532 24.8852 39.2845 24.8287 39.1721C24.7723 39.0316 24.6877 38.9473 24.5748 38.863C24.4619 38.7787 24.3491 38.7506 24.1798 38.7225C24.0387 38.6944 23.8694 38.6944 23.7283 38.6944H23.6155V38.0762H26.3241V47.6589H26.3524ZM22.9665 48.4738C23.3615 48.4738 23.6719 48.4176 23.9259 48.2771C24.1798 48.1647 24.3773 47.968 24.5466 47.7151C24.6877 47.4622 24.8005 47.125 24.8852 46.7315C24.9416 46.3381 24.9698 45.8885 24.9698 45.3545C24.9698 44.8487 24.9416 44.3991 24.8852 44.0057C24.8287 43.6122 24.7159 43.275 24.5466 43.0221C24.3773 42.7692 24.1798 42.5444 23.9259 42.432C23.6719 42.2914 23.3333 42.2352 22.9665 42.2352C22.6562 42.2352 22.374 42.2914 22.1483 42.432C21.9226 42.5725 21.7251 42.7692 21.584 43.0502C21.4429 43.3031 21.3301 43.6403 21.2736 44.0338C21.2172 44.4272 21.1608 44.8768 21.1608 45.3826C21.1608 46.4224 21.3018 47.1812 21.584 47.7151C21.8661 48.2209 22.3176 48.4738 22.9665 48.4738Z" fill="white"/>
<path d="M35.6652 41.7294C35.6652 41.8418 35.6369 41.9261 35.6087 42.0385C35.5805 42.1228 35.5241 42.2071 35.4677 42.2914C35.4112 42.3476 35.3266 42.4038 35.2137 42.46C35.1291 42.4881 34.988 42.5162 34.8751 42.5162C34.8751 42.46 34.8751 42.4038 34.8469 42.3476C34.8187 42.2914 34.8187 42.2352 34.7623 42.179C34.7341 42.1228 34.6776 42.0947 34.6212 42.0666C34.5648 42.0385 34.4801 42.0104 34.3673 42.0104C34.2544 42.0104 34.1415 42.0385 34.0287 42.0666C33.9158 42.0947 33.8312 42.1509 33.7465 42.2071C33.9158 42.4038 34.0569 42.6567 34.1698 42.9378C34.2826 43.2188 34.339 43.556 34.339 43.9775C34.339 44.3428 34.2826 44.6801 34.1698 44.9892C34.0569 45.2983 33.8876 45.5512 33.6901 45.776C33.4644 46.0008 33.2104 46.1695 32.8719 46.31C32.5333 46.4224 32.1383 46.5067 31.715 46.5067C31.6586 46.5067 31.6022 46.5067 31.5175 46.5067C31.4329 46.5067 31.3765 46.5067 31.2918 46.5067C31.2072 46.5067 31.1507 46.5067 31.0943 46.4786C31.0379 46.4786 30.9814 46.4786 30.9532 46.4505C30.8686 46.5067 30.7557 46.5629 30.6711 46.6191C30.5864 46.6753 30.5018 46.7315 30.4453 46.8158C30.3889 46.9001 30.3325 46.9563 30.3043 47.0687C30.2761 47.153 30.2478 47.2654 30.2478 47.3778C30.2478 47.4902 30.2761 47.6027 30.3043 47.6589C30.3607 47.7432 30.4171 47.7994 30.5018 47.8275C30.5864 47.8556 30.6711 47.8837 30.7839 47.9118C30.8968 47.9118 31.0097 47.9399 31.1507 47.9399H32.8154C33.2669 47.9399 33.6337 47.9961 33.944 48.1085C34.2544 48.2209 34.5083 48.3614 34.7058 48.5581C34.9034 48.7548 35.0444 48.9796 35.1291 49.2607C35.2137 49.5417 35.2702 49.8227 35.2702 50.1318C35.2702 50.5533 35.1855 50.9187 35.0444 51.2559C34.8751 51.5931 34.6494 51.8741 34.339 52.127C34.0287 52.3519 33.6055 52.5486 33.1258 52.661C32.6461 52.8015 32.0536 52.8577 31.4047 52.8577C30.3889 52.8577 29.6271 52.661 29.1192 52.2957C28.6114 51.9303 28.3574 51.3964 28.3574 50.722C28.3574 50.4409 28.4139 50.188 28.4985 49.9632C28.6114 49.7384 28.7242 49.5698 28.8935 49.4012C29.0628 49.2607 29.2603 49.1202 29.486 49.0358C29.7118 48.9515 29.9375 48.8672 30.1914 48.8391C30.0786 48.7829 29.9939 48.7267 29.9093 48.6705C29.8246 48.5862 29.74 48.5019 29.6553 48.4176C29.5707 48.3052 29.5142 48.1928 29.4578 48.0804C29.4014 47.9399 29.3732 47.7994 29.3732 47.6589C29.3732 47.3778 29.4578 47.1249 29.5989 46.9001C29.74 46.6753 29.9939 46.4786 30.3325 46.2819C30.135 46.1976 29.9375 46.0852 29.7682 45.9165C29.5989 45.776 29.4578 45.6074 29.345 45.4107C29.2321 45.214 29.1474 45.0173 29.091 44.7925C29.0346 44.5677 29.0064 44.3147 29.0064 44.0899C29.0064 43.6684 29.0628 43.275 29.1757 42.9659C29.2885 42.6286 29.4578 42.3476 29.6835 42.1228C29.9093 41.898 30.1914 41.7013 30.53 41.5889C30.8686 41.4765 31.2636 41.3922 31.7432 41.3922C31.9125 41.3922 32.0818 41.3922 32.2793 41.4203C32.4486 41.4484 32.6179 41.4765 32.759 41.5327C32.9001 41.5889 33.0411 41.617 33.154 41.6732C33.2669 41.7294 33.3515 41.7856 33.4362 41.8418C33.5208 41.7575 33.5772 41.6732 33.6901 41.5889C33.803 41.5046 33.8876 41.4203 34.0005 41.3359C34.1133 41.2516 34.2544 41.1954 34.3955 41.1392C34.5366 41.083 34.6776 41.0549 34.8469 41.0549C34.988 41.0549 35.1291 41.083 35.2419 41.1111C35.3548 41.1392 35.4394 41.1954 35.5241 41.2797C35.6087 41.336 35.6369 41.4203 35.6934 41.5327C35.6369 41.5327 35.6652 41.6451 35.6652 41.7294ZM29.4578 50.5533C29.4578 50.7782 29.486 50.9749 29.5425 51.1435C29.5989 51.3402 29.7118 51.4807 29.8528 51.6212C29.9939 51.7617 30.1914 51.846 30.4453 51.9303C30.6993 52.0146 31.0097 52.0427 31.3764 52.0427C31.9125 52.0427 32.3358 51.9865 32.6744 51.9022C33.0129 51.8179 33.2951 51.7055 33.4926 51.5369C33.6901 51.3683 33.8312 51.1997 33.9158 50.9749C34.0005 50.7501 34.0287 50.5252 34.0287 50.2723C34.0287 50.0475 34.0005 49.8508 33.944 49.7103C33.8876 49.5698 33.7747 49.4574 33.6619 49.3731C33.549 49.2888 33.3797 49.2326 33.1822 49.2045C32.9847 49.1764 32.7872 49.1483 32.5333 49.1483H31.0943C30.8968 49.1483 30.6993 49.1764 30.5018 49.2045C30.3043 49.2326 30.135 49.3169 29.9939 49.4012C29.8528 49.5136 29.7118 49.6541 29.6271 49.8227C29.5142 50.0194 29.4578 50.2723 29.4578 50.5533ZM30.3043 43.9494C30.3043 44.5677 30.4171 45.0173 30.6146 45.3264C30.8121 45.6074 31.1507 45.7479 31.6304 45.7479C31.8561 45.7479 32.0818 45.7198 32.2229 45.6355C32.3922 45.5512 32.5333 45.4669 32.6179 45.2983C32.7308 45.1578 32.7872 44.9611 32.8436 44.7363C32.9001 44.5115 32.9001 44.2304 32.9001 43.9213C32.9001 43.275 32.7872 42.7691 32.5897 42.46C32.3922 42.1509 32.0536 41.9823 31.574 41.9823C31.0943 41.9823 30.7557 42.1509 30.5582 42.46C30.4171 42.7972 30.3043 43.3031 30.3043 43.9494Z" fill="white"/>
<path d="M40.0371 49.4012C39.501 49.4012 39.0213 49.3169 38.5981 49.1202C38.1749 48.9516 37.8081 48.6706 37.5259 48.3334C37.2438 47.9961 37.0181 47.5746 36.8488 47.0688C36.6795 46.5629 36.623 46.0009 36.623 45.3827C36.623 44.0057 36.9052 42.994 37.4695 42.2915C38.0338 41.5889 38.8238 41.2517 39.8678 41.2517C40.3475 41.2517 40.7707 41.336 41.1375 41.4765C41.5043 41.617 41.8429 41.8418 42.0968 42.1229C42.3507 42.4039 42.5482 42.7692 42.6893 43.2188C42.8304 43.6404 42.8868 44.1462 42.8868 44.7363V45.4108H38.0056C38.0056 45.9447 38.062 46.3943 38.1749 46.7878C38.2595 47.1812 38.4006 47.4903 38.5981 47.7432C38.7956 47.9961 39.0213 48.1648 39.2753 48.2772C39.5292 48.3896 39.8396 48.4458 40.2064 48.4458C40.4603 48.4458 40.686 48.4177 40.9118 48.3615C41.1375 48.3053 41.335 48.221 41.5043 48.1367C41.6736 48.0523 41.8429 47.9399 41.9839 47.7994C42.125 47.6589 42.2379 47.5465 42.3225 47.406C42.379 47.4341 42.4636 47.4903 42.52 47.5746C42.5765 47.6589 42.6047 47.7713 42.6047 47.8837C42.6047 48.0242 42.5482 48.1929 42.4354 48.3615C42.3225 48.5301 42.1814 48.6987 41.9557 48.8392C41.73 48.9797 41.4761 49.0921 41.1375 49.2045C40.8553 49.3731 40.4885 49.4012 40.0371 49.4012ZM39.8678 42.0667C39.3317 42.0667 38.9085 42.2915 38.5981 42.713C38.316 43.1626 38.1185 43.809 38.0902 44.652H41.4761C41.4761 44.2586 41.4478 43.9214 41.3914 43.5842C41.335 43.275 41.2503 42.994 41.1093 42.7692C40.9964 42.5444 40.8271 42.3758 40.6296 42.2353C40.4039 42.151 40.1499 42.0667 39.8678 42.0667Z" fill="white"/>
<path d="M47.3181 49.4012C46.8384 49.4012 46.4152 49.3449 46.0484 49.2606C45.6816 49.1482 45.3712 49.0077 45.1173 48.8391C44.8633 48.6705 44.6941 48.4457 44.553 48.1928C44.4401 47.9399 44.3555 47.6588 44.3555 47.3497C44.3555 47.0687 44.4401 46.8158 44.6376 46.6472C44.8351 46.4786 45.0891 46.3662 45.4276 46.3662C45.4559 46.6753 45.4841 46.9563 45.5687 47.2373C45.6534 47.5183 45.7662 47.7712 45.9355 47.968C46.1048 48.1928 46.3023 48.3614 46.528 48.4738C46.782 48.6143 47.0641 48.6705 47.4027 48.6705C48.0517 48.6705 48.5878 48.5019 48.9545 48.1928C49.3213 47.8837 49.5189 47.434 49.5189 46.8158C49.5189 46.5629 49.4906 46.31 49.406 46.1132C49.3213 45.9165 49.2085 45.7198 49.0392 45.5512C48.8699 45.3826 48.616 45.214 48.3338 45.0454C48.0517 44.8768 47.6849 44.7082 47.2616 44.5395C46.8102 44.3428 46.4152 44.1461 46.0766 43.9494C45.738 43.7246 45.4559 43.4998 45.2301 43.2469C45.0044 42.9939 44.8351 42.6848 44.7223 42.3757C44.6094 42.0666 44.553 41.7013 44.553 41.3078C44.553 40.8863 44.6376 40.521 44.8069 40.1838C44.9762 39.8465 45.2019 39.5655 45.4841 39.3407C45.7662 39.1159 46.1048 38.9473 46.4998 38.8349C46.8948 38.7225 47.3181 38.6663 47.7695 38.6663C48.221 38.6663 48.5877 38.7225 48.9263 38.8068C49.2649 38.8911 49.5471 39.0316 49.7728 39.1721C49.9985 39.3126 50.196 39.5093 50.3089 39.706C50.4217 39.9027 50.4782 40.0995 50.4782 40.3243C50.4782 40.6334 50.3653 40.8863 50.1678 41.0268C49.9703 41.1954 49.6881 41.2797 49.3213 41.2797C49.3213 41.0549 49.2931 40.8301 49.2367 40.6053C49.1803 40.3805 49.0956 40.1838 48.9545 40.0151C48.8135 39.8465 48.6442 39.706 48.4467 39.5936C48.2492 39.4812 47.967 39.425 47.6566 39.425C47.3745 39.425 47.1206 39.4531 46.8948 39.5374C46.6691 39.6217 46.4716 39.7341 46.3305 39.8746C46.1895 40.0151 46.0484 40.1838 45.992 40.4086C45.9073 40.6053 45.8791 40.8301 45.8791 41.083C45.8791 41.364 45.9073 41.617 45.992 41.8418C46.0766 42.0666 46.1895 42.2633 46.387 42.4319C46.5563 42.6005 46.8102 42.7691 47.0923 42.9377C47.3745 43.1063 47.7413 43.275 48.1645 43.4436C48.5878 43.6122 48.9828 43.8089 49.3213 44.0056C49.6599 44.2023 49.9421 44.4271 50.1678 44.6519C50.3935 44.9049 50.591 45.1578 50.7039 45.4669C50.8168 45.776 50.9014 46.1132 50.9014 46.4786C50.9014 46.9282 50.8168 47.3497 50.6475 47.715C50.4782 48.0804 50.2242 48.3895 49.9139 48.6424C49.6035 48.8953 49.2085 49.092 48.7853 49.2044C48.362 49.3449 47.8542 49.4012 47.3181 49.4012Z" fill="white"/>
<path d="M55.5558 48.6425C55.7251 48.6425 55.8944 48.6425 56.0354 48.6144C56.1765 48.5863 56.3458 48.5582 56.4869 48.5301V49.1764C56.4304 49.2045 56.3458 49.2326 56.2329 49.2607C56.1201 49.2888 56.0354 49.3169 55.8944 49.345C55.7815 49.3731 55.6404 49.3732 55.5276 49.4013C55.3865 49.4013 55.2736 49.4294 55.1608 49.4294C54.794 49.4294 54.4554 49.4013 54.2014 49.3169C53.9475 49.2326 53.7218 49.1202 53.5525 48.9235C53.3832 48.7549 53.2421 48.502 53.1575 48.221C53.0728 47.94 53.0446 47.5746 53.0446 47.1531V42.2634H51.916V41.6733C52.0853 41.6733 52.2828 41.6452 52.5085 41.5608C52.7343 41.4765 52.9035 41.3641 53.0728 41.1955C53.2421 41.0269 53.3832 40.8021 53.4679 40.5492C53.5807 40.2963 53.6654 39.9871 53.75 39.6218H54.4272V41.4203H56.3458V42.2634H54.4272V47.1812C54.4272 47.687 54.54 48.0524 54.7375 48.2772C54.935 48.5301 55.2172 48.6425 55.5558 48.6425Z" fill="white"/>
<path d="M64.4989 45.3264C64.4989 46.7034 64.2167 47.7151 63.6242 48.3895C63.0317 49.064 62.1852 49.4012 61.0566 49.4012C60.5205 49.4012 60.0409 49.3169 59.6176 49.1483C59.1944 48.9797 58.8276 48.7268 58.5455 48.3895C58.2633 48.0523 58.0376 47.6308 57.8683 47.125C57.699 46.6191 57.6426 46.029 57.6426 45.3264C57.6426 43.9495 57.9247 42.9378 58.5172 42.2915C59.1098 41.617 59.9562 41.2798 61.0848 41.2798C61.6209 41.2798 62.1006 41.3641 62.5238 41.5327C62.947 41.7013 63.3138 41.9542 63.596 42.2915C63.8781 42.6287 64.1039 43.0502 64.2732 43.556C64.4142 44.0619 64.4989 44.652 64.4989 45.3264ZM59.0533 45.3264C59.0533 45.8604 59.0816 46.3381 59.1662 46.7596C59.2508 47.1812 59.3637 47.5184 59.5048 47.7994C59.6741 48.0804 59.8716 48.2771 60.1255 48.4176C60.3795 48.5582 60.6898 48.6425 61.0566 48.6425C61.4234 48.6425 61.7338 48.5582 61.9877 48.4176C62.2417 48.2771 62.4392 48.0523 62.6085 47.7994C62.7777 47.5184 62.8906 47.1812 62.947 46.7596C63.0035 46.3381 63.0599 45.8604 63.0599 45.3264C63.0599 44.7925 63.0317 44.3148 62.947 43.8933C62.8624 43.4717 62.7495 43.1345 62.6085 42.8816C62.4392 42.6006 62.2417 42.4039 61.9877 42.2633C61.7338 42.1228 61.4234 42.0666 61.0566 42.0666C60.6898 42.0666 60.3795 42.1228 60.1255 42.2633C59.8716 42.4039 59.6741 42.6006 59.5048 42.8816C59.3355 43.1626 59.2226 43.4998 59.1662 43.8933C59.0816 44.3148 59.0533 44.7925 59.0533 45.3264Z" fill="white"/>
<path d="M69.663 48.6424V49.2607H65.7129V48.6424H65.8258C65.995 48.6424 66.1361 48.6424 66.3054 48.6143C66.4465 48.5862 66.5876 48.53 66.6722 48.4738C66.7851 48.3895 66.8697 48.3052 66.9261 48.1647C66.9826 48.0242 67.0108 47.8556 67.0108 47.6027V43.0502C67.0108 42.8254 66.9826 42.6567 66.9261 42.5443C66.8697 42.4038 66.7851 42.3195 66.6722 42.2352C66.5594 42.1509 66.4465 42.1228 66.2772 42.0947C66.1361 42.0666 65.9668 42.0666 65.8258 42.0666H65.7693V41.4484H68.1394L68.3369 42.6286H68.4216C68.5626 42.3476 68.7319 42.1228 68.9012 41.9542C69.0705 41.7856 69.2398 41.6451 69.4373 41.5608C69.6348 41.4765 69.8323 41.3922 70.0298 41.3641C70.2555 41.336 70.4531 41.3079 70.707 41.3079C71.102 41.3079 71.4406 41.3641 71.751 41.4765C72.0613 41.5889 72.3153 41.7575 72.5128 41.9823C72.7385 42.2071 72.8796 42.5162 72.9924 42.8816C73.1053 43.2469 73.1617 43.6684 73.1617 44.1742V47.6308C73.1617 47.8556 73.1899 48.0523 73.2464 48.1928C73.3028 48.3333 73.3874 48.4457 73.4721 48.5019C73.5849 48.5862 73.6978 48.6143 73.8389 48.6424C73.98 48.6705 74.121 48.6705 74.2903 48.6705H74.3468V49.2888H71.7792V44.2304C71.7792 43.9213 71.751 43.6403 71.6945 43.3874C71.6381 43.1345 71.5534 42.9378 71.4124 42.7692C71.2713 42.6005 71.1302 42.46 70.9045 42.3757C70.707 42.2914 70.4531 42.2352 70.1427 42.2352C69.8041 42.2352 69.522 42.2914 69.2962 42.4319C69.0705 42.5724 68.873 42.7411 68.7601 42.9659C68.6191 43.1907 68.5344 43.4436 68.4498 43.7246C68.3933 44.0056 68.3651 44.3148 68.3651 44.6239V47.7151C68.3651 47.9399 68.3933 48.1085 68.4498 48.2209C68.5062 48.3614 68.5908 48.4457 68.7037 48.53C68.8166 48.5862 68.9294 48.6424 69.0987 48.6705C69.2398 48.6986 69.4091 48.6986 69.5502 48.6986H69.663V48.6424Z" fill="white"/>
<path d="M78.9746 49.4012C78.4385 49.4012 77.9588 49.3169 77.5356 49.1202C77.1124 48.9516 76.7456 48.6706 76.4634 48.3334C76.1813 47.9961 75.9556 47.5746 75.7863 47.0688C75.617 46.5629 75.5605 46.0009 75.5605 45.3827C75.5605 44.0057 75.8427 42.994 76.407 42.2915C76.9713 41.5889 77.7613 41.2517 78.8053 41.2517C79.285 41.2517 79.7082 41.336 80.075 41.4765C80.4418 41.617 80.7804 41.8418 81.0343 42.1229C81.2882 42.4039 81.4857 42.7692 81.6268 43.2188C81.7679 43.6404 81.8243 44.1462 81.8243 44.7363V45.4108H76.9431C76.9431 45.9447 76.9995 46.3943 77.1124 46.7878C77.197 47.1812 77.3381 47.4903 77.5356 47.7432C77.7331 47.9961 77.9588 48.1648 78.2128 48.2772C78.4667 48.3896 78.7771 48.4458 79.1439 48.4458C79.3978 48.4458 79.6235 48.4177 79.8493 48.3615C80.075 48.3053 80.2725 48.221 80.4418 48.1367C80.6111 48.0523 80.7804 47.9399 80.9214 47.7994C81.0625 47.6589 81.1754 47.5465 81.26 47.406C81.3165 47.4341 81.4011 47.4903 81.4575 47.5746C81.514 47.6589 81.5422 47.7713 81.5422 47.8837C81.5422 48.0242 81.4857 48.1929 81.3729 48.3615C81.26 48.5301 81.1189 48.6987 80.8932 48.8392C80.6675 48.9797 80.4136 49.0921 80.075 49.2045C79.7928 49.3731 79.426 49.4012 78.9746 49.4012ZM78.8053 42.0667C78.2692 42.0667 77.846 42.2915 77.5356 42.713C77.2535 43.1626 77.056 43.809 77.0277 44.652H80.4136C80.4136 44.2586 80.3854 43.9214 80.3289 43.5842C80.2725 43.275 80.1878 42.994 80.0468 42.7692C79.9339 42.5444 79.7646 42.3758 79.5671 42.2353C79.3414 42.151 79.0874 42.0667 78.8053 42.0667Z" fill="white"/>
<path d="M89.3864 45.7761L88.8221 47.3217C88.7657 47.4341 88.7375 47.5465 88.7093 47.6589C88.681 47.7713 88.681 47.8556 88.681 47.9399C88.681 48.1929 88.7657 48.3615 88.935 48.4739C89.1043 48.5863 89.33 48.6425 89.6686 48.6425H90.0072V49.2607H86.4238V48.6425H86.706C86.8471 48.6425 86.9599 48.6144 87.0728 48.5863C87.1856 48.5582 87.2703 48.502 87.3549 48.4177C87.4396 48.3334 87.5242 48.221 87.5807 48.0805C87.6653 47.9399 87.7499 47.7432 87.8346 47.5184L91.0793 38.835H92.2362L95.5656 47.8837C95.622 48.0242 95.6784 48.1648 95.7349 48.2491C95.7913 48.3615 95.8759 48.4177 95.9324 48.502C96.017 48.5582 96.1017 48.6144 96.2145 48.6144C96.3274 48.6425 96.4402 48.6425 96.5813 48.6425H96.7788V49.2607H92.744V48.6425H93.0826C93.6751 48.6425 93.9573 48.4177 93.9573 47.9399C93.9573 47.8556 93.9573 47.7713 93.9291 47.687C93.9009 47.6027 93.8727 47.4903 93.8444 47.406L93.2519 45.7761H89.3864ZM92.0669 42.4882C91.9258 42.0667 91.7847 41.6451 91.6436 41.2798C91.5308 40.9145 91.4179 40.5492 91.3333 40.1838C91.3051 40.3525 91.2486 40.5211 91.2204 40.6897C91.164 40.8583 91.1358 41.0269 91.0793 41.1955C91.0229 41.3641 90.9665 41.5327 90.9101 41.7294C90.8536 41.9262 90.769 42.1229 90.6843 42.3477L89.6968 45.0455H92.998L92.0669 42.4882Z" fill="white"/>
<path d="M99.8534 49.4011C99.4866 49.4011 99.148 49.373 98.8658 49.3168C98.5555 49.2606 98.3015 49.1482 98.104 49.0358C97.9065 48.8953 97.7372 48.7548 97.6244 48.5581C97.5115 48.3614 97.4551 48.1365 97.4551 47.8836C97.4551 47.6869 97.4833 47.5183 97.5397 47.4059C97.5962 47.2654 97.6808 47.1811 97.7654 47.0968C97.8501 47.0125 97.963 46.9563 98.0758 46.9282C98.1887 46.9001 98.2733 46.872 98.358 46.872C98.358 47.1249 98.3862 47.3778 98.4426 47.6026C98.499 47.8274 98.5837 48.0241 98.6965 48.1928C98.8094 48.3614 98.9787 48.5019 99.1762 48.5862C99.3737 48.6705 99.6277 48.7267 99.938 48.7267C100.192 48.7267 100.446 48.6986 100.643 48.6424C100.841 48.5862 101.01 48.4738 101.151 48.3614C101.292 48.249 101.405 48.1084 101.462 47.9398C101.546 47.7712 101.575 47.6026 101.575 47.4059C101.575 47.2373 101.546 47.0687 101.49 46.9282C101.433 46.7877 101.349 46.6753 101.208 46.5628C101.067 46.4504 100.897 46.338 100.643 46.2256C100.418 46.1132 100.107 45.9727 99.7687 45.8322C99.4019 45.6636 99.0633 45.495 98.7812 45.3545C98.499 45.214 98.2733 45.0453 98.0758 44.8486C97.9065 44.68 97.7655 44.4552 97.6808 44.2304C97.5962 44.0056 97.5397 43.7246 97.5397 43.4154C97.5397 43.0782 97.5962 42.7972 97.7372 42.5443C97.8783 42.2914 98.0476 42.0666 98.3015 41.8979C98.5555 41.7293 98.8376 41.5888 99.1762 41.5045C99.5148 41.4202 99.8816 41.364 100.305 41.364C100.643 41.364 100.954 41.3921 101.236 41.4764C101.49 41.5607 101.716 41.645 101.913 41.7574C102.082 41.8698 102.223 42.0104 102.308 42.179C102.393 42.3476 102.449 42.5162 102.449 42.6848C102.449 42.9377 102.365 43.1625 102.167 43.3311C101.97 43.4998 101.716 43.5841 101.377 43.5841C101.377 43.1063 101.264 42.7129 101.067 42.4319C100.869 42.1509 100.559 42.0385 100.107 42.0385C99.8534 42.0385 99.6559 42.0666 99.4584 42.1228C99.2609 42.179 99.148 42.2633 99.0351 42.3757C98.9223 42.4881 98.8376 42.6005 98.7812 42.741C98.7248 42.8815 98.6965 43.0501 98.6965 43.2187C98.6965 43.4154 98.7248 43.556 98.8094 43.6965C98.8658 43.837 98.9787 43.9494 99.1198 44.0618C99.2609 44.1742 99.4584 44.2866 99.6841 44.399C99.9098 44.5114 100.192 44.6238 100.531 44.7643C100.926 44.9329 101.236 45.0735 101.518 45.2421C101.8 45.4107 102.026 45.5793 102.195 45.7479C102.365 45.9446 102.506 46.1413 102.59 46.3661C102.675 46.5909 102.731 46.872 102.731 47.1811C102.731 47.5745 102.675 47.8836 102.534 48.1928C102.393 48.4738 102.195 48.7267 101.941 48.9234C101.687 49.1201 101.377 49.2606 101.038 49.3449C100.7 49.373 100.305 49.4011 99.8534 49.4011Z" fill="white"/>
<path d="M106.484 49.4011C106.117 49.4011 105.779 49.373 105.497 49.3168C105.186 49.2606 104.932 49.1482 104.735 49.0358C104.537 48.8953 104.368 48.7548 104.255 48.5581C104.142 48.3614 104.086 48.1365 104.086 47.8836C104.086 47.6869 104.114 47.5183 104.171 47.4059C104.227 47.2654 104.312 47.1811 104.396 47.0968C104.481 47.0125 104.594 46.9563 104.707 46.9282C104.82 46.9001 104.904 46.872 104.989 46.872C104.989 47.1249 105.017 47.3778 105.073 47.6026C105.13 47.8274 105.215 48.0241 105.327 48.1928C105.44 48.3614 105.61 48.5019 105.807 48.5862C106.005 48.6705 106.259 48.7267 106.569 48.7267C106.823 48.7267 107.077 48.6986 107.274 48.6424C107.472 48.5862 107.641 48.4738 107.782 48.3614C107.923 48.249 108.036 48.1084 108.093 47.9398C108.177 47.7712 108.205 47.6026 108.205 47.4059C108.205 47.2373 108.177 47.0687 108.121 46.9282C108.064 46.7877 107.98 46.6753 107.839 46.5628C107.697 46.4504 107.528 46.338 107.274 46.2256C107.049 46.1132 106.738 45.9727 106.4 45.8322C106.033 45.6636 105.694 45.495 105.412 45.3545C105.13 45.214 104.904 45.0453 104.707 44.8486C104.537 44.68 104.396 44.4552 104.312 44.2304C104.227 44.0056 104.171 43.7246 104.171 43.4154C104.171 43.0782 104.227 42.7972 104.368 42.5443C104.509 42.2914 104.678 42.0666 104.932 41.8979C105.186 41.7293 105.468 41.5888 105.807 41.5045C106.146 41.4202 106.512 41.364 106.936 41.364C107.274 41.364 107.585 41.3921 107.867 41.4764C108.121 41.5607 108.346 41.645 108.544 41.7574C108.713 41.8698 108.854 42.0104 108.939 42.179C109.024 42.3476 109.08 42.5162 109.08 42.6848C109.08 42.9377 108.995 43.1625 108.798 43.3311C108.6 43.4998 108.346 43.5841 108.008 43.5841C108.008 43.1063 107.895 42.7129 107.697 42.4319C107.5 42.1509 107.19 42.0385 106.738 42.0385C106.484 42.0385 106.287 42.0666 106.089 42.1228C105.892 42.179 105.779 42.2633 105.666 42.3757C105.553 42.4881 105.468 42.6005 105.412 42.741C105.356 42.8815 105.327 43.0501 105.327 43.2187C105.327 43.4154 105.356 43.556 105.44 43.6965C105.497 43.837 105.61 43.9494 105.751 44.0618C105.892 44.1742 106.089 44.2866 106.315 44.399C106.541 44.5114 106.823 44.6238 107.161 44.7643C107.556 44.9329 107.867 45.0735 108.149 45.2421C108.431 45.4107 108.657 45.5793 108.826 45.7479C108.995 45.9446 109.136 46.1413 109.221 46.3661C109.306 46.5909 109.362 46.872 109.362 47.1811C109.362 47.5745 109.306 47.8836 109.165 48.1928C109.024 48.4738 108.826 48.7267 108.572 48.9234C108.318 49.1201 108.008 49.2606 107.669 49.3449C107.302 49.373 106.907 49.4011 106.484 49.4011Z" fill="white"/>
<path d="M114.244 49.4012C113.708 49.4012 113.228 49.3169 112.805 49.1202C112.382 48.9516 112.015 48.6706 111.733 48.3334C111.451 47.9961 111.225 47.5746 111.056 47.0688C110.887 46.5629 110.83 46.0009 110.83 45.3827C110.83 44.0057 111.112 42.994 111.677 42.2915C112.241 41.5889 113.031 41.2517 114.075 41.2517C114.554 41.2517 114.978 41.336 115.345 41.4765C115.711 41.617 116.05 41.8418 116.304 42.1229C116.558 42.4039 116.755 42.7692 116.896 43.2188C117.037 43.6404 117.094 44.1462 117.094 44.7363V45.4108H112.213C112.213 45.9447 112.269 46.3943 112.382 46.7878C112.467 47.1812 112.608 47.4903 112.805 47.7432C113.003 47.9961 113.228 48.1648 113.482 48.2772C113.736 48.3896 114.047 48.4458 114.413 48.4458C114.667 48.4458 114.893 48.4177 115.119 48.3615C115.345 48.3053 115.542 48.221 115.711 48.1367C115.881 48.0523 116.05 47.9399 116.191 47.7994C116.332 47.6589 116.445 47.5465 116.53 47.406C116.586 47.4341 116.671 47.4903 116.727 47.5746C116.783 47.6589 116.812 47.7713 116.812 47.8837C116.812 48.0242 116.755 48.1929 116.642 48.3615C116.53 48.5301 116.388 48.6987 116.163 48.8392C115.937 48.9797 115.683 49.0921 115.345 49.2045C115.034 49.3731 114.667 49.4012 114.244 49.4012ZM114.047 42.0667C113.511 42.0667 113.087 42.2915 112.777 42.713C112.495 43.1626 112.297 43.809 112.269 44.652H115.655C115.655 44.2586 115.627 43.9214 115.57 43.5842C115.514 43.275 115.429 42.994 115.288 42.7692C115.175 42.5444 115.006 42.3758 114.808 42.2353C114.611 42.151 114.357 42.0667 114.047 42.0667Z" fill="white"/>
<path d="M121.749 48.6425C121.918 48.6425 122.088 48.6425 122.229 48.6144C122.37 48.5863 122.539 48.5582 122.68 48.5301V49.1764C122.624 49.2045 122.539 49.2326 122.426 49.2607C122.313 49.2888 122.229 49.3169 122.088 49.345C121.975 49.3731 121.834 49.3732 121.721 49.4013C121.58 49.4013 121.467 49.4294 121.354 49.4294C120.987 49.4294 120.649 49.4013 120.395 49.3169C120.141 49.2326 119.915 49.1202 119.746 48.9235C119.577 48.7549 119.435 48.502 119.351 48.221C119.266 47.94 119.238 47.5746 119.238 47.1531V42.2634H118.109V41.6733C118.279 41.6733 118.476 41.6452 118.702 41.5608C118.928 41.4765 119.097 41.3641 119.266 41.1955C119.435 41.0269 119.577 40.8021 119.661 40.5492C119.774 40.2963 119.859 39.9871 119.943 39.6218H120.621V41.4203H122.539V42.2634H120.621V47.1812C120.621 47.687 120.733 48.0524 120.931 48.2772C121.157 48.5301 121.411 48.6425 121.749 48.6425Z" fill="white"/>
<path d="M126.121 49.4011C125.754 49.4011 125.416 49.373 125.133 49.3168C124.823 49.2606 124.569 49.1482 124.372 49.0358C124.174 48.8953 124.005 48.7548 123.892 48.5581C123.779 48.3614 123.723 48.1365 123.723 47.8836C123.723 47.6869 123.751 47.5183 123.807 47.4059C123.864 47.2654 123.948 47.1811 124.033 47.0968C124.118 47.0125 124.231 46.9563 124.343 46.9282C124.456 46.9001 124.541 46.872 124.626 46.872C124.626 47.1249 124.654 47.3778 124.71 47.6026C124.767 47.8274 124.851 48.0241 124.964 48.1928C125.077 48.3614 125.246 48.5019 125.444 48.5862C125.641 48.6705 125.895 48.7267 126.206 48.7267C126.46 48.7267 126.713 48.6986 126.911 48.6424C127.108 48.5862 127.278 48.4738 127.419 48.3614C127.56 48.249 127.673 48.1084 127.729 47.9398C127.814 47.7712 127.842 47.6026 127.842 47.4059C127.842 47.2373 127.814 47.0687 127.757 46.9282C127.701 46.7877 127.616 46.6753 127.475 46.5628C127.334 46.4504 127.165 46.338 126.911 46.2256C126.685 46.1132 126.375 45.9727 126.036 45.8322C125.67 45.6636 125.331 45.495 125.049 45.3545C124.767 45.214 124.541 45.0453 124.343 44.8486C124.174 44.68 124.033 44.4552 123.948 44.2304C123.864 44.0056 123.807 43.7246 123.807 43.4154C123.807 43.0782 123.864 42.7972 124.005 42.5443C124.146 42.2914 124.315 42.0666 124.569 41.8979C124.823 41.7293 125.105 41.5888 125.444 41.5045C125.782 41.4202 126.149 41.364 126.572 41.364C126.911 41.364 127.221 41.3921 127.503 41.4764C127.757 41.5607 127.983 41.645 128.181 41.7574C128.35 41.8698 128.491 42.0104 128.576 42.179C128.66 42.3476 128.717 42.5162 128.717 42.6848C128.717 42.9377 128.632 43.1625 128.435 43.3311C128.237 43.4998 127.983 43.5841 127.645 43.5841C127.645 43.1063 127.532 42.7129 127.334 42.4319C127.137 42.1509 126.826 42.0385 126.375 42.0385C126.121 42.0385 125.923 42.0666 125.726 42.1228C125.557 42.179 125.416 42.2633 125.303 42.3757C125.19 42.4881 125.105 42.6005 125.049 42.741C124.992 42.8815 124.964 43.0501 124.964 43.2187C124.964 43.4154 124.992 43.556 125.077 43.6965C125.133 43.837 125.246 43.9494 125.387 44.0618C125.528 44.1742 125.726 44.2866 125.952 44.399C126.177 44.5114 126.46 44.6238 126.798 44.7643C127.193 44.9329 127.503 45.0735 127.786 45.2421C128.068 45.4107 128.294 45.5793 128.463 45.7479C128.632 45.9446 128.773 46.1413 128.858 46.3661C128.942 46.5909 128.999 46.872 128.999 47.1811C128.999 47.5745 128.942 47.8836 128.801 48.1928C128.66 48.5019 128.463 48.7267 128.209 48.9234C127.955 49.1201 127.645 49.2606 127.306 49.3449C126.939 49.373 126.544 49.4011 126.121 49.4011Z" fill="white"/>
</g>
<defs>
<linearGradient id="paint0_linear_1035_822" x1="38.0507" y1="14.261" x2="73.5993" y2="10.8618" gradientUnits="userSpaceOnUse">
<stop offset="0.1256" stop-color="#5B5B5B"/>
<stop offset="1" stop-color="#B3B3B3"/>
</linearGradient>
<linearGradient id="paint1_linear_1035_822" x1="31.0359" y1="25.4262" x2="85.9952" y2="25.4262" gradientUnits="userSpaceOnUse">
<stop offset="0.3542" stop-color="#3075BF"/>
<stop offset="1" stop-color="#40B0E2"/>
</linearGradient>
<linearGradient id="paint2_linear_1035_822" x1="33.8334" y1="27.3409" x2="81.415" y2="27.3409" gradientUnits="userSpaceOnUse">
<stop offset="0.1205" stop-color="#3075BF"/>
<stop offset="1" stop-color="#40B0E2"/>
</linearGradient>
<clipPath id="clip0_1035_822">
<rect width="129" height="53" fill="white"/>
</clipPath>
</defs>
</svg>
