<?xml version="1.0" encoding="UTF-8"?> <svg xmlns="http://www.w3.org/2000/svg" width="220" height="65" viewBox="0 0 220 65" fill="none"><path d="M14.1278 65C13.56 65 13.0051 65 12.4405 64.9823C11.2719 64.9682 10.106 64.8754 8.95237 64.7045C7.87708 64.5358 6.83541 64.222 5.86171 63.7735C4.89657 63.3288 4.01626 62.7455 3.25452 62.0461C2.48175 61.3549 1.83835 60.5533 1.34983 59.6729C0.856349 58.7866 0.514926 57.8368 0.337458 56.8563C0.146201 55.8055 0.0426124 54.7429 0.0275806 53.6778C0.0175741 53.3614 0.00378901 52.398 0.000652554 52.1734C0.000209358 52.1416 0 52.1103 0 52.0786V12.9115C0 12.8795 0.000214115 12.8478 0.000665688 12.8158C0.00382731 12.5916 0.017588 11.6406 0.0275806 11.3429C0.0417706 10.2778 0.144819 9.21522 0.335836 8.16434C0.513982 7.1815 0.855925 6.22922 1.34983 5.34044C1.83628 4.4594 2.47622 3.65596 3.24479 2.96133C4.01109 2.25952 4.8936 1.67162 5.86009 1.21911C6.83099 0.771995 7.87009 0.460171 8.94264 0.294064C10.1005 0.123423 11.2709 0.0320418 12.4438 0.0206879L14.1278 0H205.869L207.572 0.0221656C208.734 0.0347638 209.893 0.127136 211.04 0.298497C212.124 0.466119 213.175 0.779878 214.158 1.22945C216.094 2.13846 217.669 3.57646 218.663 5.34192C219.15 6.22653 219.486 7.17316 219.661 8.14957C219.855 9.20983 219.963 10.2816 219.985 11.3562C219.985 11.8379 219.985 12.3551 219.985 12.8694C220 13.5063 220 14.1136 220 14.7254V50.2791C220 50.8967 220 51.4982 219.985 52.1055C219.985 52.6582 219.985 53.165 219.985 53.6852C219.962 54.7411 219.853 55.7941 219.661 56.8357C219.487 57.8228 219.147 58.7797 218.653 59.6729C218.162 60.5439 217.522 61.3388 216.758 62.0283C215.996 62.7315 215.115 63.3183 214.148 63.7661C213.168 64.218 212.119 64.5328 211.036 64.7C209.883 64.8718 208.717 64.9647 207.548 64.9778C207.001 64.9896 206.429 64.9956 205.874 64.9956H203.851L14.1278 65Z" fill="black"></path><path d="M40.9022 31.7907C40.9199 30.4425 41.286 29.1205 41.9664 27.9479C42.6468 26.7752 43.6195 25.79 44.7939 25.0838C44.0478 24.0417 43.0636 23.1841 41.9194 22.5792C40.7751 21.9743 39.5025 21.6387 38.2024 21.599C35.4294 21.3181 32.7454 23.2227 31.3281 23.2227C29.892 23.2227 27.7121 21.6285 25.3685 21.6777C23.853 21.7256 22.376 22.1566 21.0814 22.9288C19.7868 23.701 18.7188 24.788 17.9814 26.0839C14.7877 31.493 17.1701 39.4415 20.2289 43.8126C21.7597 45.9532 23.549 48.3453 25.8898 48.2596C28.1874 48.1669 29.0361 46.8311 31.8005 46.8311C34.5405 46.8311 35.3432 48.2596 37.7314 48.2062C40.1899 48.1669 41.738 46.0558 43.2157 43.8941C44.3153 42.3689 45.1616 40.6831 45.723 38.8994C44.2946 38.3083 43.0758 37.319 42.2185 36.0549C41.3612 34.7907 40.9034 33.3077 40.9022 31.7907Z" fill="white"></path><path d="M36.391 18.723C37.7317 17.1498 38.3922 15.1271 38.232 13.085C36.1842 13.2952 34.2926 14.2526 32.9344 15.7663C32.27 16.5053 31.761 17.3651 31.4364 18.2966C31.1119 19.2281 30.9783 20.213 31.0432 21.1951C32.0677 21.2057 33.0814 20.9888 34.0077 20.5606C34.9341 20.1323 35.749 19.504 36.391 18.723Z" fill="white"></path><path d="M69.8617 42.8388H62.0439L60.167 48.2605H56.8555L64.2597 28.2015H67.7062L75.1105 48.2605H71.7372L69.8617 42.8388ZM62.8481 40.3358H69.0446L65.9902 31.5374H65.904L62.8481 40.3358Z" fill="white"></path><path d="M91.0926 40.946C91.0926 45.4913 88.6053 48.41 84.8529 48.41C83.9022 48.4586 82.9567 48.2443 82.1247 47.7917C81.2927 47.3391 80.6078 46.6665 80.1484 45.8508H80.0781V53.0943H77.0078V33.6337H79.979V36.0664H80.035C80.5154 35.2548 81.2117 34.5856 82.05 34.1303C82.8883 33.6749 83.8371 33.4504 84.7955 33.4806C88.5953 33.4806 91.0926 36.4148 91.0926 40.946ZM87.9332 40.946C87.9332 37.9851 86.3694 36.0384 83.9827 36.0384C81.6376 36.0384 80.0608 38.0259 80.0608 40.946C80.0608 43.8956 81.6405 45.8621 83.9827 45.8621C86.3737 45.8663 87.9376 43.9336 87.9376 40.946H87.9332Z" fill="white"></path><path d="M107.542 40.946C107.542 45.4913 105.055 48.41 101.302 48.41C100.352 48.4586 99.4062 48.2443 98.5741 47.7917C97.7421 47.3391 97.0572 46.6665 96.5979 45.8508H96.5275V53.0943H93.4688V33.6337H96.4399V36.0664H96.4845C96.9648 35.2548 97.6612 34.5856 98.4995 34.1303C99.3378 33.6749 100.287 33.4504 101.245 33.4806C105.046 33.4806 107.542 36.4148 107.542 40.946ZM104.383 40.946C104.383 37.9851 102.819 36.0384 100.432 36.0384C98.0871 36.0384 96.5103 38.0259 96.5103 40.946C96.5103 43.8956 98.09 45.8621 100.432 45.8621C102.819 45.8621 104.383 43.9294 104.383 40.946Z" fill="white"></path><path d="M118.434 42.6716C118.661 44.6605 120.637 45.9668 123.337 45.9668C125.922 45.9668 127.789 44.6605 127.789 42.8669C127.789 41.3106 126.666 40.3779 124.009 39.7389L121.351 39.1124C117.586 38.2233 115.837 36.4999 115.837 33.7047C115.837 30.2438 118.92 27.8672 123.304 27.8672C127.638 27.8672 130.608 30.2438 130.708 33.7047H127.595C127.41 31.7032 125.718 30.4952 123.245 30.4952C120.772 30.4952 119.081 31.7172 119.081 33.4969C119.081 34.9155 120.161 35.7442 122.804 36.3875L125.063 36.9297C129.271 37.9031 131.018 39.5563 131.018 42.4905C131.018 46.2435 127.963 48.5934 123.102 48.5934C118.554 48.5934 115.483 46.2983 115.285 42.6702L118.434 42.6716Z" fill="white"></path><path d="M137.648 30.173V33.634H140.486V36.0105H137.642V44.0785C137.642 45.3314 138.217 45.9143 139.462 45.9143C139.798 45.9086 140.133 45.8856 140.467 45.8455V48.208C139.905 48.3112 139.334 48.3583 138.762 48.3485C135.735 48.3485 134.555 47.236 134.555 44.4001V36.0105H132.391V33.634H134.565V30.173H137.648Z" fill="white"></path><path d="M142.133 40.949C142.133 36.3476 144.903 33.4569 149.224 33.4569C153.545 33.4569 156.317 36.3476 156.317 40.949C156.317 45.5504 153.574 48.4411 149.22 48.4411C144.866 48.4411 142.133 45.5617 142.133 40.949ZM153.19 40.949C153.19 37.7929 151.711 35.929 149.224 35.929C146.737 35.929 145.261 37.8055 145.261 40.949C145.261 44.1178 146.738 45.9662 149.224 45.9662C151.71 45.9662 153.19 44.1178 153.19 40.949Z" fill="white"></path><path d="M158.848 33.6333H161.774V36.1223H161.845C162.042 35.3459 162.507 34.6597 163.161 34.1786C163.814 33.6976 164.617 33.451 165.435 33.4802C165.788 33.4792 166.141 33.5169 166.486 33.5926V36.4018C166.04 36.2685 165.574 36.2072 165.107 36.2206C164.661 36.2029 164.216 36.28 163.803 36.4466C163.39 36.6132 163.018 36.8653 162.715 37.1857C162.411 37.506 162.181 37.887 162.042 38.3023C161.903 38.7176 161.858 39.1575 161.909 39.5916V48.2664H158.848V33.6333Z" fill="white"></path><path d="M180.644 43.9641C180.231 46.6146 177.588 48.4405 174.206 48.4405C169.856 48.4405 167.156 45.5906 167.156 41.0173C167.156 36.4439 169.87 33.455 174.077 33.455C178.214 33.455 180.814 36.2346 180.814 40.6689V41.6985H170.254V41.8797C170.205 42.4178 170.274 42.9598 170.456 43.4698C170.638 43.9799 170.929 44.4462 171.309 44.838C171.689 45.2297 172.15 45.5378 172.662 45.7419C173.173 45.9461 173.723 46.0415 174.275 46.0218C174.999 46.0869 175.725 45.922 176.346 45.5516C176.967 45.1812 177.449 44.625 177.721 43.9655L180.644 43.9641ZM170.268 39.6H177.743C177.771 39.1158 177.697 38.6311 177.524 38.1764C177.352 37.7217 177.085 37.3069 176.74 36.9581C176.396 36.6094 175.981 36.3342 175.522 36.15C175.064 35.9657 174.571 35.8764 174.075 35.8877C173.575 35.8847 173.08 35.9786 172.617 36.164C172.155 36.3494 171.734 36.6225 171.38 36.9676C171.026 37.3128 170.745 37.7231 170.554 38.1749C170.363 38.6267 170.265 39.1111 170.267 39.6H170.268Z" fill="white"></path><path d="M62.4726 13.4194C63.1161 13.3732 63.7618 13.4705 64.3631 13.7041C64.9645 13.9377 65.5065 14.3019 65.9501 14.7703C66.3937 15.2388 66.7278 15.7998 66.9283 16.413C67.1288 17.0262 67.1907 17.6763 67.1096 18.3163C67.1096 21.4641 65.4079 23.2735 62.4726 23.2735H58.9141V13.4194H62.4726ZM60.4434 21.8791H62.3017C62.7615 21.9067 63.2217 21.8314 63.6487 21.6586C64.0757 21.4859 64.4588 21.2201 64.7702 20.8805C65.0815 20.541 65.3131 20.1363 65.4483 19.696C65.5835 19.2556 65.6187 18.7907 65.5515 18.3349C65.614 17.8809 65.5754 17.4187 65.4382 16.9814C65.3011 16.5441 65.0689 16.1425 64.7583 15.8056C64.4477 15.4686 64.0663 15.2045 63.6416 15.0323C63.2169 14.8601 62.7593 14.784 62.3017 14.8095H60.4449L60.4434 21.8791Z" fill="white"></path><path d="M68.8375 19.5512C68.7911 19.0627 68.8473 18.5699 69.0024 18.1043C69.1575 17.6388 69.4082 17.2108 69.7384 16.8478C70.0685 16.4848 70.4709 16.1948 70.9196 15.9963C71.3684 15.7978 71.8537 15.6953 72.3444 15.6953C72.8351 15.6953 73.3203 15.7978 73.7691 15.9963C74.2179 16.1948 74.6202 16.4848 74.9504 16.8478C75.2805 17.2108 75.5312 17.6388 75.6863 18.1043C75.8415 18.5699 75.8976 19.0627 75.8512 19.5512C75.8998 20.0409 75.8453 20.5354 75.6912 21.0028C75.5371 21.4702 75.2868 21.9001 74.9564 22.2649C74.6261 22.6296 74.223 22.9212 73.7731 23.1207C73.3232 23.3202 72.8365 23.4233 72.3444 23.4233C71.8522 23.4233 71.3655 23.3202 70.9157 23.1207C70.4658 22.9212 70.0627 22.6296 69.7323 22.2649C69.402 21.9001 69.1517 21.4702 68.9975 21.0028C68.8434 20.5354 68.7889 20.0409 68.8375 19.5512ZM74.3419 19.5512C74.3419 17.9399 73.6239 16.9964 72.3472 16.9964C71.0706 16.9964 70.354 17.9385 70.354 19.5512C70.354 21.1638 71.072 22.1116 72.3472 22.1116C73.6225 22.1116 74.3419 21.1696 74.3419 19.5512Z" fill="white"></path><path d="M85.1806 23.2737H83.6584L82.1218 17.7967H82.0055L80.4747 23.2737H78.9711L76.9219 15.8379H78.4111L79.7437 21.5117H79.8528L81.3822 15.8379H82.7896L84.3189 21.5117H84.4281L85.7536 15.8379H87.2212L85.1806 23.2737Z" fill="white"></path><path d="M88.9414 15.8403H90.3545V17.0222H90.4636C90.6495 16.5979 90.9632 16.2421 91.3609 16.0045C91.7586 15.7669 92.2205 15.6593 92.6823 15.6967C93.0441 15.6695 93.4074 15.7241 93.7452 15.8564C94.0831 15.9887 94.3868 16.1953 94.634 16.4609C94.8811 16.7266 95.0653 17.0444 95.173 17.3909C95.2806 17.7374 95.3089 18.1037 95.2557 18.4626V23.2762H93.7881V18.8244C93.7881 17.6297 93.2682 17.0351 92.184 17.0351C91.9384 17.0238 91.6933 17.0657 91.4655 17.158C91.2376 17.2502 91.0324 17.3906 90.8638 17.5695C90.6952 17.7484 90.5673 17.9617 90.4888 18.1946C90.4103 18.4276 90.3831 18.6748 90.409 18.9192V23.269H88.9414V15.8403Z" fill="white"></path><path d="M97.5975 12.9337H99.0652V23.2732H97.5975V12.9337Z" fill="white"></path><path d="M101.102 19.5533C101.057 19.0653 101.114 18.5733 101.27 18.1086C101.426 17.644 101.676 17.2169 102.007 16.8547C102.337 16.4926 102.739 16.2032 103.187 16.0053C103.635 15.8073 104.12 15.7051 104.61 15.7051C105.1 15.7051 105.585 15.8073 106.033 16.0053C106.481 16.2032 106.883 16.4926 107.213 16.8547C107.544 17.2169 107.794 17.644 107.95 18.1086C108.106 18.5733 108.163 19.0653 108.118 19.5533C108.165 20.0425 108.11 20.5363 107.955 21.0028C107.8 21.4694 107.55 21.8984 107.22 22.2624C106.889 22.6264 106.486 22.9172 106.037 23.1163C105.588 23.3153 105.102 23.4181 104.61 23.4181C104.118 23.4181 103.632 23.3153 103.183 23.1163C102.734 22.9172 102.331 22.6264 102 22.2624C101.67 21.8984 101.42 21.4694 101.265 21.0028C101.11 20.5363 101.055 20.0425 101.102 19.5533ZM106.607 19.5533C106.607 17.942 105.889 16.9986 104.612 16.9986C103.335 16.9986 102.619 17.9406 102.619 19.5533C102.619 21.166 103.337 22.1138 104.612 22.1138C105.887 22.1138 106.607 21.1717 106.607 19.5533Z" fill="white"></path><path d="M109.664 21.1704C109.664 19.832 110.661 19.0595 112.43 18.9503L114.44 18.834V18.1921C114.44 17.4066 113.921 16.9628 112.918 16.9628C112.098 16.9628 111.531 17.263 111.369 17.79H109.951C110.095 16.5133 111.303 15.6934 112.99 15.6934C114.857 15.6934 115.905 16.621 115.905 18.1921V23.2728H114.492V22.2274H114.376C114.14 22.6022 113.809 22.9077 113.417 23.1128C113.025 23.3179 112.585 23.4153 112.143 23.3949C111.83 23.4274 111.515 23.3941 111.216 23.2972C110.918 23.2002 110.643 23.0418 110.409 22.832C110.176 22.6223 109.989 22.366 109.86 22.0795C109.732 21.7931 109.665 21.4829 109.664 21.169V21.1704ZM114.445 20.5357V19.9139L112.628 20.0302C111.604 20.0991 111.139 20.4467 111.139 21.1029C111.139 21.7592 111.713 22.1613 112.517 22.1613C112.751 22.185 112.988 22.1613 113.212 22.0918C113.437 22.0223 113.645 21.9083 113.825 21.7566C114.005 21.605 114.152 21.4187 114.258 21.209C114.364 20.9992 114.427 20.7703 114.443 20.5357H114.445Z" fill="white"></path><path d="M117.836 19.5509C117.836 17.2015 119.044 15.7123 120.923 15.7123C121.388 15.6911 121.85 15.8025 122.253 16.0337C122.657 16.2648 122.987 16.6061 123.204 17.0177H123.313V12.9336H124.781V23.2731H123.368V22.0984H123.251C123.016 22.5059 122.675 22.8416 122.263 23.0693C121.852 23.2971 121.386 23.4082 120.916 23.3909C119.031 23.3952 117.836 21.9074 117.836 19.5509ZM119.352 19.5509C119.352 21.1305 120.096 22.0769 121.34 22.0769C122.584 22.0769 123.342 21.1147 123.342 19.5566C123.342 17.9985 122.569 17.0306 121.34 17.0306C120.111 17.0306 119.352 17.9856 119.352 19.5509Z" fill="white"></path><path d="M130.959 19.5512C130.912 19.0627 130.968 18.5699 131.123 18.1043C131.279 17.6388 131.529 17.2108 131.859 16.8478C132.19 16.4848 132.592 16.1948 133.041 15.9963C133.489 15.7978 133.975 15.6953 134.465 15.6953C134.956 15.6953 135.441 15.7978 135.89 15.9963C136.339 16.1948 136.741 16.4848 137.071 16.8478C137.402 17.2108 137.652 17.6388 137.807 18.1043C137.963 18.5699 138.019 19.0627 137.972 19.5512C138.021 20.0409 137.966 20.5354 137.812 21.0028C137.658 21.4702 137.408 21.9001 137.078 22.2649C136.747 22.6296 136.344 22.9212 135.894 23.1207C135.444 23.3202 134.958 23.4233 134.465 23.4233C133.973 23.4233 133.487 23.3202 133.037 23.1207C132.587 22.9212 132.184 22.6296 131.853 22.2649C131.523 21.9001 131.273 21.4702 131.119 21.0028C130.965 20.5354 130.91 20.0409 130.959 19.5512ZM136.463 19.5512C136.463 17.9399 135.745 16.9964 134.468 16.9964C133.192 16.9964 132.475 17.9385 132.475 19.5512C132.475 21.1638 133.193 22.1116 134.468 22.1116C135.744 22.1116 136.462 21.1696 136.462 19.5512H136.463Z" fill="white"></path><path d="M139.832 15.8403H141.245V17.0222H141.354C141.54 16.5979 141.854 16.2421 142.252 16.0045C142.649 15.7669 143.111 15.6593 143.573 15.6967C143.935 15.6695 144.298 15.7241 144.636 15.8564C144.974 15.9887 145.277 16.1953 145.525 16.4609C145.772 16.7266 145.956 17.0444 146.064 17.3909C146.171 17.7374 146.199 18.1037 146.146 18.4626V23.2762H144.68V18.8244C144.68 17.6297 144.16 17.0351 143.076 17.0351C142.83 17.0238 142.585 17.0657 142.358 17.158C142.13 17.2502 141.924 17.3906 141.756 17.5695C141.587 17.7484 141.459 17.9617 141.381 18.1946C141.302 18.4276 141.275 18.6748 141.301 18.9192V23.269H139.832V15.8403Z" fill="white"></path><path d="M154.439 13.9863V15.8719H156.05V17.1083H154.439V20.931C154.439 21.7094 154.759 22.0512 155.49 22.0512C155.677 22.0504 155.864 22.0389 156.05 22.0167V23.2388C155.786 23.2858 155.519 23.3108 155.251 23.3134C153.619 23.3134 152.969 22.739 152.969 21.303V17.1069H151.789V15.8704H152.969V13.9863H154.439Z" fill="white"></path><path d="M158.051 12.9336H159.505V17.0321H159.63C159.825 16.6036 160.148 16.2458 160.554 16.0073C160.959 15.7688 161.429 15.6613 161.898 15.6994C162.258 15.6799 162.618 15.7401 162.952 15.8757C163.286 16.0113 163.586 16.2189 163.83 16.4837C164.075 16.7486 164.258 17.0642 164.367 17.4079C164.475 17.7517 164.506 18.1152 164.458 18.4724V23.2731H162.988V18.8343C162.988 17.6467 162.435 17.045 161.398 17.045C161.146 17.0252 160.893 17.0606 160.657 17.1486C160.42 17.2367 160.205 17.3752 160.027 17.5547C159.85 17.7342 159.713 17.9503 159.628 18.1879C159.542 18.4255 159.509 18.6789 159.531 18.9305V23.2731H158.051V12.9336Z" fill="white"></path><path d="M173.017 21.2644C172.819 21.9449 172.387 22.5338 171.798 22.9278C171.209 23.3217 170.5 23.4954 169.795 23.4185C169.305 23.4314 168.818 23.3376 168.368 23.1435C167.918 22.9494 167.516 22.6597 167.189 22.2944C166.862 21.9292 166.618 21.4972 166.475 21.0285C166.332 20.5597 166.293 20.0655 166.36 19.58C166.295 19.0929 166.335 18.5976 166.478 18.1275C166.621 17.6573 166.863 17.2234 167.188 16.855C167.513 16.4867 167.914 16.1925 168.363 15.9925C168.811 15.7924 169.298 15.6911 169.789 15.6954C171.859 15.6954 173.106 17.1085 173.106 19.445V19.9576H167.855V20.0395C167.832 20.3123 167.866 20.5869 167.956 20.8456C168.045 21.1044 168.188 21.3416 168.374 21.542C168.561 21.7425 168.787 21.9019 169.038 22.0099C169.29 22.1178 169.561 22.1721 169.835 22.1691C170.186 22.2113 170.542 22.1481 170.857 21.9875C171.172 21.8269 171.432 21.5762 171.604 21.2673L173.017 21.2644ZM167.855 18.8677H171.612C171.63 18.6181 171.596 18.3674 171.512 18.1317C171.428 17.896 171.295 17.6805 171.123 17.4992C170.95 17.3178 170.742 17.1745 170.511 17.0785C170.279 16.9826 170.031 16.936 169.781 16.9419C169.527 16.9387 169.275 16.9862 169.04 17.0818C168.805 17.1775 168.591 17.3192 168.412 17.4987C168.232 17.6781 168.09 17.8917 167.995 18.1269C167.899 18.362 167.852 18.6139 167.855 18.8677Z" fill="white"></path><path d="M211.852 1.3C213.667 1.3 215.408 2.01906 216.692 3.299C217.975 4.57893 218.696 6.3149 218.696 8.125V56.875C218.696 58.6851 217.975 60.4211 216.692 61.701C215.408 62.9809 213.667 63.7 211.852 63.7H8.14815C6.33289 63.7 4.59198 62.9809 3.3084 61.701C2.02481 60.4211 1.3037 58.6851 1.3037 56.875V8.125C1.3037 6.3149 2.02481 4.57893 3.3084 3.299C4.59198 2.01906 6.33289 1.3 8.14815 1.3H211.852ZM211.852 0H8.14815C5.98712 0 3.91461 0.856024 2.38654 2.37976C0.858463 3.90349 0 5.97012 0 8.125L0 56.875C0 59.0299 0.858463 61.0965 2.38654 62.6202C3.91461 64.144 5.98712 65 8.14815 65H211.852C214.013 65 216.085 64.144 217.613 62.6202C219.142 61.0965 220 59.0299 220 56.875V8.125C220 5.97012 219.142 3.90349 217.613 2.37976C216.085 0.856024 214.013 0 211.852 0Z" fill="#A7A6A6"></path></svg> 