<?xml version="1.0" encoding="UTF-8"?> <svg xmlns="http://www.w3.org/2000/svg" width="220" height="65" viewBox="0 0 220 65" fill="none"><path d="M211.935 0.460876H7.06452C3.16289 0.460876 0 3.57542 0 7.4174V57.5044C0 61.3463 3.16289 64.4609 7.06452 64.4609H211.935C215.837 64.4609 219 61.3463 219 57.5044V7.4174C219 3.57542 215.837 0.460876 211.935 0.460876Z" fill="black"></path><path d="M211.852 1.3C213.667 1.3 215.408 2.01906 216.692 3.299C217.975 4.57893 218.696 6.3149 218.696 8.125V56.875C218.696 58.6851 217.975 60.4211 216.692 61.701C215.408 62.9809 213.667 63.7 211.852 63.7H8.14815C6.33289 63.7 4.59198 62.9809 3.3084 61.701C2.02481 60.4211 1.3037 58.6851 1.3037 56.875V8.125C1.3037 6.3149 2.02481 4.57893 3.3084 3.299C4.59198 2.01906 6.33289 1.3 8.14815 1.3H211.852ZM211.852 0H8.14815C5.98712 0 3.91461 0.856024 2.38654 2.37976C0.858463 3.90349 0 5.97012 0 8.125L0 56.875C0 59.0299 0.858463 61.0965 2.38654 62.6202C3.91461 64.144 5.98712 65 8.14815 65H211.852C214.013 65 216.085 64.144 217.613 62.6202C219.142 61.0965 220 59.0299 220 56.875V8.125C220 5.97012 219.142 3.90349 217.613 2.37976C216.085 0.856024 214.013 0 211.852 0V0Z" fill="#A7A6A6"></path><path d="M77.2773 16.6401C77.3042 17.236 77.2098 17.8312 76.9999 18.3897C76.79 18.9482 76.4688 19.4586 76.0558 19.8901C75.5929 20.3668 75.0342 20.7405 74.4164 20.9869C73.7986 21.2334 73.1355 21.3469 72.4706 21.3201C71.8012 21.3266 71.1371 21.1998 70.5173 20.9473C69.8975 20.6948 69.3345 20.3216 68.8611 19.8495C68.3876 19.3774 68.0134 18.8159 67.7601 18.1979C67.5069 17.5799 67.3798 16.9177 67.3862 16.2501C67.3685 15.5754 67.4914 14.9044 67.7473 14.2795C68.0032 13.6546 68.3864 13.0895 68.8727 12.62C69.5988 11.9128 70.5183 11.4352 71.5157 11.2474C72.5131 11.0596 73.5439 11.1699 74.4786 11.5645C75.0663 11.8056 75.5905 12.1784 76.0105 12.654L75.1475 13.5145C74.8239 13.1258 74.4138 12.8176 73.9499 12.6145C73.4859 12.4114 72.9809 12.319 72.4749 12.3445C71.9659 12.3421 71.4617 12.4422 70.9925 12.6388C70.5232 12.8354 70.0987 13.1245 69.7442 13.4887C69.3897 13.8528 69.1125 14.2846 68.9294 14.7582C68.7463 15.2317 68.661 15.7373 68.6786 16.2445C68.666 17.0047 68.8802 17.7516 69.294 18.3902C69.7078 19.0289 70.3025 19.5306 71.0027 19.8317C71.7028 20.1328 72.4769 20.2197 73.2267 20.0814C73.9765 19.9432 74.6682 19.5859 75.2141 19.055C75.7109 18.5119 75.9995 17.8113 76.0289 17.0768H72.4692V15.9068H77.2107C77.2478 16.1497 77.27 16.3946 77.2773 16.6401Z" fill="white" stroke="white" stroke-width="0.2" stroke-miterlimit="10"></path><path d="M84.7387 12.5789H80.3458V15.6664H84.3547V16.8364H80.3387V19.9239H84.7316V21.1264H79.0634V11.3764H84.7316L84.7387 12.5789Z" fill="white" stroke="white" stroke-width="0.2" stroke-miterlimit="10"></path><path d="M90.0829 21.1264H88.8274V12.5789H86.0911V11.3764H92.893V12.5789H90.0829V21.1264Z" fill="white" stroke="white" stroke-width="0.2" stroke-miterlimit="10"></path><path d="M97.6832 21.1264V11.3764H98.9373V21.1264H97.6832Z" fill="white" stroke="white" stroke-width="0.2" stroke-miterlimit="10"></path><path d="M104.513 21.1264H103.259V12.5789H100.517V11.3764H107.231V12.5789H104.513V21.1264Z" fill="white" stroke="white" stroke-width="0.2" stroke-miterlimit="10"></path><path d="M119.953 19.8563C119.482 20.3261 118.923 20.6988 118.308 20.9531C117.693 21.2074 117.033 21.3383 116.368 21.3383C115.702 21.3383 115.042 21.2074 114.427 20.9531C113.812 20.6988 113.253 20.3261 112.782 19.8563C112.309 19.3847 111.938 18.8212 111.691 18.2006C111.445 17.5801 111.329 16.9158 111.351 16.2488C111.33 15.5816 111.446 14.9172 111.693 14.2966C111.939 13.6761 112.311 13.1127 112.785 12.6413C113.246 12.1582 113.803 11.7769 114.42 11.522C115.038 11.2671 115.702 11.1444 116.37 11.1618C117.037 11.1518 117.699 11.2779 118.315 11.5323C118.931 11.7867 119.488 12.1641 119.953 12.6413C120.421 13.1166 120.79 13.6807 121.036 14.3003C121.282 14.9199 121.401 15.5825 121.387 16.2488C121.408 16.916 121.292 17.5804 121.045 18.201C120.799 18.8215 120.427 19.3849 119.953 19.8563ZM113.718 19.0438C114.065 19.3945 114.478 19.673 114.934 19.863C115.39 20.0531 115.88 20.151 116.374 20.151C116.868 20.151 117.357 20.0531 117.813 19.863C118.269 19.673 118.683 19.3945 119.03 19.0438C119.391 18.6749 119.674 18.2373 119.861 17.7571C120.049 17.2769 120.137 16.7639 120.121 16.2488C120.128 15.7288 120.029 15.2129 119.829 14.7324C119.63 14.2519 119.334 13.8169 118.961 13.4538C118.614 13.1031 118.2 12.8246 117.744 12.6346C117.288 12.4445 116.799 12.3466 116.304 12.3466C115.81 12.3466 115.321 12.4445 114.865 12.6346C114.409 12.8246 113.995 13.1031 113.648 13.4538C113.299 13.828 113.028 14.268 112.852 14.748C112.676 15.228 112.598 15.7382 112.622 16.2488C112.607 16.7642 112.696 17.2773 112.884 17.7576C113.073 18.2378 113.356 18.6753 113.718 19.0438Z" fill="white" stroke="white" stroke-width="0.2" stroke-miterlimit="10"></path><path d="M123.165 21.1264V11.3764H124.682L129.44 18.9644V11.3764H130.694V21.1264H129.39L124.419 13.1794V21.1264H123.165Z" fill="white" stroke="white" stroke-width="0.2" stroke-miterlimit="10"></path><path d="M111.041 35.3414C109.668 35.3442 108.326 35.7531 107.186 36.5164C106.045 37.2796 105.157 38.363 104.635 39.6294C104.112 40.8958 103.977 42.2884 104.248 43.631C104.519 44.9737 105.183 46.206 106.157 47.1723C107.13 48.1385 108.369 48.7952 109.716 49.0593C111.064 49.3234 112.46 49.183 113.728 48.656C114.995 48.1289 116.078 47.2388 116.838 46.0983C117.598 44.9577 118.002 43.6179 117.999 42.2484C118.012 41.3351 117.841 40.4284 117.496 39.5824C117.15 38.7364 116.638 37.9683 115.989 37.3239C115.34 36.6794 114.567 36.1718 113.717 35.8312C112.867 35.4907 111.957 35.3241 111.041 35.3414ZM111.041 46.4409C110.2 46.4996 109.36 46.3045 108.631 45.8809C107.902 45.4573 107.318 44.8249 106.954 44.0659C106.59 43.3068 106.464 42.4562 106.592 41.6246C106.719 40.7931 107.095 40.019 107.669 39.4031C108.244 38.7871 108.991 38.3578 109.814 38.1709C110.636 37.984 111.496 38.0482 112.282 38.355C113.067 38.6619 113.742 39.1973 114.218 39.8917C114.694 40.586 114.95 41.4072 114.952 42.2484C114.979 42.7814 114.898 43.3143 114.714 43.8156C114.53 44.3169 114.248 44.7764 113.884 45.1672C113.519 45.5579 113.08 45.8719 112.592 46.0907C112.103 46.3094 111.576 46.4285 111.041 46.4409ZM95.8531 35.3414C94.4797 35.3445 93.1381 35.7536 91.9979 36.5171C90.8577 37.2805 89.9701 38.3639 89.4475 39.6304C88.9248 40.8968 88.7905 42.2894 89.0616 43.6319C89.3327 44.9744 89.9969 46.2067 90.9703 47.1728C91.9437 48.1389 93.1826 48.7954 94.5302 49.0594C95.8778 49.3234 97.2737 49.1829 98.5412 48.6558C99.8088 48.1287 100.891 47.2386 101.651 46.0981C102.412 44.9576 102.816 43.6179 102.812 42.2484C102.826 41.335 102.654 40.4282 102.309 39.5821C101.964 38.7359 101.451 37.9678 100.802 37.3233C100.152 36.6789 99.3795 36.1713 98.5293 35.8308C97.6792 35.4903 96.769 35.3239 95.8531 35.3414ZM95.8531 46.4409C95.0115 46.4996 94.1717 46.3045 93.4428 45.8809C92.7139 45.4573 92.1296 44.8249 91.766 44.0659C91.4023 43.3068 91.2761 42.4562 91.4036 41.6246C91.5312 40.7931 91.9067 40.019 92.4813 39.4031C93.0559 38.7871 93.803 38.3578 94.6256 38.1709C95.4481 37.984 96.308 38.0482 97.0935 38.355C97.879 38.6619 98.5537 39.1973 99.03 39.8917C99.5063 40.586 99.7621 41.4072 99.7642 42.2484C99.7904 42.7814 99.7094 43.3143 99.5258 43.8156C99.3422 44.3169 99.0599 44.7764 98.6954 45.1672C98.3308 45.5579 97.8916 45.8719 97.4034 46.0907C96.9152 46.3094 96.3881 46.4285 95.8531 46.4409ZM77.7968 37.4695V40.3945H84.8368C84.7266 41.7724 84.1523 43.0727 83.2071 44.0839C82.5009 44.8014 81.6516 45.363 80.714 45.7325C79.7764 46.102 78.7714 46.2711 77.7642 46.2289C75.6896 46.2289 73.7 45.4072 72.233 43.9444C70.7661 42.4816 69.9419 40.4976 69.9419 38.4289C69.9419 36.3603 70.7661 34.3763 72.233 32.9135C73.7 31.4507 75.6896 30.6289 77.7642 30.6289C79.7521 30.5977 81.6725 31.3486 83.1093 32.7188L85.1797 30.6544C84.2085 29.6965 83.0554 28.9416 81.7879 28.4337C80.5204 27.9259 79.164 27.6754 77.7982 27.6969C76.3552 27.6502 74.9176 27.8932 73.5707 28.4116C72.2239 28.93 70.9953 29.7131 69.958 30.7145C68.9207 31.7158 68.0959 32.9148 67.5326 34.2403C66.9693 35.5658 66.6791 36.9907 66.6791 38.4304C66.6791 39.87 66.9693 41.2949 67.5326 42.6204C68.0959 43.9459 68.9207 45.1449 69.958 46.1463C70.9953 47.1476 72.2239 47.9307 73.5707 48.4491C74.9176 48.9675 76.3552 49.2105 77.7982 49.1638C79.1919 49.219 80.5816 48.9796 81.8759 48.4614C83.1703 47.9432 84.3402 47.1578 85.3086 46.1569C87.0198 44.2825 87.9316 41.8173 87.8509 39.2838C87.8583 38.6742 87.8109 38.065 87.7092 37.4638L77.7968 37.4695ZM151.636 39.7445C151.135 38.2761 150.115 37.0399 148.766 36.2666C147.418 35.4933 145.833 35.2359 144.308 35.5424C142.784 35.8489 141.423 36.6983 140.48 37.9321C139.537 39.1659 139.077 40.6997 139.186 42.247C139.171 43.7307 139.638 45.1793 140.518 46.3762C141.397 47.5732 142.641 48.4542 144.064 48.8877C145.487 49.3211 147.013 49.2838 148.413 48.7811C149.813 48.2785 151.012 47.3375 151.832 46.0989L149.468 44.4739C149.116 45.0585 148.617 45.5413 148.021 45.8746C147.424 46.208 146.751 46.3803 146.067 46.3745C145.361 46.4035 144.662 46.2189 144.063 45.845C143.464 45.471 142.992 44.9251 142.71 44.2789L151.983 40.4637L151.636 39.7445ZM142.184 42.052C142.151 41.5472 142.219 41.0409 142.385 40.5628C142.55 40.0847 142.81 39.6442 143.148 39.2674C143.487 38.8905 143.897 38.5847 144.355 38.368C144.814 38.1512 145.311 38.0278 145.818 38.005C146.343 37.973 146.866 38.0963 147.321 38.3595C147.776 38.6227 148.144 39.014 148.377 39.4845L142.184 42.052ZM134.655 48.747H137.702V28.4345H134.655V48.747ZM129.669 36.8774H129.554C129.091 36.3751 128.526 35.9773 127.896 35.7109C127.267 35.4445 126.587 35.3157 125.903 35.333C124.129 35.4277 122.458 36.1974 121.235 37.4836C120.012 38.7699 119.331 40.4747 119.331 42.247C119.331 44.0193 120.012 45.7241 121.235 47.0103C122.458 48.2966 124.129 49.0663 125.903 49.161C126.594 49.1748 127.28 49.0363 127.911 48.7554C128.542 48.4745 129.103 48.0581 129.554 47.536H129.669V48.5251C129.669 51.1732 128.252 52.5876 125.97 52.5876C125.208 52.5711 124.468 52.3291 123.844 51.8924C123.22 51.4556 122.74 50.8438 122.466 50.1346L119.826 51.2226C120.313 52.4457 121.162 53.4923 122.259 54.224C123.356 54.9557 124.65 55.3381 125.97 55.3205C129.54 55.3205 132.489 53.2249 132.489 48.1224V35.747H129.669V36.8774ZM126.161 46.4395C125.093 46.3745 124.089 45.9053 123.355 45.1277C122.621 44.35 122.213 43.3225 122.213 42.2548C122.213 41.187 122.621 40.1595 123.355 39.3818C124.089 38.6042 125.093 38.135 126.161 38.07C126.683 38.0924 127.195 38.2192 127.667 38.4431C128.139 38.6669 128.561 38.9831 128.907 39.3728C129.254 39.7625 129.519 40.2178 129.685 40.7116C129.852 41.2054 129.917 41.7276 129.877 42.247C129.921 42.7681 129.859 43.2928 129.695 43.7894C129.53 44.2859 129.266 44.744 128.919 45.1359C128.571 45.5278 128.148 45.8454 127.674 46.0694C127.2 46.2935 126.685 46.4194 126.161 46.4395ZM165.909 28.4345H158.612V48.747H161.659V41.0445H165.91C166.778 41.1053 167.649 40.9873 168.469 40.698C169.289 40.4087 170.04 39.9542 170.676 39.3628C171.313 38.7713 171.82 38.0557 172.167 37.2603C172.514 36.4649 172.693 35.6068 172.693 34.7395C172.693 33.8721 172.514 33.0141 172.167 32.2187C171.82 31.4233 171.313 30.7076 170.676 30.1162C170.04 29.5248 169.289 29.0703 168.469 28.781C167.649 28.4916 166.778 28.3737 165.91 28.4345H165.909ZM165.909 38.1845H161.657V31.2606H165.981C166.906 31.2606 167.793 31.627 168.447 32.2791C169.101 32.9313 169.468 33.8158 169.468 34.7381C169.468 35.6604 169.101 36.5449 168.447 37.197C167.793 37.8492 166.906 38.2156 165.981 38.2156L165.909 38.1845ZM184.715 35.275C183.604 35.207 182.498 35.4653 181.533 36.0178C180.569 36.5704 179.788 37.393 179.287 38.3837L181.98 39.5057C182.251 39.0175 182.659 38.6181 183.153 38.3558C183.648 38.0936 184.208 37.9796 184.766 38.0276C185.153 37.9826 185.545 38.0148 185.919 38.1225C186.293 38.2301 186.642 38.4111 186.946 38.6547C187.249 38.8983 187.501 39.1997 187.686 39.5414C187.871 39.883 187.987 40.2581 188.025 40.6446V40.8396C187.045 40.3261 185.955 40.0583 184.848 40.0596C181.947 40.0596 178.981 41.6846 178.981 44.6421C179.01 45.2706 179.165 45.8868 179.438 46.4543C179.71 47.0218 180.094 47.529 180.566 47.9458C181.039 48.3625 181.591 48.6803 182.189 48.8803C182.787 49.0803 183.42 49.1585 184.049 49.1101C184.813 49.1528 185.575 48.9921 186.256 48.6445C186.938 48.2969 187.515 47.7749 187.927 47.1319H188.025V48.7569H190.958V40.9314C190.958 37.372 188.253 35.3089 184.781 35.3089L184.715 35.275ZM184.341 46.4056C183.349 46.4056 181.961 45.9025 181.961 44.6831C181.961 43.0581 183.689 42.5056 185.221 42.5056C186.189 42.4818 187.145 42.7175 187.991 43.1881C187.888 44.0704 187.469 44.8859 186.809 45.4834C186.15 46.0809 185.296 46.4201 184.406 46.4381L184.341 46.4056ZM201.647 35.7456L198.16 44.5531H198.062L194.444 35.7456H191.185L196.611 48.0631L193.517 54.9036H196.777L205.038 35.7442L201.647 35.7456ZM174.269 48.7456H177.301V28.4345H174.271L174.269 48.7456Z" fill="white"></path><path d="M17.0121 12.2691C16.7397 12.5934 16.5356 12.9692 16.412 13.3738C16.2883 13.7785 16.2476 14.2039 16.2922 14.6246V50.5371C16.2366 51.3664 16.5116 52.184 17.0574 52.8121L17.1722 52.9251L37.2946 32.7426V32.2551L17.1255 12.1546L17.0121 12.2691Z" fill="#5BC9F4"></path><path d="M44.0011 39.4385L37.287 32.7435V32.256L44.0011 25.561H44.164L52.1492 30.1604C54.4165 31.4449 54.4165 33.5517 52.1492 34.8404L44.1796 39.3622L44.0011 39.4385Z" fill="url(#paint0_linear_7064_36782)"></path><path d="M44.1784 39.3575L37.2999 32.5L17.0117 52.732C17.4726 53.1412 18.0634 53.3754 18.6802 53.3932C19.2971 53.411 19.9005 53.2114 20.3843 52.8295L44.1769 39.3575" fill="url(#paint1_linear_7064_36782)"></path><path d="M44.1808 25.6411L20.3883 12.1692C19.9044 11.7872 19.301 11.5876 18.6841 11.6054C18.0673 11.6232 17.4765 11.8574 17.0156 12.2667L37.3024 32.4986L44.1808 25.6411Z" fill="url(#paint2_linear_7064_36782)"></path><defs><linearGradient id="paint0_linear_7064_36782" x1="50.6697" y1="32.4997" x2="11.267" y2="32.4997" gradientUnits="userSpaceOnUse"><stop stop-color="#FEE000"></stop><stop offset="0.42" stop-color="#FBBC0E"></stop><stop offset="0.78" stop-color="#FAA418"></stop><stop offset="1" stop-color="#F99B1C"></stop></linearGradient><linearGradient id="paint1_linear_7064_36782" x1="40.4294" y1="36.2192" x2="14.5949" y2="79.8145" gradientUnits="userSpaceOnUse"><stop stop-color="#EF4547"></stop><stop offset="1" stop-color="#C6186D"></stop></linearGradient><linearGradient id="paint2_linear_7064_36782" x1="3.21569" y1="-8.32886" x2="24.3405" y2="27.2473" gradientUnits="userSpaceOnUse"><stop stop-color="#279E6F"></stop><stop offset="0.04" stop-color="#2BA06F"></stop><stop offset="0.46" stop-color="#53B26C"></stop><stop offset="0.8" stop-color="#6BBD6A"></stop><stop offset="1" stop-color="#74C169"></stop></linearGradient></defs></svg> 