<?xml version="1.0" encoding="UTF-8"?> <svg xmlns="http://www.w3.org/2000/svg" width="220" height="65" viewBox="0 0 220 65" fill="none"><rect x="1" width="218" height="65" rx="7" fill="black"></rect><path d="M74.6939 40.9776L71.1108 31.2966L67.5444 40.9776H74.6939ZM62.2031 48.1605L69.6308 28.6983H72.6075L80.0352 48.1605H77.2922L75.5174 43.1642H66.7543L64.9795 48.1605H62.2031ZM85.0816 45.9739V53.7132H82.6836V33.561H85.0816V35.7643C85.5879 34.8964 86.2222 34.2565 86.99 33.8392C87.7689 33.4108 88.6869 33.1994 89.7496 33.1994C91.5245 33.1994 92.9655 33.906 94.0727 35.3192C95.191 36.7213 95.7474 38.574 95.7474 40.8775C95.7474 43.1698 95.191 45.017 94.0727 46.4357C92.9655 47.8378 91.5245 48.5389 89.7496 48.5389C88.6869 48.5389 87.7689 48.333 86.99 47.9157C86.2222 47.4873 85.5879 46.8363 85.0816 45.9739ZM93.2493 40.8775C93.2493 39.1137 92.8821 37.7283 92.1476 36.7213C91.4355 35.7142 90.4451 35.2079 89.171 35.2079C87.9024 35.2079 86.8954 35.7142 86.1609 36.7213C85.4377 37.7283 85.076 39.1137 85.076 40.8775C85.076 42.6412 85.4377 44.0266 86.1609 45.0336C86.8954 46.0296 87.8969 46.5303 89.171 46.5303C90.4395 46.5303 91.4355 46.0296 92.1476 45.0336C92.8821 44.0266 93.2493 42.6412 93.2493 40.8775ZM102.046 45.9739V53.7132H99.631V33.561H102.046V35.7643C102.552 34.8964 103.181 34.2565 103.937 33.8392C104.716 33.4108 105.64 33.1994 106.714 33.1994C108.477 33.1994 109.913 33.906 111.02 35.3192C112.138 36.7213 112.695 38.574 112.695 40.8775C112.695 43.1698 112.138 45.017 111.02 46.4357C109.913 47.8378 108.477 48.5389 106.714 48.5389C105.64 48.5389 104.716 48.333 103.937 47.9157C103.181 47.4873 102.546 46.8363 102.046 45.9739ZM110.197 40.8775C110.197 39.1137 109.829 37.7283 109.095 36.7213C108.383 35.7142 107.392 35.2079 106.118 35.2079C104.85 35.2079 103.843 35.7142 103.108 36.7213C102.396 37.7283 102.04 39.1137 102.04 40.8775C102.04 42.6412 102.396 44.0266 103.108 45.0336C103.843 46.0296 104.844 46.5303 106.118 46.5303C107.387 46.5303 108.383 46.0296 109.095 45.0336C109.829 44.0266 110.197 42.6412 110.197 40.8775ZM129.954 45.3842V40.1597H125.664V37.9898H132.569V46.3578C131.551 47.0811 130.427 47.6264 129.197 47.9992C127.979 48.3608 126.677 48.5389 125.286 48.5389C122.237 48.5389 119.855 47.6486 118.136 45.8738C116.428 44.0989 115.571 41.623 115.571 38.4461C115.571 35.2691 116.428 32.7932 118.136 31.0184C119.855 29.2324 122.242 28.3366 125.286 28.3366C126.554 28.3366 127.756 28.498 128.886 28.8151C130.037 29.1211 131.094 29.5829 132.057 30.1949V33.0047C131.083 32.1701 130.048 31.5469 128.952 31.1296C127.856 30.7124 126.705 30.5065 125.503 30.5065C123.127 30.5065 121.335 31.1686 120.128 32.4928C118.943 33.8281 118.353 35.8144 118.353 38.4405C118.353 41.0666 118.943 43.0474 120.128 44.3715C121.335 45.6957 123.127 46.3578 125.503 46.3578C126.432 46.3578 127.266 46.2799 128.001 46.1297C128.724 45.9739 129.375 45.7236 129.954 45.3842ZM146.211 40.8107H143.83C141.888 40.8107 140.547 41.0332 139.802 41.4839C139.056 41.9235 138.683 42.6801 138.683 43.754C138.683 44.6108 138.962 45.2896 139.524 45.7903C140.08 46.2855 140.842 46.5303 141.81 46.5303C143.146 46.5303 144.214 46.0574 145.015 45.1171C145.816 44.1768 146.217 42.9194 146.217 41.3504V40.8107H146.211ZM148.609 39.8259V48.1605H146.211V45.9405C145.666 46.8308 144.982 47.4873 144.175 47.9157C143.352 48.333 142.35 48.5389 141.165 48.5389C139.674 48.5389 138.483 48.1216 137.599 47.287C136.719 46.4413 136.285 45.3118 136.285 43.8986C136.285 42.2684 136.831 41.0277 137.927 40.182C139.034 39.3474 140.675 38.9301 142.856 38.9301H146.211V38.702C146.211 37.5948 145.85 36.738 145.126 36.1371C144.403 35.5362 143.385 35.2357 142.072 35.2357C141.237 35.2357 140.43 35.3359 139.64 35.5306C138.85 35.7254 138.088 36.0314 137.354 36.432V34.212C138.233 33.8726 139.084 33.6222 139.919 33.4553C140.742 33.2773 141.538 33.1938 142.317 33.1938C144.431 33.1938 146.011 33.7391 147.051 34.8352C148.092 35.9424 148.609 37.6004 148.609 39.8259ZM153.556 48.1605V27.8804H155.954V48.1605H153.556ZM160.972 48.1605V27.8804H163.37V48.1605H160.972ZM180.807 40.2543V41.4394H169.78C169.88 43.0807 170.369 44.3437 171.26 45.2172C172.155 46.0741 173.402 46.4969 174.993 46.4969C175.911 46.4969 176.801 46.3856 177.658 46.1687C178.537 45.9405 179.394 45.6012 180.24 45.1505V47.4205C179.383 47.7822 178.504 48.0604 177.591 48.2607C176.695 48.4443 175.777 48.5389 174.848 48.5389C172.523 48.5389 170.681 47.8601 169.307 46.5025C167.949 45.156 167.27 43.3255 167.27 41.011C167.27 38.613 167.916 36.7157 169.212 35.3248C170.503 33.9116 172.25 33.205 174.437 33.205C176.401 33.205 177.947 33.8392 179.088 35.1133C180.234 36.3708 180.807 38.0844 180.807 40.2543ZM169.846 39.5644H178.409C178.387 38.2513 178.014 37.1998 177.291 36.4097C176.579 35.6308 175.633 35.2413 174.448 35.2413C173.112 35.2413 172.039 35.6197 171.226 36.3763C170.425 37.133 169.969 38.1957 169.846 39.5644ZM193.103 33.3329L193.12 35.7977C192.847 35.6419 192.552 35.5306 192.23 35.4527C191.907 35.3748 191.568 35.3359 191.195 35.3359C189.837 35.3359 188.791 35.781 188.057 36.6657C187.334 37.5447 186.972 38.8077 186.972 40.4602V48.1549H184.574V33.561H186.972V35.8311C187.478 34.9409 188.135 34.2843 188.947 33.8559C189.759 33.4164 190.739 33.1994 191.89 33.1994C192.057 33.1994 192.241 33.2161 192.447 33.2495C192.641 33.2606 192.864 33.2884 193.103 33.3329ZM208.126 33.561L201.716 49.507C201.037 51.2484 200.375 52.389 199.73 52.9231C199.084 53.4517 198.222 53.7132 197.148 53.7132H195.223V51.7102H196.636C197.293 51.7102 197.81 51.5489 198.183 51.2317C198.545 50.9257 198.945 50.1857 199.385 49.0118L199.83 47.9268L193.91 33.561H196.458L201.026 44.9669L205.577 33.561H208.126Z" fill="white"></path><path d="M62.0547 21.8599V11.8172H68.3974V12.9522H63.4011V15.9289H68.186V17.0806H63.4011V20.7138H68.531V21.8655H62.0547V21.8599ZM73.3993 16.5019L70.278 11.8172H71.7413L74.2395 15.5505L76.7376 11.8172H78.2009L74.9794 16.6355L78.4123 21.8599H76.949L74.1393 17.5869L71.2795 21.8599H69.8162L73.3993 16.5019ZM83.2584 12.9355H81.5503V16.7022H83.2584C83.8927 16.7022 84.3879 16.5409 84.7384 16.2238C85.0778 15.8955 85.2503 15.4226 85.2503 14.8105C85.2503 14.2208 85.0778 13.759 84.7384 13.4307C84.3879 13.1024 83.8927 12.9355 83.2584 12.9355ZM80.2039 21.8599V11.8172H83.2584C84.3879 11.8172 85.2391 12.0676 85.8233 12.5739C86.3909 13.0913 86.6802 13.8313 86.6802 14.8105C86.6802 15.8065 86.3964 16.5576 85.8233 17.0639C85.2447 17.5702 84.3879 17.8206 83.2584 17.8206H81.5503V21.8655H80.2039V21.8599ZM88.5051 21.8599V11.8172H89.8682V20.7082H94.7644V21.8599H88.5051ZM99.7774 12.7408C98.7926 12.7408 98.0025 13.108 97.4128 13.8424C96.8453 14.5769 96.5559 15.5784 96.5559 16.8525C96.5559 18.1099 96.8397 19.1169 97.4128 19.8625C98.0025 20.5969 98.7926 20.9641 99.7774 20.9641C100.762 20.9641 101.541 20.5969 102.109 19.8625C102.687 19.1169 102.982 18.1155 102.982 16.8525C102.982 15.5839 102.693 14.5769 102.109 13.8424C101.541 13.1024 100.762 12.7408 99.7774 12.7408ZM99.7774 11.6392C101.179 11.6392 102.303 12.1121 103.149 13.0524C103.995 13.9927 104.412 15.2612 104.412 16.8469C104.412 18.4382 103.989 19.7011 103.149 20.6414C102.303 21.5817 101.179 22.0546 99.7774 22.0546C98.3642 22.0546 97.2292 21.5817 96.3723 20.6414C95.5266 19.7011 95.1094 18.4326 95.1094 16.8469C95.1094 15.2556 95.5322 13.9927 96.3723 13.0524C97.2292 12.1065 98.3642 11.6392 99.7774 11.6392ZM111.3 17.1418C111.595 17.2419 111.879 17.4534 112.157 17.7816C112.43 18.0988 112.708 18.5439 112.997 19.1114L114.377 21.8543H112.914L111.634 19.2727C111.295 18.6051 110.972 18.16 110.666 17.943C110.349 17.726 109.92 17.6147 109.386 17.6147H107.906V21.8543H106.543V11.8172H109.614C110.766 11.8172 111.623 12.0565 112.196 12.5405C112.752 13.0134 113.036 13.7367 113.036 14.7104C113.036 15.3447 112.886 15.8732 112.591 16.2905C112.285 16.7022 111.862 16.9916 111.3 17.1418ZM109.609 12.9355H107.901V16.5019H109.609C110.265 16.5019 110.76 16.3462 111.089 16.0401C111.428 15.7341 111.601 15.289 111.601 14.7104C111.601 14.1206 111.428 13.6755 111.089 13.3806C110.76 13.0858 110.265 12.9355 109.609 12.9355ZM116.118 21.8599V11.8172H122.461V12.9522H117.481V15.9289H122.266V17.0806H117.481V20.7138H122.595V21.8655H116.118V21.8599ZM129.199 21.8599V11.8172H130.562V21.8599H129.199ZM131.881 12.9522V11.8172H140.377V12.9522H136.81V21.8599H135.447V12.9522H131.881ZM150.141 12.7408C149.156 12.7408 148.372 13.108 147.793 13.8424C147.215 14.5769 146.92 15.5784 146.92 16.8525C146.92 18.1099 147.209 19.1169 147.793 19.8625C148.372 20.5969 149.156 20.9641 150.141 20.9641C151.126 20.9641 151.91 20.5969 152.489 19.8625C153.057 19.1169 153.346 18.1155 153.346 16.8525C153.346 15.5839 153.062 14.5769 152.489 13.8424C151.91 13.1024 151.126 12.7408 150.141 12.7408ZM150.141 11.6392C151.554 11.6392 152.684 12.1121 153.53 13.0524C154.375 13.9927 154.792 15.2612 154.792 16.8469C154.792 18.4382 154.37 19.7011 153.53 20.6414C152.689 21.5817 151.554 22.0546 150.141 22.0546C148.728 22.0546 147.598 21.5817 146.753 20.6414C145.907 19.7011 145.49 18.4326 145.49 16.8469C145.49 15.2556 145.913 13.9927 146.753 13.0524C147.598 12.1065 148.728 11.6392 150.141 11.6392ZM156.912 21.8599V11.8172H158.737L163.194 20.2186V11.8172H164.524V21.8599H162.682L158.225 13.4585V21.8599H156.912Z" fill="white"></path><path d="M44.8618 11.8496H26.9797C18.5449 11.8496 15.457 14.9208 15.457 23.3556V41.2377C15.457 49.6725 18.5449 52.7604 26.9797 52.7604H44.8618C53.2799 52.7604 56.3678 49.6725 56.3678 41.2377V23.3556C56.3678 14.9208 53.2966 11.8496 44.8618 11.8496Z" fill="#E23650"></path><path fill-rule="evenodd" clip-rule="evenodd" d="M32.9132 36.5382L32.418 37.6398H31.3163L33.6643 32.2986H34.6157L36.9636 37.6398H35.8286L35.3501 36.5382H32.9132ZM33.3026 35.5701H34.944L34.1205 33.6617L33.3026 35.5701ZM50.7285 32.2986H51.8135V37.6398H50.7285V32.2986ZM46.4722 36.6717H49.4488V37.6398H45.4039V32.2986H49.332V33.2834H46.4722V34.3683H48.4474V35.3531H46.4722V36.6717ZM43.3954 32.2986H44.5304L42.6721 37.6565H41.7541L40.5356 34.1402L39.3171 37.6565H38.4269L36.5519 32.2986H37.7203L38.9054 35.9818L40.1072 32.2986H40.9974L42.2159 35.9818L43.3954 32.2986ZM29.675 32.2986H30.76V35.3253C30.76 36.8553 29.9198 37.74 28.4399 37.74C26.9933 37.74 26.1531 36.8665 26.1531 35.3587V32.3041H27.2381V35.3309C27.2381 36.2322 27.6665 36.7107 28.4565 36.7107C29.2466 36.7107 29.675 36.2322 29.675 35.3642V32.2986ZM23.5604 32.2986H24.6453V37.6565H23.5604V35.4699H21.1123V37.6565H20.0273V32.2986H21.1123V34.4518H23.5604V32.2986ZM35.9176 25.494C32.1509 25.494 29.1131 22.4395 29.1131 18.6895H30.0645C30.0645 21.9109 32.6962 24.5259 35.9176 24.5259C39.1391 24.5259 41.7708 21.9109 41.7708 18.6895H42.7222C42.7222 22.4339 39.6676 25.494 35.9176 25.494Z" fill="white"></path><path d="M211.852 1.3C213.667 1.3 215.408 2.01906 216.692 3.299C217.975 4.57893 218.696 6.3149 218.696 8.125V56.875C218.696 58.6851 217.975 60.4211 216.692 61.701C215.408 62.9809 213.667 63.7 211.852 63.7H8.14815C6.33289 63.7 4.59198 62.9809 3.3084 61.701C2.02481 60.4211 1.3037 58.6851 1.3037 56.875V8.125C1.3037 6.3149 2.02481 4.57893 3.3084 3.299C4.59198 2.01906 6.33289 1.3 8.14815 1.3H211.852ZM211.852 0H8.14815C5.98712 0 3.91461 0.856024 2.38654 2.37976C0.858463 3.90349 0 5.97012 0 8.125L0 56.875C0 59.0299 0.858463 61.0965 2.38654 62.6202C3.91461 64.144 5.98712 65 8.14815 65H211.852C214.013 65 216.085 64.144 217.613 62.6202C219.142 61.0965 220 59.0299 220 56.875V8.125C220 5.97012 219.142 3.90349 217.613 2.37976C216.085 0.856024 214.013 0 211.852 0Z" fill="#A7A6A6"></path></svg> 