<svg xmlns="http://www.w3.org/2000/svg" width="36" height="36" viewBox="0 0 36 36">
    <g fill="none" fill-rule="evenodd">
        <g>
            <g>
                <g>
                    <path d="M0 0H36V36H0z" transform="translate(-787 -3211) translate(763 3211) translate(24)"/>
                    <g transform="translate(-787 -3211) translate(763 3211) translate(24) translate(0 1)">
                        <circle cx="17.654" cy="19.128" r="8.253" fill="#0C0C0D" fill-rule="nonzero"/>
                        <path fill="#FFF" fill-rule="nonzero" d="M16.5 24.5c-.457 0-.628-.015-1.085-.106L15 22.901c.543.15.929.211 1.343.211 1.514 0 2.585-.905 2.585-2.202 0-.966-.628-1.6-1.557-1.6-.585 0-1.17.12-2.085.423L15.743 14h4.871l-.286 1.72h-2.8l-.2 2.096c.3-.06.415-.075.672-.075 1.771 0 3 1.207 3 2.927 0 2.233-1.872 3.832-4.5 3.832z"/>
                        <path d="M6.33 18.713c.692-.258 1.406-.449 2.133-.57.074-.647.215-1.285.422-1.902-.931.441-2.595 1.868-2.554 2.472zM23.094 28.875c-.5-.415-.965-.87-1.392-1.359-.527.258-1.078.465-1.644.618.999.51 2.629 1.026 3.036.74zM23.536 9.51c-.125.72-.316 1.427-.57 2.112.52.36 1 .774 1.432 1.236.055-1.073-.34-3.104-.862-3.349z"/>
                        <ellipse cx="17.681" cy="4.116" fill="#678925" fill-rule="nonzero" rx="3.322" ry="4.116"/>
                        <path fill="#678925" fill-rule="nonzero" d="M22.965 11.608c.254-.68.445-1.383.57-2.099.524.259.918 2.29.863 3.35 1.512 1.6 2.4 3.69 2.507 5.888 1.087-1.664 4.272-13.177-5.339-16.03.516 5.651-3.335 6.29-3.783 6.303-.449.014-4.626-.523-4.076-6.201-6.317 1.379-6.847 7.193-6.663 9.326 1.37-.78 2.897-1.243 4.47-1.359.103-.47.32-.908.63-1.277 0 .503.035.788.042 1.203.305-.041 1.12-.123 2.18-.163 2.867-1.091 6.088-.69 8.6 1.073v-.014z"/>
                        <ellipse cx="30.71" cy="26.496" fill="#2F6FA8" fill-rule="nonzero" rx="3.322" ry="4.116" transform="rotate(-59.99 30.71 26.496)"/>
                        <path fill="#2F6FA8" fill-rule="nonzero" d="M26.389 24.113c.23-.407 2.764-3.742 7.397-.407 1.997-6.168-2.772-9.51-4.714-10.44.005 1.58-.348 3.14-1.033 4.564.351.329.619.736.781 1.189l-1.066-.564c-.116.279-.435.992-.91 1.902-.394 3.089-2.313 5.773-5.108 7.146.427.49.892.943 1.392 1.358-.434.285-2.037-.23-3.036-.754-2.14.576-4.417.369-6.419-.584 1.617 2.364 9.421 9.53 16.282 3.043-5.156-2.398-3.784-6.059-3.566-6.453z"/>
                        <path fill="#C1A840" fill-rule="nonzero" d="M8.15 24.412c-.923-1.59-3.26-1.95-5.23-.815-1.97 1.134-2.79 3.349-1.867 4.931.924 1.583 3.26 1.957 5.223.815 1.963-1.14 2.812-3.341 1.875-4.93z"/>
                        <path fill="#C1A840" fill-rule="nonzero" d="M8.402 19.189c0-.354 0-.68.061-1.046-.727.121-1.441.312-2.132.57-.041-.604 1.623-2.038 2.554-2.472.506-1.507 1.392-2.857 2.574-3.92.407-.43.863-.81 1.358-1.134-1.27-.32-13.795 2.527-11.336 12.587 4.625-3.281 7.111-.272 7.342.115.231.387 1.875 4.286-3.321 6.677 4.34 4.755 9.638 2.316 11.398 1.087-1.373-.784-2.55-1.868-3.444-3.172-.458.135-.941.165-1.413.088l1.019-.68c-.15-.196-.49-.678-.904-1.297-2.353-1.734-3.746-4.48-3.756-7.403z"/>
                    </g>
                </g>
            </g>
        </g>
    </g>
</svg>
