<svg xmlns="http://www.w3.org/2000/svg" width="120" height="30" viewBox="0 0 120 30">
    <g fill="#9EA0A4" fill-rule="evenodd">
        <path d="M104.813.133c2.352 0 4.58.544 6.563 1.509.312.146.623.308.934.486l-1.378 1.225-2.072-2.126-3.497 3.095-2.077-2.25L96.773 7.9l4.176 4.567-1.641 1.433 4.113 4.574-1.632 1.43 5.877 6.492 3.49-3.188 3.016 3.417c-.6.462-1.254.898-1.974 1.3-2.181 1.235-4.702 1.942-7.385 1.942-8.25 0-14.978-6.68-14.978-14.867 0-8.189 6.728-14.867 14.978-14.867"/>
        <path d="M102.084 14.061L105.645 10.877 108.853 14.413 105.291 17.595 102.084 14.061M104.616 20.169L108.178 16.986 111.386 20.522 107.824 23.705 104.616 20.169M99.535 8.023L103.097 4.841 106.303 8.376 102.741 11.559 99.535 8.023M106.071 6.31L108.743 3.923 111.148 6.575 108.476 8.962 106.071 6.31M110.818 17.245L113.49 14.857 115.895 17.509 113.224 19.896 110.818 17.245M113.168 22.6L115.839 20.212 118.244 22.864 115.573 25.251 113.168 22.6M114.244 10.326L116.025 8.734 117.628 10.502 115.848 12.093 114.244 10.326M111.968 5.074L113.749 3.483 115.353 5.25 113.572 6.841 111.968 5.074M116.521 15.578L118.302 13.986 119.905 15.753 118.124 17.345 116.521 15.578M108.534 11.642L111.205 9.254 113.61 11.906 110.939 14.293 108.534 11.642M7.085 12.437L6.965 12.437 4.709 20.902 2.864 20.902.095 8.875 2.009 8.875 3.923 17.849 4.043 17.849 6.264 8.875 7.785 8.875 10.161 17.849 10.281 17.849 12.024 8.875 14.024 8.875 11.254 20.902 9.409 20.902 7.085 12.437M21.597 19.036v1.289c-.77.441-1.794.78-3.025.78-2.871 0-4.05-1.764-4.05-4.444 0-2.578 1.316-4.444 3.88-4.444 2.135 0 3.451 1.374 3.451 4.139v.627h-5.57c0 2.035.836 2.935 2.597 2.935.923 0 1.777-.322 2.717-.882zm-5.28-3.189h3.912c-.084-1.781-.956-2.493-1.88-2.493-1.042 0-1.845.797-2.032 2.493zM25.185 12.845c.513-.272 1.384-.628 2.308-.628 2.118 0 3.264 1.459 3.264 4.174 0 3.171-1.538 4.715-4.016 4.715-.906 0-2.308-.289-3.333-.832V8.434l1.777-.424v4.835zm-.017 6.802c.547.237 1.145.27 1.573.27 1.264 0 2.221-.78 2.221-3.526 0-2.155-.786-2.85-1.93-2.85-.685 0-1.18.186-1.864.56v5.546zM38.533 18.357L38.619 18.357 42.276 8.875 44.395 8.875 44.395 20.902 42.55 20.902 42.55 12.183 42.396 12.183 38.909 20.902 37.816 20.902 34.329 12.387 34.175 12.387 34.175 20.902 32.637 20.902 32.637 8.875 34.705 8.875 38.533 18.357M46.275 16.66c0-2.968 1.64-4.443 3.897-4.443 2.256 0 3.897 1.475 3.897 4.444 0 2.9-1.556 4.445-3.897 4.445-2.342 0-3.897-1.544-3.897-4.445zm5.999 0c0-2.289-.94-3.255-2.102-3.255-1.128 0-2.103.966-2.103 3.256 0 2.325.89 3.257 2.103 3.257s2.102-.932 2.102-3.257zM55.692 13.472c.769-.458 2.393-1.255 4.357-1.255 2.052 0 2.82.797 2.82 2.544v6.141h-1.777v-5.75c0-1.34-.666-1.578-1.537-1.578-.684 0-1.556.306-2.085.61v6.718h-1.778v-7.43M71.534 19.036v1.289c-.769.441-1.794.78-3.025.78-2.87 0-4.05-1.764-4.05-4.444 0-2.578 1.317-4.444 3.88-4.444 2.137 0 3.453 1.374 3.453 4.139v.627H66.22c0 2.035.837 2.935 2.598 2.935.922 0 1.777-.322 2.716-.882zm-5.28-3.189h3.914c-.085-1.781-.958-2.493-1.88-2.493-1.043 0-1.846.797-2.034 2.493zM78.44 12.505h1.828l-3.093 8.482c-.855 2.34-1.898 3.562-3.862 3.562v-1.39c1.162 0 1.879-.917 2.29-2.172l-3.282-8.482h1.88l2.188 6.242h.102l1.949-6.242"/>
    </g>
</svg>
