<svg width="20" height="20" viewBox="0 0 20 20" fill="none" xmlns="http://www.w3.org/2000/svg">
<g clip-path="url(#clip0_18328_1092)">
<path d="M0 0H20V20H0V0Z" fill="#EE1C25"/>
<path d="M0 0H20V13.332H0V0Z" fill="#0B4EA2"/>
<path d="M0 0H20V6.66797H0V0Z" fill="white"/>
<path d="M7.9375 15.4492C6.14453 14.5898 3.58203 12.8711 3.58203 9.48047C3.58203 6.08984 3.74219 4.55078 3.74219 4.55078H12.1328C12.1328 4.55078 12.2969 6.08984 12.2969 9.48047C12.2969 12.8711 9.72656 14.5859 7.9375 15.4492Z" fill="white"/>
<path d="M7.9375 15C6.29297 14.207 3.94141 12.6367 3.94141 9.52344C3.94141 6.41016 4.08984 5 4.08984 5H11.7852C11.7852 5 11.9336 6.41406 11.9336 9.52344C11.9336 12.6328 9.58203 14.2109 7.9375 15Z" fill="#EE1C25"/>
<path d="M8.28906 8.71094C8.73438 8.71875 9.60547 8.73437 10.3789 8.47656C10.3789 8.47656 10.3555 8.75 10.3555 9.07422C10.3555 9.39844 10.3789 9.67188 10.3789 9.67188C9.69891 9.48454 8.99366 9.40545 8.28906 9.4375V11.1562H7.58594V9.4375C6.88134 9.40545 6.17609 9.48454 5.49609 9.67188C5.49609 9.67188 5.51953 9.39844 5.51953 9.07422C5.51953 8.75 5.49609 8.47656 5.49609 8.47656C6.27344 8.73437 7.14063 8.71875 7.58594 8.71094V7.62891C7.02569 7.61517 6.46713 7.69572 5.93359 7.86719C5.93359 7.86719 5.95312 7.59375 5.95312 7.26953C5.95312 6.94531 5.93359 6.66797 5.93359 6.66797C6.59766 6.89062 7.17969 6.91016 7.58203 6.90234C7.5625 6.22266 7.36328 5.36328 7.36328 5.36328C7.36328 5.36328 7.77344 5.39453 7.9375 5.39453C8.10156 5.39453 8.51172 5.36328 8.51172 5.36328C8.51172 5.36328 8.3125 6.22266 8.28906 6.90625C8.84917 6.92275 9.40798 6.84349 9.94141 6.67188C9.94141 6.67188 9.92188 6.94531 9.92188 7.26953C9.92188 7.59375 9.94141 7.86719 9.94141 7.86719C9.27734 7.64453 8.69531 7.62891 8.28906 7.63281V8.71094Z" fill="white"/>
<path d="M7.9375 10.9688C7.10938 10.9688 6.66406 12.1172 6.66406 12.1172C6.66406 12.1172 6.41797 11.5703 5.74219 11.5703C5.28516 11.5703 4.94922 11.9805 4.73438 12.3594C5.56641 13.6797 6.89453 14.4961 7.9375 15C8.98047 14.4961 10.3086 13.6797 11.1406 12.3555C10.9258 11.9805 10.5898 11.5742 10.1328 11.5742C9.45703 11.5742 9.21094 12.1211 9.21094 12.1211C9.21094 12.1211 8.76563 10.9688 7.9375 10.9688Z" fill="#0B4EA2"/>
</g>
<rect x="0.25" y="0.25" width="19.5" height="19.5" rx="9.75" stroke="#F2F1F3" stroke-width="0.5"/>
<defs>
<clipPath id="clip0_18328_1092">
<rect width="20" height="20" rx="10" fill="white"/>
</clipPath>
</defs>
</svg>
