<svg xmlns="http://www.w3.org/2000/svg" width="70" height="70" viewBox="0 0 70 70"><g fill="#D2B775"><path d="M24.8 29.7h.1c.5 0 .9-.4 1-.9.1-.4.1-.8.1-1.2.3-2.5.5-3.9 1.5-4.3.8-.3 2.2-.7 3.4-1 .3-.1.7-.2.9-.2.3 1.1 1.1 2.5 3.1 2.5 1.6 0 2.5-1.3 2.8-2.6.4.1.7.2 1.2.3 1.2.3 2.6.7 3.4 1 1.1.4 1.3 1.8 1.5 4.3 0 .4.1.8.1 1.2.1.5.5.9 1 .9h.1c.5-.1.9-.6.9-1.1 0-.4-.1-.8-.1-1.2-.3-2.6-.6-5.1-2.8-6-.9-.4-2.4-.7-3.6-1.1-.6-.2-1.5-.4-2-.5v-.1c1.3-.6 4.1-2.1 4.5-4.9.7-.3 1.3-1 1.6-1.8.4-1.3.1-2.6-1-3.5.2-1.3.5-3.3.2-4.8C42.1 1.8 39.1 0 35 0c-3.9 0-5.1 1.2-6.2 2.3l-.3.3c-1.2 1.2-1.9 4.2-1.2 7-1 .9-1.4 2.2-.9 3.4.3.8.9 1.5 1.6 1.8.4 2.8 3.2 4.3 4.5 4.9v.1c-.5.2-1.3.4-2 .5-1.3.3-2.7.7-3.6 1.1-2.2.9-2.5 3.4-2.8 6 0 .4-.1.8-.1 1.2-.1.5.3 1 .8 1.1zM30 4l.3-.3C31.2 2.8 31.9 2 35 2s5.3 1.1 5.8 3c-.4-.5-1.3-.5-1.6 0-.4.6-1.7 1.3-2.8 1.6-.2-.1-.4-.2-.6-.2-.1 0-.3 0-.5.1-.3 0-.7.1-1.2.1-.2-.3-.5-.5-.9-.5-.8 0-2.3 0-2.6-.2-.2-.3-.5-.6-.9-.6-.1 0-.3 0-.4.1.1-.6.4-1.1.7-1.4zm-.1 10c0-.6-.4-1-1-1-.1 0-.5-.3-.6-.8-.1-.3 0-.5.1-.8.2.1.3.1.5.1.5-.1.8-.5.8-.9 0-.5.2-1.7.5-2.7.3.1.6.1 1 .2.1.2.4.4.6.4 1.2.2 2.2.2 3 .1.2.2.4.3.7.3 1 0 3-.7 4.3-1.7.2.6.4 1.6.6 3.4.1.5.4.8.9.9h.1c.1 0 .2 0 .4-.1.1.2.2.5.1.8-.1.5-.5.8-.6.8-.6 0-1 .4-1 1 0 2.7-3.9 4-3.9 4-.4.1-.7.5-.7.9v1.4c0 .4.1.6.4.8 0 .4-.3 1.3-.9 1.3-.4 0-.8 0-1.2-1.1.4-.2.6-.5.6-1V19c0-.4-.3-.8-.7-.9-.2 0-4-1.4-4-4.1zm11.7 49c-1.7-.7-4-1-4.6-1-.5 0-.9.4-1 .9v.1c0 .1-.1 1-1 1-.2 0-.7 0-.9-1.2v-.1c0-.1 0-.1-.1-.2 0-.1-.1-.1-.1-.2l-.1-.1c-.1 0-.1-.1-.2-.1s-.1 0-.2-.1h-.3c-.4 0-3 .4-4.7 1-1.9.8-2.1 2.8-2.4 5 0 .3-.1.6-.1.9-.1.5.3 1 .9 1.1h.1c.5 0 .9-.4 1-.9 0-.3.1-.6.1-1 .2-1.9.4-3 1.1-3.3 1-.4 2.4-.7 3.3-.8.7 1.6 2 1.8 2.6 1.8 1.5 0 2.4-1 2.7-1.8.8.1 2.1.4 3.1.8.7.3.9 1.4 1.1 3.3 0 .3.1.6.1 1 .1.5.5.9 1 .9h.1c.5-.1.9-.6.9-1.1 0-.3-.1-.6-.1-.9-.2-2.2-.4-4.3-2.3-5zm-13.7-7.5c.2.7.7 1.2 1.2 1.5.1.7.6 1.5 1.2 2.2 1.2 1.3 2.9 2 4.7 2 3.2 0 5-2.4 5.7-4 .6-.3 1.2-.9 1.4-1.6.4-1.1.1-2.2-.9-3 .2-1.3.5-3.4.2-4.8-.5-2.4-3-3.9-6.4-3.9-3.2 0-4.2 1-5.1 1.9l-.2.2c-1.1 1.1-1.6 4.3-1 6.6-.9.7-1.2 1.8-.8 2.9zm3.2-8.2l.2-.2c.7-.8 1.3-1.3 3.7-1.3 2.1 0 3.6.6 4.2 1.7-.4-.1-.8.1-1.1.4-.3.4-1.3.9-2.1 1.2 0 0-.2-.1-.4-.1h-.5c-.2 0-.5.1-.9.1-.2-.3-.5-.4-.8-.4-.6 0-1.6 0-1.9-.1-.2-.3-.5-.5-.8-.5.1-.4.3-.6.4-.8zm-.2 6c0-.7.2-1.9.3-2.7.2 0 .3.1.5.1.1.2.3.3.6.4.9.2 1.8.2 2.4.1.2.1.4.2.6.2.8 0 2.2-.5 3.3-1.2.2.7.3 1.7.5 3v.3c.1.5.5.9.9.9h.1c.1.2.1.3.1.4-.1.3-.3.6-.3.6-.4 0-.8.3-1 .7 0 0-.9 3.1-4 3.1-1.3 0-2.4-.5-3.2-1.3-.5-.6-.7-1.1-.7-1.5 0-.3 0-.5-.2-.8-.2-.2-.4-.3-.7-.3-.1 0-.3-.3-.4-.6 0-.1 0-.3.1-.4h.3c.4-.1.8-.5.8-1zM15.7 63c-1.6-.7-4-1-4.6-1-.5 0-.9.4-1 .9v.1c0 .1-.1 1-1 1-.2 0-.7 0-.9-1.2v-.1c0-.1 0-.1-.1-.2 0-.1-.1-.1-.1-.2l-.1-.1c-.1 0-.1-.1-.2-.1s-.1 0-.2-.1h-.3c-.4 0-3 .4-4.7 1-1.9.8-2.1 2.8-2.4 5 0 .3-.1.6-.1.9-.1.5.3 1 .9 1.1H1c.5 0 .9-.4 1-.9 0-.3.1-.7.1-1 .2-1.9.4-3 1.1-3.3 1-.4 2.4-.7 3.3-.8.7 1.6 2 1.8 2.6 1.8 1.5 0 2.4-1 2.7-1.8.8.1 2.1.4 3.1.8.7.3.9 1.4 1.1 3.3 0 .3.1.6.1 1 .1.5.5.9 1 .9h.1c.5-.1.9-.6.9-1.1 0-.3-.1-.6-.1-.9-.2-2.2-.4-4.3-2.3-5zM2 55.5c.2.7.7 1.2 1.2 1.5.1.7.6 1.5 1.2 2.2 1.2 1.3 2.9 2 4.7 2 3.2 0 5-2.4 5.7-4 .6-.3 1.2-.9 1.4-1.6.4-1.1.1-2.2-.9-3 .2-1.3.5-3.4.2-4.8-.5-2.4-3-3.9-6.4-3.9-3.2 0-4.2 1-5.1 1.9l-.2.2c-1.1 1.1-1.6 4.3-1 6.6-.9.7-1.2 1.8-.8 2.9zm3.2-8.2l.2-.2c.7-.8 1.3-1.3 3.7-1.3 2.1 0 3.6.6 4.2 1.7h-.2c-.3 0-.6.2-.8.4-.3.4-1.3.9-2.1 1.2-.2 0-.3-.1-.5-.1h-.5c-.2 0-.5.1-.9.1-.2-.3-.5-.4-.8-.4-.6 0-1.6 0-1.9-.1-.2-.3-.5-.5-.8-.5.1-.4.2-.6.4-.8zm-.2 6c0-.7.2-1.9.3-2.7.2 0 .3.1.5.1l.6.3c.9.2 1.8.2 2.4.1.2.1.4.2.6.2.8 0 2.2-.5 3.3-1.2.2.7.3 1.7.5 2.9v.3c.1.5.5.9.9.9h.1c.1.2.1.3.1.4 0 .4-.3.6-.3.7-.4 0-.8.3-1 .7 0 0-.9 3.1-4 3.1-1.3 0-2.4-.5-3.2-1.3-.5-.6-.7-1.1-.7-1.5 0-.3 0-.5-.2-.7-.2-.2-.4-.3-.7-.3-.1 0-.3-.3-.4-.6 0-.1 0-.3.1-.4h.3c.4-.1.8-.5.8-1zm50.8-7.6l-.2.2c-1.1 1.1-1.6 4.3-1 6.6-.8.8-1.1 1.9-.8 2.9.2.7.7 1.2 1.2 1.5.1.7.6 1.5 1.2 2.2 1.2 1.3 2.9 2 4.7 2 3.2 0 5-2.4 5.7-4 .6-.3 1.2-.9 1.4-1.6.4-1.1.1-2.2-.9-3 .2-1.3.5-3.4.2-4.8-.5-2.4-3-3.9-6.4-3.9-3.2 0-4.2 1-5.1 1.9zM66 54.2h.1c.1.2.1.3.1.4-.1.3-.3.6-.3.6-.4 0-.8.3-1 .7 0 0-.9 3.1-4 3.1-1.3 0-2.4-.5-3.2-1.3-.5-.6-.7-1.1-.7-1.5 0-.3 0-.5-.2-.8-.2-.2-.4-.3-.7-.3-.1 0-.3-.3-.4-.6 0-.1 0-.3.1-.4h.3c.5-.1.8-.5.8-.9 0-.7.2-1.9.3-2.7.2 0 .3.1.5.1.1.2.3.3.6.4.9.2 1.8.2 2.4.1.2.1.4.2.6.2.8 0 2.2-.5 3.3-1.2.2.7.3 1.7.5 3v.3c0 .5.4.8.9.8zm-.8-6.7c-.4-.1-.8.1-1.1.4-.3.4-1.3.9-2.1 1.2-.2-.1-.3-.1-.5-.1H61c-.2 0-.5.1-.9.1-.2-.3-.5-.4-.8-.4-.6 0-1.6 0-1.9-.1-.2-.3-.5-.5-.8-.5.1-.4.2-.6.4-.8l.2-.2c.7-.8 1.3-1.3 3.7-1.3 2.1 0 3.7.6 4.3 1.7zm4.7 20.4c-.2-2.2-.5-4.2-2.4-5-1.7-.7-4-1-4.6-1-.5 0-.9.4-1 .9v.1c0 .1-.1 1-1 1-.2 0-.7 0-.9-1.2v-.1c0-.1 0-.1-.1-.2 0-.1-.1-.1-.1-.1 0-.1-.1-.1-.1-.1s-.1-.1-.2-.1-.1-.1-.2-.1H59c-.4 0-3 .4-4.7 1-1.9.8-2.1 2.8-2.4 5 0 .3-.1.6-.1.9-.1.5.3 1 .9 1.1h.1c.5 0 .9-.4 1-.9 0-.3.1-.6.1-1 .2-1.9.4-3 1.1-3.3 1-.4 2.4-.7 3.3-.8.7 1.6 2 1.8 2.6 1.8 1.5 0 2.4-1 2.7-1.8.8.1 2.1.4 3.1.8.7.3.9 1.4 1.1 3.3 0 .3.1.6.1 1 .1.5.5.9 1 .9h.1c.5-.1.9-.6.9-1.1.1-.3 0-.7 0-1z"/><path d="M9 41c.6 0 1-.4 1-1v-4h24v4c0 .6.4 1 1 1s1-.4 1-1v-4h24v4c0 .6.4 1 1 1s1-.4 1-1v-5c0-.6-.4-1-1-1H36v-4c0-.6-.4-1-1-1s-1 .4-1 1v4H9c-.6 0-1 .4-1 1v5c0 .6.4 1 1 1z"/></g></svg>