<svg xmlns="http://www.w3.org/2000/svg" width="23.09" height="25.721" viewBox="0 0 23.09 25.721"><linearGradient id="a" gradientUnits="userSpaceOnUse" x1="11.827" y1="2363.13" x2="-4.955" y2="2379.913" gradientTransform="translate(0 -2361.561)"><stop offset="0" stop-color="#3c91cf"/><stop offset=".007" stop-color="#3d93d0"/><stop offset=".26" stop-color="#35b2e7"/><stop offset=".512" stop-color="#42bfe8"/><stop offset=".76" stop-color="#53c1e0"/><stop offset="1" stop-color="#5ac2de"/></linearGradient><path fill="url(#a)" d="M.463.398C.172.705 0 1.183 0 1.802v22.116c0 .62.172 1.097.463 1.405l.074.072 12.389-12.389v-.292L.537.325.463.398z"/><linearGradient id="b" gradientUnits="userSpaceOnUse" x1="23.862" y1="2374.422" x2="-.335" y2="2374.422" gradientTransform="translate(0 -2361.561)"><stop offset="0" stop-color="#f4d827"/><stop offset=".409" stop-color="#f4b71b"/><stop offset=".775" stop-color="#f4a11a"/><stop offset="1" stop-color="#f4981b"/></linearGradient><path fill="url(#b)" d="M17.055 17.138l-4.129-4.131v-.292l4.13-4.13.093.053 4.893 2.78c1.398.794 1.398 2.093 0 2.888l-4.893 2.78-.094.052z"/><linearGradient id="c" gradientUnits="userSpaceOnUse" x1="14.854" y1="2376.716" x2="-7.904" y2="2399.475" gradientTransform="translate(0 -2361.561)"><stop offset="0" stop-color="#e84146"/><stop offset="1" stop-color="#b61b5e"/></linearGradient><path fill="url(#c)" d="M17.149 17.084l-4.223-4.224L.463 25.323c.461.488 1.221.548 2.078.061l14.608-8.3"/><linearGradient id="d" gradientUnits="userSpaceOnUse" x1="-2.676" y1="2354.597" x2="7.487" y2="2364.76" gradientTransform="translate(0 -2361.561)"><stop offset="0" stop-color="#36996e"/><stop offset=".069" stop-color="#339f6d"/><stop offset=".476" stop-color="#49b16f"/><stop offset=".801" stop-color="#5bb56d"/><stop offset="1" stop-color="#61b66c"/></linearGradient><path fill="url(#d)" d="M17.149 8.637L2.541.337C1.684-.151.924-.09.463.398l12.463 12.463 4.223-4.224z"/><path opacity=".2" fill="#010202" d="M17.056 16.991L2.541 25.239c-.812.461-1.538.431-2.004.011l-.074.074.074.072c.466.42 1.192.451 2.004-.011l14.608-8.3-.093-.094z"/><path opacity=".12" fill="#010202" d="M.463 25.178C.172 24.87 0 24.392 0 23.773v.146c0 .619.172 1.097.463 1.405l.074-.074-.074-.072zm21.579-11.02l-4.986 2.833.093.093 4.893-2.78c.699-.397 1.048-.92 1.048-1.443-.059.473-.414.937-1.048 1.297z"/><path opacity=".25" fill="#FFF" d="M2.541.483l19.501 11.08c.634.36.989.824 1.048 1.298 0-.523-.349-1.047-1.048-1.444L2.541.337C1.143-.457 0 .202 0 1.803v.146C0 .348 1.143-.311 2.541.483z"/></svg>