<svg xmlns="http://www.w3.org/2000/svg" width="235" height="41" viewBox="0 0 235 41" fill="none"><g clip-path="url(#clip0_552_2029)"><path d="M102.08 26.9715V18.6381C102.08 15.4715 100.02 13.3604 96.7011 13.3604C94.7556 13.2492 92.9246 14.1381 91.8947 15.7492C90.9219 14.1937 89.2053 13.3048 87.3743 13.3604C85.7722 13.3048 84.2273 14.027 83.369 15.3604V13.6937H80.3936V26.9715H83.4262V19.6381C83.4262 17.3048 84.7422 16.0826 86.8021 16.0826C88.8048 16.0826 89.7775 17.3604 89.7775 19.5826V26.9715H92.8102V19.6381C92.8102 17.3048 94.1834 16.0826 96.1861 16.0826C98.246 16.0826 99.2187 17.3604 99.2187 19.5826V26.9715H102.08ZM146.654 13.6937H141.79V9.63813H138.757V13.6937H135.954V16.3604H138.757V22.4159C138.757 25.527 140.016 27.3603 143.507 27.3603C144.823 27.3603 146.139 27.027 147.226 26.3048L146.368 23.8048C145.566 24.2492 144.651 24.527 143.735 24.5826C142.248 24.5826 141.733 23.6937 141.733 22.3603V16.3048H146.596V13.6937H146.654ZM172.059 13.3604C170.571 13.3048 169.198 14.0826 168.454 15.3048V13.6937H165.479V26.9715H168.454V19.527C168.454 17.3048 169.427 16.0826 171.372 16.0826C172.002 16.0826 172.631 16.1937 173.261 16.4159L174.176 13.6937C173.489 13.4715 172.803 13.3604 172.059 13.3604ZM133.608 14.7492C131.948 13.7492 130.003 13.3048 128 13.3604C124.51 13.3604 122.278 14.9715 122.278 17.6381C122.278 19.8048 123.938 21.1381 127.027 21.5826L128.458 21.8048C130.117 22.027 130.861 22.4715 130.861 23.1937C130.861 24.2492 129.774 24.8048 127.714 24.8048C126.055 24.8604 124.452 24.3604 123.136 23.4159L121.706 25.6937C123.423 26.8603 125.54 27.4715 127.657 27.4159C131.605 27.4159 133.894 25.5826 133.894 23.0826C133.894 20.7492 132.063 19.527 129.087 19.0826L127.657 18.8604C126.341 18.6937 125.311 18.4159 125.311 17.527C125.311 16.527 126.284 15.9715 127.943 15.9715C129.431 15.9715 130.918 16.3604 132.234 17.1381L133.608 14.7492ZM213.486 13.3604C211.998 13.3048 210.625 14.0826 209.881 15.3048V13.6937H206.906V26.9715H209.881V19.527C209.881 17.3048 210.854 16.0826 212.799 16.0826C213.429 16.0826 214.058 16.1937 214.687 16.4159L215.603 13.6937C214.916 13.4715 214.172 13.3604 213.486 13.3604ZM175.034 20.3604C175.034 24.4159 177.953 27.3603 182.358 27.3603C184.132 27.4715 185.906 26.8604 187.279 25.7492L185.849 23.4159C184.819 24.1937 183.56 24.5826 182.244 24.6381C179.841 24.6381 178.124 22.9159 178.124 20.3604C178.124 17.8048 179.898 16.1381 182.244 16.0826C183.56 16.0826 184.819 16.527 185.849 17.3048L187.279 14.9715C185.906 13.8604 184.132 13.3048 182.358 13.3604C177.953 13.3604 175.034 16.3048 175.034 20.3604ZM202.957 20.3604V13.6937H199.982V15.3048C198.952 14.027 197.35 13.3048 195.633 13.3604C191.8 13.3604 188.767 16.3048 188.767 20.3604C188.767 24.4159 191.8 27.3603 195.633 27.3603C197.293 27.4159 198.952 26.6937 199.982 25.4159V27.027H202.957V20.3604ZM191.857 20.3604C191.857 18.027 193.459 16.0826 196.034 16.0826C198.494 16.0826 200.154 17.9159 200.154 20.3604C200.154 22.8048 198.494 24.6381 196.034 24.6381C193.459 24.5826 191.857 22.6937 191.857 20.3604ZM155.923 13.3604C151.918 13.3604 149.114 16.1937 149.114 20.3604C149.114 24.5826 152.032 27.3603 156.152 27.3603C158.212 27.4159 160.215 26.7492 161.76 25.4715L160.272 23.3048C159.127 24.1937 157.754 24.6937 156.266 24.6937C154.321 24.6937 152.604 23.8048 152.147 21.4159H162.332C162.389 21.027 162.389 20.6937 162.389 20.3048C162.389 16.1937 159.757 13.3604 155.923 13.3604ZM155.866 15.9159C157.811 15.9159 159.013 17.0826 159.356 19.1381H152.204C152.547 17.2492 153.749 15.9159 155.866 15.9159ZM230.652 20.3604V8.36035H227.676V15.3048C226.646 14.027 225.044 13.3048 223.328 13.3604C219.494 13.3604 216.461 16.3048 216.461 20.3604C216.461 24.4159 219.494 27.3603 223.328 27.3603C224.987 27.4159 226.646 26.6937 227.676 25.4159V27.027H230.652V20.3604ZM234.142 25.7492C234.256 25.7492 234.371 25.7492 234.485 25.8048C234.6 25.8603 234.657 25.9159 234.771 25.9715C234.829 26.027 234.943 26.1381 234.943 26.2492C235.058 26.4715 235.058 26.6937 234.943 26.9159C234.886 27.027 234.829 27.0826 234.771 27.1937C234.714 27.2492 234.6 27.3048 234.485 27.3603C234.371 27.4159 234.256 27.4159 234.142 27.4159C233.799 27.4159 233.455 27.1937 233.341 26.9159C233.227 26.6937 233.227 26.4715 233.341 26.2492C233.455 26.027 233.627 25.8603 233.799 25.8048C233.856 25.8048 233.97 25.7492 234.142 25.7492ZM234.142 27.2492C234.256 27.2492 234.314 27.2492 234.428 27.1937C234.485 27.1381 234.6 27.1381 234.657 27.027C234.943 26.7492 234.943 26.3603 234.657 26.0826C234.6 26.027 234.543 25.9715 234.428 25.9159C234.371 25.8604 234.256 25.8603 234.142 25.8603C234.028 25.8603 233.97 25.8604 233.856 25.9159C233.513 26.0826 233.341 26.4715 233.513 26.8048C233.57 26.8603 233.57 26.9715 233.627 27.027C233.684 27.0826 233.742 27.1381 233.856 27.1937C233.913 27.2492 234.028 27.2492 234.142 27.2492ZM234.142 26.1937C234.199 26.1937 234.314 26.1937 234.371 26.2492C234.428 26.3048 234.485 26.3603 234.428 26.4159C234.428 26.4715 234.428 26.527 234.371 26.5826C234.314 26.6381 234.256 26.6381 234.199 26.6381L234.485 26.9159H234.256L234.028 26.6381H233.97V26.9159H233.799V26.1381L234.142 26.1937ZM233.97 26.3604V26.5826H234.142C234.199 26.5826 234.199 26.5826 234.256 26.5826L234.314 26.527C234.314 26.4715 234.314 26.4715 234.256 26.4715C234.199 26.4715 234.199 26.4715 234.142 26.4715H233.97V26.3604ZM219.551 20.3604C219.551 18.027 221.153 16.0826 223.728 16.0826C226.189 16.0826 227.848 17.9159 227.848 20.3604C227.848 22.8048 226.189 24.6381 223.728 24.6381C221.096 24.5826 219.551 22.6937 219.551 20.3604ZM118.902 20.3604V13.6937H115.927V15.3048C114.897 14.027 113.295 13.3048 111.578 13.3604C107.744 13.3604 104.712 16.3048 104.712 20.3604C104.712 24.4159 107.744 27.3603 111.578 27.3603C113.237 27.4159 114.897 26.6937 115.927 25.4159V27.027H118.902V20.3604ZM107.802 20.3604C107.802 18.027 109.404 16.0826 111.979 16.0826C114.439 16.0826 116.098 17.9159 116.098 20.3604C116.098 22.8048 114.439 24.6381 111.979 24.6381C109.347 24.5826 107.802 22.6937 107.802 20.3604Z" fill="#231F20"></path><path d="M42.3425 4.52783H24.3184V35.9723H42.3425V4.52783Z" fill="#FF5F00"></path><path d="M25.4635 20.25C25.4635 14.1389 28.3817 8.30554 33.3025 4.52776C24.3763 -2.30557 11.4447 -0.80557 4.40675 7.91665C-2.63124 16.5833 -1.08631 29.1389 7.89713 35.9722C15.3929 41.6944 25.864 41.6944 33.3598 35.9722C28.3817 32.1944 25.4635 26.3611 25.4635 20.25Z" fill="#EB001B"></path><path d="M66.6611 20.2497C66.6611 31.3053 57.4487 40.2497 46.0621 40.2497C41.4273 40.2497 36.9642 38.7497 33.3594 35.972C42.2856 29.1386 43.8305 16.5831 36.7925 7.86085C35.7626 6.63863 34.6182 5.47196 33.3594 4.52752C42.2856 -2.30581 55.2744 -0.805814 62.2552 7.91641C65.1161 11.4164 66.6611 15.7497 66.6611 20.2497Z" fill="#F79E1B"></path><path d="M64.7175 32.6401V31.9726H65.004V31.8613H64.3164V31.9726H64.6029V32.6401H64.7175ZM66.0353 32.6401V31.8613H65.8061L65.5769 32.4176L65.3477 31.8613H65.1185V32.6401H65.2904V32.0282L65.5196 32.5289H65.6915L65.9207 32.0282V32.6401H66.0353Z" fill="#F79E1B"></path></g><defs><clipPath id="clip0_552_2029"><rect width="235" height="40" fill="white" transform="translate(0 0.25)"></rect></clipPath></defs></svg>