<svg xmlns="http://www.w3.org/2000/svg" width="235" height="46" viewBox="0 0 235 46" fill="none"><path d="M112.032 32.5275V24.467C112.032 22.3334 110.95 21.2316 108.77 21.2316C107.868 21.2316 107.021 21.7058 106.965 21.7337C106.923 21.7476 107.173 22.2915 107.173 23.0864V32.5136H103.356V24.453C103.356 22.3193 102.273 21.2177 100.093 21.2177C99.0103 21.2177 98.6354 21.5663 98.6354 21.5663V32.4995H94.7344V19.3071C96.5669 18.1775 100.232 16.811 105.119 18.8889C105.91 18.4006 107.271 17.9683 108.812 17.9683C113.351 17.9683 115.989 20.2275 115.989 24.0068V32.4856L112.032 32.5275ZM132.565 17.8429C135.481 17.8429 140.562 18.8748 140.562 25.3316C140.562 29.4734 137.73 32.6668 133.495 32.6668C132.274 32.6668 131.08 32.4019 130.441 32.123V38.0777H126.582V18.4705C128.261 18.1218 130.205 17.8429 132.565 17.8429ZM132.496 21.1061C131.732 21.1061 130.969 21.148 130.427 21.2596V28.7901C131.038 29.1388 131.982 29.4455 133.176 29.4455C135.286 29.4455 136.466 27.6327 136.466 25.3316C136.48 22.1799 134.384 21.1061 132.496 21.1061ZM178.753 21.4547C178.337 21.3432 177.49 21.1758 176.532 21.1758C174.658 21.1758 172.7 22.6401 172.7 25.4152C172.7 28.3578 174.422 29.4455 175.963 29.4455C177.254 29.4455 178.296 28.7482 178.753 27.9951V21.4547ZM178.947 31.105C178.143 32.0254 176.99 32.6809 175.158 32.6809C172.645 32.6809 168.619 31.0214 168.619 25.5687C168.619 21.1061 171.909 17.8429 176.615 17.8429C178.947 17.8429 181.308 18.4147 182.655 18.9585V32.3183H179.212L178.947 31.105ZM141.908 25.206C141.908 30.0034 144.768 32.639 149.738 32.639C151.918 32.639 153.556 32.0672 154.819 31.4537V28.8877C153.82 29.1805 152.07 29.6547 149.891 29.6547C147.35 29.6547 146.045 28.5809 145.851 26.5867H155.277C155.319 26.2798 155.361 25.5408 155.361 25.0109C155.361 21.0643 152.959 17.8429 148.836 17.8429C144.74 17.8429 141.908 20.7157 141.908 25.206ZM145.92 23.7418C146.073 22.0962 146.989 21.0922 148.836 21.0922C150.654 21.0922 151.696 22.2776 151.807 23.7418H145.92ZM125.068 23.0445H117.572V26.7121H125.068V23.0445ZM164.107 28.2323C164.121 28.5251 164.065 28.7622 163.913 28.9853C163.76 29.1945 163.579 29.2781 163.316 29.3897C162.969 29.5292 162.635 29.585 162.247 29.6128C161.858 29.6547 161.483 29.6547 161.053 29.6547C160.484 29.6547 159.9 29.5711 159.206 29.4595C158.484 29.3339 157.86 29.1666 157.068 28.8877V31.5791C157.54 31.8022 158.207 32.0254 158.929 32.2345C159.678 32.4437 160.497 32.6111 161.414 32.639C162.455 32.6529 163.191 32.5693 163.968 32.3741C164.745 32.1788 165.398 31.886 165.94 31.4955C166.481 31.105 166.897 30.6169 167.203 30.0312C167.494 29.4455 167.633 28.7482 167.619 27.9533C167.605 27.2282 167.467 26.6286 167.203 26.1683C166.939 25.6941 166.592 25.3316 166.189 25.0248C165.787 24.7319 165.329 24.4949 164.829 24.3275C164.329 24.1741 163.815 24.0207 163.316 23.9091C162.996 23.8395 162.663 23.7557 162.33 23.6721C161.997 23.5884 161.663 23.4768 161.344 23.3653C161.039 23.2398 160.789 23.0725 160.608 22.8633C160.428 22.668 160.331 22.403 160.331 22.0823C160.331 21.9011 160.359 21.7197 160.442 21.5524C160.511 21.385 160.65 21.2316 160.831 21.1061C160.997 20.9807 161.261 20.883 161.525 20.8273C161.816 20.7715 162.191 20.7715 162.594 20.7993C162.913 20.8132 163.288 20.8412 163.649 20.883C164.024 20.9248 164.412 20.9666 164.787 21.0365C165.162 21.1061 165.509 21.1758 165.884 21.2596C166.245 21.3572 166.564 21.4547 166.897 21.5524V18.5402C166.259 18.331 165.509 18.1357 164.732 17.9963C163.954 17.8568 163.121 17.7871 162.219 17.7871C161.497 17.7871 160.803 17.8848 160.15 18.066C159.498 18.2474 158.887 18.5681 158.415 18.9585C157.929 19.3351 157.582 19.851 157.304 20.4228C157.027 20.9946 156.902 21.678 156.93 22.4588C156.943 23.1003 157.054 23.6303 157.29 24.0765C157.513 24.5088 157.818 24.8853 158.179 25.1643C158.554 25.4571 158.984 25.6941 159.456 25.8616C159.942 26.0428 160.442 26.1962 160.969 26.3356C161.386 26.4333 161.775 26.5309 162.163 26.6285C162.538 26.7262 162.871 26.8377 163.163 26.9632C163.454 27.1027 163.69 27.256 163.871 27.4513C164.01 27.6884 164.093 27.9255 164.107 28.2323Z" fill="#39B54A"></path><path d="M52.3457 24.4307C59.7935 25.5468 65.2151 17.7871 65.2151 17.7871C70.6367 25.839 74.3257 19.448 74.3257 19.448C74.3257 19.448 70.3992 25.7858 57.404 25.5866L52.3457 24.4307Z" fill="#9D4F45"></path><path d="M78.7925 9.98242C78.7925 9.98242 71.0929 29.4562 53.916 24.5555C53.916 24.5555 82.6218 33.854 93.166 17.2546L78.7925 9.98242Z" fill="#EE1C25"></path><path d="M83.7453 25.9733V41.6208C83.7453 43.9772 81.8457 45.882 79.527 45.882H64.4137C62.081 45.882 60.1953 43.963 60.1953 41.6208V4.87934C60.1953 2.52296 62.081 0.618164 64.4137 0.618164H79.527C81.8597 0.618164 83.7453 2.53715 83.7453 4.87934V11.4121L80.9378 10.0576V4.38548H63.0029V35.8359H80.9239V27.0173C82.0134 26.6928 82.9771 26.3118 83.7453 25.9733ZM65.5591 41.0705C65.5591 41.2116 65.6708 41.3245 65.8245 41.3245H67.4307C67.5705 41.3245 67.6821 41.2116 67.6821 41.0705V39.4338C67.6821 39.2928 67.5705 39.1798 67.4307 39.1798H65.8245C65.6848 39.1798 65.5591 39.2928 65.5591 39.4338V41.0705ZM76.482 41.0705C76.482 41.2116 76.5937 41.3245 76.7335 41.3245H78.3537C78.4934 41.3245 78.6191 41.2116 78.6191 41.0705V39.4338C78.6191 39.2928 78.5073 39.1798 78.3537 39.1798H76.7335C76.5937 39.1798 76.482 39.2928 76.482 39.4338V41.0705ZM70.5875 38.2909C70.3361 38.2909 70.1126 38.5025 70.1126 38.7565V41.7195C70.1126 41.9735 70.3221 42.1852 70.5875 42.1852H73.5068C73.7582 42.1852 73.9678 41.9735 73.9678 41.7195V38.7565C73.9678 38.5025 73.7582 38.2909 73.5068 38.2909H70.5875Z" fill="#39B54A"></path></svg>