<svg xmlns="http://www.w3.org/2000/svg" width="235" height="30" viewBox="0 0 235 30" fill="none"><g clip-path="url(#clip0_552_2030)"><path d="M111.367 29.3316H103.914L108.575 1.25879H116.028L111.367 29.3316Z" fill="#00579F"></path><path d="M138.383 1.94517C136.913 1.37716 134.582 0.75 131.699 0.75C124.339 0.75 119.156 4.57248 119.125 10.0375C119.063 14.0695 122.835 16.309 125.656 17.6534C128.54 19.0272 129.52 19.9239 129.52 21.1484C129.49 23.0291 127.19 23.896 125.044 23.896C122.069 23.896 120.474 23.4491 118.052 22.4028L117.07 21.9542L116.027 28.256C117.775 29.0316 120.996 29.7198 124.339 29.75C132.159 29.75 137.25 25.9867 137.31 20.1629C137.34 16.9671 135.348 14.5185 131.054 12.5175C128.448 11.233 126.852 10.3669 126.852 9.05267C126.882 7.8579 128.202 6.63415 131.144 6.63415C133.567 6.57421 135.347 7.14143 136.696 7.70905L137.37 8.00715L138.383 1.94517Z" fill="#00579F"></path><path d="M148.288 19.3864C148.902 17.7736 151.264 11.5318 151.264 11.5318C151.233 11.5918 151.876 9.88933 152.244 8.8442L152.765 11.2631C152.765 11.2631 154.176 17.9828 154.483 19.3864C153.318 19.3864 149.76 19.3864 148.288 19.3864ZM157.488 1.25879H151.723C149.945 1.25879 148.595 1.76607 147.828 3.588L136.758 29.3312H144.578C144.578 29.3312 145.865 25.8663 146.142 25.1201C147 25.1201 154.607 25.1201 155.71 25.1201C155.924 26.1057 156.6 29.3312 156.6 29.3312H163.5L157.488 1.25879Z" fill="#00579F"></path><path d="M97.689 1.25879L90.3904 20.4017L89.5928 16.5193C88.2435 12.0395 84.0116 7.17231 79.2891 4.75221L85.9743 29.3018H93.8553L105.57 1.25879H97.689Z" fill="#00579F"></path><path d="M83.6132 1.25879H71.6227L71.5 1.82601C80.8534 4.15561 87.048 9.77104 89.593 16.5205L86.9864 3.61856C86.5573 1.82561 85.2385 1.31793 83.6132 1.25879Z" fill="#FAA61A"></path></g><defs><clipPath id="clip0_552_2030"><rect width="92" height="29" fill="white" transform="translate(71.5 0.75)"></rect></clipPath></defs></svg>