<svg xmlns="http://www.w3.org/2000/svg" width="100" height="40" viewBox="0 0 100 40" fill="none"><path d="M19.6498 23.16C19.3998 24.23 19.5798 25.35 20.1798 26.54C20.7898 27.77 21.6798 28.46 22.8598 28.6C24.0198 28.76 25.1398 28.35 26.1798 27.32C27.2198 26.3 27.9298 24.94 28.2998 23.19C28.6798 21.44 28.5198 20.32 27.8098 19.8C27.1198 19.29 26.1398 19.14 24.9298 19.35C23.6998 19.57 22.5898 19.98 21.5598 20.62C20.5298 21.26 19.8898 22.13 19.6398 23.15" fill="#EE4633"></path><path d="M22.3099 12.2C21.2599 12.51 20.3899 13.23 19.6599 14.35C18.8999 15.49 18.7399 16.61 19.1999 17.7C19.6399 18.79 20.5599 19.54 21.9799 19.93C23.3699 20.34 24.9099 20.27 26.6099 19.72C28.3199 19.17 29.2099 18.48 29.3099 17.6C29.3899 16.75 29.0499 15.83 28.2599 14.88C27.4499 13.93 26.5299 13.17 25.4599 12.61C24.3899 12.04 23.3299 11.91 22.3099 12.2Z" fill="#F89B34"></path><path d="M33.1798 9.03001C32.3898 8.28001 31.3198 7.88002 29.9798 7.80002C28.6198 7.71002 27.5698 8.14002 26.8598 9.08002C26.1398 10 25.9398 11.18 26.3098 12.61C26.6498 14.01 27.4798 15.32 28.8098 16.51C30.1398 17.7 31.1898 18.13 31.9898 17.78C32.7698 17.42 33.3898 16.66 33.8198 15.51C34.2498 14.33 34.4398 13.16 34.3998 11.96C34.3498 10.75 33.9298 9.77002 33.1698 9.02002" fill="#FDE383"></path><path d="M41.6899 16.86C41.9399 15.79 41.7599 14.67 41.1599 13.48C40.5499 12.26 39.6599 11.56 38.4899 11.42C37.3299 11.26 36.2099 11.67 35.1699 12.71C34.1299 13.72 33.4199 15.08 33.0399 16.83C32.6699 18.58 32.8199 19.7 33.5299 20.21C34.2199 20.72 35.1999 20.87 36.4099 20.66C37.6399 20.45 38.7499 20.03 39.7699 19.39C40.7999 18.75 41.4399 17.88 41.6899 16.86Z" fill="#65B462"></path><path d="M38.7001 27.82C39.7401 27.51 40.6201 26.78 41.3601 25.67C42.1101 24.54 42.2701 23.41 41.8201 22.32C41.3701 21.23 40.4601 20.48 39.0301 20.09C37.6401 19.67 36.1001 19.75 34.4001 20.3C32.6901 20.86 31.8001 21.55 31.7101 22.42C31.6201 23.27 31.9701 24.19 32.7601 25.14C33.5601 26.1 34.4801 26.86 35.5501 27.42C36.6201 27.99 37.6801 28.11 38.7101 27.83" fill="#125EA9"></path><path d="M27.8202 30.97C28.6102 31.71 29.6802 32.12 31.0102 32.2C32.3702 32.28 33.4202 31.85 34.1302 30.91C34.8502 29.98 35.0502 28.81 34.6802 27.39C34.3402 25.99 33.5102 24.69 32.1802 23.49C30.8502 22.29 29.8002 21.86 29.0002 22.22C28.2202 22.56 27.6002 23.34 27.1702 24.49C26.7402 25.66 26.5502 26.84 26.5902 28.04C26.6402 29.25 27.0602 30.24 27.8202 30.98" fill="#F38EB0"></path><path d="M35.5001 17.16C34.8401 16.32 33.7901 15.68 32.3701 15.27C30.8601 14.83 29.4001 14.88 27.9701 15.37C26.4701 15.89 25.5101 16.89 25.0701 18.38C24.6301 19.86 24.8501 21.19 25.7301 22.42C26.5801 23.57 27.7601 24.24 29.3101 24.43C30.7801 24.6 32.1601 24.29 33.4401 23.48C34.6701 22.69 35.4701 21.64 35.8801 20.35C36.2801 19.04 36.1501 17.98 35.5001 17.16Z" fill="#FACA43"></path><path d="M30.2098 23.87C30.5798 23.83 30.9098 23.45 31.2298 22.74C30.6798 23.62 29.9498 23.81 29.0298 23.29C29.4498 23.71 29.8498 23.9 30.2098 23.87Z" fill="#EE114D"></path><path d="M31.4098 21.8C31.5098 21.64 31.5598 21.44 31.5598 21.21C31.5598 20.98 31.5098 20.77 31.4098 20.61C31.3098 20.45 31.1898 20.37 31.0498 20.37C30.9098 20.37 30.7898 20.45 30.6798 20.61C30.5798 20.77 30.5298 20.98 30.5298 21.21C30.5298 21.44 30.5798 21.64 30.6798 21.8C30.7798 21.96 30.8998 22.05 31.0498 22.05C31.1998 22.05 31.2998 21.96 31.4098 21.8Z" fill="#221E1F"></path><path d="M28.9699 21.8C29.0699 21.64 29.1199 21.44 29.1199 21.21C29.1199 20.98 29.0699 20.77 28.9699 20.61C28.8799 20.45 28.7499 20.37 28.6099 20.37C28.4699 20.37 28.3499 20.45 28.2499 20.61C28.1599 20.77 28.1099 20.98 28.1099 21.21C28.1099 21.44 28.1599 21.64 28.2499 21.8C28.3499 21.96 28.4699 22.05 28.6099 22.05C28.7499 22.05 28.8699 21.96 28.9699 21.8Z" fill="#221E1F"></path><path d="M29.6501 16.8C29.6501 16.8 29.6701 16.8 29.6701 16.78C29.7201 16.73 29.7701 16.68 29.8301 16.65C29.8301 16.65 29.8701 16.7 29.8601 16.77C29.8601 16.84 29.7701 16.87 29.6401 16.85V16.81L29.6501 16.8ZM30.6601 17.14C30.6601 17.14 30.6601 17.14 30.6401 17.14C30.3601 17.25 30.0801 17.24 29.8001 17.11C29.9701 17.09 30.0801 17 30.1601 16.85C30.2101 16.73 30.1901 16.61 30.1201 16.49C30.0501 16.4 29.9601 16.37 29.8501 16.4C29.6201 16.45 29.4601 16.6 29.4101 16.83C29.3801 16.83 29.3401 16.81 29.3101 16.8C29.1801 16.74 29.1001 16.65 29.0401 16.54C28.9901 16.42 28.9901 16.29 29.0401 16.14C29.0901 15.98 29.1901 15.92 29.3501 15.95C29.1701 15.88 29.0101 15.92 28.8801 16.06C28.7701 16.17 28.7301 16.31 28.7601 16.49C28.7601 16.52 28.7601 16.54 28.7601 16.56C28.8501 16.83 29.0401 17 29.3501 17.06C29.4101 17.08 29.4601 17.12 29.5001 17.17C29.5501 17.24 29.6001 17.29 29.6601 17.32C29.9701 17.46 30.3001 17.39 30.6701 17.14" fill="#7F5038"></path><path d="M78.9699 17.85C78.9699 17.85 78.9899 17.86 79.0099 17.86H79.1999V18.47L79.2599 18.51L79.3099 18.47V18.41L79.3199 17.86H79.5399L79.5599 17.81L79.5399 17.75H78.9599C78.9599 17.75 78.9399 17.79 78.9399 17.81L78.9599 17.85" fill="#DB892E"></path><path d="M79.8602 17.76H79.6902V17.83L79.6802 18.44V18.48L79.7302 18.52L79.8002 18.45V17.93L79.9502 18.46L80.0302 18.52L80.0902 18.5L80.1102 18.46V18.39L80.2602 17.93V18.49L80.3102 18.53L80.3702 18.49L80.3902 18.45V17.84L80.3402 17.77H80.1702V17.81L80.0202 18.27C79.9702 18.13 79.9402 17.99 79.9202 17.87L79.8802 17.81L79.8602 17.77" fill="#DB892E"></path><path d="M77.31 20.34H77.76C77.96 20.34 78.11 20.29 78.25 20.15C78.38 20.02 78.45 19.87 78.45 19.69C78.45 19.35 78.3 19.16 78.04 19.07L77.42 19.01H77.29V18.96C77.29 18.23 77.06 17.88 76.57 17.9C76.38 17.9 76.23 17.96 76.1 18.07C75.95 18.21 75.89 18.36 75.9 18.54V19.01H75.54C75.35 19.01 75.19 19.07 75.07 19.21C74.94 19.33 74.87 19.49 74.87 19.68C74.86 20.06 75.07 20.28 75.49 20.33L75.95 20.37L75.99 22.7C75.99 22.89 76.06 23.04 76.22 23.17H76.21C76.35 23.27 76.5 23.32 76.66 23.32C77.14 23.34 77.37 23.02 77.38 22.34L77.32 20.35" fill="#125EA9"></path><path d="M74.3602 19.22C74.2302 19.14 74.0402 19.12 73.7802 19.12C73.1602 19.12 72.6902 19.17 72.4102 19.26H72.3902C71.8102 19.46 71.5102 19.83 71.5202 20.39C71.5102 20.77 71.6902 21.11 72.1002 21.39C72.2502 21.49 72.5602 21.65 73.0302 21.86C73.2602 21.96 73.3802 22.01 73.4102 22.05C73.3802 22.11 73.2102 22.14 72.9002 22.14L72.5302 22.04C72.3002 21.97 72.1202 21.93 72.0002 21.93C71.5802 21.93 71.3802 22.13 71.3802 22.5C71.3702 22.84 71.5802 23.09 72.0402 23.26V23.23C72.3202 23.34 72.6202 23.39 72.9502 23.4C73.4102 23.4 73.8102 23.3 74.1302 23.13C74.5802 22.88 74.7902 22.52 74.7902 22.04C74.8002 21.67 74.6002 21.36 74.2102 21.07C74.0402 20.93 73.7202 20.77 73.2402 20.56L72.8702 20.39L73.6202 20.36C73.7102 20.56 73.9002 20.67 74.1802 20.67C74.5402 20.69 74.7302 20.42 74.7302 19.85C74.7302 19.54 74.6202 19.34 74.3902 19.23H74.3802" fill="#EE4633"></path><path d="M71.3698 20.69V20.44C71.3698 19.68 71.0698 19.31 70.4898 19.32C70.0298 19.32 69.6098 19.43 69.2498 19.67C69.1398 19.48 68.9498 19.39 68.6898 19.39C68.4798 19.39 68.3098 19.46 68.1998 19.59C68.0898 19.72 68.0298 19.86 68.0298 20.06V22.92C68.0298 23.1 68.0798 23.26 68.1798 23.38C68.2898 23.52 68.4598 23.58 68.6698 23.58C68.8798 23.58 69.0298 23.52 69.1598 23.41C69.2898 23.28 69.3598 23.11 69.3598 22.93V21.26C69.5098 20.97 69.7398 20.79 70.0198 20.68H70.0598V20.77C70.0698 21.19 70.2798 21.41 70.6998 21.41C71.1298 21.41 71.3498 21.18 71.3798 20.7" fill="#F89B34"></path><path d="M67.6101 17.75C67.4601 17.62 67.3001 17.56 67.1001 17.56C66.8901 17.56 66.7201 17.62 66.5801 17.75C66.4301 17.9 66.3501 18.07 66.3501 18.27C66.3501 18.47 66.4201 18.63 66.5801 18.78C66.7201 18.91 66.8901 18.98 67.1001 18.98C67.3001 18.98 67.4601 18.91 67.6101 18.78C67.7601 18.63 67.8501 18.47 67.8501 18.27C67.8501 18.07 67.7601 17.9 67.6101 17.76" fill="#65B462"></path><path d="M67.46 19.3H67.45C67.34 19.16 67.19 19.1 66.99 19.1C66.79 19.1 66.63 19.16 66.5 19.3C66.36 19.41 66.3 19.58 66.3 19.76L66.25 22.56C66.25 22.73 66.31 22.9 66.45 23.03C66.58 23.16 66.74 23.2 66.94 23.2C67.13 23.2 67.29 23.15 67.43 23.04C67.56 22.89 67.62 22.73 67.62 22.56L67.66 19.76C67.66 19.59 67.6 19.42 67.47 19.3" fill="#65B462"></path><path d="M65.2598 17.54C64.8498 17.43 64.4999 17.38 64.2299 17.38L62.9398 17.52L62.6798 17.47C62.4698 17.47 62.3198 17.55 62.1898 17.67C62.0498 17.81 61.9898 17.96 61.9898 18.14V22.88C61.9798 23.07 62.0398 23.24 62.1498 23.37H62.1598C62.2698 23.5 62.4298 23.56 62.6198 23.56C62.8098 23.56 62.9798 23.5 63.1298 23.37C63.2698 23.25 63.3498 23.07 63.3498 22.88V20.9L64.0098 20.79L65.0798 20.83C65.2698 20.83 65.4198 20.78 65.5498 20.66C65.6898 20.52 65.7498 20.36 65.7598 20.17C65.7698 19.77 65.5598 19.55 65.1398 19.5L64.0098 19.44L63.3498 19.5V18.82L63.7598 18.77H63.7798L64.2299 18.75C64.6299 18.74 64.9698 18.77 65.2498 18.87L65.4998 18.92C65.6698 18.92 65.8398 18.85 65.9598 18.71H65.9799C66.0999 18.58 66.1698 18.41 66.1698 18.24C66.2098 17.95 65.9198 17.73 65.2798 17.56H65.2698" fill="#125EA9"></path><path d="M61.8401 19.86C61.8401 19.69 61.7701 19.53 61.6101 19.39C61.4701 19.28 61.3101 19.22 61.1401 19.22C60.8901 19.22 60.7001 19.33 60.5601 19.57C60.4001 19.83 60.2201 20.13 60.0701 20.49L59.8101 21.09C59.4501 20.38 59.1301 19.85 58.8501 19.49C58.7101 19.3 58.5401 19.22 58.3301 19.22C58.1601 19.22 57.9901 19.28 57.8601 19.42H57.8501C57.7101 19.56 57.6401 19.73 57.6401 19.91L57.6901 20.14L57.7701 20.29L57.9301 20.57H57.9401L59.0901 22.65C58.6001 23.69 58.3801 24.32 58.3801 24.54C58.3801 24.73 58.4601 24.89 58.6101 25.01C58.7301 25.12 58.8901 25.18 59.0801 25.18C59.3801 25.18 59.6001 25.04 59.7101 24.73L59.9401 24.09C60.0901 23.7 60.3101 23.22 60.5801 22.63L61.7801 20.19C61.8401 20.07 61.8701 19.97 61.8701 19.87" fill="#EE4633"></path><path d="M55.43 20.22C55.56 20.17 55.66 20.14 55.77 20.13C55.97 20.13 56.12 20.19 56.24 20.34H56.25C56.36 20.51 56.41 20.73 56.41 20.96C56.41 21.19 56.35 21.4 56.2 21.54V21.56C56.05 21.72 55.86 21.79 55.62 21.79C55.45 21.78 55.25 21.74 55.02 21.65V20.44C55.17 20.33 55.3 20.25 55.42 20.21L55.43 20.22ZM57.22 19.5C56.84 19.07 56.36 18.84 55.76 18.84L55.25 18.93L55.03 19V18.02L55.05 17.73C55.05 17.33 54.85 17.11 54.47 17.12C54.23 17.11 54.04 17.23 53.92 17.48H53.9C53.81 17.63 53.77 17.82 53.77 18.02L53.75 22.41C53.75 22.58 53.83 22.73 53.95 22.86C54.08 22.99 54.21 23.05 54.4 23.05C54.53 23.05 54.65 23.01 54.76 22.95C55.04 23.05 55.33 23.09 55.63 23.09C56.23 23.09 56.73 22.89 57.14 22.47C57.54 22.06 57.74 21.56 57.74 20.98C57.74 20.69 57.7 20.43 57.61 20.18C57.52 19.93 57.39 19.71 57.21 19.51H57.22" fill="#F89B34"></path><path d="M52.03 20.43L51.99 20.86C51.99 21.11 52.03 21.48 52.08 21.98L51.87 22.09H51.88L51.54 22.14C51.39 22.14 51.29 22.09 51.23 22C51.14 21.86 51.09 21.68 51.09 21.43C51.09 21.17 51.19 20.92 51.38 20.72C51.57 20.52 51.78 20.42 52.03 20.42V20.43ZM53.34 21.13L53.36 20.67L53.38 20.4C53.44 20.32 53.48 20.23 53.48 20.11C53.49 19.83 53.28 19.6 52.84 19.4C52.52 19.26 52.24 19.19 51.99 19.19C51.37 19.19 50.83 19.42 50.39 19.84C49.94 20.28 49.71 20.8 49.71 21.41C49.71 22.07 49.87 22.55 50.18 22.86H50.19C50.49 23.2 50.96 23.37 51.57 23.38L52.03 23.29H52.04L52.49 23.1C52.72 23.3 52.91 23.39 53.02 23.38C53.18 23.37 53.34 23.32 53.48 23.22H53.49C53.62 23.09 53.68 22.94 53.68 22.76C53.69 22.72 53.64 22.57 53.53 22.35H53.54L53.39 22C53.33 21.83 53.3 21.54 53.3 21.13" fill="#65B462"></path><path d="M46.8498 21.82V20.99H47.5498C47.6998 21 47.8598 21.07 48.0398 21.16C48.1998 21.25 48.2898 21.35 48.3198 21.45L47.8698 21.62C47.5098 21.72 47.1698 21.79 46.8598 21.82H46.8498ZM47.7198 18.76C47.8498 18.86 47.9398 18.96 47.9398 19.07C47.9298 19.39 47.6398 19.58 47.0898 19.63H46.8398V18.56H47.1598C47.3598 18.56 47.5298 18.62 47.7098 18.76H47.7198ZM49.3098 19.07C49.3198 18.51 49.0498 18.05 48.5198 17.69C48.0898 17.38 47.6398 17.22 47.1598 17.22L46.2698 17.31C45.7798 17.37 45.5098 17.55 45.4798 17.87V22.45C45.4698 22.64 45.5598 22.8 45.7098 22.96C45.8598 23.12 46.0298 23.19 46.2298 23.19C47.0598 23.19 47.7598 23.09 48.3298 22.88C48.5798 22.78 48.8398 22.65 49.0698 22.45H49.0798C49.4598 22.13 49.6598 21.78 49.6498 21.43V21.41C49.6498 21.13 49.5398 20.84 49.3098 20.57C49.1698 20.41 49.0298 20.27 48.8798 20.16L49.1298 19.84C49.2398 19.63 49.2898 19.38 49.2898 19.08" fill="#125EA9"></path></svg>