<svg xmlns="http://www.w3.org/2000/svg" width="100" height="40" viewBox="0 0 100 40" fill="none"><path d="M17.0098 12.54C17.0698 12.54 17.1298 12.54 17.1798 12.54C17.8198 12.54 18.4698 12.54 19.1098 12.54C19.5598 12.54 20.0198 12.58 20.4698 12.61C20.9498 12.65 21.4298 12.69 21.9098 12.76C22.3698 12.82 22.8398 12.89 23.2898 13.02C23.7098 13.14 24.1298 13.24 24.5498 13.36C25.1898 13.56 25.7798 13.84 26.3198 14.24C26.6498 14.48 26.9398 14.77 27.1798 15.1C27.6698 15.79 27.7998 16.54 27.5198 17.34C27.3798 17.74 27.1298 18.07 26.8398 18.37C26.3598 18.86 25.7898 19.22 25.1598 19.48C25.0798 19.51 24.9898 19.55 24.9098 19.59C24.8698 19.61 24.8398 19.64 24.7898 19.68C24.8798 19.71 24.9398 19.74 24.9998 19.76C25.8998 20.04 26.7198 20.47 27.4298 21.1C27.8198 21.45 28.1398 21.85 28.3098 22.35C28.4898 22.87 28.4698 23.39 28.2898 23.9C28.1398 24.33 27.8698 24.69 27.5398 25.01C27.1098 25.42 26.6198 25.74 26.0898 26.02C25.3798 26.39 24.6298 26.62 23.8598 26.82C23.2598 26.98 22.6498 27.09 22.0398 27.18C21.3798 27.28 20.7198 27.33 20.0498 27.38C19.1898 27.44 18.3198 27.45 17.4598 27.45C17.3598 27.45 17.2598 27.45 17.1598 27.45C17.0598 27.45 17.0298 27.42 17.0298 27.32C17.0298 27.17 17.0298 27.02 17.0298 26.87C17.0298 22.45 17.0298 18.04 17.0298 13.62C17.0298 13.32 17.0298 13.01 17.0298 12.71C17.0298 12.66 17.0298 12.62 17.0298 12.56L17.0098 12.54ZM19.4798 20.56C19.4798 20.62 19.4798 20.65 19.4798 20.68C19.4798 22.18 19.4798 23.69 19.4798 25.19C19.4798 25.3 19.4798 25.41 19.4798 25.52C19.4798 25.61 19.5198 25.65 19.5998 25.64C20.1298 25.6 20.6698 25.57 21.1998 25.5C22.0098 25.4 22.8098 25.27 23.5798 25.01C23.7698 24.95 23.9598 24.9 24.1398 24.83C24.5198 24.68 24.8898 24.49 25.2198 24.25C25.4198 24.1 25.5998 23.93 25.7498 23.72C25.9398 23.45 25.9998 23.15 25.9098 22.82C25.8498 22.62 25.7298 22.46 25.5898 22.31C25.2998 22 24.9498 21.78 24.5698 21.6C23.7298 21.2 22.8398 20.96 21.9298 20.81C21.1798 20.69 20.4198 20.61 19.6598 20.55C19.6098 20.55 19.5598 20.55 19.4898 20.55L19.4798 20.56ZM19.4798 14.3C19.4798 14.3 19.4798 14.38 19.4798 14.41C19.4798 15.72 19.4798 17.04 19.4798 18.35C19.4798 18.44 19.4798 18.52 19.4798 18.61C19.4798 18.68 19.5098 18.72 19.5798 18.72C19.6198 18.72 19.6598 18.72 19.6998 18.72C19.9298 18.71 20.1498 18.71 20.3798 18.69C20.7898 18.65 21.1998 18.63 21.5998 18.57C22.0298 18.5 22.4598 18.42 22.8898 18.32C23.4498 18.19 23.9798 17.99 24.4598 17.68C24.7298 17.5 24.9498 17.27 25.0898 16.98C25.1898 16.77 25.2498 16.55 25.1698 16.32C25.0998 16.09 24.9798 15.89 24.7998 15.72C24.5398 15.48 24.2498 15.28 23.9198 15.13C23.3298 14.88 22.7198 14.69 22.0898 14.58C21.6098 14.5 21.1198 14.44 20.6398 14.38C20.3098 14.34 19.9898 14.32 19.6598 14.29C19.5998 14.29 19.5298 14.29 19.4598 14.29L19.4798 14.3Z" fill="#01594B"></path><path d="M69.6602 27.46C69.6602 27.24 69.6602 27.05 69.6602 26.86C69.6602 24.87 69.6602 22.89 69.6602 20.9C69.6602 19.4 69.6602 17.89 69.6602 16.39C69.6602 16.09 69.6802 16.14 69.9102 16.14C70.3502 16.14 70.8002 16.14 71.2402 16.14C71.2702 16.14 71.3101 16.14 71.3401 16.14C71.5001 16.14 71.5201 16.17 71.5201 16.33C71.5201 16.5 71.5201 16.68 71.5201 16.85C71.5201 16.9 71.5402 16.95 71.5502 17.02C71.6002 16.98 71.6302 16.95 71.6502 16.93C71.9702 16.54 72.3702 16.28 72.8202 16.08C73.3102 15.86 73.8302 15.81 74.3502 15.88C74.9802 15.95 75.5302 16.21 75.9802 16.65C76.1402 16.81 76.2902 16.98 76.4102 17.18C76.4702 17.29 76.4902 17.3 76.6202 17.35C76.6402 17.33 76.6602 17.31 76.6702 17.28C76.7902 17.04 76.9702 16.86 77.1702 16.69C77.5102 16.4 77.8902 16.19 78.3102 16.04C78.6701 15.91 79.0302 15.84 79.4002 15.85C80.2502 15.89 80.9701 16.2 81.5201 16.86C81.7301 17.1 81.8802 17.39 81.9902 17.69C82.1402 18.11 82.2402 18.54 82.2502 18.99C82.2602 19.47 82.2901 19.96 82.3102 20.44C82.3702 21.99 82.3302 23.53 82.3302 25.08C82.3302 25.62 82.3002 26.16 82.2902 26.7C82.2902 26.88 82.2902 27.07 82.2902 27.25C82.2902 27.31 82.2801 27.37 82.2701 27.44C82.2101 27.44 82.1502 27.45 82.1002 27.45C81.5502 27.45 81.0102 27.45 80.4602 27.46C80.2902 27.46 80.2701 27.44 80.2701 27.27C80.2701 26.54 80.2701 25.81 80.2701 25.08C80.2701 23.62 80.2701 22.15 80.2701 20.69C80.2701 20.29 80.2602 19.89 80.2402 19.49C80.2302 19.15 80.1302 18.84 79.9302 18.56C79.7002 18.24 79.4002 18.03 79.0002 17.97C78.7802 17.94 78.5702 17.97 78.3602 18.06C77.9902 18.21 77.6902 18.45 77.4702 18.79C77.2002 19.22 77.0602 19.69 77.0402 20.2C76.9502 22.3 77.0102 24.39 76.9902 26.49C76.9902 26.75 76.9902 27.01 76.9902 27.27C76.9902 27.45 76.9702 27.46 76.8002 27.46C76.2602 27.46 75.7302 27.46 75.1902 27.46C75.1602 27.46 75.1201 27.46 75.0901 27.46C74.9801 27.46 74.9602 27.44 74.9602 27.33C74.9602 27.02 74.9602 26.7 74.9602 26.39C74.9602 24.53 74.9502 22.66 74.9402 20.8C74.9402 20.38 74.9402 19.96 74.9402 19.54C74.9402 19.29 74.8902 19.05 74.8002 18.82C74.6002 18.34 74.2302 18.07 73.7402 17.97C73.5002 17.92 73.2702 17.97 73.0502 18.07C72.5302 18.31 72.1802 18.7 71.9702 19.23C71.8602 19.52 71.8002 19.81 71.7802 20.12C71.7502 20.58 71.7201 21.05 71.7001 21.51C71.6301 22.79 71.6702 24.08 71.6702 25.36C71.6702 25.98 71.7002 26.6 71.7202 27.21C71.7202 27.46 71.7202 27.46 71.4702 27.46C70.9502 27.46 70.4302 27.46 69.9002 27.46C69.8302 27.46 69.7602 27.46 69.6602 27.44V27.46Z" fill="#01594B"></path><path d="M59.73 21.69C59.73 21.25 59.75 20.82 59.84 20.39C60.04 19.39 60.39 18.46 61.02 17.65C61.31 17.28 61.63 16.93 62.02 16.67C62.41 16.4 62.83 16.18 63.29 16.05C63.88 15.88 64.47 15.87 65.07 15.98C65.62 16.08 66.11 16.33 66.57 16.65C67.2 17.09 67.68 17.66 68.06 18.33C68.5 19.12 68.79 19.97 68.87 20.88C68.9 21.19 68.93 21.5 68.92 21.8C68.9 22.79 68.7 23.75 68.26 24.64C67.97 25.23 67.61 25.77 67.14 26.23C66.63 26.73 66.03 27.1 65.34 27.3C64.55 27.52 63.77 27.5 63.01 27.19C62.17 26.84 61.47 26.3 60.93 25.55C60.3 24.67 59.95 23.69 59.81 22.63C59.77 22.32 59.77 22 59.75 21.69H59.73ZM66.96 21.69C66.94 21.43 66.93 21.17 66.9 20.91C66.81 20.24 66.55 19.63 66.2 19.06C65.95 18.65 65.6 18.32 65.18 18.09C64.81 17.89 64.41 17.79 63.98 17.88C63.57 17.96 63.23 18.18 62.93 18.46C62.37 18.98 62.05 19.64 61.85 20.36C61.7 20.93 61.66 21.51 61.71 22.1C61.73 22.42 61.79 22.74 61.87 23.05C61.95 23.36 62.08 23.66 62.24 23.95C62.53 24.47 62.88 24.94 63.41 25.24C63.95 25.55 64.5 25.58 65.06 25.33C65.38 25.19 65.66 24.96 65.9 24.7C66.22 24.35 66.43 23.94 66.6 23.51C66.83 22.92 66.96 22.32 66.96 21.69Z" fill="#01594B"></path><path d="M59.0002 19.09C58.9202 19.1 58.8402 19.12 58.7702 19.12C58.2702 19.12 57.7702 19.12 57.2602 19.12C57.2202 19.12 57.1802 19.12 57.1402 19.12C57.0602 19.12 57.0202 19.07 57.0102 18.99C57.0002 18.9 56.9702 18.82 56.9602 18.73C56.8802 18.33 56.6202 18.08 56.2502 17.95C55.6802 17.75 55.1302 17.83 54.6302 18.2C54.4902 18.3 54.4302 18.44 54.4002 18.61C54.3402 19.05 54.4602 19.43 54.8002 19.73C54.9302 19.84 55.0602 19.96 55.2002 20.04C55.6202 20.29 56.0602 20.53 56.4902 20.76C57.0002 21.04 57.5202 21.32 57.9602 21.71C58.3902 22.09 58.7402 22.54 58.9202 23.1C59.1602 23.86 59.1202 24.6 58.8202 25.34C58.5402 26.03 58.0602 26.54 57.4202 26.91C57.0002 27.15 56.5402 27.31 56.0602 27.38C55.2402 27.51 54.4502 27.39 53.7202 26.98C53.0602 26.61 52.5902 26.07 52.3002 25.37C52.1102 24.91 52.0202 24.43 51.9702 23.94C51.9502 23.7 51.9702 23.69 52.2102 23.7C52.7202 23.71 53.2302 23.71 53.7502 23.72C53.8002 23.72 53.8502 23.72 53.9202 23.72C53.9202 23.78 53.9302 23.84 53.9402 23.9C53.9502 24.18 54.0002 24.45 54.1302 24.7C54.4302 25.25 54.9002 25.51 55.5202 25.48C55.7202 25.47 55.9102 25.44 56.1002 25.38C56.4602 25.28 56.7402 25.06 56.9302 24.75C57.1702 24.35 57.2002 23.69 56.7402 23.29C56.4102 22.99 56.0402 22.75 55.6402 22.54C55.0702 22.23 54.4802 21.94 53.9402 21.57C53.5102 21.28 53.1302 20.93 52.8602 20.47C52.4002 19.69 52.2802 18.86 52.5502 17.99C52.6402 17.68 52.7802 17.39 52.9602 17.13C53.1802 16.82 53.4802 16.59 53.8102 16.4C54.2402 16.16 54.7002 16 55.1902 15.95C55.8302 15.88 56.4702 15.92 57.0702 16.18C57.4802 16.36 57.8402 16.62 58.1502 16.95C58.6102 17.45 58.8502 18.05 58.9302 18.72C58.9402 18.81 58.9602 18.89 58.9702 18.98C58.9702 19.02 58.9702 19.05 58.9702 19.11L59.0002 19.09Z" fill="#01594B"></path><path d="M49.1098 19.1C49.0798 18.95 49.0698 18.83 49.0398 18.71C48.9098 18.23 48.5698 17.99 48.0998 17.89C47.7898 17.82 47.4898 17.85 47.1798 17.95C46.9498 18.02 46.7698 18.15 46.6098 18.33C46.5298 18.41 46.4898 18.52 46.4698 18.63C46.4098 19.1 46.5498 19.5 46.9198 19.8C47.2598 20.07 47.6298 20.28 48.0098 20.48C48.4398 20.71 48.8698 20.93 49.2898 21.19C49.8198 21.51 50.2998 21.88 50.6398 22.41C50.8298 22.7 50.9698 23.01 51.0298 23.35C51.1398 23.89 51.1498 24.43 50.9998 24.96C50.7598 25.81 50.2598 26.46 49.4998 26.9C48.9898 27.19 48.4498 27.34 47.8698 27.4C47.2798 27.46 46.7098 27.38 46.1698 27.15C45.2898 26.78 44.6598 26.16 44.3298 25.25C44.1798 24.86 44.0898 24.46 44.0498 24.04C44.0498 23.95 44.0498 23.86 44.0498 23.77C44.0498 23.7 44.0998 23.67 44.1698 23.68C44.2698 23.68 44.3598 23.71 44.4598 23.71C44.9198 23.71 45.3798 23.71 45.8398 23.71C45.9598 23.71 45.9898 23.73 45.9998 23.86C46.0198 24.18 46.0698 24.49 46.2398 24.76C46.4498 25.11 46.7398 25.38 47.1598 25.44C47.6798 25.52 48.1898 25.46 48.6298 25.15C49.0798 24.84 49.2298 24.39 49.1598 23.86C49.1298 23.67 49.0298 23.5 48.8898 23.35C48.6598 23.12 48.4098 22.92 48.1198 22.76C47.6998 22.52 47.2698 22.3 46.8498 22.06C46.2998 21.75 45.7598 21.42 45.3198 20.95C44.9998 20.61 44.7798 20.22 44.6298 19.79C44.5798 19.65 44.5598 19.51 44.5398 19.37C44.4598 18.7 44.5198 18.05 44.8398 17.44C45.0298 17.08 45.2998 16.79 45.6398 16.56C46.1398 16.22 46.6898 16 47.2898 15.94C47.9998 15.86 48.6998 15.92 49.3498 16.26C50.2498 16.74 50.7898 17.49 50.9798 18.5C51.0098 18.65 51.0198 18.81 51.0298 18.96C51.0298 19.11 51.0098 19.13 50.8698 19.13C50.3598 19.13 49.8498 19.13 49.3298 19.13C49.2498 19.13 49.1798 19.12 49.0998 19.11L49.1098 19.1Z" fill="#01594B"></path><path d="M31.5599 13.71C31.5599 13.87 31.5799 14.03 31.5799 14.18C31.5799 15.86 31.5799 17.54 31.5799 19.22C31.5799 21.9 31.5799 24.57 31.5799 27.25C31.5799 27.27 31.5799 27.29 31.5799 27.31C31.5799 27.44 31.5499 27.47 31.4199 27.47C30.9899 27.47 30.5499 27.47 30.1199 27.47C30.0199 27.47 29.9199 27.47 29.8199 27.47C29.7599 27.47 29.6999 27.45 29.6299 27.44C29.6299 27.38 29.6299 27.34 29.6299 27.3C29.6299 27.07 29.6499 26.84 29.6499 26.61C29.6499 22.49 29.6499 18.36 29.6499 14.24C29.6499 14.1 29.6499 13.97 29.6499 13.83C29.6499 13.72 29.6899 13.69 29.7899 13.69C30.1499 13.69 30.4999 13.7 30.8599 13.7C31.0399 13.7 31.2199 13.69 31.3999 13.68C31.4599 13.68 31.5099 13.69 31.5799 13.7L31.5599 13.71Z" fill="#01594B"></path><path d="M41.6702 22.44C41.3002 22.44 40.9402 22.38 40.5802 22.32C40.1402 22.24 39.7002 22.15 39.2602 22.06C39.1402 22.03 39.0302 21.98 38.9302 21.92C38.8302 21.86 38.8202 21.8 38.8702 21.7C38.9002 21.63 38.9502 21.57 39.0002 21.51C39.3102 21.16 39.6302 20.8 39.9502 20.45C40.2602 20.1 40.5902 19.77 41.0002 19.52C41.3302 19.31 41.6802 19.15 42.0702 19.12C42.7102 19.08 43.2202 19.3 43.6002 19.83C43.7102 19.98 43.7702 20.15 43.7902 20.34C43.8602 21.05 43.5902 21.63 43.0502 22.08C42.8202 22.27 42.5402 22.39 42.2302 22.41C42.0502 22.42 41.8602 22.43 41.6802 22.45L41.6702 22.44Z" fill="#01594B"></path><path d="M40.8802 17.81C40.8802 18.29 40.7202 18.69 40.4402 19.06C40.2202 19.36 39.9502 19.61 39.6502 19.82C39.2502 20.11 38.8402 20.38 38.4402 20.66C38.3302 20.73 38.2402 20.73 38.1402 20.63C38.0802 20.57 38.0302 20.5 37.9902 20.42C37.7302 19.99 37.5702 19.52 37.4802 19.03C37.3802 18.49 37.4502 17.97 37.6202 17.46C37.7702 17.03 38.0402 16.68 38.4202 16.44C38.8502 16.17 39.3302 16.08 39.8202 16.23C40.3202 16.38 40.6202 16.75 40.7702 17.24C40.8302 17.42 40.8402 17.61 40.8702 17.79L40.8802 17.81Z" fill="#01594B"></path><path d="M38.3899 23.35C38.4099 23.2 38.4199 23.03 38.4499 22.86C38.4799 22.71 38.5199 22.67 38.6799 22.67C38.8099 22.67 38.9499 22.68 39.0799 22.7C39.5599 22.75 40.0499 22.79 40.5299 22.87C40.9599 22.94 41.3699 23.09 41.7199 23.38C42.3199 23.87 42.5699 24.72 42.2699 25.43C42.1399 25.74 41.8999 25.96 41.5999 26.11C41.0499 26.38 40.4999 26.37 39.9599 26.09C39.5399 25.88 39.2099 25.57 38.9399 25.19C38.6399 24.76 38.4699 24.29 38.4199 23.77C38.4099 23.64 38.3999 23.51 38.3799 23.36L38.3899 23.35Z" fill="#01594B"></path><path d="M34.0098 20.58C34.7098 20.6 35.3298 20.78 35.8998 21.14C36.1098 21.28 36.3098 21.43 36.4798 21.61C36.5098 21.64 36.5398 21.66 36.5598 21.69C36.7598 21.96 36.7698 22.03 36.5098 22.28C36.3298 22.45 36.1398 22.61 35.9498 22.77C35.6598 23.01 35.3698 23.26 35.0398 23.46C34.6698 23.69 34.2698 23.85 33.8298 23.85C33.2598 23.85 32.7698 23.65 32.3898 23.22C32.0698 22.86 31.9698 22.44 32.0998 21.96C32.2198 21.5 32.4698 21.13 32.8598 20.87C33.0898 20.72 33.3398 20.66 33.6098 20.61C33.7498 20.59 33.8898 20.58 33.9998 20.57L34.0098 20.58Z" fill="#01594B"></path><path d="M38.1502 25.19C38.1702 25.64 38.0602 26.05 37.7902 26.41C37.5702 26.71 37.2902 26.93 36.9402 27.06C36.4302 27.26 35.9702 27.16 35.5502 26.83C35.0202 26.4 34.8302 25.84 34.9002 25.18C34.9802 24.49 35.2802 23.91 35.8002 23.45C36.1702 23.13 36.5902 22.88 37.0602 22.73C37.1602 22.7 37.2602 22.69 37.3602 22.68C37.4902 22.68 37.5502 22.73 37.5902 22.86C37.7102 23.25 37.8302 23.63 37.9502 24.02C38.0702 24.4 38.1502 24.79 38.1402 25.19H38.1502Z" fill="#01594B"></path><path d="M36.9999 19.34C37.0099 19.77 37.0299 20.2 37.1099 20.62C37.1299 20.74 37.1299 20.85 37.0699 20.96C37.0399 21.01 36.9899 21.05 36.9299 21.04C36.8399 21.03 36.7299 21.02 36.6499 20.98C36.2599 20.79 35.8799 20.6 35.4999 20.4C35.2199 20.25 34.9399 20.08 34.6699 19.91C34.4999 19.8 34.3299 19.67 34.1799 19.53C33.8499 19.22 33.6999 18.83 33.7099 18.37C33.7099 17.9 33.8399 17.47 34.1499 17.1C34.4599 16.72 34.8599 16.56 35.3399 16.63C35.9499 16.71 36.3699 17.05 36.6399 17.6C36.8399 18 36.9399 18.42 36.9599 18.87C36.9599 19.03 36.9899 19.2 36.9999 19.36V19.34Z" fill="#01594B"></path><path d="M37.1699 21.67C37.1799 21.48 37.2199 21.31 37.3699 21.17C37.5599 20.99 37.9399 20.96 38.1499 21.11C38.4399 21.32 38.5599 21.73 38.3199 22.07C37.9999 22.51 37.4199 22.32 37.2599 22.01C37.2099 21.91 37.1999 21.79 37.1799 21.68L37.1699 21.67Z" fill="#01594B"></path></svg>