<svg xmlns="http://www.w3.org/2000/svg" width="100" height="40" viewBox="0 0 100 40" fill="none"><path d="M21.1599 19.56C21.1599 17.7 21.1599 15.84 21.1599 13.98C21.1599 13.58 21.1199 13.53 20.7499 13.4C20.4899 13.31 20.2299 13.29 19.9599 13.27C19.8699 13.27 19.7799 13.25 19.7099 13.18C19.6399 13.11 19.6599 13.04 19.7499 13.01C19.7999 13 19.8599 13 19.9099 13C21.2099 13 22.5199 13 23.8199 13.01C25.1099 13.01 26.3899 13.01 27.6799 13.04C28.8199 13.06 29.6999 13.56 30.3499 14.48C30.6899 14.97 30.8499 15.53 30.8899 16.13C30.9299 16.6 30.9099 17.06 30.7899 17.51C30.5699 18.33 30.1099 18.99 29.3599 19.42C29.1299 19.55 28.8799 19.66 28.6399 19.78C28.5799 19.81 28.4799 19.82 28.4899 19.91C28.4899 20.01 28.5799 20.03 28.6599 20.06C28.8499 20.12 29.0499 20.17 29.2399 20.23C29.8599 20.43 30.3699 20.79 30.7799 21.29C30.8599 21.38 30.9299 21.48 31.0099 21.57C31.2199 21.8 31.3299 22.07 31.3799 22.37C31.4299 22.68 31.4899 22.99 31.5199 23.31C31.5699 23.81 31.5199 24.3 31.3799 24.78C31.2899 25.09 31.1199 25.36 30.9299 25.61C30.8199 25.75 30.6999 25.88 30.5799 26C30.1399 26.47 29.5699 26.68 28.9499 26.8C28.6599 26.86 28.3599 26.89 28.0599 26.88C27.8199 26.88 27.5699 26.88 27.3299 26.88C26.1399 26.88 24.9499 26.89 23.7699 26.9C23.0399 26.9 22.3099 26.91 21.5799 26.91C20.6799 26.91 19.8099 26.72 18.9799 26.38C18.7399 26.28 18.5199 26.14 18.2899 26C18.1899 25.94 18.1099 25.84 18.0299 25.75C17.8499 25.55 17.6699 25.35 17.4799 25.16C17.0599 24.72 16.9299 24.19 16.9899 23.61C17.0299 23.18 17.2499 22.84 17.6299 22.62C17.7599 22.54 17.8799 22.47 18.0099 22.4C18.0499 22.38 18.0999 22.36 18.1499 22.35C18.5699 22.29 18.9799 22.29 19.3899 22.45C19.7499 22.59 20.0099 22.83 20.2199 23.14C20.2999 23.25 20.3399 23.41 20.3599 23.55C20.3899 23.82 20.3799 24.09 20.3099 24.35C20.1699 24.86 19.8499 25.19 19.3099 25.27C19.0699 25.31 18.8299 25.32 18.5799 25.34C18.3899 25.36 18.3599 25.4 18.4099 25.58C18.4699 25.79 18.5999 25.95 18.7899 26.05C18.9599 26.14 19.1299 26.22 19.3099 26.28C19.6099 26.37 19.9099 26.46 20.2099 26.52C20.4499 26.57 20.6899 26.52 20.9299 26.46C21.0999 26.41 21.1799 26.29 21.1799 26.12C21.1799 25.89 21.1799 25.67 21.1799 25.44C21.1799 25.26 21.1599 25.09 21.1599 24.91C21.1599 23.12 21.1599 21.34 21.1599 19.55V19.56ZM27.0999 23.34C27.0799 22.83 27.0699 22.32 27.0399 21.82C27.0199 21.55 26.9699 21.28 26.8999 21.01C26.7999 20.63 26.5299 20.41 26.1599 20.29C25.8699 20.2 25.5699 20.22 25.2699 20.19C25.0599 20.17 24.8399 20.19 24.6299 20.19C24.5099 20.19 24.4799 20.22 24.4599 20.34C24.4599 20.39 24.4599 20.45 24.4599 20.5C24.4599 20.73 24.4799 20.96 24.4799 21.19C24.4799 21.67 24.4899 22.15 24.4799 22.63C24.4799 23.78 24.4599 24.93 24.4499 26.08C24.4499 26.12 24.4499 26.15 24.4499 26.19C24.4499 26.26 24.4799 26.31 24.5599 26.32C24.6599 26.33 24.7499 26.35 24.8499 26.35C25.1499 26.35 25.4599 26.33 25.7599 26.31C25.8599 26.31 25.9699 26.29 26.0699 26.27C26.4199 26.18 26.7299 26.05 26.8499 25.67C26.9399 25.37 27.0199 25.07 27.0299 24.76C27.0499 24.29 27.0699 23.81 27.0899 23.34H27.0999ZM24.4799 16.69C24.4799 16.69 24.4899 16.69 24.4999 16.69C24.4899 17.6 24.4799 18.51 24.4599 19.41C24.4599 19.45 24.4599 19.5 24.4599 19.54C24.4799 19.67 24.4999 19.7 24.6299 19.71C24.8999 19.72 25.1799 19.73 25.4499 19.74C25.7299 19.74 25.9999 19.69 26.2599 19.62C26.5299 19.54 26.7299 19.39 26.8199 19.11C26.8699 18.96 26.9299 18.81 26.9599 18.66C27.0099 18.31 27.0599 17.96 27.0699 17.61C27.0699 16.86 27.0499 16.1 27.0299 15.34C27.0299 15.01 26.9599 14.69 26.7999 14.39C26.6199 14.06 26.3699 13.84 25.9799 13.8C25.5899 13.76 25.1899 13.71 24.7999 13.72C24.4899 13.72 24.4799 13.72 24.4799 14.03C24.4799 14.92 24.4799 15.81 24.4799 16.7V16.69Z" fill="#ED1944"></path><path d="M60.4701 26.83C60.4701 26.83 60.4101 26.86 60.3801 26.87C60.3101 26.87 60.2501 26.88 60.1801 26.89C58.8201 26.9 57.4501 26.92 56.0901 26.92C55.9001 26.92 55.7101 26.89 55.5301 26.88C55.4801 26.88 55.4301 26.86 55.3701 26.81C55.4101 26.79 55.4501 26.77 55.4901 26.76C55.6901 26.69 55.8701 26.59 56.0201 26.44C56.1001 26.36 56.1501 26.26 56.1601 26.15C56.1701 25.94 56.1801 25.74 56.1801 25.53C56.1801 23.82 56.1801 22.1 56.1801 20.39C56.1801 18.37 56.1801 16.34 56.1801 14.32C56.1801 14.12 56.1401 13.92 56.1001 13.73C56.0701 13.57 55.9601 13.45 55.8101 13.38C55.6701 13.31 55.5301 13.22 55.3901 13.14C55.3901 13.13 55.3901 13.11 55.3901 13.1C55.4701 13.09 55.5501 13.07 55.6301 13.07C55.7301 13.07 55.8401 13.06 55.9401 13.06C57.1201 13.06 58.2901 13.06 59.4701 13.06C59.7501 13.06 59.7701 13.08 59.7701 13.36C59.7701 14.28 59.7701 15.2 59.7701 16.12C59.7701 16.41 59.7701 16.7 59.7701 17C59.7701 17.06 59.7701 17.12 59.7901 17.18C59.8101 17.29 59.8801 17.33 59.9901 17.33C60.3101 17.33 60.6201 17.33 60.9401 17.36C61.1101 17.37 61.2801 17.43 61.4501 17.48C61.5901 17.52 61.7301 17.57 61.8701 17.61C62.1201 17.68 62.3401 17.82 62.5501 17.96C63.0501 18.27 63.4801 18.66 63.8001 19.15C64.0501 19.53 64.2601 19.93 64.3201 20.39C64.3201 20.45 64.3401 20.51 64.3601 20.57C64.4401 20.8 64.4601 21.05 64.4601 21.29C64.4701 22.75 64.4801 24.2 64.5001 25.66C64.5001 25.85 64.5001 26.04 64.5001 26.23C64.5001 26.45 64.6001 26.61 64.8201 26.69C64.9401 26.73 65.0501 26.78 65.2001 26.84C65.1101 26.91 65.0301 26.91 64.9501 26.91C64.6301 26.91 64.3201 26.91 64.0001 26.92C63.5901 26.92 63.1801 26.94 62.7801 26.94C62.3401 26.94 61.8901 26.93 61.4501 26.92C61.2401 26.92 61.2201 26.89 61.2201 26.68C61.2201 25.71 61.2201 24.74 61.2101 23.77C61.2101 21.98 61.2101 20.2 61.2101 18.41C61.2101 18.24 61.2101 18.07 61.2101 17.9C61.2101 17.74 61.1401 17.61 60.9401 17.61C60.7501 17.61 60.5601 17.59 60.3801 17.58C60.2001 17.58 60.0601 17.66 59.9301 17.76C59.8901 17.79 59.8501 17.86 59.8401 17.91C59.8201 18.02 59.8001 18.13 59.8001 18.23C59.8001 19.54 59.8001 20.85 59.8001 22.16C59.8001 23.14 59.8001 24.12 59.8001 25.1C59.8001 25.42 59.8001 25.73 59.8001 26.05C59.8001 26.34 59.9301 26.55 60.1901 26.68C60.3001 26.73 60.4101 26.79 60.5301 26.85L60.4701 26.83Z" fill="#ED1944"></path><path d="M36.9702 17.14C37.1102 17.08 37.2202 17.06 37.3502 17.09C37.6802 17.16 38.0102 17.15 38.3502 17.11C38.4602 17.1 38.5802 17.1 38.7002 17.1C39.2202 17.1 39.7402 17.1 40.2502 17.1C40.3702 17.1 40.4802 17.09 40.6002 17.08C40.6502 17.08 40.7002 17.08 40.7502 17.08C40.9802 17.09 41.0302 17.14 41.0302 17.37C41.0302 17.61 41.0302 17.85 41.0302 18.08C41.0302 20.58 41.0302 23.08 41.0302 25.58C41.0302 25.74 41.0502 25.91 41.0702 26.07C41.0902 26.23 41.1802 26.34 41.3102 26.44C41.5002 26.57 41.7002 26.64 41.9302 26.63C41.9902 26.63 42.0502 26.63 42.1102 26.64C42.3902 26.67 42.4802 26.6 42.4802 26.31C42.4802 26.12 42.4802 25.93 42.4802 25.74C42.4802 23.41 42.4802 21.07 42.4702 18.74C42.4702 18.49 42.4502 18.24 42.4302 17.99C42.4002 17.69 42.2702 17.44 41.9802 17.31C41.9102 17.28 41.8502 17.23 41.7902 17.19C41.8402 17.08 41.9202 17.08 42.0002 17.08C42.0902 17.08 42.1802 17.09 42.2702 17.11C42.5502 17.17 42.8402 17.15 43.1202 17.11C43.2002 17.11 43.2802 17.09 43.3602 17.09C43.9602 17.09 44.5502 17.09 45.1502 17.1C45.5302 17.11 45.9002 17.1 46.2802 17.06C46.3802 17.05 46.4802 17.06 46.6002 17.14C46.5102 17.18 46.4402 17.2 46.3802 17.24C46.2902 17.29 46.2002 17.34 46.1202 17.4C45.9302 17.54 45.8302 17.74 45.8202 17.98C45.8202 18.14 45.7902 18.31 45.7902 18.47C45.7902 20.79 45.7902 23.11 45.7902 25.44C45.7902 25.65 45.8102 25.85 45.8202 26.06C45.8202 26.22 45.9002 26.34 46.0302 26.43C46.1702 26.52 46.3202 26.61 46.4702 26.7C46.4902 26.71 46.5202 26.73 46.5502 26.75C46.4902 26.82 46.4202 26.8 46.3502 26.8C46.0502 26.8 45.7402 26.8 45.4402 26.8C44.9102 26.8 44.3802 26.82 43.8502 26.82C43.5002 26.82 43.1402 26.82 42.7902 26.82C42.3402 26.82 41.8902 26.8 41.4402 26.79C41.3302 26.79 41.2202 26.75 41.1202 26.73C40.8102 26.65 40.5102 26.57 40.2202 26.44C39.5302 26.15 38.9902 25.68 38.5402 25.1C38.1002 24.52 37.8602 23.85 37.7702 23.13C37.7302 22.84 37.7102 22.55 37.7102 22.26C37.7102 20.97 37.7102 19.69 37.7102 18.4C37.7102 18.19 37.6902 17.97 37.6302 17.77C37.5702 17.57 37.4702 17.42 37.2902 17.32C37.2002 17.27 37.1102 17.21 36.9902 17.14H36.9702Z" fill="#ED1944"></path><path d="M37.2501 26.84C37.1101 26.85 36.9701 26.87 36.8301 26.88C36.5901 26.88 36.3401 26.88 36.1001 26.88C35.0801 26.88 34.0501 26.9 33.0301 26.9C32.7701 26.9 32.5101 26.88 32.2501 26.87C32.2101 26.87 32.1601 26.85 32.1201 26.8C32.1601 26.78 32.2001 26.76 32.2401 26.74C32.3701 26.68 32.4901 26.62 32.6201 26.55C32.7801 26.46 32.8601 26.31 32.8701 26.13C32.8801 25.92 32.9001 25.72 32.9001 25.51C32.9001 22.21 32.9001 18.91 32.9001 15.62C32.9001 15.14 32.8801 14.67 32.8601 14.19C32.8601 14.07 32.8401 13.96 32.8201 13.85C32.7901 13.64 32.6401 13.51 32.4901 13.38C32.4001 13.31 32.3101 13.26 32.2201 13.2C32.1801 13.17 32.1501 13.14 32.0801 13.09C32.1601 13.07 32.2101 13.05 32.2601 13.05C32.3901 13.05 32.5301 13.04 32.6601 13.04C33.8201 13.04 34.9801 13.04 36.1301 13.04C36.4501 13.04 36.4601 13.04 36.4601 13.37C36.4601 13.93 36.4601 14.49 36.4601 15.05C36.4601 15.57 36.4601 16.09 36.4601 16.6C36.4601 16.91 36.4401 17.22 36.4401 17.53C36.4401 20.01 36.4501 22.49 36.4601 24.97C36.4601 25.23 36.4401 25.49 36.4401 25.76C36.4401 25.91 36.4601 26.06 36.4701 26.22C36.4701 26.32 36.5301 26.4 36.6101 26.47C36.8101 26.63 37.0401 26.72 37.2801 26.84H37.2501Z" fill="#ED1944"></path><path d="M68.8202 24.01C68.8202 24.66 68.8202 25.3 68.8202 25.95C68.8202 26.1 68.8602 26.24 68.9402 26.36C69.0302 26.5 69.1602 26.57 69.3202 26.58C69.5802 26.58 69.8302 26.57 70.0902 26.58C70.4002 26.61 70.7002 26.58 71.0002 26.53C71.2302 26.49 71.4502 26.4 71.6402 26.27C71.7102 26.22 71.7802 26.15 71.7802 26.05C71.7802 25.94 71.7302 25.87 71.6102 25.82C71.4202 25.73 71.2102 25.66 71.0302 25.55C70.5102 25.23 70.1302 24.63 70.2602 23.86C70.3102 23.57 70.4302 23.29 70.6602 23.08C70.7702 22.98 70.8702 22.88 70.9902 22.79C71.2902 22.55 71.6502 22.52 72.0102 22.54C72.5102 22.57 72.9002 22.83 73.1702 23.21C73.4302 23.57 73.5502 24 73.4302 24.46C73.3102 24.92 73.0702 25.3 72.7702 25.65C72.5102 25.94 72.2102 26.19 71.9302 26.46C71.9102 26.48 71.8702 26.5 71.8302 26.51C71.5002 26.54 71.1902 26.67 70.8802 26.75C70.7702 26.78 70.6502 26.8 70.5402 26.81C70.1002 26.81 69.6502 26.81 69.2102 26.81C69.1102 26.81 69.0002 26.79 68.9002 26.77C68.3602 26.64 67.8402 26.44 67.3702 26.14C66.6402 25.67 66.1102 25.04 65.8102 24.22C65.6002 23.64 65.4802 23.05 65.5002 22.43C65.5202 21.97 65.5102 21.5 65.5302 21.04C65.5602 20.45 65.7402 19.91 66.0102 19.39C66.3302 18.77 66.8402 18.33 67.3902 17.93C67.6502 17.74 67.9402 17.57 68.2702 17.51C68.4202 17.48 68.5702 17.4 68.7202 17.36C68.8202 17.33 68.9302 17.31 69.0402 17.31C69.3002 17.31 69.5502 17.31 69.8102 17.3C70.3702 17.28 70.8702 17.46 71.3502 17.75C71.6502 17.93 71.9402 18.12 72.2002 18.35C72.7902 18.87 73.1902 19.51 73.3802 20.28C73.4802 20.7 73.5202 21.12 73.5402 21.55C73.5402 21.59 73.5402 21.62 73.5402 21.66C73.5202 21.82 73.4702 21.88 73.3102 21.88C72.9902 21.88 72.6602 21.88 72.3402 21.88C71.7302 21.88 71.1202 21.88 70.5102 21.88C70.3502 21.88 70.1902 21.88 70.0402 21.88C69.7202 21.88 69.3902 21.86 69.0702 21.85C69.0302 21.85 68.9902 21.85 68.9402 21.86C68.8702 21.86 68.8302 21.91 68.8302 21.98C68.8302 22.01 68.8302 22.04 68.8302 22.07C68.8302 22.73 68.8302 23.39 68.8302 24.05L68.8202 24.01ZM68.8202 19.6C68.8202 19.83 68.8202 20.06 68.8202 20.29C68.8202 20.67 68.8202 21.06 68.8202 21.44C68.8202 21.61 68.8402 21.63 69.0102 21.63C69.1802 21.63 69.3502 21.63 69.5202 21.63C69.9002 21.63 70.2402 21.31 70.2402 20.93C70.2402 19.99 70.2402 19.06 70.2402 18.12C70.2402 17.89 69.9702 17.54 69.7402 17.48C69.7102 17.47 69.6702 17.46 69.6302 17.46C69.5302 17.46 69.4202 17.47 69.3202 17.47C69.2302 17.47 69.1402 17.48 69.0502 17.46C68.9502 17.44 68.8902 17.46 68.8602 17.55C68.8302 17.63 68.8102 17.71 68.8102 17.8C68.8102 18.4 68.8102 18.99 68.8102 19.59L68.8202 19.6Z" fill="#ED1944"></path><path d="M54.6799 19.59C54.3499 19.36 54.0599 19.15 53.7699 18.94C53.2299 18.55 52.6699 18.2 52.0999 17.86C51.9299 17.76 51.7599 17.67 51.5899 17.58C51.5399 17.55 51.4799 17.53 51.4299 17.49C51.1399 17.27 50.8199 17.32 50.5099 17.43C50.4199 17.46 50.3399 17.52 50.2599 17.57C49.9599 17.76 49.8999 18.14 50.1299 18.41C50.1699 18.46 50.2199 18.51 50.2699 18.55C50.4399 18.68 50.5999 18.82 50.7699 18.95C51.1199 19.21 51.4799 19.46 51.8399 19.71C52.0099 19.83 52.1999 19.94 52.3699 20.07C52.9299 20.45 53.4499 20.88 53.9699 21.32C54.1999 21.51 54.4199 21.71 54.6399 21.91C54.6699 21.94 54.6899 21.98 54.6999 22.02C54.7299 22.12 54.7499 22.22 54.7999 22.31C54.9599 22.64 55.0399 22.99 55.0899 23.34C55.1599 23.77 55.0899 24.18 54.9199 24.57C54.7799 24.9 54.6199 25.22 54.3699 25.49C54.2399 25.62 54.1099 25.76 53.9599 25.88C53.7799 26.02 53.5899 26.15 53.3899 26.28C53.1199 26.46 52.8199 26.58 52.4999 26.65C52.1299 26.74 51.7499 26.82 51.3799 26.91C50.9099 27.02 50.4499 27.01 49.9899 26.88C49.6199 26.78 49.2499 26.69 48.8799 26.57C48.6299 26.49 48.3899 26.39 48.1599 26.27C47.9899 26.18 47.8299 26.05 47.6999 25.91C47.4599 25.65 47.2199 25.37 47.0099 25.08C46.7499 24.73 46.6699 24.33 46.6899 23.9C46.6999 23.56 46.8799 23.28 47.1199 23.06C47.4199 22.78 47.7799 22.57 48.2099 22.56C48.3699 22.56 48.5399 22.56 48.6999 22.61C49.1699 22.74 49.5599 23 49.8199 23.43C49.8499 23.49 49.8899 23.55 49.8999 23.61C49.9899 24.01 49.9799 24.4 49.8099 24.77C49.6499 25.11 49.3599 25.3 49.0199 25.41C48.8099 25.47 48.5899 25.48 48.3699 25.51C48.2899 25.52 48.2099 25.51 48.1399 25.54C48.0399 25.57 47.9699 25.63 47.9499 25.74C47.9299 25.82 47.9499 25.88 48.0299 25.92C48.4699 26.17 48.9199 26.4 49.4099 26.53C49.7599 26.63 50.1199 26.71 50.4699 26.8C50.7099 26.86 50.9399 26.83 51.1799 26.79C51.5799 26.72 51.9599 26.58 52.3099 26.39C52.6999 26.18 52.9399 25.84 52.9699 25.38C52.9999 24.91 52.8399 24.53 52.4599 24.25C51.9599 23.88 51.4599 23.51 50.9599 23.14C50.5299 22.82 50.0899 22.51 49.6499 22.2C49.2099 21.89 48.7699 21.59 48.3299 21.28C47.9199 20.99 47.5699 20.65 47.3099 20.22C46.9999 19.68 47.0299 19.14 47.2999 18.6C47.3899 18.42 47.5399 18.29 47.6799 18.16C47.8699 18 48.0699 17.85 48.2599 17.69C48.2699 17.68 48.2899 17.67 48.3099 17.66C48.6999 17.46 49.0999 17.28 49.5499 17.27C49.8599 17.27 50.1699 17.21 50.4799 17.18C50.7499 17.15 51.0099 17.12 51.2799 17.19C51.2999 17.19 51.3299 17.2 51.3499 17.2C51.6799 17.2 52.0099 17.2 52.3399 17.21C52.6899 17.21 53.0499 17.21 53.3999 17.21C53.7499 17.21 54.0899 17.22 54.4399 17.23C54.7199 17.23 54.7399 17.25 54.7299 17.54C54.7299 17.72 54.6999 17.9 54.6999 18.09C54.6999 18.35 54.7199 18.61 54.7299 18.88C54.7299 19.02 54.7299 19.16 54.7299 19.3C54.7299 19.39 54.6999 19.47 54.6799 19.59Z" fill="#ED1944"></path><path d="M78.3098 26.79C78.2298 26.79 78.1598 26.8 78.0798 26.8C76.5898 26.83 75.0998 26.84 73.6098 26.78C73.5998 26.78 73.5798 26.76 73.5498 26.74C73.6698 26.68 73.7698 26.63 73.8698 26.59C74.1198 26.48 74.2498 26.3 74.2798 26.03C74.2898 25.87 74.2998 25.71 74.2998 25.56C74.2998 24.13 74.2998 22.71 74.2998 21.28C74.2998 20.35 74.2998 19.43 74.2898 18.5C74.2898 18.34 74.2698 18.17 74.2698 18.01C74.2698 17.74 74.1298 17.54 73.9198 17.38C73.8198 17.31 73.7198 17.25 73.5998 17.18C73.6798 17.12 73.7598 17.12 73.8498 17.13C74.0698 17.15 74.2998 17.18 74.5198 17.19C74.7098 17.19 74.8998 17.19 75.0898 17.19C75.5598 17.19 76.0298 17.18 76.4998 17.19C76.8498 17.19 77.1998 17.22 77.5798 17.24C77.6298 17.3 77.6398 17.39 77.6398 17.48C77.6398 17.64 77.6398 17.8 77.6398 17.96C77.6098 18.39 77.6198 18.81 77.6798 19.24C77.6998 19.43 77.6798 19.63 77.6798 19.82C77.6798 20.09 77.6498 20.36 77.6498 20.62C77.6498 22.17 77.6498 23.72 77.6498 25.27C77.6498 25.53 77.6498 25.79 77.6498 26.06C77.6498 26.3 77.7498 26.5 77.9798 26.6C78.0998 26.65 78.2198 26.72 78.3298 26.78C78.3298 26.79 78.3298 26.81 78.3298 26.82L78.3098 26.79Z" fill="#ED1944"></path><path d="M77.8799 19.11C77.8799 19.11 77.8799 19.01 77.8899 18.97C77.9799 18.66 78.1299 18.39 78.3499 18.16C78.6199 17.88 78.9299 17.69 79.2699 17.52C79.3599 17.47 79.4499 17.4 79.5399 17.37C80.0899 17.23 80.6299 17.12 81.1999 17.29C81.4699 17.37 81.6899 17.53 81.8899 17.72C81.9799 17.81 82.0699 17.9 82.1399 18.01C82.5299 18.65 82.3499 19.58 81.7499 20.03C81.6399 20.11 81.5199 20.2 81.3999 20.26C80.8099 20.58 80.2599 20.48 79.7399 20.09C79.2499 19.72 79.0099 19.22 79.0899 18.59C79.0899 18.57 79.0899 18.55 79.0899 18.54C79.0999 18.34 79.0499 18.22 78.9199 18.17C78.7399 18.11 78.5499 18.17 78.4499 18.31C78.2799 18.53 78.0999 18.74 77.9899 19.01C77.9699 19.05 77.9299 19.08 77.8999 19.12C77.8899 19.12 77.8699 19.12 77.8599 19.11H77.8799Z" fill="#ED1944"></path></svg>