<svg xmlns="http://www.w3.org/2000/svg" width="114" height="30" viewBox="0 0 114 30" fill="none"><path d="M43.8362 21.1735C43.2484 21.452 41.9445 21.8839 40.2893 21.8839C36.5641 21.8839 34.1401 19.3695 34.1401 15.6094C34.1401 11.8251 36.7425 9.05653 40.7744 9.05653C42.1013 9.05653 43.2741 9.38612 43.8821 9.71707L43.3727 11.4189C42.5667 11.0139 41.6729 10.8129 40.7704 10.8337C37.9329 10.8337 36.4074 12.9431 36.4074 15.483C36.4074 18.3283 38.2437 20.0812 40.6933 20.0812C41.6439 20.0917 42.5849 19.8918 43.4484 19.496L43.8362 21.1735Z" fill="#78797B"></path><path d="M46.4642 3.56909H48.7099V11.2655H48.7599C49.1392 10.5962 49.6952 10.0431 50.3677 9.66594C51.0663 9.2652 51.8585 9.05456 52.6647 9.05518C54.324 9.05518 56.9777 10.0722 56.9777 14.2884V21.604H54.7307V14.5426C54.7307 12.561 53.9903 10.9103 51.873 10.9103C50.4191 10.9103 49.2963 11.926 48.8625 13.1206C48.7432 13.4632 48.691 13.8253 48.7085 14.1875V21.604H46.4642V3.56909Z" fill="#78797B"></path><path d="M60.6245 13.1462C60.6245 11.6973 60.5988 10.4556 60.5218 9.30944H62.4878L62.5891 11.7484H62.6661C63.2269 10.0978 64.6051 9.05787 66.1103 9.05787C66.3153 9.06113 66.5197 9.07821 66.7224 9.10899V11.2171C66.4695 11.1731 66.2127 11.1564 65.9563 11.1673C64.3754 11.1673 63.2539 12.335 62.9458 14.0112C62.8939 14.3563 62.8686 14.7049 62.8702 15.0538V21.6067H60.6245V13.1462Z" fill="#78797B"></path><path d="M79.8882 15.3552C79.8882 19.9023 76.6981 21.8839 73.739 21.8839C70.4219 21.8839 67.8195 19.4462 67.8195 15.561C67.8195 11.47 70.5503 9.05787 73.9431 9.05787C77.4899 9.05653 79.8882 11.622 79.8882 15.3552ZM70.1165 15.483C70.1165 18.1736 71.6474 20.2076 73.8404 20.2076C75.9847 20.2076 77.5912 18.2005 77.5912 15.4319C77.5912 13.3493 76.5454 10.7328 73.8917 10.7328C71.2637 10.7328 70.1165 13.1718 70.1165 15.483Z" fill="#78797B"></path><path d="M82.7203 12.6377C82.7203 11.3422 82.6689 10.3251 82.6176 9.30944H84.5836L84.6849 11.3166H84.7619C85.4497 10.1476 86.5982 9.05518 88.6655 9.05518C90.3234 9.05518 91.5989 10.0722 92.1353 11.5198H92.1866C92.5294 10.8894 93.0084 10.3426 93.5891 9.91886C94.3282 9.36056 95.12 9.05653 96.2915 9.05653C97.9494 9.05653 100.373 10.1233 100.373 14.3906V21.604H98.1818V14.6704C98.1818 12.2825 97.2887 10.8848 95.5024 10.8848C94.2012 10.8848 93.2324 11.8265 92.8244 12.8919C92.7086 13.2535 92.648 13.6304 92.6447 14.0099V21.604H90.4504V14.2386C90.4504 12.2825 89.5829 10.8848 87.8737 10.8848C86.4968 10.8848 85.4497 12.0027 85.093 13.1206C84.9659 13.4706 84.9054 13.841 84.9146 14.213V21.604H82.7203V12.6377Z" fill="#78797B"></path><path d="M105.248 15.8637C105.3 18.8866 107.213 20.1309 109.484 20.1309C111.091 20.1309 112.087 19.8511 112.903 19.496L113.308 21.0955C112.518 21.452 111.14 21.8839 109.175 21.8839C105.374 21.8839 103.103 19.3695 103.103 15.6606C103.103 11.9516 105.297 9.05518 108.895 9.05518C112.949 9.05518 113.999 12.561 113.999 14.8224C114.006 15.1712 113.98 15.5199 113.92 15.8637H105.248ZM111.831 14.2601C111.857 12.8637 111.245 10.6534 108.724 10.6534C106.427 10.6534 105.458 12.7103 105.28 14.2601H111.831Z" fill="#78797B"></path><path d="M15.066 22.4967C19.2263 22.4967 22.5988 19.1388 22.5988 14.9967C22.5988 10.8546 19.2263 7.4967 15.066 7.4967C10.9058 7.4967 7.5332 10.8546 7.5332 14.9967C7.5332 19.1388 10.9058 22.4967 15.066 22.4967Z" fill="white"></path><path d="M15.066 7.49996H28.1111C26.7892 5.21957 24.8876 3.3259 22.5975 2.00934C20.3074 0.692784 17.7095 -0.000244704 15.065 -6.09986e-05C12.4206 0.000122707 9.82277 0.693513 7.53285 2.01039C5.24292 3.32726 3.34159 5.2212 2.02002 7.50177L8.54255 18.7499L8.54839 18.7484C7.88487 17.6092 7.53472 16.316 7.53324 14.9991C7.53175 13.6822 7.87898 12.3882 8.53992 11.2475C9.20086 10.1068 10.1522 9.15978 11.2979 8.50185C12.4437 7.84391 13.7434 7.49833 15.066 7.49996Z" fill="url(#paint0_linear_580_6301)"></path><path d="M15.066 20.9374C18.3595 20.9374 21.0295 18.2791 21.0295 14.9999C21.0295 11.7207 18.3595 9.06244 15.066 9.06244C11.7725 9.06244 9.10254 11.7207 9.10254 14.9999C9.10254 18.2791 11.7725 20.9374 15.066 20.9374Z" fill="#1A73E8"></path><path d="M21.5887 18.7517L15.0662 29.9999C17.7106 30.0003 20.3085 29.3074 22.5987 27.991C24.8889 26.6747 26.7907 24.7811 28.1127 22.5009C29.4348 20.2206 30.1306 17.6339 30.1301 15.001C30.1296 12.3681 29.4329 9.7817 28.11 7.50189H15.065L15.0635 7.5077C16.3861 7.50516 17.6861 7.84985 18.8323 8.507C19.9785 9.16416 20.9304 10.1106 21.5922 11.2508C22.2539 12.3911 22.602 13.6848 22.6014 15.0017C22.6008 16.3186 22.2515 17.6121 21.5887 18.7517Z" fill="url(#paint1_linear_580_6301)"></path><path d="M8.5425 18.752L2.01997 7.50378C0.697411 9.78378 0.00107512 12.3703 0.000976573 15.0032C0.000878022 17.6361 0.697021 20.2227 2.01941 22.5028C3.34179 24.7829 5.24381 26.6762 7.53421 27.9922C9.8246 29.3083 12.4226 30.0007 15.0671 30L21.5896 18.7518L21.5854 18.7476C20.9263 19.8893 19.9765 20.8378 18.8318 21.4976C17.6871 22.1573 16.3879 22.5049 15.0652 22.5053C13.7426 22.5058 12.4432 22.1591 11.298 21.5001C10.1529 20.8411 9.20241 19.8932 8.5425 18.752Z" fill="url(#paint2_linear_580_6301)"></path><defs><linearGradient id="paint0_linear_580_6301" x1="2.02002" y1="9.37495" x2="28.1111" y2="9.37495" gradientUnits="userSpaceOnUse"><stop stop-color="#D93025"></stop><stop offset="1" stop-color="#EA4335"></stop></linearGradient><linearGradient id="paint1_linear_580_6301" x1="13.008" y1="29.7994" x2="25.9683" y2="7.25327" gradientUnits="userSpaceOnUse"><stop stop-color="#FCC934"></stop><stop offset="1" stop-color="#FBBC04"></stop></linearGradient><linearGradient id="paint2_linear_580_6301" x1="16.6964" y1="29.0634" x2="3.73612" y2="6.51729" gradientUnits="userSpaceOnUse"><stop stop-color="#1E8E3E"></stop><stop offset="1" stop-color="#34A853"></stop></linearGradient></defs></svg>