<svg xmlns="http://www.w3.org/2000/svg" width="70" height="70" viewBox="0 0 70 70" fill="none"><path d="M17.8335 17.8132C17.8335 17.8132 17.8335 17.8132 17.8335 17.8132L17.8335 17.8132ZM17.8335 17.8132L17.8335 17.8132C17.8335 17.8132 17.8335 17.8132 17.8335 17.8132ZM33.4652 12.8997C33.4652 12.8996 33.4652 12.8996 33.4652 12.8996V12.8997ZM33.5005 12.8995C33.5005 12.8996 33.5005 12.8996 33.5005 12.8997V12.8995ZM17.8132 17.8335C17.8132 17.8335 17.8132 17.8335 17.8132 17.8335L17.8132 17.8335ZM36.2089 65.2948L25.1043 25.1043L65.2912 36.2079L54.1284 42.6319L51.866 43.9338L53.7117 45.7795L67.992 60.0598L60.0598 67.9919L45.8685 53.8007L44.0403 51.9725L42.7301 54.2013L36.2089 65.2948ZM12.8997 33.5005C12.8996 33.5005 12.8996 33.5005 12.8995 33.5005H12.8997ZM12.8996 33.4652C12.8996 33.4652 12.8996 33.4652 12.8997 33.4652H12.8996Z" stroke="#5F0AB2" stroke-width="4"></path></svg>