<svg xmlns="http://www.w3.org/2000/svg" width="585" height="594" viewBox="0 0 585 594" fill="none"><g clip-path="url(#clip0_669_15891)"><rect width="464" height="577" rx="17.1017" transform="matrix(-1 0 0 1 574 17.2241)" fill="#5F0AB2"></rect><rect x="7.26822" y="-7.26822" width="478.536" height="591.536" rx="24.3699" transform="matrix(-1 0 0 1 588.536 17.2241)" stroke="white" stroke-opacity="0.06" stroke-width="14.5364"></rect><mask id="mask0_669_15891" style="mask-type:alpha" maskUnits="userSpaceOnUse" x="95" y="2" width="494" height="530"><rect width="464.311" height="500.224" rx="17.1017" transform="matrix(-1 0 0 1 574.159 17)" fill="#5F0AB2"></rect><rect x="7.26822" y="-7.26822" width="478.847" height="514.761" rx="24.3699" transform="matrix(-1 0 0 1 588.696 17)" stroke="white" stroke-opacity="0.06" stroke-width="14.5364"></rect></mask><g mask="url(#mask0_669_15891)"><g opacity="0.1"><path opacity="0.5" d="M269.372 733.14C227.553 690.768 203.25 714.755 161.431 672.384C119.614 630.013 143.918 606.026 102.112 563.667C60.3059 521.307 35.9902 545.283 -5.82858 502.911C-47.6461 460.54 -23.3418 436.553 -65.1606 394.182C-106.978 351.81 -131.282 375.797 -173.113 333.413C-214.943 291.03 -190.627 267.056 -232.445 224.684" stroke="#FCF9FF" stroke-width="1.71017" stroke-miterlimit="10"></path><path opacity="0.5" d="M744.763 256.133C702.944 213.763 678.64 237.749 636.822 195.378C595.005 153.006 619.308 129.02 577.503 86.6614C535.696 44.3019 511.38 68.2759 469.562 25.9051C427.744 -16.4658 452.048 -40.4524 410.23 -82.8246C368.412 -125.195 344.108 -101.209 302.278 -143.592C260.448 -185.976 284.764 -209.95 242.946 -252.322" stroke="#FCF9FF" stroke-width="1.71017" stroke-miterlimit="10"></path><path opacity="0.5" d="M441.006 554.976C399.188 512.604 374.884 536.591 333.066 494.22C291.247 451.849 315.552 427.863 273.746 385.503C231.939 343.144 207.624 367.119 165.805 324.747C123.987 282.376 148.292 258.389 106.474 216.019C64.6554 173.646 40.3511 197.633 -1.47901 155.25C-43.3091 112.866 -18.9923 88.8922 -60.8111 46.5214" stroke="#FCF9FF" stroke-width="1.71017" stroke-miterlimit="10"></path><path opacity="0.5" d="M595.17 403.025C553.352 360.654 529.048 384.641 487.23 342.27C445.412 299.899 469.716 275.911 427.91 233.553C386.104 191.194 361.788 215.169 319.97 172.797C278.152 130.426 302.456 106.439 260.639 64.0673C218.82 21.6964 194.515 45.6831 152.685 3.29968C110.855 -39.0838 135.172 -63.0578 93.3533 -105.43" stroke="#FCF9FF" stroke-width="1.71017" stroke-miterlimit="10"></path><path opacity="0.5" d="M292.018 706.351C250.2 663.978 225.896 687.966 184.077 645.594C142.259 603.223 166.564 579.237 124.758 536.877C82.9514 494.518 58.6357 518.493 16.817 476.121C-25.0006 433.75 -0.696293 409.763 -42.5138 367.393C-84.3326 325.021 -108.637 349.007 -150.467 306.624C-192.297 264.24 -167.98 240.266 -209.799 197.895" stroke="#FCF9FF" stroke-width="1.71017" stroke-miterlimit="10"></path><path opacity="0.5" d="M671.252 334.359C629.434 291.988 605.13 315.974 563.312 273.604C521.494 231.232 545.798 207.245 503.992 164.887C462.186 122.527 437.87 146.501 396.052 104.13C354.234 61.7595 378.538 37.7729 336.72 -4.5992C294.902 -46.97 270.598 -22.9834 228.769 -65.3668C186.939 -107.75 211.254 -131.726 169.437 -174.096" stroke="#FCF9FF" stroke-width="1.71017" stroke-miterlimit="10"></path><path opacity="0.5" d="M368.099 632.698C326.281 590.326 301.976 614.312 260.159 571.941C218.34 529.571 242.644 505.584 200.838 463.225C159.033 420.865 134.716 444.84 92.8986 402.468C51.0799 360.097 75.3842 336.111 33.5666 293.74C-8.25214 251.368 -32.5564 275.354 -74.3853 232.971C-116.215 190.588 -91.8998 166.614 -133.717 124.243" stroke="#FCF9FF" stroke-width="1.71017" stroke-miterlimit="10"></path><path opacity="0.5" d="M521.659 481.251C479.841 438.88 455.537 462.867 413.719 420.496C371.901 378.125 396.205 354.137 354.399 311.779C312.593 269.419 288.277 293.394 246.459 251.022C204.641 208.652 228.945 184.665 187.127 142.293C145.309 99.9219 121.005 123.909 79.1747 81.5251C37.3446 39.1417 61.6614 15.1676 19.8427 -27.2045" stroke="#FCF9FF" stroke-width="1.71017" stroke-miterlimit="10"></path><path opacity="0.5" d="M218.507 784.576C176.689 742.205 152.385 766.192 110.566 723.82C68.7487 681.449 93.053 657.462 51.2468 615.103C9.4406 572.744 -14.875 596.719 -56.6938 554.348C-98.5113 511.976 -74.207 487.989 -116.026 445.618C-157.843 403.247 -182.148 427.234 -223.978 384.85C-265.808 342.467 -241.491 318.492 -283.31 276.121" stroke="#FCF9FF" stroke-width="1.71017" stroke-miterlimit="10"></path><path opacity="0.5" d="M754.922 242.282C713.104 199.911 688.8 223.897 646.983 181.527C605.164 139.154 629.468 115.168 587.662 72.8095C545.856 30.45 521.54 54.4241 479.722 12.0533C437.904 -30.3176 462.208 -54.3042 420.39 -96.6763C378.572 -139.047 354.268 -115.061 312.437 -157.444C270.607 -199.827 294.924 -223.802 253.105 -266.173" stroke="#FCF9FF" stroke-width="1.71017" stroke-miterlimit="10"></path><path opacity="0.5" d="M451.166 541.125C409.348 498.753 385.044 522.739 343.226 480.368C301.408 437.998 325.712 414.011 283.906 371.651C242.1 329.292 217.783 353.267 175.966 310.895C134.148 268.524 158.451 244.538 116.634 202.167C74.8162 159.795 50.5119 183.781 8.68177 141.398C-33.1484 99.0145 -8.83275 75.0405 -50.6503 32.6697" stroke="#FCF9FF" stroke-width="1.71017" stroke-miterlimit="10"></path><path opacity="0.5" d="M605.33 389.175C563.512 346.803 539.208 370.791 497.389 328.419C455.571 286.048 479.876 262.061 438.07 219.702C396.264 177.342 371.947 201.317 330.129 158.945C288.312 116.574 312.615 92.5878 270.797 50.2169C228.98 7.84485 204.676 31.8315 162.845 -10.5519C121.015 -52.9354 145.331 -76.9094 103.513 -119.28" stroke="#FCF9FF" stroke-width="1.71017" stroke-miterlimit="10"></path><path opacity="0.5" d="M302.179 692.499C260.36 650.128 236.056 674.114 194.238 631.742C152.421 589.372 176.724 565.385 134.919 523.025C93.1125 480.667 68.7956 504.641 26.9781 462.27C-14.8395 419.898 9.46361 395.912 -32.3539 353.541C-74.1715 311.17 -98.4758 335.157 -140.306 292.773C-182.136 250.39 -157.82 226.414 -199.638 184.044" stroke="#FCF9FF" stroke-width="1.71017" stroke-miterlimit="10"></path><path opacity="0.5" d="M681.412 320.507C639.595 278.136 615.29 302.123 573.473 259.751C531.655 217.38 555.959 193.393 514.153 151.034C472.347 108.675 448.03 132.649 406.212 90.2786C364.394 47.9065 388.699 23.9198 346.881 -18.451C305.062 -60.8219 280.758 -36.8352 238.929 -79.2186C197.099 -121.602 221.414 -145.577 179.597 -187.948" stroke="#FCF9FF" stroke-width="1.71017" stroke-miterlimit="10"></path><path opacity="0.5" d="M378.261 618.846C336.443 576.474 312.138 600.461 270.321 558.09C228.502 515.719 252.806 491.732 211 449.373C169.195 407.013 144.878 430.988 103.061 388.616C61.242 346.246 85.5462 322.259 43.7287 279.888C1.90993 237.516 -22.3943 261.503 -64.2232 219.119C-106.053 176.736 -81.7377 152.762 -123.555 110.391" stroke="#FCF9FF" stroke-width="1.71017" stroke-miterlimit="10"></path><path opacity="0.5" d="M531.821 467.399C490.003 425.028 465.699 449.015 423.881 406.644C382.063 364.273 406.367 340.285 364.561 297.927C322.755 255.567 298.44 279.543 256.621 237.171C214.803 194.8 239.108 170.813 197.289 128.441C155.471 86.0702 131.167 110.057 89.3368 67.6735C47.5067 25.29 71.8235 1.31595 30.0047 -41.0562" stroke="#FCF9FF" stroke-width="1.71017" stroke-miterlimit="10"></path><path opacity="0.5" d="M228.668 770.724C186.85 728.352 162.546 752.339 120.727 709.968C78.9098 667.597 103.214 643.61 61.4079 601.251C19.6018 558.891 -4.71389 582.867 -46.5327 540.495C-88.3502 498.124 -64.0459 474.137 -105.865 431.766C-147.682 389.394 -171.987 413.381 -213.817 370.997C-255.647 328.614 -231.33 304.64 -273.149 262.269" stroke="#FCF9FF" stroke-width="1.71017" stroke-miterlimit="10"></path><path opacity="0.5" d="M783.474 216.692C741.655 174.321 717.351 198.307 675.533 155.935C633.714 113.564 658.019 89.5778 616.214 47.2183C574.407 4.85882 550.091 28.8341 508.273 -13.5367C466.455 -55.9088 490.759 -79.8955 448.941 -122.266C407.123 -164.638 382.819 -140.65 340.989 -183.034C299.159 -225.418 323.475 -249.393 281.657 -291.764" stroke="#FCF9FF" stroke-width="1.71017" stroke-miterlimit="10"></path><path opacity="0.5" d="M479.718 515.533C437.9 473.163 413.596 497.149 371.778 454.777C329.96 412.406 354.264 388.42 312.458 346.06C270.652 303.702 246.335 327.676 204.518 285.305C162.699 242.933 187.003 218.946 145.186 176.576C103.368 134.205 79.0638 158.191 37.2337 115.808C-4.59646 73.4245 19.7192 49.4492 -22.0984 7.07837" stroke="#FCF9FF" stroke-width="1.71017" stroke-miterlimit="10"></path><path opacity="0.5" d="M633.882 368.57C592.064 326.199 567.76 350.185 525.942 307.815C484.124 265.443 508.428 241.456 466.622 199.098C424.816 156.738 400.5 180.712 358.682 138.341C316.864 95.9705 341.168 71.9839 299.349 29.6118C257.532 -12.7591 233.227 11.2276 191.397 -31.1559C149.567 -73.5393 173.884 -97.5134 132.065 -139.885" stroke="#FCF9FF" stroke-width="1.71017" stroke-miterlimit="10"></path><path opacity="0.5" d="M330.73 666.909C288.912 624.537 264.608 648.523 222.791 606.153C180.972 563.782 205.276 539.794 163.47 497.435C121.665 455.076 97.348 479.051 55.5305 436.679C13.7117 394.308 38.016 370.322 -3.80156 327.95C-45.6203 285.579 -69.9233 309.565 -111.753 267.182C-153.584 224.799 -129.268 200.824 -171.086 158.452" stroke="#FCF9FF" stroke-width="1.71017" stroke-miterlimit="10"></path><path opacity="0.5" d="M709.964 294.917C668.145 252.545 643.842 276.533 602.023 234.161C560.205 191.79 584.51 167.803 542.703 125.444C500.898 83.0844 476.581 107.06 434.763 64.6889C392.945 22.3168 417.249 -1.66989 375.431 -44.0407C333.613 -86.4128 309.309 -62.4249 267.479 -104.808C225.649 -147.193 249.965 -171.167 208.147 -213.538" stroke="#FCF9FF" stroke-width="1.71017" stroke-miterlimit="10"></path><path opacity="0.5" d="M406.207 593.759C364.389 551.388 340.085 575.375 298.267 533.003C256.449 490.632 280.753 466.645 238.947 424.286C197.14 381.927 172.825 405.901 131.007 363.531C89.1885 321.159 113.493 297.172 71.6752 254.801C29.8565 212.429 5.55218 236.417 -36.278 194.033C-78.1081 151.65 -53.7912 127.675 -95.61 85.3038" stroke="#FCF9FF" stroke-width="1.71017" stroke-miterlimit="10"></path><path opacity="0.5" d="M560.372 441.809C518.554 399.438 494.25 423.425 452.432 381.053C410.614 338.682 434.918 314.695 393.112 272.336C351.306 229.978 326.99 253.952 285.172 211.581C243.354 169.209 267.658 145.222 225.84 102.851C184.021 60.4804 159.717 84.4671 117.887 42.0836C76.057 -0.299832 100.374 -24.2752 58.555 -66.646" stroke="#FCF9FF" stroke-width="1.71017" stroke-miterlimit="10"></path><path opacity="0.5" d="M257.22 745.133C215.401 702.762 191.097 726.749 149.279 684.378C107.462 642.007 131.766 618.019 89.9597 575.661C48.1535 533.301 23.8367 557.277 -17.9809 514.905C-59.7984 472.534 -35.4941 448.547 -77.3129 406.175C-119.13 363.804 -143.435 387.791 -185.265 345.407C-227.095 303.024 -202.779 279.05 -244.597 236.678" stroke="#FCF9FF" stroke-width="1.71017" stroke-miterlimit="10"></path><path opacity="0.5" d="M732.61 268.127C690.793 225.756 666.489 249.743 624.67 207.371C582.852 165 607.157 141.013 565.35 98.654C523.544 56.2957 499.228 80.2698 457.41 37.899C415.592 -4.47313 439.896 -28.4598 398.078 -70.8306C356.26 -113.201 331.956 -89.2148 290.126 -131.598C248.296 -173.982 272.612 -197.957 230.794 -240.328" stroke="#FCF9FF" stroke-width="1.71017" stroke-miterlimit="10"></path><path opacity="0.5" d="M428.854 566.969C387.035 524.598 362.731 548.585 320.913 506.214C279.095 463.842 303.399 439.855 261.594 397.497C219.788 355.138 195.471 379.112 153.653 336.741C111.835 294.37 136.139 270.383 94.3214 228.011C52.5038 185.641 28.1995 209.627 -13.6306 167.244C-55.4607 124.86 -31.1451 100.885 -72.9626 58.5142" stroke="#FCF9FF" stroke-width="1.71017" stroke-miterlimit="10"></path><path opacity="0.5" d="M583.018 415.019C541.199 372.648 516.895 396.635 475.077 354.264C433.259 311.892 457.563 287.906 415.757 245.546C373.951 203.188 349.635 227.162 307.817 184.791C265.998 142.42 290.302 118.432 248.485 76.0614C206.667 33.6906 182.363 57.6772 140.533 15.2938C98.7028 -27.0897 123.018 -51.065 81.2009 -93.4358" stroke="#FCF9FF" stroke-width="1.71017" stroke-miterlimit="10"></path><path opacity="0.5" d="M279.866 718.345C238.047 675.972 213.743 699.96 171.926 657.588C130.107 615.217 154.411 591.231 112.606 548.871C70.8 506.512 46.4831 530.487 4.66558 488.116C-37.1532 445.744 -12.8489 421.757 -54.6665 379.387C-96.484 337.015 -120.788 361.002 -162.618 318.619C-204.449 276.236 -180.133 252.26 -221.95 209.889" stroke="#FCF9FF" stroke-width="1.71017" stroke-miterlimit="10"></path><path opacity="0.5" d="M659.1 346.353C617.281 303.982 592.978 327.968 551.159 285.598C509.341 243.225 533.645 219.239 491.839 176.879C450.033 134.521 425.717 158.495 383.899 116.124C342.081 73.7534 366.385 49.7655 324.567 7.39469C282.749 -34.9761 258.445 -10.9895 216.615 -53.3729C174.785 -95.7564 199.1 -119.732 157.283 -162.103" stroke="#FCF9FF" stroke-width="1.71017" stroke-miterlimit="10"></path><path opacity="0.5" d="M355.948 644.691C314.13 602.32 289.826 626.306 248.008 583.936C206.19 541.563 230.494 517.577 188.688 475.219C146.882 432.859 122.566 456.833 80.7484 414.462C38.9296 372.091 63.2339 348.105 21.4164 305.733C-20.4024 263.362 -44.7066 287.348 -86.5368 244.965C-128.367 202.582 -104.05 178.608 -145.868 136.235" stroke="#FCF9FF" stroke-width="1.71017" stroke-miterlimit="10"></path><path opacity="0.5" d="M509.507 493.245C467.689 450.874 443.385 474.861 401.567 432.49C359.749 390.118 384.053 366.131 342.247 323.773C300.44 281.413 276.125 305.387 234.307 263.016C192.488 220.646 216.793 196.659 174.975 154.287C133.156 111.916 108.852 135.903 67.0219 93.5191C25.1918 51.1357 49.5087 27.1617 7.69113 -15.2104" stroke="#FCF9FF" stroke-width="1.71017" stroke-miterlimit="10"></path><path opacity="0.5" d="M206.355 796.569C164.537 754.198 140.234 778.184 98.4149 735.814C56.5973 693.441 80.9016 669.455 39.0954 627.097C-2.71074 584.737 -27.0276 608.711 -68.8452 566.34C-110.663 523.969 -86.3584 499.983 -128.177 457.611C-169.995 415.24 -194.299 439.227 -236.129 396.843C-277.959 354.46 -253.644 330.486 -295.461 288.114" stroke="#FCF9FF" stroke-width="1.71017" stroke-miterlimit="10"></path><path opacity="0.5" d="M572.524 429.815C530.706 387.444 506.402 411.431 464.584 369.06C422.766 326.688 447.07 302.701 405.264 260.343C363.458 217.983 339.142 241.958 297.324 199.587C255.506 157.216 279.811 133.229 237.992 90.8571C196.174 48.4862 171.87 72.4729 130.04 30.0895C88.2096 -12.294 112.525 -36.268 70.7078 -78.6401" stroke="#FCF9FF" stroke-width="1.71017" stroke-miterlimit="10"></path><path opacity="0.5" d="M795.626 204.698C753.808 162.327 729.504 186.314 687.685 143.943C645.868 101.572 670.172 77.5839 628.366 35.2257C586.56 -7.13385 562.244 16.8415 520.426 -25.5306C478.608 -67.9015 502.912 -91.8881 461.094 -134.26C419.276 -176.631 394.972 -152.644 353.142 -195.028C311.311 -237.411 335.628 -261.386 293.809 -303.757" stroke="#FCF9FF" stroke-width="1.71017" stroke-miterlimit="10"></path><path opacity="0.5" d="M491.869 503.541C450.051 461.169 425.747 485.155 383.929 442.785C342.111 400.414 366.415 376.427 324.609 334.068C282.803 291.708 258.486 315.683 216.669 273.311C174.85 230.94 199.154 206.954 157.337 164.582C115.519 122.211 91.2151 146.198 49.3849 103.814C7.5548 61.4306 31.8705 37.4566 -9.94707 -4.91553" stroke="#FCF9FF" stroke-width="1.71017" stroke-miterlimit="10"></path><path opacity="0.5" d="M646.034 356.576C604.215 314.205 579.911 338.192 538.093 295.821C496.275 253.45 520.58 229.462 478.774 187.104C436.968 144.744 412.651 168.72 370.833 126.347C329.015 83.9766 353.32 59.9899 311.502 17.6178C269.684 -24.753 245.38 -0.766363 203.55 -43.1498C161.719 -85.5332 186.035 -109.507 144.218 -151.879" stroke="#FCF9FF" stroke-width="1.71017" stroke-miterlimit="10"></path><path opacity="0.5" d="M342.882 654.915C301.063 612.544 276.759 636.531 234.942 594.16C193.124 551.788 217.427 527.801 175.622 485.441C133.816 443.083 109.499 467.057 67.6816 424.686C25.8628 382.316 50.1671 358.328 8.34954 315.957C-33.468 273.586 -57.7722 297.573 -99.6024 255.189C-141.433 212.806 -117.117 188.831 -158.934 146.46" stroke="#FCF9FF" stroke-width="1.71017" stroke-miterlimit="10"></path><path opacity="0.5" d="M722.116 282.923C680.299 240.552 655.994 264.539 614.176 222.167C572.358 179.796 596.662 155.809 554.856 113.45C513.05 71.0917 488.734 95.0657 446.916 52.6949C405.098 10.3228 429.402 -13.6639 387.584 -56.0347C345.766 -98.4056 321.462 -74.4189 279.632 -116.802C237.801 -159.186 262.118 -183.161 220.3 -225.532" stroke="#FCF9FF" stroke-width="1.71017" stroke-miterlimit="10"></path><path opacity="0.5" d="M418.359 581.765C376.541 539.394 352.237 563.381 310.419 521.01C268.601 478.638 292.906 454.651 251.099 412.293C209.293 369.934 184.978 393.908 143.159 351.537C101.341 309.166 125.646 285.179 83.8268 242.807C42.0093 200.436 17.705 224.423 -24.1251 182.04C-65.9552 139.656 -41.6384 115.681 -83.4572 73.3099" stroke="#FCF9FF" stroke-width="1.71017" stroke-miterlimit="10"></path><path opacity="0.5" d="M767.076 230.289C725.257 187.917 700.954 211.903 659.136 169.533C617.318 127.162 641.622 103.175 599.816 60.8156C558.01 18.4561 533.694 42.4314 491.876 0.0593029C450.058 -42.3115 474.362 -66.2982 432.544 -108.669C390.726 -151.041 366.421 -127.054 324.591 -169.438C282.761 -211.821 307.077 -235.796 265.26 -278.167" stroke="#FCF9FF" stroke-width="1.71017" stroke-miterlimit="10"></path><path opacity="0.5" d="M463.318 529.131C421.5 486.759 397.196 510.747 355.378 468.375C313.56 426.004 337.864 402.017 296.058 359.658C254.252 317.298 229.936 341.273 188.119 298.903C146.3 256.53 170.604 232.544 128.787 190.173C86.9679 147.801 62.6635 171.787 20.8334 129.404C-20.9967 87.0206 3.32018 63.0465 -38.4973 20.6757" stroke="#FCF9FF" stroke-width="1.71017" stroke-miterlimit="10"></path><path opacity="0.5" d="M617.482 377.181C575.665 334.809 551.361 358.795 509.543 316.424C467.725 274.054 492.029 250.067 450.223 207.707C408.417 165.348 384.1 189.323 342.282 146.951C300.464 104.58 324.769 80.5937 282.951 38.2228C241.132 -4.14926 216.828 19.8374 174.998 -22.5461C133.168 -64.9295 157.485 -88.9036 115.666 -131.274" stroke="#FCF9FF" stroke-width="1.71017" stroke-miterlimit="10"></path><path opacity="0.5" d="M314.33 680.505C272.512 638.134 248.208 662.12 206.39 619.75C164.572 577.378 188.876 553.391 147.07 511.033C105.263 468.673 80.9478 492.647 39.1303 450.276C-2.68849 407.906 21.6158 383.919 -20.2017 341.547C-62.0205 299.176 -86.3248 323.163 -128.155 280.779C-169.985 238.396 -145.668 214.422 -187.487 172.05" stroke="#FCF9FF" stroke-width="1.71017" stroke-miterlimit="10"></path><path opacity="0.5" d="M693.565 308.514C651.747 266.142 627.442 290.129 585.625 247.758C543.807 205.387 568.11 181.4 526.305 139.041C484.499 96.6814 460.183 120.657 418.365 78.2846C376.547 35.9138 400.851 11.9271 359.033 -30.4437C317.215 -72.8158 292.911 -48.8292 251.081 -91.2126C209.251 -133.596 233.566 -157.57 191.749 -199.941" stroke="#FCF9FF" stroke-width="1.71017" stroke-miterlimit="10"></path><path opacity="0.5" d="M390.412 606.852C348.594 564.48 324.29 588.468 282.472 546.096C240.653 503.725 264.958 479.738 223.153 437.379C181.346 395.019 157.029 418.995 115.212 376.624C73.3932 334.252 97.6975 310.265 55.8799 267.894C14.0624 225.522 -10.2419 249.51 -52.072 207.126C-93.9021 164.743 -69.5865 140.768 -111.404 98.3969" stroke="#FCF9FF" stroke-width="1.71017" stroke-miterlimit="10"></path><path opacity="0.5" d="M543.974 455.406C502.155 413.034 477.851 437.022 436.033 394.65C394.215 352.279 418.519 328.293 376.713 285.933C334.907 243.574 310.591 267.549 268.774 225.178C226.955 182.806 251.259 158.819 209.441 116.448C167.623 74.0763 143.32 98.0642 101.49 55.6808C59.6594 13.2973 83.975 -10.678 42.1575 -53.0488" stroke="#FCF9FF" stroke-width="1.71017" stroke-miterlimit="10"></path><path opacity="0.5" d="M240.82 758.73C199.003 716.359 174.699 740.346 132.88 697.975C91.0622 655.603 115.366 631.616 73.5603 589.257C31.7541 546.899 7.43848 570.873 -34.3803 528.502C-76.1978 486.13 -51.8936 462.143 -93.7124 419.772C-135.53 377.402 -159.834 401.388 -201.664 359.005C-243.494 316.621 -219.178 292.646 -260.996 250.275" stroke="#FCF9FF" stroke-width="1.71017" stroke-miterlimit="10"></path></g></g></g><defs><clipPath id="clip0_669_15891"><rect width="585" height="594" fill="white"></rect></clipPath></defs></svg>