<svg xmlns="http://www.w3.org/2000/svg" width="1440" height="424" viewBox="0 0 1440 424" fill="none"><mask id="mask0_626_6457" style="mask-type:luminance" maskUnits="userSpaceOnUse" x="680" y="0" width="760" height="424"><path d="M1440 0H680V424H1440V0Z" fill="white"></path></mask><g mask="url(#mask0_626_6457)"><mask id="mask1_626_6457" style="mask-type:alpha" maskUnits="userSpaceOnUse" x="0" y="0" width="1440" height="424"><path d="M1440 0H0V423.5H1440V0Z" fill="#13322E"></path></mask><g mask="url(#mask1_626_6457)"><g opacity="0.4"><path opacity="0.5" d="M743.062 496.771C793.677 445.488 823.093 474.52 873.707 423.237C924.321 371.953 894.904 342.921 945.504 291.652C996.103 240.383 1025.53 269.401 1076.15 218.117C1126.76 166.834 1097.35 137.802 1147.96 86.5182C1198.57 35.2346 1227.99 64.2668 1278.62 12.9685C1329.25 -38.3298 1299.82 -67.3472 1350.43 -118.631" stroke="#724F96" stroke-width="2" stroke-miterlimit="10"></path><path opacity="0.5" d="M1110.71 858.472C1161.32 807.188 1190.74 836.22 1241.35 784.937C1291.97 733.653 1262.55 704.621 1313.15 653.352C1363.75 602.084 1393.18 631.101 1443.8 579.817C1494.41 528.534 1464.99 499.502 1515.61 448.218C1566.22 396.935 1595.64 425.967 1646.27 374.669C1696.89 323.37 1667.46 294.353 1718.08 243.069" stroke="#724F96" stroke-width="2" stroke-miterlimit="10"></path><path opacity="0.5" d="M924.12 674.562C974.734 623.278 1004.15 652.31 1054.76 601.027C1105.38 549.743 1075.96 520.711 1126.56 469.442C1177.16 418.173 1206.59 447.191 1257.21 395.907C1307.82 344.624 1278.4 315.592 1329.02 264.308C1379.63 213.025 1409.05 242.057 1459.68 190.758C1510.3 139.46 1480.87 110.443 1531.49 59.1592" stroke="#724F96" stroke-width="2" stroke-miterlimit="10"></path><path opacity="0.5" d="M832.035 591.451C882.649 540.168 912.065 569.2 962.679 517.916C1013.29 466.633 983.877 437.601 1034.48 386.332C1085.08 335.063 1114.51 364.08 1165.12 312.797C1215.73 261.513 1186.32 232.481 1236.93 181.198C1287.55 129.914 1316.96 158.946 1367.59 107.648C1418.22 56.3497 1388.79 27.3323 1439.4 -23.9512" stroke="#724F96" stroke-width="2" stroke-miterlimit="10"></path><path opacity="0.5" d="M1198.95 952.543C1249.57 901.259 1278.98 930.292 1329.6 879.008C1380.21 827.725 1350.79 798.692 1401.39 747.424C1451.99 696.155 1481.42 725.172 1532.04 673.889C1582.65 622.605 1553.23 593.573 1603.85 542.29C1654.46 491.006 1683.88 520.038 1734.51 468.74C1785.14 417.442 1755.7 388.424 1806.32 337.141" stroke="#724F96" stroke-width="2" stroke-miterlimit="10"></path><path opacity="0.5" d="M1013.09 769.239C1063.71 717.956 1093.12 746.988 1143.74 695.704C1194.35 644.421 1164.93 615.389 1215.53 564.12C1266.13 512.851 1295.56 541.869 1346.18 490.585C1396.79 439.301 1367.37 410.269 1417.99 358.986C1468.6 307.702 1498.02 336.734 1548.65 285.436C1599.28 234.138 1569.84 205.121 1620.46 153.837" stroke="#724F96" stroke-width="2" stroke-miterlimit="10"></path><path opacity="0.5" d="M730.765 480.007C781.378 428.723 810.795 457.755 861.408 406.472C912.022 355.188 882.606 326.156 933.206 274.887C983.805 223.619 1013.24 252.636 1063.85 201.353C1114.46 150.069 1085.05 121.037 1135.66 69.7539C1186.28 18.4704 1215.69 47.5025 1266.32 -3.79578C1316.95 -55.094 1287.52 -84.1114 1338.13 -135.395" stroke="#724F96" stroke-width="2" stroke-miterlimit="10"></path><path opacity="0.5" d="M1098.41 841.707C1149.03 790.424 1178.44 819.456 1229.06 768.172C1279.67 716.889 1250.25 687.856 1300.85 636.588C1351.45 585.319 1380.88 614.336 1431.5 563.053C1482.11 511.769 1452.7 482.737 1503.31 431.454C1553.92 380.17 1583.34 409.202 1633.97 357.904C1684.6 306.606 1655.17 277.588 1705.78 226.305" stroke="#724F96" stroke-width="2" stroke-miterlimit="10"></path><path opacity="0.5" d="M911.822 657.796C962.435 606.512 991.852 635.545 1042.47 584.261C1093.08 532.977 1063.66 503.945 1114.26 452.677C1164.86 401.408 1194.29 430.425 1244.91 379.142C1295.52 327.858 1266.1 298.826 1316.72 247.542C1367.33 196.259 1396.75 225.291 1447.38 173.993C1498.01 122.695 1468.58 93.6771 1519.19 42.3936" stroke="#724F96" stroke-width="2" stroke-miterlimit="10"></path><path opacity="0.5" d="M1278.74 1024.92C1329.35 973.638 1358.77 1002.67 1409.38 951.386C1460 900.102 1430.58 871.071 1481.18 819.803C1531.78 768.534 1561.21 797.551 1611.82 746.268C1662.44 694.984 1633.02 665.952 1683.64 614.668C1734.25 563.385 1763.67 592.417 1814.29 541.118C1864.92 489.82 1835.49 460.803 1886.11 409.52" stroke="#724F96" stroke-width="2" stroke-miterlimit="10"></path><path opacity="0.5" d="M819.737 574.686C870.351 523.402 899.767 552.434 950.381 501.151C1000.99 449.867 971.579 420.835 1022.18 369.566C1072.78 318.297 1102.21 347.315 1152.82 296.031C1203.44 244.748 1174.02 215.716 1224.63 164.432C1275.25 113.149 1304.66 142.181 1355.29 90.8824C1405.92 39.5841 1376.49 10.5667 1427.1 -40.7168" stroke="#724F96" stroke-width="2" stroke-miterlimit="10"></path><path opacity="0.5" d="M1186.65 935.775C1237.27 884.492 1266.68 913.524 1317.3 862.241C1367.91 810.957 1338.49 781.925 1389.09 730.656C1439.69 679.387 1469.12 708.405 1519.74 657.121C1570.35 605.838 1540.94 576.806 1591.55 525.522C1642.16 474.238 1671.58 503.271 1722.21 451.972C1772.84 400.674 1743.41 371.657 1794.02 320.373" stroke="#724F96" stroke-width="2" stroke-miterlimit="10"></path><path opacity="0.5" d="M1000.79 752.474C1051.41 701.19 1080.82 730.222 1131.44 678.939C1182.05 627.655 1152.64 598.623 1203.23 547.354C1253.83 496.086 1283.26 525.103 1333.88 473.819C1384.49 422.536 1355.08 393.504 1405.69 342.22C1456.3 290.937 1485.72 319.969 1536.35 268.671C1586.98 217.372 1557.55 188.355 1608.16 137.071" stroke="#724F96" stroke-width="2" stroke-miterlimit="10"></path><path opacity="0.5" d="M696.208 449.034C746.822 397.751 776.238 426.783 826.852 375.499C877.466 324.216 848.05 295.184 898.649 243.915C949.248 192.646 978.679 221.663 1029.29 170.38C1079.91 119.096 1050.49 90.0641 1101.11 38.7806C1151.72 -12.503 1181.14 16.5292 1231.76 -34.7691C1282.39 -86.0674 1252.96 -115.085 1303.58 -166.368" stroke="#724F96" stroke-width="2" stroke-miterlimit="10"></path><path opacity="0.5" d="M1063.86 810.732C1114.47 759.449 1143.89 788.481 1194.5 737.198C1245.11 685.914 1215.7 656.882 1266.3 605.613C1316.9 554.344 1346.33 583.362 1396.94 532.078C1447.55 480.795 1418.14 451.763 1468.75 400.479C1519.37 349.195 1548.78 378.228 1599.41 326.929C1650.04 275.631 1620.61 246.614 1671.22 195.33" stroke="#724F96" stroke-width="2" stroke-miterlimit="10"></path><path opacity="0.5" d="M877.265 632.857C927.879 581.574 957.295 610.606 1007.91 559.323C1058.52 508.039 1029.11 479.007 1079.71 427.738C1130.31 376.469 1159.74 405.487 1210.35 354.203C1260.96 302.92 1231.55 273.888 1282.16 222.604C1332.78 171.32 1362.19 200.353 1412.82 149.054C1463.45 97.7561 1434.02 68.7387 1484.63 17.4551" stroke="#724F96" stroke-width="2" stroke-miterlimit="10"></path><path opacity="0.5" d="M1244.18 993.947C1294.8 942.664 1324.21 971.696 1374.83 920.412C1425.44 869.129 1396.02 840.097 1446.62 788.828C1497.22 737.559 1526.65 766.577 1577.27 715.293C1627.88 664.009 1598.46 634.977 1649.08 583.694C1699.69 532.41 1729.11 561.442 1779.74 510.144C1830.37 458.846 1800.93 429.829 1851.55 378.545" stroke="#724F96" stroke-width="2" stroke-miterlimit="10"></path><path opacity="0.5" d="M785.18 543.713C835.794 492.429 865.21 521.462 915.824 470.178C966.438 418.894 937.022 389.862 987.621 338.594C1038.22 287.325 1067.65 316.342 1118.27 265.059C1168.88 213.775 1139.46 184.743 1190.08 133.459C1240.69 82.176 1270.11 111.208 1320.74 59.9097C1371.36 8.61147 1341.93 -20.406 1392.55 -71.6895" stroke="#724F96" stroke-width="2" stroke-miterlimit="10"></path><path opacity="0.5" d="M1152.83 905.414C1203.44 854.131 1232.86 883.163 1283.47 831.879C1334.09 780.596 1304.67 751.564 1355.27 700.295C1405.87 649.026 1435.3 678.043 1485.91 626.76C1536.53 575.476 1507.11 546.444 1557.73 495.161C1608.34 443.877 1637.76 472.909 1688.38 421.611C1739.01 370.313 1709.58 341.295 1760.2 290.012" stroke="#724F96" stroke-width="2" stroke-miterlimit="10"></path><path opacity="0.5" d="M966.237 721.502C1016.85 670.218 1046.27 699.251 1096.88 647.967C1147.49 596.684 1118.08 567.651 1168.68 516.383C1219.28 465.114 1248.71 494.131 1299.32 442.848C1349.94 391.564 1320.52 362.532 1371.13 311.249C1421.75 259.965 1451.16 288.997 1501.79 237.699C1552.42 186.401 1522.99 157.383 1573.6 106.1" stroke="#724F96" stroke-width="2" stroke-miterlimit="10"></path><path opacity="0.5" d="M757.771 511.289C808.385 460.006 837.801 489.038 888.415 437.754C939.029 386.471 909.613 357.439 960.212 306.17C1010.81 254.901 1040.24 283.918 1090.86 232.635C1141.47 181.351 1112.05 152.319 1162.67 101.036C1213.28 49.7518 1242.7 78.784 1293.33 27.4857C1343.95 -23.8126 1314.52 -52.83 1365.14 -104.113" stroke="#724F96" stroke-width="2" stroke-miterlimit="10"></path><path opacity="0.5" d="M1125.42 872.988C1176.03 821.705 1205.45 850.737 1256.06 799.453C1306.68 748.17 1277.26 719.138 1327.86 667.869C1378.46 616.6 1407.89 645.618 1458.5 594.334C1509.12 543.051 1479.7 514.018 1530.32 462.735C1580.93 411.451 1610.35 440.483 1660.97 389.185C1711.6 337.887 1682.17 308.87 1732.79 257.586" stroke="#724F96" stroke-width="2" stroke-miterlimit="10"></path><path opacity="0.5" d="M938.828 689.078C989.442 637.795 1018.86 666.827 1069.47 615.543C1120.09 564.26 1090.67 535.228 1141.27 483.959C1191.87 432.69 1221.3 461.707 1271.91 410.424C1322.53 359.14 1293.11 330.108 1343.73 278.825C1394.34 227.541 1423.76 256.573 1474.38 205.275C1525.01 153.977 1495.58 124.959 1546.2 73.6758" stroke="#724F96" stroke-width="2" stroke-miterlimit="10"></path><path opacity="0.5" d="M846.743 605.968C897.357 554.684 926.774 583.716 977.387 532.433C1028 481.149 998.585 452.117 1049.19 400.848C1099.78 349.58 1129.22 378.597 1179.83 327.314C1230.44 276.03 1201.03 246.998 1251.64 195.714C1302.25 144.431 1331.67 173.463 1382.3 122.165C1432.93 70.8663 1403.5 41.8489 1454.11 -9.43457" stroke="#724F96" stroke-width="2" stroke-miterlimit="10"></path><path opacity="0.5" d="M1213.66 967.057C1264.27 915.773 1293.69 944.805 1344.3 893.522C1394.92 842.238 1365.5 813.206 1416.1 761.937C1466.7 710.669 1496.13 739.686 1546.75 688.402C1597.36 637.119 1567.94 608.087 1618.56 556.803C1669.17 505.52 1698.59 534.552 1749.22 483.254C1799.84 431.955 1770.41 402.938 1821.03 351.654" stroke="#724F96" stroke-width="2" stroke-miterlimit="10"></path><path opacity="0.5" d="M1027.8 783.758C1078.41 732.474 1107.83 761.505 1158.44 710.222C1209.06 658.938 1179.64 629.907 1230.24 578.638C1280.84 527.37 1310.27 556.386 1360.89 505.103C1411.5 453.819 1382.08 424.787 1432.7 373.503C1483.31 322.22 1512.73 351.252 1563.36 299.954C1613.98 248.655 1584.55 219.638 1635.17 168.355" stroke="#724F96" stroke-width="2" stroke-miterlimit="10"></path><path opacity="0.5" d="M951.529 706.984C1002.14 655.701 1031.56 684.733 1082.17 633.449C1132.79 582.166 1103.37 553.134 1153.97 501.865C1204.57 450.596 1234 479.614 1284.61 428.33C1335.23 377.047 1305.81 348.014 1356.43 296.731C1407.04 245.447 1436.46 274.48 1487.08 223.181C1537.71 171.883 1508.28 142.866 1558.9 91.582" stroke="#724F96" stroke-width="2" stroke-miterlimit="10"></path><path opacity="0.5" d="M681.5 434.518C732.114 383.234 761.53 412.266 812.144 360.983C862.758 309.699 833.342 280.667 883.941 229.398C934.54 178.129 963.971 207.147 1014.58 155.863C1065.2 104.58 1035.78 75.5479 1086.4 24.2644C1137.01 -27.0192 1166.43 2.01299 1217.05 -49.2853C1267.68 -100.584 1238.25 -129.601 1288.87 -180.885" stroke="#724F96" stroke-width="2" stroke-miterlimit="10"></path><path opacity="0.5" d="M1049.15 796.218C1099.76 744.934 1129.18 773.966 1179.79 722.683C1230.41 671.399 1200.99 642.367 1251.59 591.098C1302.19 539.83 1331.62 568.847 1382.23 517.564C1432.85 466.28 1403.43 437.248 1454.04 385.964C1504.66 334.681 1534.07 363.713 1584.7 312.415C1635.33 261.116 1605.9 232.099 1656.51 180.815" stroke="#724F96" stroke-width="2" stroke-miterlimit="10"></path><path opacity="0.5" d="M862.557 618.341C913.171 567.057 942.587 596.089 993.201 544.806C1043.82 493.522 1014.4 464.49 1065 413.221C1115.6 361.953 1145.03 390.97 1195.64 339.687C1246.26 288.403 1216.84 259.371 1267.45 208.087C1318.07 156.804 1347.48 185.836 1398.11 134.538C1448.74 83.2394 1419.31 54.222 1469.92 2.93848" stroke="#724F96" stroke-width="2" stroke-miterlimit="10"></path><path opacity="0.5" d="M770.472 529.196C821.086 477.913 850.502 506.945 901.116 455.661C951.73 404.378 922.314 375.346 972.913 324.077C1023.51 272.808 1052.94 301.826 1103.56 250.542C1154.17 199.259 1124.75 170.226 1175.37 118.943C1225.98 67.6593 1255.4 96.6914 1306.03 45.3931C1356.66 -5.90514 1327.22 -34.9226 1377.84 -86.2061" stroke="#724F96" stroke-width="2" stroke-miterlimit="10"></path><path opacity="0.5" d="M1138.12 890.896C1188.73 839.612 1218.15 868.644 1268.76 817.361C1319.38 766.077 1289.96 737.045 1340.56 685.776C1391.16 634.507 1420.59 663.525 1471.21 612.241C1521.82 560.958 1492.4 531.926 1543.02 480.642C1593.63 429.359 1623.05 458.391 1673.68 407.092C1724.3 355.794 1694.87 326.777 1745.49 275.493" stroke="#724F96" stroke-width="2" stroke-miterlimit="10"></path><path opacity="0.5" d="M716.057 465.49C766.671 414.207 796.087 443.239 846.7 391.955C897.314 340.672 867.898 311.64 918.498 260.371C969.097 209.102 998.528 238.12 1049.14 186.836C1099.76 135.552 1070.34 106.52 1120.95 55.2367C1171.57 3.95319 1200.98 32.9853 1251.61 -18.313C1302.24 -69.6112 1272.81 -98.6286 1323.42 -149.912" stroke="#724F96" stroke-width="2" stroke-miterlimit="10"></path><path opacity="0.5" d="M1083.71 827.19C1134.32 775.907 1163.74 804.939 1214.35 753.656C1264.96 702.372 1235.55 673.34 1286.15 622.071C1336.75 570.802 1366.18 599.82 1416.79 548.536C1467.4 497.253 1437.99 468.221 1488.6 416.937C1539.22 365.653 1568.63 394.686 1619.26 343.387C1669.89 292.089 1640.46 263.072 1691.07 211.788" stroke="#724F96" stroke-width="2" stroke-miterlimit="10"></path><path opacity="0.5" d="M897.114 643.28C947.727 591.997 977.144 621.029 1027.76 569.745C1078.37 518.462 1048.96 489.43 1099.56 438.161C1150.15 386.892 1179.59 415.91 1230.2 364.626C1280.81 313.343 1251.4 284.31 1302.01 233.027C1352.62 181.743 1382.04 210.775 1432.67 159.477C1483.3 108.179 1453.87 79.1614 1504.48 27.8779" stroke="#724F96" stroke-width="2" stroke-miterlimit="10"></path><path opacity="0.5" d="M1264.03 1010.4C1314.64 959.121 1344.06 988.153 1394.67 936.869C1445.29 885.586 1415.87 856.554 1466.47 805.285C1517.07 754.016 1546.5 783.034 1597.12 731.75C1647.73 680.467 1618.31 651.434 1668.93 600.151C1719.54 548.867 1748.96 577.899 1799.59 526.601C1850.21 475.303 1820.78 446.286 1871.4 395.002" stroke="#724F96" stroke-width="2" stroke-miterlimit="10"></path><path opacity="0.5" d="M805.029 560.17C855.642 508.886 885.059 537.919 935.673 486.635C986.287 435.351 956.87 406.319 1007.47 355.051C1058.07 303.782 1087.5 332.799 1138.11 281.516C1188.73 230.232 1159.31 201.2 1209.92 149.917C1260.54 98.633 1289.95 127.665 1340.58 76.3668C1391.21 25.0686 1361.78 -3.94885 1412.4 -55.2324" stroke="#724F96" stroke-width="2" stroke-miterlimit="10"></path><path opacity="0.5" d="M1171.94 921.259C1222.56 869.975 1251.97 899.007 1302.59 847.724C1353.2 796.44 1323.79 767.408 1374.39 716.139C1424.99 664.871 1454.42 693.888 1505.03 642.605C1555.64 591.321 1526.23 562.289 1576.84 511.005C1627.46 459.722 1656.87 488.754 1707.5 437.456C1758.13 386.157 1728.7 357.14 1779.31 305.857" stroke="#724F96" stroke-width="2" stroke-miterlimit="10"></path><path opacity="0.5" d="M986.086 737.959C1036.7 686.675 1066.12 715.708 1116.73 664.424C1167.34 613.141 1137.93 584.108 1188.53 532.84C1239.13 481.571 1268.56 510.588 1319.17 459.305C1369.78 408.021 1340.37 378.989 1390.98 327.706C1441.6 276.422 1471.01 305.454 1521.64 254.156C1572.27 202.858 1542.84 173.84 1593.45 122.557" stroke="#724F96" stroke-width="2" stroke-miterlimit="10"></path></g></g></g></svg>