<svg xmlns="http://www.w3.org/2000/svg" width="69" height="70" viewBox="0 0 69 70" fill="none"><path d="M7.69473 29.0864H42.407C43.0118 29.0864 43.5022 28.5961 43.5022 27.9913C43.5022 27.3865 43.0118 26.8962 42.407 26.8962H7.69473C7.08995 26.8962 6.59961 27.3865 6.59961 27.9913C6.59961 28.5961 7.08995 29.0864 7.69473 29.0864Z" fill="#5F0AB2"></path><path d="M7.69473 35.7481H42.407C43.0118 35.7481 43.5022 35.2583 43.5022 34.653C43.5022 34.0487 43.0118 33.5579 42.407 33.5579H7.69473C7.08995 33.5579 6.59961 34.0487 6.59961 34.653C6.59961 35.2583 7.08995 35.7481 7.69473 35.7481Z" fill="#5F0AB2"></path><path d="M7.69473 42.4107H42.407C43.0118 42.4107 43.5022 41.9199 43.5022 41.3156C43.5022 40.7103 43.0118 40.2205 42.407 40.2205H7.69473C7.08995 40.2205 6.59961 40.7103 6.59961 41.3156C6.59961 41.9199 7.08995 42.4107 7.69473 42.4107Z" fill="#5F0AB2"></path><path d="M31.912 46.8822H7.69473C7.08995 46.8822 6.59961 47.3725 6.59961 47.9773C6.59961 48.5821 7.08995 49.0724 7.69473 49.0724H31.912C32.5167 49.0724 33.0071 48.5821 33.0071 47.9773C33.0071 47.3725 32.5167 46.8822 31.912 46.8822Z" fill="#5F0AB2"></path><path d="M31.912 53.5438H7.69473C7.08995 53.5438 6.59961 54.0346 6.59961 54.6389C6.59961 55.2442 7.08995 55.734 7.69473 55.734H31.912C32.5167 55.734 33.0071 55.2442 33.0071 54.6389C33.0071 54.0346 32.5167 53.5438 31.912 53.5438Z" fill="#5F0AB2"></path><path d="M26.4203 60.2065H7.69473C7.08995 60.2065 6.59961 60.6963 6.59961 61.3016C6.59961 61.9058 7.08995 62.3967 7.69473 62.3967H26.4203C27.0251 62.3967 27.5154 61.9058 27.5154 61.3016C27.5154 60.6963 27.0251 60.2065 26.4203 60.2065Z" fill="#5F0AB2"></path><path d="M24.472 22.6986H40.3539C41.7881 22.6986 42.9548 21.5319 42.9548 20.0977V15.4435C42.9548 14.0093 41.7881 12.8426 40.3539 12.8426H24.472C23.0379 12.8426 21.8711 14.0093 21.8711 15.4435V20.0977C21.8711 21.5319 23.0379 22.6986 24.472 22.6986Z" fill="#5F0AB2"></path><path d="M65.7184 18.3759C65.6746 18.3433 65.6307 18.3106 65.5869 18.2887C63.067 16.8134 59.938 17.2915 57.943 19.2491V6.59264C57.943 2.95704 54.9862 0 51.3503 0H14.4339C10.798 0 7.84123 2.95704 7.84123 6.59264V11.8057C3.5086 16.6627 0 18.1326 0 22.2751V63.6485C0 67.1526 2.84742 70 6.35202 70H43.7503C47.2546 70 50.1017 67.1526 50.1017 63.6485V63.1116H51.3503C54.9862 63.1116 57.943 60.1551 57.943 56.519V44.1326C58.9552 42.3769 54.276 50.4927 67.8429 26.962C69.5808 24.0362 68.6903 20.2017 65.7184 18.3759ZM57.1101 24.5648L59.7488 26.1107L44.3625 52.8294L41.729 51.2851C49.3434 38.0572 39.5772 55.0167 57.1101 24.5648ZM48.8788 55.4784L46.252 53.9379L61.6387 27.2181L64.2811 28.7662C62.5935 31.6929 70.1712 18.5509 48.8788 55.4784ZM10.0315 6.59264C10.0315 4.16178 12.0027 2.19024 14.4339 2.19024H51.3503C53.7815 2.19024 55.7527 4.16178 55.7527 6.59264V22.5692L50.1017 32.3718V13.2404C50.1017 9.73577 47.2546 6.88835 43.7503 6.88835H15.3868C12.0518 6.88835 10.478 9.29205 10.0315 9.61545V6.59264ZM43.7503 67.8098H6.35202C4.05216 67.8098 2.19024 65.9484 2.19024 63.6485C2.20993 19.139 2.15305 22.4126 2.22821 21.7928H12.1303C13.7569 21.7928 15.0798 20.4699 15.0798 18.8432V9.10051C15.6913 9.05249 12.6979 9.0937 43.7503 9.07859C46.0501 9.07859 47.9115 10.9405 47.9115 13.2404V36.1716L39.3369 51.0546C38.9109 51.9065 38.4522 52.6608 38.4779 54.1106L38.565 63.0491C38.5725 63.8551 39.4313 64.4004 40.1911 63.9988C40.301 63.9386 48.4285 59.4898 47.9115 59.7728V63.6485C47.9115 65.9484 46.0501 67.8098 43.7503 67.8098ZM55.7527 56.519C55.7527 58.9504 53.7815 60.9214 51.3503 60.9214H50.1017V57.7457C50.1763 57.6338 49.8837 58.1349 55.7527 47.9377V56.519Z" fill="#5F0AB2"></path></svg>