<svg xmlns="http://www.w3.org/2000/svg" width="1440" height="674" viewBox="0 0 1440 674" fill="none"><g clip-path="url(#clip0_575_6285)"><path fill-rule="evenodd" clip-rule="evenodd" d="M2023.28 518.367C2024.77 524.074 2023.03 530.131 2018.72 534.162C2016.77 535.982 2014.37 537.302 2011.78 537.976L1999.51 541.147C1998.76 544.223 1997.13 547.076 1994.76 549.297C1992.58 551.332 1989.89 552.739 1986.95 553.372L1975.8 555.761C1975.07 559.035 1973.36 562.062 1970.83 564.441L1970.83 564.435C1968.42 566.699 1965.41 568.198 1962.13 568.769L1952.05 570.518C1951.31 573.958 1949.54 577.145 1946.91 579.609L1946.91 579.617C1944.25 582.102 1940.94 583.679 1937.31 584.173L1928.33 585.391C1927.58 588.948 1925.75 592.218 1923.01 594.786C1920.1 597.513 1916.47 599.161 1912.49 599.562L1904.58 600.357C1903.8 604.006 1901.92 607.361 1899.12 609.984C1896.01 612.9 1891.95 614.668 1887.68 614.959L1880.84 615.422C1880.01 619.131 1878.08 622.545 1875.25 625.192C1871.89 628.343 1867.5 630.173 1862.87 630.35L1857.08 630.564C1856.2 634.3 1854.23 637.742 1851.38 640.414C1847.76 643.806 1843.03 645.69 1838.06 645.732L1833.34 645.773C1832.4 649.521 1830.41 652.924 1827.52 655.637L1827.53 655.631C1823.65 659.272 1818.57 661.224 1813.25 661.123L1809.57 661.055C1808.58 664.786 1806.56 668.17 1803.68 670.876C1799.53 674.758 1794.12 676.758 1788.44 676.513L1785.8 676.398C1784.74 680.091 1782.7 683.442 1779.84 686.122C1775.49 690.193 1769.59 692.307 1763.64 691.904L1762.02 691.795C1760.89 695.432 1758.83 698.737 1756.01 701.377C1751.4 705.703 1745.13 707.855 1738.84 707.288L1738.21 707.231C1737.02 710.802 1734.96 714.047 1732.18 716.645L1732.17 716.638C1727.39 721.131 1720.92 723.331 1714.39 722.715C1713.14 726.195 1711.08 729.358 1708.36 731.907C1703.54 736.421 1697.13 738.675 1690.59 738.193C1689.3 741.593 1687.26 744.646 1684.55 747.185C1679.69 751.726 1673.32 754.037 1666.77 753.684C1665.43 756.996 1663.4 759.972 1660.74 762.462L1660.75 762.463C1655.86 767.044 1649.52 769.403 1642.95 769.172C1641.58 772.402 1639.55 775.311 1636.94 777.756L1636.94 777.748C1632.1 782.288 1625.67 784.728 1619.12 784.641C1617.72 787.794 1615.7 790.639 1613.14 793.041L1613.15 793.049C1608.27 797.606 1601.86 800.102 1595.3 800.126C1593.86 803.204 1591.86 805.982 1589.34 808.334C1584.44 812.936 1578.05 815.472 1571.48 815.597C1570.02 818.604 1568.02 821.325 1565.55 823.635L1565.56 823.643C1560.62 828.273 1554.24 830.86 1547.64 831.081C1546.17 834.014 1544.18 836.67 1541.76 838.936C1536.79 843.6 1530.43 846.24 1523.82 846.558C1522.32 849.423 1520.36 852.026 1517.98 854.259L1517.99 854.252C1510.69 861.084 1500.56 863.66 1490.88 861.15L634.487 639.011C626.986 637.066 620.672 632.319 616.728 625.633C612.777 618.953 611.666 611.146 613.597 603.643L833.42 -252.306C834.794 -257.643 837.637 -262.446 841.636 -266.202C848.921 -273.034 859.056 -275.617 868.73 -273.107L1725.13 -50.9681C1729.45 -49.8479 1733.37 -47.7966 1736.68 -44.9826C1739.5 -43.8336 1742.1 -42.2473 1744.39 -40.2825C1747.25 -39.1278 1749.84 -37.5234 1752.09 -35.5734C1754.94 -34.4506 1757.55 -32.8617 1759.83 -30.8696C1762.67 -29.7637 1765.27 -28.1831 1767.54 -26.1892C1770.41 -25.0843 1773 -23.4906 1775.23 -21.5261C1778.1 -20.4463 1780.74 -18.8476 1783.03 -16.7985C1785.85 -15.7487 1788.45 -14.1834 1790.69 -12.1694C1793.56 -11.128 1796.2 -9.53828 1798.47 -7.47336C1801.32 -6.45461 1803.93 -4.87986 1806.18 -2.82138C1809.09 -1.80224 1811.71 -0.200892 1813.91 1.83206C1816.83 2.82847 1819.45 4.42699 1821.65 6.47017C1824.53 7.42569 1827.17 9.00004 1829.42 11.1199C1832.34 12.0718 1834.96 13.6626 1837.14 15.7229C1840.03 16.6252 1842.69 18.1907 1844.94 20.3484C1847.68 21.1864 1850.21 22.6403 1852.38 24.6464C1852.49 24.7525 1852.61 24.8598 1852.72 24.9682C1855.66 25.8467 1858.31 27.4353 1860.47 29.5454C1863.42 30.3947 1866.1 31.9833 1868.25 34.1163C1871.22 34.9357 1873.91 36.5207 1876.05 38.6723C1879.02 39.4617 1881.71 41.0393 1883.85 43.2044C1886.82 43.9616 1889.52 45.5306 1891.66 47.7093C1897.25 49.0681 1901.95 53.3816 1903.5 59.3272L2023.28 518.367ZM1894.24 51.1462C1897.59 52.8879 1900.22 55.9868 1901.25 59.9186L2021.02 518.943C2022.3 523.828 2020.81 529.01 2017.12 532.456C2015.46 534.015 2013.41 535.144 2011.19 535.715L1999.93 538.626C2000.07 537.003 1999.97 535.35 1999.62 533.721L1896 55.7841C1895.64 54.1165 1895.04 52.5609 1894.24 51.1462ZM1997.54 539.244C1997.77 537.6 1997.71 535.898 1997.35 534.202L1893.75 56.2734C1893.21 53.7969 1892.05 51.6085 1890.48 49.8352C1889.61 49.6682 1888.73 49.5835 1887.83 49.5876C1888.12 50.4373 1888.35 51.321 1888.51 52.2343L1975.24 545.011L1997.54 539.244ZM1996.92 541.816C1996.19 543.975 1994.92 545.96 1993.17 547.599C1991.3 549.353 1988.98 550.563 1986.45 551.111L1976.17 553.316C1976.27 551.916 1976.2 550.49 1975.95 549.068L1975.64 547.317L1996.92 541.816ZM1973.39 547.899L1973.67 549.46C1973.93 550.924 1973.96 552.394 1973.79 553.826L1951.48 558.607L1950.81 553.738L1973.39 547.899ZM1948.55 554.32L1949.21 559.092L1926.98 563.857L1926.58 560L1948.55 554.32ZM1926.34 557.653L1948.23 551.993L1879.06 51.4211L1874.31 52.6497L1926.34 557.653ZM1924.31 560.587L1924.7 564.346L1903.12 568.971L1902.92 566.117L1924.31 560.587ZM1902.75 563.752L1924.07 558.24L1872.03 53.2382L1866.95 54.5518L1902.75 563.752ZM1900.63 566.708L1900.83 569.462L1879.84 573.96L1879.76 572.103L1900.63 566.708ZM1879.67 569.721L1900.47 564.343L1864.66 55.1428L1859.27 56.5369L1879.67 569.721ZM1877.47 572.697L1877.54 574.453L1857.09 578.834L1857.09 577.966L1877.47 572.697ZM1857.06 575.567L1877.37 570.315L1856.98 57.1307L1851.31 58.5957L1857.06 575.567ZM1854.77 578.564L1854.78 579.33L1837.39 583.056L1854.77 578.564ZM1834.88 581.302L1854.75 576.166L1848.99 59.1952L1843.07 60.726L1834.88 581.302ZM1813.12 586.929L1832.56 581.902L1840.75 61.3252L1834.58 62.9212L1813.12 586.929ZM1791.74 592.456L1810.78 587.534L1832.23 63.5294L1825.86 65.1748L1791.74 592.456ZM1783.06 594.701L1789.37 593.069L1823.49 65.7893L1816.92 67.4888L1770.76 597.338L1783.06 594.701ZM1717.73 611.594L1722.73 610.3L1715.45 611.563L1711.13 612.488L1717.73 611.594ZM1718.03 613.913L1709.13 616.215L1708.92 617.669L1726.32 615.921L1726.73 612.734L1718.03 613.913ZM1747.33 606.34L1737.24 608.947L1747.19 607.597L1747.33 606.34ZM1750.94 605.407L1749.73 605.718L1749.57 607.275L1767.77 604.806L1767.98 602.451L1750.94 605.407ZM1783.75 596.924L1778.64 598.246L1789.16 596.421L1789.2 595.756L1783.75 596.924ZM1706.69 616.844L1700.06 618.559L1706.54 617.908L1706.69 616.844ZM1689.67 618.849L1698.53 616.558L1689.85 617.735L1689.67 618.849ZM1684.9 620.082L1687.21 619.485L1687.44 618.062L1681.14 618.916L1670.58 621.179L1670.52 621.527L1684.9 620.082ZM1685.25 622.388L1686.75 622.237L1686.08 626.279L1669.45 627.405L1669.63 626.427L1685.25 622.388ZM1667.15 627.068L1667.06 627.567L1664.56 627.736L1667.15 627.068ZM1652.01 628.586L1667.61 624.554L1667.68 624.153L1651.37 625.792L1650.79 628.668L1652.01 628.586ZM1652.35 630.894L1650.24 631.437L1649.35 635.946L1665.64 635.341L1666.63 629.927L1652.35 630.894ZM1647.74 632.085L1631.08 636.392L1631.03 636.626L1646.95 636.035L1647.74 632.085ZM1631.62 633.858L1639.8 631.744L1631.96 632.274L1631.62 633.858ZM1619.22 637.064L1629.1 634.509L1629.55 632.438L1613.92 633.496L1613.05 637.293L1619.22 637.064ZM1619.53 639.377L1612.13 641.29L1611.2 645.341L1626.81 645.209L1628.13 639.058L1619.53 639.377ZM1609.6 641.945L1595.96 645.47L1608.82 645.361L1609.6 641.945ZM1594.01 643.583L1608.73 639.777L1594.81 640.294L1594.01 643.583ZM1586.4 645.551L1591.46 644.242L1592.4 640.383L1578.6 640.895L1577.35 641.162L1576.2 645.638L1586.4 645.551ZM1586.7 647.865L1590.59 647.832L1588.92 654.675L1573.95 654.399L1574.84 650.93L1586.7 647.865ZM1575.5 648.369L1577.14 647.946L1575.61 647.959L1575.5 648.369ZM1572.27 651.595L1571.56 654.355L1562.25 654.184L1572.27 651.595ZM1553.62 654.025L1572.93 649.035L1573.2 647.979L1544.41 648.223L1538.31 649.53C1539.87 651.487 1541.94 652.977 1544.25 653.853L1553.62 654.025ZM1553.87 656.353L1553.13 656.542C1549.95 657.367 1546.74 657.175 1543.85 656.168L1510.22 655.55L1509.38 655.732C1506.53 656.341 1503.7 656.177 1501.09 655.382L1466.52 654.746L1465.6 654.906C1463.11 655.339 1460.65 655.205 1458.35 654.596L1422.88 653.944L1421.86 654.082C1419.72 654.372 1417.62 654.263 1415.63 653.811L1379.11 653.139L1378.09 653.242C1376.33 653.42 1374.6 653.337 1372.94 653.025L1335.63 652.339L1334.35 652.426C1332.93 652.521 1331.54 652.454 1330.18 652.239L1291.81 651.534L1290.59 651.579C1289.57 651.616 1288.57 651.573 1287.59 651.456L1252.7 650.814L1568.93 664.609L1570.97 656.667L1553.87 656.353ZM1539.36 653.763C1538 652.735 1536.8 651.49 1535.82 650.064L1520.2 653.411L1539.36 653.763ZM1533.8 645.997L1516.09 646.147L1533.04 643.208L1533.5 644.989C1533.59 645.331 1533.69 645.667 1533.8 645.997ZM1532.27 640.29L1520.26 640.736L1531.98 639.147L1532.27 640.29ZM1534.3 638.887L1534.65 640.202L1537.34 640.102L1550.78 637.771L1534.3 638.887ZM1531.03 635.54L1493.35 639.326L1491.29 639.465L1388.34 164.595C1387.27 159.653 1388.83 154.658 1392.52 151.198L1392.52 151.205C1394.39 149.452 1396.72 148.241 1399.23 147.7L1719.29 79.098L1716.2 91.1129L1425.21 166.347C1422.62 167.021 1420.22 168.342 1418.28 170.155C1413.97 174.186 1412.22 180.241 1413.72 185.957L1531.03 635.54ZM1715.54 93.6998L1425.82 168.609C1423.6 169.181 1421.53 170.302 1419.88 171.861L1419.86 171.86C1416.18 175.313 1414.69 180.495 1415.96 185.387L1533.37 635.305L1570.17 631.609L1577.66 630.592L1715.54 93.6998ZM1718.78 90.446L1721.84 78.5518L1729.49 76.9109L1726.7 88.3997L1718.78 90.446ZM1726.07 90.9769L1718.12 93.033L1580.15 630.254L1595.37 628.191L1726.07 90.9769ZM1729.25 87.741L1732.01 76.371L1739.57 74.7504L1737.06 85.7208L1729.25 87.741ZM1736.47 88.2879L1728.62 90.3182L1597.84 627.856L1613.31 625.757L1736.47 88.2879ZM1739.59 85.0663L1742.08 74.2135L1749.54 72.6152L1747.29 83.0751L1739.59 85.0663ZM1746.75 85.6316L1739 87.6333L1615.77 625.423L1631.51 623.288L1746.75 85.6316ZM1749.82 82.4221L1752.04 72.0793L1759.39 70.5032L1757.41 80.4596L1749.82 82.4221ZM1756.9 83.0052L1749.27 84.9786L1633.96 622.956L1644.18 621.57L1650.03 620.555L1756.9 83.0052ZM1759.91 79.8141L1761.86 69.973L1769.1 68.4209L1767.38 77.8826L1759.91 79.8141ZM1766.91 80.4169L1759.4 82.3597L1652.49 620.128L1668.93 617.276L1766.91 80.4169ZM1769.86 77.2414L1771.56 67.8938L1778.67 66.3714L1777.18 75.3477L1769.86 77.2414ZM1776.76 77.87L1769.39 79.7757L1671.37 616.853L1688.12 613.947L1776.76 77.87ZM1779.65 74.7089L1781.12 65.8458L1788.1 64.3497L1786.85 72.8491L1779.65 74.7089ZM1786.48 75.3591L1779.23 77.2313L1690.55 613.527L1707.62 610.565L1786.48 75.3591ZM1789.29 72.2177L1790.52 63.8298L1797.37 62.3622L1796.34 70.3945L1789.29 72.2177ZM1796.02 72.8917L1788.92 74.7278L1710.02 610.148L1715.06 609.275L1727.51 606.606L1796.02 72.8917ZM1798.75 69.7705L1799.77 61.8479L1806.46 60.4142L1805.64 67.9904L1798.75 69.7705ZM1805.37 70.4742L1798.43 72.2677L1729.92 606.09L1747.77 602.264L1805.37 70.4742ZM1808.04 67.3698L1808.85 59.9022L1815.37 58.5039L1814.75 65.6346L1808.04 67.3698ZM1814.53 68.1044L1807.77 69.8536L1750.16 601.751L1768.38 597.848L1814.53 68.1044ZM1817.13 65.019L1817.74 57.9955L1824.08 56.6371L1823.65 63.3342L1817.13 65.019ZM1826.02 62.7198L1826.45 56.1291L1832.59 54.814L1832.33 61.0896L1826.02 62.7198ZM1834.68 60.4815L1834.93 54.3108L1840.88 53.0352L1840.79 58.9014L1834.68 60.4815ZM1843.11 58.3023L1843.2 52.5389L1848.9 51.3163L1848.96 56.7883L1843.11 58.3023ZM1851.28 56.1889L1851.22 50.819L1856.68 49.6497L1856.88 54.7415L1851.28 56.1889ZM1859.18 54.1478L1858.98 49.1566L1864.17 48.045L1864.5 52.7722L1859.18 54.1478ZM1866.78 52.1813L1866.46 47.5536L1871.34 46.5077L1871.79 50.8873L1866.78 52.1813ZM1874.07 50.2988L1873.62 46.0176L1876.81 45.3337C1877.1 45.2717 1877.39 45.219 1877.68 45.1754C1878.18 46.3698 1878.54 47.647 1878.72 48.9881L1878.74 49.0909L1874.07 50.2988ZM1881 48.5054C1880.82 47.2936 1880.52 46.1282 1880.11 45.0197C1880.98 45.0389 1881.83 45.137 1882.66 45.3082C1883.3 46.0227 1883.88 46.8032 1884.38 47.6412C1884.21 47.6801 1884.03 47.722 1883.86 47.767L1881 48.5054ZM1885.44 49.8086C1885.79 50.7034 1886.06 51.6454 1886.23 52.6269L1972.99 545.592L1950.48 551.411L1881.32 50.8354L1884.45 50.0278C1884.78 49.9419 1885.11 49.869 1885.44 49.8086ZM1886.84 47.2894C1886.73 47.0939 1886.63 46.9007 1886.52 46.7101C1886.84 46.8818 1887.15 47.0656 1887.46 47.261C1887.25 47.2664 1887.04 47.2758 1886.84 47.2894ZM1535.33 642.81L1535.75 644.412C1535.89 644.95 1536.06 645.471 1536.25 645.976L1544.12 645.909L1565.2 641.392L1537.6 642.416L1535.33 642.81ZM1969.24 562.751C1971.16 560.958 1972.52 558.73 1973.26 556.306L1951.8 560.906L1952.28 564.414C1952.45 565.648 1952.49 566.885 1952.4 568.104L1961.73 566.486C1964.56 565.998 1967.15 564.706 1969.24 562.751ZM1949.99 564.719L1949.53 561.392L1927.22 566.174L1927.86 572.361L1950.03 568.514C1950.18 567.265 1950.17 565.991 1949.99 564.719ZM1925.57 572.759L1924.94 566.663L1903.28 571.304L1903.65 576.56L1925.57 572.759ZM1901.35 576.959L1900.99 571.795L1879.93 576.31L1880.1 580.645L1901.35 576.959ZM1877.8 581.045L1877.63 576.803L1857.12 581.198L1857.16 584.625L1877.8 581.045ZM1854.84 585.027L1854.81 581.694L1834.81 585.981L1834.77 588.509L1854.84 585.027ZM1832.45 588.912L1832.49 586.478L1812.97 590.662L1812.9 592.303L1832.45 588.912ZM1810.57 592.707L1810.63 591.163L1791.56 595.25L1791.51 596.012L1810.57 592.707ZM1649.48 623.329L1646.74 623.915L1640.81 624.512L1644.11 623.938L1649.5 623.207L1649.48 623.329ZM1632.59 629.322L1647.03 626.227L1648.94 626.035L1648.38 628.831L1632.47 629.909L1632.59 629.322ZM1667.59 621.821L1668.13 621.706L1668.11 621.768L1667.59 621.821ZM1628.65 630.167L1630.1 629.856L1630.05 630.072L1628.65 630.167ZM1626.19 628.321L1614.53 630.819L1614.84 629.46L1626.19 628.321ZM1610.65 637.382L1611.45 633.853L1595.55 637.262L1595.38 637.948L1610.65 637.382ZM1596.55 634.672L1596.16 634.757L1596.17 634.698L1596.55 634.672ZM1592.97 638.038L1593.03 637.802L1591.71 638.085L1592.97 638.038ZM1593.64 635.297L1578.31 638.582L1578.01 638.593L1578.71 635.88L1593.74 634.862L1593.64 635.297ZM1555.66 645.812L1574.81 641.707L1573.79 645.658L1555.66 645.812ZM1532.86 648.321L1509.99 653.223L1501.46 653.066C1499.36 652.375 1497.45 651.203 1495.87 649.654L1502.05 648.583L1532.86 648.321ZM1493.16 650.125C1494.06 651.202 1495.09 652.157 1496.22 652.97L1478.63 652.646L1493.16 650.125ZM1477.99 646.469L1490.79 646.361C1490.56 645.86 1490.36 645.345 1490.18 644.815L1477.99 646.469ZM1448.57 642.357L1488.95 639.624L1386.07 165.083C1384.86 159.433 1386.71 153.465 1390.93 149.507C1393.11 147.465 1395.8 146.058 1398.74 145.425L1719.94 76.5815L1722.64 66.0625L1372.66 126.777C1369.83 127.266 1367.23 128.564 1365.15 130.512L1365.16 130.505C1361.51 133.918 1359.86 138.877 1360.72 143.788L1448.16 640.622C1448.26 641.215 1448.4 641.794 1448.57 642.357ZM1725.16 65.6252L1722.48 76.0353L1730.1 74.4023L1732.55 64.3426L1725.16 65.6252ZM1735.04 63.9101L1732.62 73.8624L1740.15 72.2497L1742.35 62.643L1735.04 63.9101ZM1744.83 62.2128L1742.65 71.713L1750.07 70.1231L1752.03 60.963L1744.83 62.2128ZM1754.51 60.5331L1752.57 69.5871L1759.88 68.0198L1761.62 59.3004L1754.51 60.5331ZM1764.07 58.8749L1762.36 67.4896L1769.56 65.9467L1771.07 57.6608L1764.07 58.8749ZM1773.51 57.2374L1772.01 65.4196L1779.07 63.9067L1780.37 56.0464L1773.51 57.2374ZM1782.81 55.624L1781.53 63.381L1788.46 61.8949L1789.56 54.4533L1782.81 55.624ZM1791.97 54.0351L1790.88 61.375L1797.68 59.9177L1798.59 52.8866L1791.97 54.0351ZM1800.97 52.4726L1800.08 59.4035L1806.72 57.9806L1807.44 51.3507L1800.97 52.4726ZM1809.82 50.9382L1809.11 57.4687L1815.58 56.0817L1816.12 49.844L1809.82 50.9382ZM1818.49 49.434L1817.95 55.5733L1824.24 54.2267L1824.61 48.3711L1818.49 49.434ZM1826.98 47.9611L1826.61 53.7188L1832.68 52.4162L1832.91 46.9324L1826.98 47.9611ZM1835.25 46.5257L1835.03 51.9129L1840.92 50.6504L1841 45.5282L1835.25 46.5257ZM1843.32 45.1267L1843.24 50.1542L1848.88 48.9453L1848.82 44.1712L1843.32 45.1267ZM1851.15 43.7685L1851.2 48.448L1856.59 47.2932L1856.41 42.8554L1851.15 43.7685ZM1858.71 42.4556L1858.89 46.8001L1864 45.7038L1863.72 41.7341C1863.72 41.6855 1863.71 41.637 1863.71 41.5886L1858.71 42.4556ZM1866.04 41.5693L1866.29 45.2124L1871.05 44.1919C1870.83 42.9063 1870.44 41.6799 1869.93 40.5299C1869.68 40.56 1869.43 40.5965 1869.18 40.6395L1866.01 41.1902C1866.02 41.3162 1866.03 41.4426 1866.04 41.5693ZM1872.41 40.4403C1872.81 41.4821 1873.12 42.5732 1873.33 43.7045L1876.31 43.0651C1876.4 43.0471 1876.48 43.0297 1876.56 43.013C1876.06 42.2099 1875.49 41.4591 1874.86 40.7683C1874.06 40.5917 1873.24 40.4807 1872.41 40.4403ZM1878.82 42.2691C1878.91 42.4145 1878.99 42.5613 1879.07 42.7095C1879.23 42.7025 1879.39 42.6979 1879.54 42.6955C1879.31 42.5467 1879.07 42.4045 1878.82 42.2691ZM1493.37 646.339C1493.05 645.752 1492.77 645.137 1492.53 644.497L1496.68 643.934L1520.31 643.057L1501.8 646.268L1493.37 646.339ZM1949.55 570.952C1948.81 573.578 1947.36 575.993 1945.32 577.904C1943.02 580.06 1940.14 581.424 1936.99 581.853L1928.67 582.982C1928.75 581.919 1928.73 580.84 1928.62 579.754L1928.09 574.674L1949.55 570.952ZM1925.8 575.071L1926.31 579.992C1926.43 581.108 1926.42 582.217 1926.31 583.302L1904.34 586.283L1903.82 578.886L1925.8 575.071ZM1901.52 579.285L1902.03 586.595L1880.46 589.522L1880.2 582.984L1901.52 579.285ZM1877.89 583.383L1878.15 589.835L1857.25 592.67L1857.19 586.975L1877.89 583.383ZM1854.87 587.377L1854.93 592.984L1834.66 595.734L1834.73 590.871L1854.87 587.377ZM1832.41 591.273L1832.34 596.049L1812.64 598.721L1812.8 594.675L1832.41 591.273ZM1810.47 595.079L1810.31 599.036L1791.15 601.635L1791.36 598.395L1810.47 595.079ZM1789 598.804L1788.8 601.954L1770.13 604.486L1770.35 602.04L1789 598.804ZM1572.84 633.945L1576.47 633.315L1570.72 633.893L1567.83 634.284L1572.84 633.945ZM1608.76 630.072L1596.79 632.148L1596.75 632.327L1612.04 631.291L1612.4 629.705L1608.76 630.072ZM1573.08 636.261L1554.64 639.46L1575.58 638.683L1576.26 636.046L1573.08 636.261ZM1466.33 652.42L1487.76 648.704L1459.76 648.941L1453.7 649.763C1455.18 650.905 1456.88 651.765 1458.7 652.28L1466.33 652.42ZM1453.06 652.176C1452.2 651.586 1451.39 650.917 1450.65 650.178L1437.96 651.898L1453.06 652.176ZM1447.96 646.724L1442.52 646.77L1447.69 646.251C1447.74 646.339 1447.79 646.426 1447.84 646.513C1447.88 646.584 1447.92 646.654 1447.96 646.724ZM1446.19 642.518L1414.59 644.658L1406.69 644.951C1405.5 643.125 1404.69 641.016 1404.37 638.719L1333.1 122.988C1332.43 118.099 1334.17 113.175 1337.77 109.803L1337.76 109.81C1340.06 107.646 1342.94 106.282 1346.1 105.854L1725.64 54.3739L1723.27 63.599L1372.26 124.494C1368.98 125.065 1365.97 126.557 1363.55 128.821C1359.35 132.765 1357.43 138.517 1358.43 144.194L1445.86 641.028C1445.95 641.534 1446.06 642.031 1446.19 642.518ZM1725.79 63.1617L1728.13 54.0354L1735.3 53.0641L1733.15 61.8851L1725.79 63.1617ZM1735.64 61.4527L1737.76 52.7292L1744.84 51.7696L1742.91 60.1918L1735.64 61.4527ZM1745.39 59.7616L1747.3 51.4362L1754.28 50.4895L1752.56 58.5184L1745.39 59.7616ZM1755.03 58.0885L1756.73 50.1562L1763.62 49.2223L1762.1 56.8626L1755.03 58.0885ZM1764.55 56.4371L1766.05 48.8923L1772.84 47.9723L1771.51 55.2301L1764.55 56.4371ZM1773.95 54.8068L1775.26 47.6437L1781.91 46.7413L1780.77 53.6232L1773.95 54.8068ZM1783.21 53.2007L1784.33 46.4131L1790.87 45.5261L1789.91 52.0379L1783.21 53.2007ZM1792.32 51.6196L1793.27 45.2009L1799.68 44.3306L1798.9 50.4793L1792.32 51.6196ZM1801.28 50.0653L1802.06 44.0085L1808.33 43.1583L1807.7 48.9519L1801.28 50.0653ZM1810.08 48.5394L1810.69 42.8372L1816.81 42.008L1816.33 47.4541L1810.08 48.5394ZM1818.7 47.0442L1819.16 41.6886L1825.1 40.8834L1824.77 45.9907L1818.7 47.0442ZM1827.13 45.5807L1827.46 40.5636L1833.2 39.7846L1833 44.5619L1827.13 45.5807ZM1835.35 44.1552L1835.54 39.4671L1841.11 38.7118L1841.04 43.168L1835.35 44.1552ZM1843.35 42.7666L1843.42 38.3981L1848.75 37.6752L1848.8 41.822L1843.35 42.7666ZM1851.12 41.4193L1851.07 37.3602L1856.11 36.6778C1856.16 37.1438 1856.2 37.6144 1856.22 38.0887L1856.32 40.5177L1851.12 41.4193ZM1858.62 40.118L1858.54 38.004C1858.51 37.4532 1858.47 36.9069 1858.4 36.3663L1861.56 35.9385C1861.76 35.9101 1861.97 35.8862 1862.18 35.8666C1862.69 36.947 1863.1 38.0946 1863.36 39.295L1858.62 40.118ZM1865.65 38.8976C1865.42 37.8401 1865.1 36.8177 1864.7 35.8383C1865.5 35.8959 1866.28 36.0159 1867.05 36.1941C1867.67 36.8635 1868.24 37.5883 1868.75 38.3615L1865.65 38.8976ZM1871.3 38.1072C1871.24 38.0013 1871.18 37.8961 1871.12 37.7915C1871.3 37.8918 1871.47 37.9955 1871.64 38.1025C1871.53 38.103 1871.42 38.1045 1871.3 38.1072ZM1450.24 645.994C1450.4 646.235 1450.56 646.47 1450.72 646.7L1459.45 646.627L1472.75 644.821L1455.57 645.459L1450.24 645.994ZM1921.42 593.088C1923.6 591.048 1925.11 588.505 1925.86 585.726L1904.5 588.623L1904.96 595.094C1905.02 596.063 1905.02 597.026 1904.94 597.976L1912.25 597.241C1915.72 596.896 1918.89 595.459 1921.42 593.088ZM1902.64 595.258L1902.2 588.935L1880.55 591.871L1880.89 600.393L1902.58 598.213C1902.69 597.242 1902.71 596.253 1902.64 595.258ZM1878.58 600.625L1878.24 592.184L1857.27 595.028L1857.36 602.756L1878.58 600.625ZM1855.04 602.989L1854.96 595.342L1834.62 598.101L1834.51 605.052L1855.04 602.989ZM1832.19 605.285L1832.3 598.415L1812.54 601.095L1812.29 607.285L1832.19 605.285ZM1809.96 607.518L1810.21 601.411L1791 604.017L1790.64 609.459L1809.96 607.518ZM1788.3 609.694L1788.64 604.336L1769.92 606.875L1769.51 611.581L1788.3 609.694ZM1767.16 611.818L1767.56 607.195L1749.31 609.671L1748.87 613.655L1767.16 611.818ZM1746.51 613.893L1746.93 609.993L1729.11 612.411L1728.69 615.683L1746.51 613.893ZM1498.77 641.293L1496.32 641.624L1492.23 641.776L1493.48 641.651L1498.77 641.293ZM1441.22 649.099L1422.65 651.617L1415.97 651.494C1414.52 651.147 1413.14 650.589 1411.86 649.85L1417.32 649.301L1441.22 649.099ZM1408.31 650.206C1408.82 650.628 1409.35 651.02 1409.91 651.382L1398.66 651.176L1408.31 650.206ZM1365.23 646.489L1404.05 645.049C1403.05 643.232 1402.37 641.211 1402.07 639.045L1330.81 123.308C1330.02 117.676 1332.03 111.995 1336.18 108.113C1338.83 105.62 1342.16 104.05 1345.78 103.557L1726.26 51.9538L1728.34 43.859L1319.52 84.924C1316.06 85.2706 1312.89 86.7138 1310.36 89.0854L1310.37 89.0787C1306.75 92.4711 1304.96 97.2457 1305.47 102.181L1360.56 636.816C1360.95 640.631 1362.68 643.995 1365.23 646.489ZM1730.81 43.6107L1728.76 51.6154L1735.88 50.6488L1737.77 42.9122L1730.81 43.6107ZM1740.21 42.6664L1738.35 50.3139L1745.39 49.3591L1747.08 41.9762L1740.21 42.6664ZM1749.52 41.7313L1747.85 49.0257L1754.79 48.0841L1756.3 41.0504L1749.52 41.7313ZM1758.74 40.8055L1757.25 47.7508L1764.1 46.8223L1765.43 40.1337L1758.74 40.8055ZM1767.84 39.891L1766.53 46.4922L1773.27 45.5778L1774.43 39.2292L1767.84 39.891ZM1776.84 38.9875L1775.7 45.2492L1782.31 44.3526L1783.3 38.3383L1776.84 38.9875ZM1785.71 38.0967L1784.73 44.0244L1791.22 43.1434L1792.06 37.4585L1785.71 38.0967ZM1794.44 37.219L1793.62 42.8183L1799.99 41.9543L1800.68 36.5928L1794.44 37.219ZM1803.04 36.3554L1802.36 41.6322L1808.58 40.7887L1809.13 35.7438L1803.04 36.3554ZM1811.49 35.5069L1810.95 40.4676L1817.01 39.6454L1817.43 34.9105L1811.49 35.5069ZM1819.77 34.6747L1819.37 39.326L1825.25 38.5281L1825.54 34.0957L1819.77 34.6747ZM1827.89 33.8593L1827.61 38.2083L1833.3 37.437L1833.47 33.2994L1827.89 33.8593ZM1835.8 33.0646L1835.64 37.1195L1841.15 36.3723L1841.21 32.5218L1835.8 33.0646ZM1843.52 32.2896L1843.46 36.0587L1848.73 35.3443L1848.72 34.4577C1848.71 33.5555 1848.63 32.6646 1848.49 31.7907L1843.52 32.2896ZM1851.04 34.4463L1851.05 35.0294L1855.67 34.4031C1855.37 33.2935 1854.96 32.2213 1854.45 31.1999C1854.28 31.2118 1854.1 31.2266 1853.92 31.2445L1850.8 31.5584C1850.95 32.5059 1851.03 33.4704 1851.04 34.4463ZM1857.03 31.2366C1857.42 32.1581 1857.74 33.1113 1857.98 34.0893L1860.93 33.6892C1860.43 32.9523 1859.87 32.2594 1859.26 31.6167C1858.53 31.4378 1857.78 31.3099 1857.03 31.2366ZM1863.44 33.3149C1863.46 33.3408 1863.47 33.3668 1863.49 33.3928C1863.51 33.424 1863.53 33.4553 1863.54 33.4866L1863.59 33.4865L1863.64 33.4865C1863.67 33.4865 1863.7 33.4867 1863.73 33.4869C1863.67 33.4489 1863.61 33.4114 1863.54 33.3744C1863.51 33.3544 1863.48 33.3346 1863.44 33.3149ZM1902.14 600.602C1901.37 603.512 1899.79 606.178 1897.53 608.294C1894.81 610.847 1891.26 612.385 1887.51 612.644L1881.21 613.07C1881.3 612.202 1881.32 611.323 1881.29 610.44L1880.98 602.728L1902.14 600.602ZM1878.67 602.96L1878.97 610.525C1879.01 611.435 1878.97 612.339 1878.86 613.23L1857.49 614.676L1857.39 605.097L1878.67 602.96ZM1855.07 605.33L1855.18 614.833L1834.33 616.244L1834.47 607.399L1855.07 605.33ZM1832.15 607.632L1832.02 616.401L1811.86 617.765L1812.19 609.637L1832.15 607.632ZM1809.86 609.871L1809.54 617.922L1790.01 619.244L1790.49 611.817L1809.86 609.871ZM1788.14 612.053L1787.67 619.403L1768.72 620.685L1769.31 613.945L1788.14 612.053ZM1766.95 614.181L1766.37 620.844L1747.96 622.091L1748.62 616.023L1766.95 614.181ZM1746.25 616.261L1745.6 622.25L1727.69 623.463L1728.38 618.056L1746.25 616.261ZM1726.01 618.294L1725.33 623.623L1707.86 624.805L1708.56 620.046L1726.01 618.294ZM1706.19 620.285L1705.5 624.965L1688.46 626.118L1689.15 621.997L1706.19 620.285ZM1417.11 646.985L1418.68 646.827L1415.04 646.962L1414.36 647.008L1417.11 646.985ZM1379 650.814L1391.91 649.517L1375.22 649.658L1370.65 649.968C1371.47 650.284 1372.32 650.532 1373.2 650.707L1379 650.814ZM1366.71 650.588C1366.54 650.484 1366.37 650.378 1366.21 650.269L1362.61 650.513L1366.71 650.588ZM1362.19 646.602L1332.57 647.701L1324.6 647.769C1320.22 645.103 1317.14 640.421 1316.75 634.927L1277.84 81.3878C1277.49 76.4724 1279.36 71.7255 1282.95 68.3598L1282.94 68.352C1285.66 65.7992 1289.23 64.2547 1292.96 63.9945L1730.78 34.3687L1728.95 41.4668L1319.28 82.6174C1315.31 83.0189 1311.67 84.6667 1308.77 87.3875C1304.61 91.2768 1302.57 96.7583 1303.15 102.418L1358.25 637.061C1358.62 640.688 1360.05 643.96 1362.19 646.602ZM1731.43 41.2185L1733.23 34.2029L1740 33.7449L1738.35 40.5233L1731.43 41.2185ZM1740.79 40.2775L1742.42 33.5806L1749.11 33.128L1747.63 39.5907L1740.79 40.2775ZM1750.07 39.3459L1751.53 32.9643L1758.13 32.5178L1756.81 38.6687L1750.07 39.3459ZM1759.25 38.4237L1760.55 32.354L1767.06 31.9135L1765.9 37.7557L1759.25 38.4237ZM1768.32 37.5131L1769.46 31.7511L1775.88 31.3171L1774.86 36.8553L1768.32 37.5131ZM1777.27 36.6135L1778.27 31.1551L1784.56 30.7294L1783.69 35.9684L1777.27 36.6135ZM1786.1 35.7268L1786.95 30.5675L1793.14 30.149L1792.41 35.093L1786.1 35.7268ZM1794.79 34.8535L1795.51 29.9885L1801.58 29.5778L1800.98 34.2319L1794.79 34.8535ZM1803.34 33.9945L1803.93 29.4185L1809.86 29.0175L1809.39 33.3877L1803.34 33.9945ZM1811.74 33.1508L1812.21 28.8585L1817.99 28.4674L1817.63 32.5594L1811.74 33.1508ZM1819.98 32.3236L1820.33 28.3091L1825.94 27.9295L1825.69 31.7499L1819.98 32.3236ZM1828.04 31.5136L1828.28 27.7706L1833.71 27.4037L1833.56 30.9592L1828.04 31.5136ZM1835.9 30.7245L1836.04 27.3154L1836.04 27.2458L1840.87 26.9193C1841.08 27.9795 1841.21 29.0724 1841.23 30.1888L1835.9 30.7245ZM1843.53 29.9576C1843.5 28.87 1843.38 27.8027 1843.19 26.7623L1846.3 26.5513C1846.44 26.5418 1846.58 26.5341 1846.72 26.5282C1847.23 27.483 1847.64 28.4817 1847.95 29.5136L1843.53 29.9576ZM1850.3 29.2779C1850.05 28.3714 1849.73 27.4862 1849.35 26.628C1850.08 26.7155 1850.8 26.8521 1851.5 27.0345C1852.09 27.6515 1852.64 28.3064 1853.13 28.994L1850.3 29.2779ZM1855.81 28.8494L1855.8 28.8458L1855.81 28.8495L1855.81 28.8494ZM1873.66 623.494C1875.97 621.324 1877.6 618.581 1878.4 615.587L1857.52 617.001L1857.62 625.786C1857.63 626.604 1857.58 627.417 1857.49 628.222L1862.78 628.025C1866.84 627.871 1870.7 626.262 1873.66 623.494ZM1855.3 625.806L1855.2 617.158L1834.3 618.574L1834.13 629.089L1855.14 628.309C1855.25 627.483 1855.31 626.647 1855.3 625.806ZM1831.81 629.175L1831.98 618.731L1811.76 620.1L1811.36 629.934L1831.81 629.175ZM1809.04 630.02L1809.44 620.257L1789.86 621.583L1789.27 630.753L1809.04 630.02ZM1786.93 630.84L1787.52 621.741L1768.52 623.028L1767.78 631.551L1786.93 630.84ZM1765.43 631.638L1766.17 623.187L1747.71 624.437L1746.85 632.327L1765.43 631.638ZM1744.5 632.415L1745.35 624.597L1727.39 625.813L1726.45 633.084L1744.5 632.415ZM1724.1 633.172L1725.03 625.973L1707.52 627.158L1706.53 633.824L1724.1 633.172ZM1704.18 633.911L1705.15 627.319L1688.08 628.475L1687.07 634.546L1704.18 633.911ZM1684.7 634.634L1685.69 628.636L1669.02 629.765L1668.01 635.253L1684.7 634.634ZM1335.77 649.993L1335.47 650.013L1334.81 650.001L1335.77 649.993ZM1283.72 648.115L1320.77 647.801C1317.21 644.664 1314.82 640.18 1314.46 635.086L1275.53 81.5537C1275.14 75.9371 1277.26 70.5123 1281.37 66.663C1284.47 63.7465 1288.54 61.9795 1292.81 61.6946L1731.38 32.0043L1732.98 25.7716L1266.41 43.0807C1262.35 43.2288 1258.49 44.8446 1255.53 47.6121L1255.52 47.6043C1251.96 50.95 1250.02 55.6768 1250.21 60.5735L1272.96 633.01C1273.23 639.932 1277.65 645.734 1283.72 648.115ZM1735.42 25.6813L1733.84 31.8385L1740.57 31.3824L1742.02 25.4364L1735.42 25.6813ZM1744.43 25.347L1743 31.2181L1749.65 30.7677L1750.95 25.105L1744.43 25.347ZM1753.35 25.0159L1752.07 30.6039L1758.63 30.1596L1759.79 24.7772L1753.35 25.0159ZM1762.19 24.6879L1761.06 29.9957L1767.53 29.5575L1768.54 24.4523L1762.19 24.6879ZM1770.93 24.3638L1769.93 29.395L1776.3 28.9634L1777.19 24.1317L1770.93 24.3638ZM1779.57 24.0434L1778.7 28.8015L1784.95 28.3783L1785.7 23.8158L1779.57 24.0434ZM1788.08 23.7275L1787.34 28.2163L1793.48 27.8005L1794.12 23.5037L1788.08 23.7275ZM1796.48 23.416L1795.86 27.6399L1801.88 27.2321L1802.4 23.1964L1796.48 23.416ZM1804.74 23.1095L1804.23 27.0728L1810.11 26.6748L1810.52 22.895L1804.74 23.1095ZM1812.86 22.8081L1812.46 26.5156L1818.19 26.1278L1818.5 22.5991L1812.86 22.8081ZM1820.83 22.5125L1820.53 25.9694L1826.09 25.5932L1826.22 23.5806C1826.25 23.1551 1826.26 22.7318 1826.26 22.3112L1820.83 22.5125ZM1828.55 23.7435L1828.44 25.4343L1833.68 25.079C1833.61 24.0529 1833.46 23.0415 1833.22 22.053L1828.59 22.2247C1828.59 22.7277 1828.58 23.2342 1828.55 23.7435ZM1835.58 21.9654C1835.79 22.9345 1835.93 23.9221 1836 24.9221L1840.24 24.6354C1839.9 23.6648 1839.48 22.7308 1838.99 21.8418C1838.89 21.8438 1838.78 21.8466 1838.68 21.8504L1835.58 21.9654ZM1841.66 21.9997C1842.03 22.7986 1842.35 23.6249 1842.61 24.4745L1845.32 24.2913C1844.84 23.6371 1844.31 23.012 1843.73 22.4205C1843.05 22.2375 1842.36 22.0968 1841.66 21.9997ZM1854.66 630.654C1853.81 633.709 1852.14 636.513 1849.79 638.716C1846.59 641.713 1842.42 643.377 1838.03 643.42L1833.77 643.456C1833.87 642.684 1833.93 641.902 1833.94 641.111L1834.09 631.417L1854.66 630.654ZM1831.78 631.503L1831.63 641.072C1831.61 641.884 1831.55 642.687 1831.43 643.476L1810.8 643.651L1811.26 632.264L1831.78 631.503ZM1808.94 632.35L1808.48 643.67L1788.42 643.84L1789.11 633.086L1808.94 632.35ZM1786.78 633.173L1786.09 643.86L1766.69 644.024L1767.57 633.885L1786.78 633.173ZM1765.23 633.972L1764.35 644.044L1745.57 644.203L1746.6 634.663L1765.23 633.972ZM1744.25 634.75L1743.22 644.223L1725 644.377L1726.15 635.422L1744.25 634.75ZM1723.8 635.509L1722.66 644.397L1704.95 644.547L1706.19 636.162L1723.8 635.509ZM1703.83 636.249L1702.61 644.567L1685.39 644.713L1686.68 636.886L1703.83 636.249ZM1684.32 636.973L1683.03 644.733L1666.26 644.875L1667.59 637.594L1684.32 636.973ZM1665.21 637.682L1663.89 644.895L1647.54 645.034L1648.88 638.288L1665.21 637.682ZM1646.49 638.377L1645.16 645.054L1629.19 645.189L1630.53 638.969L1646.49 638.377ZM1278.93 648.155C1274.13 644.823 1270.89 639.363 1270.64 633.101L1247.89 60.6506C1247.67 55.0905 1249.87 49.7157 1253.93 45.9064C1257.29 42.7553 1261.68 40.9258 1266.3 40.7551L1733.59 23.421L1734.99 17.9578L1239.84 22.1578C1235.46 22.1939 1231.28 23.8655 1228.08 26.862L1228.08 26.8687C1224.52 30.1932 1222.51 34.9002 1222.56 39.7792L1229.15 631.113C1229.25 640.129 1236.2 647.515 1244.99 648.349L1248.47 648.413L1278.93 648.155ZM1736.02 23.3308L1737.41 17.9372L1743.86 17.8825L1742.59 23.0871L1736.02 23.3308ZM1745 22.9977L1746.25 17.8622L1752.62 17.8082L1751.49 22.757L1745 22.9977ZM1753.89 22.6679L1755.01 17.7879L1761.3 17.7346L1760.29 22.4304L1753.89 22.6679ZM1762.7 22.3412L1763.69 17.7143L1769.89 17.6617L1769.01 22.107L1762.7 22.3412ZM1771.4 22.0185L1772.27 17.6416L1778.38 17.5897L1777.61 21.7879L1771.4 22.0185ZM1779.99 21.6996L1780.75 17.5696L1786.74 17.5187L1786.09 21.4734L1779.99 21.6996ZM1788.47 21.3852L1789.11 17.4986L1795.01 17.4486L1794.46 21.1629L1788.47 21.3852ZM1796.82 21.0753L1797.36 17.4287L1803.14 17.3796L1802.7 20.8574L1796.82 21.0753ZM1805.04 20.7704L1805.48 17.3598L1811.13 17.3119L1810.78 20.5577L1805.04 20.7704ZM1813.12 20.4709L1813.46 17.2921L1818.78 17.247C1818.82 18.1415 1818.81 19.0491 1818.73 19.9653L1818.7 20.2636L1813.12 20.4709ZM1821.04 20.1771L1821.04 20.1704C1821.12 19.1787 1821.14 18.1962 1821.1 17.2273L1825.57 17.1894C1825.82 18.0993 1826 19.0342 1826.12 19.9885L1821.04 20.1771ZM1828.45 19.9019C1828.35 18.9736 1828.18 18.0612 1827.96 17.1691L1831.06 17.1428C1831.09 17.1426 1831.11 17.1424 1831.14 17.1422C1831.18 17.142 1831.22 17.142 1831.27 17.1421C1831.75 17.9808 1832.16 18.853 1832.51 19.7516L1828.45 19.9019ZM1834.94 19.6613C1834.67 18.8768 1834.36 18.1086 1834 17.3603C1834.66 17.4653 1835.31 17.6079 1835.95 17.7868C1836.5 18.3455 1837.02 18.9399 1837.5 19.5662L1834.94 19.6613ZM1825.93 653.939C1828.34 651.678 1830.05 648.878 1830.93 645.793L1810.7 645.965L1810.27 656.457C1810.24 657.227 1810.17 657.99 1810.06 658.741L1813.28 658.801C1818 658.884 1822.5 657.157 1825.93 653.939ZM1807.96 656.346L1808.39 645.984L1788.27 646.155L1787.48 658.326L1807.72 658.698C1807.85 657.926 1807.93 657.141 1807.96 656.346ZM1785.15 658.283L1785.94 646.175L1766.49 646.34L1765.48 657.922L1785.15 658.283ZM1763.15 657.879L1764.15 646.359L1745.32 646.519L1744.12 657.529L1763.15 657.879ZM1741.79 657.486L1742.97 646.539L1724.71 646.694L1723.36 657.147L1741.79 657.486ZM1721.03 657.104L1722.36 646.714L1704.61 646.864L1703.15 656.775L1721.03 657.104ZM1700.82 656.732L1702.27 646.884L1685.01 647.031L1683.45 656.413L1700.82 656.732ZM1681.11 656.37L1682.65 647.051L1665.84 647.193L1664.22 656.059L1681.11 656.37ZM1661.86 656.016L1663.47 647.213L1647.08 647.352L1645.42 655.714L1661.86 656.016ZM1643.05 655.67L1644.7 647.373L1628.7 647.508L1627.01 655.375L1643.05 655.67ZM1624.64 655.331L1626.31 647.529L1610.67 647.661L1608.98 655.043L1624.64 655.331ZM1606.61 655L1608.29 647.682L1592.98 647.811L1591.3 654.718L1606.61 655ZM1203.12 647.579L1236.97 648.202C1231 644.833 1226.92 638.458 1226.84 631.125L1220.25 39.7917C1220.2 34.266 1222.47 28.9256 1226.5 25.1574C1230.11 21.7717 1234.85 19.8809 1239.82 19.8389L1735.59 15.6336L1736.82 10.8498L1213.29 1.22174C1208.56 1.13025 1204.08 2.8587 1200.64 6.0832L1200.63 6.07546C1197.03 9.43338 1195.01 14.0158 1194.93 18.9426L1185.34 629.18C1185.19 639.15 1193.16 647.393 1203.12 647.579ZM1739.21 10.8939L1738 15.6131L1744.42 15.5586L1745.53 11.01L1739.21 10.8939ZM1747.9 11.0537L1746.81 15.5383L1753.15 15.4845L1754.14 11.1685L1747.9 11.0537ZM1756.52 11.2121L1755.54 15.4643L1761.8 15.4113L1762.67 11.3253L1756.52 11.2121ZM1765.05 11.369L1764.19 15.391L1770.36 15.3386L1771.12 11.4807L1765.05 11.369ZM1773.48 11.5241L1772.73 15.3186L1778.8 15.267L1779.47 11.6342L1773.48 11.5241ZM1781.82 11.6775L1781.17 15.2469L1787.13 15.1964L1787.69 11.7854L1781.82 11.6775ZM1790.05 11.8288L1789.5 15.1763L1795.35 15.1267L1795.82 11.9349L1790.05 11.8288ZM1798.16 11.978L1797.7 15.1067L1803.44 15.058L1803.74 12.7266C1803.77 12.5116 1803.79 12.2967 1803.81 12.0819L1798.16 11.978ZM1806.04 13.0251L1805.78 15.0382L1811.33 14.9911C1811.37 14.0604 1811.35 13.1347 1811.27 12.219L1806.13 12.1246C1806.11 12.4246 1806.07 12.7248 1806.04 13.0251ZM1813.6 12.2619C1813.67 13.1582 1813.69 14.0626 1813.66 14.9714L1818.53 14.93C1818.38 14.0481 1818.17 13.1837 1817.91 12.3412L1813.6 12.2619ZM1820.34 12.3858C1820.56 13.2109 1820.74 14.0534 1820.87 14.9101L1824.76 14.8771C1824.41 14.0357 1824 13.2232 1823.53 12.4448C1823.51 12.4442 1823.48 12.4436 1823.45 12.4431L1820.34 12.3858ZM1826.33 12.7264C1826.67 13.417 1826.98 14.1278 1827.25 14.856L1829.7 14.8353C1829.41 14.472 1829.11 14.1176 1828.79 13.7729C1828.6 13.5676 1828.41 13.367 1828.21 13.1713C1827.6 12.9906 1826.97 12.8416 1826.33 12.7264ZM1807.18 661.011C1806.24 664.106 1804.51 666.909 1802.09 669.178C1798.4 672.624 1793.59 674.414 1788.54 674.189L1786.34 674.093C1786.47 673.332 1786.56 672.561 1786.61 671.782L1787.33 660.646L1807.18 661.011ZM1785 660.604L1784.29 671.627C1784.24 672.425 1784.14 673.214 1783.99 673.99L1764.15 673.125L1765.28 660.241L1785 660.604ZM1762.95 660.198L1761.83 673.023L1742.54 672.182L1743.87 659.847L1762.95 660.198ZM1741.54 659.804L1740.21 672.08L1721.55 671.267L1723.07 659.464L1741.54 659.804ZM1720.73 659.422L1719.23 671.165L1701.15 670.377L1702.81 659.092L1720.73 659.422ZM1700.48 659.049L1698.82 670.275L1681.29 669.51L1683.07 658.729L1700.48 659.049ZM1680.73 658.686L1678.95 669.408L1661.92 668.665L1663.8 658.374L1680.73 658.686ZM1661.44 658.331L1659.57 668.563L1643.01 667.84L1644.96 658.028L1661.44 658.331ZM1642.59 657.984L1640.65 667.737L1624.51 667.033L1626.51 657.689L1642.59 657.984ZM1624.14 657.645L1622.15 666.931L1606.41 666.244L1608.45 657.357L1624.14 657.645ZM1606.08 657.313L1604.06 666.141L1588.68 665.471L1590.74 657.031L1606.08 657.313ZM1588.36 656.987L1586.32 665.367L1571.3 664.712L1573.36 656.711L1588.36 656.987ZM1195.59 648.323L1159.43 646.746C1149.15 646.295 1141.13 637.561 1141.54 627.27L1167.31 -1.87172C1167.51 -6.78202 1169.6 -11.3379 1173.18 -14.6969L1173.18 -14.6825C1176.87 -18.1349 1181.67 -19.919 1186.73 -19.7L1738.48 4.36821L1737.41 8.53784L1213.32 -1.10051C1208 -1.19383 1202.93 0.743885 1199.05 4.38529C1194.99 8.18793 1192.71 13.3462 1192.62 18.9042L1183.02 629.148C1182.89 637.727 1188.11 645.184 1195.59 648.323ZM1739.81 8.58191L1740.86 4.47209L1747.05 4.74206L1746.09 8.69747L1739.81 8.58191ZM1748.47 8.74121L1749.42 4.84516L1755.53 5.11199L1754.67 8.8553L1748.47 8.74121ZM1757.05 8.89896L1757.89 5.21481L1763.92 5.47808L1763.17 9.01156L1757.05 8.89896ZM1765.54 9.05525L1766.29 5.58121L1772.24 5.84098L1771.58 9.16629L1765.54 9.05525ZM1773.94 9.20968L1774.59 5.94338L1780.46 6.19935L1779.89 9.31907L1773.94 9.20968ZM1782.24 9.36238L1782.8 6.3016L1788.56 6.55253L1788.07 9.46958L1782.24 9.36238ZM1790.43 9.51297L1790.91 6.65502L1796.45 6.89697C1796.42 7.63308 1796.35 8.37155 1796.24 9.11024L1796.16 9.61831L1790.43 9.51297ZM1798.5 9.6614L1798.53 9.45994C1798.66 8.63834 1798.73 7.81692 1798.77 6.99812L1803.73 7.21462C1803.85 8.05537 1803.91 8.90536 1803.92 9.76089L1798.5 9.6614ZM1806.23 9.80351C1806.23 8.9692 1806.18 8.13946 1806.08 7.31703L1810.26 7.49929C1810.53 8.28199 1810.75 9.08 1810.92 9.88964L1806.23 9.80351ZM1813.29 9.93332C1813.15 9.14789 1812.96 8.37164 1812.73 7.60714L1815.81 7.74142C1816.26 8.46668 1816.66 9.2216 1817.02 10.0019L1813.29 9.93332ZM1819.56 10.0486C1819.29 9.37639 1818.99 8.71925 1818.66 8.07928C1819.27 8.19805 1819.86 8.34613 1820.45 8.52269C1820.95 9.01926 1821.43 9.54297 1821.88 10.0913L1819.56 10.0486ZM1778.25 684.424C1780.66 682.169 1782.42 679.374 1783.41 676.294L1763.95 675.445L1762.93 687.121C1762.86 687.922 1762.75 688.715 1762.6 689.496L1763.79 689.576C1769.1 689.93 1774.37 688.051 1778.25 684.424ZM1760.62 686.908L1761.63 675.344L1742.28 674.5L1740.82 688.029L1760.26 689.338C1760.43 688.541 1760.55 687.729 1760.62 686.908ZM1738.5 687.872L1739.96 674.399L1721.25 673.583L1719.58 686.598L1738.5 687.872ZM1717.26 686.442L1718.93 673.482L1700.81 672.691L1698.96 685.209L1717.26 686.442ZM1696.64 685.053L1698.48 672.59L1680.91 671.823L1678.92 683.858L1696.64 685.053ZM1676.59 683.702L1678.57 671.722L1661.49 670.977L1659.38 682.543L1676.59 683.702ZM1657.05 682.386L1659.15 670.875L1642.55 670.151L1640.34 681.26L1657.05 682.386ZM1637.99 681.102L1640.19 670.048L1624.02 669.342L1621.73 680.006L1637.99 681.102ZM1619.39 679.848L1621.66 669.24L1605.88 668.552L1603.54 678.781L1619.39 679.848ZM1601.2 678.623L1603.53 668.449L1588.12 667.777L1585.74 677.581L1601.2 678.623ZM1583.39 677.423L1585.76 667.674L1570.71 667.018L1568.3 676.407L1583.39 677.423ZM1565.94 676.247L1568.33 666.914L1168.66 649.484L1565.94 676.247ZM1115.74 645.919L1155.76 648.615C1145.97 646.48 1138.79 637.526 1139.22 627.187L1164.99 -1.95479C1165.21 -7.48061 1167.56 -12.5978 1171.59 -16.3804C1175.73 -20.2631 1181.14 -22.2698 1186.82 -22.0178L1739.07 2.06601L1740.01 -1.5679L1160.18 -40.6359C1154.87 -40.9903 1149.6 -39.1181 1145.72 -35.4767L1145.71 -35.4844C1142.14 -32.1321 1139.99 -27.5884 1139.67 -22.687L1097.74 625.352C1097.04 635.978 1105.12 645.203 1115.74 645.919ZM1742.37 -1.40836L1741.45 2.16992L1747.61 2.43852L1748.45 -0.998957L1742.37 -1.40836ZM1750.8 -0.840697L1749.98 2.54151L1756.06 2.80684L1756.8 -0.436127L1750.8 -0.840697ZM1759.15 -0.278087L1758.42 2.9097L1764.42 3.17143L1765.07 0.121085L1759.15 -0.278087ZM1767.43 0.279616L1766.78 3.27453L1772.7 3.53273L1773.27 0.673532L1767.43 0.279616ZM1775.61 0.830933L1775.05 3.63504L1780.88 3.88932L1781.25 1.87142C1781.29 1.65359 1781.33 1.43591 1781.36 1.2184L1775.61 0.830933ZM1783.53 2.30001L1783.23 3.99156L1788.9 4.23919C1789 3.4027 1789.04 2.56731 1789.04 1.73601L1783.69 1.37523C1783.64 1.68318 1783.59 1.99145 1783.53 2.30001ZM1791.37 1.89312C1791.37 2.70652 1791.32 3.52322 1791.24 4.34106L1796.44 4.56772C1796.39 3.77735 1796.3 2.99256 1796.17 2.21614L1791.37 1.89312ZM1798.54 2.37601C1798.65 3.13449 1798.73 3.89962 1798.77 4.66927L1803.29 4.8665C1803.1 4.11597 1802.87 3.37608 1802.6 2.6497L1798.54 2.37601ZM1805.11 2.81889C1805.34 3.52682 1805.53 4.24501 1805.69 4.97135L1809.28 5.12784C1808.93 4.40627 1808.53 3.70246 1808.09 3.01979L1805.11 2.81889ZM1811.02 3.42316C1811.33 4.01789 1811.62 4.6245 1811.88 5.24133L1814.06 5.33637C1813.63 4.82293 1813.17 4.33116 1812.68 3.86316C1812.14 3.69271 1811.58 3.54565 1811.02 3.42316ZM1759.62 691.633C1758.58 694.679 1756.8 697.445 1754.42 699.679C1750.28 703.555 1744.69 705.482 1739.04 704.971L1738.84 704.954C1739.03 704.129 1739.17 703.292 1739.26 702.445L1740.57 690.349L1759.62 691.633ZM1738.25 690.193L1736.95 702.189C1736.85 703.053 1736.71 703.906 1736.51 704.744L1717.47 703.035L1719.29 688.915L1738.25 690.193ZM1716.97 688.759L1715.16 702.827L1696.61 701.162L1698.62 687.523L1716.97 688.759ZM1696.3 687.366L1694.3 700.954L1676.36 699.343L1678.53 686.169L1696.3 687.366ZM1676.21 686.012L1674.04 699.135L1656.64 697.573L1658.96 684.85L1676.21 686.012ZM1656.63 684.693L1654.32 697.364L1637.44 695.849L1639.88 683.564L1656.63 684.693ZM1637.53 683.406L1635.1 695.639L1618.69 694.166L1621.24 682.308L1637.53 683.406ZM1618.89 682.15L1616.36 693.956L1600.39 692.522L1603.01 681.079L1618.89 682.15ZM1600.67 680.921L1598.06 692.313L1582.49 690.915L1585.18 679.878L1600.67 680.921ZM1582.83 679.719L1580.16 690.706L1564.98 689.343L1567.71 678.7L1582.83 679.719ZM1565.35 678.541L1562.63 689.132L1072.06 645.085C1061.11 644.097 1052.98 634.389 1053.93 623.448L1112.04 -43.4946C1112.46 -48.3805 1114.67 -52.9198 1118.25 -56.2721L1118.25 -56.2576C1122.38 -60.127 1127.98 -62.0606 1133.62 -61.5575L1741.4 -6.98765L1740.59 -3.84457L1160.32 -42.9427C1154.37 -43.3456 1148.47 -41.2385 1144.12 -37.1679C1140.11 -33.4131 1137.7 -28.3148 1137.35 -22.8278L1095.42 625.211C1094.65 637.103 1103.7 647.434 1115.59 648.232L1565.35 678.541ZM1742.96 -3.68505L1743.75 -6.77626L1749.72 -6.23998L1749 -3.27771L1742.96 -3.68505ZM1751.35 -3.11945L1752.06 -6.0302L1757.96 -5.50024L1757.33 -2.71696L1751.35 -3.11945ZM1759.67 -2.55896L1760.3 -5.29072L1766.12 -4.76787L1765.56 -2.16201L1759.67 -2.55896ZM1767.92 -2.0035L1768.46 -4.55763L1774.1 -4.05181C1774.02 -3.27996 1773.9 -2.50771 1773.75 -1.73725L1773.73 -1.61195L1767.92 -2.0035ZM1776.06 -1.45462C1776.21 -2.25021 1776.33 -3.04738 1776.41 -3.84413L1781.6 -3.37773C1781.64 -2.61839 1781.64 -1.85232 1781.6 -1.08168L1776.06 -1.45462ZM1783.92 -0.925411C1783.96 -1.67745 1783.96 -2.42562 1783.94 -3.16817L1788.58 -2.75092C1788.73 -2.03685 1788.84 -1.31532 1788.92 -0.588317L1783.92 -0.925411ZM1791.27 -0.429523C1791.21 -1.13598 1791.12 -1.83819 1791 -2.53448L1794.93 -2.18143C1795.2 -1.51052 1795.43 -0.828027 1795.63 -0.136157L1791.27 -0.429523ZM1798.07 0.0284813C1797.9 -0.639379 1797.71 -1.30004 1797.48 -1.95196L1800.39 -1.69072C1800.81 -1.05689 1801.2 -0.405058 1801.54 0.262277L1798.07 0.0284813ZM1804.2 0.441461C1803.95 -0.122922 1803.67 -0.678633 1803.38 -1.22458C1803.92 -1.09798 1804.45 -0.949654 1804.97 -0.78063C1805.42 -0.348939 1805.85 0.105025 1806.26 0.580469L1804.2 0.441461ZM1730.59 714.947C1732.95 712.736 1734.73 710.014 1735.82 707.017L1717.18 705.343L1715.58 717.769C1715.47 718.673 1715.3 719.567 1715.08 720.445C1720.79 720.851 1726.4 718.868 1730.59 714.947ZM1713.28 717.477L1714.86 705.135L1696.27 703.465L1694.11 718.134L1712.75 720.202C1712.98 719.31 1713.16 718.4 1713.28 717.477ZM1691.81 717.878L1693.96 703.258L1675.98 701.643L1673.62 715.86L1691.81 717.878ZM1671.31 715.604L1673.66 701.435L1656.22 699.869L1653.71 713.65L1671.31 715.604ZM1651.39 713.393L1653.9 699.66L1636.98 698.142L1634.33 711.499L1651.39 713.393ZM1632 711.241L1634.65 697.932L1618.2 696.455L1615.43 709.402L1632 711.241ZM1613.11 709.144L1615.87 696.246L1599.87 694.809L1596.99 707.356L1613.11 709.144ZM1594.67 707.098L1597.53 694.599L1581.94 693.199L1578.98 705.357L1594.67 707.098ZM1576.65 705.099L1579.6 692.989L1564.39 691.623L1561.37 703.402L1576.65 705.099ZM1559.03 703.143L1562.04 691.412L1071.84 647.393C1059.61 646.301 1050.54 635.46 1051.61 623.242L1109.72 -43.7008C1110.19 -49.1569 1112.66 -54.2286 1116.65 -57.9634C1121.26 -62.2897 1127.52 -64.4348 1133.82 -63.8743L1741.98 -9.26331L1742.67 -11.956L1107.07 -82.4937C1101.09 -83.1533 1095.15 -81.1728 1090.76 -77.0688C1087.18 -73.7165 1084.93 -69.1883 1084.4 -64.31L1010.12 621.537C1008.89 632.806 1017.08 643.005 1028.36 644.25L1559.03 703.143ZM1745.02 -11.6961L1744.34 -9.0519L1750.28 -8.51831L1750.89 -11.0438L1745.02 -11.6961ZM1753.22 -10.7858L1752.62 -8.30846L1758.49 -7.7813L1758.76 -8.95462C1758.85 -9.35126 1758.93 -9.74792 1759 -10.1444L1753.22 -10.7858ZM1761.02 -8.44053L1760.82 -7.57176L1766.55 -7.05712C1766.66 -7.79868 1766.73 -8.54095 1766.77 -9.28205L1761.31 -9.88773C1761.23 -9.40558 1761.13 -8.92302 1761.02 -8.44053ZM1769.09 -9.02463C1769.05 -8.29967 1768.98 -7.57377 1768.88 -6.84834L1774.22 -6.36892C1774.22 -7.07037 1774.19 -7.76963 1774.13 -8.46507L1769.09 -9.02463ZM1776.48 -8.20438C1776.52 -7.5257 1776.54 -6.84395 1776.54 -6.16043L1781.37 -5.72612C1781.27 -6.39324 1781.14 -7.05308 1780.99 -7.70398L1776.48 -8.20438ZM1783.43 -7.4334C1783.56 -6.79986 1783.66 -6.15932 1783.75 -5.51295L1787.96 -5.13507C1787.75 -5.76828 1787.52 -6.39329 1787.25 -7.00853L1783.43 -7.4334ZM1789.87 -6.71838C1790.09 -6.12274 1790.28 -5.51984 1790.45 -4.9108L1793.78 -4.6122C1793.44 -5.22398 1793.07 -5.82275 1792.68 -6.40666L1789.87 -6.71838ZM1795.72 -5.88573C1796 -5.38746 1796.26 -4.88123 1796.5 -4.36781L1798.46 -4.19163C1798.07 -4.62711 1797.67 -5.04456 1797.25 -5.4434C1796.74 -5.61002 1796.23 -5.75763 1795.72 -5.88573ZM1712.01 722.454C1710.87 725.386 1709.09 728.049 1706.77 730.217C1702.57 734.158 1697.01 736.187 1691.32 735.925C1691.57 735.001 1691.76 734.056 1691.91 733.093L1693.77 720.43L1712.01 722.454ZM1691.47 720.174L1689.62 732.752C1689.47 733.756 1689.25 734.738 1688.98 735.694L1670.74 733.305L1673.25 718.152L1691.47 720.174ZM1670.94 717.895L1668.44 733.004L1650.6 730.667L1653.29 715.937L1670.94 717.895ZM1650.97 715.68L1648.29 730.365L1631.03 728.103L1633.87 713.782L1650.97 715.68ZM1631.55 713.524L1628.71 727.799L1611.96 725.604L1614.94 711.681L1631.55 713.524ZM1612.62 711.423L1609.64 725.301L1593.37 723.169L1596.47 709.631L1612.62 711.423ZM1594.15 709.374L1591.06 722.866L1575.22 720.792L1578.43 707.629L1594.15 709.374ZM1576.1 707.371L1572.91 720.489L1557.5 718.47L1560.78 705.671L1576.1 707.371ZM1558.45 705.412L1555.17 718.165L984.663 643.423C979.046 642.682 974.041 639.809 970.571 635.309C967.107 630.816 965.592 625.245 966.312 619.619L1056.76 -85.1254C1057.39 -89.996 1059.7 -94.5275 1063.27 -97.8654L1063.27 -97.8799C1067.92 -102.233 1074.21 -104.252 1080.51 -103.43L1743.84 -16.5214C1743.82 -16.4097 1743.79 -16.2981 1743.76 -16.1866L1743.26 -14.2247L1107.32 -84.7995C1100.66 -85.5398 1094.06 -83.3411 1089.17 -78.7668C1085.19 -75.0452 1082.68 -69.9991 1082.09 -64.5664L1007.81 621.274C1006.46 633.818 1015.56 645.163 1028.11 646.556L1558.45 705.412ZM1745.6 -13.9648L1746.02 -15.6003C1746.07 -15.8055 1746.12 -16.011 1746.17 -16.2166L1751.8 -15.4786C1751.71 -14.7569 1751.59 -14.0358 1751.44 -13.317L1745.6 -13.9648ZM1753.75 -13.0599C1753.9 -13.7642 1754.01 -14.4704 1754.1 -15.1772L1759.39 -14.484C1759.39 -13.8071 1759.36 -13.1266 1759.3 -12.4439L1753.75 -13.0599ZM1761.61 -12.1876C1761.67 -12.854 1761.71 -13.5184 1761.72 -14.1799L1766.62 -13.5375C1766.7 -12.8996 1766.75 -12.2581 1766.78 -11.6143L1761.61 -12.1876ZM1769.12 -11.3546C1769.1 -11.9806 1769.06 -12.6047 1769 -13.2261L1773.39 -12.6503C1773.55 -12.0503 1773.69 -11.4446 1773.81 -10.8343L1769.12 -11.3546ZM1776.21 -10.5676C1776.11 -11.1576 1776 -11.7441 1775.86 -12.3261L1779.57 -11.8408C1779.82 -11.2767 1780.06 -10.7018 1780.27 -10.1174L1776.21 -10.5676ZM1782.81 -9.83563C1782.63 -10.3953 1782.44 -10.9479 1782.23 -11.4925L1784.96 -11.1343C1785.34 -10.5945 1785.69 -10.0424 1786.02 -9.47917L1782.81 -9.83563ZM1788.82 -9.16826C1788.59 -9.63542 1788.34 -10.0967 1788.08 -10.5515C1788.56 -10.4251 1789.04 -10.2823 1789.51 -10.1234C1789.9 -9.75282 1790.28 -9.36649 1790.65 -8.96486L1788.82 -9.16826ZM1682.96 745.487C1685.26 743.329 1687.03 740.766 1688.2 737.919L1670.36 735.582L1668.24 748.425C1668.07 749.436 1667.84 750.427 1667.56 751.394C1673.24 751.522 1678.74 749.445 1682.96 745.487ZM1665.95 748.04L1668.06 735.281L1650.19 732.94L1647.34 748.539L1664.78 751.154C1664.91 751.175 1665.05 751.194 1665.19 751.212C1665.52 750.184 1665.77 749.125 1665.95 748.04ZM1645.04 748.194L1647.88 732.637L1630.58 730.371L1627.55 745.572L1645.04 748.194ZM1625.24 745.225L1628.26 730.067L1611.47 727.868L1608.3 742.683L1625.24 745.225ZM1605.99 742.338L1609.16 727.565L1592.85 725.429L1589.54 739.871L1605.99 742.338ZM1587.24 739.525L1590.54 725.126L1574.68 723.048L1571.25 737.127L1587.24 739.525ZM1568.95 736.782L1572.36 722.745L1556.92 720.723L1553.39 734.449L1568.95 736.782ZM1551.08 734.102L1554.59 720.418L984.371 645.726C978.135 644.908 972.582 641.71 968.734 636.723C964.887 631.722 963.216 625.543 964.01 619.312L1054.46 -85.4318C1055.16 -90.8346 1057.72 -95.8552 1061.69 -99.5701C1066.84 -104.4 1073.81 -106.643 1080.81 -105.724L1744.3 -18.8086C1744.4 -19.4623 1744.48 -20.117 1744.53 -20.7718L1053.96 -124.351C1047.32 -125.345 1040.69 -123.286 1035.78 -118.684L1035.78 -118.67C1032.15 -115.285 1029.85 -110.869 1029.13 -105.941L922.498 617.707C921.658 623.491 923.099 629.261 926.591 633.959C930.083 638.656 935.188 641.727 940.97 642.596L1551.08 734.102ZM1746.84 -20.425C1746.79 -19.7849 1746.71 -19.1448 1746.61 -18.5055L1751.99 -17.8005C1752.02 -18.4186 1752.02 -19.036 1752 -19.6517L1746.84 -20.425ZM1754.33 -19.3023C1754.34 -18.7019 1754.33 -18.1003 1754.3 -17.4981L1759.29 -16.8443C1759.24 -17.4304 1759.17 -18.0126 1759.08 -18.5899L1754.33 -19.3023ZM1761.48 -18.2296C1761.55 -17.6685 1761.61 -17.1037 1761.65 -16.5356L1766.2 -15.9397C1766.07 -16.4929 1765.93 -17.0421 1765.77 -17.5865L1761.48 -18.2296ZM1768.28 -17.2086C1768.42 -16.6824 1768.54 -16.1525 1768.64 -15.6195L1772.58 -15.104C1772.37 -15.6311 1772.15 -16.1522 1771.9 -16.6663L1768.28 -17.2086ZM1774.61 -16.2593C1774.81 -15.7659 1775 -15.2674 1775.17 -14.7644L1778.24 -14.3624C1777.93 -14.8756 1777.6 -15.3767 1777.25 -15.8644L1774.61 -16.2593ZM1780.42 -15.2245C1780.66 -14.8186 1780.89 -14.406 1781.1 -13.9872L1782.82 -13.7623C1782.48 -14.1224 1782.13 -14.4703 1781.77 -14.8055C1781.32 -14.9592 1780.88 -15.0989 1780.42 -15.2245ZM1664.36 753.434C1663.15 756.186 1661.4 758.666 1659.16 760.766C1654.92 764.734 1649.47 766.863 1643.8 766.855C1644.12 765.844 1644.37 764.808 1644.56 763.749L1646.92 750.82L1664.36 753.434ZM1644.62 750.475L1642.28 763.335C1642.07 764.495 1641.77 765.627 1641.4 766.724C1640.94 766.674 1640.48 766.611 1640.03 766.534L1623.92 763.829L1627.1 747.847L1644.62 750.475ZM1624.79 747.5L1621.62 763.442L1604.46 760.559L1607.81 744.953L1624.79 747.5ZM1605.51 744.608L1602.17 760.174L1585.53 757.378L1589.02 742.136L1605.51 744.608ZM1586.72 741.791L1583.24 756.993L1567.08 754.278L1570.7 739.388L1586.72 741.791ZM1568.4 739.043L1564.78 753.893L1549.08 751.254L1552.81 736.706L1568.4 739.043ZM1550.5 736.359L1546.77 750.867L897.272 641.747C884.999 639.684 876.676 628.036 878.702 615.768L1001.5 -126.778C1002.31 -131.699 1004.66 -136.104 1008.29 -139.51L1008.29 -139.503C1013.46 -144.347 1020.43 -146.452 1027.41 -145.28L1744.54 -24.7979C1744.58 -24.2293 1744.61 -23.6589 1744.61 -23.0875L1054.32 -126.627C1046.95 -127.733 1039.63 -125.444 1034.2 -120.366C1030.19 -116.604 1027.64 -111.742 1026.84 -106.282L920.221 617.367C919.269 623.76 920.881 630.152 924.734 635.35C928.595 640.541 934.242 643.943 940.635 644.896L1550.5 736.359ZM1746.94 -22.7376C1746.95 -23.2931 1746.93 -23.8478 1746.9 -24.4012L1751.55 -23.6207C1751.65 -23.086 1751.74 -22.5483 1751.81 -22.0083L1746.94 -22.7376ZM1754.18 -21.6521C1754.13 -22.1744 1754.06 -22.6949 1753.97 -23.2132L1758.12 -22.5174C1758.28 -22.0153 1758.43 -21.5073 1758.57 -20.9942L1754.18 -21.6521ZM1761.05 -20.6218C1760.94 -21.1143 1760.82 -21.6028 1760.68 -22.0868L1764.21 -21.4934C1764.45 -21.0172 1764.67 -20.5352 1764.88 -20.0478L1761.05 -20.6218ZM1767.53 -19.6502C1767.36 -20.1132 1767.18 -20.5725 1766.98 -21.0275L1769.55 -20.5966C1769.76 -20.3033 1769.97 -20.0045 1770.17 -19.6999C1770.28 -19.5359 1770.39 -19.3709 1770.5 -19.2049L1767.53 -19.6502ZM1773.43 -18.7643C1773.23 -19.1444 1773.02 -19.5205 1772.79 -19.8923C1773.21 -19.7711 1773.62 -19.6383 1774.02 -19.4943C1774.37 -19.1812 1774.7 -18.8583 1775.02 -18.5262L1773.43 -18.7643ZM1635.35 776.058C1637.53 774.017 1639.26 771.618 1640.49 768.965C1640.21 768.927 1639.93 768.885 1639.64 768.837L1623.47 766.12L1620.9 779.067C1620.67 780.176 1620.38 781.261 1620.03 782.318C1625.67 782.177 1631.17 779.976 1635.35 776.058ZM1618.61 778.616L1621.17 765.733L1603.97 762.844L1600.47 779.203L1615.26 781.943C1616.03 782.085 1616.81 782.187 1617.58 782.25C1618.02 781.077 1618.36 779.863 1618.61 778.616ZM1598.18 778.78L1601.68 762.459L1585.01 759.657L1581.34 775.662L1598.18 778.78ZM1579.06 775.239L1582.71 759.272L1566.52 756.552L1562.71 772.214L1579.06 775.239ZM1560.43 771.791L1564.23 756.166L1548.5 753.523L1544.56 768.853L1560.43 771.791ZM1542.26 768.428L1546.19 753.136L896.893 644.043C883.366 641.761 874.175 628.913 876.413 615.383L999.209 -127.163C1000.1 -132.601 1002.69 -137.453 1006.7 -141.208C1012.41 -146.548 1020.09 -148.868 1027.81 -147.575L1744.25 -27.1993C1744.17 -27.682 1744.08 -28.1626 1743.97 -28.6407L1000.88 -166.207C993.659 -167.542 986.153 -165.34 980.794 -160.322C977.156 -156.916 974.757 -152.508 973.859 -147.593L834.895 613.864C833.776 619.954 835.114 626.137 838.639 631.251C842.158 636.358 847.46 639.799 853.571 640.927L1542.26 768.428ZM1746.45 -28.1829C1746.53 -27.7213 1746.61 -27.2578 1746.67 -26.7927L1750.95 -26.0743C1750.81 -26.5298 1750.67 -26.9823 1750.51 -27.4313L1746.45 -28.1829ZM1753.1 -26.9502C1753.24 -26.5196 1753.36 -26.0865 1753.47 -25.6511L1757.13 -25.0357C1756.93 -25.47 1756.73 -25.8985 1756.51 -26.3207L1753.1 -26.9502ZM1759.34 -25.7964C1759.52 -25.3953 1759.68 -24.9897 1759.84 -24.5801L1762.7 -24.0993C1762.43 -24.5213 1762.14 -24.9329 1761.83 -25.3341L1759.34 -25.7964ZM1765.16 -24.5652C1765.35 -24.2438 1765.54 -23.9192 1765.73 -23.5918L1767.2 -23.3435C1766.92 -23.6252 1766.64 -23.8994 1766.34 -24.166C1765.95 -24.3091 1765.56 -24.4423 1765.16 -24.5652ZM1616.63 784.485C1615.37 787.046 1613.66 789.366 1611.54 791.35C1607.34 795.282 1601.9 797.523 1596.26 797.776C1596.65 796.675 1596.97 795.542 1597.21 794.383L1599.98 781.469L1614.84 784.221C1615.44 784.331 1616.03 784.419 1616.63 784.485ZM1597.7 781.046L1594.94 793.905C1594.65 795.23 1594.27 796.518 1593.78 797.759C1592.68 797.695 1591.58 797.554 1590.49 797.335L1577 794.618L1580.82 777.922L1597.7 781.046ZM1578.54 777.499L1574.72 794.159L1558.18 790.829L1562.16 774.468L1578.54 777.499ZM1559.88 774.045L1555.91 790.37L1539.86 787.138L1543.98 771.101L1559.88 774.045ZM1541.69 770.676L1537.58 786.678L809.857 640.091C803.597 638.821 798.193 635.198 794.646 629.886C791.093 624.565 789.829 618.185 791.069 611.923L946.207 -168.424C947.185 -173.34 949.628 -177.745 953.274 -181.157L953.288 -181.156C958.914 -186.43 966.785 -188.663 974.341 -187.142L1742.85 -32.3444C1743.01 -31.9403 1743.15 -31.5333 1743.29 -31.1237L1001.29 -168.493C993.357 -169.97 985.101 -167.541 979.21 -162.027C975.204 -158.278 972.568 -153.438 971.582 -148.028L832.626 613.422C831.394 620.136 832.866 626.931 836.745 632.553C840.631 638.181 846.459 641.968 853.172 643.199L1541.69 770.676ZM1745.87 -30.6462C1745.76 -31.0357 1745.64 -31.4232 1745.51 -31.8087L1748.84 -31.1378C1749.05 -30.7574 1749.25 -30.3733 1749.44 -29.9857L1745.87 -30.6462ZM1752.2 -29.4738C1752.05 -29.8374 1751.89 -30.1986 1751.73 -30.5571L1754.1 -30.0781C1754.38 -29.7166 1754.65 -29.3478 1754.91 -28.9723L1752.2 -29.4738ZM1758.01 -28.3972C1757.85 -28.6845 1757.68 -28.9688 1757.5 -29.25C1757.87 -29.134 1758.23 -29.0096 1758.59 -28.8769C1758.86 -28.6393 1759.12 -28.3957 1759.37 -28.1462L1758.01 -28.3972ZM1587.75 806.651C1589.81 804.724 1591.49 802.482 1592.76 800.012C1591.86 799.927 1590.95 799.794 1590.05 799.612L1576.48 796.878L1573.54 809.707C1573.26 810.916 1572.91 812.096 1572.48 813.242C1578.12 812.89 1583.53 810.6 1587.75 806.651ZM1571.27 809.193L1574.2 796.42L1557.64 793.083L1553.5 810.076L1565.74 812.73C1567.14 813.036 1568.56 813.214 1569.98 813.271C1570.52 811.96 1570.95 810.597 1571.27 809.193ZM1551.23 809.584L1555.36 792.625L1539.29 789.387L1535 806.062L1551.23 809.584ZM1532.73 805.569L1537 788.927L809.414 642.374C802.546 640.993 796.623 637.018 792.731 631.178C788.832 625.345 787.441 618.344 788.808 611.474L943.946 -168.872C945.026 -174.268 947.705 -179.105 951.703 -182.847C957.868 -188.624 966.497 -191.075 974.789 -189.403L1741.7 -34.9279C1741.53 -35.2713 1741.34 -35.6118 1741.15 -35.9494L947.787 -208.078C939.897 -209.784 931.667 -207.513 925.776 -201.998L925.774 -201.984C922.128 -198.557 919.641 -194.155 918.583 -189.238L747.27 610.013C744.428 623.265 752.908 636.385 766.164 639.264L1532.73 805.569ZM1744.11 -35.3091C1744.26 -34.9934 1744.4 -34.6757 1744.54 -34.3561L1747.16 -33.8281C1746.93 -34.1597 1746.68 -34.485 1746.43 -34.8038L1744.11 -35.3091ZM1750.19 -33.4366C1750.24 -33.354 1750.29 -33.2711 1750.34 -33.1881L1751.53 -32.9486C1751.31 -33.1603 1751.08 -33.3682 1750.85 -33.5721C1750.54 -33.691 1750.22 -33.8037 1749.9 -33.91C1750 -33.7534 1750.09 -33.5956 1750.19 -33.4366ZM1568.91 815.523C1567.63 817.909 1565.96 820.078 1563.96 821.952C1559.72 825.922 1554.33 828.254 1548.7 828.699C1549.17 827.511 1549.56 826.286 1549.86 825.032L1552.96 812.32L1565.26 814.99C1566.47 815.252 1567.69 815.429 1568.91 815.523ZM1550.69 811.828L1547.61 824.482C1547.25 825.962 1546.76 827.395 1546.16 828.771C1544.44 828.733 1542.7 828.517 1540.98 828.117L1529.99 825.571L1534.43 808.301L1550.69 811.828ZM1532.15 807.808L1527.73 825.045L722.472 638.437C715.883 636.91 710.289 632.909 706.694 627.179C703.1 621.448 701.961 614.663 703.466 608.08L890.946 -210.068C892.077 -214.98 894.6 -219.386 898.262 -222.826C904.42 -228.597 913.016 -230.912 921.24 -229.006L1738.73 -39.548C1738.95 -39.2702 1739.17 -38.9874 1739.38 -38.6997L948.271 -210.329C939.631 -212.202 930.629 -209.714 924.189 -203.674C920.198 -199.925 917.47 -195.113 916.317 -189.723L745.004 609.528C741.9 624.031 751.17 638.403 765.678 641.544L1532.15 807.808ZM1742.65 -37.9907L1743.73 -37.7545C1743.55 -37.9253 1743.37 -38.0934 1743.18 -38.2587C1742.88 -38.3749 1742.57 -38.4856 1742.27 -38.5909C1742.4 -38.3927 1742.52 -38.1926 1742.65 -37.9907ZM1540.18 837.246C1542.11 835.427 1543.75 833.337 1545.03 831.045C1543.51 830.952 1541.98 830.732 1540.47 830.381L1529.42 827.819L1526.19 840.363C1525.86 841.66 1525.44 842.924 1524.94 844.15C1530.56 843.613 1535.92 841.238 1540.18 837.246ZM1523.94 839.77L1527.15 827.294L721.945 640.67C714.764 639.004 708.646 634.643 704.728 628.38C700.803 622.123 699.552 614.719 701.197 607.529L888.678 -210.619C889.908 -215.981 892.673 -220.797 896.671 -224.538C903.399 -230.839 912.775 -233.364 921.762 -231.277L1735.87 -42.6009C1735.74 -42.7217 1735.61 -42.8411 1735.47 -42.9591C1734.4 -43.379 1733.29 -43.7305 1732.15 -44.0099L894.707 -249.934C886.135 -252.04 877.181 -249.701 870.749 -243.668L870.741 -243.662C867.072 -240.229 864.505 -235.812 863.309 -230.898L659.653 606.154C656.267 620.062 664.846 634.164 678.766 637.594L1516.23 843.504C1518.26 844.006 1520.31 844.257 1522.35 844.267C1523.01 842.828 1523.54 841.324 1523.94 839.77ZM1521.16 846.561C1519.33 846.476 1517.49 846.213 1515.67 845.765L678.201 639.847C663.041 636.119 653.694 620.745 657.386 605.589L861.042 -231.463C862.344 -236.82 865.159 -241.625 869.15 -245.374C876.159 -251.93 885.915 -254.484 895.242 -252.188L1728.82 -47.2253C1727.45 -47.8355 1726.03 -48.3352 1724.55 -48.7166L868.158 -270.848C859.261 -273.161 849.934 -270.785 843.228 -264.504L843.222 -264.512C839.545 -261.073 836.926 -256.652 835.665 -251.735L615.842 604.214C614.073 611.119 615.094 618.301 618.722 624.448C622.357 630.603 628.156 634.968 635.066 636.759L1491.46 858.905C1500.35 861.204 1509.67 858.834 1516.39 852.547C1518.27 850.784 1519.88 848.768 1521.16 846.561Z" fill="white" fill-opacity="0.04"></path></g><defs><clipPath id="clip0_575_6285"><rect width="1440" height="674" fill="white"></rect></clipPath></defs></svg>