<svg xmlns="http://www.w3.org/2000/svg" width="1440" height="674" viewBox="0 0 1440 674" fill="none"><g clip-path="url(#clip0_655_6683)"><rect width="1440" height="674" fill="white"></rect><path d="M0 0H1440V674H0V0Z" fill="url(#paint0_linear_655_6683)"></path><path fill-rule="evenodd" clip-rule="evenodd" d="M2022.28 482.367C2023.77 488.074 2022.03 494.131 2017.72 498.162C2015.77 499.982 2013.37 501.302 2010.78 501.976L1998.51 505.147C1997.76 508.223 1996.13 511.076 1993.76 513.297C1991.58 515.332 1988.89 516.739 1985.95 517.372L1974.8 519.761C1974.07 523.035 1972.36 526.062 1969.83 528.441L1969.83 528.435C1967.42 530.699 1964.41 532.198 1961.13 532.769L1951.05 534.518C1950.31 537.958 1948.54 541.145 1945.91 543.609L1945.91 543.617C1943.25 546.102 1939.94 547.679 1936.31 548.173L1927.33 549.391C1926.58 552.948 1924.75 556.218 1922.01 558.786C1919.1 561.513 1915.47 563.161 1911.49 563.562L1903.58 564.357C1902.8 568.006 1900.92 571.361 1898.12 573.984C1895.01 576.9 1890.95 578.668 1886.68 578.959L1879.84 579.422C1879.01 583.131 1877.08 586.545 1874.25 589.192C1870.89 592.343 1866.5 594.173 1861.87 594.35L1856.08 594.564C1855.2 598.3 1853.23 601.742 1850.38 604.414C1846.76 607.806 1842.03 609.69 1837.06 609.732L1832.34 609.773C1831.4 613.521 1829.41 616.924 1826.52 619.637L1826.53 619.631C1822.65 623.272 1817.57 625.224 1812.25 625.123L1808.57 625.055C1807.58 628.786 1805.56 632.17 1802.68 634.876C1798.53 638.758 1793.12 640.758 1787.44 640.513L1784.8 640.398C1783.74 644.091 1781.7 647.442 1778.84 650.122C1774.49 654.193 1768.59 656.307 1762.64 655.904L1761.02 655.795C1759.89 659.432 1757.83 662.737 1755.01 665.377C1750.4 669.703 1744.13 671.855 1737.84 671.288L1737.21 671.231C1736.02 674.802 1733.96 678.047 1731.18 680.645L1731.17 680.638C1726.39 685.131 1719.92 687.331 1713.39 686.715C1712.14 690.195 1710.08 693.358 1707.36 695.907C1702.54 700.421 1696.13 702.675 1689.59 702.193C1688.3 705.593 1686.26 708.646 1683.55 711.185C1678.69 715.726 1672.32 718.037 1665.77 717.684C1664.43 720.996 1662.4 723.972 1659.74 726.462L1659.75 726.463C1654.86 731.044 1648.52 733.403 1641.95 733.172C1640.58 736.402 1638.55 739.311 1635.94 741.756L1635.94 741.748C1631.1 746.288 1624.67 748.728 1618.12 748.641C1616.72 751.794 1614.7 754.639 1612.14 757.041L1612.15 757.049C1607.27 761.606 1600.86 764.102 1594.3 764.126C1592.86 767.204 1590.86 769.982 1588.34 772.334C1583.44 776.936 1577.05 779.472 1570.48 779.597C1569.02 782.604 1567.02 785.325 1564.55 787.635L1564.56 787.643C1559.62 792.273 1553.24 794.86 1546.64 795.081C1545.17 798.014 1543.18 800.67 1540.76 802.936C1535.79 807.6 1529.43 810.24 1522.82 810.558C1521.32 813.423 1519.36 816.026 1516.98 818.259L1516.99 818.252C1509.69 825.084 1499.56 827.66 1489.88 825.15L633.487 603.011C625.986 601.066 619.672 596.319 615.728 589.633C611.777 582.953 610.666 575.146 612.597 567.643L832.42 -288.306C833.794 -293.643 836.637 -298.446 840.636 -302.202C847.921 -309.034 858.056 -311.617 867.73 -309.107L1724.13 -86.9681C1728.45 -85.8479 1732.37 -83.7966 1735.68 -80.9826C1738.5 -79.8336 1741.1 -78.2473 1743.39 -76.2825C1746.25 -75.1278 1748.84 -73.5234 1751.09 -71.5734C1753.94 -70.4506 1756.55 -68.8617 1758.83 -66.8696C1761.67 -65.7637 1764.27 -64.1831 1766.54 -62.1892C1769.41 -61.0843 1772 -59.4906 1774.23 -57.5261C1777.1 -56.4463 1779.74 -54.8476 1782.03 -52.7985C1784.85 -51.7487 1787.45 -50.1834 1789.69 -48.1694C1792.56 -47.128 1795.2 -45.5383 1797.47 -43.4734C1800.32 -42.4546 1802.93 -40.8799 1805.18 -38.8214C1808.09 -37.8022 1810.71 -36.2009 1812.91 -34.1679C1815.83 -33.1715 1818.45 -31.573 1820.65 -29.5298C1823.53 -28.5743 1826.17 -27 1828.42 -24.8801C1831.34 -23.9282 1833.96 -22.3374 1836.14 -20.2771C1839.03 -19.3748 1841.69 -17.8093 1843.94 -15.6516C1846.68 -14.8136 1849.21 -13.3597 1851.38 -11.3536C1851.49 -11.2475 1851.61 -11.1402 1851.72 -11.0318C1854.66 -10.1533 1857.31 -8.5647 1859.47 -6.45457C1862.42 -5.60525 1865.1 -4.01669 1867.25 -1.88369C1870.22 -1.06435 1872.91 0.520694 1875.05 2.67232C1878.02 3.46172 1880.71 5.03935 1882.85 7.2044C1885.82 7.96156 1888.52 9.53057 1890.66 11.7093C1896.25 13.0681 1900.95 17.3816 1902.5 23.3272L2022.28 482.367ZM1893.24 15.1462C1896.59 16.8879 1899.22 19.9868 1900.25 23.9186L2020.02 482.943C2021.3 487.828 2019.81 493.01 2016.12 496.456C2014.46 498.015 2012.41 499.144 2010.19 499.715L1998.93 502.626C1999.07 501.003 1998.97 499.35 1998.62 497.721L1895 19.7841C1894.64 18.1165 1894.04 16.5609 1893.24 15.1462ZM1996.54 503.244C1996.77 501.6 1996.71 499.898 1996.35 498.202L1892.75 20.2734C1892.21 17.7969 1891.05 15.6085 1889.48 13.8352C1888.61 13.6682 1887.73 13.5835 1886.83 13.5876C1887.12 14.4373 1887.35 15.321 1887.51 16.2343L1974.24 509.011L1996.54 503.244ZM1995.92 505.816C1995.19 507.975 1993.92 509.96 1992.17 511.599C1990.3 513.353 1987.98 514.563 1985.45 515.111L1975.17 517.316C1975.27 515.916 1975.2 514.49 1974.95 513.068L1974.64 511.317L1995.92 505.816ZM1972.39 511.899L1972.67 513.46C1972.93 514.924 1972.96 516.394 1972.79 517.826L1950.48 522.607L1949.81 517.738L1972.39 511.899ZM1947.55 518.32L1948.21 523.092L1925.98 527.857L1925.58 524L1947.55 518.32ZM1925.34 521.653L1947.23 515.993L1878.06 15.4211L1873.31 16.6497L1925.34 521.653ZM1923.31 524.587L1923.7 528.346L1902.12 532.971L1901.92 530.117L1923.31 524.587ZM1901.75 527.752L1923.07 522.24L1871.03 17.2382L1865.95 18.5518L1901.75 527.752ZM1899.63 530.708L1899.83 533.462L1878.84 537.96L1878.76 536.103L1899.63 530.708ZM1878.67 533.721L1899.47 528.343L1863.66 19.1428L1858.27 20.5369L1878.67 533.721ZM1876.47 536.697L1876.54 538.453L1856.09 542.834L1856.09 541.966L1876.47 536.697ZM1856.06 539.567L1876.37 534.315L1855.98 21.1307L1850.31 22.5957L1856.06 539.567ZM1853.77 542.564L1853.78 543.33L1836.39 547.056L1853.77 542.564ZM1833.88 545.302L1853.75 540.166L1847.99 23.1952L1842.07 24.726L1833.88 545.302ZM1812.12 550.929L1831.56 545.902L1839.75 25.3252L1833.58 26.9212L1812.12 550.929ZM1790.74 556.456L1809.78 551.534L1831.23 27.5294L1824.86 29.1748L1790.74 556.456ZM1782.06 558.701L1788.37 557.069L1822.49 29.7893L1815.92 31.4888L1769.76 561.338L1782.06 558.701ZM1716.73 575.594L1721.73 574.3L1714.45 575.563L1710.13 576.488L1716.73 575.594ZM1717.03 577.913L1708.13 580.215L1707.92 581.669L1725.32 579.921L1725.73 576.734L1717.03 577.913ZM1746.33 570.34L1736.24 572.947L1746.19 571.597L1746.33 570.34ZM1749.94 569.407L1748.73 569.718L1748.57 571.275L1766.77 568.806L1766.98 566.451L1749.94 569.407ZM1782.75 560.924L1777.64 562.246L1788.16 560.421L1788.2 559.756L1782.75 560.924ZM1705.69 580.844L1699.06 582.559L1705.54 581.908L1705.69 580.844ZM1688.67 582.849L1697.53 580.558L1688.85 581.735L1688.67 582.849ZM1683.9 584.082L1686.21 583.485L1686.44 582.062L1680.14 582.916L1669.58 585.179L1669.52 585.527L1683.9 584.082ZM1684.25 586.388L1685.75 586.237L1685.08 590.279L1668.45 591.405L1668.63 590.427L1684.25 586.388ZM1666.15 591.068L1666.06 591.567L1663.56 591.736L1666.15 591.068ZM1651.01 592.586L1666.61 588.554L1666.68 588.153L1650.37 589.792L1649.79 592.668L1651.01 592.586ZM1651.35 594.894L1649.24 595.437L1648.35 599.946L1664.64 599.341L1665.63 593.927L1651.35 594.894ZM1646.74 596.085L1630.08 600.392L1630.03 600.626L1645.95 600.035L1646.74 596.085ZM1630.62 597.858L1638.8 595.744L1630.96 596.274L1630.62 597.858ZM1618.22 601.064L1628.1 598.509L1628.55 596.438L1612.92 597.496L1612.05 601.293L1618.22 601.064ZM1618.53 603.377L1611.13 605.29L1610.2 609.341L1625.81 609.209L1627.13 603.058L1618.53 603.377ZM1608.6 605.945L1594.96 609.47L1607.82 609.361L1608.6 605.945ZM1593.01 607.583L1607.73 603.777L1593.81 604.294L1593.01 607.583ZM1585.4 609.551L1590.46 608.242L1591.4 604.383L1577.6 604.895L1576.35 605.162L1575.2 609.638L1585.4 609.551ZM1585.7 611.865L1589.59 611.832L1587.92 618.675L1572.95 618.399L1573.84 614.93L1585.7 611.865ZM1574.5 612.369L1576.14 611.946L1574.61 611.959L1574.5 612.369ZM1571.27 615.595L1570.56 618.355L1561.25 618.184L1571.27 615.595ZM1552.62 618.025L1571.93 613.035L1572.2 611.979L1543.41 612.223L1537.31 613.53C1538.87 615.487 1540.94 616.977 1543.25 617.853L1552.62 618.025ZM1552.87 620.353L1552.13 620.542C1548.95 621.367 1545.74 621.175 1542.85 620.168L1509.22 619.55L1508.38 619.732C1505.53 620.341 1502.7 620.177 1500.09 619.382L1465.52 618.746L1464.6 618.906C1462.11 619.339 1459.65 619.205 1457.35 618.596L1421.88 617.944L1420.86 618.082C1418.72 618.372 1416.62 618.263 1414.63 617.811L1378.11 617.139L1377.09 617.242C1375.33 617.42 1373.6 617.337 1371.94 617.025L1334.63 616.339L1333.35 616.426C1331.93 616.521 1330.54 616.454 1329.18 616.239L1290.81 615.534L1289.59 615.579C1288.57 615.616 1287.57 615.573 1286.59 615.456L1251.7 614.814L1567.93 628.609L1569.97 620.667L1552.87 620.353ZM1538.36 617.763C1537 616.735 1535.8 615.49 1534.82 614.064L1519.2 617.411L1538.36 617.763ZM1532.8 609.997L1515.09 610.147L1532.04 607.208L1532.5 608.989C1532.59 609.331 1532.69 609.667 1532.8 609.997ZM1531.27 604.29L1519.26 604.736L1530.98 603.147L1531.27 604.29ZM1533.3 602.887L1533.65 604.202L1536.34 604.102L1549.78 601.771L1533.3 602.887ZM1530.03 599.54L1492.35 603.326L1490.29 603.465L1387.34 128.595C1386.27 123.653 1387.83 118.658 1391.52 115.198L1391.52 115.205C1393.39 113.452 1395.72 112.241 1398.23 111.7L1718.29 43.098L1715.2 55.1129L1424.21 130.347C1421.62 131.021 1419.22 132.342 1417.28 134.155C1412.97 138.186 1411.22 144.241 1412.72 149.957L1530.03 599.54ZM1714.54 57.6998L1424.82 132.609C1422.6 133.181 1420.53 134.302 1418.88 135.861L1418.86 135.86C1415.18 139.313 1413.69 144.495 1414.96 149.387L1532.37 599.305L1569.17 595.609L1576.66 594.592L1714.54 57.6998ZM1717.78 54.446L1720.84 42.5518L1728.49 40.9109L1725.7 52.3997L1717.78 54.446ZM1725.07 54.9769L1717.12 57.033L1579.15 594.254L1594.37 592.191L1725.07 54.9769ZM1728.25 51.741L1731.01 40.371L1738.57 38.7504L1736.06 49.7208L1728.25 51.741ZM1735.47 52.2879L1727.62 54.3182L1596.84 591.856L1612.31 589.757L1735.47 52.2879ZM1738.59 49.0663L1741.08 38.2135L1748.54 36.6152L1746.29 47.0751L1738.59 49.0663ZM1745.75 49.6316L1738 51.6333L1614.77 589.423L1630.51 587.288L1745.75 49.6316ZM1748.82 46.4221L1751.04 36.0793L1758.39 34.5032L1756.41 44.4596L1748.82 46.4221ZM1755.9 47.0052L1748.27 48.9786L1632.96 586.956L1643.18 585.57L1649.03 584.555L1755.9 47.0052ZM1758.91 43.8141L1760.86 33.973L1768.1 32.4209L1766.38 41.8826L1758.91 43.8141ZM1765.91 44.4169L1758.4 46.3597L1651.49 584.128L1667.93 581.276L1765.91 44.4169ZM1768.86 41.2414L1770.56 31.8938L1777.67 30.3714L1776.18 39.3477L1768.86 41.2414ZM1775.76 41.87L1768.39 43.7757L1670.37 580.853L1687.12 577.947L1775.76 41.87ZM1778.65 38.7089L1780.12 29.8458L1787.1 28.3497L1785.85 36.8491L1778.65 38.7089ZM1785.48 39.3591L1778.23 41.2313L1689.55 577.527L1706.62 574.565L1785.48 39.3591ZM1788.29 36.2177L1789.52 27.8298L1796.37 26.3622L1795.34 34.3945L1788.29 36.2177ZM1795.02 36.8917L1787.92 38.7278L1709.02 574.148L1714.06 573.275L1726.51 570.606L1795.02 36.8917ZM1797.75 33.7705L1798.77 25.8479L1805.46 24.4142L1804.64 31.9904L1797.75 33.7705ZM1804.37 34.4742L1797.43 36.2677L1728.92 570.09L1746.77 566.264L1804.37 34.4742ZM1807.04 31.3698L1807.85 23.9022L1814.37 22.5039L1813.75 29.6346L1807.04 31.3698ZM1813.53 32.1044L1806.77 33.8536L1749.16 565.751L1767.38 561.848L1813.53 32.1044ZM1816.13 29.019L1816.74 21.9955L1823.08 20.6371L1822.65 27.3342L1816.13 29.019ZM1825.02 26.7198L1825.45 20.1291L1831.59 18.814L1831.33 25.0896L1825.02 26.7198ZM1833.68 24.4815L1833.93 18.3108L1839.88 17.0352L1839.79 22.9014L1833.68 24.4815ZM1842.11 22.3023L1842.2 16.5389L1847.9 15.3163L1847.96 20.7883L1842.11 22.3023ZM1850.28 20.1889L1850.22 14.819L1855.68 13.6497L1855.88 18.7415L1850.28 20.1889ZM1858.18 18.1478L1857.98 13.1566L1863.17 12.045L1863.5 16.7722L1858.18 18.1478ZM1865.78 16.1813L1865.46 11.5536L1870.34 10.5077L1870.79 14.8873L1865.78 16.1813ZM1873.07 14.2988L1872.62 10.0176L1875.81 9.33374C1876.1 9.2717 1876.39 9.21899 1876.68 9.1754C1877.18 10.3698 1877.54 11.647 1877.72 12.9881L1877.74 13.0909L1873.07 14.2988ZM1880 12.5054C1879.82 11.2936 1879.52 10.1282 1879.11 9.01971C1879.98 9.03892 1880.83 9.13698 1881.66 9.30819C1882.3 10.0227 1882.88 10.8032 1883.38 11.6412C1883.21 11.6801 1883.03 11.722 1882.86 11.767L1880 12.5054ZM1884.44 13.8086C1884.79 14.7034 1885.06 15.6454 1885.23 16.6269L1971.99 509.592L1949.48 515.411L1880.32 14.8354L1883.45 14.0278C1883.78 13.9419 1884.11 13.869 1884.44 13.8086ZM1885.84 11.2894C1885.73 11.0939 1885.63 10.9007 1885.52 10.7101C1885.84 10.8818 1886.15 11.0656 1886.46 11.261C1886.25 11.2664 1886.04 11.2758 1885.84 11.2894ZM1534.33 606.81L1534.75 608.412C1534.89 608.95 1535.06 609.471 1535.25 609.976L1543.12 609.909L1564.2 605.392L1536.6 606.416L1534.33 606.81ZM1968.24 526.751C1970.16 524.958 1971.52 522.73 1972.26 520.306L1950.8 524.906L1951.28 528.414C1951.45 529.648 1951.49 530.885 1951.4 532.104L1960.73 530.486C1963.56 529.998 1966.15 528.706 1968.24 526.751ZM1948.99 528.719L1948.53 525.392L1926.22 530.174L1926.86 536.361L1949.03 532.514C1949.18 531.265 1949.17 529.991 1948.99 528.719ZM1924.57 536.759L1923.94 530.663L1902.28 535.304L1902.65 540.56L1924.57 536.759ZM1900.35 540.959L1899.99 535.795L1878.93 540.31L1879.1 544.645L1900.35 540.959ZM1876.8 545.045L1876.63 540.803L1856.12 545.198L1856.16 548.625L1876.8 545.045ZM1853.84 549.027L1853.81 545.694L1833.81 549.981L1833.77 552.509L1853.84 549.027ZM1831.45 552.912L1831.49 550.478L1811.97 554.662L1811.9 556.303L1831.45 552.912ZM1809.57 556.707L1809.63 555.163L1790.56 559.25L1790.51 560.012L1809.57 556.707ZM1648.48 587.329L1645.74 587.915L1639.81 588.512L1643.11 587.938L1648.5 587.207L1648.48 587.329ZM1631.59 593.322L1646.03 590.227L1647.94 590.035L1647.38 592.831L1631.47 593.909L1631.59 593.322ZM1666.59 585.821L1667.13 585.706L1667.11 585.768L1666.59 585.821ZM1627.65 594.167L1629.1 593.856L1629.05 594.072L1627.65 594.167ZM1625.19 592.321L1613.53 594.819L1613.84 593.46L1625.19 592.321ZM1609.65 601.382L1610.45 597.853L1594.55 601.262L1594.38 601.948L1609.65 601.382ZM1595.55 598.672L1595.16 598.757L1595.17 598.698L1595.55 598.672ZM1591.97 602.038L1592.03 601.802L1590.71 602.085L1591.97 602.038ZM1592.64 599.297L1577.31 602.582L1577.01 602.593L1577.71 599.88L1592.74 598.862L1592.64 599.297ZM1554.66 609.812L1573.81 605.707L1572.79 609.658L1554.66 609.812ZM1531.86 612.321L1508.99 617.223L1500.46 617.066C1498.36 616.375 1496.45 615.203 1494.87 613.654L1501.05 612.583L1531.86 612.321ZM1492.16 614.125C1493.06 615.202 1494.09 616.157 1495.22 616.97L1477.63 616.646L1492.16 614.125ZM1476.99 610.469L1489.79 610.361C1489.56 609.86 1489.36 609.345 1489.18 608.815L1476.99 610.469ZM1447.57 606.357L1487.95 603.624L1385.07 129.083C1383.86 123.433 1385.71 117.465 1389.93 113.507C1392.11 111.465 1394.8 110.058 1397.74 109.425L1718.94 40.5815L1721.64 30.0625L1371.66 90.7772C1368.83 91.2656 1366.23 92.564 1364.15 94.512L1364.16 94.5053C1360.51 97.9177 1358.86 102.877 1359.72 107.788L1447.16 604.622C1447.26 605.215 1447.4 605.794 1447.57 606.357ZM1724.16 29.6252L1721.48 40.0353L1729.1 38.4023L1731.55 28.3426L1724.16 29.6252ZM1734.04 27.9101L1731.62 37.8624L1739.15 36.2497L1741.35 26.643L1734.04 27.9101ZM1743.83 26.2128L1741.65 35.713L1749.07 34.1231L1751.03 24.963L1743.83 26.2128ZM1753.51 24.5331L1751.57 33.5871L1758.88 32.0198L1760.62 23.3004L1753.51 24.5331ZM1763.07 22.8749L1761.36 31.4896L1768.56 29.9467L1770.07 21.6608L1763.07 22.8749ZM1772.51 21.2374L1771.01 29.4196L1778.07 27.9067L1779.37 20.0464L1772.51 21.2374ZM1781.81 19.624L1780.53 27.381L1787.46 25.8949L1788.56 18.4533L1781.81 19.624ZM1790.97 18.0351L1789.88 25.375L1796.68 23.9177L1797.59 16.8866L1790.97 18.0351ZM1799.97 16.4726L1799.08 23.4035L1805.72 21.9806L1806.44 15.3507L1799.97 16.4726ZM1808.82 14.9382L1808.11 21.4687L1814.58 20.0817L1815.12 13.844L1808.82 14.9382ZM1817.49 13.434L1816.95 19.5733L1823.24 18.2267L1823.61 12.3711L1817.49 13.434ZM1825.98 11.9611L1825.61 17.7188L1831.68 16.4162L1831.91 10.9324L1825.98 11.9611ZM1834.25 10.5257L1834.03 15.9129L1839.92 14.6504L1840 9.52816L1834.25 10.5257ZM1842.32 9.12674L1842.24 14.1542L1847.88 12.9453L1847.82 8.17118L1842.32 9.12674ZM1850.15 7.76849L1850.2 12.448L1855.59 11.2932L1855.41 6.85537L1850.15 7.76849ZM1857.71 6.45561L1857.89 10.8001L1863 9.70377L1862.72 5.73413C1862.72 5.68554 1862.71 5.63703 1862.71 5.58856L1857.71 6.45561ZM1865.04 5.56934L1865.29 9.21238L1870.05 8.19189C1869.83 6.90633 1869.44 5.67989 1868.93 4.52994C1868.68 4.56 1868.43 4.59648 1868.18 4.63954L1865.01 5.19023C1865.02 5.31621 1865.03 5.44261 1865.04 5.56934ZM1871.41 4.44033C1871.81 5.48208 1872.12 6.57315 1872.33 7.70452L1875.31 7.06511C1875.4 7.04707 1875.48 7.02971 1875.56 7.01303C1875.06 6.20991 1874.49 5.45907 1873.86 4.76829C1873.06 4.5917 1872.24 4.48067 1871.41 4.44033ZM1877.82 6.26909C1877.91 6.41452 1877.99 6.56134 1878.07 6.70952C1878.23 6.70255 1878.39 6.6979 1878.54 6.69552C1878.31 6.54667 1878.07 6.40449 1877.82 6.26909ZM1492.37 610.339C1492.05 609.752 1491.77 609.137 1491.53 608.497L1495.68 607.934L1519.31 607.057L1500.8 610.268L1492.37 610.339ZM1948.55 534.952C1947.81 537.578 1946.36 539.993 1944.32 541.904C1942.02 544.06 1939.14 545.424 1935.99 545.853L1927.67 546.982C1927.75 545.919 1927.73 544.84 1927.62 543.754L1927.09 538.674L1948.55 534.952ZM1924.8 539.071L1925.31 543.992C1925.43 545.108 1925.42 546.217 1925.31 547.302L1903.34 550.283L1902.82 542.886L1924.8 539.071ZM1900.52 543.285L1901.03 550.595L1879.46 553.522L1879.2 546.984L1900.52 543.285ZM1876.89 547.383L1877.15 553.835L1856.25 556.67L1856.19 550.975L1876.89 547.383ZM1853.87 551.377L1853.93 556.984L1833.66 559.734L1833.73 554.871L1853.87 551.377ZM1831.41 555.273L1831.34 560.049L1811.64 562.721L1811.8 558.675L1831.41 555.273ZM1809.47 559.079L1809.31 563.036L1790.15 565.635L1790.36 562.395L1809.47 559.079ZM1788 562.804L1787.8 565.954L1769.13 568.486L1769.35 566.04L1788 562.804ZM1571.84 597.945L1575.47 597.315L1569.72 597.893L1566.83 598.284L1571.84 597.945ZM1607.76 594.072L1595.79 596.148L1595.75 596.327L1611.04 595.291L1611.4 593.705L1607.76 594.072ZM1572.08 600.261L1553.64 603.46L1574.58 602.683L1575.26 600.046L1572.08 600.261ZM1465.33 616.42L1486.76 612.704L1458.76 612.941L1452.7 613.763C1454.18 614.905 1455.88 615.765 1457.7 616.28L1465.33 616.42ZM1452.06 616.176C1451.2 615.586 1450.39 614.917 1449.65 614.178L1436.96 615.898L1452.06 616.176ZM1446.96 610.724L1441.52 610.77L1446.69 610.251C1446.74 610.339 1446.79 610.426 1446.84 610.513C1446.88 610.584 1446.92 610.654 1446.96 610.724ZM1445.19 606.518L1413.59 608.658L1405.69 608.951C1404.5 607.125 1403.69 605.016 1403.37 602.719L1332.1 86.9885C1331.43 82.0988 1333.17 77.1753 1336.77 73.8029L1336.76 73.8096C1339.06 71.6459 1341.94 70.2818 1345.1 69.8543L1724.64 18.3739L1722.27 27.599L1371.26 88.494C1367.98 89.065 1364.97 90.5569 1362.55 92.8207C1358.35 96.7646 1356.43 102.517 1357.43 108.194L1444.86 605.028C1444.95 605.534 1445.06 606.031 1445.19 606.518ZM1724.79 27.1617L1727.13 18.0354L1734.3 17.0641L1732.15 25.8851L1724.79 27.1617ZM1734.64 25.4527L1736.76 16.7292L1743.84 15.7696L1741.91 24.1918L1734.64 25.4527ZM1744.39 23.7616L1746.3 15.4362L1753.28 14.4895L1751.56 22.5184L1744.39 23.7616ZM1754.03 22.0885L1755.73 14.1562L1762.62 13.2223L1761.1 20.8626L1754.03 22.0885ZM1763.55 20.4371L1765.05 12.8923L1771.84 11.9723L1770.51 19.2301L1763.55 20.4371ZM1772.95 18.8068L1774.26 11.6437L1780.91 10.7413L1779.77 17.6232L1772.95 18.8068ZM1782.21 17.2007L1783.33 10.4131L1789.87 9.52607L1788.91 16.0379L1782.21 17.2007ZM1791.32 15.6196L1792.27 9.2009L1798.68 8.33057L1797.9 14.4793L1791.32 15.6196ZM1800.28 14.0653L1801.06 8.00851L1807.33 7.15833L1806.7 12.9519L1800.28 14.0653ZM1809.08 12.5394L1809.69 6.83718L1815.81 6.00805L1815.33 11.4541L1809.08 12.5394ZM1817.7 11.0442L1818.16 5.68862L1824.1 4.88343L1823.77 9.99071L1817.7 11.0442ZM1826.13 9.58067L1826.46 4.5636L1832.2 3.78459L1832 8.56189L1826.13 9.58067ZM1834.35 8.15516L1834.54 3.46709L1840.11 2.7118L1840.04 7.16801L1834.35 8.15516ZM1842.35 6.76657L1842.42 2.39814L1847.75 1.67521L1847.8 5.82201L1842.35 6.76657ZM1850.12 5.41933L1850.07 1.36022L1855.11 0.677837C1855.16 1.14378 1855.2 1.61439 1855.22 2.08873L1855.32 4.51775L1850.12 5.41933ZM1857.62 4.11801L1857.54 2.00395C1857.51 1.45317 1857.47 0.906936 1857.4 0.366282L1860.56 -0.0615082C1860.76 -0.0898541 1860.97 -0.113805 1861.18 -0.133447C1861.69 0.946966 1862.1 2.09464 1862.36 3.29496L1857.62 4.11801ZM1864.65 2.89764C1864.42 1.84006 1864.1 0.817695 1863.7 -0.161741C1864.5 -0.104139 1865.28 0.0159425 1866.05 0.194133C1866.67 0.86348 1867.24 1.58829 1867.75 2.36148L1864.65 2.89764ZM1870.3 2.10716C1870.24 2.00126 1870.18 1.89605 1870.12 1.79152C1870.3 1.89178 1870.47 1.99549 1870.64 2.10255C1870.53 2.10296 1870.42 2.10448 1870.3 2.10716ZM1449.24 609.994C1449.4 610.235 1449.56 610.47 1449.72 610.7L1458.45 610.627L1471.75 608.821L1454.57 609.459L1449.24 609.994ZM1920.42 557.088C1922.6 555.048 1924.11 552.505 1924.86 549.726L1903.5 552.623L1903.96 559.094C1904.02 560.063 1904.02 561.026 1903.94 561.976L1911.25 561.241C1914.72 560.896 1917.89 559.459 1920.42 557.088ZM1901.64 559.258L1901.2 552.935L1879.55 555.871L1879.89 564.393L1901.58 562.213C1901.69 561.242 1901.71 560.253 1901.64 559.258ZM1877.58 564.625L1877.24 556.184L1856.27 559.028L1856.36 566.756L1877.58 564.625ZM1854.04 566.989L1853.96 559.342L1833.62 562.101L1833.51 569.052L1854.04 566.989ZM1831.19 569.285L1831.3 562.415L1811.54 565.095L1811.29 571.285L1831.19 569.285ZM1808.96 571.518L1809.21 565.411L1790 568.017L1789.64 573.459L1808.96 571.518ZM1787.3 573.694L1787.64 568.336L1768.92 570.875L1768.51 575.581L1787.3 573.694ZM1766.16 575.818L1766.56 571.195L1748.31 573.671L1747.87 577.655L1766.16 575.818ZM1745.51 577.893L1745.93 573.993L1728.11 576.411L1727.69 579.683L1745.51 577.893ZM1497.77 605.293L1495.32 605.624L1491.23 605.776L1492.48 605.651L1497.77 605.293ZM1440.22 613.099L1421.65 615.617L1414.97 615.494C1413.52 615.147 1412.14 614.589 1410.86 613.85L1416.32 613.301L1440.22 613.099ZM1407.31 614.206C1407.82 614.628 1408.35 615.02 1408.91 615.382L1397.66 615.176L1407.31 614.206ZM1364.23 610.489L1403.05 609.049C1402.05 607.232 1401.37 605.211 1401.07 603.045L1329.81 87.3077C1329.02 81.6758 1331.03 75.9954 1335.18 72.1128C1337.83 69.6199 1341.16 68.0501 1344.78 67.5566L1725.26 15.9538L1727.34 7.85898L1318.52 48.924C1315.06 49.2706 1311.89 50.7138 1309.36 53.0854L1309.37 53.0787C1305.75 56.4711 1303.96 61.2457 1304.47 66.181L1359.56 600.816C1359.95 604.631 1361.68 607.995 1364.23 610.489ZM1729.81 7.61069L1727.76 15.6154L1734.88 14.6488L1736.77 6.91217L1729.81 7.61069ZM1739.21 6.66636L1737.35 14.3139L1744.39 13.3591L1746.08 5.97615L1739.21 6.66636ZM1748.52 5.73131L1746.85 13.0257L1753.79 12.0841L1755.3 5.05041L1748.52 5.73131ZM1757.74 4.80548L1756.25 11.7508L1763.1 10.8223L1764.43 4.13371L1757.74 4.80548ZM1766.84 3.89103L1765.53 10.4922L1772.27 9.57785L1773.43 3.22923L1766.84 3.89103ZM1775.84 2.9875L1774.7 9.24921L1781.31 8.35264L1782.3 2.33834L1775.84 2.9875ZM1784.71 2.09667L1783.73 8.02439L1790.22 7.1434L1791.06 1.45854L1784.71 2.09667ZM1793.44 1.21898L1792.62 6.81827L1798.99 5.95426L1799.68 0.592836L1793.44 1.21898ZM1802.04 0.355436L1801.36 5.63222L1807.58 4.78866L1808.13 -0.25617L1802.04 0.355436ZM1810.49 -0.49307L1809.95 4.46755L1816.01 3.64537L1816.43 -1.0895L1810.49 -0.49307ZM1818.77 -1.32532L1818.37 3.32597L1824.25 2.52811L1824.54 -1.90433L1818.77 -1.32532ZM1826.89 -2.14065L1826.61 2.2083L1832.3 1.43698L1832.47 -2.70063L1826.89 -2.14065ZM1834.8 -2.93545L1834.64 1.11951L1840.15 0.372323L1840.21 -3.4782L1834.8 -2.93545ZM1842.52 -3.71037L1842.46 0.0586993L1847.73 -0.655674L1847.72 -1.54225C1847.71 -2.44453 1847.63 -3.33543 1847.49 -4.20932L1842.52 -3.71037ZM1850.04 -1.55372L1850.05 -0.970615L1854.67 -1.59689C1854.37 -2.70652 1853.96 -3.77873 1853.45 -4.80012C1853.28 -4.78824 1853.1 -4.77339 1852.92 -4.7555L1849.8 -4.44158C1849.95 -3.49411 1850.03 -2.52957 1850.04 -1.55372ZM1856.03 -4.76339C1856.42 -3.84194 1856.74 -2.88874 1856.98 -1.91069L1859.93 -2.31079C1859.43 -3.04765 1858.87 -3.74057 1858.26 -4.38331C1857.53 -4.56221 1856.78 -4.69013 1856.03 -4.76339ZM1862.44 -2.68508C1862.46 -2.65917 1862.47 -2.6332 1862.49 -2.60722C1862.51 -2.576 1862.53 -2.54472 1862.54 -2.51339L1862.59 -2.51351L1862.64 -2.51352C1862.67 -2.51347 1862.7 -2.51333 1862.73 -2.51313C1862.67 -2.55105 1862.61 -2.58855 1862.54 -2.62564C1862.51 -2.64557 1862.48 -2.66538 1862.44 -2.68508ZM1901.14 564.602C1900.37 567.512 1898.79 570.178 1896.53 572.294C1893.81 574.847 1890.26 576.385 1886.51 576.644L1880.21 577.07C1880.3 576.202 1880.32 575.323 1880.29 574.44L1879.98 566.728L1901.14 564.602ZM1877.67 566.96L1877.97 574.525C1878.01 575.435 1877.97 576.339 1877.86 577.23L1856.49 578.676L1856.39 569.097L1877.67 566.96ZM1854.07 569.33L1854.18 578.833L1833.33 580.244L1833.47 571.399L1854.07 569.33ZM1831.15 571.632L1831.02 580.401L1810.86 581.765L1811.19 573.637L1831.15 571.632ZM1808.86 573.871L1808.54 581.922L1789.01 583.244L1789.49 575.817L1808.86 573.871ZM1787.14 576.053L1786.67 583.403L1767.72 584.685L1768.31 577.945L1787.14 576.053ZM1765.95 578.181L1765.37 584.844L1746.96 586.091L1747.62 580.023L1765.95 578.181ZM1745.25 580.261L1744.6 586.25L1726.69 587.463L1727.38 582.056L1745.25 580.261ZM1725.01 582.294L1724.33 587.623L1706.86 588.805L1707.56 584.046L1725.01 582.294ZM1705.19 584.285L1704.5 588.965L1687.46 590.118L1688.15 585.997L1705.19 584.285ZM1416.11 610.985L1417.68 610.827L1414.04 610.962L1413.36 611.008L1416.11 610.985ZM1378 614.814L1390.91 613.517L1374.22 613.658L1369.65 613.968C1370.47 614.284 1371.32 614.532 1372.2 614.707L1378 614.814ZM1365.71 614.588C1365.54 614.484 1365.37 614.378 1365.21 614.269L1361.61 614.513L1365.71 614.588ZM1361.19 610.602L1331.57 611.701L1323.6 611.769C1319.22 609.103 1316.14 604.421 1315.75 598.927L1276.84 45.3878C1276.49 40.4724 1278.36 35.7255 1281.95 32.3598L1281.94 32.352C1284.66 29.7992 1288.23 28.2547 1291.96 27.9945L1729.78 -1.63128L1727.95 5.46678L1318.28 46.6174C1314.31 47.0189 1310.67 48.6667 1307.77 51.3875C1303.61 55.2768 1301.57 60.7583 1302.15 66.4181L1357.25 601.061C1357.62 604.688 1359.05 607.96 1361.19 610.602ZM1730.43 5.21848L1732.23 -1.79715L1739 -2.25513L1737.35 4.5233L1730.43 5.21848ZM1739.79 4.27748L1741.42 -2.41938L1748.11 -2.87196L1746.63 3.59075L1739.79 4.27748ZM1749.07 3.34591L1750.53 -3.03567L1757.13 -3.48216L1755.81 2.66865L1749.07 3.34591ZM1758.25 2.42372L1759.55 -3.64597L1766.06 -4.08652L1764.9 1.75575L1758.25 2.42372ZM1767.32 1.51307L1768.46 -4.24892L1774.88 -4.68294L1773.86 0.855255L1767.32 1.51307ZM1776.27 0.613476L1777.27 -4.84486L1783.56 -5.27058L1782.69 -0.0315531L1776.27 0.613476ZM1785.1 -0.273206L1785.95 -5.43247L1792.14 -5.85096L1791.41 -0.90695L1785.1 -0.273206ZM1793.79 -1.14652L1794.51 -6.01152L1800.58 -6.42217L1799.98 -1.76811L1793.79 -1.14652ZM1802.34 -2.00554L1802.93 -6.58145L1808.86 -6.98252L1808.39 -2.61232L1802.34 -2.00554ZM1810.74 -2.84925L1811.21 -7.14152L1816.99 -7.53259L1816.63 -3.44055L1810.74 -2.84925ZM1818.98 -3.67637L1819.33 -7.69095L1824.94 -8.07048L1824.69 -4.25007L1818.98 -3.67637ZM1827.04 -4.4864L1827.28 -8.22936L1832.71 -8.59626L1832.56 -5.04075L1827.04 -4.4864ZM1834.9 -5.27555L1835.04 -8.68462L1835.04 -8.75422L1839.87 -9.08071C1840.08 -8.02053 1840.21 -6.92762 1840.23 -5.81119L1834.9 -5.27555ZM1842.53 -6.04244C1842.5 -7.12999 1842.38 -8.19733 1842.19 -9.23774L1845.3 -9.44866C1845.44 -9.45817 1845.58 -9.46588 1845.72 -9.4718C1846.23 -8.51695 1846.64 -7.51829 1846.95 -6.48636L1842.53 -6.04244ZM1849.3 -6.72209C1849.05 -7.62864 1848.73 -8.51381 1848.35 -9.37196C1849.08 -9.28451 1849.8 -9.14795 1850.5 -8.96547C1851.09 -8.34852 1851.64 -7.69359 1852.13 -7.00596L1849.3 -6.72209ZM1854.81 -7.15055L1854.8 -7.15424L1854.81 -7.15047L1854.81 -7.15055ZM1872.66 587.494C1874.97 585.324 1876.6 582.581 1877.4 579.587L1856.52 581.001L1856.62 589.786C1856.63 590.604 1856.58 591.417 1856.49 592.222L1861.78 592.025C1865.84 591.871 1869.7 590.262 1872.66 587.494ZM1854.3 589.806L1854.2 581.158L1833.3 582.574L1833.13 593.089L1854.14 592.309C1854.25 591.483 1854.31 590.647 1854.3 589.806ZM1830.81 593.175L1830.98 582.731L1810.76 584.1L1810.36 593.934L1830.81 593.175ZM1808.04 594.02L1808.44 584.257L1788.86 585.583L1788.27 594.753L1808.04 594.02ZM1785.93 594.84L1786.52 585.741L1767.52 587.028L1766.78 595.551L1785.93 594.84ZM1764.43 595.638L1765.17 587.187L1746.71 588.437L1745.85 596.327L1764.43 595.638ZM1743.5 596.415L1744.35 588.597L1726.39 589.813L1725.45 597.084L1743.5 596.415ZM1723.1 597.172L1724.03 589.973L1706.52 591.158L1705.53 597.824L1723.1 597.172ZM1703.18 597.911L1704.15 591.319L1687.08 592.475L1686.07 598.546L1703.18 597.911ZM1683.7 598.634L1684.69 592.636L1668.02 593.765L1667.01 599.253L1683.7 598.634ZM1334.77 613.993L1334.47 614.013L1333.81 614.001L1334.77 613.993ZM1282.72 612.115L1319.77 611.801C1316.21 608.664 1313.82 604.18 1313.46 599.086L1274.53 45.5537C1274.14 39.9371 1276.26 34.5123 1280.37 30.663C1283.47 27.7465 1287.54 25.9795 1291.81 25.6946L1730.38 -3.99567L1731.98 -10.2284L1265.41 7.0807C1261.35 7.22883 1257.49 8.8446 1254.53 11.6121L1254.52 11.6043C1250.96 14.95 1249.02 19.6768 1249.21 24.5735L1271.96 597.01C1272.23 603.932 1276.65 609.734 1282.72 612.115ZM1734.42 -10.3187L1732.84 -4.16154L1739.57 -4.61756L1741.02 -10.5636L1734.42 -10.3187ZM1743.43 -10.653L1742 -4.7819L1748.65 -5.23235L1749.95 -10.895L1743.43 -10.653ZM1752.35 -10.9841L1751.07 -5.39609L1757.63 -5.84039L1758.79 -11.2228L1752.35 -10.9841ZM1761.19 -11.3121L1760.06 -6.00435L1766.53 -6.44254L1767.54 -11.5477L1761.19 -11.3121ZM1769.93 -11.6362L1768.93 -6.605L1775.3 -7.03662L1776.19 -11.8683L1769.93 -11.6362ZM1778.57 -11.9566L1777.7 -7.19854L1783.95 -7.62171L1784.7 -12.1842L1778.57 -11.9566ZM1787.08 -12.2725L1786.34 -7.78365L1792.48 -8.19949L1793.12 -12.4963L1787.08 -12.2725ZM1795.48 -12.584L1794.86 -8.3601L1800.88 -8.76791L1801.4 -12.8036L1795.48 -12.584ZM1803.74 -12.8905L1803.23 -8.92722L1809.11 -9.32525L1809.52 -13.105L1803.74 -12.8905ZM1811.86 -13.1919L1811.46 -9.48436L1817.19 -9.87215L1817.5 -13.4009L1811.86 -13.1919ZM1819.83 -13.4875L1819.53 -10.0306L1825.09 -10.4068L1825.22 -12.4194C1825.25 -12.8449 1825.26 -13.2682 1825.26 -13.6888L1819.83 -13.4875ZM1827.55 -12.2565L1827.44 -10.5657L1832.68 -10.921C1832.61 -11.9471 1832.46 -12.9585 1832.22 -13.947L1827.59 -13.7753C1827.59 -13.2723 1827.58 -12.7658 1827.55 -12.2565ZM1834.58 -14.0346C1834.79 -13.0655 1834.93 -12.0779 1835 -11.0779L1839.24 -11.3646C1838.9 -12.3352 1838.48 -13.2692 1837.99 -14.1582C1837.89 -14.1562 1837.78 -14.1534 1837.68 -14.1496L1834.58 -14.0346ZM1840.66 -14.0003C1841.03 -13.2014 1841.35 -12.3751 1841.61 -11.5255L1844.32 -11.7087C1843.84 -12.3629 1843.31 -12.988 1842.73 -13.5795C1842.05 -13.7625 1841.36 -13.9032 1840.66 -14.0003ZM1853.66 594.654C1852.81 597.709 1851.14 600.513 1848.79 602.716C1845.59 605.713 1841.42 607.377 1837.03 607.42L1832.77 607.456C1832.87 606.684 1832.93 605.902 1832.94 605.111L1833.09 595.417L1853.66 594.654ZM1830.78 595.503L1830.63 605.072C1830.61 605.884 1830.55 606.687 1830.43 607.476L1809.8 607.651L1810.26 596.264L1830.78 595.503ZM1807.94 596.35L1807.48 607.67L1787.42 607.84L1788.11 597.086L1807.94 596.35ZM1785.78 597.173L1785.09 607.86L1765.69 608.024L1766.57 597.885L1785.78 597.173ZM1764.23 597.972L1763.35 608.044L1744.57 608.203L1745.6 598.663L1764.23 597.972ZM1743.25 598.75L1742.22 608.223L1724 608.377L1725.15 599.422L1743.25 598.75ZM1722.8 599.509L1721.66 608.397L1703.95 608.547L1705.19 600.162L1722.8 599.509ZM1702.83 600.249L1701.61 608.567L1684.39 608.713L1685.68 600.886L1702.83 600.249ZM1683.32 600.973L1682.03 608.733L1665.26 608.875L1666.59 601.594L1683.32 600.973ZM1664.21 601.682L1662.89 608.895L1646.54 609.034L1647.88 602.288L1664.21 601.682ZM1645.49 602.377L1644.16 609.054L1628.19 609.189L1629.53 602.969L1645.49 602.377ZM1277.93 612.155C1273.13 608.823 1269.89 603.363 1269.64 597.101L1246.89 24.6506C1246.67 19.0905 1248.87 13.7157 1252.93 9.90636C1256.29 6.75526 1260.68 4.92585 1265.3 4.75514L1732.59 -12.579L1733.99 -18.0422L1238.84 -13.8422C1234.46 -13.8061 1230.28 -12.1345 1227.08 -9.13801L1227.08 -9.13134C1223.52 -5.80683 1221.51 -1.09982 1221.56 3.77916L1228.15 595.113C1228.25 604.129 1235.2 611.515 1243.99 612.349L1247.47 612.413L1277.93 612.155ZM1735.02 -12.6692L1736.41 -18.0628L1742.86 -18.1175L1741.59 -12.9129L1735.02 -12.6692ZM1744 -13.0023L1745.25 -18.1378L1751.62 -18.1918L1750.49 -13.243L1744 -13.0023ZM1752.89 -13.3321L1754.01 -18.2121L1760.3 -18.2654L1759.29 -13.5696L1752.89 -13.3321ZM1761.7 -13.6588L1762.69 -18.2857L1768.89 -18.3383L1768.01 -13.893L1761.7 -13.6588ZM1770.4 -13.9815L1771.27 -18.3584L1777.38 -18.4103L1776.61 -14.2121L1770.4 -13.9815ZM1778.99 -14.3004L1779.75 -18.4304L1785.74 -18.4813L1785.09 -14.5266L1778.99 -14.3004ZM1787.47 -14.6148L1788.11 -18.5014L1794.01 -18.5514L1793.46 -14.8371L1787.47 -14.6148ZM1795.82 -14.9247L1796.36 -18.5713L1802.14 -18.6204L1801.7 -15.1426L1795.82 -14.9247ZM1804.04 -15.2296L1804.48 -18.6402L1810.13 -18.6881L1809.78 -15.4423L1804.04 -15.2296ZM1812.12 -15.5291L1812.46 -18.7079L1817.78 -18.753C1817.82 -17.8585 1817.81 -16.9509 1817.73 -16.0347L1817.7 -15.7364L1812.12 -15.5291ZM1820.04 -15.8229L1820.04 -15.8296C1820.12 -16.8213 1820.14 -17.8038 1820.1 -18.7727L1824.57 -18.8106C1824.82 -17.9007 1825 -16.9658 1825.12 -16.0115L1820.04 -15.8229ZM1827.45 -16.0981C1827.35 -17.0264 1827.18 -17.9388 1826.96 -18.8309L1830.06 -18.8572C1830.09 -18.8574 1830.11 -18.8576 1830.14 -18.8578C1830.18 -18.858 1830.22 -18.858 1830.27 -18.8579C1830.75 -18.0192 1831.16 -17.147 1831.51 -16.2484L1827.45 -16.0981ZM1833.94 -16.3387C1833.67 -17.1232 1833.36 -17.8914 1833 -18.6397C1833.66 -18.5347 1834.31 -18.3921 1834.95 -18.2132C1835.5 -17.6545 1836.02 -17.0601 1836.5 -16.4338L1833.94 -16.3387ZM1824.93 617.939C1827.34 615.678 1829.05 612.878 1829.93 609.793L1809.7 609.965L1809.27 620.457C1809.24 621.227 1809.17 621.99 1809.06 622.741L1812.28 622.801C1817 622.884 1821.5 621.157 1824.93 617.939ZM1806.96 620.346L1807.39 609.984L1787.27 610.155L1786.48 622.326L1806.72 622.698C1806.85 621.926 1806.93 621.141 1806.96 620.346ZM1784.15 622.283L1784.94 610.175L1765.49 610.34L1764.48 621.922L1784.15 622.283ZM1762.15 621.879L1763.15 610.359L1744.32 610.519L1743.12 621.529L1762.15 621.879ZM1740.79 621.486L1741.97 610.539L1723.71 610.694L1722.36 621.147L1740.79 621.486ZM1720.03 621.104L1721.36 610.714L1703.61 610.864L1702.15 620.775L1720.03 621.104ZM1699.82 620.732L1701.27 610.884L1684.01 611.031L1682.45 620.413L1699.82 620.732ZM1680.11 620.37L1681.65 611.051L1664.84 611.193L1663.22 620.059L1680.11 620.37ZM1660.86 620.016L1662.47 611.213L1646.08 611.352L1644.42 619.714L1660.86 620.016ZM1642.05 619.67L1643.7 611.373L1627.7 611.508L1626.01 619.375L1642.05 619.67ZM1623.64 619.331L1625.31 611.529L1609.67 611.661L1607.98 619.043L1623.64 619.331ZM1605.61 619L1607.29 611.682L1591.98 611.811L1590.3 618.718L1605.61 619ZM1202.12 611.579L1235.97 612.202C1230 608.833 1225.92 602.458 1225.84 595.125L1219.25 3.79166C1219.2 -1.73397 1221.47 -7.07445 1225.5 -10.8426C1229.11 -14.2283 1233.85 -16.1191 1238.82 -16.1611L1734.59 -20.3664L1735.82 -25.1502L1212.29 -34.7783C1207.56 -34.8697 1203.08 -33.1413 1199.64 -29.9168L1199.63 -29.9245C1196.03 -26.5666 1194.01 -21.9842 1193.93 -17.0574L1184.34 593.18C1184.19 603.15 1192.16 611.393 1202.12 611.579ZM1738.21 -25.1061L1737 -20.3869L1743.42 -20.4414L1744.53 -24.99L1738.21 -25.1061ZM1746.9 -24.9463L1745.81 -20.4617L1752.15 -20.5155L1753.14 -24.8315L1746.9 -24.9463ZM1755.52 -24.7879L1754.54 -20.5357L1760.8 -20.5887L1761.67 -24.6747L1755.52 -24.7879ZM1764.05 -24.631L1763.19 -20.609L1769.36 -20.6614L1770.12 -24.5193L1764.05 -24.631ZM1772.48 -24.4759L1771.73 -20.6814L1777.8 -20.733L1778.47 -24.3658L1772.48 -24.4759ZM1780.82 -24.3225L1780.17 -20.7531L1786.13 -20.8036L1786.69 -24.2146L1780.82 -24.3225ZM1789.05 -24.1712L1788.5 -20.8237L1794.35 -20.8733L1794.82 -24.0651L1789.05 -24.1712ZM1797.16 -24.022L1796.7 -20.8933L1802.44 -20.942L1802.74 -23.2734C1802.77 -23.4884 1802.79 -23.7033 1802.81 -23.9181L1797.16 -24.022ZM1805.04 -22.9749L1804.78 -20.9618L1810.33 -21.0089C1810.37 -21.9396 1810.35 -22.8653 1810.27 -23.781L1805.13 -23.8754C1805.11 -23.5754 1805.07 -23.2752 1805.04 -22.9749ZM1812.6 -23.7381C1812.67 -22.8418 1812.69 -21.9374 1812.66 -21.0286L1817.53 -21.07C1817.38 -21.9519 1817.17 -22.8163 1816.91 -23.6588L1812.6 -23.7381ZM1819.34 -23.6142C1819.56 -22.7891 1819.74 -21.9466 1819.87 -21.0899L1823.76 -21.1229C1823.41 -21.9643 1823 -22.7768 1822.53 -23.5552C1822.51 -23.5558 1822.48 -23.5564 1822.45 -23.5569L1819.34 -23.6142ZM1825.33 -23.2736C1825.67 -22.583 1825.98 -21.8722 1826.25 -21.144L1828.7 -21.1647C1828.41 -21.528 1828.11 -21.8824 1827.79 -22.2271C1827.6 -22.4324 1827.41 -22.633 1827.21 -22.8287C1826.6 -23.0094 1825.97 -23.1584 1825.33 -23.2736ZM1806.18 625.011C1805.24 628.106 1803.51 630.909 1801.09 633.178C1797.4 636.624 1792.59 638.414 1787.54 638.189L1785.34 638.093C1785.47 637.332 1785.56 636.561 1785.61 635.782L1786.33 624.646L1806.18 625.011ZM1784 624.604L1783.29 635.627C1783.24 636.425 1783.14 637.214 1782.99 637.99L1763.15 637.125L1764.28 624.241L1784 624.604ZM1761.95 624.198L1760.83 637.023L1741.54 636.182L1742.87 623.847L1761.95 624.198ZM1740.54 623.804L1739.21 636.08L1720.55 635.267L1722.07 623.464L1740.54 623.804ZM1719.73 623.422L1718.23 635.165L1700.15 634.377L1701.81 623.092L1719.73 623.422ZM1699.48 623.049L1697.82 634.275L1680.29 633.51L1682.07 622.729L1699.48 623.049ZM1679.73 622.686L1677.95 633.408L1660.92 632.665L1662.8 622.374L1679.73 622.686ZM1660.44 622.331L1658.57 632.563L1642.01 631.84L1643.96 622.028L1660.44 622.331ZM1641.59 621.984L1639.65 631.737L1623.51 631.033L1625.51 621.689L1641.59 621.984ZM1623.14 621.645L1621.15 630.931L1605.41 630.244L1607.45 621.357L1623.14 621.645ZM1605.08 621.313L1603.06 630.141L1587.68 629.471L1589.74 621.031L1605.08 621.313ZM1587.36 620.987L1585.32 629.367L1570.3 628.712L1572.36 620.711L1587.36 620.987ZM1194.59 612.323L1158.43 610.746C1148.15 610.295 1140.13 601.561 1140.54 591.27L1166.31 -37.8717C1166.51 -42.782 1168.6 -47.3379 1172.18 -50.6969L1172.18 -50.6825C1175.87 -54.1349 1180.67 -55.919 1185.73 -55.7L1737.48 -31.6318L1736.41 -27.4622L1212.32 -37.1005C1207 -37.1938 1201.93 -35.2561 1198.05 -31.6147C1193.99 -27.8121 1191.71 -22.6538 1191.62 -17.0958L1182.02 593.148C1181.89 601.727 1187.11 609.184 1194.59 612.323ZM1738.81 -27.4181L1739.86 -31.5279L1746.05 -31.2579L1745.09 -27.3025L1738.81 -27.4181ZM1747.47 -27.2588L1748.42 -31.1548L1754.53 -30.888L1753.67 -27.1447L1747.47 -27.2588ZM1756.05 -27.101L1756.89 -30.7852L1762.92 -30.5219L1762.17 -26.9884L1756.05 -27.101ZM1764.54 -26.9448L1765.29 -30.4188L1771.24 -30.159L1770.58 -26.8337L1764.54 -26.9448ZM1772.94 -26.7903L1773.59 -30.0566L1779.46 -29.8006L1778.89 -26.6809L1772.94 -26.7903ZM1781.24 -26.6376L1781.8 -29.6984L1787.56 -29.4475L1787.07 -26.5304L1781.24 -26.6376ZM1789.43 -26.487L1789.91 -29.345L1795.45 -29.103C1795.42 -28.3669 1795.35 -27.6285 1795.24 -26.8898L1795.16 -26.3817L1789.43 -26.487ZM1797.5 -26.3386L1797.53 -26.5401C1797.66 -27.3617 1797.73 -28.1831 1797.77 -29.0019L1802.73 -28.7854C1802.85 -27.9446 1802.91 -27.0946 1802.92 -26.2391L1797.5 -26.3386ZM1805.23 -26.1965C1805.23 -27.0308 1805.18 -27.8605 1805.08 -28.683L1809.26 -28.5007C1809.53 -27.718 1809.75 -26.92 1809.92 -26.1104L1805.23 -26.1965ZM1812.29 -26.0667C1812.15 -26.8521 1811.96 -27.6284 1811.73 -28.3929L1814.81 -28.2586C1815.26 -27.5333 1815.66 -26.7784 1816.02 -25.9981L1812.29 -26.0667ZM1818.56 -25.9514C1818.29 -26.6236 1817.99 -27.2808 1817.66 -27.9207C1818.27 -27.8019 1818.86 -27.6539 1819.45 -27.4773C1819.95 -26.9807 1820.43 -26.457 1820.88 -25.9087L1818.56 -25.9514ZM1777.25 648.424C1779.66 646.169 1781.42 643.374 1782.41 640.294L1762.95 639.445L1761.93 651.121C1761.86 651.922 1761.75 652.715 1761.6 653.496L1762.79 653.576C1768.1 653.93 1773.37 652.051 1777.25 648.424ZM1759.62 650.908L1760.63 639.344L1741.28 638.5L1739.82 652.029L1759.26 653.338C1759.43 652.541 1759.55 651.729 1759.62 650.908ZM1737.5 651.872L1738.96 638.399L1720.25 637.583L1718.58 650.598L1737.5 651.872ZM1716.26 650.442L1717.93 637.482L1699.81 636.691L1697.96 649.209L1716.26 650.442ZM1695.64 649.053L1697.48 636.59L1679.91 635.823L1677.92 647.858L1695.64 649.053ZM1675.59 647.702L1677.57 635.722L1660.49 634.977L1658.38 646.543L1675.59 647.702ZM1656.05 646.386L1658.15 634.875L1641.55 634.151L1639.34 645.26L1656.05 646.386ZM1636.99 645.102L1639.19 634.048L1623.02 633.342L1620.73 644.006L1636.99 645.102ZM1618.39 643.848L1620.66 633.24L1604.88 632.552L1602.54 642.781L1618.39 643.848ZM1600.2 642.623L1602.53 632.449L1587.12 631.777L1584.74 641.581L1600.2 642.623ZM1582.39 641.423L1584.76 631.674L1569.71 631.018L1567.3 640.407L1582.39 641.423ZM1564.94 640.247L1567.33 630.914L1167.66 613.484L1564.94 640.247ZM1114.74 609.919L1154.76 612.615C1144.97 610.48 1137.79 601.526 1138.22 591.187L1163.99 -37.9548C1164.21 -43.4806 1166.56 -48.5978 1170.59 -52.3804C1174.73 -56.2631 1180.14 -58.2698 1185.82 -58.0178L1738.07 -33.934L1739.01 -37.5679L1159.18 -76.6359C1153.87 -76.9903 1148.6 -75.1181 1144.72 -71.4767L1144.71 -71.4844C1141.14 -68.1321 1138.99 -63.5884 1138.67 -58.687L1096.74 589.352C1096.04 599.978 1104.12 609.203 1114.74 609.919ZM1741.37 -37.4084L1740.45 -33.8301L1746.61 -33.5615L1747.45 -36.999L1741.37 -37.4084ZM1749.8 -36.8407L1748.98 -33.4585L1755.06 -33.1932L1755.8 -36.4361L1749.8 -36.8407ZM1758.15 -36.2781L1757.42 -33.0903L1763.42 -32.8286L1764.07 -35.8789L1758.15 -36.2781ZM1766.43 -35.7204L1765.78 -32.7255L1771.7 -32.4673L1772.27 -35.3265L1766.43 -35.7204ZM1774.61 -35.1691L1774.05 -32.365L1779.88 -32.1107L1780.25 -34.1286C1780.29 -34.3464 1780.33 -34.5641 1780.36 -34.7816L1774.61 -35.1691ZM1782.53 -33.7L1782.23 -32.0084L1787.9 -31.7608C1788 -32.5973 1788.04 -33.4327 1788.04 -34.264L1782.69 -34.6248C1782.64 -34.3168 1782.59 -34.0085 1782.53 -33.7ZM1790.37 -34.1069C1790.37 -33.2935 1790.32 -32.4768 1790.24 -31.6589L1795.44 -31.4323C1795.39 -32.2226 1795.3 -33.0074 1795.17 -33.7839L1790.37 -34.1069ZM1797.54 -33.624C1797.65 -32.8655 1797.73 -32.1004 1797.77 -31.3307L1802.29 -31.1335C1802.1 -31.884 1801.87 -32.6239 1801.6 -33.3503L1797.54 -33.624ZM1804.11 -33.1811C1804.34 -32.4732 1804.53 -31.755 1804.69 -31.0287L1808.28 -30.8722C1807.93 -31.5937 1807.53 -32.2975 1807.09 -32.9802L1804.11 -33.1811ZM1810.02 -32.5768C1810.33 -31.9821 1810.62 -31.3755 1810.88 -30.7587L1813.06 -30.6636C1812.63 -31.1771 1812.17 -31.6688 1811.68 -32.1368C1811.14 -32.3073 1810.58 -32.4543 1810.02 -32.5768ZM1758.62 655.633C1757.58 658.679 1755.8 661.445 1753.42 663.679C1749.28 667.555 1743.69 669.482 1738.04 668.971L1737.84 668.954C1738.03 668.129 1738.17 667.292 1738.26 666.445L1739.57 654.349L1758.62 655.633ZM1737.25 654.193L1735.95 666.189C1735.85 667.053 1735.71 667.906 1735.51 668.744L1716.47 667.035L1718.29 652.915L1737.25 654.193ZM1715.97 652.759L1714.16 666.827L1695.61 665.162L1697.62 651.523L1715.97 652.759ZM1695.3 651.366L1693.3 664.954L1675.36 663.343L1677.53 650.169L1695.3 651.366ZM1675.21 650.012L1673.04 663.135L1655.64 661.573L1657.96 648.85L1675.21 650.012ZM1655.63 648.693L1653.32 661.364L1636.44 659.849L1638.88 647.564L1655.63 648.693ZM1636.53 647.406L1634.1 659.639L1617.69 658.166L1620.24 646.308L1636.53 647.406ZM1617.89 646.15L1615.36 657.956L1599.39 656.522L1602.01 645.079L1617.89 646.15ZM1599.67 644.921L1597.06 656.313L1581.49 654.915L1584.18 643.878L1599.67 644.921ZM1581.83 643.719L1579.16 654.706L1563.98 653.343L1566.71 642.7L1581.83 643.719ZM1564.35 642.541L1561.63 653.132L1071.06 609.085C1060.11 608.097 1051.98 598.389 1052.93 587.448L1111.04 -79.4946C1111.46 -84.3805 1113.67 -88.9198 1117.25 -92.2721L1117.25 -92.2576C1121.38 -96.127 1126.98 -98.0606 1132.62 -97.5575L1740.4 -42.9877L1739.59 -39.8446L1159.32 -78.9427C1153.37 -79.3456 1147.47 -77.2385 1143.12 -73.1679C1139.11 -69.4131 1136.7 -64.3148 1136.35 -58.8278L1094.42 589.211C1093.65 601.103 1102.7 611.434 1114.59 612.232L1564.35 642.541ZM1741.96 -39.685L1742.75 -42.7763L1748.72 -42.24L1748 -39.2777L1741.96 -39.685ZM1750.35 -39.1195L1751.06 -42.0302L1756.96 -41.5002L1756.33 -38.717L1750.35 -39.1195ZM1758.67 -38.559L1759.3 -41.2907L1765.12 -40.7679L1764.56 -38.162L1758.67 -38.559ZM1766.92 -38.0035L1767.46 -40.5576L1773.1 -40.0518C1773.02 -39.28 1772.9 -38.5077 1772.75 -37.7373L1772.73 -37.612L1766.92 -38.0035ZM1775.06 -37.4546C1775.21 -38.2502 1775.33 -39.0474 1775.41 -39.8441L1780.6 -39.3777C1780.64 -38.6184 1780.64 -37.8523 1780.6 -37.0817L1775.06 -37.4546ZM1782.92 -36.9254C1782.96 -37.6775 1782.96 -38.4256 1782.94 -39.1682L1787.58 -38.7509C1787.73 -38.0368 1787.84 -37.3153 1787.92 -36.5883L1782.92 -36.9254ZM1790.27 -36.4295C1790.21 -37.136 1790.12 -37.8382 1790 -38.5345L1793.93 -38.1814C1794.2 -37.5105 1794.43 -36.828 1794.63 -36.1362L1790.27 -36.4295ZM1797.07 -35.9715C1796.9 -36.6394 1796.71 -37.3 1796.48 -37.952L1799.39 -37.6907C1799.81 -37.0569 1800.2 -36.4051 1800.54 -35.7377L1797.07 -35.9715ZM1803.2 -35.5585C1802.95 -36.1229 1802.67 -36.6786 1802.38 -37.2246C1802.92 -37.098 1803.45 -36.9497 1803.97 -36.7806C1804.42 -36.3489 1804.85 -35.895 1805.26 -35.4195L1803.2 -35.5585ZM1729.59 678.947C1731.95 676.736 1733.73 674.014 1734.82 671.017L1716.18 669.343L1714.58 681.769C1714.47 682.673 1714.3 683.567 1714.08 684.445C1719.79 684.851 1725.4 682.868 1729.59 678.947ZM1712.28 681.477L1713.86 669.135L1695.27 667.465L1693.11 682.134L1711.75 684.202C1711.98 683.31 1712.16 682.4 1712.28 681.477ZM1690.81 681.878L1692.96 667.258L1674.98 665.643L1672.62 679.86L1690.81 681.878ZM1670.31 679.604L1672.66 665.435L1655.22 663.869L1652.71 677.65L1670.31 679.604ZM1650.39 677.393L1652.9 663.66L1635.98 662.142L1633.33 675.499L1650.39 677.393ZM1631 675.241L1633.65 661.932L1617.2 660.455L1614.43 673.402L1631 675.241ZM1612.11 673.144L1614.87 660.246L1598.87 658.809L1595.99 671.356L1612.11 673.144ZM1593.67 671.098L1596.53 658.599L1580.94 657.199L1577.98 669.357L1593.67 671.098ZM1575.65 669.099L1578.6 656.989L1563.39 655.623L1560.37 667.402L1575.65 669.099ZM1558.03 667.143L1561.04 655.412L1070.84 611.393C1058.61 610.301 1049.54 599.46 1050.61 587.242L1108.72 -79.7008C1109.19 -85.1569 1111.66 -90.2286 1115.65 -93.9634C1120.26 -98.2897 1126.52 -100.435 1132.82 -99.8743L1740.98 -45.2633L1741.67 -47.956L1106.07 -118.494C1100.09 -119.153 1094.15 -117.173 1089.76 -113.069C1086.18 -109.716 1083.93 -105.188 1083.4 -100.31L1009.12 585.537C1007.89 596.806 1016.08 607.005 1027.36 608.25L1558.03 667.143ZM1744.02 -47.6961L1743.34 -45.0519L1749.28 -44.5183L1749.89 -47.0438L1744.02 -47.6961ZM1752.22 -46.7858L1751.62 -44.3085L1757.49 -43.7813L1757.76 -44.9546C1757.85 -45.3513 1757.93 -45.7479 1758 -46.1444L1752.22 -46.7858ZM1760.02 -44.4405L1759.82 -43.5718L1765.55 -43.0571C1765.66 -43.7987 1765.73 -44.541 1765.77 -45.2821L1760.31 -45.8877C1760.23 -45.4056 1760.13 -44.923 1760.02 -44.4405ZM1768.09 -45.0246C1768.05 -44.2997 1767.98 -43.5738 1767.88 -42.8483L1773.22 -42.3689C1773.22 -43.0704 1773.19 -43.7696 1773.13 -44.4651L1768.09 -45.0246ZM1775.48 -44.2044C1775.52 -43.5257 1775.54 -42.844 1775.54 -42.1604L1780.37 -41.7261C1780.27 -42.3932 1780.14 -43.0531 1779.99 -43.704L1775.48 -44.2044ZM1782.43 -43.4334C1782.56 -42.7999 1782.66 -42.1593 1782.75 -41.513L1786.96 -41.1351C1786.75 -41.7683 1786.52 -42.3933 1786.25 -43.0085L1782.43 -43.4334ZM1788.87 -42.7184C1789.09 -42.1227 1789.28 -41.5198 1789.45 -40.9108L1792.78 -40.6122C1792.44 -41.224 1792.07 -41.8228 1791.68 -42.4067L1788.87 -42.7184ZM1794.72 -41.8857C1795 -41.3875 1795.26 -40.8812 1795.5 -40.3678L1797.46 -40.1916C1797.07 -40.6271 1796.67 -41.0446 1796.25 -41.4434C1795.74 -41.61 1795.23 -41.7576 1794.72 -41.8857ZM1711.01 686.454C1709.87 689.386 1708.09 692.049 1705.77 694.217C1701.57 698.158 1696.01 700.187 1690.32 699.925C1690.57 699.001 1690.76 698.056 1690.91 697.093L1692.77 684.43L1711.01 686.454ZM1690.47 684.174L1688.62 696.752C1688.47 697.756 1688.25 698.738 1687.98 699.694L1669.74 697.305L1672.25 682.152L1690.47 684.174ZM1669.94 681.895L1667.44 697.004L1649.6 694.667L1652.29 679.937L1669.94 681.895ZM1649.97 679.68L1647.29 694.365L1630.03 692.103L1632.87 677.782L1649.97 679.68ZM1630.55 677.524L1627.71 691.799L1610.96 689.604L1613.94 675.681L1630.55 677.524ZM1611.62 675.423L1608.64 689.301L1592.37 687.169L1595.47 673.631L1611.62 675.423ZM1593.15 673.374L1590.06 686.866L1574.22 684.792L1577.43 671.629L1593.15 673.374ZM1575.1 671.371L1571.91 684.489L1556.5 682.47L1559.78 669.671L1575.1 671.371ZM1557.45 669.412L1554.17 682.165L983.663 607.423C978.046 606.682 973.041 603.809 969.571 599.309C966.107 594.816 964.592 589.245 965.312 583.619L1055.76 -121.125C1056.39 -125.996 1058.7 -130.527 1062.27 -133.865L1062.27 -133.88C1066.92 -138.233 1073.21 -140.252 1079.51 -139.43L1742.84 -52.5214C1742.82 -52.4097 1742.79 -52.2981 1742.76 -52.1866L1742.26 -50.2247L1106.32 -120.8C1099.66 -121.54 1093.06 -119.341 1088.17 -114.767C1084.19 -111.045 1081.68 -105.999 1081.09 -100.566L1006.81 585.274C1005.46 597.818 1014.56 609.163 1027.11 610.556L1557.45 669.412ZM1744.6 -49.9648L1745.02 -51.6003C1745.07 -51.8055 1745.12 -52.011 1745.17 -52.2166L1750.8 -51.4786C1750.71 -50.7569 1750.59 -50.0358 1750.44 -49.317L1744.6 -49.9648ZM1752.75 -49.0599C1752.9 -49.7642 1753.01 -50.4704 1753.1 -51.1772L1758.39 -50.484C1758.39 -49.8071 1758.36 -49.1266 1758.3 -48.4439L1752.75 -49.0599ZM1760.61 -48.1876C1760.67 -48.854 1760.71 -49.5184 1760.72 -50.1799L1765.62 -49.5375C1765.7 -48.8996 1765.75 -48.2581 1765.78 -47.6143L1760.61 -48.1876ZM1768.12 -47.3546C1768.1 -47.9806 1768.06 -48.6047 1768 -49.2261L1772.39 -48.6503C1772.55 -48.0503 1772.69 -47.4446 1772.81 -46.8343L1768.12 -47.3546ZM1775.21 -46.5676C1775.11 -47.1576 1775 -47.7441 1774.86 -48.3261L1778.57 -47.8408C1778.82 -47.2767 1779.06 -46.7018 1779.27 -46.1174L1775.21 -46.5676ZM1781.81 -45.8356C1781.63 -46.3953 1781.44 -46.9479 1781.23 -47.4925L1783.96 -47.1343C1784.34 -46.5945 1784.69 -46.0424 1785.02 -45.4792L1781.81 -45.8356ZM1787.82 -45.1683C1787.59 -45.6354 1787.34 -46.0967 1787.08 -46.5515C1787.56 -46.4251 1788.04 -46.2823 1788.51 -46.1234C1788.9 -45.7528 1789.28 -45.3665 1789.65 -44.9649L1787.82 -45.1683ZM1681.96 709.487C1684.26 707.329 1686.03 704.766 1687.2 701.919L1669.36 699.582L1667.24 712.425C1667.07 713.436 1666.84 714.427 1666.56 715.394C1672.24 715.522 1677.74 713.445 1681.96 709.487ZM1664.95 712.04L1667.06 699.281L1649.19 696.94L1646.34 712.539L1663.78 715.154C1663.91 715.175 1664.05 715.194 1664.19 715.212C1664.52 714.184 1664.77 713.125 1664.95 712.04ZM1644.04 712.194L1646.88 696.637L1629.58 694.371L1626.55 709.572L1644.04 712.194ZM1624.24 709.225L1627.26 694.067L1610.47 691.868L1607.3 706.683L1624.24 709.225ZM1604.99 706.338L1608.16 691.565L1591.85 689.429L1588.54 703.871L1604.99 706.338ZM1586.24 703.525L1589.54 689.126L1573.68 687.048L1570.25 701.127L1586.24 703.525ZM1567.95 700.782L1571.36 686.745L1555.92 684.723L1552.39 698.449L1567.95 700.782ZM1550.08 698.102L1553.59 684.418L983.371 609.726C977.135 608.908 971.582 605.71 967.734 600.723C963.887 595.722 962.216 589.543 963.01 583.312L1053.46 -121.432C1054.16 -126.835 1056.72 -131.855 1060.69 -135.57C1065.84 -140.4 1072.81 -142.643 1079.81 -141.724L1743.3 -54.8086C1743.4 -55.4623 1743.48 -56.117 1743.53 -56.7718L1052.96 -160.351C1046.32 -161.345 1039.69 -159.286 1034.78 -154.684L1034.78 -154.67C1031.15 -151.285 1028.85 -146.869 1028.13 -141.941L921.498 581.707C920.658 587.491 922.099 593.261 925.591 597.959C929.083 602.656 934.188 605.727 939.97 606.596L1550.08 698.102ZM1745.84 -56.425C1745.79 -55.7849 1745.71 -55.1448 1745.61 -54.5055L1750.99 -53.8005C1751.02 -54.4186 1751.02 -55.036 1751 -55.6517L1745.84 -56.425ZM1753.33 -55.3023C1753.34 -54.7019 1753.33 -54.1003 1753.3 -53.4981L1758.29 -52.8443C1758.24 -53.4304 1758.17 -54.0126 1758.08 -54.5899L1753.33 -55.3023ZM1760.48 -54.2296C1760.55 -53.6685 1760.61 -53.1037 1760.65 -52.5356L1765.2 -51.9397C1765.07 -52.4929 1764.93 -53.0421 1764.77 -53.5865L1760.48 -54.2296ZM1767.28 -53.2086C1767.42 -52.6824 1767.54 -52.1525 1767.64 -51.6195L1771.58 -51.104C1771.37 -51.6311 1771.15 -52.1522 1770.9 -52.6663L1767.28 -53.2086ZM1773.61 -52.2593C1773.81 -51.7659 1774 -51.2674 1774.17 -50.7644L1777.24 -50.3624C1776.93 -50.8756 1776.6 -51.3767 1776.25 -51.8644L1773.61 -52.2593ZM1779.42 -51.2245C1779.66 -50.8186 1779.89 -50.406 1780.1 -49.9872L1781.82 -49.7623C1781.48 -50.1224 1781.13 -50.4703 1780.77 -50.8055C1780.32 -50.9592 1779.88 -51.0989 1779.42 -51.2245ZM1663.36 717.434C1662.15 720.186 1660.4 722.666 1658.16 724.766C1653.92 728.734 1648.47 730.863 1642.8 730.855C1643.12 729.844 1643.37 728.808 1643.56 727.749L1645.92 714.82L1663.36 717.434ZM1643.62 714.475L1641.28 727.335C1641.07 728.495 1640.77 729.627 1640.4 730.724C1639.94 730.674 1639.48 730.611 1639.03 730.534L1622.92 727.829L1626.1 711.847L1643.62 714.475ZM1623.79 711.5L1620.62 727.442L1603.46 724.559L1606.81 708.953L1623.79 711.5ZM1604.51 708.608L1601.17 724.174L1584.53 721.378L1588.02 706.136L1604.51 708.608ZM1585.72 705.791L1582.24 720.993L1566.08 718.278L1569.7 703.388L1585.72 705.791ZM1567.4 703.043L1563.78 717.893L1548.08 715.254L1551.81 700.706L1567.4 703.043ZM1549.5 700.359L1545.77 714.867L896.272 605.747C883.999 603.684 875.676 592.036 877.702 579.768L1000.5 -162.778C1001.31 -167.699 1003.66 -172.104 1007.29 -175.51L1007.29 -175.503C1012.46 -180.347 1019.43 -182.452 1026.41 -181.28L1743.54 -60.7979C1743.58 -60.2293 1743.61 -59.6589 1743.61 -59.0875L1053.32 -162.627C1045.95 -163.733 1038.63 -161.444 1033.2 -156.366C1029.19 -152.604 1026.64 -147.742 1025.84 -142.282L919.221 581.367C918.269 587.76 919.881 594.152 923.734 599.35C927.595 604.541 933.242 607.943 939.635 608.896L1549.5 700.359ZM1745.94 -58.7376C1745.95 -59.2931 1745.93 -59.8478 1745.9 -60.4012L1750.55 -59.6207C1750.65 -59.086 1750.74 -58.5483 1750.81 -58.0083L1745.94 -58.7376ZM1753.18 -57.6521C1753.13 -58.1744 1753.06 -58.6949 1752.97 -59.2132L1757.12 -58.5174C1757.28 -58.0153 1757.43 -57.5073 1757.57 -56.9942L1753.18 -57.6521ZM1760.05 -56.6218C1759.94 -57.1143 1759.82 -57.6028 1759.68 -58.0868L1763.21 -57.4934C1763.45 -57.0172 1763.67 -56.5352 1763.88 -56.0478L1760.05 -56.6218ZM1766.53 -55.6502C1766.36 -56.1132 1766.18 -56.5725 1765.98 -57.0275L1768.55 -56.5966C1768.76 -56.3033 1768.97 -56.0045 1769.17 -55.6999C1769.28 -55.5359 1769.39 -55.3709 1769.5 -55.2049L1766.53 -55.6502ZM1772.43 -54.7643C1772.23 -55.1444 1772.02 -55.5205 1771.79 -55.8923C1772.21 -55.7711 1772.62 -55.6383 1773.02 -55.4943C1773.37 -55.1812 1773.7 -54.8583 1774.02 -54.5262L1772.43 -54.7643ZM1634.35 740.058C1636.53 738.017 1638.26 735.618 1639.49 732.965C1639.21 732.927 1638.93 732.885 1638.64 732.837L1622.47 730.12L1619.9 743.067C1619.67 744.176 1619.38 745.261 1619.03 746.318C1624.67 746.177 1630.17 743.976 1634.35 740.058ZM1617.61 742.616L1620.17 729.733L1602.97 726.844L1599.47 743.203L1614.26 745.943C1615.03 746.085 1615.81 746.187 1616.58 746.25C1617.02 745.077 1617.36 743.863 1617.61 742.616ZM1597.18 742.78L1600.68 726.459L1584.01 723.657L1580.34 739.662L1597.18 742.78ZM1578.06 739.239L1581.71 723.272L1565.52 720.552L1561.71 736.214L1578.06 739.239ZM1559.43 735.791L1563.23 720.166L1547.5 717.523L1543.56 732.853L1559.43 735.791ZM1541.26 732.428L1545.19 717.136L895.893 608.043C882.366 605.761 873.175 592.913 875.413 579.383L998.209 -163.163C999.103 -168.601 1001.69 -173.453 1005.7 -177.208C1011.41 -182.548 1019.09 -184.868 1026.81 -183.575L1743.25 -63.1993C1743.17 -63.682 1743.08 -64.1626 1742.97 -64.6407L999.88 -202.207C992.659 -203.542 985.153 -201.34 979.794 -196.322C976.156 -192.916 973.757 -188.508 972.859 -183.593L833.895 577.864C832.776 583.954 834.114 590.137 837.639 595.251C841.158 600.358 846.46 603.799 852.571 604.927L1541.26 732.428ZM1745.45 -64.1829C1745.53 -63.7213 1745.61 -63.2578 1745.67 -62.7927L1749.95 -62.0743C1749.81 -62.5298 1749.67 -62.9823 1749.51 -63.4313L1745.45 -64.1829ZM1752.1 -62.9502C1752.24 -62.5196 1752.36 -62.0865 1752.47 -61.6511L1756.13 -61.0357C1755.93 -61.47 1755.73 -61.8985 1755.51 -62.3207L1752.1 -62.9502ZM1758.34 -61.7964C1758.52 -61.3953 1758.68 -60.9897 1758.84 -60.5801L1761.7 -60.0993C1761.43 -60.5213 1761.14 -60.9329 1760.83 -61.3341L1758.34 -61.7964ZM1764.16 -60.5652C1764.35 -60.2438 1764.54 -59.9192 1764.73 -59.5918L1766.2 -59.3435C1765.92 -59.6252 1765.64 -59.8994 1765.34 -60.166C1764.95 -60.3091 1764.56 -60.4423 1764.16 -60.5652ZM1615.63 748.485C1614.37 751.046 1612.66 753.366 1610.54 755.35C1606.34 759.282 1600.9 761.523 1595.26 761.776C1595.65 760.675 1595.97 759.542 1596.21 758.383L1598.98 745.469L1613.84 748.221C1614.44 748.331 1615.03 748.419 1615.63 748.485ZM1596.7 745.046L1593.94 757.905C1593.65 759.23 1593.27 760.518 1592.78 761.759C1591.68 761.695 1590.58 761.554 1589.49 761.335L1576 758.618L1579.82 741.922L1596.7 745.046ZM1577.54 741.499L1573.72 758.159L1557.18 754.829L1561.16 738.468L1577.54 741.499ZM1558.88 738.045L1554.91 754.37L1538.86 751.138L1542.98 735.101L1558.88 738.045ZM1540.69 734.676L1536.58 750.678L808.857 604.091C802.597 602.821 797.193 599.198 793.646 593.886C790.093 588.565 788.829 582.185 790.069 575.923L945.207 -204.424C946.185 -209.34 948.628 -213.745 952.274 -217.157L952.288 -217.156C957.914 -222.43 965.785 -224.663 973.341 -223.142L1741.85 -68.3444C1742.01 -67.9403 1742.15 -67.5333 1742.29 -67.1237L1000.29 -204.493C992.357 -205.97 984.101 -203.541 978.21 -198.027C974.204 -194.278 971.568 -189.438 970.582 -184.028L831.626 577.422C830.394 584.136 831.866 590.931 835.745 596.553C839.631 602.181 845.459 605.968 852.172 607.199L1540.69 734.676ZM1744.87 -66.6462C1744.76 -67.0357 1744.64 -67.4232 1744.51 -67.8087L1747.84 -67.1378C1748.05 -66.7574 1748.25 -66.3733 1748.44 -65.9857L1744.87 -66.6462ZM1751.2 -65.4738C1751.05 -65.8374 1750.89 -66.1986 1750.73 -66.5571L1753.1 -66.0781C1753.38 -65.7166 1753.65 -65.3478 1753.91 -64.9723L1751.2 -65.4738ZM1757.01 -64.3972C1756.85 -64.6845 1756.68 -64.9688 1756.5 -65.25C1756.87 -65.134 1757.23 -65.0096 1757.59 -64.8769C1757.86 -64.6393 1758.12 -64.3957 1758.37 -64.1462L1757.01 -64.3972ZM1586.75 770.651C1588.81 768.724 1590.49 766.482 1591.76 764.012C1590.86 763.927 1589.95 763.794 1589.05 763.612L1575.48 760.878L1572.54 773.707C1572.26 774.916 1571.91 776.096 1571.48 777.242C1577.12 776.89 1582.53 774.6 1586.75 770.651ZM1570.27 773.193L1573.2 760.42L1556.64 757.083L1552.5 774.076L1564.74 776.73C1566.14 777.036 1567.56 777.214 1568.98 777.271C1569.52 775.96 1569.95 774.597 1570.27 773.193ZM1550.23 773.584L1554.36 756.625L1538.29 753.387L1534 770.062L1550.23 773.584ZM1531.73 769.569L1536 752.927L808.414 606.374C801.546 604.993 795.623 601.018 791.731 595.178C787.832 589.345 786.441 582.344 787.808 575.474L942.946 -204.872C944.026 -210.268 946.705 -215.105 950.703 -218.847C956.868 -224.624 965.497 -227.075 973.789 -225.403L1740.7 -70.9279C1740.53 -71.2713 1740.34 -71.6118 1740.15 -71.9494L946.787 -244.078C938.897 -245.784 930.667 -243.513 924.776 -237.998L924.774 -237.984C921.128 -234.557 918.641 -230.155 917.583 -225.238L746.27 574.013C743.428 587.265 751.908 600.385 765.164 603.264L1531.73 769.569ZM1743.11 -71.3091C1743.26 -70.9934 1743.4 -70.6757 1743.54 -70.3561L1746.16 -69.8281C1745.93 -70.1597 1745.68 -70.485 1745.43 -70.8038L1743.11 -71.3091ZM1749.19 -69.4366C1749.24 -69.354 1749.29 -69.2711 1749.34 -69.1881L1750.53 -68.9486C1750.31 -69.1603 1750.08 -69.3682 1749.85 -69.5721C1749.54 -69.691 1749.22 -69.8037 1748.9 -69.91C1749 -69.7534 1749.09 -69.5956 1749.19 -69.4366ZM1567.91 779.523C1566.63 781.909 1564.96 784.078 1562.96 785.952C1558.72 789.922 1553.33 792.254 1547.7 792.699C1548.17 791.511 1548.56 790.286 1548.86 789.032L1551.96 776.32L1564.26 778.99C1565.47 779.252 1566.69 779.429 1567.91 779.523ZM1549.69 775.828L1546.61 788.482C1546.25 789.962 1545.76 791.395 1545.16 792.771C1543.44 792.733 1541.7 792.517 1539.98 792.117L1528.99 789.571L1533.43 772.301L1549.69 775.828ZM1531.15 771.808L1526.73 789.045L721.472 602.437C714.883 600.91 709.289 596.909 705.694 591.179C702.1 585.448 700.961 578.663 702.466 572.08L889.946 -246.068C891.077 -250.98 893.6 -255.386 897.262 -258.826C903.42 -264.597 912.016 -266.912 920.24 -265.006L1737.73 -75.548C1737.95 -75.2702 1738.17 -74.9874 1738.38 -74.6997L947.271 -246.329C938.631 -248.202 929.629 -245.714 923.189 -239.674C919.198 -235.925 916.47 -231.113 915.317 -225.723L744.004 573.528C740.9 588.031 750.17 602.403 764.678 605.544L1531.15 771.808ZM1741.65 -73.9907L1742.73 -73.7545C1742.55 -73.9253 1742.37 -74.0934 1742.18 -74.2587C1741.88 -74.3749 1741.57 -74.4856 1741.27 -74.5909C1741.4 -74.3927 1741.52 -74.1926 1741.65 -73.9907ZM1539.18 801.246C1541.11 799.427 1542.75 797.337 1544.03 795.045C1542.51 794.952 1540.98 794.732 1539.47 794.381L1528.42 791.819L1525.19 804.363C1524.86 805.66 1524.44 806.924 1523.94 808.15C1529.56 807.613 1534.92 805.238 1539.18 801.246ZM1522.94 803.77L1526.15 791.294L720.945 604.67C713.764 603.004 707.646 598.643 703.728 592.38C699.803 586.123 698.552 578.719 700.197 571.529L887.678 -246.619C888.908 -251.981 891.673 -256.797 895.671 -260.538C902.399 -266.839 911.775 -269.364 920.762 -267.277L1734.87 -78.6009C1734.74 -78.7217 1734.61 -78.8411 1734.47 -78.9591C1733.4 -79.379 1732.29 -79.7305 1731.15 -80.0099L893.707 -285.934C885.135 -288.04 876.181 -285.701 869.749 -279.668L869.741 -279.662C866.072 -276.229 863.505 -271.812 862.309 -266.898L658.653 570.154C655.267 584.062 663.846 598.164 677.766 601.594L1515.23 807.504C1517.26 808.006 1519.31 808.257 1521.35 808.267C1522.01 806.828 1522.54 805.324 1522.94 803.77ZM1520.16 810.561C1518.33 810.476 1516.49 810.213 1514.67 809.765L677.201 603.847C662.041 600.119 652.694 584.745 656.386 569.589L860.042 -267.463C861.344 -272.82 864.159 -277.625 868.15 -281.374C875.159 -287.93 884.915 -290.484 894.242 -288.188L1727.82 -83.2253C1726.45 -83.8355 1725.03 -84.3352 1723.55 -84.7166L867.158 -306.848C858.261 -309.161 848.934 -306.785 842.228 -300.504L842.222 -300.512C838.545 -297.073 835.926 -292.652 834.665 -287.735L614.842 568.214C613.073 575.119 614.094 582.301 617.722 588.448C621.357 594.603 627.156 598.968 634.066 600.759L1490.46 822.905C1499.35 825.204 1508.67 822.834 1515.39 816.547C1517.27 814.784 1518.88 812.768 1520.16 810.561Z" fill="white" fill-opacity="0.04"></path></g><defs><linearGradient id="paint0_linear_655_6683" x1="720" y1="0" x2="720" y2="674" gradientUnits="userSpaceOnUse"><stop stop-color="#29044C"></stop><stop offset="1" stop-color="#5F0AB2"></stop></linearGradient><clipPath id="clip0_655_6683"><rect width="1440" height="674" fill="white"></rect></clipPath></defs></svg>