<svg xmlns="http://www.w3.org/2000/svg" width="1440" height="468" viewBox="0 0 1440 468" fill="none"><path d="M0 0H1440V468H0V0Z" fill="#5E0AB0"></path><path d="M0 0H1440V428C1440 450.091 1422.09 468 1400 468H40C17.9086 468 0 450.091 0 428V0Z" fill="url(#paint0_linear_655_6653)"></path><mask id="mask0_655_6653" style="mask-type:alpha" maskUnits="userSpaceOnUse" x="0" y="0" width="1440" height="468"><path d="M0 0H1440V428C1440 450.091 1422.09 468 1400 468H40C17.9086 468 0 450.091 0 428V0Z" fill="#5F0AB2"></path></mask><g mask="url(#mask0_655_6653)"><path fill-rule="evenodd" clip-rule="evenodd" d="M1976.48 276.367C1977.96 282.074 1976.22 288.131 1971.91 292.162C1969.97 293.982 1967.56 295.302 1964.97 295.976L1952.7 299.147C1951.95 302.223 1950.32 305.076 1947.96 307.297C1945.77 309.332 1943.08 310.739 1940.14 311.372L1928.99 313.761C1928.26 317.035 1926.55 320.062 1924.02 322.441L1924.03 322.435C1921.61 324.699 1918.6 326.198 1915.33 326.769L1905.24 328.518C1904.5 331.958 1902.73 335.145 1900.1 337.609L1900.11 337.617C1897.45 340.102 1894.13 341.679 1890.5 342.173L1881.52 343.391C1880.77 346.948 1878.95 350.218 1876.2 352.786C1873.29 355.513 1869.66 357.161 1865.68 357.562L1857.78 358.357C1856.99 362.006 1855.11 365.361 1852.31 367.984C1849.2 370.9 1845.14 372.668 1840.87 372.959L1834.03 373.422C1833.2 377.131 1831.27 380.545 1828.44 383.192C1825.09 386.343 1820.69 388.173 1816.06 388.35L1810.28 388.565C1809.39 392.3 1807.42 395.742 1804.57 398.414C1800.95 401.806 1796.22 403.69 1791.25 403.732L1786.53 403.773C1785.6 407.521 1783.61 410.924 1780.71 413.637L1780.72 413.631C1776.84 417.272 1771.77 419.224 1766.44 419.123L1762.77 419.055C1761.77 422.786 1759.75 426.17 1756.87 428.876C1752.72 432.759 1747.31 434.758 1741.64 434.513L1739 434.398C1737.93 438.091 1735.89 441.442 1733.04 444.122C1728.69 448.193 1722.78 450.307 1716.83 449.904L1715.21 449.795C1714.08 453.432 1712.03 456.737 1709.21 459.377C1704.59 463.703 1698.32 465.855 1692.03 465.288L1691.4 465.231C1690.21 468.802 1688.15 472.047 1685.37 474.645L1685.37 474.638C1680.58 479.131 1674.11 481.331 1667.58 480.715C1666.33 484.195 1664.27 487.359 1661.55 489.907C1656.73 494.421 1650.32 496.675 1643.78 496.193C1642.49 499.593 1640.46 502.646 1637.74 505.185C1632.89 509.726 1626.52 512.037 1619.96 511.684C1618.63 514.996 1616.59 517.972 1613.93 520.462L1613.95 520.463C1609.05 525.044 1602.71 527.403 1596.14 527.172C1594.78 530.402 1592.75 533.311 1590.13 535.756L1590.13 535.748C1585.29 540.288 1578.86 542.728 1572.32 542.642C1570.91 545.794 1568.89 548.639 1566.33 551.041L1566.34 551.049C1561.46 555.606 1555.05 558.102 1548.49 558.126C1547.06 561.204 1545.05 563.982 1542.53 566.334C1537.63 570.936 1531.25 573.472 1524.67 573.597C1523.21 576.604 1521.21 579.325 1518.74 581.635L1518.75 581.643C1513.81 586.273 1507.43 588.86 1500.83 589.081C1499.36 592.014 1497.38 594.67 1494.95 596.936C1489.98 601.6 1483.62 604.24 1477.01 604.558C1475.52 607.423 1473.55 610.026 1471.17 612.259L1471.18 612.252C1463.88 619.084 1453.75 621.66 1444.08 619.15L587.68 397.011C580.178 395.066 573.864 390.319 569.921 383.633C565.97 376.953 564.858 369.146 566.789 361.643L786.613 -494.306C787.986 -499.643 790.83 -504.446 794.829 -508.202C802.113 -515.034 812.249 -517.617 821.923 -515.107L1678.32 -292.968C1682.64 -291.848 1686.56 -289.797 1689.87 -286.983C1692.69 -285.834 1695.29 -284.247 1697.58 -282.283C1700.44 -281.128 1703.03 -279.523 1705.29 -277.573C1708.13 -276.451 1710.74 -274.862 1713.03 -272.87C1715.86 -271.764 1718.46 -270.183 1720.74 -268.189C1723.6 -267.084 1726.19 -265.491 1728.42 -263.526C1731.3 -262.446 1733.94 -260.848 1736.23 -258.798C1739.05 -257.749 1741.64 -256.183 1743.88 -254.169C1746.76 -253.128 1749.39 -251.538 1751.66 -249.473C1754.51 -248.455 1757.12 -246.88 1759.37 -244.821C1762.28 -243.802 1764.9 -242.201 1767.1 -240.168C1770.02 -239.172 1772.64 -237.573 1774.84 -235.53C1777.72 -234.574 1780.37 -233 1782.62 -230.88C1785.53 -229.928 1788.16 -228.337 1790.33 -226.277C1793.22 -225.375 1795.88 -223.809 1798.13 -221.652C1800.87 -220.814 1803.41 -219.36 1805.57 -217.354C1805.68 -217.248 1805.8 -217.14 1805.91 -217.032C1808.85 -216.153 1811.5 -214.565 1813.66 -212.455C1816.62 -211.605 1819.29 -210.017 1821.45 -207.884C1824.41 -207.064 1827.1 -205.479 1829.25 -203.328C1832.21 -202.538 1834.91 -200.961 1837.04 -198.796C1840.01 -198.038 1842.72 -196.469 1844.85 -194.291C1850.44 -192.932 1855.14 -188.618 1856.69 -182.673L1976.48 276.367ZM1847.43 -190.854C1850.78 -189.112 1853.42 -186.013 1854.44 -182.081L1974.22 276.943C1975.49 281.828 1974 287.01 1970.32 290.456C1968.66 292.015 1966.6 293.144 1964.38 293.715L1953.12 296.626C1953.26 295.003 1953.17 293.35 1952.81 291.721L1849.2 -186.216C1848.83 -187.884 1848.23 -189.439 1847.43 -190.854ZM1950.73 297.244C1950.96 295.6 1950.91 293.898 1950.54 292.202L1846.94 -185.727C1846.4 -188.203 1845.25 -190.392 1843.67 -192.165C1842.81 -192.332 1841.92 -192.416 1841.02 -192.412C1841.32 -191.563 1841.55 -190.679 1841.71 -189.766L1928.43 303.011L1950.73 297.244ZM1950.12 299.816C1949.38 301.975 1948.11 303.96 1946.36 305.599C1944.49 307.353 1942.17 308.563 1939.64 309.111L1929.36 311.316C1929.46 309.916 1929.39 308.49 1929.14 307.068L1928.83 305.317L1950.12 299.816ZM1926.59 305.899L1926.86 307.46C1927.12 308.924 1927.15 310.394 1926.98 311.826L1904.67 316.607L1904 311.738L1926.59 305.899ZM1901.75 312.32L1902.41 317.092L1880.17 321.857L1879.78 318L1901.75 312.32ZM1879.53 315.653L1901.42 309.993L1832.25 -190.579L1827.5 -189.35L1879.53 315.653ZM1877.5 318.587L1877.89 322.346L1856.31 326.971L1856.11 324.117L1877.5 318.587ZM1855.95 321.752L1877.26 316.24L1825.22 -188.762L1820.14 -187.448L1855.95 321.752ZM1853.83 324.708L1854.02 327.462L1833.03 331.96L1832.96 330.103L1853.83 324.708ZM1832.86 327.721L1853.66 322.343L1817.86 -186.857L1812.47 -185.463L1832.86 327.721ZM1830.66 330.697L1830.73 332.453L1810.29 336.834L1810.28 335.966L1830.66 330.697ZM1810.25 333.567L1830.56 328.315L1810.17 -184.869L1804.5 -183.404L1810.25 333.567ZM1807.96 336.564L1807.97 337.33L1790.59 341.056L1807.96 336.564ZM1788.07 339.302L1807.94 334.166L1802.18 -182.805L1796.26 -181.274L1788.07 339.302ZM1766.31 344.929L1785.75 339.902L1793.95 -180.675L1787.77 -179.079L1766.31 344.929ZM1744.94 350.456L1763.97 345.534L1785.42 -178.471L1779.06 -176.825L1744.94 350.456ZM1736.25 352.701L1742.57 351.069L1776.68 -176.211L1770.11 -174.511L1723.95 355.338L1736.25 352.701ZM1670.92 369.594L1675.92 368.3L1668.64 369.563L1664.33 370.488L1670.92 369.594ZM1671.23 371.913L1662.32 374.215L1662.11 375.669L1679.51 373.921L1679.92 370.734L1671.23 371.913ZM1700.52 364.34L1690.44 366.947L1700.38 365.597L1700.52 364.34ZM1704.13 363.407L1702.93 363.718L1702.76 365.275L1720.96 362.806L1721.17 360.451L1704.13 363.407ZM1736.94 354.924L1731.83 356.246L1742.35 354.421L1742.39 353.756L1736.94 354.924ZM1659.89 374.844L1653.25 376.559L1659.73 375.908L1659.89 374.844ZM1642.86 376.849L1651.72 374.558L1643.04 375.735L1642.86 376.849ZM1638.09 378.082L1640.4 377.485L1640.64 376.062L1634.34 376.916L1623.78 379.179L1623.71 379.527L1638.09 378.082ZM1638.44 380.388L1639.94 380.237L1639.28 384.279L1622.64 385.405L1622.82 384.427L1638.44 380.388ZM1620.34 385.068L1620.25 385.567L1617.75 385.736L1620.34 385.068ZM1605.2 386.586L1620.8 382.554L1620.87 382.153L1604.56 383.792L1603.99 386.668L1605.2 386.586ZM1605.54 388.894L1603.44 389.437L1602.54 393.946L1618.83 393.341L1619.82 387.927L1605.54 388.894ZM1600.93 390.085L1584.27 394.392L1584.22 394.626L1600.15 394.035L1600.93 390.085ZM1584.81 391.858L1592.99 389.744L1585.15 390.274L1584.81 391.858ZM1572.42 395.064L1582.3 392.509L1582.74 390.438L1567.11 391.496L1566.24 395.293L1572.42 395.064ZM1572.73 397.377L1565.32 399.29L1564.4 403.341L1580 403.209L1581.32 397.058L1572.73 397.377ZM1562.79 399.945L1549.15 403.47L1562.01 403.361L1562.79 399.945ZM1547.2 401.583L1561.92 397.777L1548 398.294L1547.2 401.583ZM1539.59 403.551L1544.65 402.242L1545.59 398.383L1531.79 398.895L1530.54 399.162L1529.39 403.638L1539.59 403.551ZM1539.89 405.865L1543.78 405.832L1542.12 412.675L1527.14 412.399L1528.04 408.93L1539.89 405.865ZM1528.69 406.369L1530.33 405.946L1528.8 405.959L1528.69 406.369ZM1525.46 409.595L1524.75 412.355L1515.45 412.184L1525.46 409.595ZM1506.82 412.025L1526.12 407.035L1526.39 405.979L1497.6 406.223L1491.5 407.53C1493.06 409.487 1495.13 410.977 1497.44 411.853L1506.82 412.025ZM1507.06 414.353L1506.33 414.542C1503.14 415.367 1499.93 415.175 1497.04 414.168L1463.41 413.55L1462.57 413.732C1459.72 414.341 1456.89 414.177 1454.29 413.382L1419.71 412.746L1418.79 412.906C1416.3 413.34 1413.84 413.205 1411.54 412.596L1376.07 411.944L1375.05 412.082C1372.91 412.372 1370.81 412.263 1368.82 411.811L1332.3 411.139L1331.28 411.242C1329.52 411.42 1327.79 411.337 1326.13 411.025L1288.82 410.339L1287.54 410.426C1286.12 410.521 1284.73 410.454 1283.38 410.239L1245.01 409.534L1243.78 409.579C1242.76 409.616 1241.76 409.573 1240.79 409.456L1205.89 408.814L1522.12 422.609L1524.16 414.667L1507.06 414.353ZM1492.55 411.763C1491.19 410.735 1490 409.49 1489.01 408.064L1473.4 411.411L1492.55 411.763ZM1486.99 403.997L1469.29 404.147L1486.23 401.208L1486.69 402.989C1486.78 403.331 1486.88 403.667 1486.99 403.997ZM1485.47 398.29L1473.45 398.736L1485.17 397.147L1485.47 398.29ZM1487.5 396.887L1487.84 398.202L1490.54 398.102L1503.97 395.771L1487.5 396.887ZM1484.23 393.54L1446.54 397.326L1444.48 397.465L1341.53 -77.4051C1340.46 -82.3467 1342.02 -87.3423 1345.71 -90.8024L1345.72 -90.7946C1347.59 -92.5481 1349.91 -93.7585 1352.43 -94.3001L1672.48 -162.902L1669.4 -150.887L1378.41 -75.6528C1375.81 -74.9789 1373.41 -73.6585 1371.47 -71.845C1367.17 -67.8144 1365.41 -61.7587 1366.91 -56.0428L1484.23 393.54ZM1668.73 -148.3L1379.01 -73.3909C1376.79 -72.8195 1374.73 -71.6981 1373.07 -70.1393L1373.05 -70.1404C1369.38 -66.6869 1367.88 -61.5047 1369.15 -56.6132L1486.56 393.305L1523.36 389.609L1530.85 388.592L1668.73 -148.3ZM1671.98 -151.554L1675.03 -163.448L1682.69 -165.089L1679.89 -153.6L1671.98 -151.554ZM1679.26 -151.023L1671.31 -148.967L1533.35 388.254L1548.56 386.191L1679.26 -151.023ZM1682.44 -154.259L1685.21 -165.629L1692.77 -167.25L1690.25 -156.279L1682.44 -154.259ZM1689.66 -153.712L1681.81 -151.682L1551.03 385.856L1566.5 383.757L1689.66 -153.712ZM1692.78 -156.934L1695.27 -167.786L1702.73 -169.385L1700.49 -158.925L1692.78 -156.934ZM1699.94 -156.368L1692.2 -154.367L1568.96 383.423L1584.7 381.288L1699.94 -156.368ZM1703.01 -159.578L1705.23 -169.921L1712.58 -171.497L1710.6 -161.54L1703.01 -159.578ZM1710.1 -158.995L1702.46 -157.021L1587.15 380.956L1597.37 379.57L1603.22 378.555L1710.1 -158.995ZM1713.1 -162.186L1715.05 -172.027L1722.3 -173.579L1720.57 -164.117L1713.1 -162.186ZM1720.11 -161.583L1712.59 -159.64L1605.68 378.128L1622.13 375.276L1720.11 -161.583ZM1723.05 -164.759L1724.75 -174.106L1731.86 -175.629L1730.37 -166.652L1723.05 -164.759ZM1729.96 -164.13L1722.59 -162.224L1624.57 374.853L1641.32 371.947L1729.96 -164.13ZM1732.84 -167.291L1734.31 -176.154L1741.29 -177.65L1740.04 -169.151L1732.84 -167.291ZM1739.67 -166.641L1732.43 -164.769L1643.74 371.527L1660.81 368.565L1739.67 -166.641ZM1742.48 -169.782L1743.72 -178.17L1750.56 -179.638L1749.53 -171.605L1742.48 -169.782ZM1749.21 -169.108L1742.11 -167.272L1663.22 368.148L1668.25 367.275L1680.7 364.606L1749.21 -169.108ZM1751.94 -172.23L1752.96 -180.152L1759.65 -181.586L1758.83 -174.01L1751.94 -172.23ZM1758.56 -171.526L1751.62 -169.732L1683.11 364.09L1700.96 360.264L1758.56 -171.526ZM1761.23 -174.63L1762.04 -182.098L1768.56 -183.496L1767.94 -176.365L1761.23 -174.63ZM1767.73 -173.896L1760.96 -172.146L1703.36 359.751L1721.57 355.848L1767.73 -173.896ZM1770.32 -176.981L1770.93 -184.004L1777.27 -185.363L1776.84 -178.666L1770.32 -176.981ZM1779.22 -179.28L1779.64 -185.871L1785.78 -187.186L1785.52 -180.91L1779.22 -179.28ZM1787.87 -181.519L1788.13 -187.689L1794.08 -188.965L1793.98 -183.099L1787.87 -181.519ZM1796.3 -183.698L1796.39 -189.461L1802.1 -190.684L1802.16 -185.212L1796.3 -183.698ZM1804.48 -185.811L1804.42 -191.181L1809.87 -192.35L1810.07 -187.258L1804.48 -185.811ZM1812.37 -187.852L1812.17 -192.843L1817.36 -193.955L1817.69 -189.228L1812.37 -187.852ZM1819.98 -189.819L1819.65 -194.446L1824.53 -195.492L1824.98 -191.113L1819.98 -189.819ZM1827.26 -191.701L1826.82 -195.982L1830.01 -196.666C1830.3 -196.728 1830.59 -196.781 1830.87 -196.825C1831.38 -195.63 1831.73 -194.353 1831.91 -193.012L1831.93 -192.909L1827.26 -191.701ZM1834.19 -193.495C1834.01 -194.706 1833.71 -195.872 1833.31 -196.98C1834.17 -196.961 1835.02 -196.863 1835.85 -196.692C1836.49 -195.977 1837.07 -195.197 1837.57 -194.359C1837.4 -194.32 1837.22 -194.278 1837.05 -194.233L1834.19 -193.495ZM1838.64 -192.191C1838.99 -191.297 1839.25 -190.355 1839.43 -189.373L1926.18 303.592L1903.68 309.411L1834.52 -191.165L1837.64 -191.972C1837.97 -192.058 1838.3 -192.131 1838.64 -192.191ZM1840.03 -194.711C1839.93 -194.906 1839.82 -195.099 1839.71 -195.29C1840.03 -195.118 1840.34 -194.934 1840.65 -194.739C1840.44 -194.734 1840.24 -194.724 1840.03 -194.711ZM1488.52 400.81L1488.94 402.412C1489.08 402.95 1489.25 403.471 1489.45 403.976L1497.31 403.909L1518.39 399.392L1490.79 400.416L1488.52 400.81ZM1922.43 320.751C1924.35 318.958 1925.71 316.73 1926.45 314.306L1904.99 318.906L1905.47 322.414C1905.64 323.648 1905.68 324.885 1905.59 326.104L1914.92 324.486C1917.75 323.998 1920.34 322.706 1922.43 320.751ZM1903.18 322.719L1902.72 319.392L1880.41 324.174L1881.05 330.361L1903.23 326.514C1903.37 325.265 1903.36 323.991 1903.18 322.719ZM1878.76 330.759L1878.13 324.663L1856.48 329.304L1856.85 334.56L1878.76 330.759ZM1854.55 334.959L1854.18 329.795L1833.12 334.31L1833.29 338.645L1854.55 334.959ZM1830.99 339.045L1830.82 334.803L1810.31 339.198L1810.35 342.625L1830.99 339.045ZM1808.04 343.027L1808 339.694L1788 343.981L1787.96 346.509L1808.04 343.027ZM1785.64 346.912L1785.68 344.478L1766.16 348.662L1766.09 350.303L1785.64 346.912ZM1763.76 350.707L1763.82 349.163L1744.76 353.25L1744.71 354.012L1763.76 350.707ZM1602.67 381.329L1599.94 381.915L1594 382.512L1597.31 381.938L1602.7 381.207L1602.67 381.329ZM1585.79 387.322L1600.23 384.227L1602.13 384.035L1601.58 386.831L1585.66 387.909L1585.79 387.322ZM1620.78 379.821L1621.32 379.706L1621.31 379.768L1620.78 379.821ZM1581.84 388.167L1583.29 387.856L1583.25 388.072L1581.84 388.167ZM1579.38 386.321L1567.72 388.819L1568.03 387.46L1579.38 386.321ZM1563.84 395.382L1564.65 391.853L1548.74 395.262L1548.57 395.948L1563.84 395.382ZM1549.75 392.672L1549.35 392.757L1549.36 392.698L1549.75 392.672ZM1546.16 396.038L1546.22 395.802L1544.9 396.085L1546.16 396.038ZM1546.83 393.297L1531.5 396.582L1531.2 396.593L1531.9 393.88L1546.94 392.862L1546.83 393.297ZM1508.85 403.812L1528 399.707L1526.99 403.658L1508.85 403.812ZM1486.06 406.321L1463.18 411.223L1454.66 411.066C1452.56 410.375 1450.64 409.203 1449.07 407.654L1455.24 406.583L1486.06 406.321ZM1446.35 408.125C1447.25 409.202 1448.29 410.157 1449.42 410.97L1431.82 410.646L1446.35 408.125ZM1431.18 404.469L1443.98 404.361C1443.76 403.86 1443.55 403.345 1443.37 402.815L1431.18 404.469ZM1401.76 400.357L1442.14 397.624L1339.27 -76.9169C1338.05 -82.5674 1339.91 -88.5354 1344.12 -92.4926C1346.3 -94.5352 1348.99 -95.9424 1351.93 -96.5754L1673.13 -165.418L1675.83 -175.938L1325.86 -115.223C1323.02 -114.734 1320.42 -113.436 1318.34 -111.488L1318.35 -111.495C1314.71 -108.082 1313.05 -103.123 1313.92 -98.2116L1401.35 398.622C1401.46 399.215 1401.59 399.794 1401.76 400.357ZM1678.35 -176.375L1675.68 -165.965L1683.3 -167.598L1685.74 -177.657L1678.35 -176.375ZM1688.24 -178.09L1685.82 -168.138L1693.34 -169.75L1695.54 -179.357L1688.24 -178.09ZM1698.02 -179.787L1695.84 -170.287L1703.26 -171.877L1705.23 -181.037L1698.02 -179.787ZM1707.7 -181.467L1705.76 -172.413L1713.07 -173.98L1714.81 -182.7L1707.7 -181.467ZM1717.26 -183.125L1715.55 -174.51L1722.75 -176.053L1724.26 -184.339L1717.26 -183.125ZM1726.7 -184.763L1725.21 -176.58L1732.27 -178.093L1733.57 -185.954L1726.7 -184.763ZM1736 -186.376L1734.72 -178.619L1741.65 -180.105L1742.75 -187.547L1736 -186.376ZM1745.16 -187.965L1744.08 -180.625L1750.88 -182.082L1751.78 -189.113L1745.16 -187.965ZM1754.17 -189.527L1753.28 -182.597L1759.91 -184.019L1760.63 -190.649L1754.17 -189.527ZM1763.01 -191.062L1762.3 -184.531L1768.77 -185.918L1769.32 -192.156L1763.01 -191.062ZM1771.68 -192.566L1771.15 -186.427L1777.43 -187.773L1777.81 -193.629L1771.68 -192.566ZM1780.17 -194.039L1779.8 -188.281L1785.88 -189.584L1786.1 -195.068L1780.17 -194.039ZM1788.44 -195.474L1788.22 -190.087L1794.11 -191.35L1794.19 -196.472L1788.44 -195.474ZM1796.51 -196.873L1796.43 -191.846L1802.07 -193.055L1802.02 -197.829L1796.51 -196.873ZM1804.34 -198.232L1804.39 -193.552L1809.78 -194.707L1809.6 -199.145L1804.34 -198.232ZM1811.91 -199.544L1812.08 -195.2L1817.19 -196.296L1816.91 -200.266C1816.91 -200.314 1816.91 -200.363 1816.9 -200.411L1811.91 -199.544ZM1819.23 -200.431L1819.49 -196.788L1824.25 -197.808C1824.02 -199.094 1823.64 -200.32 1823.12 -201.47C1822.87 -201.44 1822.62 -201.404 1822.37 -201.36L1819.2 -200.81C1819.21 -200.684 1819.22 -200.557 1819.23 -200.431ZM1825.6 -201.56C1826 -200.518 1826.31 -199.427 1826.52 -198.295L1829.5 -198.935C1829.59 -198.953 1829.67 -198.97 1829.76 -198.987C1829.25 -199.79 1828.68 -200.541 1828.05 -201.232C1827.25 -201.408 1826.43 -201.519 1825.6 -201.56ZM1832.01 -199.731C1832.1 -199.585 1832.18 -199.439 1832.26 -199.29C1832.42 -199.297 1832.58 -199.302 1832.74 -199.304C1832.5 -199.453 1832.26 -199.596 1832.01 -199.731ZM1446.56 404.339C1446.24 403.752 1445.96 403.137 1445.72 402.497L1449.88 401.934L1473.5 401.057L1454.99 404.268L1446.56 404.339ZM1902.75 328.952C1902 331.578 1900.55 333.993 1898.52 335.904C1896.21 338.06 1893.33 339.424 1890.19 339.853L1881.86 340.982C1881.94 339.919 1881.92 338.84 1881.81 337.754L1881.29 332.674L1902.75 328.952ZM1879 333.071L1879.5 337.992C1879.62 339.108 1879.62 340.217 1879.5 341.302L1857.53 344.283L1857.01 336.886L1879 333.071ZM1854.71 337.285L1855.22 344.595L1833.65 347.522L1833.39 340.984L1854.71 337.285ZM1831.08 341.383L1831.34 347.835L1810.44 350.67L1810.38 344.975L1831.08 341.383ZM1808.06 345.377L1808.12 350.984L1787.85 353.734L1787.92 348.871L1808.06 345.377ZM1785.6 349.273L1785.53 354.049L1765.83 356.721L1765.99 352.675L1785.6 349.273ZM1763.66 353.079L1763.5 357.036L1744.34 359.635L1744.55 356.395L1763.66 353.079ZM1742.19 356.804L1741.99 359.954L1723.33 362.486L1723.54 360.04L1742.19 356.804ZM1526.03 391.945L1529.66 391.315L1523.91 391.893L1521.03 392.284L1526.03 391.945ZM1561.95 388.072L1549.98 390.148L1549.94 390.327L1565.23 389.291L1565.6 387.705L1561.95 388.072ZM1526.27 394.261L1507.83 397.46L1528.78 396.683L1529.45 394.046L1526.27 394.261ZM1419.52 410.42L1440.95 406.704L1412.95 406.941L1406.89 407.763C1408.38 408.905 1410.08 409.765 1411.9 410.28L1419.52 410.42ZM1406.26 410.176C1405.39 409.586 1404.58 408.917 1403.84 408.178L1391.15 409.898L1406.26 410.176ZM1401.15 404.724L1395.71 404.77L1400.88 404.251C1400.93 404.339 1400.98 404.426 1401.03 404.513C1401.07 404.584 1401.11 404.654 1401.15 404.724ZM1399.38 400.518L1367.78 402.658L1359.88 402.951C1358.69 401.125 1357.88 399.016 1357.56 396.719L1286.29 -119.012C1285.62 -123.901 1287.36 -128.825 1290.96 -132.197L1290.95 -132.19C1293.25 -134.354 1296.13 -135.718 1299.29 -136.146L1678.83 -187.626L1676.46 -178.401L1325.45 -117.506C1322.17 -116.935 1319.16 -115.443 1316.74 -113.179C1312.54 -109.235 1310.62 -103.483 1311.62 -97.8057L1399.05 399.028C1399.14 399.534 1399.25 400.031 1399.38 400.518ZM1678.98 -178.838L1681.33 -187.965L1688.49 -188.936L1686.34 -180.115L1678.98 -178.838ZM1688.83 -180.547L1690.96 -189.271L1698.03 -190.23L1696.1 -181.808L1688.83 -180.547ZM1698.58 -182.238L1700.49 -190.564L1707.47 -191.511L1705.75 -183.482L1698.58 -182.238ZM1708.23 -183.912L1709.93 -191.844L1716.81 -192.778L1715.29 -185.137L1708.23 -183.912ZM1717.75 -185.563L1719.25 -193.108L1726.03 -194.028L1724.7 -186.77L1717.75 -185.563ZM1727.14 -187.193L1728.45 -194.356L1735.1 -195.259L1733.97 -188.377L1727.14 -187.193ZM1736.4 -188.799L1737.52 -195.587L1744.06 -196.474L1743.1 -189.962L1736.4 -188.799ZM1745.51 -190.38L1746.46 -196.799L1752.88 -197.669L1752.09 -191.521L1745.51 -190.38ZM1754.47 -191.935L1755.25 -197.991L1761.52 -198.842L1760.89 -193.048L1754.47 -191.935ZM1763.27 -193.461L1763.89 -199.163L1770 -199.992L1769.53 -194.546L1763.27 -193.461ZM1771.89 -194.956L1772.36 -200.311L1778.29 -201.117L1777.96 -196.009L1771.89 -194.956ZM1780.32 -196.419L1780.65 -201.436L1786.39 -202.215L1786.2 -197.438L1780.32 -196.419ZM1788.54 -197.845L1788.73 -202.533L1794.3 -203.288L1794.23 -198.832L1788.54 -197.845ZM1796.55 -199.233L1796.61 -203.602L1801.94 -204.325L1801.99 -200.178L1796.55 -199.233ZM1804.31 -200.581L1804.27 -204.64L1809.3 -205.322C1809.35 -204.856 1809.39 -204.386 1809.41 -203.911L1809.51 -201.482L1804.31 -200.581ZM1811.81 -201.882L1811.73 -203.996C1811.71 -204.547 1811.66 -205.093 1811.59 -205.634L1814.75 -206.062C1814.96 -206.09 1815.17 -206.114 1815.37 -206.133C1815.89 -205.053 1816.29 -203.905 1816.56 -202.705L1811.81 -201.882ZM1818.85 -203.102C1818.62 -204.16 1818.3 -205.182 1817.9 -206.162C1818.69 -206.104 1819.48 -205.984 1820.24 -205.806C1820.86 -205.137 1821.43 -204.412 1821.94 -203.639L1818.85 -203.102ZM1824.5 -203.893C1824.44 -203.999 1824.37 -204.104 1824.31 -204.208C1824.49 -204.108 1824.66 -204.005 1824.84 -203.897C1824.72 -203.897 1824.61 -203.896 1824.5 -203.893ZM1403.44 403.994C1403.59 404.235 1403.75 404.47 1403.92 404.7L1412.64 404.627L1425.95 402.821L1408.76 403.459L1403.44 403.994ZM1874.61 351.088C1876.79 349.048 1878.3 346.505 1879.05 343.726L1857.69 346.623L1858.15 353.094C1858.22 354.063 1858.21 355.026 1858.13 355.976L1865.45 355.241C1868.92 354.896 1872.08 353.459 1874.61 351.088ZM1855.83 353.258L1855.39 346.935L1833.74 349.871L1834.08 358.393L1855.78 356.213C1855.88 355.241 1855.9 354.253 1855.83 353.258ZM1831.77 358.625L1831.43 350.184L1810.47 353.028L1810.55 360.756L1831.77 358.625ZM1808.24 360.989L1808.15 353.342L1787.81 356.101L1787.7 363.052L1808.24 360.989ZM1785.38 363.285L1785.49 356.415L1765.73 359.095L1765.48 365.285L1785.38 363.285ZM1763.15 365.518L1763.4 359.411L1744.19 362.017L1743.84 367.459L1763.15 365.518ZM1741.49 367.694L1741.84 362.336L1723.12 364.875L1722.71 369.581L1741.49 367.694ZM1720.35 369.818L1720.76 365.195L1702.5 367.671L1702.07 371.655L1720.35 369.818ZM1699.7 371.893L1700.12 367.993L1682.3 370.411L1681.88 373.683L1699.7 371.893ZM1451.96 399.293L1449.52 399.624L1445.43 399.776L1446.67 399.651L1451.96 399.293ZM1394.41 407.099L1375.85 409.617L1369.17 409.494C1367.71 409.147 1366.33 408.589 1365.05 407.85L1370.51 407.301L1394.41 407.099ZM1361.5 408.206C1362.01 408.628 1362.55 409.02 1363.1 409.382L1351.85 409.176L1361.5 408.206ZM1318.42 404.489L1357.24 403.049C1356.25 401.232 1355.56 399.211 1355.26 397.045L1284 -118.692C1283.22 -124.324 1285.23 -130.005 1289.37 -133.887C1292.03 -136.38 1295.35 -137.95 1298.98 -138.443L1679.45 -190.046L1681.53 -198.141L1272.71 -157.076C1269.26 -156.729 1266.08 -155.286 1263.55 -152.915L1263.56 -152.921C1259.94 -149.529 1258.15 -144.754 1258.66 -139.819L1313.75 394.816C1314.15 398.631 1315.87 401.995 1318.42 404.489ZM1684 -198.389L1681.95 -190.385L1689.08 -191.351L1690.96 -199.088L1684 -198.389ZM1693.41 -199.334L1691.54 -191.686L1698.58 -192.641L1700.28 -200.024L1693.41 -199.334ZM1702.71 -200.269L1701.04 -192.974L1707.99 -193.916L1709.49 -200.95L1702.71 -200.269ZM1711.93 -201.195L1710.44 -194.249L1717.29 -195.178L1718.62 -201.866L1711.93 -201.195ZM1721.04 -202.109L1719.72 -195.508L1726.46 -196.422L1727.62 -202.771L1721.04 -202.109ZM1730.03 -203.013L1728.89 -196.751L1735.5 -197.647L1736.49 -203.662L1730.03 -203.013ZM1738.9 -203.903L1737.92 -197.976L1744.41 -198.857L1745.25 -204.541L1738.9 -203.903ZM1747.64 -204.781L1746.81 -199.182L1753.18 -200.046L1753.87 -205.407L1747.64 -204.781ZM1756.23 -205.645L1755.56 -200.368L1761.78 -201.211L1762.32 -206.256L1756.23 -205.645ZM1764.68 -206.493L1764.14 -201.532L1770.21 -202.355L1770.62 -207.089L1764.68 -206.493ZM1772.97 -207.325L1772.56 -202.674L1778.44 -203.472L1778.73 -207.904L1772.97 -207.325ZM1781.08 -208.141L1780.8 -203.792L1786.49 -204.563L1786.66 -208.701L1781.08 -208.141ZM1789 -208.935L1788.83 -204.88L1794.34 -205.628L1794.4 -209.478L1789 -208.935ZM1796.71 -209.71L1796.65 -205.941L1801.92 -206.656L1801.91 -207.542C1801.9 -208.445 1801.82 -209.335 1801.68 -210.209L1796.71 -209.71ZM1804.23 -207.554L1804.24 -206.971L1808.86 -207.597C1808.56 -208.707 1808.16 -209.779 1807.65 -210.8C1807.47 -210.788 1807.29 -210.773 1807.12 -210.755L1803.99 -210.442C1804.14 -209.494 1804.22 -208.53 1804.23 -207.554ZM1810.22 -210.763C1810.61 -209.842 1810.93 -208.889 1811.17 -207.911L1814.12 -208.311C1813.62 -209.048 1813.06 -209.741 1812.45 -210.383C1811.72 -210.562 1810.98 -210.69 1810.22 -210.763ZM1816.63 -208.685C1816.65 -208.659 1816.67 -208.633 1816.68 -208.607C1816.7 -208.576 1816.72 -208.545 1816.74 -208.513L1816.79 -208.514L1816.84 -208.514C1816.87 -208.513 1816.89 -208.513 1816.92 -208.513C1816.86 -208.551 1816.8 -208.589 1816.74 -208.626C1816.7 -208.646 1816.67 -208.665 1816.63 -208.685ZM1855.33 358.602C1854.56 361.512 1852.99 364.178 1850.73 366.294C1848 368.847 1844.45 370.385 1840.7 370.644L1834.41 371.07C1834.49 370.202 1834.52 369.323 1834.48 368.44L1834.17 360.728L1855.33 358.602ZM1831.86 360.96L1832.16 368.525C1832.2 369.435 1832.16 370.339 1832.05 371.23L1810.69 372.676L1810.58 363.097L1831.86 360.96ZM1808.26 363.33L1808.37 372.833L1787.52 374.244L1787.66 365.399L1808.26 363.33ZM1785.35 365.632L1785.21 374.401L1765.05 375.765L1765.38 367.637L1785.35 365.632ZM1763.06 367.871L1762.73 375.922L1743.2 377.244L1743.68 369.817L1763.06 367.871ZM1741.34 370.053L1740.86 377.403L1721.91 378.685L1722.5 371.945L1741.34 370.053ZM1720.15 372.181L1719.57 378.844L1701.15 380.091L1701.81 374.023L1720.15 372.181ZM1699.45 374.261L1698.8 380.25L1680.88 381.463L1681.57 376.056L1699.45 374.261ZM1679.2 376.294L1678.52 381.623L1661.06 382.805L1661.76 378.046L1679.2 376.294ZM1659.38 378.285L1658.69 382.965L1641.66 384.118L1642.34 379.997L1659.38 378.285ZM1370.3 404.985L1371.88 404.827L1368.23 404.962L1367.55 405.008L1370.3 404.985ZM1332.19 408.814L1345.1 407.517L1328.41 407.658L1323.84 407.968C1324.66 408.284 1325.52 408.532 1326.39 408.707L1332.19 408.814ZM1319.9 408.588C1319.73 408.484 1319.57 408.378 1319.4 408.269L1315.8 408.513L1319.9 408.588ZM1315.38 404.602L1285.77 405.701L1277.79 405.769C1273.41 403.103 1270.33 398.421 1269.95 392.927L1231.03 -160.612C1230.68 -165.528 1232.55 -170.274 1236.14 -173.64L1236.13 -173.648C1238.86 -176.201 1242.42 -177.745 1246.15 -178.005L1683.97 -207.631L1682.15 -200.533L1272.47 -159.383C1268.5 -158.981 1264.86 -157.333 1261.96 -154.613C1257.81 -150.723 1255.76 -145.242 1256.34 -139.582L1311.44 395.061C1311.81 398.688 1313.24 401.96 1315.38 404.602ZM1684.62 -200.782L1686.42 -207.797L1693.19 -208.255L1691.54 -201.477L1684.62 -200.782ZM1693.99 -201.723L1695.62 -208.419L1702.3 -208.872L1700.82 -202.409L1693.99 -201.723ZM1703.26 -202.654L1704.72 -209.036L1711.32 -209.482L1710 -203.331L1703.26 -202.654ZM1712.44 -203.576L1713.74 -209.646L1720.25 -210.087L1719.09 -204.244L1712.44 -203.576ZM1721.51 -204.487L1722.65 -210.249L1729.07 -210.683L1728.06 -205.145L1721.51 -204.487ZM1730.46 -205.387L1731.46 -210.845L1737.75 -211.271L1736.88 -206.032L1730.46 -205.387ZM1739.29 -206.273L1740.14 -211.432L1746.33 -211.851L1745.6 -206.907L1739.29 -206.273ZM1747.99 -207.147L1748.7 -212.012L1754.77 -212.422L1754.17 -207.768L1747.99 -207.147ZM1756.54 -208.006L1757.12 -212.581L1763.05 -212.983L1762.58 -208.612L1756.54 -208.006ZM1764.94 -208.849L1765.4 -213.142L1771.18 -213.533L1770.82 -209.441L1764.94 -208.849ZM1773.17 -209.676L1773.52 -213.691L1779.13 -214.07L1778.88 -210.25L1773.17 -209.676ZM1781.24 -210.486L1781.48 -214.229L1786.9 -214.596L1786.75 -211.041L1781.24 -210.486ZM1789.09 -211.276L1789.23 -214.685L1789.23 -214.754L1794.06 -215.081C1794.28 -214.021 1794.4 -212.928 1794.42 -211.811L1789.09 -211.276ZM1796.73 -212.042C1796.69 -213.13 1796.58 -214.197 1796.38 -215.238L1799.5 -215.449C1799.64 -215.458 1799.78 -215.466 1799.92 -215.472C1800.42 -214.517 1800.83 -213.518 1801.15 -212.486L1796.73 -212.042ZM1803.49 -212.722C1803.24 -213.629 1802.92 -214.514 1802.54 -215.372C1803.27 -215.285 1803.99 -215.148 1804.69 -214.965C1805.29 -214.349 1805.83 -213.694 1806.32 -213.006L1803.49 -212.722ZM1809 -213.151L1809 -213.154L1809 -213.15L1809 -213.151ZM1826.85 381.494C1829.16 379.324 1830.79 376.581 1831.6 373.587L1810.71 375.001L1810.81 383.786C1810.82 384.604 1810.78 385.417 1810.69 386.222L1815.97 386.025C1820.04 385.871 1823.89 384.262 1826.85 381.494ZM1808.49 383.806L1808.39 375.158L1787.49 376.574L1787.32 387.089L1808.33 386.309C1808.45 385.483 1808.5 384.647 1808.49 383.806ZM1785.01 387.175L1785.17 376.731L1764.95 378.1L1764.55 387.934L1785.01 387.175ZM1762.23 388.02L1762.63 378.257L1743.05 379.583L1742.46 388.753L1762.23 388.02ZM1740.12 388.84L1740.71 379.741L1721.71 381.028L1720.97 389.551L1740.12 388.84ZM1718.63 389.638L1719.36 381.187L1700.9 382.437L1700.04 390.327L1718.63 389.638ZM1697.7 390.415L1698.54 382.597L1680.58 383.813L1679.64 391.084L1697.7 390.415ZM1677.29 391.172L1678.22 383.973L1660.71 385.158L1659.73 391.824L1677.29 391.172ZM1657.37 391.911L1658.34 385.319L1641.27 386.475L1640.26 392.546L1657.37 391.911ZM1637.89 392.634L1638.89 386.636L1622.21 387.765L1621.21 393.253L1637.89 392.634ZM1288.96 407.993L1288.66 408.013L1288 408.001L1288.96 407.993ZM1236.92 406.115L1273.97 405.801C1270.4 402.664 1268.01 398.18 1267.65 393.086L1228.73 -160.446C1228.33 -166.063 1230.45 -171.488 1234.56 -175.337C1237.66 -178.253 1241.73 -180.021 1246 -180.305L1684.58 -209.996L1686.18 -216.228L1219.6 -198.919C1215.54 -198.771 1211.68 -197.155 1208.72 -194.388L1208.72 -194.396C1205.15 -191.05 1203.21 -186.323 1203.4 -181.426L1226.15 391.01C1226.43 397.932 1230.84 403.734 1236.92 406.115ZM1688.61 -216.319L1687.03 -210.162L1693.76 -210.618L1695.21 -216.564L1688.61 -216.319ZM1697.62 -216.653L1696.19 -210.782L1702.85 -211.232L1704.14 -216.895L1697.62 -216.653ZM1706.54 -216.984L1705.26 -211.396L1711.83 -211.84L1712.98 -217.223L1706.54 -216.984ZM1715.39 -217.312L1714.25 -212.004L1720.72 -212.443L1721.74 -217.548L1715.39 -217.312ZM1724.12 -217.636L1723.12 -212.605L1729.5 -213.037L1730.38 -217.868L1724.12 -217.636ZM1732.76 -217.957L1731.89 -213.199L1738.14 -213.622L1738.89 -218.184L1732.76 -217.957ZM1741.28 -218.273L1740.53 -213.784L1746.67 -214.199L1747.31 -218.496L1741.28 -218.273ZM1749.67 -218.584L1749.05 -214.36L1755.07 -214.768L1755.59 -218.804L1749.67 -218.584ZM1757.93 -218.891L1757.43 -214.927L1763.3 -215.325L1763.71 -219.105L1757.93 -218.891ZM1766.06 -219.192L1765.65 -215.484L1771.38 -215.872L1771.69 -219.401L1766.06 -219.192ZM1774.03 -219.488L1773.72 -216.031L1779.28 -216.407L1779.41 -218.419C1779.44 -218.845 1779.45 -219.268 1779.45 -219.689L1774.03 -219.488ZM1781.74 -218.256L1781.63 -216.566L1786.88 -216.921C1786.8 -217.947 1786.65 -218.958 1786.41 -219.947L1781.78 -219.775C1781.79 -219.272 1781.77 -218.766 1781.74 -218.256ZM1788.77 -220.035C1788.98 -219.065 1789.12 -218.078 1789.19 -217.078L1793.43 -217.365C1793.09 -218.335 1792.67 -219.269 1792.18 -220.158C1792.08 -220.156 1791.98 -220.153 1791.87 -220.15L1788.77 -220.035ZM1794.85 -220C1795.22 -219.201 1795.54 -218.375 1795.81 -217.526L1798.51 -217.709C1798.03 -218.363 1797.5 -218.988 1796.92 -219.58C1796.24 -219.763 1795.55 -219.903 1794.85 -220ZM1807.85 388.654C1807 391.709 1805.33 394.513 1802.98 396.716C1799.79 399.713 1795.61 401.377 1791.22 401.42L1786.97 401.456C1787.07 400.684 1787.12 399.902 1787.13 399.111L1787.29 389.417L1807.85 388.654ZM1784.97 389.503L1784.82 399.072C1784.81 399.884 1784.74 400.687 1784.62 401.476L1763.99 401.651L1764.45 390.264L1784.97 389.503ZM1762.14 390.35L1761.67 401.67L1741.61 401.84L1742.31 391.086L1762.14 390.35ZM1739.97 391.173L1739.28 401.86L1719.88 402.024L1720.76 391.885L1739.97 391.173ZM1718.42 391.972L1717.55 402.044L1698.76 402.203L1699.79 392.663L1718.42 391.972ZM1697.44 392.75L1696.42 402.223L1678.2 402.377L1679.34 393.421L1697.44 392.75ZM1676.99 393.509L1675.85 402.397L1658.15 402.547L1659.38 394.162L1676.99 393.509ZM1657.03 394.249L1655.8 402.567L1638.58 402.713L1639.88 394.886L1657.03 394.249ZM1637.51 394.973L1636.22 402.733L1619.45 402.875L1620.78 395.594L1637.51 394.973ZM1618.4 395.682L1617.09 402.895L1600.73 403.034L1602.07 396.288L1618.4 395.682ZM1599.68 396.377L1598.35 403.054L1582.38 403.189L1583.72 396.969L1599.68 396.377ZM1232.12 406.155C1227.32 402.823 1224.08 397.363 1223.83 391.101L1201.08 -181.349C1200.86 -186.909 1203.06 -192.284 1207.12 -196.094C1210.48 -199.245 1214.88 -201.074 1219.5 -201.245L1686.78 -218.579L1688.18 -224.042L1193.03 -219.842C1188.65 -219.806 1184.47 -218.135 1181.28 -215.138L1181.27 -215.131C1177.71 -211.807 1175.7 -207.1 1175.76 -202.221L1182.34 389.113C1182.44 398.129 1189.4 405.515 1198.19 406.35L1201.66 406.413L1232.12 406.155ZM1689.21 -218.669L1690.6 -224.063L1697.05 -224.117L1695.78 -218.913L1689.21 -218.669ZM1698.19 -219.002L1699.44 -224.138L1705.81 -224.192L1704.68 -219.243L1698.19 -219.002ZM1707.08 -219.332L1708.2 -224.212L1714.49 -224.265L1713.48 -219.57L1707.08 -219.332ZM1715.89 -219.659L1716.88 -224.286L1723.09 -224.338L1722.2 -219.893L1715.89 -219.659ZM1724.59 -219.981L1725.46 -224.358L1731.57 -224.41L1730.81 -220.212L1724.59 -219.981ZM1733.19 -220.3L1733.94 -224.43L1739.94 -224.481L1739.28 -220.527L1733.19 -220.3ZM1741.66 -220.615L1742.31 -224.501L1748.2 -224.551L1747.65 -220.837L1741.66 -220.615ZM1750.02 -220.925L1750.55 -224.571L1756.34 -224.62L1755.89 -221.143L1750.02 -220.925ZM1758.23 -221.23L1758.67 -224.64L1764.32 -224.688L1763.97 -221.442L1758.23 -221.23ZM1766.31 -221.529L1766.65 -224.708L1771.97 -224.753C1772.02 -223.858 1772 -222.951 1771.92 -222.035L1771.89 -221.736L1766.31 -221.529ZM1774.23 -221.823L1774.23 -221.83C1774.32 -222.821 1774.34 -223.804 1774.29 -224.773L1778.76 -224.811C1779.01 -223.901 1779.2 -222.966 1779.31 -222.011L1774.23 -221.823ZM1781.65 -222.098C1781.54 -223.026 1781.38 -223.939 1781.16 -224.831L1784.25 -224.857C1784.28 -224.857 1784.31 -224.858 1784.33 -224.858C1784.37 -224.858 1784.42 -224.858 1784.46 -224.858C1784.94 -224.019 1785.35 -223.147 1785.7 -222.248L1781.65 -222.098ZM1788.13 -222.339C1787.86 -223.123 1787.55 -223.891 1787.19 -224.64C1787.85 -224.535 1788.5 -224.392 1789.14 -224.213C1789.7 -223.655 1790.22 -223.06 1790.7 -222.434L1788.13 -222.339ZM1779.12 411.939C1781.54 409.678 1783.24 406.878 1784.12 403.793L1763.89 403.965L1763.46 414.457C1763.43 415.227 1763.36 415.99 1763.25 416.741L1766.47 416.801C1771.19 416.884 1775.69 415.157 1779.12 411.939ZM1761.15 414.346L1761.58 403.984L1741.46 404.155L1740.67 416.326L1760.91 416.698C1761.04 415.926 1761.12 415.141 1761.15 414.346ZM1738.35 416.283L1739.13 404.175L1719.68 404.34L1718.67 415.922L1738.35 416.283ZM1716.34 415.879L1717.34 404.359L1698.51 404.519L1697.32 415.529L1716.34 415.879ZM1694.98 415.486L1696.17 404.539L1677.9 404.694L1676.56 415.147L1694.98 415.486ZM1674.22 415.104L1675.56 404.714L1657.81 404.864L1656.35 414.775L1674.22 415.104ZM1654.01 414.732L1655.46 404.884L1638.2 405.031L1636.65 414.413L1654.01 414.732ZM1634.3 414.37L1635.84 405.051L1619.03 405.193L1617.41 414.059L1634.3 414.37ZM1615.06 414.016L1616.66 405.213L1600.27 405.352L1598.61 413.714L1615.06 414.016ZM1596.24 413.67L1597.89 405.373L1581.89 405.508L1580.2 413.375L1596.24 413.67ZM1577.83 413.331L1579.51 405.529L1563.86 405.661L1562.17 413.043L1577.83 413.331ZM1559.8 413L1561.48 405.682L1546.17 405.811L1544.49 412.718L1559.8 413ZM1156.31 405.579L1190.16 406.202C1184.19 402.833 1180.11 396.458 1180.03 389.125L1173.45 -202.208C1173.39 -207.734 1175.66 -213.074 1179.69 -216.843C1183.31 -220.228 1188.04 -222.119 1193.01 -222.161L1688.78 -226.366L1690.01 -231.15L1166.48 -240.778C1161.76 -240.87 1157.27 -239.141 1153.83 -235.917L1153.82 -235.925C1150.23 -232.567 1148.21 -227.984 1148.13 -223.057L1138.53 387.18C1138.38 397.15 1146.35 405.393 1156.31 405.579ZM1692.41 -231.106L1691.19 -226.387L1697.61 -226.441L1698.72 -230.99L1692.41 -231.106ZM1701.1 -230.946L1700.01 -226.462L1706.35 -226.515L1707.34 -230.832L1701.1 -230.946ZM1709.71 -230.788L1708.73 -226.536L1714.99 -226.589L1715.86 -230.675L1709.71 -230.788ZM1718.24 -230.631L1717.38 -226.609L1723.55 -226.661L1724.32 -230.519L1718.24 -230.631ZM1726.67 -230.476L1725.92 -226.681L1732 -226.733L1732.66 -230.366L1726.67 -230.476ZM1735.01 -230.323L1734.36 -226.753L1740.32 -226.804L1740.88 -230.215L1735.01 -230.323ZM1743.24 -230.171L1742.69 -226.824L1748.54 -226.873L1749.01 -230.065L1743.24 -230.171ZM1751.36 -230.022L1750.89 -226.893L1756.63 -226.942L1756.93 -229.273C1756.96 -229.488 1756.99 -229.703 1757.01 -229.918L1751.36 -230.022ZM1759.23 -228.975L1758.97 -226.962L1764.53 -227.009C1764.57 -227.94 1764.54 -228.865 1764.46 -229.781L1759.33 -229.875C1759.3 -229.575 1759.27 -229.275 1759.23 -228.975ZM1766.79 -229.738C1766.86 -228.842 1766.88 -227.937 1766.85 -227.029L1771.72 -227.07C1771.57 -227.952 1771.37 -228.816 1771.1 -229.659L1766.79 -229.738ZM1773.53 -229.614C1773.76 -228.789 1773.94 -227.947 1774.07 -227.09L1777.96 -227.123C1777.6 -227.964 1777.19 -228.777 1776.73 -229.555C1776.7 -229.556 1776.67 -229.556 1776.64 -229.557L1773.53 -229.614ZM1779.52 -229.274C1779.86 -228.583 1780.17 -227.872 1780.44 -227.144L1782.89 -227.165C1782.6 -227.528 1782.3 -227.882 1781.98 -228.227C1781.79 -228.432 1781.6 -228.633 1781.4 -228.829C1780.79 -229.009 1780.16 -229.158 1779.52 -229.274ZM1760.37 419.011C1759.44 422.106 1757.7 424.909 1755.28 427.178C1751.59 430.624 1746.79 432.414 1741.73 432.189L1739.53 432.093C1739.66 431.332 1739.75 430.561 1739.8 429.782L1740.52 418.646L1760.37 419.011ZM1738.2 418.604L1737.48 429.627C1737.43 430.426 1737.33 431.214 1737.18 431.99L1717.35 431.125L1718.47 418.241L1738.2 418.604ZM1716.14 418.198L1715.02 431.023L1695.73 430.182L1697.06 417.847L1716.14 418.198ZM1694.73 417.804L1693.4 430.08L1674.74 429.267L1676.26 417.464L1694.73 417.804ZM1673.92 417.422L1672.42 429.165L1654.34 428.377L1656 417.092L1673.92 417.422ZM1653.67 417.049L1652.01 428.275L1634.48 427.51L1636.26 416.729L1653.67 417.049ZM1633.92 416.686L1632.14 427.408L1615.11 426.665L1616.99 416.374L1633.92 416.686ZM1614.63 416.331L1612.77 426.563L1596.2 425.84L1598.15 416.028L1614.63 416.331ZM1595.78 415.984L1593.84 425.737L1577.7 425.033L1579.71 415.689L1595.78 415.984ZM1577.34 415.645L1575.35 424.931L1559.61 424.244L1561.64 415.357L1577.34 415.645ZM1559.27 415.313L1557.25 424.141L1541.88 423.471L1543.93 415.031L1559.27 415.313ZM1541.55 414.987L1539.51 423.367L1524.5 422.712L1526.55 414.711L1541.55 414.987ZM1148.78 406.323L1112.63 404.746C1102.34 404.295 1094.32 395.561 1094.74 385.27L1120.5 -243.872C1120.7 -248.782 1122.79 -253.338 1126.37 -256.697L1126.37 -256.682C1130.06 -260.135 1134.86 -261.919 1139.92 -261.7L1691.67 -237.632L1690.6 -233.462L1166.51 -243.101C1161.19 -243.194 1156.12 -241.256 1152.24 -237.615C1148.18 -233.812 1145.9 -228.654 1145.81 -223.096L1136.21 387.148C1136.08 395.727 1141.3 403.184 1148.78 406.323ZM1693 -233.418L1694.06 -237.528L1700.25 -237.258L1699.28 -233.303L1693 -233.418ZM1701.66 -233.259L1702.61 -237.155L1708.72 -236.888L1707.87 -233.145L1701.66 -233.259ZM1710.24 -233.101L1711.08 -236.785L1717.12 -236.522L1716.36 -232.988L1710.24 -233.101ZM1718.74 -232.945L1719.48 -236.419L1725.44 -236.159L1724.78 -232.834L1718.74 -232.945ZM1727.13 -232.79L1727.78 -236.057L1733.65 -235.801L1733.08 -232.681L1727.13 -232.79ZM1735.44 -232.638L1736 -235.698L1741.75 -235.447L1741.27 -232.53L1735.44 -232.638ZM1743.63 -232.487L1744.1 -235.345L1749.64 -235.103C1749.61 -234.367 1749.54 -233.628 1749.43 -232.89L1749.35 -232.382L1743.63 -232.487ZM1751.7 -232.339L1751.73 -232.54C1751.85 -233.362 1751.93 -234.183 1751.96 -235.002L1756.93 -234.785C1757.04 -233.945 1757.1 -233.095 1757.11 -232.239L1751.7 -232.339ZM1759.42 -232.197C1759.42 -233.031 1759.37 -233.861 1759.27 -234.683L1763.45 -234.501C1763.72 -233.718 1763.94 -232.92 1764.11 -232.11L1759.42 -232.197ZM1766.48 -232.067C1766.34 -232.852 1766.15 -233.628 1765.92 -234.393L1769 -234.259C1769.45 -233.533 1769.86 -232.778 1770.21 -231.998L1766.48 -232.067ZM1772.75 -231.951C1772.48 -232.624 1772.19 -233.281 1771.86 -233.921C1772.46 -233.802 1773.05 -233.654 1773.64 -233.477C1774.15 -232.981 1774.62 -232.457 1775.07 -231.909L1772.75 -231.951ZM1731.44 442.424C1733.85 440.169 1735.61 437.374 1736.6 434.294L1717.14 433.445L1716.13 445.121C1716.06 445.922 1715.94 446.715 1715.79 447.496L1716.98 447.576C1722.29 447.93 1727.56 446.051 1731.44 442.424ZM1713.81 444.908L1714.82 433.344L1695.48 432.5L1694.01 446.029L1713.45 447.338C1713.62 446.541 1713.74 445.729 1713.81 444.908ZM1691.69 445.872L1693.15 432.399L1674.45 431.583L1672.78 444.598L1691.69 445.872ZM1670.46 444.442L1672.12 431.482L1654 430.691L1652.16 443.209L1670.46 444.442ZM1649.84 443.053L1651.67 430.59L1634.1 429.824L1632.11 441.859L1649.84 443.053ZM1629.78 441.702L1631.76 429.722L1614.69 428.977L1612.58 440.543L1629.78 441.702ZM1610.24 440.386L1612.34 428.875L1595.74 428.151L1593.53 439.26L1610.24 440.386ZM1591.19 439.102L1593.38 428.048L1577.21 427.342L1574.92 438.006L1591.19 439.102ZM1572.58 437.848L1574.85 427.24L1559.08 426.552L1556.73 436.781L1572.58 437.848ZM1554.39 436.623L1556.72 426.449L1541.32 425.777L1538.93 435.581L1554.39 436.623ZM1536.58 435.423L1538.95 425.674L1523.9 425.018L1521.49 434.407L1536.58 435.423ZM1519.13 434.247L1521.53 424.914L1121.86 407.484L1519.13 434.247ZM1068.93 403.919L1108.95 406.615C1099.16 404.48 1091.99 395.526 1092.41 385.187L1118.18 -243.955C1118.4 -249.481 1120.75 -254.598 1124.78 -258.38C1128.92 -262.263 1134.33 -264.27 1140.01 -264.018L1692.27 -239.934L1693.2 -243.568L1113.37 -282.636C1108.06 -282.99 1102.79 -281.118 1098.91 -277.477L1098.91 -277.484C1095.33 -274.132 1093.18 -269.588 1092.87 -264.687L1050.93 383.352C1050.24 393.978 1058.32 403.203 1068.93 403.919ZM1695.57 -243.408L1694.65 -239.83L1700.81 -239.561L1701.64 -242.999L1695.57 -243.408ZM1703.99 -242.841L1703.17 -239.458L1709.25 -239.193L1710 -242.436L1703.99 -242.841ZM1712.34 -242.278L1711.61 -239.09L1717.61 -238.829L1718.27 -241.879L1712.34 -242.278ZM1720.62 -241.72L1719.98 -238.725L1725.9 -238.467L1726.46 -241.326L1720.62 -241.72ZM1728.8 -241.169L1728.24 -238.365L1734.07 -238.111L1734.44 -240.129C1734.48 -240.346 1734.52 -240.564 1734.55 -240.782L1728.8 -241.169ZM1736.73 -239.7L1736.42 -238.008L1742.1 -237.761C1742.19 -238.597 1742.23 -239.433 1742.23 -240.264L1736.88 -240.625C1736.83 -240.317 1736.78 -240.009 1736.73 -239.7ZM1744.56 -240.107C1744.56 -239.293 1744.52 -238.477 1744.43 -237.659L1749.63 -237.432C1749.58 -238.223 1749.49 -239.007 1749.36 -239.784L1744.56 -240.107ZM1751.73 -239.624C1751.84 -238.866 1751.92 -238.1 1751.96 -237.331L1756.48 -237.134C1756.29 -237.884 1756.06 -238.624 1755.79 -239.35L1751.73 -239.624ZM1758.3 -239.181C1758.53 -238.473 1758.73 -237.755 1758.88 -237.029L1762.47 -236.872C1762.12 -237.594 1761.72 -238.298 1761.29 -238.98L1758.3 -239.181ZM1764.21 -238.577C1764.53 -237.982 1764.81 -237.376 1765.08 -236.759L1767.25 -236.664C1766.82 -237.177 1766.36 -237.669 1765.88 -238.137C1765.33 -238.307 1764.78 -238.454 1764.21 -238.577ZM1712.81 449.633C1711.77 452.679 1710 455.445 1707.61 457.679C1703.47 461.555 1697.88 463.482 1692.23 462.971L1692.04 462.954C1692.22 462.129 1692.36 461.292 1692.45 460.445L1693.76 448.349L1712.81 449.633ZM1691.44 448.193L1690.14 460.189C1690.05 461.053 1689.9 461.906 1689.7 462.744L1670.67 461.035L1672.48 446.915L1691.44 448.193ZM1670.16 446.759L1668.35 460.827L1649.81 459.162L1651.81 445.523L1670.16 446.759ZM1649.5 445.366L1647.49 458.954L1629.55 457.343L1631.73 444.169L1649.5 445.366ZM1629.4 444.012L1627.23 457.135L1609.83 455.573L1612.16 442.85L1629.4 444.012ZM1609.82 442.693L1607.51 455.364L1590.63 453.849L1593.07 441.564L1609.82 442.693ZM1590.73 441.406L1588.29 453.639L1571.89 452.166L1574.43 440.308L1590.73 441.406ZM1572.08 440.15L1569.55 451.956L1553.58 450.522L1556.21 439.079L1572.08 440.15ZM1553.86 438.921L1551.25 450.313L1535.69 448.915L1538.37 437.878L1553.86 438.921ZM1536.02 437.719L1533.35 448.706L1518.17 447.343L1520.9 436.7L1536.02 437.719ZM1518.54 436.541L1515.82 447.132L1025.25 403.085C1014.3 402.098 1006.17 392.389 1007.12 381.448L1065.23 -285.495C1065.66 -290.381 1067.86 -294.92 1071.44 -298.272L1071.44 -298.258C1075.57 -302.127 1081.17 -304.061 1086.81 -303.557L1694.59 -248.988L1693.78 -245.845L1113.51 -284.943C1107.56 -285.346 1101.66 -283.239 1097.31 -279.168C1093.3 -275.413 1090.9 -270.315 1090.54 -264.828L1048.61 383.211C1047.84 395.103 1056.9 405.434 1068.79 406.232L1518.54 436.541ZM1696.15 -245.685L1696.94 -248.776L1702.92 -248.24L1702.2 -245.278L1696.15 -245.685ZM1704.55 -245.119L1705.25 -248.03L1711.16 -247.5L1710.52 -244.717L1704.55 -245.119ZM1712.86 -244.559L1713.49 -247.291L1719.31 -246.768L1718.75 -244.162L1712.86 -244.559ZM1721.11 -244.004L1721.65 -246.558L1727.29 -246.052C1727.21 -245.28 1727.1 -244.508 1726.94 -243.737L1726.92 -243.612L1721.11 -244.004ZM1729.25 -243.455C1729.41 -244.25 1729.52 -245.047 1729.6 -245.844L1734.8 -245.378C1734.83 -244.618 1734.83 -243.852 1734.79 -243.082L1729.25 -243.455ZM1737.11 -242.925C1737.15 -243.677 1737.16 -244.426 1737.13 -245.168L1741.78 -244.751C1741.92 -244.037 1742.04 -243.315 1742.11 -242.588L1737.11 -242.925ZM1744.47 -242.43C1744.4 -243.136 1744.31 -243.838 1744.19 -244.534L1748.12 -244.181C1748.39 -243.511 1748.62 -242.828 1748.82 -242.136L1744.47 -242.43ZM1751.26 -241.972C1751.1 -242.639 1750.9 -243.3 1750.68 -243.952L1753.59 -243.691C1754 -243.057 1754.39 -242.405 1754.73 -241.738L1751.26 -241.972ZM1757.39 -241.559C1757.14 -242.123 1756.87 -242.679 1756.57 -243.225C1757.11 -243.098 1757.64 -242.95 1758.16 -242.781C1758.61 -242.349 1759.04 -241.895 1759.46 -241.42L1757.39 -241.559ZM1683.78 472.947C1686.14 470.736 1687.92 468.014 1689.02 465.017L1670.37 463.343L1668.78 475.769C1668.66 476.673 1668.49 477.567 1668.27 478.445C1673.98 478.851 1679.59 476.868 1683.78 472.947ZM1666.47 475.477L1668.06 463.135L1649.47 461.465L1647.3 476.134L1665.94 478.202C1666.18 477.31 1666.35 476.4 1666.47 475.477ZM1645 475.878L1647.15 461.258L1629.17 459.643L1626.82 473.86L1645 475.878ZM1624.51 473.604L1626.85 459.435L1609.41 457.869L1606.9 471.65L1624.51 473.604ZM1604.58 471.393L1607.09 457.66L1590.18 456.142L1587.52 469.499L1604.58 471.393ZM1585.19 469.241L1587.84 455.932L1571.4 454.455L1568.62 467.402L1585.19 469.241ZM1566.3 467.144L1569.06 454.246L1553.06 452.809L1550.18 465.356L1566.3 467.144ZM1547.86 465.098L1550.73 452.599L1535.13 451.199L1532.17 463.357L1547.86 465.098ZM1529.85 463.099L1532.79 450.989L1517.58 449.623L1514.56 461.402L1529.85 463.099ZM1512.22 461.143L1515.24 449.412L1025.03 405.393C1012.8 404.301 1003.73 393.46 1004.8 381.242L1062.91 -285.701C1063.38 -291.157 1065.85 -296.229 1069.84 -299.963C1074.46 -304.29 1080.71 -306.435 1087.01 -305.874L1695.17 -251.263L1695.87 -253.956L1060.26 -324.494C1054.28 -325.153 1048.34 -323.173 1043.95 -319.069C1040.38 -315.716 1038.12 -311.188 1037.6 -306.31L963.31 379.537C962.087 390.806 970.273 401.005 981.548 402.25L1512.22 461.143ZM1698.21 -253.696L1697.53 -251.052L1703.47 -250.518L1704.09 -253.044L1698.21 -253.696ZM1706.41 -252.786L1705.81 -250.308L1711.68 -249.781L1711.95 -250.955C1712.04 -251.351 1712.12 -251.748 1712.19 -252.144L1706.41 -252.786ZM1714.21 -250.441L1714.01 -249.572L1719.74 -249.057C1719.85 -249.799 1719.92 -250.541 1719.96 -251.282L1714.5 -251.888C1714.42 -251.406 1714.32 -250.923 1714.21 -250.441ZM1722.28 -251.025C1722.24 -250.3 1722.17 -249.574 1722.07 -248.848L1727.41 -248.369C1727.41 -249.07 1727.38 -249.77 1727.32 -250.465L1722.28 -251.025ZM1729.67 -250.204C1729.72 -249.526 1729.74 -248.844 1729.73 -248.16L1734.57 -247.726C1734.47 -248.393 1734.34 -249.053 1734.18 -249.704L1729.67 -250.204ZM1736.62 -249.433C1736.75 -248.8 1736.86 -248.159 1736.94 -247.513L1741.15 -247.135C1740.94 -247.768 1740.71 -248.393 1740.45 -249.009L1736.62 -249.433ZM1743.06 -248.718C1743.28 -248.123 1743.47 -247.52 1743.65 -246.911L1746.97 -246.612C1746.63 -247.224 1746.27 -247.823 1745.87 -248.407L1743.06 -248.718ZM1748.91 -247.886C1749.19 -247.387 1749.45 -246.881 1749.69 -246.368L1751.65 -246.192C1751.26 -246.627 1750.86 -247.045 1750.44 -247.443C1749.94 -247.61 1749.43 -247.758 1748.91 -247.886ZM1665.2 480.454C1664.06 483.386 1662.28 486.049 1659.97 488.217C1655.76 492.158 1650.21 494.187 1644.51 493.925C1644.76 493.001 1644.96 492.056 1645.1 491.093L1646.97 478.43L1665.2 480.454ZM1644.66 478.174L1642.81 490.752C1642.66 491.756 1642.45 492.738 1642.17 493.694L1623.93 491.305L1626.44 476.152L1644.66 478.174ZM1624.13 475.895L1621.63 491.004L1603.79 488.667L1606.48 473.937L1624.13 475.895ZM1604.17 473.68L1601.49 488.365L1584.22 486.103L1587.07 471.782L1604.17 473.68ZM1584.74 471.524L1581.9 485.799L1565.15 483.604L1568.13 469.681L1584.74 471.524ZM1565.81 469.423L1562.84 483.301L1546.56 481.169L1549.66 467.631L1565.81 469.423ZM1547.34 467.374L1544.25 480.866L1528.42 478.792L1531.62 465.629L1547.34 467.374ZM1529.29 465.371L1526.1 478.489L1510.69 476.47L1513.98 463.671L1529.29 465.371ZM1511.64 463.412L1508.37 476.165L937.855 401.423C932.238 400.682 927.234 397.809 923.763 393.309C920.299 388.816 918.784 383.245 919.504 377.619L1009.96 -327.125C1010.58 -331.996 1012.89 -336.528 1016.46 -339.865L1016.47 -339.88C1021.11 -344.233 1027.4 -346.252 1033.71 -345.43L1697.04 -258.521C1697.01 -258.41 1696.98 -258.298 1696.95 -258.187L1696.45 -256.225L1060.51 -326.799C1053.85 -327.54 1047.25 -325.341 1042.36 -320.767C1038.39 -317.045 1035.87 -311.999 1035.28 -306.566L961.005 379.274C959.649 391.818 968.75 403.163 981.299 404.556L1511.64 463.412ZM1698.79 -255.965L1699.21 -257.6C1699.26 -257.806 1699.31 -258.011 1699.36 -258.217L1705 -257.479C1704.9 -256.757 1704.78 -256.036 1704.63 -255.317L1698.79 -255.965ZM1706.94 -255.06C1707.09 -255.764 1707.21 -256.47 1707.3 -257.177L1712.59 -256.484C1712.58 -255.807 1712.55 -255.127 1712.49 -254.444L1706.94 -255.06ZM1714.8 -254.188C1714.86 -254.854 1714.9 -255.518 1714.91 -256.18L1719.81 -255.538C1719.89 -254.9 1719.94 -254.258 1719.97 -253.614L1714.8 -254.188ZM1722.31 -253.355C1722.29 -253.981 1722.25 -254.605 1722.19 -255.226L1726.58 -254.65C1726.75 -254.05 1726.88 -253.445 1727 -252.834L1722.31 -253.355ZM1729.4 -252.568C1729.31 -253.158 1729.19 -253.744 1729.06 -254.326L1732.76 -253.841C1733.02 -253.277 1733.25 -252.702 1733.46 -252.117L1729.4 -252.568ZM1736 -251.836C1735.82 -252.395 1735.63 -252.948 1735.42 -253.492L1738.15 -253.134C1738.53 -252.595 1738.88 -252.042 1739.21 -251.479L1736 -251.836ZM1742.01 -251.168C1741.78 -251.635 1741.54 -252.097 1741.27 -252.552C1741.76 -252.425 1742.23 -252.282 1742.7 -252.123C1743.09 -251.753 1743.48 -251.366 1743.84 -250.965L1742.01 -251.168ZM1636.15 503.487C1638.45 501.329 1640.22 498.766 1641.39 495.919L1623.55 493.582L1621.43 506.425C1621.26 507.436 1621.04 508.427 1620.75 509.394C1626.43 509.522 1631.93 507.445 1636.15 503.487ZM1619.14 506.04L1621.25 493.281L1603.38 490.94L1600.53 506.539L1617.97 509.154C1618.11 509.175 1618.25 509.194 1618.38 509.212C1618.71 508.184 1618.96 507.125 1619.14 506.04ZM1598.23 506.194L1601.07 490.637L1583.77 488.371L1580.75 503.572L1598.23 506.194ZM1578.44 503.225L1581.45 488.067L1564.66 485.868L1561.49 500.683L1578.44 503.225ZM1559.18 500.338L1562.35 485.565L1546.04 483.429L1542.73 497.871L1559.18 500.338ZM1540.43 497.525L1543.73 483.126L1527.87 481.048L1524.44 495.127L1540.43 497.525ZM1522.14 494.782L1525.55 480.745L1510.11 478.723L1506.59 492.449L1522.14 494.782ZM1504.27 492.102L1507.79 478.418L937.563 403.726C931.327 402.908 925.774 399.71 921.926 394.723C918.08 389.722 916.408 383.543 917.203 377.312L1007.66 -327.432C1008.35 -332.835 1010.91 -337.855 1014.88 -341.57C1020.04 -346.4 1027.01 -348.643 1034.01 -347.724L1697.49 -260.809C1697.59 -261.462 1697.67 -262.117 1697.72 -262.772L1007.15 -366.351C1000.51 -367.345 993.878 -365.286 988.972 -360.684L988.971 -360.67C985.342 -357.285 983.044 -352.869 982.319 -347.941L875.691 375.707C874.85 381.491 876.291 387.261 879.783 391.959C883.275 396.656 888.381 399.727 894.162 400.596L1504.27 492.102ZM1700.03 -262.425C1699.98 -261.785 1699.9 -261.145 1699.8 -260.506L1705.19 -259.801C1705.21 -260.419 1705.21 -261.036 1705.19 -261.652L1700.03 -262.425ZM1707.52 -261.302C1707.53 -260.702 1707.52 -260.1 1707.5 -259.498L1712.49 -258.844C1712.43 -259.43 1712.36 -260.013 1712.27 -260.59L1707.52 -261.302ZM1714.67 -260.23C1714.75 -259.669 1714.8 -259.104 1714.84 -258.536L1719.39 -257.94C1719.27 -258.493 1719.12 -259.042 1718.96 -259.586L1714.67 -260.23ZM1721.48 -259.209C1721.61 -258.682 1721.73 -258.152 1721.84 -257.619L1725.77 -257.104C1725.56 -257.631 1725.34 -258.152 1725.09 -258.666L1721.48 -259.209ZM1727.81 -258.259C1728.01 -257.766 1728.19 -257.267 1728.36 -256.764L1731.43 -256.362C1731.12 -256.876 1730.79 -257.377 1730.44 -257.864L1727.81 -258.259ZM1733.61 -257.225C1733.85 -256.819 1734.08 -256.406 1734.3 -255.987L1736.01 -255.762C1735.67 -256.122 1735.32 -256.47 1734.96 -256.806C1734.52 -256.959 1734.07 -257.099 1733.61 -257.225ZM1617.55 511.434C1616.35 514.185 1614.6 516.666 1612.35 518.766C1608.12 522.734 1602.66 524.863 1596.99 524.855C1597.31 523.844 1597.56 522.808 1597.76 521.749L1600.12 508.82L1617.55 511.434ZM1597.82 508.475L1595.47 521.335C1595.26 522.495 1594.96 523.627 1594.59 524.724C1594.13 524.674 1593.68 524.611 1593.22 524.534L1577.12 521.829L1580.29 505.847L1597.82 508.475ZM1577.98 505.5L1574.81 521.442L1557.66 518.559L1561 502.953L1577.98 505.5ZM1558.7 502.608L1555.36 518.174L1538.72 515.378L1542.21 500.136L1558.7 502.608ZM1539.91 499.791L1536.43 514.993L1520.27 512.278L1523.89 497.388L1539.91 499.791ZM1521.59 497.043L1517.98 511.893L1502.27 509.254L1506.01 494.706L1521.59 497.043ZM1503.69 494.359L1499.97 508.867L850.464 399.747C838.191 397.684 829.868 386.036 831.894 373.768L954.689 -368.778C955.501 -373.699 957.849 -378.104 961.487 -381.51L961.479 -381.503C966.651 -386.347 973.619 -388.452 980.605 -387.28L1697.73 -266.798C1697.78 -266.229 1697.8 -265.659 1697.8 -265.088L1007.51 -368.627C1000.15 -369.733 992.822 -367.444 987.393 -362.366C983.387 -358.604 980.836 -353.742 980.027 -348.282L873.414 375.367C872.461 381.76 874.073 388.152 877.926 393.35C881.788 398.541 887.434 401.943 893.827 402.896L1503.69 494.359ZM1700.14 -264.738C1700.14 -265.293 1700.12 -265.848 1700.1 -266.401L1704.74 -265.621C1704.84 -265.086 1704.93 -264.548 1705 -264.008L1700.14 -264.738ZM1707.37 -263.652C1707.32 -264.174 1707.25 -264.695 1707.17 -265.213L1711.31 -264.517C1711.47 -264.015 1711.62 -263.507 1711.76 -262.994L1707.37 -263.652ZM1714.24 -262.622C1714.13 -263.114 1714.01 -263.603 1713.87 -264.087L1717.4 -263.493C1717.64 -263.017 1717.86 -262.535 1718.07 -262.048L1714.24 -262.622ZM1720.72 -261.65C1720.55 -262.113 1720.37 -262.572 1720.18 -263.027L1722.74 -262.597C1722.96 -262.303 1723.16 -262.004 1723.37 -261.7C1723.48 -261.536 1723.58 -261.371 1723.69 -261.205L1720.72 -261.65ZM1726.63 -260.764C1726.42 -261.144 1726.21 -261.52 1725.98 -261.892C1726.4 -261.771 1726.81 -261.638 1727.22 -261.494C1727.56 -261.181 1727.89 -260.858 1728.21 -260.526L1726.63 -260.764ZM1588.54 534.058C1590.72 532.017 1592.46 529.618 1593.69 526.965C1593.4 526.927 1593.12 526.885 1592.83 526.837L1576.66 524.12L1574.09 537.067C1573.87 538.176 1573.58 539.262 1573.22 540.318C1578.87 540.177 1584.36 537.976 1588.54 534.058ZM1571.8 536.616L1574.36 523.733L1557.17 520.844L1553.66 537.203L1568.46 539.943C1569.23 540.085 1570 540.187 1570.78 540.25C1571.21 539.077 1571.55 537.863 1571.8 536.616ZM1551.37 536.78L1554.87 520.459L1538.2 517.657L1534.53 533.662L1551.37 536.78ZM1532.25 533.239L1535.91 517.272L1519.72 514.552L1515.91 530.214L1532.25 533.239ZM1513.62 529.791L1517.42 514.166L1501.69 511.523L1497.75 526.853L1513.62 529.791ZM1495.46 526.428L1499.38 511.136L850.086 402.043C836.558 399.761 827.368 386.913 829.606 373.383L952.401 -369.163C953.296 -374.601 955.882 -379.453 959.895 -383.208C965.598 -388.548 973.287 -390.868 980.998 -389.575L1697.45 -269.199C1697.37 -269.682 1697.27 -270.163 1697.17 -270.641L954.072 -408.207C946.851 -409.542 939.346 -407.34 933.987 -402.322C930.349 -398.916 927.949 -394.508 927.051 -389.593L788.087 371.864C786.969 377.954 788.306 384.137 791.831 389.251C795.35 394.358 800.653 397.799 806.763 398.927L1495.46 526.428ZM1699.64 -270.183C1699.73 -269.721 1699.8 -269.258 1699.87 -268.793L1704.14 -268.074C1704.01 -268.53 1703.86 -268.982 1703.7 -269.431L1699.64 -270.183ZM1706.3 -268.95C1706.43 -268.52 1706.55 -268.086 1706.66 -267.651L1710.32 -267.036C1710.13 -267.47 1709.92 -267.899 1709.7 -268.321L1706.3 -268.95ZM1712.53 -267.796C1712.71 -267.395 1712.88 -266.99 1713.04 -266.58L1715.9 -266.099C1715.62 -266.521 1715.33 -266.933 1715.03 -267.334L1712.53 -267.796ZM1718.35 -266.565C1718.54 -266.244 1718.73 -265.919 1718.92 -265.592L1720.4 -265.343C1720.12 -265.625 1719.83 -265.899 1719.54 -266.166C1719.15 -266.309 1718.75 -266.442 1718.35 -266.565ZM1569.82 542.486C1568.56 545.046 1566.85 547.366 1564.73 549.35C1560.54 553.282 1555.09 555.523 1549.45 555.776C1549.84 554.675 1550.16 553.542 1550.41 552.383L1553.17 539.469L1568.04 542.221C1568.63 542.331 1569.22 542.419 1569.82 542.486ZM1550.89 539.046L1548.13 551.905C1547.85 553.23 1547.46 554.518 1546.97 555.759C1545.87 555.695 1544.77 555.554 1543.68 555.335L1530.19 552.618L1534.01 535.922L1550.89 539.046ZM1531.73 535.499L1527.91 552.159L1511.38 548.829L1515.36 532.468L1531.73 535.499ZM1513.07 532.045L1509.1 548.37L1493.06 545.138L1497.17 529.101L1513.07 532.045ZM1494.88 528.676L1490.77 544.678L763.05 398.091C756.79 396.821 751.385 393.198 747.839 387.886C744.285 382.565 743.021 376.185 744.262 369.923L899.4 -410.424C900.378 -415.34 902.82 -419.745 906.466 -423.157L906.481 -423.156C912.106 -428.43 919.977 -430.663 927.533 -429.142L1696.05 -274.344C1696.2 -273.94 1696.35 -273.533 1696.48 -273.124L954.486 -410.493C946.55 -411.97 938.293 -409.541 932.402 -404.027C928.397 -400.278 925.761 -395.438 924.774 -390.028L785.818 371.422C784.587 378.136 786.059 384.931 789.938 390.552C793.824 396.181 799.652 399.968 806.365 401.199L1494.88 528.676ZM1699.06 -272.646C1698.95 -273.036 1698.83 -273.423 1698.7 -273.809L1702.04 -273.138C1702.24 -272.757 1702.44 -272.373 1702.63 -271.986L1699.06 -272.646ZM1705.39 -271.474C1705.24 -271.837 1705.08 -272.199 1704.92 -272.557L1707.3 -272.078C1707.57 -271.717 1707.84 -271.348 1708.1 -270.972L1705.39 -271.474ZM1711.21 -270.397C1711.04 -270.685 1710.87 -270.969 1710.7 -271.25C1711.06 -271.134 1711.43 -271.01 1711.78 -270.877C1712.05 -270.639 1712.31 -270.396 1712.56 -270.146L1711.21 -270.397ZM1540.94 564.651C1543 562.724 1544.69 560.482 1545.96 558.012C1545.05 557.927 1544.14 557.794 1543.24 557.612L1529.67 554.878L1526.73 567.707C1526.46 568.916 1526.1 570.096 1525.67 571.242C1531.31 570.89 1536.72 568.6 1540.94 564.651ZM1524.47 567.193L1527.39 554.42L1510.83 551.083L1506.69 568.076L1518.93 570.73C1520.34 571.036 1521.75 571.214 1523.17 571.271C1523.71 569.96 1524.15 568.597 1524.47 567.193ZM1504.43 567.584L1508.55 550.625L1492.48 547.387L1488.2 564.062L1504.43 567.584ZM1485.92 563.569L1490.19 546.927L762.607 400.374C755.738 398.993 749.815 395.018 745.924 389.178C742.024 383.345 740.633 376.344 742 369.474L897.138 -410.872C898.218 -416.268 900.897 -421.105 904.895 -424.846C911.061 -430.624 919.689 -433.075 927.982 -431.403L1694.89 -276.928C1694.72 -277.271 1694.54 -277.612 1694.35 -277.949L900.979 -450.078C893.089 -451.784 884.859 -449.513 878.968 -443.998L878.967 -443.984C875.32 -440.557 872.834 -436.155 871.776 -431.238L700.462 368.013C697.621 381.265 706.1 394.385 719.357 397.264L1485.92 563.569ZM1697.3 -277.309C1697.45 -276.993 1697.59 -276.676 1697.73 -276.356L1700.36 -275.828C1700.12 -276.16 1699.88 -276.485 1699.63 -276.804L1697.3 -277.309ZM1703.38 -275.437C1703.43 -275.354 1703.48 -275.271 1703.53 -275.188L1704.72 -274.949C1704.5 -275.16 1704.27 -275.368 1704.05 -275.572C1703.73 -275.691 1703.41 -275.804 1703.09 -275.91C1703.19 -275.753 1703.29 -275.596 1703.38 -275.437ZM1522.1 573.523C1520.82 575.909 1519.15 578.078 1517.15 579.952C1512.91 583.922 1507.53 586.254 1501.9 586.699C1502.36 585.511 1502.75 584.286 1503.05 583.032L1506.15 570.32L1518.45 572.99C1519.66 573.252 1520.88 573.429 1522.1 573.523ZM1503.88 569.828L1500.8 582.482C1500.44 583.962 1499.96 585.395 1499.35 586.771C1497.63 586.733 1495.89 586.517 1494.17 586.117L1483.19 583.571L1487.62 566.301L1503.88 569.828ZM1485.34 565.808L1480.92 583.045L675.664 396.437C669.075 394.91 663.482 390.909 659.887 385.179C656.292 379.448 655.153 372.663 656.658 366.08L844.139 -452.068C845.269 -456.98 847.792 -461.386 851.454 -464.826C857.612 -470.597 866.208 -472.912 874.432 -471.006L1691.92 -281.548C1692.14 -281.27 1692.36 -280.987 1692.57 -280.7L901.463 -452.329C892.823 -454.202 883.821 -451.714 877.381 -445.674C873.39 -441.925 870.662 -437.113 869.51 -431.723L698.196 367.528C695.092 382.031 704.363 396.403 718.871 399.544L1485.34 565.808ZM1695.84 -279.991L1696.93 -279.754C1696.74 -279.925 1696.56 -280.093 1696.37 -280.259C1696.07 -280.375 1695.77 -280.486 1695.46 -280.591C1695.59 -280.393 1695.71 -280.193 1695.84 -279.991ZM1493.37 595.246C1495.31 593.427 1496.94 591.337 1498.22 589.045C1496.7 588.952 1495.17 588.732 1493.66 588.381L1482.61 585.819L1479.39 598.363C1479.05 599.66 1478.63 600.924 1478.13 602.15C1483.75 601.613 1489.11 599.238 1493.37 595.246ZM1477.14 597.77L1480.34 585.294L675.138 398.67C667.957 397.004 661.838 392.643 657.921 386.38C653.996 380.123 652.744 372.719 654.39 365.529L841.871 -452.619C843.101 -457.981 845.865 -462.797 849.863 -466.538C856.592 -472.84 865.967 -475.364 874.954 -473.277L1689.07 -284.601C1688.93 -284.722 1688.8 -284.841 1688.67 -284.959C1687.59 -285.379 1686.48 -285.731 1685.34 -286.01L847.899 -491.934C839.328 -494.04 830.373 -491.701 823.941 -485.668L823.933 -485.662C820.264 -482.229 817.697 -477.812 816.501 -472.898L612.845 364.154C609.46 378.062 618.039 392.164 631.958 395.594L1469.42 601.504C1471.45 602.006 1473.51 602.257 1475.54 602.267C1476.2 600.828 1476.74 599.324 1477.14 597.77ZM1474.35 604.561C1472.52 604.477 1470.68 604.213 1468.86 603.765L631.394 397.847C616.233 394.119 606.887 378.745 610.578 363.589L814.234 -473.463C815.536 -478.82 818.351 -483.625 822.342 -487.374C829.352 -493.93 839.107 -496.484 848.434 -494.188L1682.01 -289.225C1680.64 -289.835 1679.22 -290.335 1677.74 -290.717L821.351 -512.848C812.453 -515.161 803.126 -512.785 796.421 -506.504L796.414 -506.512C792.737 -503.073 790.119 -498.652 788.857 -493.735L569.034 362.214C567.265 369.119 568.286 376.301 571.915 382.448C575.55 388.603 581.348 392.968 588.258 394.759L1444.65 616.905C1453.55 619.204 1462.87 616.834 1469.58 610.547C1471.46 608.784 1473.07 606.768 1474.35 604.561Z" fill="white" fill-opacity="0.04"></path></g><defs><linearGradient id="paint0_linear_655_6653" x1="720" y1="0" x2="720" y2="468" gradientUnits="userSpaceOnUse"><stop stop-color="#29044C"></stop><stop offset="1" stop-color="#5F0AB2"></stop></linearGradient></defs></svg>