<svg xmlns="http://www.w3.org/2000/svg" width="75" height="70" viewBox="0 0 75 70" fill="none"><path fill-rule="evenodd" clip-rule="evenodd" d="M68.7721 2.79759H5.86392C5.02101 2.79759 4.25558 3.14385 3.69968 3.69972C3.14382 4.25558 2.79754 5.02101 2.79754 5.86396V51.513C2.79754 52.3559 3.14382 53.1214 3.69968 53.6773C4.25553 54.2331 5.02097 54.5794 5.86392 54.5794H16.4525C17.2225 54.5794 17.8513 55.2036 17.8513 55.9781V66.1932L28.6495 59.9602C28.6723 59.9465 28.6951 59.9283 28.7224 59.9146L37.5432 54.8208C37.7665 54.6704 38.0353 54.5839 38.3269 54.5839H68.7803C69.6232 54.5839 70.3886 54.2376 70.9445 53.6817C71.5003 53.1259 71.8466 52.3604 71.8466 51.5175L71.8375 5.86375C71.8375 5.02084 71.4912 4.25541 70.9354 3.69951C70.3795 3.14361 69.6151 2.79759 68.7721 2.79759ZM5.86392 0.00466078C4.25103 0.00466078 2.78394 0.665317 1.72229 1.72696C0.66069 2.78856 0 4.25569 0 5.86858V51.5177C0 53.1305 0.660655 54.5976 1.72229 55.6593C2.7839 56.7209 4.25103 57.3816 5.86392 57.3816H15.0538V68.6081H15.0584C15.0584 68.845 15.1176 69.0819 15.2452 69.3006C15.6279 69.9658 16.4799 70.1982 17.1451 69.8155L30.0349 62.3706C30.0622 62.357 30.085 62.3433 30.1124 62.3296L38.6872 57.3816H68.7766C70.3895 57.3816 71.8566 56.7209 72.9182 55.6593C73.9799 54.5976 74.6405 53.1305 74.6405 51.5177L74.6314 5.86392C74.6314 4.25103 73.9708 2.78394 72.9091 1.72229C71.8475 0.660691 70.3804 0 68.7675 0H5.85932L5.86392 0.00466078ZM17.5233 19.4507L19.3139 23.8338C19.4096 24.0662 19.6146 24.2165 19.8698 24.2348L24.5946 24.5856C24.8634 24.6038 25.0821 24.7769 25.1641 25.0321C25.2461 25.2872 25.1732 25.5561 24.9637 25.7292L21.346 28.7864C21.1546 28.9504 21.0726 29.1919 21.1318 29.438L22.2618 34.0397C22.3256 34.304 22.2299 34.5637 22.0112 34.7232C21.7925 34.8826 21.5146 34.8917 21.2868 34.7505L17.2591 32.2583C17.045 32.1261 16.7898 32.1261 16.5711 32.2583L12.5434 34.7505C12.3156 34.8917 12.0377 34.8826 11.819 34.7232C11.6003 34.5637 11.5046 34.304 11.5684 34.0397L12.6984 29.438C12.7576 29.1919 12.6801 28.9504 12.4842 28.7864L8.86654 25.7292C8.66151 25.5561 8.58405 25.2872 8.66606 25.0321C8.74807 24.7769 8.96677 24.6038 9.23559 24.5856L13.9604 24.2348C14.211 24.2165 14.4206 24.0662 14.5163 23.8338L16.3069 19.4507C16.4117 19.2002 16.6395 19.0452 16.9083 19.0452C17.1771 19.0452 17.4095 19.2001 17.5097 19.4507H17.5233ZM38.8146 19.4507L40.6052 23.8338C40.7009 24.0662 40.906 24.2165 41.1611 24.2348L45.8859 24.5856C46.1547 24.6038 46.3734 24.7769 46.4555 25.0321C46.5375 25.2872 46.4646 25.5561 46.255 25.7292L42.6373 28.7864C42.4459 28.9504 42.3639 29.1919 42.4232 29.438L43.5531 34.0397C43.6169 34.304 43.5212 34.5637 43.3025 34.7232C43.0838 34.8826 42.8059 34.8917 42.5781 34.7505L38.5504 32.2583C38.3363 32.1261 38.0811 32.1261 37.8624 32.2583L33.8348 34.7505C33.607 34.8917 33.329 34.8826 33.1103 34.7232C32.8916 34.5637 32.7959 34.304 32.8597 34.0397L33.9897 29.438C34.0489 29.1919 33.9714 28.9504 33.7755 28.7864L30.1579 25.7292C29.9528 25.5561 29.8754 25.2872 29.9574 25.0321C30.0394 24.7769 30.2581 24.6038 30.5269 24.5856L35.2517 24.2348C35.5023 24.2165 35.7119 24.0662 35.8076 23.8338L37.5982 19.4507C37.6985 19.2002 37.9308 19.0452 38.1996 19.0452C38.4685 19.0452 38.7008 19.2001 38.8011 19.4507H38.8146ZM60.1059 19.4507L61.8966 23.8338C61.9923 24.0662 62.1973 24.2165 62.4524 24.2348L67.1772 24.5856C67.4461 24.6038 67.6648 24.7769 67.7468 25.0321C67.8288 25.2872 67.7559 25.5561 67.5463 25.7292L63.9286 28.7864C63.7373 28.9504 63.6553 29.1919 63.7145 29.438L64.8444 34.0397C64.9082 34.304 64.8125 34.5637 64.5938 34.7232C64.3751 34.8826 64.0972 34.8917 63.8694 34.7505L59.8417 32.2583C59.6276 32.1261 59.3724 32.1261 59.1537 32.2583L55.1261 34.7505C54.8983 34.8917 54.6203 34.8826 54.4016 34.7232C54.1829 34.5637 54.0873 34.304 54.1511 34.0397L55.281 29.438C55.3402 29.1919 55.2628 28.9504 55.0669 28.7864L51.4492 25.7292C51.2442 25.5561 51.1667 25.2872 51.2487 25.0321C51.3307 24.7769 51.5494 24.6038 51.8182 24.5856L56.5431 24.2348C56.7936 24.2165 57.0032 24.0662 57.0989 23.8338L58.8895 19.4507C58.9898 19.2002 59.2222 19.0452 59.491 19.0452C59.7598 19.0452 59.9922 19.2001 60.0924 19.4507H60.1059Z" fill="#5F0AB2"></path></svg>