<svg xmlns="http://www.w3.org/2000/svg" width="69" height="82" viewBox="0 0 69 82" fill="none"><path d="M67.8067 54.1787C67.8067 54.1009 67.8326 54.023 67.8326 53.9323C67.8326 53.8415 67.7937 53.7636 67.7808 53.6729C67.7678 53.608 67.7678 53.5302 67.7289 53.4653L67.7029 53.4394V53.4005L64.4085 47.0062C64.3696 46.9284 64.3047 46.8765 64.2529 46.8117C64.2139 46.7598 64.175 46.695 64.1232 46.6431C64.0583 46.5782 63.9805 46.5393 63.8897 46.4874C63.8248 46.4485 63.7859 46.4096 63.7211 46.3837L63.6562 46.3577H63.6433L55.1863 42.8558C54.5249 42.5834 53.7596 42.8947 53.4872 43.5562C53.2149 44.2176 53.5262 44.9829 54.1876 45.2553L59.8426 47.5899L58.9346 47.966L42.1254 54.905L25.3162 47.966L24.4082 47.5899L30.0632 45.2553C30.7246 44.9829 31.0359 44.2177 30.7636 43.5562C30.4912 42.8947 29.7259 42.5834 29.0645 42.8558L20.5951 46.3577L20.5302 46.3837C20.4654 46.4096 20.4005 46.4615 20.3487 46.5004C20.2708 46.5393 20.206 46.5782 20.1411 46.6431C20.0763 46.695 20.0374 46.7728 19.9855 46.8376C19.9466 46.8895 19.8947 46.9284 19.8558 46.9933L16.5613 53.3875V53.4264L16.5354 53.4524C16.5095 53.5172 16.5095 53.595 16.4835 53.6599C16.4576 53.7507 16.4316 53.8285 16.4316 53.9193C16.4316 53.9971 16.4446 54.0749 16.4576 54.1657C16.4576 54.2435 16.4706 54.3343 16.4965 54.4122C16.5224 54.49 16.5743 54.5548 16.6132 54.6197C16.6521 54.6975 16.691 54.7624 16.7429 54.8272C16.7948 54.892 16.8726 54.931 16.9375 54.9828C17.0023 55.0347 17.0412 55.0866 17.1061 55.1255C17.1191 55.1255 17.132 55.1255 17.158 55.1385L17.1839 55.1515L19.7131 56.2799V72C19.7131 72.5189 20.0244 72.9987 20.5172 73.1933L41.633 81.9092H41.6848C41.8275 81.9611 41.9832 82 42.1258 82C42.2685 82 42.4241 81.9611 42.5668 81.9092H42.6187L63.7344 73.1933C64.2143 72.9987 64.5386 72.5189 64.5386 72V56.2799L67.0678 55.1515L67.0937 55.1385C67.1067 55.1385 67.1196 55.1385 67.1456 55.1255C67.2104 55.0866 67.2623 55.0347 67.3142 54.9828C67.379 54.931 67.4569 54.892 67.5087 54.8272C67.5606 54.7624 67.5995 54.6845 67.6384 54.6197C67.6774 54.5548 67.7292 54.49 67.7552 54.4122C67.7811 54.3343 67.7811 54.2436 67.7941 54.1657L67.8067 54.1787ZM62.7483 54.2695H62.7224L46.2244 61.6106L43.9158 56.9932L60.1025 50.3136L60.1284 50.3007L62.6576 49.263L64.7847 53.3745L62.7743 54.2695L62.7483 54.2695ZM19.4934 53.3746L21.6205 49.2631L24.1497 50.3136H24.1626L40.3493 56.9932L38.0407 61.6106L19.4934 53.3746ZM22.3079 57.4602L38.1185 64.49C38.2871 64.5678 38.4687 64.6067 38.6503 64.6067C39.1302 64.6067 39.5841 64.3473 39.8175 63.8934L40.8422 61.8311V78.8221L22.3213 71.1697V57.4733L22.3079 57.4602ZM61.9445 71.1566L43.4236 78.809V61.818L44.4482 63.8802C44.6687 64.3342 45.1357 64.5936 45.6155 64.5936C45.7971 64.5936 45.9657 64.5547 46.1473 64.4769L61.9579 57.447V71.1434L61.9445 71.1566Z" fill="#5F0AB2"></path><path d="M42.1232 18.485C42.8365 18.485 43.4202 17.9014 43.4202 17.188V13.297C43.4202 12.5837 42.8365 12 42.1232 12C41.4098 12 40.8262 12.5837 40.8262 13.297V17.188C40.8262 17.9014 41.4098 18.485 42.1232 18.485Z" fill="#5F0AB2"></path><path d="M26.5349 24.1786C26.7943 24.438 27.1186 24.5548 27.4558 24.5548C27.7931 24.5548 28.1173 24.4251 28.3767 24.1786C28.8826 23.6728 28.8826 22.8556 28.3767 22.3499L25.6271 19.6002C25.1212 19.0944 24.3041 19.0944 23.7983 19.6002C23.2925 20.106 23.2925 20.9232 23.7983 21.429L26.548 24.1786H26.5349Z" fill="#5F0AB2"></path><path d="M17.4806 39.2372H21.3716C22.085 39.2372 22.6686 38.6536 22.6686 37.9402C22.6686 37.2269 22.085 36.6432 21.3716 36.6432H17.4806C16.7672 36.6432 16.1836 37.2269 16.1836 37.9402C16.1836 38.6536 16.7672 39.2372 17.4806 39.2372Z" fill="#5F0AB2"></path><path d="M56.7941 24.5679C57.1313 24.5679 57.4556 24.4382 57.715 24.1918L60.4646 21.4421C60.9705 20.9363 60.9705 20.1191 60.4646 19.6133C59.9588 19.1076 59.1416 19.1075 58.6359 19.6133L55.8862 22.363C55.3804 22.8688 55.3804 23.686 55.8862 24.1918C56.1456 24.4512 56.4699 24.5679 56.8071 24.5679H56.7941Z" fill="#5F0AB2"></path><path d="M62.8751 39.2372H66.7662C67.4795 39.2372 68.0632 38.6536 68.0632 37.9402C68.0632 37.2269 67.4795 36.6432 66.7662 36.6432H62.8751C62.1618 36.6432 61.5781 37.2269 61.5781 37.9402C61.5781 38.6536 62.1618 39.2372 62.8751 39.2372Z" fill="#5F0AB2"></path><path d="M28.1179 32.8945C27.9753 33.3484 28.079 33.8413 28.4162 34.1915L34.0323 40.08L32.9428 48.1474C32.8779 48.6143 33.0855 49.0942 33.4616 49.3666C33.8507 49.652 34.3565 49.6909 34.7846 49.4834L42.1127 45.9555L49.4408 49.4834C49.6223 49.5742 49.8169 49.6131 49.9985 49.6131C50.2708 49.6131 50.5302 49.5352 50.7637 49.3666C51.1528 49.0813 51.3474 48.6144 51.2825 48.1474L50.193 40.0799L55.8091 34.1915C56.1333 33.8413 56.25 33.3484 56.1074 32.8945C55.9647 32.4405 55.5756 32.1033 55.1087 32.0255L47.1062 30.5728L43.2411 23.4133C42.7872 22.5703 41.4124 22.5703 40.9584 23.4133L37.0933 30.5728L29.0908 32.0255C28.6239 32.1163 28.2348 32.4535 28.0921 32.8945L28.1179 32.8945ZM38.2085 33.0112C38.5976 32.9464 38.9348 32.6999 39.1164 32.3497L42.1255 26.7596L45.1345 32.3497C45.3161 32.6999 45.6533 32.9464 46.0425 33.0112L52.294 34.1526L47.9102 38.7439C47.6378 39.0293 47.5081 39.4184 47.56 39.8075L48.416 46.0979L42.6962 43.3483C42.5146 43.2575 42.32 43.2186 42.1385 43.2186C41.9569 43.2186 41.7494 43.2575 41.5807 43.3483L35.8609 46.0979L36.7169 39.8075C36.7688 39.4184 36.6391 39.0292 36.3667 38.7439L31.9829 34.1526L38.2344 33.0112H38.2085Z" fill="#5F0AB2"></path><path d="M34.2541 45.7659L35.9465 47.0807L41.3941 43.8875C42.4584 44.5137 44.9253 45.7659 46.2777 45.7659C47.6301 45.7659 49.0951 46.6424 49.6586 47.0807V42.1971V37.8769L52.8518 35.8108V33.1812L45.3385 31.4907L41.3941 23.9774L37.6374 31.4907H34.2541L31.625 33.1812V35.8108L34.2541 39.004V45.7659Z" fill="#5F0AB2"></path></svg>