<svg xmlns="http://www.w3.org/2000/svg" width="100" height="40" viewBox="0 0 100 40" fill="none"><path d="M17.3202 26.65C16.4702 26.42 15.5702 26.28 14.7702 25.93C13.7102 25.47 13.3302 24.19 13.8302 23.15C14.1402 22.5 14.5902 22.26 15.2902 22.39C15.9802 22.52 16.6502 22.7 17.3402 22.83C17.7802 22.91 18.3502 23.03 18.5402 22.5C18.7402 21.93 18.1602 21.76 17.7902 21.54C17.1702 21.16 16.4902 20.84 15.9202 20.4C14.5502 19.34 14.0802 17.9 14.4302 16.24C14.7502 14.71 15.7002 13.69 17.2402 13.32C18.4402 13.03 19.5702 13.23 20.5402 14.04C21.1602 14.56 21.4302 15.24 21.2902 16.04C21.1702 16.71 20.6302 17.07 19.9602 16.93C19.5502 16.84 19.1502 16.68 18.7502 16.57C18.5502 16.51 18.3302 16.43 18.1402 16.46C17.9402 16.5 17.6902 16.63 17.6002 16.79C17.5402 16.92 17.6502 17.2 17.7702 17.34C18.0002 17.61 18.2902 17.83 18.5602 18.06C19.2502 18.66 19.9602 19.23 20.6302 19.84C21.8402 20.95 22.1202 22.33 21.6202 23.85C21.1202 25.38 20.0002 26.2 18.4302 26.43C18.0802 26.48 17.7202 26.5 17.3602 26.53C17.3502 26.57 17.3302 26.61 17.3202 26.65Z" fill="#F45F30"></path><path d="M39.3998 23.64C39.1298 23.66 38.8598 23.7 38.5898 23.71C36.8198 23.79 35.3598 22.86 34.8798 21.16C34.5998 20.18 34.4898 19.12 34.4698 18.09C34.4598 16.94 36.0398 16.21 36.9798 16.9C37.2198 17.08 37.3898 17.45 37.4598 17.76C37.5998 18.42 37.6598 19.11 37.7598 19.78C37.7798 19.92 37.8298 20.06 37.8698 20.2C37.9898 20.6 38.1998 20.93 38.6698 20.93C39.1298 20.93 39.3898 20.63 39.4998 20.23C39.7098 19.45 39.8798 18.65 40.0598 17.86C40.1598 17.41 40.2998 17.01 40.8398 16.91C41.4098 16.81 41.9298 16.91 42.2898 17.38C42.5098 17.67 42.7198 18.03 42.7498 18.38C42.8398 19.26 42.8798 20.16 42.8398 21.04C42.7698 22.42 42.5298 23.78 41.9898 25.08C41.1298 27.15 39.4298 28.18 37.1998 28C36.3498 27.93 35.7598 27.4 35.6998 26.67C35.6398 25.91 35.9098 25.51 36.6598 25.32C37.2298 25.18 37.8098 25.1 38.3698 24.94C39.0798 24.73 39.4398 24.26 39.4098 23.64H39.3998Z" fill="#F45F30"></path><path d="M66.57 20.78C66.41 21.1 66.25 21.43 66.07 21.75C65.8 22.23 65.58 22.81 64.92 22.81C64.29 22.81 64.04 22.27 63.77 21.81C63.6 21.53 63.46 21.25 63.17 20.96C63.13 21.16 63.08 21.36 63.06 21.57C63.02 22.14 63.06 22.71 62.96 23.27C62.82 24.07 61.99 24.49 61.28 24.12C61.06 24 60.83 23.65 60.83 23.4C60.8 21.06 60.85 18.72 61.39 16.42C61.43 16.23 61.52 16.05 61.6 15.88C61.8 15.45 62.13 15.17 62.61 15.15C63.08 15.13 63.43 15.4 63.62 15.8C63.84 16.25 64.02 16.72 64.18 17.2C64.37 17.73 64.52 18.28 64.72 18.82C64.78 18.97 64.93 19.08 65.03 19.21C65.15 19.07 65.32 18.96 65.38 18.8C65.6 18.26 65.76 17.69 65.98 17.15C66.12 16.79 66.29 16.43 66.48 16.1C66.73 15.67 67.11 15.38 67.64 15.42C68.2 15.47 68.51 15.85 68.67 16.33C68.8 16.71 68.9 17.12 68.93 17.51C69.04 19.34 69.12 21.17 69.2 23.01C69.22 23.49 69.02 23.86 68.57 24.07C67.79 24.45 67.09 24.15 66.95 23.3C66.83 22.62 66.83 21.91 66.78 21.21C66.77 21.08 66.74 20.96 66.73 20.83C66.68 20.81 66.63 20.79 66.57 20.77V20.78Z" fill="#F45F30"></path><path d="M57.1301 19.36C56.9601 19.68 56.8001 20 56.6201 20.32C56.3501 20.8 56.1401 21.37 55.4601 21.37C54.8001 21.37 54.5501 20.82 54.2801 20.34C54.1201 20.07 53.9901 19.79 53.8401 19.51C53.7801 19.51 53.7201 19.53 53.6701 19.54C53.6401 19.91 53.6201 20.29 53.5901 20.66C53.5601 21.1 53.5901 21.54 53.4901 21.97C53.3601 22.6 52.8401 22.84 52.0201 22.74C51.5401 22.68 51.3201 22.4 51.3401 21.74C51.3901 19.7 51.3801 17.64 51.9101 15.64C52.0801 14.98 52.3101 14.3 53.1301 14.25C53.9401 14.2 54.2601 14.85 54.5201 15.48C54.8001 16.14 55.0301 16.82 55.3001 17.48C55.3501 17.61 55.5101 17.7 55.6101 17.82C55.7201 17.71 55.8701 17.62 55.9301 17.49C56.1801 16.93 56.4001 16.35 56.6401 15.78C57.0501 14.84 57.6101 14.42 58.2801 14.5C58.8701 14.58 59.3701 15.14 59.4501 16.11C59.6001 17.97 59.6701 19.84 59.7301 21.7C59.7501 22.34 59.2801 22.73 58.5801 22.78C58.0101 22.82 57.6201 22.53 57.5101 21.88C57.4201 21.37 57.4201 20.85 57.3801 20.33C57.3601 20.02 57.3201 19.72 57.2901 19.42C57.2401 19.4 57.1801 19.38 57.1301 19.37V19.36Z" fill="#F45F30"></path><path d="M72.7202 19.33C72.7202 19.67 72.7102 20.01 72.7202 20.35C72.7402 20.82 72.7202 21.37 73.3402 21.47C73.9202 21.56 74.0902 21.04 74.2502 20.62C74.4802 20.05 74.6602 19.45 74.8602 18.87C75.0202 18.42 75.1802 17.96 75.8002 17.98C76.3802 18 76.8802 18.3 76.9502 18.97C77.0402 19.88 77.0102 20.81 76.9002 21.72C76.7202 23.21 76.2702 24.64 75.5702 25.98C74.5802 27.85 73.0502 28.63 71.2102 28.21C70.4002 28.02 70.0002 27.47 70.0802 26.65C70.1402 25.96 70.5502 25.65 71.4202 25.6C71.8102 25.58 72.2102 25.57 72.5702 25.45C72.8802 25.35 73.1602 25.13 73.4102 24.91C73.5202 24.82 73.5102 24.6 73.5602 24.43C73.4302 24.41 73.2902 24.36 73.1602 24.36C71.7902 24.32 70.9902 23.51 70.4602 22.36C69.9502 21.26 70.0102 20.08 70.1102 18.9C70.1202 18.74 70.1602 18.58 70.1802 18.42C70.3202 17.5 70.7402 17.16 71.6702 17.2C72.4402 17.24 72.7102 17.51 72.7302 18.28C72.7402 18.62 72.7302 18.96 72.7302 19.3H72.7202V19.33Z" fill="#F45F30"></path><path d="M29.2 20.3C29.18 21.55 28.95 22.73 28.27 23.79C27.51 24.98 26.34 25.5 25.03 25.27C23.69 25.03 22.8 24.17 22.5 22.77C22.23 21.46 22.16 20.13 22.42 18.8C22.96 16.05 25.62 15.4 27.58 16.39C28.6 16.91 28.88 17.92 29.06 18.94C29.14 19.38 29.15 19.84 29.19 20.29L29.2 20.3ZM26.88 20.18C26.78 19.69 26.73 19.3 26.63 18.93C26.53 18.53 26.32 18.18 25.86 18.16C25.38 18.14 25.13 18.46 24.98 18.87C24.65 19.77 24.69 20.7 24.92 21.61C24.99 21.88 25.28 22.2 25.55 22.3C25.95 22.45 26.28 22.16 26.42 21.78C26.62 21.24 26.75 20.67 26.89 20.19L26.88 20.18Z" fill="#F45F30"></path><path d="M46.5499 19.28C46.5499 19.88 46.5499 20.48 46.5499 21.09C46.5499 21.28 46.5499 21.5 46.6499 21.66C46.7399 21.82 46.9299 22.01 47.0899 22.02C47.2499 22.02 47.5199 21.87 47.5699 21.72C47.7299 21.23 47.8399 20.72 47.8999 20.21C47.9799 19.52 47.9599 18.81 48.0299 18.12C48.0799 17.58 48.1599 17.03 48.7699 16.8C49.3499 16.58 49.9199 16.8 50.0999 17.44C50.6699 19.45 50.7699 21.46 49.6699 23.34C49.1399 24.24 48.3299 24.81 47.2599 24.89C45.4999 25.02 44.2099 23.98 43.9699 22.02C43.7899 20.55 43.8299 19.04 43.8399 17.55C43.8399 16.85 44.3199 16.39 44.9799 16.18C45.8299 15.91 46.4999 16.36 46.5599 17.24C46.5999 17.92 46.5599 18.61 46.5599 19.29L46.5499 19.28Z" fill="#F45F30"></path><path d="M77.5498 23.45C77.5898 21.96 78.3298 21.17 79.7598 21.17C80.1398 21.17 80.1198 20.91 80.1798 20.7C80.8398 18.39 81.4998 16.07 82.1598 13.76C82.2598 13.42 82.3698 13.08 82.4898 12.74C82.5398 12.6 82.5898 12.46 82.6498 12.33C83.0398 11.56 83.7998 11.47 84.8498 12.05C85.7198 12.53 85.9498 13.16 85.4798 13.88C83.9098 16.25 82.3298 18.62 80.7298 20.98C80.5298 21.28 80.5398 21.44 80.7498 21.76C81.0098 22.15 81.1898 22.68 81.1898 23.14C81.1898 24.09 79.9898 25.22 79.0298 25.29C78.4198 25.33 78.0198 25.11 77.8098 24.54C77.6798 24.19 77.6298 23.82 77.5498 23.46V23.45Z" fill="#F45F30"></path></svg>