<svg xmlns="http://www.w3.org/2000/svg" width="133" height="30" viewBox="0 0 133 30" fill="none"><path d="M76.675 11.8069H71.4709V12.3589C73.0987 12.3589 73.3604 12.7078 73.3604 14.7721V18.4936C73.3604 20.5577 73.0989 20.9357 71.4709 20.9357C70.2211 20.7614 69.3777 20.0925 68.2148 18.8133L66.8776 17.3599C68.68 17.0396 69.6392 15.9061 69.6392 14.6267C69.6392 13.028 68.2731 11.8069 65.7145 11.8069H60.5978V12.3589C62.2256 12.3589 62.4873 12.7078 62.4873 14.7721V18.4936C62.4873 20.5577 62.2256 20.9357 60.5978 20.9357V21.488H66.3831V20.9357C64.7553 20.9357 64.4936 20.5577 64.4936 18.4936V17.4473H64.9876L68.2148 21.488H76.675C80.8323 21.488 82.6349 19.2787 82.6349 16.6327C82.6349 13.9872 80.8325 11.8069 76.675 11.8069ZM64.4938 16.5453V12.6792H65.6856C66.9937 12.6792 67.5753 13.5803 67.5753 14.6269C67.5753 15.6447 66.9937 16.5456 65.6856 16.5456L64.4938 16.5453ZM76.7624 20.5868H76.5587C75.5124 20.5868 75.3669 20.3253 75.3669 18.9879V12.6792C75.3669 12.6792 76.6461 12.6792 76.7624 12.6792C79.7859 12.6792 80.338 14.8884 80.338 16.6039C80.338 18.3771 79.7857 20.5868 76.7624 20.5868Z" fill="#00749A"></path><path d="M44.405 17.6216L46.411 11.6903C46.9927 9.97515 46.731 9.4811 44.8704 9.4811V8.89941H50.3359V9.4811C48.5045 9.4811 48.0684 9.91712 47.3416 12.0395L44.027 21.9823H43.6492L40.6835 12.8824L37.6602 21.9823H37.2822L34.0553 12.0395C33.3575 9.91712 32.8924 9.4811 31.2061 9.4811V8.89941H37.6602V9.4811C35.9448 9.4811 35.4794 9.88799 36.0902 11.6903L38.038 17.6216L40.9743 8.89941H41.5269L44.405 17.6216Z" fill="#00749A"></path><path d="M54.2893 21.8657C51.0915 21.8657 48.4748 19.5111 48.4748 16.6325C48.4748 13.7835 51.0917 11.4284 54.2893 11.4284C57.4873 11.4284 60.1037 13.7835 60.1037 16.6325C60.1037 19.5111 57.4873 21.8657 54.2893 21.8657ZM54.2893 12.3303C51.6149 12.3303 50.6843 14.743 50.6843 16.6327C50.6843 18.5519 51.6149 20.9357 54.2893 20.9357C56.9933 20.9357 57.9236 18.5519 57.9236 16.6327C57.9236 14.743 56.9933 12.3303 54.2893 12.3303Z" fill="#00749A"></path><path d="M89.8153 20.9066V21.488H83.1577V20.9066C85.1057 20.9066 85.4546 20.4125 85.4546 17.5048V12.8535C85.4546 9.94577 85.1057 9.48086 83.1577 9.48086V8.89917H89.1756C92.17 8.89917 93.8276 10.4401 93.8276 12.5046C93.8276 14.5107 92.17 16.0804 89.1756 16.0804H87.5184V17.5045C87.5184 20.4125 87.8673 20.9066 89.8153 20.9066ZM89.1756 9.94577H87.5184V15.0047H89.1756C90.8039 15.0047 91.5596 13.8709 91.5596 12.5046C91.5596 11.1091 90.8039 9.94577 89.1756 9.94577Z" fill="#464342"></path><path d="M113.8 18.7553L113.655 19.2785C113.393 20.238 113.073 20.5868 111.009 20.5868H110.602C109.09 20.5868 108.828 20.238 108.828 18.1739V16.8367C111.096 16.8367 111.271 17.0399 111.271 18.5519H111.823V14.2198H111.271C111.271 15.7316 111.096 15.935 108.828 15.935V12.6792H110.427C112.492 12.6792 112.811 13.028 113.073 13.9875L113.219 14.5395H113.683L113.48 11.8069H104.933V12.3589C106.56 12.3589 106.822 12.7078 106.822 14.7721V18.4936C106.822 20.3819 106.6 20.8576 105.316 20.9254C104.097 20.7391 103.259 20.0737 102.113 18.8133L100.776 17.3599C102.578 17.0396 103.538 15.9061 103.538 14.6267C103.538 13.028 102.171 11.8069 99.613 11.8069H94.4962V12.3589C96.124 12.3589 96.3858 12.7078 96.3858 14.7721V18.4936C96.3858 20.5577 96.1243 20.9357 94.4962 20.9357V21.488H100.282V20.9357C98.654 20.9357 98.392 20.5577 98.392 18.4936V17.4473H98.8863L102.113 21.488H114.062L114.236 18.7556L113.8 18.7553ZM98.3918 16.5453V12.6792H99.5836C100.892 12.6792 101.474 13.5803 101.474 14.6269C101.474 15.6447 100.892 16.5456 99.5836 16.5456L98.3918 16.5453Z" fill="#464342"></path><path d="M119.702 21.8658C118.539 21.8658 117.521 21.2554 117.085 20.8772C116.94 21.0228 116.678 21.4589 116.62 21.8658H116.067V17.8542H116.649C116.882 19.7728 118.219 20.9066 119.934 20.9066C120.864 20.9066 121.62 20.3834 121.62 19.5113C121.62 18.7556 120.952 18.1739 119.76 17.6216L118.103 16.8367C116.94 16.2839 116.067 15.3244 116.067 14.0455C116.067 12.65 117.376 11.4583 119.178 11.4583C120.138 11.4583 120.952 11.8071 121.446 12.214C121.591 12.0977 121.737 11.7777 121.824 11.4286H122.376V14.8595H121.766C121.562 13.4929 120.806 12.3592 119.266 12.3592C118.452 12.3592 117.696 12.8243 117.696 13.5515C117.696 14.3072 118.306 14.7141 119.702 15.3538L121.3 16.1387C122.696 16.8073 123.248 17.8835 123.248 18.7556C123.248 20.5868 121.649 21.8658 119.702 21.8658Z" fill="#464342"></path><path d="M128.656 21.8658C127.493 21.8658 126.475 21.2554 126.039 20.8772C125.894 21.0228 125.632 21.4589 125.574 21.8658H125.022V17.8542H125.603C125.836 19.7728 127.173 20.9066 128.888 20.9066C129.819 20.9066 130.575 20.3834 130.575 19.5113C130.575 18.7556 129.906 18.1739 128.714 17.6216L127.057 16.8367C125.894 16.2839 125.021 15.3244 125.021 14.0455C125.021 12.65 126.33 11.4583 128.132 11.4583C129.092 11.4583 129.906 11.8071 130.4 12.214C130.545 12.0977 130.691 11.7777 130.778 11.4286H131.33V14.8595H130.72C130.516 13.4929 129.76 12.3592 128.22 12.3592C127.406 12.3592 126.65 12.8243 126.65 13.5515C126.65 14.3072 127.26 14.7141 128.656 15.3538L130.254 16.1387C131.65 16.8073 132.202 17.8835 132.202 18.7556C132.202 20.5868 130.603 21.8658 128.656 21.8658Z" fill="#464342"></path><path d="M2.13188 14.9976C2.13188 20.0903 5.09149 24.4914 9.38317 26.577L3.24581 9.76141C2.53192 11.3615 2.13188 13.1323 2.13188 14.9976Z" fill="#464342"></path><path d="M23.6838 14.3483C23.6838 12.7582 23.1126 11.657 22.6227 10.7999C21.9705 9.74011 21.3592 8.84261 21.3592 7.78279C21.3592 6.60007 22.2562 5.49912 23.5197 5.49912C23.5768 5.49912 23.6309 5.50622 23.6865 5.5094C21.3974 3.41228 18.3477 2.13188 14.9981 2.13188C10.5032 2.13188 6.54866 4.43807 4.24809 7.93115C4.54996 7.94021 4.83444 7.94657 5.07607 7.94657C6.42184 7.94657 8.505 7.78328 8.505 7.78328C9.19857 7.74239 9.28034 8.76108 8.58751 8.8431C8.58751 8.8431 7.89051 8.92511 7.11492 8.96575L11.8003 22.9021L14.6159 14.4575L12.6113 8.96526C11.9185 8.92462 11.2622 8.84261 11.2622 8.84261C10.5688 8.80197 10.6501 7.7419 11.3434 7.78279C11.3434 7.78279 13.4682 7.94608 14.7325 7.94608C16.078 7.94608 18.1614 7.78279 18.1614 7.78279C18.8554 7.7419 18.937 8.76059 18.2439 8.84261C18.2439 8.84261 17.5454 8.92462 16.7713 8.96526L21.4209 22.796L22.7042 18.5076C23.2605 16.728 23.6838 15.4498 23.6838 14.3483Z" fill="#464342"></path><path d="M15.2238 16.123L11.3635 27.3404C12.5161 27.6792 13.7351 27.8645 14.9981 27.8645C16.4964 27.8645 17.9332 27.6055 19.2707 27.1352C19.2361 27.0801 19.2048 27.0216 19.1791 26.958L15.2238 16.123Z" fill="#464342"></path><path d="M26.2877 8.82474C26.343 9.23456 26.3743 9.6745 26.3743 10.1477C26.3743 11.4534 26.1305 12.921 25.396 14.7562L21.4659 26.119C25.291 23.8884 27.8638 19.7444 27.8638 14.9978C27.864 12.7609 27.2926 10.6574 26.2877 8.82474Z" fill="#464342"></path><path d="M14.9981 0C6.72835 0 0 6.72786 0 14.9976C0 23.2683 6.72835 29.9959 14.9981 29.9959C23.2676 29.9959 29.9969 23.2683 29.9969 14.9976C29.9967 6.72786 23.2676 0 14.9981 0ZM14.9981 29.3085C7.10758 29.3085 0.687696 22.8886 0.687696 14.9976C0.687696 7.10709 7.10733 0.687696 14.9981 0.687696C22.8883 0.687696 29.3077 7.10709 29.3077 14.9976C29.3077 22.8886 22.8883 29.3085 14.9981 29.3085Z" fill="#464342"></path></svg>