<svg xmlns="http://www.w3.org/2000/svg" width="100" height="40" viewBox="0 0 100 40" fill="none"><path d="M28 20.53C28 20.53 28.02 20.47 28.02 20.43C28.04 19.03 28.35 17.7 28.99 16.46C30.34 13.86 32.44 12.19 35.31 11.6C38.42 10.96 41.18 11.76 43.51 13.92C45.03 15.33 45.96 17.09 46.26 19.15C46.69 22.05 45.92 24.62 43.96 26.79C42.54 28.36 40.76 29.33 38.67 29.64C35.72 30.09 33.12 29.3 30.93 27.28C29.43 25.91 28.52 24.19 28.16 22.19C28.07 21.71 28.02 21.22 28.02 20.73C28.02 20.69 28.01 20.66 28 20.62C28 20.58 28 20.55 28 20.51V20.53ZM37.49 22.11C37.44 21.82 37.4 21.5 37.32 21.18C37.03 20.07 36.73 18.96 36.43 17.85C36.21 17.03 35.99 16.2 35.76 15.38C35.68 15.07 35.5 14.94 35.18 14.94C34.8 14.94 34.42 14.94 34.03 14.94C33.7 14.94 33.56 15.14 33.66 15.45C34.37 17.69 35.09 19.92 35.8 22.16C35.88 22.41 35.96 22.66 36.04 22.91C36.13 23.16 36.26 23.25 36.52 23.25C36.65 23.25 36.78 23.25 36.91 23.25C36.98 23.25 37.06 23.25 37.14 23.25C37.14 23.3 37.14 23.33 37.12 23.36C37 23.78 36.88 24.21 36.74 24.63C36.54 25.23 36.17 25.7 35.6 25.99C35.5 26.04 35.4 26.09 35.3 26.14C35.08 26.26 34.98 26.51 35.08 26.7C35.21 26.97 35.35 27.24 35.49 27.51C35.6 27.71 35.82 27.78 36.03 27.69C36.18 27.63 36.32 27.56 36.47 27.49C36.94 27.27 37.34 26.97 37.67 26.57C38.11 26.04 38.37 25.42 38.55 24.77C39.25 22.18 39.95 19.59 40.65 16.99C40.79 16.46 40.94 15.94 41.07 15.41C41.14 15.13 40.98 14.94 40.7 14.94C40.34 14.94 39.97 14.94 39.61 14.94C39.34 14.94 39.17 15.08 39.1 15.34C38.69 16.99 38.29 18.65 37.89 20.3C37.74 20.91 37.6 21.53 37.46 22.1L37.49 22.11Z" fill="#DE1A1A"></path><path d="M69.4498 11C69.7398 11.09 69.7798 11.16 69.7798 11.47C69.7798 12.36 69.7798 13.25 69.7798 14.14V14.29C69.8298 14.29 69.8698 14.29 69.9098 14.29C70.2898 14.29 70.6698 14.29 71.0598 14.29C71.3398 14.29 71.5498 14.48 71.5598 14.76C71.5598 14.98 71.5698 15.21 71.5598 15.43C71.5498 15.72 71.3398 15.91 71.0498 15.91C70.6298 15.91 70.2198 15.91 69.7898 15.91V16.04C69.7898 18.3 69.7898 20.55 69.7898 22.81C69.7898 22.9 69.7898 22.99 69.8098 23.08C69.8698 23.46 70.0998 23.67 70.4898 23.67C70.7198 23.67 70.9598 23.64 71.1898 23.6C71.5398 23.54 71.7298 23.66 71.7998 24.01C71.8398 24.25 71.8798 24.48 71.9098 24.72C71.9498 24.99 71.8398 25.17 71.5698 25.25C71.0998 25.4 70.6098 25.44 70.1198 25.43C69.8198 25.43 69.5098 25.4 69.2198 25.33C68.3798 25.14 67.8698 24.57 67.7598 23.71C67.7298 23.49 67.7198 23.26 67.7198 23.04C67.7198 20.71 67.7198 18.38 67.7198 16.06C67.7198 16.02 67.7198 15.97 67.7198 15.91C67.6698 15.91 67.6298 15.91 67.5898 15.91C67.2298 15.91 66.8698 15.91 66.5098 15.91C66.1998 15.91 66.0098 15.72 66.0098 15.4C66.0098 15.19 66.0098 14.98 66.0098 14.77C66.0098 14.48 66.2098 14.28 66.4998 14.28C66.8998 14.28 67.2998 14.28 67.7198 14.28C67.7198 14.23 67.7198 14.19 67.7198 14.15C67.7198 13.43 67.7198 12.72 67.7198 12C67.7198 11.9 67.7298 11.81 67.7598 11.71C67.8098 11.53 67.9298 11.41 68.1098 11.35C68.5298 11.23 68.9598 11.11 69.3798 11C69.3998 11 69.4198 11 69.4498 11Z" fill="black"></path><path d="M59.7702 20.31C59.8102 21.08 59.9002 21.83 60.2802 22.5C60.6502 23.14 61.2302 23.47 61.9502 23.57C62.8002 23.69 63.6202 23.57 64.4302 23.32C64.5602 23.28 64.6802 23.24 64.8102 23.21C65.0102 23.16 65.2002 23.23 65.2802 23.42C65.4102 23.74 65.5202 24.06 65.6202 24.39C65.6802 24.59 65.5502 24.79 65.3202 24.89C65.0302 25.01 64.7302 25.12 64.4202 25.21C63.9202 25.35 63.4002 25.4 62.8802 25.42C62.2302 25.44 61.5802 25.42 60.9502 25.25C59.4302 24.85 58.4802 23.87 57.9802 22.41C57.7202 21.66 57.6202 20.88 57.6002 20.09C57.5702 19.16 57.6502 18.25 57.9102 17.36C58.1702 16.5 58.5702 15.73 59.2402 15.12C59.9202 14.5 60.7202 14.19 61.6402 14.16C62.2702 14.14 62.8802 14.22 63.4602 14.47C64.3202 14.83 64.9002 15.47 65.2902 16.3C65.6002 16.95 65.7702 17.65 65.8502 18.36C65.9002 18.83 65.9202 19.3 65.9402 19.77C65.9502 20.11 65.7302 20.32 65.3902 20.32C63.5702 20.32 61.7502 20.32 59.9302 20.32C59.8902 20.32 59.8402 20.32 59.7802 20.32L59.7702 20.31ZM59.7602 18.75H63.8102C63.7702 18.01 63.6802 17.29 63.2902 16.64C63.1102 16.34 62.8702 16.1 62.5402 15.95C61.8302 15.64 61.0102 15.86 60.5002 16.51C60.1902 16.91 60.0202 17.36 59.9102 17.85C59.8402 18.14 59.8002 18.44 59.7502 18.75H59.7602Z" fill="black"></path><path d="M50.3101 15.7C50.6201 15.35 50.9401 15.04 51.3101 14.78C51.9001 14.37 52.5501 14.16 53.2701 14.14C53.8201 14.12 54.3501 14.2 54.8401 14.46C55.6301 14.88 56.0501 15.56 56.1901 16.42C56.2301 16.64 56.2401 16.87 56.2401 17.09C56.2401 19.65 56.2401 22.2 56.2401 24.76C56.2401 25.03 56.1101 25.22 55.8801 25.29C55.8301 25.3 55.7801 25.31 55.7201 25.31C55.3901 25.31 55.0501 25.31 54.7201 25.31C54.3701 25.31 54.1501 25.1 54.1501 24.74C54.1501 22.29 54.1501 19.84 54.1501 17.39C54.1501 17.18 54.1201 16.96 54.0801 16.76C53.9701 16.28 53.6501 16.01 53.1601 15.95C52.0201 15.82 51.0001 16.46 50.5901 17.58C50.4701 17.91 50.4101 18.25 50.4101 18.6C50.4101 20.65 50.4101 22.7 50.4101 24.75C50.4101 25.05 50.1901 25.33 49.8501 25.31C49.5201 25.29 49.1901 25.31 48.8601 25.31C48.5401 25.31 48.3301 25.09 48.3301 24.77C48.3301 21.45 48.3301 18.12 48.3301 14.8C48.3301 14.49 48.5301 14.29 48.8401 14.28C49.0801 14.28 49.3301 14.28 49.5701 14.28C49.8601 14.28 50.0301 14.42 50.0901 14.7C50.1601 15 50.2201 15.31 50.2901 15.61C50.2901 15.63 50.3001 15.66 50.3201 15.7H50.3101Z" fill="black"></path><path d="M56.2698 27.02C56.0998 27.76 55.9098 28.54 55.7298 29.32C55.6998 29.46 55.6598 29.49 55.5098 29.49C55.3298 29.49 55.1398 29.49 54.9598 29.49C54.8498 29.49 54.7798 29.45 54.7498 29.33C54.5298 28.43 54.3098 27.53 54.0998 26.64C54.0698 26.5 54.0998 26.45 54.2498 26.45C54.3698 26.45 54.4998 26.45 54.6198 26.45C54.7198 26.45 54.7798 26.49 54.7998 26.59C54.9398 27.31 55.0798 28.04 55.2198 28.76C55.2298 28.83 55.2398 28.9 55.2398 28.95C55.4098 28.21 55.5898 27.45 55.7698 26.7C55.8298 26.46 55.8298 26.45 56.0698 26.45C56.2198 26.45 56.3798 26.45 56.5298 26.45C56.6298 26.45 56.6898 26.5 56.7098 26.6C56.8698 27.31 57.0298 28.02 57.1898 28.72C57.2098 28.81 57.2198 28.91 57.2498 29.01C57.2698 28.86 57.2898 28.7 57.3198 28.55C57.4498 27.9 57.5898 27.25 57.7198 26.6C57.7398 26.49 57.7998 26.44 57.9198 26.45C58.0198 26.45 58.1298 26.45 58.2298 26.45C58.3598 26.45 58.3998 26.5 58.3698 26.63C58.3298 26.83 58.2798 27.02 58.2298 27.22C58.0698 27.92 57.8998 28.61 57.7398 29.31C57.7098 29.45 57.6698 29.49 57.5098 29.49C57.3198 29.49 57.1298 29.49 56.9398 29.49C56.8298 29.49 56.7698 29.45 56.7398 29.34C56.5998 28.69 56.4498 28.05 56.3098 27.4C56.2798 27.26 56.2698 27.12 56.2498 27.02H56.2698Z" fill="black"></path><path d="M68.83 26.81C69.06 26.57 69.31 26.4 69.64 26.4C69.97 26.4 70.23 26.52 70.38 26.83C70.48 26.74 70.58 26.66 70.67 26.58C70.94 26.37 71.24 26.35 71.56 26.45C71.83 26.53 72.02 26.79 72.03 27.09C72.03 27.84 72.03 28.59 72.03 29.34C72.03 29.43 71.98 29.48 71.89 29.49C71.77 29.49 71.64 29.49 71.52 29.49C71.41 29.49 71.38 29.4 71.38 29.3C71.38 28.68 71.38 28.06 71.38 27.43C71.38 27.4 71.38 27.37 71.38 27.34C71.38 27.05 71.26 26.9 70.89 26.99C70.63 27.05 70.45 27.32 70.45 27.62C70.45 28.02 70.45 28.42 70.45 28.82C70.45 28.98 70.45 29.14 70.45 29.3C70.45 29.44 70.4 29.49 70.26 29.49C70.17 29.49 70.09 29.49 70 29.49C69.85 29.49 69.81 29.45 69.81 29.3C69.81 28.68 69.81 28.06 69.81 27.43C69.81 27.39 69.81 27.35 69.81 27.32C69.79 27.02 69.62 26.9 69.33 26.98C69.06 27.06 68.87 27.33 68.87 27.65C68.87 28.19 68.87 28.73 68.87 29.27C68.87 29.45 68.83 29.49 68.65 29.49C68.57 29.49 68.49 29.49 68.41 29.49C68.26 29.49 68.22 29.44 68.21 29.29C68.21 28.8 68.21 28.3 68.21 27.81C68.21 27.43 68.21 27.05 68.21 26.66C68.21 26.5 68.25 26.45 68.42 26.45C68.75 26.45 68.73 26.42 68.81 26.74C68.81 26.75 68.81 26.77 68.83 26.81Z" fill="#DE1A1A"></path><path d="M67.5198 27.97C67.4898 28.17 67.4798 28.38 67.4298 28.58C67.2598 29.24 66.8198 29.56 66.1498 29.52C65.6498 29.49 65.3198 29.22 65.1498 28.76C64.9598 28.23 64.9598 27.69 65.1498 27.17C65.4498 26.35 66.5398 26.13 67.1198 26.76C67.3698 27.03 67.4598 27.37 67.4898 27.72C67.4898 27.81 67.4898 27.89 67.4898 27.98C67.4898 27.98 67.5098 27.98 67.5198 27.98V27.97ZM65.6498 27.97C65.6898 28.17 65.7098 28.38 65.7698 28.59C65.8398 28.82 66.0398 28.96 66.2498 28.96C66.4698 28.96 66.6498 28.84 66.7298 28.6C66.7898 28.42 66.8198 28.24 66.8298 28.05C66.8498 27.79 66.8298 27.52 66.7298 27.28C66.6398 27.08 66.4998 26.94 66.2698 26.93C66.0298 26.92 65.8098 27.09 65.7398 27.37C65.6898 27.56 65.6798 27.75 65.6498 27.97Z" fill="#DE1A1A"></path><path d="M48.9699 26.79C49.0299 26.73 49.0899 26.68 49.1499 26.63C49.3999 26.42 49.6999 26.36 50.0199 26.42C50.3599 26.49 50.5799 26.76 50.5899 27.13C50.5899 27.86 50.5899 28.59 50.5899 29.32C50.5899 29.43 50.5399 29.48 50.4299 29.49C50.3299 29.49 50.2399 29.49 50.1399 29.49C49.9899 29.49 49.9499 29.44 49.9499 29.29C49.9499 28.68 49.9499 28.07 49.9499 27.46C49.9499 27.42 49.9499 27.38 49.9499 27.34C49.9499 27.06 49.8399 26.9 49.4599 27C49.1899 27.07 49.0199 27.34 49.0199 27.67C49.0199 28.21 49.0199 28.74 49.0199 29.28C49.0199 29.46 48.9799 29.5 48.7999 29.5C48.7199 29.5 48.6399 29.5 48.5499 29.5C48.4099 29.5 48.3599 29.45 48.3599 29.31C48.3599 28.6 48.3599 27.89 48.3599 27.19C48.3599 27.01 48.3599 26.82 48.3599 26.64C48.3599 26.52 48.4099 26.47 48.5299 26.47C48.7432 26.4633 48.8932 26.5767 48.9799 26.81L48.9699 26.79Z" fill="black"></path><path d="M52.0198 28.1501C51.9898 28.5701 52.1798 28.8701 52.5198 28.9401C52.7198 28.9801 52.9098 28.9701 53.1098 28.9101C53.1798 28.8901 53.2498 28.8601 53.3198 28.8401C53.3998 28.8101 53.4598 28.8401 53.4898 28.9101C53.5298 29.0001 53.5598 29.0901 53.5898 29.1801C53.6198 29.2701 53.5698 29.3301 53.4998 29.3601C53.0598 29.5501 52.5998 29.5901 52.1398 29.4401C51.7698 29.3201 51.5398 29.0401 51.4398 28.6801C51.2998 28.1901 51.2898 27.6901 51.4598 27.2001C51.6798 26.5501 52.2798 26.2501 52.9298 26.4501C53.1898 26.5301 53.3698 26.7001 53.4998 26.9401C53.6698 27.2701 53.6998 27.6301 53.6998 27.9901C53.6998 28.1001 53.6398 28.1401 53.5098 28.1501C53.0598 28.1501 52.6098 28.1501 52.1598 28.1501C52.1198 28.1501 52.0698 28.1501 52.0198 28.1501ZM53.0198 27.6801C53.0198 27.4901 52.9798 27.2701 52.8998 27.1401C52.7398 26.8701 52.4198 26.8301 52.2098 27.0601C52.0498 27.2301 52.0298 27.4501 52.0098 27.6801H53.0198Z" fill="black"></path><path d="M59.8801 26.36C60.0801 26.41 60.2901 26.46 60.4901 26.52C60.6401 26.57 60.6601 26.64 60.6101 26.78C60.4801 27.15 60.4701 27.08 60.1901 26.98C60.0501 26.93 59.8901 26.93 59.7401 26.93C59.6201 26.93 59.5401 27.01 59.5101 27.13C59.4801 27.25 59.5101 27.36 59.6201 27.42C59.7901 27.52 59.9701 27.61 60.1401 27.7C60.3201 27.8 60.5001 27.91 60.6201 28.08C61.0101 28.66 60.6701 29.42 59.9701 29.5C59.5801 29.55 59.2101 29.49 58.8501 29.32C58.7601 29.28 58.7301 29.21 58.7501 29.12C58.7801 29.03 58.8101 28.94 58.8401 28.86C58.8801 28.75 58.9301 28.74 59.0401 28.77C59.2401 28.83 59.4401 28.89 59.6401 28.94C59.6901 28.95 59.7501 28.94 59.8101 28.94C59.9201 28.94 60.0201 28.9 60.0601 28.78C60.1001 28.66 60.1101 28.54 60.0201 28.44C59.9601 28.37 59.8701 28.31 59.7901 28.27C59.6201 28.17 59.4401 28.1 59.2801 27.99C59.0101 27.82 58.8401 27.59 58.8401 27.26C58.8401 26.77 59.1301 26.45 59.6101 26.4C59.6901 26.4 59.7701 26.39 59.8601 26.38C59.8601 26.38 59.8601 26.36 59.8601 26.35L59.8801 26.36Z" fill="black"></path><path d="M63.9799 29.54C63.2999 29.54 62.8399 29.13 62.7199 28.49C62.6399 28.05 62.6299 27.6 62.8099 27.18C63.1299 26.42 63.8799 26.27 64.4799 26.5C64.6099 26.55 64.6299 26.6 64.5899 26.74C64.5699 26.79 64.5599 26.85 64.5399 26.9C64.4899 27.06 64.4599 27.07 64.2999 27.03C64.1999 27 64.0899 26.98 63.9799 26.97C63.7499 26.95 63.5799 27.07 63.4699 27.26C63.3199 27.53 63.3099 27.82 63.3299 28.12C63.3299 28.24 63.3599 28.35 63.3899 28.46C63.4799 28.82 63.7299 28.99 64.0999 28.94C64.2099 28.93 64.3199 28.91 64.4199 28.88C64.5099 28.85 64.5699 28.88 64.5899 28.97C64.6199 29.06 64.6299 29.16 64.6499 29.26C64.6699 29.36 64.6099 29.42 64.5199 29.44C64.3399 29.48 64.1499 29.51 63.9699 29.55L63.9799 29.54Z" fill="#DE1A1A"></path><path d="M37.4802 22.12C37.6202 21.54 37.7602 20.93 37.9102 20.32C38.3102 18.67 38.7202 17.01 39.1202 15.36C39.1802 15.1 39.3602 14.96 39.6302 14.96C39.9902 14.96 40.3602 14.96 40.7202 14.96C41.0002 14.96 41.1602 15.15 41.0902 15.43C40.9502 15.96 40.8102 16.49 40.6702 17.01C39.9702 19.6 39.2702 22.19 38.5702 24.79C38.3902 25.45 38.1302 26.06 37.6902 26.59C37.3602 26.99 36.9602 27.3 36.4902 27.51C36.3402 27.58 36.2002 27.65 36.0502 27.71C35.8402 27.8 35.6102 27.73 35.5102 27.53C35.3702 27.26 35.2302 26.99 35.1002 26.72C35.0102 26.53 35.1002 26.28 35.3202 26.16C35.4202 26.1 35.5202 26.06 35.6202 26.01C36.1902 25.71 36.5502 25.24 36.7602 24.65C36.9002 24.23 37.0102 23.81 37.1402 23.38C37.1402 23.35 37.1402 23.32 37.1602 23.27C37.0802 23.27 37.0102 23.27 36.9302 23.27C36.8002 23.27 36.6702 23.27 36.5402 23.27C36.2802 23.27 36.1402 23.18 36.0602 22.93C35.9702 22.68 35.9002 22.43 35.8202 22.18C35.1102 19.94 34.3902 17.71 33.6802 15.47C33.5802 15.16 33.7202 14.96 34.0502 14.96C34.4302 14.96 34.8102 14.96 35.2002 14.96C35.5202 14.96 35.6902 15.09 35.7802 15.4C36.0002 16.22 36.2202 17.05 36.4502 17.87C36.7502 18.98 37.0502 20.09 37.3402 21.2C37.4202 21.51 37.4602 21.84 37.5102 22.13L37.4802 22.12Z" fill="white"></path></svg>