<svg xmlns="http://www.w3.org/2000/svg" width="70" height="70" viewBox="0 0 70 70"><path fill="#00C94C" d="M57.8 42.3c-.2-.2-.5-.3-.8-.3-.3 0-.6.1-.8.3-.2.2-5.2 6.1-5.2 11.7 0 3.5 2.5 6 6 6s6-2.5 6-6c0-5.6-5-11.4-5.2-11.7zM57 58c-2.4 0-4-1.6-4-4 0-3.6 2.7-7.6 4-9.4 1.3 1.8 4 5.8 4 9.4 0 2.4-1.6 4-4 4zM21 37c-.6 0-1 .4-1 1v17c0 .6.4 1 1 1s1-.4 1-1V38c0-.6-.4-1-1-1zm-5 9c-.6 0-1 .4-1 1v8c0 .6.4 1 1 1s1-.4 1-1v-8c0-.6-.4-1-1-1zm-5-3c-.6 0-1 .4-1 1v11c0 .6.4 1 1 1s1-.4 1-1V44c0-.6-.4-1-1-1zm-5 6c-.6 0-1 .4-1 1v5c0 .6.4 1 1 1s1-.4 1-1v-5c0-.6-.4-1-1-1zm23-27c-.6 0-1 .4-1 1s.4 1 1 1h5v2c0 .6.4 1 1 1s1-.4 1-1v-2h1.9c2.3 0 4.1-2 4.1-4.5S40.2 15 37.9 15H36v-5h4c.6 0 1-.4 1-1s-.4-1-1-1h-4V6c0-.6-.4-1-1-1s-1 .4-1 1v2h-1.9c-2.3 0-4.1 2-4.1 4.5s1.8 4.5 4.1 4.5H34v5h-5zm3.1-7C31 15 30 13.9 30 12.5s1-2.5 2.1-2.5H34v5h-1.9zm3.9 2h1.9c1.2 0 2.1 1.1 2.1 2.5S39 22 37.9 22H36v-5zm-12.1-1.4c-.3-.5-.9-.7-1.4-.4C14.2 19.8 9 28.5 9 38c0 .6.4 1 1 1s1-.4 1-1c0-8.8 4.8-16.8 12.5-21.1.5-.2.6-.8.4-1.3zm22.6 43.5C43 61 39 62 35 62s-8-1-11.5-2.9c-.5-.3-1.1-.1-1.4.4-.3.5-.1 1.1.4 1.4 3.8 2 8.1 3.1 12.5 3.1s8.7-1.1 12.5-3.2c.5-.3.7-.9.4-1.4-.3-.4-.9-.6-1.4-.3zm0-42.2C54.2 21.2 59 29.2 59 38c0 .6.4 1 1 1s1-.4 1-1c0-9.5-5.2-18.2-13.5-22.8-.5-.3-1.1-.1-1.4.4-.2.5-.1 1.1.4 1.3z"/></svg>