<svg width="89" height="254" viewBox="0 0 89 254" fill="none" xmlns="http://www.w3.org/2000/svg">
<g filter="url(#filter0_d_14001_50651)">
<circle cx="40" cy="40" r="36" fill="white" fill-opacity="0.7" shape-rendering="crispEdges"/>
</g>
<g filter="url(#filter1_b_14001_50651)">
<circle cx="40" cy="40" r="36" fill="url(#paint0_linear_14001_50651)" fill-opacity="0.8"/>
<circle cx="40" cy="40" r="36.4091" stroke="url(#paint1_linear_14001_50651)" stroke-width="0.818182"/>
</g>
<path fill-rule="evenodd" clip-rule="evenodd" d="M29.3516 43.7215C29.3516 43.1095 29.8477 42.6133 30.4598 42.6133H36.0092C36.6213 42.6133 37.1175 43.1095 37.1175 43.7215C37.1175 44.3336 36.6213 44.8298 36.0092 44.8298H30.4598C29.8477 44.8298 29.3516 44.3336 29.3516 43.7215ZM29.3516 46.4849C29.3516 45.8729 29.8477 45.3767 30.4598 45.3767H36.0092C36.6213 45.3767 37.1175 45.8729 37.1175 46.4849C37.1175 47.097 36.6213 47.5932 36.0092 47.5932H30.4598C29.8477 47.5932 29.3516 47.097 29.3516 46.4849Z" fill="white"/>
<path fill-rule="evenodd" clip-rule="evenodd" d="M35.8096 36.5797C31.1025 36.5797 27.2867 40.3955 27.2867 45.1026C27.2867 49.8097 31.1025 53.6255 35.8096 53.6255C40.5167 53.6255 44.3326 49.8097 44.3326 45.1026C44.3326 40.3955 40.5167 36.5797 35.8096 36.5797ZM24.8516 45.1026C24.8516 39.0506 29.7577 34.1445 35.8096 34.1445C41.8616 34.1445 46.7677 39.0506 46.7677 45.1026C46.7677 51.1546 41.8616 56.0607 35.8096 56.0607C29.7577 56.0607 24.8516 51.1546 24.8516 45.1026Z" fill="white"/>
<path fill-rule="evenodd" clip-rule="evenodd" d="M34.0858 39.6462C35.0619 39.1697 36.1501 39.0343 37.2052 39.2684C38.2577 39.502 39.2016 40.0858 39.9298 40.9148C40.3338 41.3747 40.2884 42.0749 39.8286 42.4789C39.3687 42.8828 38.6685 42.8375 38.2646 42.3776C37.822 41.8738 37.2825 41.556 36.725 41.4323C36.17 41.3091 35.5932 41.3768 35.0583 41.638C34.5198 41.9009 34.0332 42.3565 33.6799 42.9742C33.3262 43.5926 33.1306 44.3327 33.1306 45.1005C33.1306 45.8683 33.3262 46.6084 33.6799 47.2268C34.0332 47.8445 34.5198 48.3001 35.0583 48.563C35.5932 48.8242 36.17 48.8918 36.725 48.7687C37.2825 48.645 37.822 48.3272 38.2646 47.8234C38.6685 47.3635 39.3687 47.3182 39.8286 47.7221C40.2884 48.1261 40.3338 48.8263 39.9298 49.2861C39.2016 50.1152 38.2577 50.699 37.2052 50.9326C36.1501 51.1667 35.0619 51.0313 34.0858 50.5547C33.1131 50.0798 32.3097 49.2957 31.7558 48.3271C31.2023 47.3593 30.9141 46.2373 30.9141 45.1005C30.9141 43.9637 31.2023 42.8417 31.7558 41.8739C32.3097 40.9053 33.1131 40.1211 34.0858 39.6462Z" fill="white"/>
<path fill-rule="evenodd" clip-rule="evenodd" d="M45.366 27.418C46.0384 27.418 46.5836 27.9631 46.5836 28.6355V30.8001C46.5836 31.4725 46.0384 32.0176 45.366 32.0176C44.6936 32.0176 44.1484 31.4725 44.1484 30.8001V28.6355C44.1484 27.9631 44.6936 27.418 45.366 27.418Z" fill="white"/>
<path fill-rule="evenodd" clip-rule="evenodd" d="M37.2915 32.3981C38.4301 29.0309 41.6156 26.607 45.3672 26.607C50.0743 26.607 53.8902 30.4228 53.8902 35.1299C53.8902 38.8815 51.4663 42.067 48.0991 43.2057C48.1711 43.7504 48.2082 44.3061 48.2082 44.8704C48.2082 45.1572 48.1986 45.4417 48.1797 45.7237C52.869 44.4821 56.3253 40.2096 56.3253 35.1299C56.3253 29.078 51.4192 24.1719 45.3672 24.1719C40.2875 24.1719 36.0151 27.6282 34.7734 32.3174C35.0554 32.2986 35.34 32.289 35.6267 32.289C36.1911 32.289 36.7468 32.3261 37.2915 32.3981Z" fill="white"/>
<path fill-rule="evenodd" clip-rule="evenodd" d="M48.1683 30.0076C47.6387 29.7135 47.04 29.567 46.4347 29.5833H44.2884C43.3914 29.5833 42.5311 29.9396 41.8968 30.5739C41.2626 31.2081 40.9062 32.0684 40.9062 32.9654C40.9062 33.1327 40.9187 33.2988 40.943 33.4624C42.4409 34.1612 43.7785 35.1463 44.8851 36.3475H46.4529C46.7041 36.3475 46.945 36.4472 47.1225 36.6248C47.3001 36.8024 47.3999 37.0433 47.3999 37.2944C47.3999 37.5456 47.3001 37.7865 47.1225 37.9641C46.945 38.1417 46.7041 38.2414 46.4529 38.2414H46.3257C46.7713 38.9589 47.1467 39.7245 47.4424 40.5286C47.9669 40.3681 48.4495 40.0809 48.8444 39.686C49.4787 39.0517 49.835 38.1914 49.835 37.2944C49.835 36.3975 49.4787 35.5372 48.8444 34.9029C48.2102 34.2687 47.3499 33.9123 46.4529 33.9123H44.2884C44.0372 33.9123 43.7963 33.8126 43.6187 33.635C43.4411 33.4574 43.3414 33.2165 43.3414 32.9654C43.3414 32.7142 43.4411 32.4733 43.6187 32.2957C43.7963 32.1181 44.0372 32.0184 44.2884 32.0184H46.4529C46.4666 32.0184 46.4802 32.0181 46.4939 32.0177C46.6655 32.0119 46.8355 32.0529 46.9857 32.1363C47.1358 32.2197 47.2604 32.3424 47.3462 32.4912C47.682 33.0737 48.4265 33.2738 49.0091 32.9379C49.5917 32.6021 49.7917 31.8576 49.4559 31.275C49.1495 30.7436 48.7044 30.3055 48.1683 30.0076Z" fill="white"/>
<g filter="url(#filter2_d_14001_50651)">
<circle cx="40.5" cy="122" r="36" fill="white" fill-opacity="0.7" shape-rendering="crispEdges"/>
</g>
<g filter="url(#filter3_b_14001_50651)">
<circle cx="40.5" cy="122" r="36" fill="#C2C2C2" fill-opacity="0.06"/>
<circle cx="40.5" cy="122" r="36.4091" stroke="white" stroke-width="0.818182"/>
</g>
<path fill-rule="evenodd" clip-rule="evenodd" d="M29.3516 125.722C29.3516 125.109 29.8477 124.613 30.4598 124.613H36.0092C36.6213 124.613 37.1175 125.109 37.1175 125.722C37.1175 126.334 36.6213 126.83 36.0092 126.83H30.4598C29.8477 126.83 29.3516 126.334 29.3516 125.722ZM29.3516 128.485C29.3516 127.873 29.8477 127.377 30.4598 127.377H36.0092C36.6213 127.377 37.1175 127.873 37.1175 128.485C37.1175 129.097 36.6213 129.593 36.0092 129.593H30.4598C29.8477 129.593 29.3516 129.097 29.3516 128.485Z" fill="url(#paint2_linear_14001_50651)" stroke="#FBFBFB" stroke-width="0.513281" stroke-linecap="round" stroke-linejoin="round"/>
<path fill-rule="evenodd" clip-rule="evenodd" d="M35.8096 118.58C31.1025 118.58 27.2867 122.396 27.2867 127.103C27.2867 131.81 31.1025 135.626 35.8096 135.626C40.5167 135.626 44.3326 131.81 44.3326 127.103C44.3326 122.396 40.5167 118.58 35.8096 118.58ZM24.8516 127.103C24.8516 121.051 29.7577 116.145 35.8096 116.145C41.8616 116.145 46.7677 121.051 46.7677 127.103C46.7677 133.155 41.8616 138.061 35.8096 138.061C29.7577 138.061 24.8516 133.155 24.8516 127.103Z" fill="url(#paint3_linear_14001_50651)" stroke="#FBFBFB" stroke-width="0.513281" stroke-linecap="round" stroke-linejoin="round"/>
<path fill-rule="evenodd" clip-rule="evenodd" d="M34.0858 121.646C35.0619 121.17 36.1501 121.034 37.2052 121.268C38.2577 121.502 39.2016 122.086 39.9298 122.915C40.3338 123.375 40.2884 124.075 39.8286 124.479C39.3687 124.883 38.6685 124.837 38.2646 124.378C37.822 123.874 37.2825 123.556 36.725 123.432C36.17 123.309 35.5932 123.377 35.0583 123.638C34.5198 123.901 34.0332 124.356 33.6799 124.974C33.3262 125.593 33.1306 126.333 33.1306 127.1C33.1306 127.868 33.3262 128.608 33.6799 129.227C34.0332 129.844 34.5198 130.3 35.0583 130.563C35.5932 130.824 36.17 130.892 36.725 130.769C37.2825 130.645 37.822 130.327 38.2646 129.823C38.6685 129.364 39.3687 129.318 39.8286 129.722C40.2884 130.126 40.3338 130.826 39.9298 131.286C39.2016 132.115 38.2577 132.699 37.2052 132.933C36.1501 133.167 35.0619 133.031 34.0858 132.555C33.1131 132.08 32.3097 131.296 31.7558 130.327C31.2023 129.359 30.9141 128.237 30.9141 127.1C30.9141 125.964 31.2023 124.842 31.7558 123.874C32.3097 122.905 33.1131 122.121 34.0858 121.646Z" fill="url(#paint4_linear_14001_50651)" stroke="#FBFBFB" stroke-width="0.513281" stroke-linecap="round" stroke-linejoin="round"/>
<path fill-rule="evenodd" clip-rule="evenodd" d="M45.366 109.418C46.0384 109.418 46.5836 109.963 46.5836 110.636V112.8C46.5836 113.473 46.0384 114.018 45.366 114.018C44.6936 114.018 44.1484 113.473 44.1484 112.8V110.636C44.1484 109.963 44.6936 109.418 45.366 109.418Z" fill="url(#paint5_linear_14001_50651)" stroke="#FBFBFB" stroke-width="0.513281" stroke-linecap="round" stroke-linejoin="round"/>
<path fill-rule="evenodd" clip-rule="evenodd" d="M37.2915 114.398C38.4301 111.031 41.6156 108.607 45.3672 108.607C50.0743 108.607 53.8902 112.423 53.8902 117.13C53.8902 120.882 51.4663 124.067 48.0991 125.206C48.1711 125.75 48.2082 126.306 48.2082 126.87C48.2082 127.157 48.1986 127.442 48.1797 127.724C52.869 126.482 56.3253 122.21 56.3253 117.13C56.3253 111.078 51.4192 106.172 45.3672 106.172C40.2875 106.172 36.0151 109.628 34.7734 114.317C35.0554 114.299 35.34 114.289 35.6267 114.289C36.1911 114.289 36.7468 114.326 37.2915 114.398Z" fill="url(#paint6_linear_14001_50651)" stroke="#FBFBFB" stroke-width="0.513281" stroke-linecap="round" stroke-linejoin="round"/>
<path fill-rule="evenodd" clip-rule="evenodd" d="M48.1683 112.008C47.6387 111.713 47.04 111.567 46.4347 111.583H44.2884C43.3914 111.583 42.5311 111.94 41.8968 112.574C41.2626 113.208 40.9062 114.068 40.9062 114.965C40.9062 115.133 40.9187 115.299 40.943 115.462C42.4409 116.161 43.7785 117.146 44.8851 118.347H46.4529C46.7041 118.347 46.945 118.447 47.1225 118.625C47.3001 118.802 47.3999 119.043 47.3999 119.294C47.3999 119.546 47.3001 119.786 47.1225 119.964C46.945 120.142 46.7041 120.241 46.4529 120.241H46.3257C46.7713 120.959 47.1467 121.724 47.4424 122.529C47.9669 122.368 48.4495 122.081 48.8444 121.686C49.4787 121.052 49.835 120.191 49.835 119.294C49.835 118.397 49.4787 117.537 48.8444 116.903C48.2102 116.269 47.3499 115.912 46.4529 115.912H44.2884C44.0372 115.912 43.7963 115.813 43.6187 115.635C43.4411 115.457 43.3414 115.217 43.3414 114.965C43.3414 114.714 43.4411 114.473 43.6187 114.296C43.7963 114.118 44.0372 114.018 44.2884 114.018H46.4529C46.4666 114.018 46.4802 114.018 46.4939 114.018C46.6655 114.012 46.8355 114.053 46.9857 114.136C47.1358 114.22 47.2604 114.342 47.3462 114.491C47.682 115.074 48.4265 115.274 49.0091 114.938C49.5917 114.602 49.7917 113.858 49.4559 113.275C49.1495 112.744 48.7044 112.306 48.1683 112.008Z" fill="url(#paint7_linear_14001_50651)" stroke="#FBFBFB" stroke-width="0.513281" stroke-linecap="round" stroke-linejoin="round"/>
<g filter="url(#filter4_d_14001_50651)">
<circle cx="40" cy="206" r="36" fill="white" fill-opacity="0.7" shape-rendering="crispEdges"/>
</g>
<g filter="url(#filter5_b_14001_50651)">
<circle cx="40" cy="206" r="36" fill="#C2C2C2" fill-opacity="0.06"/>
<circle cx="40" cy="206" r="36.4091" stroke="url(#paint8_linear_14001_50651)" stroke-width="0.818182"/>
</g>
<path fill-rule="evenodd" clip-rule="evenodd" d="M28.8516 209.722C28.8516 209.109 29.3477 208.613 29.9598 208.613H35.5092C36.1213 208.613 36.6175 209.109 36.6175 209.722C36.6175 210.334 36.1213 210.83 35.5092 210.83H29.9598C29.3477 210.83 28.8516 210.334 28.8516 209.722ZM28.8516 212.485C28.8516 211.873 29.3477 211.377 29.9598 211.377H35.5092C36.1213 211.377 36.6175 211.873 36.6175 212.485C36.6175 213.097 36.1213 213.593 35.5092 213.593H29.9598C29.3477 213.593 28.8516 213.097 28.8516 212.485Z" fill="url(#paint9_linear_14001_50651)" stroke="#FBFBFB" stroke-width="0.513281" stroke-linecap="round" stroke-linejoin="round"/>
<path fill-rule="evenodd" clip-rule="evenodd" d="M35.3096 202.58C30.6025 202.58 26.7867 206.396 26.7867 211.103C26.7867 215.81 30.6025 219.626 35.3096 219.626C40.0167 219.626 43.8326 215.81 43.8326 211.103C43.8326 206.396 40.0167 202.58 35.3096 202.58ZM24.3516 211.103C24.3516 205.051 29.2577 200.145 35.3096 200.145C41.3616 200.145 46.2677 205.051 46.2677 211.103C46.2677 217.155 41.3616 222.061 35.3096 222.061C29.2577 222.061 24.3516 217.155 24.3516 211.103Z" fill="url(#paint10_linear_14001_50651)" stroke="#FBFBFB" stroke-width="0.513281" stroke-linecap="round" stroke-linejoin="round"/>
<path fill-rule="evenodd" clip-rule="evenodd" d="M33.5858 205.646C34.5619 205.17 35.6501 205.034 36.7052 205.268C37.7577 205.502 38.7016 206.086 39.4298 206.915C39.8338 207.375 39.7884 208.075 39.3286 208.479C38.8687 208.883 38.1685 208.837 37.7646 208.378C37.322 207.874 36.7825 207.556 36.225 207.432C35.67 207.309 35.0932 207.377 34.5583 207.638C34.0198 207.901 33.5332 208.356 33.1799 208.974C32.8262 209.593 32.6306 210.333 32.6306 211.1C32.6306 211.868 32.8262 212.608 33.1799 213.227C33.5332 213.844 34.0198 214.3 34.5583 214.563C35.0932 214.824 35.67 214.892 36.225 214.769C36.7825 214.645 37.322 214.327 37.7646 213.823C38.1685 213.364 38.8687 213.318 39.3286 213.722C39.7884 214.126 39.8338 214.826 39.4298 215.286C38.7016 216.115 37.7577 216.699 36.7052 216.933C35.6501 217.167 34.5619 217.031 33.5858 216.555C32.6131 216.08 31.8097 215.296 31.2558 214.327C30.7023 213.359 30.4141 212.237 30.4141 211.1C30.4141 209.964 30.7023 208.842 31.2558 207.874C31.8097 206.905 32.6131 206.121 33.5858 205.646Z" fill="url(#paint11_linear_14001_50651)" stroke="#FBFBFB" stroke-width="0.513281" stroke-linecap="round" stroke-linejoin="round"/>
<path fill-rule="evenodd" clip-rule="evenodd" d="M44.866 193.418C45.5384 193.418 46.0836 193.963 46.0836 194.636V196.8C46.0836 197.473 45.5384 198.018 44.866 198.018C44.1936 198.018 43.6484 197.473 43.6484 196.8V194.636C43.6484 193.963 44.1936 193.418 44.866 193.418Z" fill="url(#paint12_linear_14001_50651)" stroke="#FBFBFB" stroke-width="0.513281" stroke-linecap="round" stroke-linejoin="round"/>
<path fill-rule="evenodd" clip-rule="evenodd" d="M36.7915 198.398C37.9301 195.031 41.1156 192.607 44.8672 192.607C49.5743 192.607 53.3902 196.423 53.3902 201.13C53.3902 204.882 50.9663 208.067 47.5991 209.206C47.6711 209.75 47.7082 210.306 47.7082 210.87C47.7082 211.157 47.6986 211.442 47.6797 211.724C52.369 210.482 55.8253 206.21 55.8253 201.13C55.8253 195.078 50.9192 190.172 44.8672 190.172C39.7875 190.172 35.5151 193.628 34.2734 198.317C34.5554 198.299 34.84 198.289 35.1267 198.289C35.6911 198.289 36.2468 198.326 36.7915 198.398Z" fill="url(#paint13_linear_14001_50651)" stroke="#FBFBFB" stroke-width="0.513281" stroke-linecap="round" stroke-linejoin="round"/>
<path fill-rule="evenodd" clip-rule="evenodd" d="M47.6683 196.008C47.1387 195.713 46.54 195.567 45.9347 195.583H43.7884C42.8914 195.583 42.0311 195.94 41.3968 196.574C40.7626 197.208 40.4062 198.068 40.4062 198.965C40.4062 199.133 40.4187 199.299 40.443 199.462C41.9409 200.161 43.2785 201.146 44.3851 202.347H45.9529C46.2041 202.347 46.445 202.447 46.6225 202.625C46.8001 202.802 46.8999 203.043 46.8999 203.294C46.8999 203.546 46.8001 203.786 46.6225 203.964C46.445 204.142 46.2041 204.241 45.9529 204.241H45.8257C46.2713 204.959 46.6467 205.724 46.9424 206.529C47.4669 206.368 47.9495 206.081 48.3444 205.686C48.9787 205.052 49.335 204.191 49.335 203.294C49.335 202.397 48.9787 201.537 48.3444 200.903C47.7102 200.269 46.8499 199.912 45.9529 199.912H43.7884C43.5372 199.912 43.2963 199.813 43.1187 199.635C42.9411 199.457 42.8414 199.217 42.8414 198.965C42.8414 198.714 42.9411 198.473 43.1187 198.296C43.2963 198.118 43.5372 198.018 43.7884 198.018H45.9529C45.9666 198.018 45.9802 198.018 45.9939 198.018C46.1655 198.012 46.3355 198.053 46.4857 198.136C46.6358 198.22 46.7604 198.342 46.8462 198.491C47.182 199.074 47.9265 199.274 48.5091 198.938C49.0917 198.602 49.2917 197.858 48.9559 197.275C48.6495 196.744 48.2044 196.306 47.6683 196.008Z" fill="url(#paint14_linear_14001_50651)" stroke="#FBFBFB" stroke-width="0.513281" stroke-linecap="round" stroke-linejoin="round"/>
<defs>
<filter id="filter0_d_14001_50651" x="0" y="0" width="88" height="88" filterUnits="userSpaceOnUse" color-interpolation-filters="sRGB">
<feFlood flood-opacity="0" result="BackgroundImageFix"/>
<feColorMatrix in="SourceAlpha" type="matrix" values="0 0 0 0 0 0 0 0 0 0 0 0 0 0 0 0 0 0 127 0" result="hardAlpha"/>
<feOffset dx="4" dy="4"/>
<feGaussianBlur stdDeviation="4"/>
<feComposite in2="hardAlpha" operator="out"/>
<feColorMatrix type="matrix" values="0 0 0 0 0 0 0 0 0 0 0 0 0 0 0 0 0 0 0.17 0"/>
<feBlend mode="normal" in2="BackgroundImageFix" result="effect1_dropShadow_14001_50651"/>
<feBlend mode="normal" in="SourceGraphic" in2="effect1_dropShadow_14001_50651" result="shape"/>
</filter>
<filter id="filter1_b_14001_50651" x="-16.4547" y="-16.4546" width="112.909" height="112.909" filterUnits="userSpaceOnUse" color-interpolation-filters="sRGB">
<feFlood flood-opacity="0" result="BackgroundImageFix"/>
<feGaussianBlur in="BackgroundImageFix" stdDeviation="9.81818"/>
<feComposite in2="SourceAlpha" operator="in" result="effect1_backgroundBlur_14001_50651"/>
<feBlend mode="normal" in="SourceGraphic" in2="effect1_backgroundBlur_14001_50651" result="shape"/>
</filter>
<filter id="filter2_d_14001_50651" x="0.5" y="82" width="88" height="88" filterUnits="userSpaceOnUse" color-interpolation-filters="sRGB">
<feFlood flood-opacity="0" result="BackgroundImageFix"/>
<feColorMatrix in="SourceAlpha" type="matrix" values="0 0 0 0 0 0 0 0 0 0 0 0 0 0 0 0 0 0 127 0" result="hardAlpha"/>
<feOffset dx="4" dy="4"/>
<feGaussianBlur stdDeviation="4"/>
<feComposite in2="hardAlpha" operator="out"/>
<feColorMatrix type="matrix" values="0 0 0 0 0 0 0 0 0 0 0 0 0 0 0 0 0 0 0.17 0"/>
<feBlend mode="normal" in2="BackgroundImageFix" result="effect1_dropShadow_14001_50651"/>
<feBlend mode="normal" in="SourceGraphic" in2="effect1_dropShadow_14001_50651" result="shape"/>
</filter>
<filter id="filter3_b_14001_50651" x="-15.9547" y="65.5454" width="112.909" height="112.909" filterUnits="userSpaceOnUse" color-interpolation-filters="sRGB">
<feFlood flood-opacity="0" result="BackgroundImageFix"/>
<feGaussianBlur in="BackgroundImageFix" stdDeviation="9.81818"/>
<feComposite in2="SourceAlpha" operator="in" result="effect1_backgroundBlur_14001_50651"/>
<feBlend mode="normal" in="SourceGraphic" in2="effect1_backgroundBlur_14001_50651" result="shape"/>
</filter>
<filter id="filter4_d_14001_50651" x="0" y="166" width="88" height="88" filterUnits="userSpaceOnUse" color-interpolation-filters="sRGB">
<feFlood flood-opacity="0" result="BackgroundImageFix"/>
<feColorMatrix in="SourceAlpha" type="matrix" values="0 0 0 0 0 0 0 0 0 0 0 0 0 0 0 0 0 0 127 0" result="hardAlpha"/>
<feOffset dx="4" dy="4"/>
<feGaussianBlur stdDeviation="4"/>
<feComposite in2="hardAlpha" operator="out"/>
<feColorMatrix type="matrix" values="0 0 0 0 0 0 0 0 0 0 0 0 0 0 0 0 0 0 0.17 0"/>
<feBlend mode="normal" in2="BackgroundImageFix" result="effect1_dropShadow_14001_50651"/>
<feBlend mode="normal" in="SourceGraphic" in2="effect1_dropShadow_14001_50651" result="shape"/>
</filter>
<filter id="filter5_b_14001_50651" x="-16.4547" y="149.545" width="112.909" height="112.909" filterUnits="userSpaceOnUse" color-interpolation-filters="sRGB">
<feFlood flood-opacity="0" result="BackgroundImageFix"/>
<feGaussianBlur in="BackgroundImageFix" stdDeviation="9.81818"/>
<feComposite in2="SourceAlpha" operator="in" result="effect1_backgroundBlur_14001_50651"/>
<feBlend mode="normal" in="SourceGraphic" in2="effect1_backgroundBlur_14001_50651" result="shape"/>
</filter>
<linearGradient id="paint0_linear_14001_50651" x1="11.3848" y1="58.952" x2="69.0718" y2="1.72349" gradientUnits="userSpaceOnUse">
<stop stop-color="#8E00ED"/>
<stop offset="1" stop-color="#1384E8"/>
</linearGradient>
<linearGradient id="paint1_linear_14001_50651" x1="11.3848" y1="58.952" x2="69.0718" y2="1.72349" gradientUnits="userSpaceOnUse">
<stop stop-color="#8E00ED"/>
<stop offset="1" stop-color="#1384E8"/>
</linearGradient>
<linearGradient id="paint2_linear_14001_50651" x1="30.1481" y1="128.414" x2="33.7863" y2="122.786" gradientUnits="userSpaceOnUse">
<stop stop-color="#8E00ED"/>
<stop offset="1" stop-color="#1384E8"/>
</linearGradient>
<linearGradient id="paint3_linear_14001_50651" x1="27.0994" y1="132.871" x2="44.6588" y2="115.452" gradientUnits="userSpaceOnUse">
<stop stop-color="#8E00ED"/>
<stop offset="1" stop-color="#1384E8"/>
</linearGradient>
<linearGradient id="paint4_linear_14001_50651" x1="31.8671" y1="130.23" x2="41.0922" y2="123.077" gradientUnits="userSpaceOnUse">
<stop stop-color="#8E00ED"/>
<stop offset="1" stop-color="#1384E8"/>
</linearGradient>
<linearGradient id="paint5_linear_14001_50651" x1="44.3982" y1="112.929" x2="47.4324" y2="111.335" gradientUnits="userSpaceOnUse">
<stop stop-color="#8E00ED"/>
<stop offset="1" stop-color="#1384E8"/>
</linearGradient>
<linearGradient id="paint6_linear_14001_50651" x1="36.984" y1="122.621" x2="54.2514" y2="105.49" gradientUnits="userSpaceOnUse">
<stop stop-color="#8E00ED"/>
<stop offset="1" stop-color="#1384E8"/>
</linearGradient>
<linearGradient id="paint7_linear_14001_50651" x1="41.8221" y1="119.937" x2="50.3998" y2="112.996" gradientUnits="userSpaceOnUse">
<stop stop-color="#8E00ED"/>
<stop offset="1" stop-color="#1384E8"/>
</linearGradient>
<linearGradient id="paint8_linear_14001_50651" x1="11.3848" y1="224.952" x2="69.0718" y2="167.723" gradientUnits="userSpaceOnUse">
<stop stop-color="#8E00ED"/>
<stop offset="1" stop-color="#1384E8"/>
</linearGradient>
<linearGradient id="paint9_linear_14001_50651" x1="29.6481" y1="212.414" x2="33.2863" y2="206.786" gradientUnits="userSpaceOnUse">
<stop stop-color="#8E00ED"/>
<stop offset="1" stop-color="#1384E8"/>
</linearGradient>
<linearGradient id="paint10_linear_14001_50651" x1="26.5994" y1="216.871" x2="44.1588" y2="199.452" gradientUnits="userSpaceOnUse">
<stop stop-color="#8E00ED"/>
<stop offset="1" stop-color="#1384E8"/>
</linearGradient>
<linearGradient id="paint11_linear_14001_50651" x1="31.3671" y1="214.23" x2="40.5922" y2="207.077" gradientUnits="userSpaceOnUse">
<stop stop-color="#8E00ED"/>
<stop offset="1" stop-color="#1384E8"/>
</linearGradient>
<linearGradient id="paint12_linear_14001_50651" x1="43.8982" y1="196.929" x2="46.9324" y2="195.335" gradientUnits="userSpaceOnUse">
<stop stop-color="#8E00ED"/>
<stop offset="1" stop-color="#1384E8"/>
</linearGradient>
<linearGradient id="paint13_linear_14001_50651" x1="36.484" y1="206.621" x2="53.7514" y2="189.49" gradientUnits="userSpaceOnUse">
<stop stop-color="#8E00ED"/>
<stop offset="1" stop-color="#1384E8"/>
</linearGradient>
<linearGradient id="paint14_linear_14001_50651" x1="41.3221" y1="203.937" x2="49.8998" y2="196.996" gradientUnits="userSpaceOnUse">
<stop stop-color="#8E00ED"/>
<stop offset="1" stop-color="#1384E8"/>
</linearGradient>
</defs>
</svg>
