<svg width="89" height="254" viewBox="0 0 89 254" fill="none" xmlns="http://www.w3.org/2000/svg">
<g filter="url(#filter0_d_14001_50653)">
<circle cx="40" cy="40" r="36" fill="white" fill-opacity="0.7" shape-rendering="crispEdges"/>
</g>
<g filter="url(#filter1_b_14001_50653)">
<circle cx="40" cy="40" r="36" fill="url(#paint0_linear_14001_50653)" fill-opacity="0.8"/>
<circle cx="40" cy="40" r="36.4091" stroke="url(#paint1_linear_14001_50653)" stroke-width="0.818182"/>
</g>
<path fill-rule="evenodd" clip-rule="evenodd" d="M26.6641 54.586C25.9737 54.586 25.4141 54.0263 25.4141 53.336V26.6693C25.4141 25.979 25.9737 25.4193 26.6641 25.4193C27.3544 25.4193 27.9141 25.979 27.9141 26.6693L27.9141 52.086H53.3307C54.0211 52.086 54.5807 52.6456 54.5807 53.336C54.5807 54.0263 54.0211 54.586 53.3307 54.586H26.6641ZM52.8207 28.8171C53.0863 28.1798 52.7849 27.448 52.1477 27.1825C51.5104 26.9169 50.7786 27.2183 50.5131 27.8555L47.3242 35.5088L45.2522 31.8828C45.0169 31.4711 44.569 31.2279 44.0955 31.255C43.6221 31.2821 43.2048 31.5747 43.018 32.0106L38.9507 41.5008L37.3593 38.9988C37.1217 38.6252 36.7042 38.4052 36.2617 38.4204C35.8192 38.4356 35.4177 38.6837 35.2063 39.0727L31.402 46.0727C31.0723 46.6793 31.2968 47.4383 31.9033 47.7679C32.5099 48.0976 33.2689 47.8731 33.5985 47.2665L36.3892 42.1317L38.1122 44.8405C38.361 45.2316 38.8058 45.453 39.2678 45.4156C39.7298 45.3781 40.1332 45.0881 40.3158 44.662L44.327 35.3026L46.4149 38.9565C46.6513 39.3702 47.1024 39.6135 47.5779 39.5839C48.0535 39.5543 48.4708 39.2569 48.6541 38.8171L52.8207 28.8171Z" fill="white"/>
<g filter="url(#filter2_d_14001_50653)">
<circle cx="40.5" cy="122" r="36" fill="white" fill-opacity="0.7" shape-rendering="crispEdges"/>
</g>
<g filter="url(#filter3_b_14001_50653)">
<circle cx="40.5" cy="122" r="36" fill="#C2C2C2" fill-opacity="0.06"/>
<circle cx="40.5" cy="122" r="36.4091" stroke="white" stroke-width="0.818182"/>
</g>
<path fill-rule="evenodd" clip-rule="evenodd" d="M27.1641 136.586C26.4737 136.586 25.9141 136.026 25.9141 135.336V108.669C25.9141 107.979 26.4737 107.419 27.1641 107.419C27.8544 107.419 28.4141 107.979 28.4141 108.669L28.4141 134.086H53.8307C54.5211 134.086 55.0807 134.646 55.0807 135.336C55.0807 136.026 54.5211 136.586 53.8307 136.586H27.1641ZM53.3207 110.817C53.5863 110.18 53.2849 109.448 52.6477 109.182C52.0104 108.917 51.2786 109.218 51.0131 109.856L47.8242 117.509L45.7522 113.883C45.5169 113.471 45.069 113.228 44.5955 113.255C44.1221 113.282 43.7048 113.575 43.518 114.011L39.4507 123.501L37.8593 120.999C37.6217 120.625 37.2042 120.405 36.7617 120.42C36.3192 120.436 35.9177 120.684 35.7063 121.073L31.902 128.073C31.5723 128.679 31.7968 129.438 32.4033 129.768C33.0099 130.098 33.7689 129.873 34.0985 129.267L36.8892 124.132L38.6122 126.841C38.861 127.232 39.3058 127.453 39.7678 127.416C40.2298 127.378 40.6332 127.088 40.8158 126.662L44.827 117.303L46.9149 120.956C47.1513 121.37 47.6024 121.613 48.0779 121.584C48.5535 121.554 48.9708 121.257 49.1541 120.817L53.3207 110.817Z" fill="url(#paint2_linear_14001_50653)"/>
<g filter="url(#filter4_d_14001_50653)">
<circle cx="40" cy="206" r="36" fill="white" fill-opacity="0.7" shape-rendering="crispEdges"/>
</g>
<g filter="url(#filter5_b_14001_50653)">
<circle cx="40" cy="206" r="36" fill="#C2C2C2" fill-opacity="0.06"/>
<circle cx="40" cy="206" r="36.4091" stroke="url(#paint3_linear_14001_50653)" stroke-width="0.818182"/>
</g>
<path fill-rule="evenodd" clip-rule="evenodd" d="M26.6641 220.586C25.9737 220.586 25.4141 220.026 25.4141 219.336V192.669C25.4141 191.979 25.9737 191.419 26.6641 191.419C27.3544 191.419 27.9141 191.979 27.9141 192.669L27.9141 218.086H53.3307C54.0211 218.086 54.5807 218.646 54.5807 219.336C54.5807 220.026 54.0211 220.586 53.3307 220.586H26.6641ZM52.8207 194.817C53.0863 194.18 52.7849 193.448 52.1477 193.182C51.5104 192.917 50.7786 193.218 50.5131 193.856L47.3242 201.509L45.2522 197.883C45.0169 197.471 44.569 197.228 44.0955 197.255C43.6221 197.282 43.2048 197.575 43.018 198.011L38.9507 207.501L37.3593 204.999C37.1217 204.625 36.7042 204.405 36.2617 204.42C35.8192 204.436 35.4177 204.684 35.2063 205.073L31.402 212.073C31.0723 212.679 31.2968 213.438 31.9033 213.768C32.5099 214.098 33.2689 213.873 33.5985 213.267L36.3892 208.132L38.1122 210.841C38.361 211.232 38.8058 211.453 39.2678 211.416C39.7298 211.378 40.1332 211.088 40.3158 210.662L44.327 201.303L46.4149 204.956C46.6513 205.37 47.1024 205.613 47.5779 205.584C48.0535 205.554 48.4708 205.257 48.6541 204.817L52.8207 194.817Z" fill="url(#paint4_linear_14001_50653)"/>
<defs>
<filter id="filter0_d_14001_50653" x="0" y="0" width="88" height="88" filterUnits="userSpaceOnUse" color-interpolation-filters="sRGB">
<feFlood flood-opacity="0" result="BackgroundImageFix"/>
<feColorMatrix in="SourceAlpha" type="matrix" values="0 0 0 0 0 0 0 0 0 0 0 0 0 0 0 0 0 0 127 0" result="hardAlpha"/>
<feOffset dx="4" dy="4"/>
<feGaussianBlur stdDeviation="4"/>
<feComposite in2="hardAlpha" operator="out"/>
<feColorMatrix type="matrix" values="0 0 0 0 0 0 0 0 0 0 0 0 0 0 0 0 0 0 0.17 0"/>
<feBlend mode="normal" in2="BackgroundImageFix" result="effect1_dropShadow_14001_50653"/>
<feBlend mode="normal" in="SourceGraphic" in2="effect1_dropShadow_14001_50653" result="shape"/>
</filter>
<filter id="filter1_b_14001_50653" x="-16.4547" y="-16.4546" width="112.909" height="112.909" filterUnits="userSpaceOnUse" color-interpolation-filters="sRGB">
<feFlood flood-opacity="0" result="BackgroundImageFix"/>
<feGaussianBlur in="BackgroundImageFix" stdDeviation="9.81818"/>
<feComposite in2="SourceAlpha" operator="in" result="effect1_backgroundBlur_14001_50653"/>
<feBlend mode="normal" in="SourceGraphic" in2="effect1_backgroundBlur_14001_50653" result="shape"/>
</filter>
<filter id="filter2_d_14001_50653" x="0.5" y="82" width="88" height="88" filterUnits="userSpaceOnUse" color-interpolation-filters="sRGB">
<feFlood flood-opacity="0" result="BackgroundImageFix"/>
<feColorMatrix in="SourceAlpha" type="matrix" values="0 0 0 0 0 0 0 0 0 0 0 0 0 0 0 0 0 0 127 0" result="hardAlpha"/>
<feOffset dx="4" dy="4"/>
<feGaussianBlur stdDeviation="4"/>
<feComposite in2="hardAlpha" operator="out"/>
<feColorMatrix type="matrix" values="0 0 0 0 0 0 0 0 0 0 0 0 0 0 0 0 0 0 0.17 0"/>
<feBlend mode="normal" in2="BackgroundImageFix" result="effect1_dropShadow_14001_50653"/>
<feBlend mode="normal" in="SourceGraphic" in2="effect1_dropShadow_14001_50653" result="shape"/>
</filter>
<filter id="filter3_b_14001_50653" x="-15.9547" y="65.5454" width="112.909" height="112.909" filterUnits="userSpaceOnUse" color-interpolation-filters="sRGB">
<feFlood flood-opacity="0" result="BackgroundImageFix"/>
<feGaussianBlur in="BackgroundImageFix" stdDeviation="9.81818"/>
<feComposite in2="SourceAlpha" operator="in" result="effect1_backgroundBlur_14001_50653"/>
<feBlend mode="normal" in="SourceGraphic" in2="effect1_backgroundBlur_14001_50653" result="shape"/>
</filter>
<filter id="filter4_d_14001_50653" x="0" y="166" width="88" height="88" filterUnits="userSpaceOnUse" color-interpolation-filters="sRGB">
<feFlood flood-opacity="0" result="BackgroundImageFix"/>
<feColorMatrix in="SourceAlpha" type="matrix" values="0 0 0 0 0 0 0 0 0 0 0 0 0 0 0 0 0 0 127 0" result="hardAlpha"/>
<feOffset dx="4" dy="4"/>
<feGaussianBlur stdDeviation="4"/>
<feComposite in2="hardAlpha" operator="out"/>
<feColorMatrix type="matrix" values="0 0 0 0 0 0 0 0 0 0 0 0 0 0 0 0 0 0 0.17 0"/>
<feBlend mode="normal" in2="BackgroundImageFix" result="effect1_dropShadow_14001_50653"/>
<feBlend mode="normal" in="SourceGraphic" in2="effect1_dropShadow_14001_50653" result="shape"/>
</filter>
<filter id="filter5_b_14001_50653" x="-16.4547" y="149.545" width="112.909" height="112.909" filterUnits="userSpaceOnUse" color-interpolation-filters="sRGB">
<feFlood flood-opacity="0" result="BackgroundImageFix"/>
<feGaussianBlur in="BackgroundImageFix" stdDeviation="9.81818"/>
<feComposite in2="SourceAlpha" operator="in" result="effect1_backgroundBlur_14001_50653"/>
<feBlend mode="normal" in="SourceGraphic" in2="effect1_backgroundBlur_14001_50653" result="shape"/>
</filter>
<linearGradient id="paint0_linear_14001_50653" x1="11.3848" y1="58.952" x2="69.0718" y2="1.72349" gradientUnits="userSpaceOnUse">
<stop stop-color="#8E00ED"/>
<stop offset="1" stop-color="#1384E8"/>
</linearGradient>
<linearGradient id="paint1_linear_14001_50653" x1="11.3848" y1="58.952" x2="69.0718" y2="1.72349" gradientUnits="userSpaceOnUse">
<stop stop-color="#8E00ED"/>
<stop offset="1" stop-color="#1384E8"/>
</linearGradient>
<linearGradient id="paint2_linear_14001_50653" x1="28.9056" y1="129.68" x2="52.2741" y2="106.497" gradientUnits="userSpaceOnUse">
<stop stop-color="#8E00ED"/>
<stop offset="1" stop-color="#1384E8"/>
</linearGradient>
<linearGradient id="paint3_linear_14001_50653" x1="11.3848" y1="224.952" x2="69.0718" y2="167.723" gradientUnits="userSpaceOnUse">
<stop stop-color="#8E00ED"/>
<stop offset="1" stop-color="#1384E8"/>
</linearGradient>
<linearGradient id="paint4_linear_14001_50653" x1="28.4056" y1="213.68" x2="51.7741" y2="190.497" gradientUnits="userSpaceOnUse">
<stop stop-color="#8E00ED"/>
<stop offset="1" stop-color="#1384E8"/>
</linearGradient>
</defs>
</svg>
