<svg width="89" height="254" viewBox="0 0 89 254" fill="none" xmlns="http://www.w3.org/2000/svg">
<g filter="url(#filter0_d_14001_50652)">
<circle cx="40" cy="40" r="36" fill="white" fill-opacity="0.7" shape-rendering="crispEdges"/>
</g>
<g filter="url(#filter1_b_14001_50652)">
<circle cx="40" cy="40" r="36" fill="url(#paint0_linear_14001_50652)" fill-opacity="0.8"/>
<circle cx="40" cy="40" r="36.4091" stroke="url(#paint1_linear_14001_50652)" stroke-width="0.818182"/>
</g>
<path fill-rule="evenodd" clip-rule="evenodd" d="M34.242 29.6643L31.4732 37.0478H48.7077L45.9389 29.6643H34.242ZM33.7303 27.4492C33.1147 27.4492 32.5638 27.8311 32.3476 28.4074L29.025 37.2676C28.663 38.233 29.3767 39.2628 30.4077 39.2628H49.7731C50.8042 39.2628 51.5178 38.233 51.1558 37.2676L47.8332 28.4074C47.6171 27.8311 47.0661 27.4492 46.4506 27.4492H33.7303Z" fill="white"/>
<path fill-rule="evenodd" clip-rule="evenodd" d="M27.0435 50.3368L29.8123 42.9533H41.5092L44.278 50.3368H27.0435ZM27.9179 41.6965C28.1341 41.1201 28.6851 40.7383 29.3006 40.7383H40.8281H42.0209H51.7039C52.3194 40.7383 52.8704 41.1201 53.0865 41.6965L56.4091 50.5567C56.7711 51.5221 56.0575 52.5519 55.0264 52.5519H45.3434H45.2582H25.978C24.947 52.5519 24.2333 51.5221 24.5954 50.5567L27.9179 41.6965ZM46.6437 50.3368H47.4665H53.961L51.1922 42.9533H44.6977H43.8749L46.6437 50.3368Z" fill="white"/>
<g filter="url(#filter2_d_14001_50652)">
<circle cx="40.5" cy="122" r="36" fill="white" fill-opacity="0.7" shape-rendering="crispEdges"/>
</g>
<g filter="url(#filter3_b_14001_50652)">
<circle cx="40.5" cy="122" r="36" fill="#C2C2C2" fill-opacity="0.06"/>
<circle cx="40.5" cy="122" r="36.4091" stroke="white" stroke-width="0.818182"/>
</g>
<path fill-rule="evenodd" clip-rule="evenodd" d="M34.242 111.664L31.4732 119.048H48.7077L45.9389 111.664H34.242ZM33.7303 109.449C33.1147 109.449 32.5638 109.831 32.3476 110.407L29.025 119.268C28.663 120.233 29.3767 121.263 30.4077 121.263H49.7731C50.8042 121.263 51.5178 120.233 51.1558 119.268L47.8332 110.407C47.6171 109.831 47.0661 109.449 46.4506 109.449H33.7303Z" fill="url(#paint2_linear_14001_50652)"/>
<path fill-rule="evenodd" clip-rule="evenodd" d="M27.0435 132.337L29.8123 124.953H41.5092L44.278 132.337H27.0435ZM27.9179 123.696C28.1341 123.12 28.6851 122.738 29.3006 122.738H40.8281H42.0209H51.7039C52.3194 122.738 52.8704 123.12 53.0865 123.696L56.4091 132.557C56.7711 133.522 56.0575 134.552 55.0264 134.552H45.3434H45.2582H25.978C24.947 134.552 24.2333 133.522 24.5954 132.557L27.9179 123.696ZM46.6437 132.337H47.4665H53.961L51.1922 124.953H44.6977H43.8749L46.6437 132.337Z" fill="url(#paint3_linear_14001_50652)"/>
<g filter="url(#filter4_d_14001_50652)">
<circle cx="40" cy="206" r="36" fill="white" fill-opacity="0.7" shape-rendering="crispEdges"/>
</g>
<g filter="url(#filter5_b_14001_50652)">
<circle cx="40" cy="206" r="36" fill="#C2C2C2" fill-opacity="0.06"/>
<circle cx="40" cy="206" r="36.4091" stroke="url(#paint4_linear_14001_50652)" stroke-width="0.818182"/>
</g>
<path fill-rule="evenodd" clip-rule="evenodd" d="M33.742 195.664L30.9732 203.048H48.2077L45.4389 195.664H33.742ZM33.2303 193.449C32.6147 193.449 32.0638 193.831 31.8476 194.407L28.525 203.268C28.163 204.233 28.8767 205.263 29.9077 205.263H49.2731C50.3042 205.263 51.0178 204.233 50.6558 203.268L47.3332 194.407C47.1171 193.831 46.5661 193.449 45.9506 193.449H33.2303Z" fill="url(#paint5_linear_14001_50652)"/>
<path fill-rule="evenodd" clip-rule="evenodd" d="M26.5435 216.337L29.3123 208.953H41.0092L43.778 216.337H26.5435ZM27.4179 207.696C27.6341 207.12 28.1851 206.738 28.8006 206.738H40.3281H41.5209H51.2039C51.8194 206.738 52.3704 207.12 52.5865 207.696L55.9091 216.557C56.2711 217.522 55.5575 218.552 54.5264 218.552H44.8434H44.7582H25.478C24.447 218.552 23.7333 217.522 24.0954 216.557L27.4179 207.696ZM46.1437 216.337H46.9665H53.461L50.6922 208.953H44.1977H43.3749L46.1437 216.337Z" fill="url(#paint6_linear_14001_50652)"/>
<defs>
<filter id="filter0_d_14001_50652" x="0" y="0" width="88" height="88" filterUnits="userSpaceOnUse" color-interpolation-filters="sRGB">
<feFlood flood-opacity="0" result="BackgroundImageFix"/>
<feColorMatrix in="SourceAlpha" type="matrix" values="0 0 0 0 0 0 0 0 0 0 0 0 0 0 0 0 0 0 127 0" result="hardAlpha"/>
<feOffset dx="4" dy="4"/>
<feGaussianBlur stdDeviation="4"/>
<feComposite in2="hardAlpha" operator="out"/>
<feColorMatrix type="matrix" values="0 0 0 0 0 0 0 0 0 0 0 0 0 0 0 0 0 0 0.17 0"/>
<feBlend mode="normal" in2="BackgroundImageFix" result="effect1_dropShadow_14001_50652"/>
<feBlend mode="normal" in="SourceGraphic" in2="effect1_dropShadow_14001_50652" result="shape"/>
</filter>
<filter id="filter1_b_14001_50652" x="-16.4547" y="-16.4546" width="112.909" height="112.909" filterUnits="userSpaceOnUse" color-interpolation-filters="sRGB">
<feFlood flood-opacity="0" result="BackgroundImageFix"/>
<feGaussianBlur in="BackgroundImageFix" stdDeviation="9.81818"/>
<feComposite in2="SourceAlpha" operator="in" result="effect1_backgroundBlur_14001_50652"/>
<feBlend mode="normal" in="SourceGraphic" in2="effect1_backgroundBlur_14001_50652" result="shape"/>
</filter>
<filter id="filter2_d_14001_50652" x="0.5" y="82" width="88" height="88" filterUnits="userSpaceOnUse" color-interpolation-filters="sRGB">
<feFlood flood-opacity="0" result="BackgroundImageFix"/>
<feColorMatrix in="SourceAlpha" type="matrix" values="0 0 0 0 0 0 0 0 0 0 0 0 0 0 0 0 0 0 127 0" result="hardAlpha"/>
<feOffset dx="4" dy="4"/>
<feGaussianBlur stdDeviation="4"/>
<feComposite in2="hardAlpha" operator="out"/>
<feColorMatrix type="matrix" values="0 0 0 0 0 0 0 0 0 0 0 0 0 0 0 0 0 0 0.17 0"/>
<feBlend mode="normal" in2="BackgroundImageFix" result="effect1_dropShadow_14001_50652"/>
<feBlend mode="normal" in="SourceGraphic" in2="effect1_dropShadow_14001_50652" result="shape"/>
</filter>
<filter id="filter3_b_14001_50652" x="-15.9547" y="65.5454" width="112.909" height="112.909" filterUnits="userSpaceOnUse" color-interpolation-filters="sRGB">
<feFlood flood-opacity="0" result="BackgroundImageFix"/>
<feGaussianBlur in="BackgroundImageFix" stdDeviation="9.81818"/>
<feComposite in2="SourceAlpha" operator="in" result="effect1_backgroundBlur_14001_50652"/>
<feBlend mode="normal" in="SourceGraphic" in2="effect1_backgroundBlur_14001_50652" result="shape"/>
</filter>
<filter id="filter4_d_14001_50652" x="0" y="166" width="88" height="88" filterUnits="userSpaceOnUse" color-interpolation-filters="sRGB">
<feFlood flood-opacity="0" result="BackgroundImageFix"/>
<feColorMatrix in="SourceAlpha" type="matrix" values="0 0 0 0 0 0 0 0 0 0 0 0 0 0 0 0 0 0 127 0" result="hardAlpha"/>
<feOffset dx="4" dy="4"/>
<feGaussianBlur stdDeviation="4"/>
<feComposite in2="hardAlpha" operator="out"/>
<feColorMatrix type="matrix" values="0 0 0 0 0 0 0 0 0 0 0 0 0 0 0 0 0 0 0.17 0"/>
<feBlend mode="normal" in2="BackgroundImageFix" result="effect1_dropShadow_14001_50652"/>
<feBlend mode="normal" in="SourceGraphic" in2="effect1_dropShadow_14001_50652" result="shape"/>
</filter>
<filter id="filter5_b_14001_50652" x="-16.4547" y="149.545" width="112.909" height="112.909" filterUnits="userSpaceOnUse" color-interpolation-filters="sRGB">
<feFlood flood-opacity="0" result="BackgroundImageFix"/>
<feGaussianBlur in="BackgroundImageFix" stdDeviation="9.81818"/>
<feComposite in2="SourceAlpha" operator="in" result="effect1_backgroundBlur_14001_50652"/>
<feBlend mode="normal" in="SourceGraphic" in2="effect1_backgroundBlur_14001_50652" result="shape"/>
</filter>
<linearGradient id="paint0_linear_14001_50652" x1="11.3848" y1="58.952" x2="69.0718" y2="1.72349" gradientUnits="userSpaceOnUse">
<stop stop-color="#8E00ED"/>
<stop offset="1" stop-color="#1384E8"/>
</linearGradient>
<linearGradient id="paint1_linear_14001_50652" x1="11.3848" y1="58.952" x2="69.0718" y2="1.72349" gradientUnits="userSpaceOnUse">
<stop stop-color="#8E00ED"/>
<stop offset="1" stop-color="#1384E8"/>
</linearGradient>
<linearGradient id="paint2_linear_14001_50652" x1="31.2191" y1="118.466" x2="39.081" y2="103.729" gradientUnits="userSpaceOnUse">
<stop stop-color="#8E00ED"/>
<stop offset="1" stop-color="#1384E8"/>
</linearGradient>
<linearGradient id="paint3_linear_14001_50652" x1="27.7826" y1="131.755" x2="33.9698" y2="115.126" gradientUnits="userSpaceOnUse">
<stop stop-color="#8E00ED"/>
<stop offset="1" stop-color="#1384E8"/>
</linearGradient>
<linearGradient id="paint4_linear_14001_50652" x1="11.3848" y1="224.952" x2="69.0718" y2="167.723" gradientUnits="userSpaceOnUse">
<stop stop-color="#8E00ED"/>
<stop offset="1" stop-color="#1384E8"/>
</linearGradient>
<linearGradient id="paint5_linear_14001_50652" x1="30.7191" y1="202.466" x2="38.581" y2="187.729" gradientUnits="userSpaceOnUse">
<stop stop-color="#8E00ED"/>
<stop offset="1" stop-color="#1384E8"/>
</linearGradient>
<linearGradient id="paint6_linear_14001_50652" x1="27.2826" y1="215.755" x2="33.4698" y2="199.126" gradientUnits="userSpaceOnUse">
<stop stop-color="#8E00ED"/>
<stop offset="1" stop-color="#1384E8"/>
</linearGradient>
</defs>
</svg>
