<svg width="89" height="254" viewBox="0 0 89 254" fill="none" xmlns="http://www.w3.org/2000/svg">
<g filter="url(#filter0_d_14001_50650)">
<circle cx="41" cy="40" r="36" fill="white" fill-opacity="0.7" shape-rendering="crispEdges"/>
</g>
<g filter="url(#filter1_b_14001_50650)">
<circle cx="41" cy="40" r="36" fill="url(#paint0_linear_14001_50650)" fill-opacity="0.8"/>
<circle cx="41" cy="40" r="36.4091" stroke="url(#paint1_linear_14001_50650)" stroke-width="0.818182"/>
</g>
<path fill-rule="evenodd" clip-rule="evenodd" d="M53.2538 30.4815C52.8663 29.9769 52.2978 29.574 51.608 29.4714V24.7654C51.608 24.1906 51.142 23.7246 50.5672 23.7246C49.9924 23.7246 49.5264 24.1906 49.5264 24.7654V29.473C48.8414 29.5782 48.2768 29.9795 47.8913 30.4815C47.4418 31.067 47.1934 31.831 47.1934 32.6329V42.6548C47.1934 43.4566 47.4418 44.2207 47.8913 44.8061C48.2768 45.3082 48.8414 45.7095 49.5264 45.8146V55.1133C49.5264 55.6881 49.9924 56.1541 50.5672 56.1541C51.142 56.1541 51.608 55.6881 51.608 55.1133V45.8162C52.2978 45.7137 52.8663 45.3108 53.2538 44.8061C53.7033 44.2207 53.9517 43.4566 53.9517 42.6548V32.6329C53.9517 31.831 53.7033 31.067 53.2538 30.4815ZM41.1297 23.7269C40.5549 23.7269 40.0889 24.1928 40.0889 24.7676V27.6227C38.7652 27.796 37.752 28.9341 37.752 30.2998V47.8976C37.752 49.2633 38.7652 50.4014 40.0889 50.5747V55.1117C40.0889 55.6865 40.5549 56.1524 41.1297 56.1524C41.7045 56.1524 42.1705 55.6865 42.1705 55.1117V50.575C43.4956 50.4031 44.5103 49.2643 44.5103 47.8976V30.2998C44.5103 28.9331 43.4956 27.7943 42.1705 27.6223V24.7676C42.1705 24.1928 41.7045 23.7269 41.1297 23.7269ZM41.8217 29.6814C42.1503 29.6814 42.4288 29.9516 42.4288 30.2998V47.8976C42.4288 48.2458 42.1503 48.5159 41.8217 48.5159H40.4405C40.112 48.5159 39.8335 48.2458 39.8335 47.8976V30.2998C39.8335 29.9516 40.112 29.6814 40.4405 29.6814H41.8217ZM51.6028 43.5384C51.7497 43.3471 51.8702 43.0382 51.8702 42.6548V32.6329C51.8702 32.2495 51.7497 31.9405 51.6028 31.7492C51.4568 31.559 51.3276 31.5276 51.2631 31.5276H49.882C49.8175 31.5276 49.6883 31.559 49.5423 31.7492C49.3954 31.9405 49.2749 32.2495 49.2749 32.6329V42.6548C49.2749 43.0382 49.3954 43.3471 49.5423 43.5384C49.6883 43.7286 49.8175 43.7601 49.882 43.7601H51.2631C51.3276 43.7601 51.4568 43.7286 51.6028 43.5384ZM32.9874 38.1304C32.9874 37.8117 32.8796 37.5536 32.7446 37.3908C32.6114 37.2303 32.4779 37.1854 32.3803 37.1854H30.9991C30.9016 37.1854 30.7681 37.2303 30.6349 37.3908C30.4999 37.5536 30.3921 37.8117 30.3921 38.1304V47.4043C30.3921 47.7231 30.4999 47.9812 30.6349 48.1439C30.7681 48.3045 30.9016 48.3494 30.9991 48.3494H32.3803C32.4779 48.3494 32.6114 48.3045 32.7446 48.1439C32.8796 47.9812 32.9874 47.7231 32.9874 47.4043V38.1304ZM30.6436 24.8868V35.1282C29.1949 35.3308 28.3105 36.758 28.3105 38.1304V47.4043C28.3105 48.7767 29.1949 50.204 30.6436 50.4065V55.2332C30.6436 55.8081 31.1096 56.274 31.6844 56.274C32.2592 56.274 32.7252 55.8081 32.7252 55.2332V50.408C34.1802 50.211 35.0689 48.7801 35.0689 47.4043V38.1304C35.0689 36.7547 34.1802 35.3238 32.7252 35.1268V24.8868C32.7252 24.312 32.2592 23.846 31.6844 23.846C31.1096 23.846 30.6436 24.312 30.6436 24.8868Z" fill="white"/>
<g filter="url(#filter2_d_14001_50650)">
<circle cx="40.5" cy="122" r="36" fill="white" fill-opacity="0.7" shape-rendering="crispEdges"/>
</g>
<g filter="url(#filter3_b_14001_50650)">
<circle cx="40.5" cy="122" r="36" fill="#C2C2C2" fill-opacity="0.06"/>
<circle cx="40.5" cy="122" r="36.4091" stroke="white" stroke-width="0.818182"/>
</g>
<path fill-rule="evenodd" clip-rule="evenodd" d="M52.7538 112.482C52.3663 111.977 51.7978 111.574 51.108 111.471V106.765C51.108 106.191 50.642 105.725 50.0672 105.725C49.4924 105.725 49.0264 106.191 49.0264 106.765V111.473C48.3414 111.578 47.7768 111.979 47.3913 112.482C46.9418 113.067 46.6934 113.831 46.6934 114.633V124.655C46.6934 125.457 46.9418 126.221 47.3913 126.806C47.7768 127.308 48.3414 127.709 49.0264 127.815V137.113C49.0264 137.688 49.4924 138.154 50.0672 138.154C50.642 138.154 51.108 137.688 51.108 137.113V127.816C51.7978 127.714 52.3663 127.311 52.7538 126.806C53.2033 126.221 53.4517 125.457 53.4517 124.655V114.633C53.4517 113.831 53.2033 113.067 52.7538 112.482ZM40.6297 105.727C40.0549 105.727 39.5889 106.193 39.5889 106.768V109.623C38.2652 109.796 37.252 110.934 37.252 112.3V129.898C37.252 131.263 38.2652 132.401 39.5889 132.575V137.112C39.5889 137.686 40.0549 138.152 40.6297 138.152C41.2045 138.152 41.6705 137.686 41.6705 137.112V132.575C42.9956 132.403 44.0103 131.264 44.0103 129.898V112.3C44.0103 110.933 42.9956 109.794 41.6705 109.622V106.768C41.6705 106.193 41.2045 105.727 40.6297 105.727ZM41.3217 111.681C41.6503 111.681 41.9288 111.952 41.9288 112.3V129.898C41.9288 130.246 41.6503 130.516 41.3217 130.516H39.9405C39.612 130.516 39.3335 130.246 39.3335 129.898V112.3C39.3335 111.952 39.612 111.681 39.9405 111.681H41.3217ZM51.1028 125.538C51.2497 125.347 51.3702 125.038 51.3702 124.655V114.633C51.3702 114.249 51.2497 113.941 51.1028 113.749C50.9568 113.559 50.8276 113.528 50.7631 113.528H49.382C49.3175 113.528 49.1883 113.559 49.0423 113.749C48.8954 113.941 48.7749 114.249 48.7749 114.633V124.655C48.7749 125.038 48.8954 125.347 49.0423 125.538C49.1883 125.729 49.3175 125.76 49.382 125.76H50.7631C50.8276 125.76 50.9568 125.729 51.1028 125.538ZM32.4874 120.13C32.4874 119.812 32.3796 119.554 32.2446 119.391C32.1114 119.23 31.9779 119.185 31.8803 119.185H30.4991C30.4016 119.185 30.2681 119.23 30.1349 119.391C29.9999 119.554 29.8921 119.812 29.8921 120.13V129.404C29.8921 129.723 29.9999 129.981 30.1349 130.144C30.2681 130.304 30.4016 130.349 30.4991 130.349H31.8803C31.9779 130.349 32.1114 130.304 32.2446 130.144C32.3796 129.981 32.4874 129.723 32.4874 129.404V120.13ZM30.1436 106.887V117.128C28.6949 117.331 27.8105 118.758 27.8105 120.13V129.404C27.8105 130.777 28.6949 132.204 30.1436 132.407V137.233C30.1436 137.808 30.6096 138.274 31.1844 138.274C31.7592 138.274 32.2252 137.808 32.2252 137.233V132.408C33.6802 132.211 34.5689 130.78 34.5689 129.404V120.13C34.5689 118.755 33.6802 117.324 32.2252 117.127V106.887C32.2252 106.312 31.7592 105.846 31.1844 105.846C30.6096 105.846 30.1436 106.312 30.1436 106.887Z" fill="url(#paint2_linear_14001_50650)"/>
<g filter="url(#filter4_d_14001_50650)">
<circle cx="40" cy="206" r="36" fill="white" fill-opacity="0.7" shape-rendering="crispEdges"/>
</g>
<g filter="url(#filter5_b_14001_50650)">
<circle cx="40" cy="206" r="36" fill="#C2C2C2" fill-opacity="0.06"/>
<circle cx="40" cy="206" r="36.4091" stroke="url(#paint3_linear_14001_50650)" stroke-width="0.818182"/>
</g>
<path fill-rule="evenodd" clip-rule="evenodd" d="M52.2538 196.482C51.8663 195.977 51.2978 195.574 50.608 195.471V190.765C50.608 190.191 50.142 189.725 49.5672 189.725C48.9924 189.725 48.5264 190.191 48.5264 190.765V195.473C47.8414 195.578 47.2768 195.979 46.8913 196.482C46.4418 197.067 46.1934 197.831 46.1934 198.633V208.655C46.1934 209.457 46.4418 210.221 46.8913 210.806C47.2768 211.308 47.8414 211.709 48.5264 211.815V221.113C48.5264 221.688 48.9924 222.154 49.5672 222.154C50.142 222.154 50.608 221.688 50.608 221.113V211.816C51.2978 211.714 51.8663 211.311 52.2538 210.806C52.7033 210.221 52.9517 209.457 52.9517 208.655V198.633C52.9517 197.831 52.7033 197.067 52.2538 196.482ZM40.1297 189.727C39.5549 189.727 39.0889 190.193 39.0889 190.768V193.623C37.7652 193.796 36.752 194.934 36.752 196.3V213.898C36.752 215.263 37.7652 216.401 39.0889 216.575V221.112C39.0889 221.686 39.5549 222.152 40.1297 222.152C40.7045 222.152 41.1705 221.686 41.1705 221.112V216.575C42.4956 216.403 43.5103 215.264 43.5103 213.898V196.3C43.5103 194.933 42.4956 193.794 41.1705 193.622V190.768C41.1705 190.193 40.7045 189.727 40.1297 189.727ZM40.8217 195.681C41.1503 195.681 41.4288 195.952 41.4288 196.3V213.898C41.4288 214.246 41.1503 214.516 40.8217 214.516H39.4405C39.112 214.516 38.8335 214.246 38.8335 213.898V196.3C38.8335 195.952 39.112 195.681 39.4405 195.681H40.8217ZM50.6028 209.538C50.7497 209.347 50.8702 209.038 50.8702 208.655V198.633C50.8702 198.249 50.7497 197.941 50.6028 197.749C50.4568 197.559 50.3276 197.528 50.2631 197.528H48.882C48.8175 197.528 48.6883 197.559 48.5423 197.749C48.3954 197.941 48.2749 198.249 48.2749 198.633V208.655C48.2749 209.038 48.3954 209.347 48.5423 209.538C48.6883 209.729 48.8175 209.76 48.882 209.76H50.2631C50.3276 209.76 50.4568 209.729 50.6028 209.538ZM31.9874 204.13C31.9874 203.812 31.8796 203.554 31.7446 203.391C31.6114 203.23 31.4779 203.185 31.3803 203.185H29.9991C29.9016 203.185 29.7681 203.23 29.6349 203.391C29.4999 203.554 29.3921 203.812 29.3921 204.13V213.404C29.3921 213.723 29.4999 213.981 29.6349 214.144C29.7681 214.304 29.9016 214.349 29.9991 214.349H31.3803C31.4779 214.349 31.6114 214.304 31.7446 214.144C31.8796 213.981 31.9874 213.723 31.9874 213.404V204.13ZM29.6436 190.887V201.128C28.1949 201.331 27.3105 202.758 27.3105 204.13V213.404C27.3105 214.777 28.1949 216.204 29.6436 216.407V221.233C29.6436 221.808 30.1096 222.274 30.6844 222.274C31.2592 222.274 31.7252 221.808 31.7252 221.233V216.408C33.1802 216.211 34.0689 214.78 34.0689 213.404V204.13C34.0689 202.755 33.1802 201.324 31.7252 201.127V190.887C31.7252 190.312 31.2592 189.846 30.6844 189.846C30.1096 189.846 29.6436 190.312 29.6436 190.887Z" fill="url(#paint4_linear_14001_50650)"/>
<defs>
<filter id="filter0_d_14001_50650" x="1" y="0" width="88" height="88" filterUnits="userSpaceOnUse" color-interpolation-filters="sRGB">
<feFlood flood-opacity="0" result="BackgroundImageFix"/>
<feColorMatrix in="SourceAlpha" type="matrix" values="0 0 0 0 0 0 0 0 0 0 0 0 0 0 0 0 0 0 127 0" result="hardAlpha"/>
<feOffset dx="4" dy="4"/>
<feGaussianBlur stdDeviation="4"/>
<feComposite in2="hardAlpha" operator="out"/>
<feColorMatrix type="matrix" values="0 0 0 0 0 0 0 0 0 0 0 0 0 0 0 0 0 0 0.17 0"/>
<feBlend mode="normal" in2="BackgroundImageFix" result="effect1_dropShadow_14001_50650"/>
<feBlend mode="normal" in="SourceGraphic" in2="effect1_dropShadow_14001_50650" result="shape"/>
</filter>
<filter id="filter1_b_14001_50650" x="-15.4547" y="-16.4546" width="112.909" height="112.909" filterUnits="userSpaceOnUse" color-interpolation-filters="sRGB">
<feFlood flood-opacity="0" result="BackgroundImageFix"/>
<feGaussianBlur in="BackgroundImageFix" stdDeviation="9.81818"/>
<feComposite in2="SourceAlpha" operator="in" result="effect1_backgroundBlur_14001_50650"/>
<feBlend mode="normal" in="SourceGraphic" in2="effect1_backgroundBlur_14001_50650" result="shape"/>
</filter>
<filter id="filter2_d_14001_50650" x="0.5" y="82" width="88" height="88" filterUnits="userSpaceOnUse" color-interpolation-filters="sRGB">
<feFlood flood-opacity="0" result="BackgroundImageFix"/>
<feColorMatrix in="SourceAlpha" type="matrix" values="0 0 0 0 0 0 0 0 0 0 0 0 0 0 0 0 0 0 127 0" result="hardAlpha"/>
<feOffset dx="4" dy="4"/>
<feGaussianBlur stdDeviation="4"/>
<feComposite in2="hardAlpha" operator="out"/>
<feColorMatrix type="matrix" values="0 0 0 0 0 0 0 0 0 0 0 0 0 0 0 0 0 0 0.17 0"/>
<feBlend mode="normal" in2="BackgroundImageFix" result="effect1_dropShadow_14001_50650"/>
<feBlend mode="normal" in="SourceGraphic" in2="effect1_dropShadow_14001_50650" result="shape"/>
</filter>
<filter id="filter3_b_14001_50650" x="-15.9547" y="65.5454" width="112.909" height="112.909" filterUnits="userSpaceOnUse" color-interpolation-filters="sRGB">
<feFlood flood-opacity="0" result="BackgroundImageFix"/>
<feGaussianBlur in="BackgroundImageFix" stdDeviation="9.81818"/>
<feComposite in2="SourceAlpha" operator="in" result="effect1_backgroundBlur_14001_50650"/>
<feBlend mode="normal" in="SourceGraphic" in2="effect1_backgroundBlur_14001_50650" result="shape"/>
</filter>
<filter id="filter4_d_14001_50650" x="0" y="166" width="88" height="88" filterUnits="userSpaceOnUse" color-interpolation-filters="sRGB">
<feFlood flood-opacity="0" result="BackgroundImageFix"/>
<feColorMatrix in="SourceAlpha" type="matrix" values="0 0 0 0 0 0 0 0 0 0 0 0 0 0 0 0 0 0 127 0" result="hardAlpha"/>
<feOffset dx="4" dy="4"/>
<feGaussianBlur stdDeviation="4"/>
<feComposite in2="hardAlpha" operator="out"/>
<feColorMatrix type="matrix" values="0 0 0 0 0 0 0 0 0 0 0 0 0 0 0 0 0 0 0.17 0"/>
<feBlend mode="normal" in2="BackgroundImageFix" result="effect1_dropShadow_14001_50650"/>
<feBlend mode="normal" in="SourceGraphic" in2="effect1_dropShadow_14001_50650" result="shape"/>
</filter>
<filter id="filter5_b_14001_50650" x="-16.4547" y="149.545" width="112.909" height="112.909" filterUnits="userSpaceOnUse" color-interpolation-filters="sRGB">
<feFlood flood-opacity="0" result="BackgroundImageFix"/>
<feGaussianBlur in="BackgroundImageFix" stdDeviation="9.81818"/>
<feComposite in2="SourceAlpha" operator="in" result="effect1_backgroundBlur_14001_50650"/>
<feBlend mode="normal" in="SourceGraphic" in2="effect1_backgroundBlur_14001_50650" result="shape"/>
</filter>
<linearGradient id="paint0_linear_14001_50650" x1="12.3848" y1="58.952" x2="70.0718" y2="1.72349" gradientUnits="userSpaceOnUse">
<stop stop-color="#8E00ED"/>
<stop offset="1" stop-color="#1384E8"/>
</linearGradient>
<linearGradient id="paint1_linear_14001_50650" x1="12.3848" y1="58.952" x2="70.0718" y2="1.72349" gradientUnits="userSpaceOnUse">
<stop stop-color="#8E00ED"/>
<stop offset="1" stop-color="#1384E8"/>
</linearGradient>
<linearGradient id="paint2_linear_14001_50650" x1="30.4405" y1="130.567" x2="55.7472" y2="110.79" gradientUnits="userSpaceOnUse">
<stop stop-color="#8E00ED"/>
<stop offset="1" stop-color="#1384E8"/>
</linearGradient>
<linearGradient id="paint3_linear_14001_50650" x1="11.3848" y1="224.952" x2="69.0718" y2="167.723" gradientUnits="userSpaceOnUse">
<stop stop-color="#8E00ED"/>
<stop offset="1" stop-color="#1384E8"/>
</linearGradient>
<linearGradient id="paint4_linear_14001_50650" x1="29.9405" y1="214.567" x2="55.2472" y2="194.79" gradientUnits="userSpaceOnUse">
<stop stop-color="#8E00ED"/>
<stop offset="1" stop-color="#1384E8"/>
</linearGradient>
</defs>
</svg>
