<svg width="88" height="254" viewBox="0 0 88 254" fill="none" xmlns="http://www.w3.org/2000/svg">
<g filter="url(#filter0_d_14001_50654)">
<circle cx="40" cy="40" r="36" fill="white" fill-opacity="0.7" shape-rendering="crispEdges"/>
</g>
<g filter="url(#filter1_b_14001_50654)">
<circle cx="40" cy="40" r="36" fill="url(#paint0_linear_14001_50654)" fill-opacity="0.8"/>
<circle cx="40" cy="40" r="36.4091" stroke="url(#paint1_linear_14001_50654)" stroke-width="0.818182"/>
</g>
<path fill-rule="evenodd" clip-rule="evenodd" d="M38.992 32.2362C38.992 31.6657 38.5294 31.2031 37.9589 31.2031C37.3883 31.2031 36.9258 31.6657 36.9258 32.2362V33.959H35.205C34.6344 33.959 34.1719 34.4215 34.1719 34.9921C34.1719 35.5626 34.6344 36.0252 35.205 36.0252H36.0117V40.5018V44.9786H35.205C34.6344 44.9786 34.1719 45.4411 34.1719 46.0117C34.1719 46.5822 34.6344 47.0448 35.205 47.0448H36.9258V48.7665C36.9258 49.3371 37.3883 49.7996 37.9589 49.7996C38.5294 49.7996 38.992 49.3371 38.992 48.7665V47.0448H40.6016V48.7665C40.6016 49.3371 41.0641 49.7996 41.6347 49.7996C42.2052 49.7996 42.6677 49.3371 42.6677 48.7665V47.043C43.6302 47.0134 44.547 46.6182 45.2299 45.9353C45.9403 45.2249 46.3394 44.2614 46.3394 43.2568C46.3394 42.2521 45.9403 41.2887 45.2299 40.5783C45.204 40.5524 45.1778 40.5269 45.1513 40.5019C45.1778 40.4768 45.204 40.4514 45.2299 40.4255C45.9403 39.7151 46.3394 38.7516 46.3394 37.747C46.3394 36.7423 45.9403 35.7788 45.2299 35.0685C44.547 34.3855 43.6302 33.9903 42.6677 33.9608V32.2362C42.6677 31.6657 42.2052 31.2031 41.6347 31.2031C41.0641 31.2031 40.6016 31.6657 40.6016 32.2362V33.959H38.992V32.2362ZM38.0779 36.0252V39.4688H42.5546C42.5566 39.4688 42.5586 39.4688 42.5606 39.4688C43.0139 39.4663 43.4482 39.2852 43.7689 38.9645C44.0918 38.6416 44.2732 38.2036 44.2732 37.747C44.2732 37.2903 44.0918 36.8524 43.7689 36.5295C43.446 36.2066 43.008 36.0252 42.5514 36.0252H38.0779ZM42.542 41.5349H38.0779V44.9786H41.6213C41.6258 44.9785 41.6302 44.9785 41.6347 44.9785C41.6391 44.9785 41.6435 44.9785 41.648 44.9786H42.5514C43.008 44.9786 43.446 44.7972 43.7689 44.4743C44.0918 44.1514 44.2732 43.7134 44.2732 43.2568C44.2732 42.8001 44.0918 42.3622 43.7689 42.0393C43.446 41.7164 43.008 41.535 42.5514 41.535C42.5482 41.535 42.5451 41.535 42.542 41.5349Z" fill="white"/>
<path d="M36.9258 33.959V34.209C37.0639 34.209 37.1758 34.0971 37.1758 33.959H36.9258ZM36.0117 36.0252H36.2617C36.2617 35.8871 36.1498 35.7752 36.0117 35.7752V36.0252ZM36.0117 44.9786V45.2286C36.1498 45.2286 36.2617 45.1167 36.2617 44.9786H36.0117ZM36.9258 47.0448H37.1758C37.1758 46.9067 37.0639 46.7948 36.9258 46.7948V47.0448ZM38.992 47.0448V46.7948C38.8539 46.7948 38.742 46.9067 38.742 47.0448H38.992ZM40.6016 47.0448H40.8516C40.8516 46.9067 40.7396 46.7948 40.6016 46.7948V47.0448ZM42.6677 47.043L42.6601 46.7931C42.525 46.7973 42.4177 46.9079 42.4177 47.043H42.6677ZM45.2299 45.9353L45.4067 46.1121L45.2299 45.9353ZM45.2299 40.5783L45.4067 40.4015L45.4067 40.4015L45.2299 40.5783ZM45.1513 40.5019L44.9797 40.3201C44.9296 40.3673 44.9013 40.4331 44.9013 40.5019C44.9013 40.5707 44.9296 40.6365 44.9797 40.6837L45.1513 40.5019ZM45.2299 40.4255L45.0531 40.2487L45.2299 40.4255ZM45.2299 35.0685L45.4067 34.8917V34.8917L45.2299 35.0685ZM42.6677 33.9608H42.4177C42.4177 34.0959 42.525 34.2065 42.6601 34.2107L42.6677 33.9608ZM40.6016 33.959V34.209C40.7396 34.209 40.8516 34.0971 40.8516 33.959H40.6016ZM38.992 33.959H38.742C38.742 34.0971 38.8539 34.209 38.992 34.209V33.959ZM38.0779 36.0252V35.7752C37.9398 35.7752 37.8279 35.8871 37.8279 36.0252H38.0779ZM38.0779 39.4688H37.8279C37.8279 39.6068 37.9398 39.7188 38.0779 39.7188V39.4688ZM42.5606 39.4688L42.5592 39.7188L42.562 39.7188L42.5606 39.4688ZM43.7689 38.9645L43.5921 38.7877L43.7689 38.9645ZM43.7689 36.5295L43.5921 36.7062V36.7062L43.7689 36.5295ZM42.542 41.5349L42.5442 41.2849H42.542V41.5349ZM38.0779 41.5349V41.2849C37.9398 41.2849 37.8279 41.3969 37.8279 41.5349H38.0779ZM38.0779 44.9786H37.8279C37.8279 45.1167 37.9398 45.2286 38.0779 45.2286V44.9786ZM41.6213 44.9786V45.2286L41.6245 45.2286L41.6213 44.9786ZM41.648 44.9786L41.6448 45.2286H41.648V44.9786ZM37.9589 31.4531C38.3914 31.4531 38.742 31.8037 38.742 32.2362H39.242C39.242 31.5276 38.6675 30.9531 37.9589 30.9531V31.4531ZM37.1758 32.2362C37.1758 31.8037 37.5264 31.4531 37.9589 31.4531V30.9531C37.2502 30.9531 36.6758 31.5276 36.6758 32.2362H37.1758ZM37.1758 33.959V32.2362H36.6758V33.959H37.1758ZM35.205 34.209H36.9258V33.709H35.205V34.209ZM34.4219 34.9921C34.4219 34.5596 34.7725 34.209 35.205 34.209V33.709C34.4963 33.709 33.9219 34.2834 33.9219 34.9921H34.4219ZM35.205 35.7752C34.7725 35.7752 34.4219 35.4246 34.4219 34.9921H33.9219C33.9219 35.7007 34.4963 36.2752 35.205 36.2752V35.7752ZM36.0117 35.7752H35.205V36.2752H36.0117V35.7752ZM36.2617 40.5018V36.0252H35.7617V40.5018H36.2617ZM36.2617 44.9786V40.5018H35.7617V44.9786H36.2617ZM35.205 45.2286H36.0117V44.7286H35.205V45.2286ZM34.4219 46.0117C34.4219 45.5792 34.7725 45.2286 35.205 45.2286V44.7286C34.4963 44.7286 33.9219 45.3031 33.9219 46.0117H34.4219ZM35.205 46.7948C34.7725 46.7948 34.4219 46.4442 34.4219 46.0117H33.9219C33.9219 46.7203 34.4963 47.2948 35.205 47.2948V46.7948ZM36.9258 46.7948H35.205V47.2948H36.9258V46.7948ZM37.1758 48.7665V47.0448H36.6758V48.7665H37.1758ZM37.9589 49.5496C37.5264 49.5496 37.1758 49.199 37.1758 48.7665H36.6758C36.6758 49.4751 37.2502 50.0496 37.9589 50.0496V49.5496ZM38.742 48.7665C38.742 49.199 38.3914 49.5496 37.9589 49.5496V50.0496C38.6675 50.0496 39.242 49.4751 39.242 48.7665H38.742ZM38.742 47.0448V48.7665H39.242V47.0448H38.742ZM40.6016 46.7948H38.992V47.2948H40.6016V46.7948ZM40.3516 47.0448V48.7665H40.8516V47.0448H40.3516ZM40.3516 48.7665C40.3516 49.4751 40.926 50.0496 41.6347 50.0496V49.5496C41.2022 49.5496 40.8516 49.199 40.8516 48.7665H40.3516ZM41.6347 50.0496C42.3433 50.0496 42.9177 49.4751 42.9177 48.7665H42.4177C42.4177 49.199 42.0671 49.5496 41.6347 49.5496V50.0496ZM42.9177 48.7665V47.043H42.4177V48.7665H42.9177ZM45.0531 45.7585C44.4153 46.3964 43.559 46.7655 42.6601 46.7931L42.6754 47.2929C43.7014 47.2614 44.6787 46.8401 45.4067 46.1121L45.0531 45.7585ZM46.0894 43.2568C46.0894 44.1951 45.7166 45.095 45.0531 45.7585L45.4067 46.1121C46.1639 45.3548 46.5894 44.3277 46.5894 43.2568H46.0894ZM45.0531 40.755C45.7166 41.4185 46.0894 42.3185 46.0894 43.2568H46.5894C46.5894 42.1858 46.1639 41.1588 45.4067 40.4015L45.0531 40.755ZM44.9797 40.6837C45.0045 40.7071 45.0289 40.7309 45.0531 40.755L45.4067 40.4015C45.3791 40.3739 45.3511 40.3468 45.3229 40.3201L44.9797 40.6837ZM45.0531 40.2487C45.0289 40.2729 45.0045 40.2967 44.9797 40.3201L45.3229 40.6837C45.3511 40.657 45.3791 40.6298 45.4067 40.6023L45.0531 40.2487ZM46.0894 37.747C46.0894 38.6853 45.7166 39.5852 45.0531 40.2487L45.4067 40.6023C46.1639 39.845 46.5894 38.8179 46.5894 37.747H46.0894ZM45.0531 35.2452C45.7166 35.9087 46.0894 36.8086 46.0894 37.747H46.5894C46.5894 36.676 46.1639 35.649 45.4067 34.8917L45.0531 35.2452ZM42.6601 34.2107C43.559 34.2383 44.4153 34.6074 45.0531 35.2452L45.4067 34.8917C44.6787 34.1637 43.7014 33.7424 42.6754 33.7109L42.6601 34.2107ZM42.9177 33.9608V32.2362H42.4177V33.9608H42.9177ZM42.9177 32.2362C42.9177 31.5276 42.3433 30.9531 41.6347 30.9531V31.4531C42.0671 31.4531 42.4177 31.8037 42.4177 32.2362H42.9177ZM41.6347 30.9531C40.926 30.9531 40.3516 31.5276 40.3516 32.2362H40.8516C40.8516 31.8037 41.2022 31.4531 41.6347 31.4531V30.9531ZM40.3516 32.2362V33.959H40.8516V32.2362H40.3516ZM38.992 34.209H40.6016V33.709H38.992V34.209ZM38.742 32.2362V33.959H39.242V32.2362H38.742ZM37.8279 36.0252V39.4688H38.3279V36.0252H37.8279ZM38.0779 39.7188H42.5546V39.2188H38.0779V39.7188ZM42.5546 39.7188C42.5561 39.7188 42.5577 39.7188 42.5592 39.7188L42.5621 39.2188C42.5596 39.2188 42.5571 39.2188 42.5546 39.2188V39.7188ZM42.562 39.7188C43.0811 39.716 43.5784 39.5085 43.9457 39.1413L43.5921 38.7877C43.318 39.0619 42.9468 39.2167 42.5593 39.2188L42.562 39.7188ZM43.9457 39.1413C44.3154 38.7715 44.5232 38.2699 44.5232 37.747H44.0232C44.0232 38.1373 43.8681 38.5117 43.5921 38.7877L43.9457 39.1413ZM44.5232 37.747C44.5232 37.224 44.3154 36.7225 43.9457 36.3527L43.5921 36.7062C43.8681 36.9823 44.0232 37.3566 44.0232 37.747H44.5232ZM43.9457 36.3527C43.5759 35.9829 43.0743 35.7752 42.5514 35.7752V36.2752C42.9417 36.2752 43.3161 36.4302 43.5921 36.7062L43.9457 36.3527ZM42.5514 35.7752H38.0779V36.2752H42.5514V35.7752ZM42.542 41.2849H38.0779V41.7849H42.542V41.2849ZM37.8279 41.5349V44.9786H38.3279V41.5349H37.8279ZM38.0779 45.2286H41.6213V44.7286H38.0779V45.2286ZM41.6347 44.7285C41.6292 44.7285 41.6237 44.7285 41.6182 44.7286L41.6245 45.2286C41.6279 45.2285 41.6312 45.2285 41.6347 45.2285V44.7285ZM41.6511 44.7286C41.6456 44.7285 41.6401 44.7285 41.6347 44.7285V45.2285C41.6381 45.2285 41.6414 45.2285 41.6448 45.2286L41.6511 44.7286ZM41.648 45.2286H42.5514V44.7286H41.648V45.2286ZM42.5514 45.2286C43.0743 45.2286 43.5759 45.0209 43.9457 44.6511L43.5921 44.2975C43.3161 44.5735 42.9417 44.7286 42.5514 44.7286V45.2286ZM43.9457 44.6511C44.3154 44.2813 44.5232 43.7797 44.5232 43.2568H44.0232C44.0232 43.6471 43.8681 44.0215 43.5921 44.2975L43.9457 44.6511ZM44.5232 43.2568C44.5232 42.7338 44.3154 42.2323 43.9457 41.8625L43.5921 42.2161C43.8681 42.4921 44.0232 42.8664 44.0232 43.2568H44.5232ZM43.9457 41.8625C43.5759 41.4927 43.0743 41.285 42.5514 41.285V41.785C42.9417 41.785 43.3161 41.94 43.5921 42.2161L43.9457 41.8625ZM42.5514 41.285C42.549 41.285 42.5466 41.285 42.5442 41.2849L42.5398 41.7849C42.5436 41.785 42.5475 41.785 42.5514 41.785V41.285Z" fill="#FBFBFB"/>
<path fill-rule="evenodd" clip-rule="evenodd" d="M40.0008 53.6067C47.239 53.6067 53.1067 47.739 53.1067 40.5008C53.1067 33.2626 47.239 27.3948 40.0008 27.3948C32.7626 27.3948 26.8948 33.2626 26.8948 40.5008C26.8948 47.739 32.7626 53.6067 40.0008 53.6067ZM40.0008 55.9195C48.5163 55.9195 55.4195 49.0163 55.4195 40.5008C55.4195 31.9852 48.5163 25.082 40.0008 25.082C31.4852 25.082 24.582 31.9852 24.582 40.5008C24.582 49.0163 31.4852 55.9195 40.0008 55.9195Z" fill="white" stroke="#FBFBFB" stroke-width="0.5"/>
<g filter="url(#filter2_d_14001_50654)">
<circle cx="40" cy="206" r="36" fill="white" fill-opacity="0.7" shape-rendering="crispEdges"/>
</g>
<g filter="url(#filter3_b_14001_50654)">
<circle cx="40" cy="206" r="36" fill="#C2C2C2" fill-opacity="0.06"/>
<circle cx="40" cy="206" r="36.4091" stroke="url(#paint2_linear_14001_50654)" stroke-width="0.818182"/>
</g>
<path fill-rule="evenodd" clip-rule="evenodd" d="M38.992 197.736C38.992 197.166 38.5294 196.703 37.9589 196.703C37.3883 196.703 36.9258 197.166 36.9258 197.736V199.459H35.205C34.6344 199.459 34.1719 199.922 34.1719 200.492C34.1719 201.063 34.6344 201.525 35.205 201.525H36.0117V206.002V210.479H35.205C34.6344 210.479 34.1719 210.941 34.1719 211.512C34.1719 212.082 34.6344 212.545 35.205 212.545H36.9258V214.267C36.9258 214.837 37.3883 215.3 37.9589 215.3C38.5294 215.3 38.992 214.837 38.992 214.267V212.545H40.6016V214.267C40.6016 214.837 41.0641 215.3 41.6347 215.3C42.2052 215.3 42.6677 214.837 42.6677 214.267V212.543C43.6302 212.513 44.547 212.118 45.2299 211.435C45.9403 210.725 46.3394 209.761 46.3394 208.757C46.3394 207.752 45.9403 206.789 45.2299 206.078C45.204 206.052 45.1778 206.027 45.1513 206.002C45.1778 205.977 45.204 205.951 45.2299 205.925C45.9403 205.215 46.3394 204.252 46.3394 203.247C46.3394 202.242 45.9403 201.279 45.2299 200.568C44.547 199.886 43.6302 199.49 42.6677 199.461V197.736C42.6677 197.166 42.2052 196.703 41.6347 196.703C41.0641 196.703 40.6016 197.166 40.6016 197.736V199.459H38.992V197.736ZM38.0779 201.525V204.969H42.5546C42.5566 204.969 42.5586 204.969 42.5606 204.969C43.0139 204.966 43.4482 204.785 43.7689 204.464C44.0918 204.142 44.2732 203.704 44.2732 203.247C44.2732 202.79 44.0918 202.352 43.7689 202.029C43.446 201.707 43.008 201.525 42.5514 201.525H38.0779ZM42.542 207.035H38.0779V210.479H41.6213C41.6258 210.479 41.6302 210.479 41.6347 210.479C41.6391 210.479 41.6435 210.479 41.648 210.479H42.5514C43.008 210.479 43.446 210.297 43.7689 209.974C44.0918 209.651 44.2732 209.213 44.2732 208.757C44.2732 208.3 44.0918 207.862 43.7689 207.539C43.446 207.216 43.008 207.035 42.5514 207.035C42.5482 207.035 42.5451 207.035 42.542 207.035Z" fill="url(#paint3_linear_14001_50654)"/>
<path d="M36.9258 199.459V199.709C37.0639 199.709 37.1758 199.597 37.1758 199.459H36.9258ZM36.0117 201.525H36.2617C36.2617 201.387 36.1498 201.275 36.0117 201.275V201.525ZM36.0117 210.479V210.729C36.1498 210.729 36.2617 210.617 36.2617 210.479H36.0117ZM36.9258 212.545H37.1758C37.1758 212.407 37.0639 212.295 36.9258 212.295V212.545ZM38.992 212.545V212.295C38.8539 212.295 38.742 212.407 38.742 212.545H38.992ZM40.6016 212.545H40.8516C40.8516 212.407 40.7396 212.295 40.6016 212.295V212.545ZM42.6677 212.543L42.6601 212.293C42.525 212.297 42.4177 212.408 42.4177 212.543H42.6677ZM45.2299 211.435L45.4067 211.612L45.4067 211.612L45.2299 211.435ZM45.2299 206.078L45.4067 205.901L45.4067 205.901L45.2299 206.078ZM45.1513 206.002L44.9797 205.82C44.9296 205.867 44.9013 205.933 44.9013 206.002C44.9013 206.071 44.9296 206.136 44.9797 206.184L45.1513 206.002ZM45.2299 205.925L45.0531 205.749L45.0531 205.749L45.2299 205.925ZM45.2299 200.568L45.4067 200.392L45.4067 200.392L45.2299 200.568ZM42.6677 199.461H42.4177C42.4177 199.596 42.525 199.707 42.6601 199.711L42.6677 199.461ZM40.6016 199.459V199.709C40.7396 199.709 40.8516 199.597 40.8516 199.459H40.6016ZM38.992 199.459H38.742C38.742 199.597 38.8539 199.709 38.992 199.709V199.459ZM38.0779 201.525V201.275C37.9398 201.275 37.8279 201.387 37.8279 201.525H38.0779ZM38.0779 204.969H37.8279C37.8279 205.107 37.9398 205.219 38.0779 205.219V204.969ZM42.5606 204.969L42.5592 205.219L42.562 205.219L42.5606 204.969ZM43.7689 204.464L43.5921 204.288L43.5921 204.288L43.7689 204.464ZM43.7689 202.029L43.5921 202.206L43.5921 202.206L43.7689 202.029ZM42.542 207.035L42.5442 206.785H42.542V207.035ZM38.0779 207.035V206.785C37.9398 206.785 37.8279 206.897 37.8279 207.035H38.0779ZM38.0779 210.479H37.8279C37.8279 210.617 37.9398 210.729 38.0779 210.729V210.479ZM41.6213 210.479V210.729L41.6245 210.729L41.6213 210.479ZM41.648 210.479L41.6448 210.729H41.648V210.479ZM37.9589 196.953C38.3914 196.953 38.742 197.304 38.742 197.736H39.242C39.242 197.028 38.6675 196.453 37.9589 196.453V196.953ZM37.1758 197.736C37.1758 197.304 37.5264 196.953 37.9589 196.953V196.453C37.2502 196.453 36.6758 197.028 36.6758 197.736H37.1758ZM37.1758 199.459V197.736H36.6758V199.459H37.1758ZM35.205 199.709H36.9258V199.209H35.205V199.709ZM34.4219 200.492C34.4219 200.06 34.7725 199.709 35.205 199.709V199.209C34.4963 199.209 33.9219 199.783 33.9219 200.492H34.4219ZM35.205 201.275C34.7725 201.275 34.4219 200.925 34.4219 200.492H33.9219C33.9219 201.201 34.4963 201.775 35.205 201.775V201.275ZM36.0117 201.275H35.205V201.775H36.0117V201.275ZM36.2617 206.002V201.525H35.7617V206.002H36.2617ZM36.2617 210.479V206.002H35.7617V210.479H36.2617ZM35.205 210.729H36.0117V210.229H35.205V210.729ZM34.4219 211.512C34.4219 211.079 34.7725 210.729 35.205 210.729V210.229C34.4963 210.229 33.9219 210.803 33.9219 211.512H34.4219ZM35.205 212.295C34.7725 212.295 34.4219 211.944 34.4219 211.512H33.9219C33.9219 212.22 34.4963 212.795 35.205 212.795V212.295ZM36.9258 212.295H35.205V212.795H36.9258V212.295ZM37.1758 214.267V212.545H36.6758V214.267H37.1758ZM37.9589 215.05C37.5264 215.05 37.1758 214.699 37.1758 214.267H36.6758C36.6758 214.975 37.2502 215.55 37.9589 215.55V215.05ZM38.742 214.267C38.742 214.699 38.3914 215.05 37.9589 215.05V215.55C38.6675 215.55 39.242 214.975 39.242 214.267H38.742ZM38.742 212.545V214.267H39.242V212.545H38.742ZM40.6016 212.295H38.992V212.795H40.6016V212.295ZM40.3516 212.545V214.267H40.8516V212.545H40.3516ZM40.3516 214.267C40.3516 214.975 40.926 215.55 41.6347 215.55V215.05C41.2022 215.05 40.8516 214.699 40.8516 214.267H40.3516ZM41.6347 215.55C42.3433 215.55 42.9177 214.975 42.9177 214.267H42.4177C42.4177 214.699 42.0671 215.05 41.6347 215.05V215.55ZM42.9177 214.267V212.543H42.4177V214.267H42.9177ZM45.0531 211.259C44.4153 211.896 43.559 212.266 42.6601 212.293L42.6754 212.793C43.7014 212.761 44.6787 212.34 45.4067 211.612L45.0531 211.259ZM46.0894 208.757C46.0894 209.695 45.7166 210.595 45.0531 211.259L45.4067 211.612C46.1639 210.855 46.5894 209.828 46.5894 208.757H46.0894ZM45.0531 206.255C45.7166 206.919 46.0894 207.818 46.0894 208.757H46.5894C46.5894 207.686 46.1639 206.659 45.4067 205.901L45.0531 206.255ZM44.9797 206.184C45.0045 206.207 45.0289 206.231 45.0531 206.255L45.4067 205.901C45.3791 205.874 45.3511 205.847 45.3229 205.82L44.9797 206.184ZM45.0531 205.749C45.0289 205.773 45.0045 205.797 44.9797 205.82L45.3229 206.184C45.3511 206.157 45.3791 206.13 45.4067 206.102L45.0531 205.749ZM46.0894 203.247C46.0894 204.185 45.7166 205.085 45.0531 205.749L45.4067 206.102C46.1639 205.345 46.5894 204.318 46.5894 203.247H46.0894ZM45.0531 200.745C45.7166 201.409 46.0894 202.309 46.0894 203.247H46.5894C46.5894 202.176 46.1639 201.149 45.4067 200.392L45.0531 200.745ZM42.6601 199.711C43.559 199.738 44.4153 200.107 45.0531 200.745L45.4067 200.392C44.6787 199.664 43.7014 199.242 42.6754 199.211L42.6601 199.711ZM42.9177 199.461V197.736H42.4177V199.461H42.9177ZM42.9177 197.736C42.9177 197.028 42.3433 196.453 41.6347 196.453V196.953C42.0671 196.953 42.4177 197.304 42.4177 197.736H42.9177ZM41.6347 196.453C40.926 196.453 40.3516 197.028 40.3516 197.736H40.8516C40.8516 197.304 41.2022 196.953 41.6347 196.953V196.453ZM40.3516 197.736V199.459H40.8516V197.736H40.3516ZM38.992 199.709H40.6016V199.209H38.992V199.709ZM38.742 197.736V199.459H39.242V197.736H38.742ZM37.8279 201.525V204.969H38.3279V201.525H37.8279ZM38.0779 205.219H42.5546V204.719H38.0779V205.219ZM42.5546 205.219C42.5561 205.219 42.5577 205.219 42.5592 205.219L42.5621 204.719C42.5596 204.719 42.5571 204.719 42.5546 204.719V205.219ZM42.562 205.219C43.0811 205.216 43.5784 205.009 43.9457 204.641L43.5921 204.288C43.318 204.562 42.9468 204.717 42.5593 204.719L42.562 205.219ZM43.9457 204.641C44.3154 204.271 44.5232 203.77 44.5232 203.247H44.0232C44.0232 203.637 43.8681 204.012 43.5921 204.288L43.9457 204.641ZM44.5232 203.247C44.5232 202.724 44.3154 202.222 43.9457 201.853L43.5921 202.206C43.8681 202.482 44.0232 202.857 44.0232 203.247H44.5232ZM43.9457 201.853C43.5759 201.483 43.0743 201.275 42.5514 201.275V201.775C42.9417 201.775 43.3161 201.93 43.5921 202.206L43.9457 201.853ZM42.5514 201.275H38.0779V201.775H42.5514V201.275ZM42.542 206.785H38.0779V207.285H42.542V206.785ZM37.8279 207.035V210.479H38.3279V207.035H37.8279ZM38.0779 210.729H41.6213V210.229H38.0779V210.729ZM41.6347 210.229C41.6292 210.229 41.6237 210.229 41.6182 210.229L41.6245 210.729C41.6279 210.729 41.6312 210.729 41.6347 210.729V210.229ZM41.6511 210.229C41.6456 210.229 41.6401 210.229 41.6347 210.229V210.729C41.6381 210.729 41.6414 210.729 41.6448 210.729L41.6511 210.229ZM41.648 210.729H42.5514V210.229H41.648V210.729ZM42.5514 210.729C43.0743 210.729 43.5759 210.521 43.9457 210.151L43.5921 209.798C43.3161 210.074 42.9417 210.229 42.5514 210.229V210.729ZM43.9457 210.151C44.3154 209.781 44.5232 209.28 44.5232 208.757H44.0232C44.0232 209.147 43.8681 209.521 43.5921 209.798L43.9457 210.151ZM44.5232 208.757C44.5232 208.234 44.3154 207.732 43.9457 207.363L43.5921 207.716C43.8681 207.992 44.0232 208.366 44.0232 208.757H44.5232ZM43.9457 207.363C43.5759 206.993 43.0743 206.785 42.5514 206.785V207.285C42.9417 207.285 43.3161 207.44 43.5921 207.716L43.9457 207.363ZM42.5514 206.785C42.549 206.785 42.5466 206.785 42.5442 206.785L42.5398 207.285C42.5436 207.285 42.5475 207.285 42.5514 207.285V206.785Z" fill="#FBFBFB"/>
<path fill-rule="evenodd" clip-rule="evenodd" d="M40.0008 219.107C47.239 219.107 53.1067 213.239 53.1067 206.001C53.1067 198.763 47.239 192.895 40.0008 192.895C32.7626 192.895 26.8948 198.763 26.8948 206.001C26.8948 213.239 32.7626 219.107 40.0008 219.107ZM40.0008 221.42C48.5163 221.42 55.4195 214.516 55.4195 206.001C55.4195 197.485 48.5163 190.582 40.0008 190.582C31.4852 190.582 24.582 197.485 24.582 206.001C24.582 214.516 31.4852 221.42 40.0008 221.42Z" fill="url(#paint4_linear_14001_50654)" stroke="#FBFBFB" stroke-width="0.5"/>
<g filter="url(#filter4_d_14001_50654)">
<circle cx="40" cy="123" r="36" fill="white" fill-opacity="0.7" shape-rendering="crispEdges"/>
</g>
<g filter="url(#filter5_b_14001_50654)">
<circle cx="40" cy="123" r="36" fill="#C2C2C2" fill-opacity="0.06"/>
<circle cx="40" cy="123" r="36.4091" stroke="white" stroke-width="0.818182"/>
</g>
<path fill-rule="evenodd" clip-rule="evenodd" d="M38.992 114.736C38.992 114.166 38.5294 113.703 37.9589 113.703C37.3883 113.703 36.9258 114.166 36.9258 114.736V116.459H35.205C34.6344 116.459 34.1719 116.922 34.1719 117.492C34.1719 118.063 34.6344 118.525 35.205 118.525H36.0117V123.002V127.479H35.205C34.6344 127.479 34.1719 127.941 34.1719 128.512C34.1719 129.082 34.6344 129.545 35.205 129.545H36.9258V131.267C36.9258 131.837 37.3883 132.3 37.9589 132.3C38.5294 132.3 38.992 131.837 38.992 131.267V129.545H40.6016V131.267C40.6016 131.837 41.0641 132.3 41.6347 132.3C42.2052 132.3 42.6677 131.837 42.6677 131.267V129.543C43.6302 129.513 44.547 129.118 45.2299 128.435C45.9403 127.725 46.3394 126.761 46.3394 125.757C46.3394 124.752 45.9403 123.789 45.2299 123.078C45.204 123.052 45.1778 123.027 45.1513 123.002C45.1778 122.977 45.204 122.951 45.2299 122.925C45.9403 122.215 46.3394 121.252 46.3394 120.247C46.3394 119.242 45.9403 118.279 45.2299 117.568C44.547 116.886 43.6302 116.49 42.6677 116.461V114.736C42.6677 114.166 42.2052 113.703 41.6347 113.703C41.0641 113.703 40.6016 114.166 40.6016 114.736V116.459H38.992V114.736ZM38.0779 118.525V121.969H42.5546C42.5566 121.969 42.5586 121.969 42.5606 121.969C43.0139 121.966 43.4482 121.785 43.7689 121.464C44.0918 121.142 44.2732 120.704 44.2732 120.247C44.2732 119.79 44.0918 119.352 43.7689 119.029C43.446 118.707 43.008 118.525 42.5514 118.525H38.0779ZM42.542 124.035H38.0779V127.479H41.6213C41.6258 127.479 41.6302 127.479 41.6347 127.479C41.6391 127.479 41.6435 127.479 41.648 127.479H42.5514C43.008 127.479 43.446 127.297 43.7689 126.974C44.0918 126.651 44.2732 126.213 44.2732 125.757C44.2732 125.3 44.0918 124.862 43.7689 124.539C43.446 124.216 43.008 124.035 42.5514 124.035C42.5482 124.035 42.5451 124.035 42.542 124.035Z" fill="url(#paint5_linear_14001_50654)"/>
<path d="M36.9258 116.459V116.709C37.0639 116.709 37.1758 116.597 37.1758 116.459H36.9258ZM36.0117 118.525H36.2617C36.2617 118.387 36.1498 118.275 36.0117 118.275V118.525ZM36.0117 127.479V127.729C36.1498 127.729 36.2617 127.617 36.2617 127.479H36.0117ZM36.9258 129.545H37.1758C37.1758 129.407 37.0639 129.295 36.9258 129.295V129.545ZM38.992 129.545V129.295C38.8539 129.295 38.742 129.407 38.742 129.545H38.992ZM40.6016 129.545H40.8516C40.8516 129.407 40.7396 129.295 40.6016 129.295V129.545ZM42.6677 129.543L42.6601 129.293C42.525 129.297 42.4177 129.408 42.4177 129.543H42.6677ZM45.2299 128.435L45.4067 128.612L45.2299 128.435ZM45.2299 123.078L45.4067 122.901L45.4067 122.901L45.2299 123.078ZM45.1513 123.002L44.9797 122.82C44.9296 122.867 44.9013 122.933 44.9013 123.002C44.9013 123.071 44.9296 123.136 44.9797 123.184L45.1513 123.002ZM45.2299 122.925L45.0531 122.749L45.2299 122.925ZM45.2299 117.568L45.4067 117.392V117.392L45.2299 117.568ZM42.6677 116.461H42.4177C42.4177 116.596 42.525 116.707 42.6601 116.711L42.6677 116.461ZM40.6016 116.459V116.709C40.7396 116.709 40.8516 116.597 40.8516 116.459H40.6016ZM38.992 116.459H38.742C38.742 116.597 38.8539 116.709 38.992 116.709V116.459ZM38.0779 118.525V118.275C37.9398 118.275 37.8279 118.387 37.8279 118.525H38.0779ZM38.0779 121.969H37.8279C37.8279 122.107 37.9398 122.219 38.0779 122.219V121.969ZM42.5606 121.969L42.5592 122.219L42.562 122.219L42.5606 121.969ZM43.7689 121.464L43.5921 121.288L43.7689 121.464ZM43.7689 119.029L43.5921 119.206V119.206L43.7689 119.029ZM42.542 124.035L42.5442 123.785H42.542V124.035ZM38.0779 124.035V123.785C37.9398 123.785 37.8279 123.897 37.8279 124.035H38.0779ZM38.0779 127.479H37.8279C37.8279 127.617 37.9398 127.729 38.0779 127.729V127.479ZM41.6213 127.479V127.729L41.6245 127.729L41.6213 127.479ZM41.648 127.479L41.6448 127.729H41.648V127.479ZM37.9589 113.953C38.3914 113.953 38.742 114.304 38.742 114.736H39.242C39.242 114.028 38.6675 113.453 37.9589 113.453V113.953ZM37.1758 114.736C37.1758 114.304 37.5264 113.953 37.9589 113.953V113.453C37.2502 113.453 36.6758 114.028 36.6758 114.736H37.1758ZM37.1758 116.459V114.736H36.6758V116.459H37.1758ZM35.205 116.709H36.9258V116.209H35.205V116.709ZM34.4219 117.492C34.4219 117.06 34.7725 116.709 35.205 116.709V116.209C34.4963 116.209 33.9219 116.783 33.9219 117.492H34.4219ZM35.205 118.275C34.7725 118.275 34.4219 117.925 34.4219 117.492H33.9219C33.9219 118.201 34.4963 118.775 35.205 118.775V118.275ZM36.0117 118.275H35.205V118.775H36.0117V118.275ZM36.2617 123.002V118.525H35.7617V123.002H36.2617ZM36.2617 127.479V123.002H35.7617V127.479H36.2617ZM35.205 127.729H36.0117V127.229H35.205V127.729ZM34.4219 128.512C34.4219 128.079 34.7725 127.729 35.205 127.729V127.229C34.4963 127.229 33.9219 127.803 33.9219 128.512H34.4219ZM35.205 129.295C34.7725 129.295 34.4219 128.944 34.4219 128.512H33.9219C33.9219 129.22 34.4963 129.795 35.205 129.795V129.295ZM36.9258 129.295H35.205V129.795H36.9258V129.295ZM37.1758 131.267V129.545H36.6758V131.267H37.1758ZM37.9589 132.05C37.5264 132.05 37.1758 131.699 37.1758 131.267H36.6758C36.6758 131.975 37.2502 132.55 37.9589 132.55V132.05ZM38.742 131.267C38.742 131.699 38.3914 132.05 37.9589 132.05V132.55C38.6675 132.55 39.242 131.975 39.242 131.267H38.742ZM38.742 129.545V131.267H39.242V129.545H38.742ZM40.6016 129.295H38.992V129.795H40.6016V129.295ZM40.3516 129.545V131.267H40.8516V129.545H40.3516ZM40.3516 131.267C40.3516 131.975 40.926 132.55 41.6347 132.55V132.05C41.2022 132.05 40.8516 131.699 40.8516 131.267H40.3516ZM41.6347 132.55C42.3433 132.55 42.9177 131.975 42.9177 131.267H42.4177C42.4177 131.699 42.0671 132.05 41.6347 132.05V132.55ZM42.9177 131.267V129.543H42.4177V131.267H42.9177ZM45.0531 128.259C44.4153 128.896 43.559 129.266 42.6601 129.293L42.6754 129.793C43.7014 129.761 44.6787 129.34 45.4067 128.612L45.0531 128.259ZM46.0894 125.757C46.0894 126.695 45.7166 127.595 45.0531 128.259L45.4067 128.612C46.1639 127.855 46.5894 126.828 46.5894 125.757H46.0894ZM45.0531 123.255C45.7166 123.919 46.0894 124.818 46.0894 125.757H46.5894C46.5894 124.686 46.1639 123.659 45.4067 122.901L45.0531 123.255ZM44.9797 123.184C45.0045 123.207 45.0289 123.231 45.0531 123.255L45.4067 122.901C45.3791 122.874 45.3511 122.847 45.3229 122.82L44.9797 123.184ZM45.0531 122.749C45.0289 122.773 45.0045 122.797 44.9797 122.82L45.3229 123.184C45.3511 123.157 45.3791 123.13 45.4067 123.102L45.0531 122.749ZM46.0894 120.247C46.0894 121.185 45.7166 122.085 45.0531 122.749L45.4067 123.102C46.1639 122.345 46.5894 121.318 46.5894 120.247H46.0894ZM45.0531 117.745C45.7166 118.409 46.0894 119.309 46.0894 120.247H46.5894C46.5894 119.176 46.1639 118.149 45.4067 117.392L45.0531 117.745ZM42.6601 116.711C43.559 116.738 44.4153 117.107 45.0531 117.745L45.4067 117.392C44.6787 116.664 43.7014 116.242 42.6754 116.211L42.6601 116.711ZM42.9177 116.461V114.736H42.4177V116.461H42.9177ZM42.9177 114.736C42.9177 114.028 42.3433 113.453 41.6347 113.453V113.953C42.0671 113.953 42.4177 114.304 42.4177 114.736H42.9177ZM41.6347 113.453C40.926 113.453 40.3516 114.028 40.3516 114.736H40.8516C40.8516 114.304 41.2022 113.953 41.6347 113.953V113.453ZM40.3516 114.736V116.459H40.8516V114.736H40.3516ZM38.992 116.709H40.6016V116.209H38.992V116.709ZM38.742 114.736V116.459H39.242V114.736H38.742ZM37.8279 118.525V121.969H38.3279V118.525H37.8279ZM38.0779 122.219H42.5546V121.719H38.0779V122.219ZM42.5546 122.219C42.5561 122.219 42.5577 122.219 42.5592 122.219L42.5621 121.719C42.5596 121.719 42.5571 121.719 42.5546 121.719V122.219ZM42.562 122.219C43.0811 122.216 43.5784 122.009 43.9457 121.641L43.5921 121.288C43.318 121.562 42.9468 121.717 42.5593 121.719L42.562 122.219ZM43.9457 121.641C44.3154 121.271 44.5232 120.77 44.5232 120.247H44.0232C44.0232 120.637 43.8681 121.012 43.5921 121.288L43.9457 121.641ZM44.5232 120.247C44.5232 119.724 44.3154 119.222 43.9457 118.853L43.5921 119.206C43.8681 119.482 44.0232 119.857 44.0232 120.247H44.5232ZM43.9457 118.853C43.5759 118.483 43.0743 118.275 42.5514 118.275V118.775C42.9417 118.775 43.3161 118.93 43.5921 119.206L43.9457 118.853ZM42.5514 118.275H38.0779V118.775H42.5514V118.275ZM42.542 123.785H38.0779V124.285H42.542V123.785ZM37.8279 124.035V127.479H38.3279V124.035H37.8279ZM38.0779 127.729H41.6213V127.229H38.0779V127.729ZM41.6347 127.229C41.6292 127.229 41.6237 127.229 41.6182 127.229L41.6245 127.729C41.6279 127.729 41.6312 127.729 41.6347 127.729V127.229ZM41.6511 127.229C41.6456 127.229 41.6401 127.229 41.6347 127.229V127.729C41.6381 127.729 41.6414 127.729 41.6448 127.729L41.6511 127.229ZM41.648 127.729H42.5514V127.229H41.648V127.729ZM42.5514 127.729C43.0743 127.729 43.5759 127.521 43.9457 127.151L43.5921 126.798C43.3161 127.074 42.9417 127.229 42.5514 127.229V127.729ZM43.9457 127.151C44.3154 126.781 44.5232 126.28 44.5232 125.757H44.0232C44.0232 126.147 43.8681 126.521 43.5921 126.798L43.9457 127.151ZM44.5232 125.757C44.5232 125.234 44.3154 124.732 43.9457 124.363L43.5921 124.716C43.8681 124.992 44.0232 125.366 44.0232 125.757H44.5232ZM43.9457 124.363C43.5759 123.993 43.0743 123.785 42.5514 123.785V124.285C42.9417 124.285 43.3161 124.44 43.5921 124.716L43.9457 124.363ZM42.5514 123.785C42.549 123.785 42.5466 123.785 42.5442 123.785L42.5398 124.285C42.5436 124.285 42.5475 124.285 42.5514 124.285V123.785Z" fill="#FBFBFB"/>
<path fill-rule="evenodd" clip-rule="evenodd" d="M40.0008 136.107C47.239 136.107 53.1067 130.239 53.1067 123.001C53.1067 115.763 47.239 109.895 40.0008 109.895C32.7626 109.895 26.8948 115.763 26.8948 123.001C26.8948 130.239 32.7626 136.107 40.0008 136.107ZM40.0008 138.42C48.5163 138.42 55.4195 131.516 55.4195 123.001C55.4195 114.485 48.5163 107.582 40.0008 107.582C31.4852 107.582 24.582 114.485 24.582 123.001C24.582 131.516 31.4852 138.42 40.0008 138.42Z" fill="url(#paint6_linear_14001_50654)" stroke="#FBFBFB" stroke-width="0.5"/>
<defs>
<filter id="filter0_d_14001_50654" x="0" y="0" width="88" height="88" filterUnits="userSpaceOnUse" color-interpolation-filters="sRGB">
<feFlood flood-opacity="0" result="BackgroundImageFix"/>
<feColorMatrix in="SourceAlpha" type="matrix" values="0 0 0 0 0 0 0 0 0 0 0 0 0 0 0 0 0 0 127 0" result="hardAlpha"/>
<feOffset dx="4" dy="4"/>
<feGaussianBlur stdDeviation="4"/>
<feComposite in2="hardAlpha" operator="out"/>
<feColorMatrix type="matrix" values="0 0 0 0 0 0 0 0 0 0 0 0 0 0 0 0 0 0 0.17 0"/>
<feBlend mode="normal" in2="BackgroundImageFix" result="effect1_dropShadow_14001_50654"/>
<feBlend mode="normal" in="SourceGraphic" in2="effect1_dropShadow_14001_50654" result="shape"/>
</filter>
<filter id="filter1_b_14001_50654" x="-16.4547" y="-16.4546" width="112.909" height="112.909" filterUnits="userSpaceOnUse" color-interpolation-filters="sRGB">
<feFlood flood-opacity="0" result="BackgroundImageFix"/>
<feGaussianBlur in="BackgroundImageFix" stdDeviation="9.81818"/>
<feComposite in2="SourceAlpha" operator="in" result="effect1_backgroundBlur_14001_50654"/>
<feBlend mode="normal" in="SourceGraphic" in2="effect1_backgroundBlur_14001_50654" result="shape"/>
</filter>
<filter id="filter2_d_14001_50654" x="0" y="166" width="88" height="88" filterUnits="userSpaceOnUse" color-interpolation-filters="sRGB">
<feFlood flood-opacity="0" result="BackgroundImageFix"/>
<feColorMatrix in="SourceAlpha" type="matrix" values="0 0 0 0 0 0 0 0 0 0 0 0 0 0 0 0 0 0 127 0" result="hardAlpha"/>
<feOffset dx="4" dy="4"/>
<feGaussianBlur stdDeviation="4"/>
<feComposite in2="hardAlpha" operator="out"/>
<feColorMatrix type="matrix" values="0 0 0 0 0 0 0 0 0 0 0 0 0 0 0 0 0 0 0.17 0"/>
<feBlend mode="normal" in2="BackgroundImageFix" result="effect1_dropShadow_14001_50654"/>
<feBlend mode="normal" in="SourceGraphic" in2="effect1_dropShadow_14001_50654" result="shape"/>
</filter>
<filter id="filter3_b_14001_50654" x="-16.4547" y="149.545" width="112.909" height="112.909" filterUnits="userSpaceOnUse" color-interpolation-filters="sRGB">
<feFlood flood-opacity="0" result="BackgroundImageFix"/>
<feGaussianBlur in="BackgroundImageFix" stdDeviation="9.81818"/>
<feComposite in2="SourceAlpha" operator="in" result="effect1_backgroundBlur_14001_50654"/>
<feBlend mode="normal" in="SourceGraphic" in2="effect1_backgroundBlur_14001_50654" result="shape"/>
</filter>
<filter id="filter4_d_14001_50654" x="0" y="83" width="88" height="88" filterUnits="userSpaceOnUse" color-interpolation-filters="sRGB">
<feFlood flood-opacity="0" result="BackgroundImageFix"/>
<feColorMatrix in="SourceAlpha" type="matrix" values="0 0 0 0 0 0 0 0 0 0 0 0 0 0 0 0 0 0 127 0" result="hardAlpha"/>
<feOffset dx="4" dy="4"/>
<feGaussianBlur stdDeviation="4"/>
<feComposite in2="hardAlpha" operator="out"/>
<feColorMatrix type="matrix" values="0 0 0 0 0 0 0 0 0 0 0 0 0 0 0 0 0 0 0.17 0"/>
<feBlend mode="normal" in2="BackgroundImageFix" result="effect1_dropShadow_14001_50654"/>
<feBlend mode="normal" in="SourceGraphic" in2="effect1_dropShadow_14001_50654" result="shape"/>
</filter>
<filter id="filter5_b_14001_50654" x="-16.4547" y="66.5454" width="112.909" height="112.909" filterUnits="userSpaceOnUse" color-interpolation-filters="sRGB">
<feFlood flood-opacity="0" result="BackgroundImageFix"/>
<feGaussianBlur in="BackgroundImageFix" stdDeviation="9.81818"/>
<feComposite in2="SourceAlpha" operator="in" result="effect1_backgroundBlur_14001_50654"/>
<feBlend mode="normal" in="SourceGraphic" in2="effect1_backgroundBlur_14001_50654" result="shape"/>
</filter>
<linearGradient id="paint0_linear_14001_50654" x1="11.3848" y1="58.952" x2="69.0718" y2="1.72349" gradientUnits="userSpaceOnUse">
<stop stop-color="#8E00ED"/>
<stop offset="1" stop-color="#1384E8"/>
</linearGradient>
<linearGradient id="paint1_linear_14001_50654" x1="11.3848" y1="58.952" x2="69.0718" y2="1.72349" gradientUnits="userSpaceOnUse">
<stop stop-color="#8E00ED"/>
<stop offset="1" stop-color="#1384E8"/>
</linearGradient>
<linearGradient id="paint2_linear_14001_50654" x1="11.3848" y1="224.952" x2="69.0718" y2="167.723" gradientUnits="userSpaceOnUse">
<stop stop-color="#8E00ED"/>
<stop offset="1" stop-color="#1384E8"/>
</linearGradient>
<linearGradient id="paint3_linear_14001_50654" x1="35.4199" y1="210.896" x2="49.0291" y2="202.063" gradientUnits="userSpaceOnUse">
<stop stop-color="#8E00ED"/>
<stop offset="1" stop-color="#1384E8"/>
</linearGradient>
<linearGradient id="paint4_linear_14001_50654" x1="27.7449" y1="214.118" x2="52.4522" y2="189.607" gradientUnits="userSpaceOnUse">
<stop stop-color="#8E00ED"/>
<stop offset="1" stop-color="#1384E8"/>
</linearGradient>
<linearGradient id="paint5_linear_14001_50654" x1="35.4199" y1="127.896" x2="49.0291" y2="119.063" gradientUnits="userSpaceOnUse">
<stop stop-color="#8E00ED"/>
<stop offset="1" stop-color="#1384E8"/>
</linearGradient>
<linearGradient id="paint6_linear_14001_50654" x1="27.7449" y1="131.118" x2="52.4522" y2="106.607" gradientUnits="userSpaceOnUse">
<stop stop-color="#8E00ED"/>
<stop offset="1" stop-color="#1384E8"/>
</linearGradient>
</defs>
</svg>
