<svg width="309" height="265" viewBox="0 0 309 265" fill="none" xmlns="http://www.w3.org/2000/svg">
<rect x="30.0786" y="31.8579" width="227.037" height="183.508" rx="16.529" stroke="white" stroke-width="1.41108"/>
<g filter="url(#filter0_bd_14160_50977)">
<rect x="29.373" y="31.1523" width="228.448" height="184.92" rx="17.2345" fill="white" fill-opacity="0.67" shape-rendering="crispEdges"/>
<rect x="30.0786" y="31.8579" width="227.037" height="183.508" rx="16.529" stroke="white" stroke-width="1.41108" shape-rendering="crispEdges"/>
</g>
<path d="M48.9867 84.0969C48.3532 84.0969 47.8077 83.9535 47.3503 83.6665C46.8958 83.3768 46.5463 82.9776 46.302 82.4691C46.0577 81.9606 45.9355 81.3782 45.9355 80.7219C45.9355 80.0572 46.0605 79.4705 46.3105 78.962C46.5605 78.4506 46.9128 78.0515 47.3674 77.7646C47.8219 77.4776 48.3574 77.3342 48.9739 77.3342C49.4711 77.3342 49.9142 77.4265 50.3034 77.6112C50.6926 77.793 51.0066 78.0487 51.2452 78.3782C51.4867 78.7077 51.6301 79.0927 51.6756 79.533H50.4355C50.3674 79.2262 50.2111 78.962 49.9668 78.7404C49.7253 78.5188 49.4015 78.408 48.9952 78.408C48.6401 78.408 48.329 78.5018 48.062 78.6893C47.7978 78.8739 47.5918 79.1381 47.4441 79.4819C47.2963 79.8228 47.2225 80.2262 47.2225 80.6921C47.2225 81.1694 47.2949 81.5813 47.4398 81.9279C47.5847 82.2745 47.7892 82.543 48.0534 82.7333C48.3205 82.9237 48.6344 83.0188 48.9952 83.0188C49.2367 83.0188 49.4554 82.9748 49.6515 82.8867C49.8503 82.7958 50.0165 82.6665 50.15 82.4989C50.2864 82.3313 50.3816 82.1296 50.4355 81.8938H51.6756C51.6301 82.3171 51.4924 82.695 51.2623 83.0273C51.0321 83.3597 50.7239 83.6211 50.3375 83.8114C49.954 84.0018 49.5037 84.0969 48.9867 84.0969ZM57.0045 81.2504V77.4194H58.2829V83.9648H57.03V82.8313H56.9619C56.8113 83.1808 56.5698 83.4719 56.2374 83.7049C55.9079 83.935 55.4974 84.0501 55.0059 84.0501C54.5854 84.0501 54.2133 83.9577 53.8894 83.7731C53.5684 83.5856 53.3156 83.3086 53.1309 82.9421C52.9491 82.5756 52.8582 82.1225 52.8582 81.5827V77.4194H54.1323V81.4293C54.1323 81.8754 54.2559 82.2305 54.5031 82.4947C54.7502 82.7589 55.0712 82.891 55.4661 82.891C55.7048 82.891 55.942 82.8313 56.1778 82.712C56.4164 82.5927 56.6139 82.4123 56.7701 82.1708C56.9292 81.9293 57.0073 81.6225 57.0045 81.2504ZM64.7197 79.0174L63.5649 79.2219C63.5166 79.0742 63.4399 78.9336 63.3348 78.8001C63.2325 78.6665 63.0933 78.5572 62.9172 78.4719C62.741 78.3867 62.5209 78.3441 62.2567 78.3441C61.8959 78.3441 61.5947 78.4251 61.3532 78.587C61.1118 78.7461 60.991 78.9521 60.991 79.2049C60.991 79.4237 61.072 79.5998 61.2339 79.7333C61.3959 79.8668 61.6572 79.9762 62.018 80.0614L63.0578 80.3001C63.6601 80.4393 64.1089 80.6538 64.4044 80.9435C64.6998 81.2333 64.8476 81.6097 64.8476 82.0728C64.8476 82.4648 64.7339 82.8143 64.5067 83.1211C64.2822 83.4251 63.9683 83.6637 63.5649 83.837C63.1643 84.0103 62.6998 84.0969 62.1714 84.0969C61.4385 84.0969 60.8405 83.9407 60.3774 83.6282C59.9143 83.3129 59.6302 82.8654 59.5251 82.2859L60.7567 82.0984C60.8334 82.4194 60.991 82.6623 61.2297 82.8271C61.4683 82.989 61.7794 83.07 62.1629 83.07C62.5805 83.07 62.9143 82.9833 63.1643 82.81C63.4143 82.6339 63.5393 82.4194 63.5393 82.1665C63.5393 81.962 63.4626 81.7901 63.3092 81.6509C63.1586 81.5117 62.9271 81.4066 62.6146 81.3356L61.5067 81.0927C60.8959 80.9535 60.4442 80.7319 60.1515 80.4279C59.8618 80.1239 59.7169 79.739 59.7169 79.2731C59.7169 78.8867 59.8248 78.5487 60.0407 78.2589C60.2567 77.9691 60.555 77.7433 60.9356 77.5813C61.3163 77.4165 61.7524 77.3342 62.2439 77.3342C62.9513 77.3342 63.5081 77.4876 63.9143 77.7944C64.3206 78.0984 64.589 78.506 64.7197 79.0174ZM69.1239 77.4194V78.4421H65.5486V77.4194H69.1239ZM66.5074 75.8512H67.7816V82.043C67.7816 82.2901 67.8185 82.4762 67.8924 82.6012C67.9662 82.7234 68.0614 82.8072 68.1779 82.8526C68.2972 82.8952 68.4264 82.9165 68.5656 82.9165C68.6679 82.9165 68.7574 82.9094 68.8341 82.8952C68.9108 82.881 68.9705 82.8697 69.0131 82.8612L69.2432 83.9137C69.1693 83.9421 69.0642 83.9705 68.9279 83.9989C68.7915 84.0302 68.621 84.0472 68.4165 84.0501C68.0813 84.0558 67.7688 83.9961 67.479 83.8711C67.1892 83.7461 66.9549 83.5529 66.7759 83.2915C66.5969 83.0302 66.5074 82.7021 66.5074 82.3072V75.8512ZM73.0401 84.0969C72.4265 84.0969 71.891 83.9563 71.4336 83.6751C70.9762 83.3938 70.6211 83.0004 70.3682 82.4947C70.1154 81.989 69.989 81.3981 69.989 80.7219C69.989 80.043 70.1154 79.4492 70.3682 78.9407C70.6211 78.4322 70.9762 78.0373 71.4336 77.756C71.891 77.4748 72.4265 77.3342 73.0401 77.3342C73.6538 77.3342 74.1893 77.4748 74.6467 77.756C75.104 78.0373 75.4592 78.4322 75.712 78.9407C75.9648 79.4492 76.0913 80.043 76.0913 80.7219C76.0913 81.3981 75.9648 81.989 75.712 82.4947C75.4592 83.0004 75.104 83.3938 74.6467 83.6751C74.1893 83.9563 73.6538 84.0969 73.0401 84.0969ZM73.0444 83.0273C73.4421 83.0273 73.7717 82.9222 74.033 82.712C74.2944 82.5018 74.4876 82.2219 74.6126 81.8725C74.7404 81.5231 74.8043 81.1381 74.8043 80.7177C74.8043 80.3001 74.7404 79.9165 74.6126 79.5671C74.4876 79.2148 74.2944 78.9322 74.033 78.7191C73.7717 78.506 73.4421 78.3995 73.0444 78.3995C72.6438 78.3995 72.3114 78.506 72.0472 78.7191C71.7859 78.9322 71.5913 79.2148 71.4634 79.5671C71.3384 79.9165 71.2759 80.3001 71.2759 80.7177C71.2759 81.1381 71.3384 81.5231 71.4634 81.8725C71.5913 82.2219 71.7859 82.5018 72.0472 82.712C72.3114 82.9222 72.6438 83.0273 73.0444 83.0273ZM77.3335 83.9648V77.4194H78.5565V78.4847H78.6375C78.7738 78.1239 78.9968 77.8427 79.3065 77.641C79.6162 77.4364 79.9869 77.3342 80.4187 77.3342C80.8562 77.3342 81.2227 77.4364 81.5181 77.641C81.8164 77.8455 82.0366 78.1268 82.1787 78.4847H82.2468C82.4031 78.1353 82.6517 77.8569 82.9926 77.6495C83.3335 77.4393 83.7397 77.3342 84.2113 77.3342C84.8051 77.3342 85.2895 77.5202 85.6645 77.8924C86.0423 78.2646 86.2312 78.8256 86.2312 79.5756V83.9648H84.9571V79.695C84.9571 79.2518 84.8363 78.9308 84.5949 78.7319C84.3534 78.533 84.065 78.4336 83.7298 78.4336C83.315 78.4336 82.9926 78.5614 82.7625 78.8171C82.5324 79.07 82.4173 79.3952 82.4173 79.793V83.9648H81.1474V79.614C81.1474 79.2589 81.0366 78.9734 80.815 78.7575C80.5934 78.5415 80.3051 78.4336 79.95 78.4336C79.7085 78.4336 79.4855 78.4975 79.2809 78.6254C79.0792 78.7504 78.9159 78.9251 78.7909 79.1495C78.6687 79.3739 78.6076 79.6339 78.6076 79.9293V83.9648H77.3335ZM87.759 83.9648V77.4194H89.0331V83.9648H87.759ZM88.4024 76.4094C88.1808 76.4094 87.9905 76.3356 87.8314 76.1879C87.6751 76.0373 87.597 75.8583 87.597 75.6509C87.597 75.4407 87.6751 75.2617 87.8314 75.114C87.9905 74.9634 88.1808 74.8881 88.4024 74.8881C88.624 74.8881 88.8129 74.9634 88.9692 75.114C89.1283 75.2617 89.2078 75.4407 89.2078 75.6509C89.2078 75.8583 89.1283 76.0373 88.9692 76.1879C88.8129 76.3356 88.624 76.4094 88.4024 76.4094ZM90.4309 83.9648V83.0913L93.9763 78.587V78.5273H90.5459V77.4194H95.5658V78.3484L92.1567 82.7972V82.8569H95.6851V83.9648H90.4309ZM99.6419 84.0969C98.997 84.0969 98.4416 83.9592 97.9757 83.6836C97.5126 83.4052 97.1546 83.0146 96.9018 82.5117C96.6518 82.006 96.5268 81.4137 96.5268 80.7347C96.5268 80.0643 96.6518 79.4734 96.9018 78.962C97.1546 78.4506 97.5069 78.0515 97.9586 77.7646C98.4132 77.4776 98.9444 77.3342 99.5524 77.3342C99.9217 77.3342 100.28 77.3952 100.626 77.5174C100.973 77.6396 101.284 77.8313 101.559 78.0927C101.835 78.354 102.052 78.6935 102.211 79.1112C102.371 79.5259 102.45 80.0302 102.45 80.6239V81.0756H97.247V80.1211H101.202C101.202 79.7859 101.133 79.489 100.997 79.2305C100.861 78.9691 100.669 78.7631 100.422 78.6126C100.177 78.462 99.8904 78.3867 99.5609 78.3867C99.2029 78.3867 98.8904 78.4748 98.6234 78.6509C98.3592 78.8242 98.1546 79.0515 98.0098 79.3327C97.8677 79.6112 97.7967 79.9137 97.7967 80.2404V80.9862C97.7967 81.4237 97.8734 81.7958 98.0268 82.1026C98.183 82.4094 98.4004 82.6438 98.6788 82.8058C98.9572 82.9648 99.2825 83.0444 99.6546 83.0444C99.8961 83.0444 100.116 83.0103 100.315 82.9421C100.514 82.8711 100.686 82.766 100.831 82.6268C100.976 82.4876 101.086 82.3157 101.163 82.1112L102.369 82.3285C102.273 82.6836 102.099 82.9947 101.849 83.2617C101.602 83.5259 101.291 83.7319 100.916 83.8796C100.544 84.0245 100.119 84.0969 99.6419 84.0969ZM107.485 86.4194C107.295 86.4194 107.121 86.4038 106.965 86.3725C106.809 86.3441 106.692 86.3129 106.616 86.2788L106.922 85.2347C107.155 85.2972 107.363 85.3242 107.545 85.3157C107.726 85.3072 107.887 85.239 108.026 85.1112C108.168 84.9833 108.293 84.7745 108.401 84.4847L108.559 84.0501L106.164 77.4194H107.528L109.185 82.4989H109.253L110.911 77.4194H112.279L109.582 84.8384C109.457 85.1793 109.297 85.4677 109.104 85.7035C108.911 85.9421 108.681 86.1211 108.414 86.2404C108.147 86.3597 107.837 86.4194 107.485 86.4194ZM115.831 84.0969C115.217 84.0969 114.682 83.9563 114.224 83.6751C113.767 83.3938 113.412 83.0004 113.159 82.4947C112.906 81.989 112.78 81.3981 112.78 80.7219C112.78 80.043 112.906 79.4492 113.159 78.9407C113.412 78.4322 113.767 78.0373 114.224 77.756C114.682 77.4748 115.217 77.3342 115.831 77.3342C116.445 77.3342 116.98 77.4748 117.437 77.756C117.895 78.0373 118.25 78.4322 118.503 78.9407C118.756 79.4492 118.882 80.043 118.882 80.7219C118.882 81.3981 118.756 81.989 118.503 82.4947C118.25 83.0004 117.895 83.3938 117.437 83.6751C116.98 83.9563 116.445 84.0969 115.831 84.0969ZM115.835 83.0273C116.233 83.0273 116.562 82.9222 116.824 82.712C117.085 82.5018 117.278 82.2219 117.403 81.8725C117.531 81.5231 117.595 81.1381 117.595 80.7177C117.595 80.3001 117.531 79.9165 117.403 79.5671C117.278 79.2148 117.085 78.9322 116.824 78.7191C116.562 78.506 116.233 78.3995 115.835 78.3995C115.435 78.3995 115.102 78.506 114.838 78.7191C114.577 78.9322 114.382 79.2148 114.254 79.5671C114.129 79.9165 114.067 80.3001 114.067 80.7177C114.067 81.1381 114.129 81.5231 114.254 81.8725C114.382 82.2219 114.577 82.5018 114.838 82.712C115.102 82.9222 115.435 83.0273 115.835 83.0273ZM124.271 81.2504V77.4194H125.549V83.9648H124.296V82.8313H124.228C124.077 83.1808 123.836 83.4719 123.504 83.7049C123.174 83.935 122.763 84.0501 122.272 84.0501C121.852 84.0501 121.479 83.9577 121.156 83.7731C120.834 83.5856 120.582 83.3086 120.397 82.9421C120.215 82.5756 120.124 82.1225 120.124 81.5827V77.4194H121.398V81.4293C121.398 81.8754 121.522 82.2305 121.769 82.4947C122.016 82.7589 122.337 82.891 122.732 82.891C122.971 82.891 123.208 82.8313 123.444 82.712C123.683 82.5927 123.88 82.4123 124.036 82.1708C124.195 81.9293 124.273 81.6225 124.271 81.2504ZM127.081 83.9648V77.4194H128.313V78.4592H128.381C128.5 78.1069 128.71 77.8299 129.011 77.6282C129.315 77.4237 129.659 77.3214 130.043 77.3214C130.122 77.3214 130.216 77.3242 130.324 77.3299C130.435 77.3356 130.521 77.3427 130.584 77.3512V78.57C130.533 78.5558 130.442 78.5401 130.311 78.5231C130.18 78.5032 130.05 78.4933 129.919 78.4933C129.618 78.4933 129.349 78.5572 129.114 78.685C128.881 78.81 128.696 78.9847 128.56 79.2092C128.423 79.4308 128.355 79.6836 128.355 79.9677V83.9648H127.081ZM137.558 77.4194V78.4421H133.982V77.4194H137.558ZM134.941 75.8512H136.215V82.043C136.215 82.2901 136.252 82.4762 136.326 82.6012C136.4 82.7234 136.495 82.8072 136.612 82.8526C136.731 82.8952 136.86 82.9165 136.999 82.9165C137.102 82.9165 137.191 82.9094 137.268 82.8952C137.345 82.881 137.404 82.8697 137.447 82.8612L137.677 83.9137C137.603 83.9421 137.498 83.9705 137.362 83.9989C137.225 84.0302 137.055 84.0472 136.85 84.0501C136.515 84.0558 136.203 83.9961 135.913 83.8711C135.623 83.7461 135.389 83.5529 135.21 83.2915C135.031 83.0302 134.941 82.7021 134.941 82.3072V75.8512ZM138.787 83.9648V77.4194H140.019V78.4592H140.087C140.206 78.1069 140.416 77.8299 140.717 77.6282C141.021 77.4237 141.365 77.3214 141.749 77.3214C141.828 77.3214 141.922 77.3242 142.03 77.3299C142.141 77.3356 142.227 77.3427 142.29 77.3512V78.57C142.239 78.5558 142.148 78.5401 142.017 78.5231C141.887 78.5032 141.756 78.4933 141.625 78.4933C141.324 78.4933 141.056 78.5572 140.82 78.685C140.587 78.81 140.402 78.9847 140.266 79.2092C140.129 79.4308 140.061 79.6836 140.061 79.9677V83.9648H138.787ZM145.059 84.1097C144.644 84.1097 144.269 84.033 143.934 83.8796C143.599 83.7234 143.333 83.4975 143.137 83.2021C142.944 82.9066 142.847 82.5444 142.847 82.1154C142.847 81.7461 142.918 81.4421 143.06 81.2035C143.202 80.9648 143.394 80.7759 143.635 80.6367C143.877 80.4975 144.147 80.3924 144.445 80.3214C144.743 80.2504 145.047 80.1964 145.357 80.1594C145.749 80.114 146.067 80.0771 146.312 80.0487C146.556 80.0174 146.734 79.9677 146.844 79.8995C146.955 79.8313 147.01 79.7205 147.01 79.5671V79.5373C147.01 79.1651 146.905 78.8768 146.695 78.6722C146.488 78.4677 146.178 78.3654 145.766 78.3654C145.337 78.3654 144.999 78.4606 144.752 78.6509C144.508 78.8384 144.339 79.0472 144.245 79.2773L143.047 79.0046C143.189 78.6069 143.397 78.2859 143.67 78.0415C143.945 77.7944 144.262 77.6154 144.62 77.5046C144.978 77.391 145.354 77.3342 145.749 77.3342C146.01 77.3342 146.287 77.3654 146.58 77.4279C146.876 77.4876 147.151 77.5984 147.407 77.7603C147.665 77.9222 147.877 78.1538 148.042 78.4549C148.207 78.7532 148.289 79.141 148.289 79.6183V83.9648H147.045V83.07H146.993C146.911 83.2347 146.787 83.3967 146.623 83.5558C146.458 83.7148 146.246 83.8469 145.988 83.9521C145.729 84.0572 145.42 84.1097 145.059 84.1097ZM145.336 83.087C145.688 83.087 145.989 83.0174 146.239 82.8782C146.492 82.739 146.684 82.5572 146.814 82.3327C146.948 82.1055 147.015 81.8626 147.015 81.604V80.7603C146.969 80.8058 146.881 80.8484 146.751 80.8881C146.623 80.9251 146.476 80.9577 146.312 80.9862C146.147 81.0117 145.986 81.0359 145.83 81.0586C145.674 81.0785 145.543 81.0955 145.438 81.1097C145.191 81.141 144.965 81.1935 144.76 81.2674C144.559 81.3413 144.397 81.4478 144.275 81.587C144.155 81.7234 144.096 81.9052 144.096 82.1325C144.096 82.4478 144.212 82.6864 144.445 82.8484C144.678 83.0075 144.975 83.087 145.336 83.087ZM152.256 84.0927C151.728 84.0927 151.256 83.9577 150.842 83.6879C150.43 83.4151 150.106 83.0273 149.87 82.5245C149.637 82.0188 149.52 81.4123 149.52 80.7049C149.52 79.9975 149.638 79.3924 149.874 78.8896C150.113 78.3867 150.44 78.0018 150.854 77.7347C151.269 77.4677 151.739 77.3342 152.265 77.3342C152.671 77.3342 152.998 77.4023 153.245 77.5387C153.495 77.6722 153.688 77.8285 153.824 78.0075C153.964 78.1864 154.072 78.3441 154.148 78.4805H154.225V75.2376H155.499V83.9648H154.255V82.9464H154.148C154.072 83.0856 153.961 83.2447 153.816 83.4237C153.674 83.6026 153.478 83.7589 153.228 83.8924C152.978 84.0259 152.654 84.0927 152.256 84.0927ZM152.538 83.006C152.904 83.006 153.214 82.9094 153.467 82.7163C153.722 82.5202 153.915 82.2489 154.046 81.9023C154.18 81.5558 154.246 81.1523 154.246 80.6921C154.246 80.2376 154.181 79.8398 154.05 79.4989C153.92 79.158 153.728 78.8924 153.475 78.7021C153.222 78.5117 152.91 78.4165 152.538 78.4165C152.154 78.4165 151.834 78.516 151.579 78.7148C151.323 78.9137 151.13 79.185 150.999 79.5288C150.871 79.8725 150.807 80.2603 150.807 80.6921C150.807 81.1296 150.873 81.5231 151.003 81.8725C151.134 82.2219 151.327 82.4989 151.583 82.7035C151.842 82.9052 152.16 83.006 152.538 83.006ZM157.138 83.9648V77.4194H158.412V83.9648H157.138ZM157.781 76.4094C157.56 76.4094 157.369 76.3356 157.21 76.1879C157.054 76.0373 156.976 75.8583 156.976 75.6509C156.976 75.4407 157.054 75.2617 157.21 75.114C157.369 74.9634 157.56 74.8881 157.781 74.8881C158.003 74.8881 158.192 74.9634 158.348 75.114C158.507 75.2617 158.587 75.4407 158.587 75.6509C158.587 75.8583 158.507 76.0373 158.348 76.1879C158.192 76.3356 158.003 76.4094 157.781 76.4094ZM161.22 80.0785V83.9648H159.946V77.4194H161.169V78.4847H161.25C161.401 78.1381 161.636 77.8597 161.957 77.6495C162.281 77.4393 162.689 77.3342 163.18 77.3342C163.626 77.3342 164.017 77.4279 164.352 77.6154C164.687 77.8001 164.947 78.0756 165.132 78.4421C165.317 78.8086 165.409 79.2617 165.409 79.8015V83.9648H164.135V79.9549C164.135 79.4805 164.011 79.1097 163.764 78.8427C163.517 78.5728 163.178 78.4379 162.746 78.4379C162.45 78.4379 162.187 78.5018 161.957 78.6296C161.73 78.7575 161.55 78.945 161.416 79.1921C161.285 79.4364 161.22 79.7319 161.22 80.0785ZM169.682 86.5558C169.162 86.5558 168.715 86.4876 168.34 86.3512C167.968 86.2148 167.664 86.0344 167.428 85.81C167.192 85.5856 167.016 85.3398 166.9 85.0728L167.995 84.6211C168.071 84.7461 168.174 84.8782 168.301 85.0174C168.432 85.1594 168.608 85.2802 168.83 85.3796C169.054 85.479 169.343 85.5288 169.695 85.5288C170.178 85.5288 170.577 85.4109 170.892 85.1751C171.208 84.9421 171.365 84.57 171.365 84.0586V82.7717H171.284C171.208 82.9109 171.097 83.0657 170.952 83.2362C170.81 83.4066 170.614 83.5543 170.364 83.6793C170.114 83.8043 169.789 83.8668 169.388 83.8668C168.871 83.8668 168.405 83.7461 167.99 83.5046C167.578 83.2603 167.252 82.9009 167.01 82.4265C166.772 81.9492 166.652 81.3626 166.652 80.6665C166.652 79.9705 166.77 79.3739 167.006 78.8768C167.245 78.3796 167.571 77.9989 167.986 77.7347C168.401 77.4677 168.871 77.3342 169.397 77.3342C169.803 77.3342 170.131 77.4023 170.381 77.5387C170.631 77.6722 170.826 77.8285 170.965 78.0075C171.107 78.1864 171.216 78.3441 171.293 78.4805H171.387V77.4194H172.635V84.1097C172.635 84.6722 172.505 85.1339 172.243 85.4947C171.982 85.8555 171.628 86.1225 171.182 86.2958C170.739 86.4691 170.239 86.5558 169.682 86.5558ZM169.669 82.81C170.036 82.81 170.346 82.7248 170.598 82.5543C170.854 82.381 171.047 82.1339 171.178 81.8129C171.311 81.489 171.378 81.1012 171.378 80.6495C171.378 80.2092 171.313 79.8214 171.182 79.4862C171.051 79.1509 170.86 78.8896 170.607 78.7021C170.354 78.5117 170.042 78.4165 169.669 78.4165C169.286 78.4165 168.966 78.516 168.711 78.7148C168.455 78.9109 168.262 79.1779 168.131 79.516C168.003 79.854 167.939 80.2319 167.939 80.6495C167.939 81.0785 168.005 81.4549 168.135 81.7788C168.266 82.1026 168.459 82.3555 168.715 82.5373C168.973 82.7191 169.292 82.81 169.669 82.81ZM179.981 84.0969C179.336 84.0969 178.781 83.9592 178.315 83.6836C177.852 83.4052 177.494 83.0146 177.241 82.5117C176.991 82.006 176.866 81.4137 176.866 80.7347C176.866 80.0643 176.991 79.4734 177.241 78.962C177.494 78.4506 177.846 78.0515 178.298 77.7646C178.752 77.4776 179.283 77.3342 179.891 77.3342C180.261 77.3342 180.619 77.3952 180.965 77.5174C181.312 77.6396 181.623 77.8313 181.899 78.0927C182.174 78.354 182.391 78.6935 182.551 79.1112C182.71 79.5259 182.789 80.0302 182.789 80.6239V81.0756H177.586V80.1211H181.541C181.541 79.7859 181.472 79.489 181.336 79.2305C181.2 78.9691 181.008 78.7631 180.761 78.6126C180.516 78.462 180.229 78.3867 179.9 78.3867C179.542 78.3867 179.229 78.4748 178.962 78.6509C178.698 78.8242 178.494 79.0515 178.349 79.3327C178.207 79.6112 178.136 79.9137 178.136 80.2404V80.9862C178.136 81.4237 178.212 81.7958 178.366 82.1026C178.522 82.4094 178.739 82.6438 179.018 82.8058C179.296 82.9648 179.622 83.0444 179.994 83.0444C180.235 83.0444 180.455 83.0103 180.654 82.9421C180.853 82.8711 181.025 82.766 181.17 82.6268C181.315 82.4876 181.426 82.3157 181.502 82.1112L182.708 82.3285C182.612 82.6836 182.438 82.9947 182.188 83.2617C181.941 83.5259 181.63 83.7319 181.255 83.8796C180.883 84.0245 180.458 84.0969 179.981 84.0969ZM184.876 77.4194L186.321 79.9677L187.778 77.4194H189.172L187.13 80.6921L189.189 83.9648H187.795L186.321 81.5188L184.851 83.9648H183.453L185.49 80.6921L183.478 77.4194H184.876ZM190.3 86.4194V77.4194H191.544V78.4805H191.651C191.725 78.3441 191.831 78.1864 191.97 78.0075C192.11 77.8285 192.303 77.6722 192.55 77.5387C192.797 77.4023 193.124 77.3342 193.53 77.3342C194.058 77.3342 194.53 77.4677 194.945 77.7347C195.36 78.0018 195.685 78.3867 195.921 78.8896C196.159 79.3924 196.279 79.9975 196.279 80.7049C196.279 81.4123 196.161 82.0188 195.925 82.5245C195.689 83.0273 195.365 83.4151 194.953 83.6879C194.541 83.9577 194.071 84.0927 193.543 84.0927C193.145 84.0927 192.82 84.0259 192.567 83.8924C192.317 83.7589 192.121 83.6026 191.979 83.4237C191.837 83.2447 191.727 83.0856 191.651 82.9464H191.574V86.4194H190.3ZM191.548 80.6921C191.548 81.1523 191.615 81.5558 191.749 81.9023C191.882 82.2489 192.075 82.5202 192.328 82.7163C192.581 82.9094 192.891 83.006 193.257 83.006C193.638 83.006 193.956 82.9052 194.212 82.7035C194.468 82.4989 194.661 82.2219 194.791 81.8725C194.925 81.5231 194.992 81.1296 194.992 80.6921C194.992 80.2603 194.926 79.8725 194.796 79.5288C194.668 79.185 194.475 78.9137 194.216 78.7148C193.96 78.516 193.641 78.4165 193.257 78.4165C192.888 78.4165 192.575 78.5117 192.32 78.7021C192.067 78.8924 191.875 79.158 191.744 79.4989C191.614 79.8398 191.548 80.2376 191.548 80.6921ZM200.347 84.0969C199.702 84.0969 199.147 83.9592 198.681 83.6836C198.218 83.4052 197.86 83.0146 197.607 82.5117C197.357 82.006 197.232 81.4137 197.232 80.7347C197.232 80.0643 197.357 79.4734 197.607 78.962C197.86 78.4506 198.212 78.0515 198.664 77.7646C199.118 77.4776 199.65 77.3342 200.258 77.3342C200.627 77.3342 200.985 77.3952 201.332 77.5174C201.678 77.6396 201.989 77.8313 202.265 78.0927C202.54 78.354 202.758 78.6935 202.917 79.1112C203.076 79.5259 203.155 80.0302 203.155 80.6239V81.0756H197.952V80.1211H201.907C201.907 79.7859 201.839 79.489 201.702 79.2305C201.566 78.9691 201.374 78.7631 201.127 78.6126C200.883 78.462 200.596 78.3867 200.266 78.3867C199.908 78.3867 199.596 78.4748 199.329 78.6509C199.065 78.8242 198.86 79.0515 198.715 79.3327C198.573 79.6112 198.502 79.9137 198.502 80.2404V80.9862C198.502 81.4237 198.579 81.7958 198.732 82.1026C198.888 82.4094 199.106 82.6438 199.384 82.8058C199.663 82.9648 199.988 83.0444 200.36 83.0444C200.601 83.0444 200.822 83.0103 201.02 82.9421C201.219 82.8711 201.391 82.766 201.536 82.6268C201.681 82.4876 201.792 82.3157 201.868 82.1112L203.074 82.3285C202.978 82.6836 202.805 82.9947 202.555 83.2617C202.307 83.5259 201.996 83.7319 201.621 83.8796C201.249 84.0245 200.824 84.0969 200.347 84.0969ZM204.389 83.9648V77.4194H205.621V78.4592H205.689C205.808 78.1069 206.018 77.8299 206.32 77.6282C206.623 77.4237 206.967 77.3214 207.351 77.3214C207.43 77.3214 207.524 77.3242 207.632 77.3299C207.743 77.3356 207.829 77.3427 207.892 77.3512V78.57C207.841 78.5558 207.75 78.5401 207.619 78.5231C207.489 78.5032 207.358 78.4933 207.227 78.4933C206.926 78.4933 206.658 78.5572 206.422 78.685C206.189 78.81 206.004 78.9847 205.868 79.2092C205.731 79.4308 205.663 79.6836 205.663 79.9677V83.9648H204.389ZM208.815 83.9648V77.4194H210.089V83.9648H208.815ZM209.458 76.4094C209.236 76.4094 209.046 76.3356 208.887 76.1879C208.731 76.0373 208.653 75.8583 208.653 75.6509C208.653 75.4407 208.731 75.2617 208.887 75.114C209.046 74.9634 209.236 74.8881 209.458 74.8881C209.68 74.8881 209.869 74.9634 210.025 75.114C210.184 75.2617 210.263 75.4407 210.263 75.6509C210.263 75.8583 210.184 76.0373 210.025 76.1879C209.869 76.3356 209.68 76.4094 209.458 76.4094ZM214.444 84.0969C213.799 84.0969 213.244 83.9592 212.778 83.6836C212.315 83.4052 211.957 83.0146 211.704 82.5117C211.454 82.006 211.329 81.4137 211.329 80.7347C211.329 80.0643 211.454 79.4734 211.704 78.962C211.957 78.4506 212.309 78.0515 212.761 77.7646C213.215 77.4776 213.746 77.3342 214.354 77.3342C214.724 77.3342 215.082 77.3952 215.428 77.5174C215.775 77.6396 216.086 77.8313 216.361 78.0927C216.637 78.354 216.854 78.6935 217.013 79.1112C217.173 79.5259 217.252 80.0302 217.252 80.6239V81.0756H212.049V80.1211H216.004C216.004 79.7859 215.935 79.489 215.799 79.2305C215.663 78.9691 215.471 78.7631 215.224 78.6126C214.979 78.462 214.692 78.3867 214.363 78.3867C214.005 78.3867 213.692 78.4748 213.425 78.6509C213.161 78.8242 212.957 79.0515 212.812 79.3327C212.67 79.6112 212.599 79.9137 212.599 80.2404V80.9862C212.599 81.4237 212.675 81.7958 212.829 82.1026C212.985 82.4094 213.202 82.6438 213.481 82.8058C213.759 82.9648 214.085 83.0444 214.457 83.0444C214.698 83.0444 214.918 83.0103 215.117 82.9421C215.316 82.8711 215.488 82.766 215.633 82.6268C215.778 82.4876 215.888 82.3157 215.965 82.1112L217.171 82.3285C217.075 82.6836 216.901 82.9947 216.651 83.2617C216.404 83.5259 216.093 83.7319 215.718 83.8796C215.346 84.0245 214.921 84.0969 214.444 84.0969ZM219.76 80.0785V83.9648H218.486V77.4194H219.709V78.4847H219.79C219.94 78.1381 220.176 77.8597 220.497 77.6495C220.821 77.4393 221.229 77.3342 221.72 77.3342C222.166 77.3342 222.557 77.4279 222.892 77.6154C223.227 77.8001 223.487 78.0756 223.672 78.4421C223.857 78.8086 223.949 79.2617 223.949 79.8015V83.9648H222.675V79.9549C222.675 79.4805 222.551 79.1097 222.304 78.8427C222.057 78.5728 221.717 78.4379 221.286 78.4379C220.99 78.4379 220.727 78.5018 220.497 78.6296C220.27 78.7575 220.09 78.945 219.956 79.1921C219.825 79.4364 219.76 79.7319 219.76 80.0785ZM228.235 84.0969C227.601 84.0969 227.056 83.9535 226.598 83.6665C226.144 83.3768 225.794 82.9776 225.55 82.4691C225.306 81.9606 225.184 81.3782 225.184 80.7219C225.184 80.0572 225.309 79.4705 225.559 78.962C225.809 78.4506 226.161 78.0515 226.615 77.7646C227.07 77.4776 227.606 77.3342 228.222 77.3342C228.719 77.3342 229.162 77.4265 229.552 77.6112C229.941 77.793 230.255 78.0487 230.493 78.3782C230.735 78.7077 230.878 79.0927 230.924 79.533H229.684C229.615 79.2262 229.459 78.962 229.215 78.7404C228.973 78.5188 228.65 78.408 228.243 78.408C227.888 78.408 227.577 78.5018 227.31 78.6893C227.046 78.8739 226.84 79.1381 226.692 79.4819C226.544 79.8228 226.471 80.2262 226.471 80.6921C226.471 81.1694 226.543 81.5813 226.688 81.9279C226.833 82.2745 227.037 82.543 227.302 82.7333C227.569 82.9237 227.883 83.0188 228.243 83.0188C228.485 83.0188 228.704 82.9748 228.9 82.8867C229.098 82.7958 229.265 82.6665 229.398 82.4989C229.535 82.3313 229.63 82.1296 229.684 81.8938H230.924C230.878 82.3171 230.74 82.695 230.51 83.0273C230.28 83.3597 229.972 83.6211 229.586 83.8114C229.202 84.0018 228.752 84.0969 228.235 84.0969ZM234.927 84.0969C234.282 84.0969 233.727 83.9592 233.261 83.6836C232.798 83.4052 232.44 83.0146 232.187 82.5117C231.937 82.006 231.812 81.4137 231.812 80.7347C231.812 80.0643 231.937 79.4734 232.187 78.962C232.44 78.4506 232.792 78.0515 233.244 77.7646C233.699 77.4776 234.23 77.3342 234.838 77.3342C235.207 77.3342 235.565 77.3952 235.912 77.5174C236.258 77.6396 236.569 77.8313 236.845 78.0927C237.121 78.354 237.338 78.6935 237.497 79.1112C237.656 79.5259 237.736 80.0302 237.736 80.6239V81.0756H232.532V80.1211H236.487C236.487 79.7859 236.419 79.489 236.282 79.2305C236.146 78.9691 235.954 78.7631 235.707 78.6126C235.463 78.462 235.176 78.3867 234.846 78.3867C234.488 78.3867 234.176 78.4748 233.909 78.6509C233.645 78.8242 233.44 79.0515 233.295 79.3327C233.153 79.6112 233.082 79.9137 233.082 80.2404V80.9862C233.082 81.4237 233.159 81.7958 233.312 82.1026C233.469 82.4094 233.686 82.6438 233.964 82.8058C234.243 82.9648 234.568 83.0444 234.94 83.0444C235.182 83.0444 235.402 83.0103 235.601 82.9421C235.799 82.8711 235.971 82.766 236.116 82.6268C236.261 82.4876 236.372 82.3157 236.449 82.1112L237.655 82.3285C237.558 82.6836 237.385 82.9947 237.135 83.2617C236.888 83.5259 236.576 83.7319 236.201 83.8796C235.829 84.0245 235.405 84.0969 234.927 84.0969Z" fill="#6F6F6F"/>
<path d="M48.3453 65.9648H45.8141L50.4228 52.8739H53.3503L57.9654 65.9648H55.4341L51.9377 55.5586H51.8354L48.3453 65.9648ZM48.4284 60.832H55.3319V62.7369H48.4284V60.832ZM62.932 66.1374C62.1607 66.1374 61.4703 65.9393 60.861 65.543C60.2516 65.1467 59.7701 64.5714 59.4164 63.8171C59.0627 63.0629 58.8858 62.1467 58.8858 61.0685C58.8858 59.9776 59.0648 59.0572 59.4228 58.3072C59.785 57.5529 60.2729 56.984 60.8865 56.6005C61.5002 56.2127 62.1841 56.0188 62.9384 56.0188C63.5137 56.0188 63.9867 56.1168 64.3574 56.3129C64.7282 56.5046 65.0222 56.7369 65.2395 57.0096C65.4569 57.2781 65.6252 57.5316 65.7445 57.7702H65.8404V52.8739H68.1607V65.9648H65.8851V64.418H65.7445C65.6252 64.6566 65.4526 64.9102 65.2267 65.1786C65.0009 65.4428 64.7026 65.6687 64.3319 65.8562C63.9611 66.0437 63.4945 66.1374 62.932 66.1374ZM63.5776 64.239C64.0676 64.239 64.4853 64.1069 64.8304 63.8427C65.1756 63.5742 65.4377 63.2013 65.6167 62.7241C65.7956 62.2468 65.8851 61.6907 65.8851 61.0558C65.8851 60.4208 65.7956 59.869 65.6167 59.4002C65.4419 58.9315 65.182 58.5671 64.8368 58.3072C64.4959 58.0472 64.0762 57.9173 63.5776 57.9173C63.062 57.9173 62.6316 58.0515 62.2864 58.32C61.9412 58.5884 61.6813 58.9592 61.5066 59.4322C61.3319 59.9052 61.2445 60.4464 61.2445 61.0558C61.2445 61.6694 61.3319 62.217 61.5066 62.6985C61.6855 63.1758 61.9476 63.5529 62.2928 63.8299C62.6422 64.1026 63.0705 64.239 63.5776 64.239ZM74.2699 66.1374C73.4986 66.1374 72.8082 65.9393 72.1989 65.543C71.5895 65.1467 71.108 64.5714 70.7543 63.8171C70.4006 63.0629 70.2237 62.1467 70.2237 61.0685C70.2237 59.9776 70.4027 59.0572 70.7607 58.3072C71.1229 57.5529 71.6108 56.984 72.2244 56.6005C72.8381 56.2127 73.522 56.0188 74.2763 56.0188C74.8516 56.0188 75.3246 56.1168 75.6953 56.3129C76.0661 56.5046 76.3601 56.7369 76.5774 57.0096C76.7947 57.2781 76.9631 57.5316 77.0824 57.7702H77.1783V52.8739H79.4986V65.9648H77.223V64.418H77.0824C76.9631 64.6566 76.7905 64.9102 76.5646 65.1786C76.3388 65.4428 76.0405 65.6687 75.6697 65.8562C75.299 66.0437 74.8324 66.1374 74.2699 66.1374ZM74.9155 64.239C75.4055 64.239 75.8232 64.1069 76.1683 63.8427C76.5135 63.5742 76.7756 63.2013 76.9545 62.7241C77.1335 62.2468 77.223 61.6907 77.223 61.0558C77.223 60.4208 77.1335 59.869 76.9545 59.4002C76.7798 58.9315 76.5199 58.5671 76.1747 58.3072C75.8338 58.0472 75.4141 57.9173 74.9155 57.9173C74.3999 57.9173 73.9695 58.0515 73.6243 58.32C73.2791 58.5884 73.0192 58.9592 72.8445 59.4322C72.6697 59.9052 72.5824 60.4464 72.5824 61.0558C72.5824 61.6694 72.6697 62.217 72.8445 62.6985C73.0234 63.1758 73.2855 63.5529 73.6307 63.8299C73.9801 64.1026 74.4084 64.239 74.9155 64.239ZM91.3319 56.1467V57.9364H85.6877V56.1467H91.3319ZM87.0811 53.7944H89.3951V63.0117C89.3951 63.3228 89.4419 63.5614 89.5357 63.7276C89.6337 63.8896 89.7615 64.0004 89.9192 64.06C90.0769 64.1197 90.2516 64.1495 90.4434 64.1495C90.5882 64.1495 90.7203 64.1388 90.8397 64.1175C90.9632 64.0962 91.057 64.0771 91.1209 64.06L91.5108 65.869C91.3873 65.9116 91.2104 65.9585 90.9803 66.0096C90.7544 66.0607 90.4775 66.0906 90.1493 66.0991C89.5698 66.1161 89.0478 66.0288 88.5833 65.837C88.1188 65.641 87.7502 65.3384 87.4775 64.9293C87.209 64.5202 87.0769 64.0089 87.0811 63.3952V53.7944ZM97.4442 66.1566C96.4854 66.1566 95.6545 65.9457 94.9513 65.5238C94.2482 65.1019 93.7028 64.5117 93.315 63.7532C92.9315 62.9947 92.7397 62.1083 92.7397 61.0941C92.7397 60.0799 92.9315 59.1914 93.315 58.4286C93.7028 57.6658 94.2482 57.0735 94.9513 56.6516C95.6545 56.2298 96.4854 56.0188 97.4442 56.0188C98.4031 56.0188 99.234 56.2298 99.9371 56.6516C100.64 57.0735 101.184 57.6658 101.567 58.4286C101.955 59.1914 102.149 60.0799 102.149 61.0941C102.149 62.1083 101.955 62.9947 101.567 63.7532C101.184 64.5117 100.64 65.1019 99.9371 65.5238C99.234 65.9457 98.4031 66.1566 97.4442 66.1566ZM97.457 64.3029C97.9769 64.3029 98.4116 64.1602 98.761 63.8746C99.1104 63.5849 99.3704 63.1971 99.5408 62.7113C99.7156 62.2255 99.8029 61.6843 99.8029 61.0877C99.8029 60.4869 99.7156 59.9435 99.5408 59.4577C99.3704 58.9677 99.1104 58.5778 98.761 58.288C98.4116 57.9982 97.9769 57.8533 97.457 57.8533C96.9244 57.8533 96.4812 57.9982 96.1275 58.288C95.7781 58.5778 95.516 58.9677 95.3413 59.4577C95.1708 59.9435 95.0856 60.4869 95.0856 61.0877C95.0856 61.6843 95.1708 62.2255 95.3413 62.7113C95.516 63.1971 95.7781 63.5849 96.1275 63.8746C96.4812 64.1602 96.9244 64.3029 97.457 64.3029ZM111.435 65.9648L107.74 52.8739H110.291L112.649 62.494H112.771L115.289 52.8739H117.61L120.134 62.5004H120.249L122.608 52.8739H125.159L121.464 65.9648H119.124L116.504 56.7795H116.401L113.774 65.9648H111.435ZM128.524 66.163C127.902 66.163 127.341 66.0522 126.843 65.8306C126.349 65.6048 125.956 65.2724 125.667 64.8335C125.381 64.3945 125.238 63.8533 125.238 63.2099C125.238 62.6559 125.341 62.1978 125.545 61.8356C125.75 61.4734 126.029 61.1836 126.383 60.9663C126.736 60.7489 127.135 60.5849 127.578 60.4741C128.025 60.359 128.488 60.2759 128.965 60.2248C129.54 60.1651 130.007 60.1119 130.365 60.065C130.723 60.0138 130.983 59.9371 131.145 59.8349C131.311 59.7283 131.394 59.5643 131.394 59.3427V59.3043C131.394 58.8228 131.251 58.4499 130.966 58.1857C130.68 57.9215 130.269 57.7894 129.732 57.7894C129.165 57.7894 128.716 57.913 128.383 58.1602C128.055 58.4073 127.834 58.6992 127.719 59.0359L125.558 58.729C125.729 58.1325 126.01 57.6339 126.402 57.2333C126.794 56.8285 127.273 56.5259 127.84 56.3256C128.407 56.1211 129.033 56.0188 129.719 56.0188C130.192 56.0188 130.663 56.0742 131.132 56.185C131.601 56.2958 132.029 56.479 132.417 56.7347C132.805 56.9862 133.116 57.3292 133.35 57.7638C133.589 58.1985 133.708 58.7418 133.708 59.3938V65.9648H131.483V64.6161H131.407C131.266 64.8888 131.068 65.1445 130.812 65.3832C130.561 65.6175 130.243 65.8072 129.86 65.9521C129.481 66.0927 129.035 66.163 128.524 66.163ZM129.125 64.4627C129.589 64.4627 129.992 64.3711 130.333 64.1879C130.674 64.0004 130.936 63.7532 131.119 63.4464C131.307 63.1396 131.4 62.805 131.4 62.4428V61.2859C131.328 61.3455 131.204 61.4009 131.03 61.4521C130.859 61.5032 130.667 61.5479 130.454 61.5863C130.241 61.6246 130.03 61.6587 129.822 61.6886C129.613 61.7184 129.432 61.744 129.278 61.7653C128.933 61.8121 128.624 61.8888 128.351 61.9954C128.079 62.1019 127.863 62.2511 127.706 62.4428C127.548 62.6303 127.469 62.8732 127.469 63.1715C127.469 63.5977 127.625 63.9194 127.936 64.1367C128.247 64.354 128.643 64.4627 129.125 64.4627ZM140.937 56.1467V57.9364H135.293V56.1467H140.937ZM136.687 53.7944H139.001V63.0117C139.001 63.3228 139.047 63.5614 139.141 63.7276C139.239 63.8896 139.367 64.0004 139.525 64.06C139.682 64.1197 139.857 64.1495 140.049 64.1495C140.194 64.1495 140.326 64.1388 140.445 64.1175C140.569 64.0962 140.662 64.0771 140.726 64.06L141.116 65.869C140.993 65.9116 140.816 65.9585 140.586 66.0096C140.36 66.0607 140.083 66.0906 139.755 66.0991C139.175 66.1161 138.653 66.0288 138.189 65.837C137.724 65.641 137.356 65.3384 137.083 64.9293C136.814 64.5202 136.682 64.0089 136.687 63.3952V53.7944ZM147.05 66.1566C146.07 66.1566 145.228 65.9414 144.525 65.511C143.826 65.0806 143.287 64.4862 142.908 63.7276C142.533 62.9648 142.345 62.087 142.345 61.0941C142.345 60.0969 142.537 59.217 142.92 58.4542C143.304 57.6871 143.845 57.0906 144.544 56.6644C145.247 56.234 146.078 56.0188 147.037 56.0188C147.834 56.0188 148.539 56.1658 149.153 56.4599C149.771 56.7496 150.263 57.1609 150.629 57.6935C150.996 58.2219 151.205 58.8398 151.256 59.5472H149.044C148.955 59.0742 148.741 58.68 148.405 58.3647C148.072 58.0451 147.627 57.8853 147.069 57.8853C146.596 57.8853 146.18 58.0131 145.822 58.2688C145.464 58.5202 145.185 58.8825 144.985 59.3555C144.789 59.8285 144.691 60.3952 144.691 61.0558C144.691 61.7248 144.789 62.3001 144.985 62.7816C145.181 63.2589 145.456 63.6275 145.81 63.8874C146.168 64.1431 146.587 64.271 147.069 64.271C147.41 64.271 147.714 64.207 147.983 64.0792C148.256 63.9471 148.484 63.7575 148.667 63.5103C148.85 63.2631 148.976 62.9627 149.044 62.609H151.256C151.2 63.3036 150.996 63.9194 150.642 64.4563C150.288 64.989 149.807 65.4066 149.197 65.7092C148.588 66.0075 147.872 66.1566 147.05 66.1566ZM155.47 60.212V65.9648H153.156V52.8739H155.419V57.815H155.534C155.764 57.261 156.119 56.8242 156.601 56.5046C157.087 56.1808 157.705 56.0188 158.455 56.0188C159.137 56.0188 159.731 56.1616 160.238 56.4471C160.745 56.7326 161.137 57.1502 161.414 57.6999C161.695 58.2496 161.836 58.9208 161.836 59.7134V65.9648H159.522V60.0714C159.522 59.4109 159.352 58.8974 159.011 58.5309C158.674 58.1602 158.201 57.9748 157.592 57.9748C157.183 57.9748 156.816 58.0643 156.492 58.2433C156.173 58.418 155.921 58.6715 155.738 59.0039C155.559 59.3363 155.47 59.739 155.47 60.212ZM166.509 52.8739V65.9648H164.195V52.8739H166.509ZM168.888 65.9648V56.1467H171.202V65.9648H168.888ZM170.051 54.7532C169.685 54.7532 169.37 54.6317 169.105 54.3888C168.841 54.1417 168.709 53.8455 168.709 53.5004C168.709 53.1509 168.841 52.8548 169.105 52.6119C169.37 52.3647 169.685 52.2411 170.051 52.2411C170.422 52.2411 170.738 52.3647 170.998 52.6119C171.262 52.8548 171.394 53.1509 171.394 53.5004C171.394 53.8455 171.262 54.1417 170.998 54.3888C170.738 54.6317 170.422 54.7532 170.051 54.7532ZM181.341 58.7418L179.232 58.9719C179.172 58.7589 179.068 58.5586 178.919 58.3711C178.774 58.1836 178.578 58.0323 178.331 57.9173C178.084 57.8022 177.781 57.7447 177.423 57.7447C176.942 57.7447 176.537 57.8491 176.209 58.0579C175.885 58.2667 175.725 58.5373 175.729 58.8697C175.725 59.1552 175.829 59.3874 176.042 59.5664C176.26 59.7454 176.618 59.8924 177.116 60.0075L178.791 60.3654C179.72 60.5657 180.41 60.8832 180.862 61.3178C181.318 61.7525 181.548 62.3214 181.552 63.0245C181.548 63.6424 181.367 64.1879 181.009 64.6609C180.655 65.1296 180.163 65.4961 179.532 65.7603C178.902 66.0245 178.177 66.1566 177.359 66.1566C176.157 66.1566 175.19 65.9052 174.457 65.4023C173.724 64.8952 173.287 64.19 173.147 63.2866L175.403 63.0692C175.506 63.5124 175.723 63.8469 176.055 64.0728C176.388 64.2987 176.82 64.4116 177.353 64.4116C177.903 64.4116 178.344 64.2987 178.676 64.0728C179.013 63.8469 179.181 63.5678 179.181 63.2354C179.181 62.9542 179.072 62.7219 178.855 62.5387C178.642 62.3555 178.309 62.2148 177.858 62.1168L176.183 61.7653C175.241 61.5692 174.545 61.239 174.093 60.7745C173.641 60.3058 173.417 59.7134 173.422 58.9975C173.417 58.3924 173.581 57.8683 173.914 57.4251C174.251 56.9776 174.717 56.6325 175.314 56.3896C175.915 56.1424 176.607 56.0188 177.391 56.0188C178.542 56.0188 179.447 56.2638 180.108 56.7539C180.773 57.244 181.184 57.9066 181.341 58.7418ZM188.363 56.1467V57.9364H182.719V56.1467H188.363ZM184.112 53.7944H186.426V63.0117C186.426 63.3228 186.473 63.5614 186.567 63.7276C186.665 63.8896 186.793 64.0004 186.95 64.06C187.108 64.1197 187.283 64.1495 187.475 64.1495C187.619 64.1495 187.752 64.1388 187.871 64.1175C187.994 64.0962 188.088 64.0771 188.152 64.06L188.542 65.869C188.419 65.9116 188.242 65.9585 188.012 66.0096C187.786 66.0607 187.509 66.0906 187.181 66.0991C186.601 66.1161 186.079 66.0288 185.615 65.837C185.15 65.641 184.781 65.3384 184.509 64.9293C184.24 64.5202 184.108 64.0089 184.112 63.3952V53.7944Z" fill="#272727"/>
<g clip-path="url(#clip0_14160_50977)">
<path fill-rule="evenodd" clip-rule="evenodd" d="M177.835 110.629C178.004 110.795 178.004 111.064 177.835 111.23L173.221 115.769C173.052 115.936 172.778 115.936 172.609 115.769L170.608 113.801L167.453 116.904C167.284 117.07 167.01 117.07 166.842 116.904C166.673 116.738 166.673 116.469 166.842 116.302L170.302 112.898C170.471 112.732 170.745 112.732 170.914 112.898L172.915 114.867L177.223 110.629C177.392 110.462 177.666 110.462 177.835 110.629Z" fill="#00B967"/>
<path fill-rule="evenodd" clip-rule="evenodd" d="M173.061 110.929C173.061 110.694 173.254 110.504 173.493 110.504H177.53C177.769 110.504 177.963 110.694 177.963 110.929V114.901C177.963 115.136 177.769 115.327 177.53 115.327C177.291 115.327 177.098 115.136 177.098 114.901V111.355H173.493C173.254 111.355 173.061 111.164 173.061 110.929Z" fill="#00B967"/>
</g>
<path d="M182.634 115.965V115.137L185.196 112.483C185.469 112.195 185.695 111.942 185.872 111.725C186.052 111.506 186.186 111.298 186.275 111.101C186.364 110.903 186.408 110.694 186.408 110.472C186.408 110.221 186.349 110.004 186.231 109.822C186.113 109.637 185.951 109.495 185.747 109.397C185.542 109.296 185.312 109.245 185.055 109.245C184.784 109.245 184.548 109.301 184.346 109.411C184.144 109.522 183.988 109.679 183.88 109.881C183.772 110.083 183.717 110.319 183.717 110.591H182.627C182.627 110.13 182.733 109.727 182.945 109.382C183.157 109.037 183.448 108.769 183.817 108.58C184.187 108.388 184.607 108.291 185.078 108.291C185.553 108.291 185.972 108.386 186.334 108.576C186.699 108.763 186.984 109.02 187.188 109.345C187.393 109.668 187.495 110.032 187.495 110.439C187.495 110.72 187.442 110.995 187.336 111.263C187.233 111.532 187.051 111.831 186.793 112.161C186.534 112.489 186.174 112.887 185.713 113.355L184.209 114.93V114.985H187.617V115.965H182.634ZM189.605 116.035C189.403 116.035 189.229 115.964 189.083 115.821C188.938 115.675 188.865 115.5 188.865 115.296C188.865 115.094 188.938 114.921 189.083 114.778C189.229 114.633 189.403 114.56 189.605 114.56C189.807 114.56 189.98 114.633 190.126 114.778C190.271 114.921 190.344 115.094 190.344 115.296C190.344 115.431 190.309 115.556 190.24 115.669C190.174 115.78 190.085 115.869 189.974 115.935C189.863 116.002 189.74 116.035 189.605 116.035ZM194.014 116.091C193.43 116.088 192.931 115.934 192.517 115.628C192.103 115.323 191.787 114.878 191.567 114.294C191.348 113.71 191.238 113.007 191.238 112.184C191.238 111.363 191.348 110.662 191.567 110.08C191.789 109.499 192.107 109.055 192.521 108.75C192.937 108.444 193.435 108.291 194.014 108.291C194.593 108.291 195.09 108.445 195.504 108.753C195.918 109.059 196.234 109.503 196.454 110.084C196.676 110.663 196.786 111.363 196.786 112.184C196.786 113.009 196.677 113.714 196.457 114.298C196.238 114.879 195.922 115.324 195.508 115.632C195.094 115.938 194.596 116.091 194.014 116.091ZM194.014 115.104C194.527 115.104 194.927 114.854 195.216 114.353C195.506 113.853 195.652 113.13 195.652 112.184C195.652 111.555 195.585 111.024 195.452 110.591C195.322 110.154 195.133 109.824 194.887 109.6C194.643 109.373 194.352 109.26 194.014 109.26C193.504 109.26 193.104 109.511 192.813 110.014C192.522 110.517 192.376 111.24 192.373 112.184C192.373 112.814 192.438 113.348 192.569 113.784C192.702 114.218 192.891 114.547 193.135 114.771C193.379 114.993 193.672 115.104 194.014 115.104ZM200.44 116.068C199.977 116.068 199.561 115.98 199.191 115.802C198.824 115.622 198.531 115.376 198.311 115.063C198.092 114.75 197.975 114.393 197.96 113.991H199.069C199.096 114.316 199.24 114.584 199.501 114.793C199.763 115.003 200.076 115.107 200.44 115.107C200.731 115.107 200.989 115.041 201.213 114.908C201.439 114.772 201.617 114.586 201.745 114.35C201.876 114.113 201.941 113.843 201.941 113.54C201.941 113.232 201.874 112.957 201.741 112.716C201.608 112.474 201.425 112.285 201.191 112.147C200.959 112.009 200.693 111.938 200.392 111.936C200.163 111.936 199.933 111.975 199.701 112.054C199.469 112.133 199.282 112.237 199.139 112.365L198.093 112.209L198.518 108.395H202.68V109.374H199.468L199.228 111.492H199.272C199.42 111.349 199.616 111.23 199.86 111.134C200.106 111.038 200.37 110.99 200.651 110.99C201.112 110.99 201.522 111.099 201.882 111.319C202.244 111.538 202.529 111.837 202.736 112.217C202.945 112.594 203.049 113.028 203.046 113.518C203.049 114.008 202.938 114.446 202.713 114.83C202.492 115.215 202.184 115.518 201.789 115.739C201.398 115.959 200.948 116.068 200.44 116.068ZM208.191 114.545V114.146C208.191 113.86 208.25 113.599 208.369 113.363C208.489 113.124 208.664 112.933 208.894 112.79C209.125 112.644 209.405 112.572 209.733 112.572C210.068 112.572 210.349 112.643 210.575 112.786C210.802 112.929 210.973 113.12 211.089 113.359C211.207 113.598 211.267 113.86 211.267 114.146V114.545C211.267 114.831 211.207 115.094 211.089 115.333C210.971 115.569 210.797 115.76 210.568 115.906C210.341 116.049 210.063 116.12 209.733 116.12C209.4 116.12 209.119 116.049 208.89 115.906C208.661 115.76 208.487 115.569 208.369 115.333C208.25 115.094 208.191 114.831 208.191 114.545ZM209.052 114.146V114.545C209.052 114.757 209.103 114.95 209.204 115.122C209.305 115.295 209.481 115.381 209.733 115.381C209.981 115.381 210.155 115.295 210.254 115.122C210.352 114.95 210.402 114.757 210.402 114.545V114.146C210.402 113.934 210.354 113.742 210.257 113.57C210.164 113.397 209.989 113.311 209.733 113.311C209.486 113.311 209.311 113.397 209.208 113.57C209.104 113.742 209.052 113.934 209.052 114.146ZM204.384 110.213V109.814C204.384 109.528 204.443 109.266 204.562 109.027C204.682 108.788 204.857 108.597 205.086 108.454C205.318 108.311 205.598 108.24 205.925 108.24C206.261 108.24 206.542 108.311 206.768 108.454C206.995 108.597 207.166 108.788 207.282 109.027C207.398 109.266 207.456 109.528 207.456 109.814V110.213C207.456 110.499 207.397 110.762 207.278 111.001C207.162 111.237 206.99 111.428 206.761 111.574C206.534 111.717 206.256 111.788 205.925 111.788C205.59 111.788 205.308 111.717 205.079 111.574C204.852 111.428 204.68 111.237 204.562 111.001C204.443 110.762 204.384 110.499 204.384 110.213ZM205.249 109.814V110.213C205.249 110.425 205.298 110.618 205.397 110.79C205.498 110.963 205.674 111.049 205.925 111.049C206.172 111.049 206.344 110.963 206.443 110.79C206.544 110.618 206.594 110.425 206.594 110.213V109.814C206.594 109.602 206.546 109.41 206.45 109.238C206.354 109.065 206.179 108.979 205.925 108.979C205.679 108.979 205.504 109.065 205.401 109.238C205.3 109.41 205.249 109.602 205.249 109.814ZM204.735 115.965L209.94 108.395H210.823L205.619 115.965H204.735Z" fill="#00B967"/>
<path d="M228.515 103.599C228.74 103.16 229.402 103.16 229.626 103.599L231.613 107.49C231.906 108.064 232.463 108.453 233.099 108.545L237.515 109.181C238.04 109.257 238.195 109.845 237.86 110.165L234.672 113.206C234.205 113.651 233.987 114.295 234.098 114.932L234.841 119.216C234.916 119.651 234.428 120.07 233.94 119.822L229.983 117.811C229.411 117.52 228.731 117.52 228.159 117.811L224.202 119.822C223.713 120.07 223.226 119.651 223.301 119.216L224.044 114.932C224.154 114.295 223.936 113.651 223.47 113.206L220.281 110.165C219.946 109.845 220.102 109.257 220.627 109.181L225.043 108.545C225.678 108.453 226.236 108.064 226.529 107.49L228.515 103.599Z" fill="#821EC8" stroke="#821EC8" stroke-width="1.36749"/>
<rect x="45.373" y="99.9648" width="23.2304" height="23.2304" rx="11.6152" fill="#212121"/>
<path fill-rule="evenodd" clip-rule="evenodd" d="M54.2956 105.518C55.3326 104.972 56.5589 104.845 57.7079 105.007C58.5816 105.135 59.4876 105.487 60.0239 106.224C60.4396 106.779 60.5267 107.498 60.5466 108.171V112.125C60.5454 112.517 60.655 112.903 60.8627 113.236C60.9901 113.459 61.1684 113.647 61.3008 113.866C61.3871 114.005 61.3796 114.213 61.2348 114.311C60.7702 114.706 60.3097 115.105 59.8501 115.507C59.7033 115.662 59.4257 115.685 59.2723 115.527C58.9616 115.258 58.6728 114.96 58.453 114.61C58.3878 114.526 58.3489 114.415 58.2626 114.35C57.8652 114.73 57.4545 115.117 56.9509 115.354C56.5775 115.549 56.1586 115.634 55.7437 115.678C55.08 115.727 54.3802 115.712 53.7725 115.407C53.1622 115.12 52.6993 114.565 52.4973 113.924C52.2318 113.069 52.2621 112.112 52.6313 111.292C53.0142 110.446 53.8061 109.839 54.6768 109.557C55.713 109.217 56.8111 109.157 57.888 109.039C57.8672 108.458 57.9933 107.782 57.5694 107.309C56.8542 106.616 55.4239 106.923 55.1323 107.902C55.0866 108.124 55.0008 108.402 54.7328 108.426C54.1371 108.333 53.5331 108.292 52.9345 108.216C52.7657 108.201 52.6101 108.047 52.6408 107.871C52.7773 106.881 53.4082 105.979 54.296 105.518H54.2956ZM55.8553 110.962C55.6581 111.077 55.4894 111.235 55.3616 111.424C55.2337 111.613 55.1501 111.829 55.1169 112.054C55.041 112.51 55.0804 113.021 55.3662 113.401C55.6375 113.768 56.1527 113.888 56.5775 113.758C57.1044 113.608 57.4819 113.147 57.681 112.656C57.9647 111.987 57.8701 111.245 57.8863 110.538C57.196 110.565 56.4635 110.596 55.8553 110.962Z" fill="white"/>
<path fill-rule="evenodd" clip-rule="evenodd" d="M61.8095 115.054C62.4343 114.632 63.2258 114.545 63.96 114.616C64.1558 114.647 64.3636 114.674 64.5316 114.786C64.6461 114.948 64.5993 115.164 64.5922 115.351C64.4914 116.095 64.1952 116.844 63.6369 117.364C63.5601 117.439 63.4099 117.539 63.3477 117.394C63.5385 116.839 63.7949 116.297 63.8708 115.709C63.8941 115.546 63.8762 115.325 63.6879 115.275C63.0349 115.084 62.3563 115.299 61.6942 115.278C61.7 115.188 61.722 115.097 61.8095 115.054ZM49.2095 114.901C49.2784 114.888 49.3394 114.927 49.3983 114.958C52.9318 116.994 57.3041 117.527 61.2159 116.36C61.7533 116.205 62.2809 116.018 62.796 115.801C62.9101 115.749 63.0611 115.705 63.166 115.802C63.2946 115.899 63.2419 116.107 63.1096 116.177C62.1356 116.895 61.0039 117.375 59.8399 117.691C57.9809 118.198 56.0243 118.231 54.1493 117.786C52.3009 117.347 50.5934 116.448 49.1851 115.173C49.0797 115.111 49.0701 114.917 49.2099 114.901H49.2095Z" fill="#F8981D"/>
<path d="M74.5456 115.422H73.1567L76.2775 106.75H77.7892L80.91 115.422H79.5211L77.0693 108.325H77.0016L74.5456 115.422ZM74.7785 112.026H79.2839V113.127H74.7785V112.026ZM81.8818 115.422V108.918H83.0971V109.976H83.1775C83.313 109.618 83.5346 109.338 83.8423 109.138C84.15 108.935 84.5184 108.833 84.9475 108.833C85.3823 108.833 85.7464 108.935 86.04 109.138C86.3364 109.341 86.5552 109.621 86.6963 109.976H86.7641C86.9194 109.629 87.1664 109.353 87.5051 109.146C87.8439 108.938 88.2476 108.833 88.7162 108.833C89.3062 108.833 89.7875 109.018 90.1601 109.388C90.5356 109.758 90.7233 110.315 90.7233 111.06V115.422H89.4572V111.179C89.4572 110.739 89.3372 110.42 89.0973 110.222C88.8573 110.024 88.5708 109.926 88.2377 109.926C87.8255 109.926 87.5051 110.053 87.2765 110.307C87.0478 110.558 86.9335 110.881 86.9335 111.276V115.422H85.6716V111.099C85.6716 110.746 85.5615 110.462 85.3413 110.247C85.1211 110.033 84.8346 109.926 84.4817 109.926C84.2418 109.926 84.0202 109.989 83.8169 110.116C83.6165 110.24 83.4542 110.414 83.33 110.637C83.2086 110.86 83.1479 111.118 83.1479 111.412V115.422H81.8818ZM94.1342 115.566C93.722 115.566 93.3494 115.49 93.0163 115.337C92.6832 115.182 92.4192 114.958 92.2244 114.664C92.0325 114.37 91.9365 114.01 91.9365 113.584C91.9365 113.217 92.0071 112.915 92.1482 112.678C92.2894 112.441 92.4799 112.253 92.7199 112.115C92.9598 111.976 93.228 111.872 93.5244 111.801C93.8208 111.731 94.1229 111.677 94.4306 111.641C94.8201 111.595 95.1363 111.559 95.3791 111.53C95.6218 111.499 95.7983 111.45 95.9084 111.382C96.0185 111.314 96.0735 111.204 96.0735 111.052V111.022C96.0735 110.653 95.9691 110.366 95.7602 110.163C95.5541 109.959 95.2464 109.858 94.8371 109.858C94.4108 109.858 94.0749 109.952 93.8293 110.142C93.5865 110.328 93.4185 110.535 93.3254 110.764L92.1355 110.493C92.2767 110.098 92.4827 109.779 92.7537 109.536C93.0276 109.29 93.3423 109.113 93.698 109.002C94.0537 108.89 94.4277 108.833 94.8201 108.833C95.0798 108.833 95.3551 108.864 95.6458 108.926C95.9394 108.986 96.2133 109.096 96.4673 109.257C96.7242 109.417 96.9345 109.648 97.0982 109.947C97.262 110.243 97.3438 110.629 97.3438 111.103V115.422H96.1074V114.533H96.0566C95.9747 114.696 95.8519 114.857 95.6882 115.015C95.5245 115.173 95.3141 115.305 95.0573 115.409C94.8004 115.514 94.4927 115.566 94.1342 115.566ZM94.4094 114.55C94.7594 114.55 95.0587 114.48 95.3071 114.342C95.5583 114.204 95.7489 114.023 95.8787 113.8C96.0114 113.574 96.0778 113.333 96.0778 113.076V112.238C96.0326 112.283 95.9451 112.325 95.8152 112.365C95.6882 112.401 95.5428 112.434 95.3791 112.462C95.2153 112.487 95.0558 112.511 94.9006 112.534C94.7453 112.554 94.6155 112.571 94.511 112.585C94.2654 112.616 94.041 112.668 93.8377 112.741C93.6373 112.815 93.4764 112.921 93.355 113.059C93.2365 113.195 93.1772 113.375 93.1772 113.601C93.1772 113.914 93.2929 114.152 93.5244 114.312C93.7559 114.471 94.0509 114.55 94.4094 114.55ZM98.7158 115.422V114.554L102.239 110.078V110.019H98.8302V108.918H103.818V109.841L100.431 114.262V114.321H103.937V115.422H98.7158ZM107.805 115.553C107.195 115.553 106.663 115.413 106.209 115.134C105.754 114.854 105.401 114.463 105.15 113.961C104.899 113.459 104.773 112.871 104.773 112.199C104.773 111.525 104.899 110.935 105.15 110.429C105.401 109.924 105.754 109.532 106.209 109.252C106.663 108.973 107.195 108.833 107.805 108.833C108.415 108.833 108.947 108.973 109.401 109.252C109.856 109.532 110.209 109.924 110.46 110.429C110.711 110.935 110.837 111.525 110.837 112.199C110.837 112.871 110.711 113.459 110.46 113.961C110.209 114.463 109.856 114.854 109.401 115.134C108.947 115.413 108.415 115.553 107.805 115.553ZM107.809 114.49C108.205 114.49 108.532 114.386 108.792 114.177C109.051 113.968 109.243 113.69 109.368 113.343C109.495 112.996 109.558 112.613 109.558 112.195C109.558 111.78 109.495 111.399 109.368 111.052C109.243 110.702 109.051 110.421 108.792 110.209C108.532 109.998 108.205 109.892 107.809 109.892C107.411 109.892 107.081 109.998 106.818 110.209C106.559 110.421 106.365 110.702 106.238 111.052C106.114 111.399 106.052 111.78 106.052 112.195C106.052 112.613 106.114 112.996 106.238 113.343C106.365 113.69 106.559 113.968 106.818 114.177C107.081 114.386 107.411 114.49 107.809 114.49ZM113.337 111.56V115.422H112.071V108.918H113.287V109.976H113.367C113.517 109.632 113.751 109.355 114.07 109.146C114.392 108.938 114.797 108.833 115.285 108.833C115.728 108.833 116.117 108.926 116.45 109.113C116.783 109.296 117.041 109.57 117.225 109.934C117.408 110.298 117.5 110.748 117.5 111.285V115.422H116.234V111.437C116.234 110.966 116.111 110.597 115.865 110.332C115.62 110.064 115.282 109.93 114.853 109.93C114.56 109.93 114.299 109.993 114.07 110.12C113.844 110.247 113.665 110.434 113.532 110.679C113.402 110.922 113.337 111.216 113.337 111.56Z" fill="#272727"/>
<path fill-rule="evenodd" clip-rule="evenodd" d="M178.78 147.985C178.957 148.163 178.957 148.451 178.78 148.629L173.921 153.488C173.743 153.666 173.455 153.666 173.277 153.488L171.17 151.381L167.848 154.703C167.67 154.881 167.382 154.881 167.204 154.703C167.026 154.525 167.026 154.236 167.204 154.059L170.848 150.414C171.025 150.237 171.314 150.237 171.492 150.414L173.599 152.522L178.135 147.985C178.313 147.807 178.602 147.807 178.78 147.985Z" fill="#00B967"/>
<path fill-rule="evenodd" clip-rule="evenodd" d="M173.75 148.307C173.75 148.056 173.954 147.852 174.205 147.852H178.457C178.708 147.852 178.912 148.056 178.912 148.307V152.559C178.912 152.81 178.708 153.014 178.457 153.014C178.205 153.014 178.001 152.81 178.001 152.559V148.763H174.205C173.954 148.763 173.75 148.559 173.75 148.307Z" fill="#00B967"/>
<path d="M186.92 145.889V153.992H185.694V147.116H185.646L183.707 148.382V147.211L185.729 145.889H186.92ZM189.272 154.067C189.056 154.067 188.87 153.991 188.714 153.838C188.559 153.682 188.481 153.495 188.481 153.276C188.481 153.06 188.559 152.875 188.714 152.722C188.87 152.567 189.056 152.489 189.272 152.489C189.489 152.489 189.674 152.567 189.83 152.722C189.986 152.875 190.064 153.06 190.064 153.276C190.064 153.421 190.027 153.554 189.953 153.676C189.882 153.794 189.787 153.889 189.668 153.961C189.549 154.032 189.417 154.067 189.272 154.067ZM191.531 153.992L195.069 146.997V146.938H190.978V145.889H196.335V146.973L192.809 153.992H191.531ZM200.129 145.778C200.49 145.781 200.846 145.847 201.197 145.976C201.548 146.106 201.865 146.317 202.147 146.609C202.432 146.902 202.658 147.298 202.827 147.796C202.999 148.292 203.086 148.909 203.088 149.648C203.088 150.357 203.017 150.989 202.875 151.543C202.732 152.094 202.528 152.56 202.262 152.94C201.998 153.32 201.677 153.608 201.3 153.806C200.923 154.004 200.498 154.103 200.026 154.103C199.543 154.103 199.115 154.008 198.74 153.818C198.366 153.628 198.061 153.366 197.826 153.031C197.592 152.693 197.445 152.305 197.387 151.868H198.594C198.673 152.216 198.834 152.498 199.077 152.714C199.322 152.928 199.638 153.035 200.026 153.035C200.62 153.035 201.082 152.776 201.415 152.259C201.747 151.74 201.915 151.014 201.917 150.083H201.854C201.717 150.31 201.545 150.505 201.34 150.669C201.137 150.832 200.908 150.959 200.655 151.049C200.402 151.138 200.132 151.183 199.844 151.183C199.377 151.183 198.953 151.068 198.57 150.839C198.188 150.609 197.883 150.294 197.656 149.893C197.429 149.492 197.316 149.035 197.316 148.52C197.316 148.009 197.432 147.544 197.664 147.128C197.899 146.711 198.226 146.381 198.645 146.139C199.067 145.893 199.562 145.773 200.129 145.778ZM200.133 146.807C199.824 146.807 199.546 146.884 199.298 147.037C199.053 147.187 198.859 147.391 198.716 147.65C198.574 147.906 198.503 148.191 198.503 148.505C198.503 148.818 198.571 149.103 198.709 149.359C198.848 149.612 199.038 149.814 199.278 149.964C199.521 150.112 199.798 150.186 200.109 150.186C200.341 150.186 200.558 150.141 200.758 150.052C200.959 149.962 201.134 149.838 201.284 149.68C201.435 149.519 201.552 149.337 201.636 149.134C201.721 148.93 201.763 148.717 201.763 148.493C201.763 148.195 201.692 147.918 201.549 147.662C201.41 147.406 201.217 147.2 200.972 147.045C200.726 146.886 200.447 146.807 200.133 146.807ZM208.58 152.473V152.046C208.58 151.74 208.643 151.46 208.77 151.207C208.899 150.951 209.087 150.747 209.332 150.594C209.58 150.438 209.879 150.36 210.23 150.36C210.589 150.36 210.889 150.437 211.132 150.59C211.375 150.743 211.558 150.947 211.682 151.203C211.809 151.459 211.872 151.74 211.872 152.046V152.473C211.872 152.779 211.809 153.06 211.682 153.316C211.555 153.569 211.369 153.773 211.124 153.929C210.881 154.082 210.583 154.158 210.23 154.158C209.874 154.158 209.573 154.082 209.328 153.929C209.083 153.773 208.897 153.569 208.77 153.316C208.643 153.06 208.58 152.779 208.58 152.473ZM209.502 152.046V152.473C209.502 152.7 209.556 152.905 209.664 153.09C209.772 153.275 209.961 153.367 210.23 153.367C210.496 153.367 210.682 153.275 210.788 153.09C210.893 152.905 210.946 152.7 210.946 152.473V152.046C210.946 151.819 210.895 151.613 210.792 151.428C210.692 151.244 210.504 151.151 210.23 151.151C209.966 151.151 209.779 151.244 209.668 151.428C209.557 151.613 209.502 151.819 209.502 152.046ZM204.505 147.836V147.409C204.505 147.103 204.568 146.822 204.695 146.566C204.824 146.31 205.011 146.106 205.257 145.953C205.505 145.8 205.804 145.723 206.155 145.723C206.513 145.723 206.814 145.8 207.057 145.953C207.3 146.106 207.483 146.31 207.607 146.566C207.731 146.822 207.793 147.103 207.793 147.409V147.836C207.793 148.142 207.729 148.423 207.603 148.679C207.479 148.932 207.294 149.136 207.049 149.292C206.806 149.445 206.508 149.521 206.155 149.521C205.796 149.521 205.494 149.445 205.249 149.292C205.006 149.136 204.821 148.932 204.695 148.679C204.568 148.423 204.505 148.142 204.505 147.836ZM205.431 147.409V147.836C205.431 148.063 205.483 148.268 205.589 148.453C205.697 148.638 205.886 148.73 206.155 148.73C206.419 148.73 206.603 148.638 206.709 148.453C206.817 148.268 206.871 148.063 206.871 147.836V147.409C206.871 147.182 206.819 146.976 206.717 146.791C206.614 146.607 206.426 146.514 206.155 146.514C205.891 146.514 205.704 146.607 205.593 146.791C205.485 146.976 205.431 147.182 205.431 147.409ZM204.881 153.992L210.452 145.889H211.397L205.826 153.992H204.881Z" fill="#00B967"/>
<path d="M228.164 142.83C228.388 142.39 229.051 142.39 229.275 142.83L231.261 146.721C231.554 147.294 232.112 147.684 232.747 147.775L237.163 148.411C237.688 148.487 237.844 149.076 237.509 149.396L234.32 152.436C233.854 152.881 233.636 153.526 233.746 154.163L234.489 158.447C234.565 158.882 234.077 159.301 233.588 159.053L229.631 157.041C229.059 156.75 228.379 156.75 227.807 157.041L223.85 159.053C223.362 159.301 222.874 158.882 222.949 158.447L223.692 154.163C223.803 153.526 223.585 152.881 223.119 152.436L219.93 149.396C219.595 149.076 219.75 148.487 220.275 148.411L224.692 147.775C225.327 147.684 225.884 147.294 226.177 146.721L228.164 142.83Z" fill="#821EC8" stroke="#821EC8" stroke-width="1.36749"/>
<path d="M68.4507 151.197C68.4507 144.782 63.2505 139.582 56.8357 139.582C50.4209 139.582 45.2207 144.782 45.2207 151.197C45.2207 157.612 50.4209 162.812 56.8357 162.812C63.2505 162.812 68.4507 157.612 68.4507 151.197Z" fill="#E3252D"/>
<path fill-rule="evenodd" clip-rule="evenodd" d="M55.0977 158.202V150.061L57.8837 157.873C58.7403 157.778 59.5989 157.688 60.4593 157.604V143.73H58.2014V152.163L55.1944 143.73H52.8398V158.494H52.8539C53.6006 158.392 54.3481 158.295 55.0977 158.202Z" fill="white"/>
<path d="M80.8144 145.98V154.652H79.6118L75.2038 148.292H75.1233V154.652H73.8149V145.98H75.0259L79.4382 152.349H79.5186V145.98H80.8144ZM85.2457 154.784C84.6049 154.784 84.053 154.647 83.5901 154.373C83.1299 154.096 82.7742 153.708 82.523 153.208C82.2746 152.706 82.1504 152.117 82.1504 151.443C82.1504 150.776 82.2746 150.189 82.523 149.681C82.7742 149.173 83.1243 148.776 83.5731 148.491C84.0248 148.206 84.5527 148.064 85.1568 148.064C85.5238 148.064 85.8795 148.124 86.2239 148.246C86.5683 148.367 86.8774 148.558 87.1512 148.817C87.4251 149.077 87.641 149.414 87.7991 149.829C87.9572 150.241 88.0362 150.743 88.0362 151.333V151.781H82.866V150.833H86.7955C86.7955 150.5 86.7278 150.205 86.5923 149.948C86.4568 149.688 86.2662 149.484 86.0206 149.334C85.7779 149.184 85.4927 149.109 85.1653 149.109C84.8096 149.109 84.4991 149.197 84.2337 149.372C83.9712 149.544 83.7679 149.77 83.624 150.05C83.4828 150.326 83.4122 150.627 83.4122 150.951V151.692C83.4122 152.127 83.4884 152.497 83.6409 152.802C83.7962 153.107 84.0121 153.34 84.2888 153.501C84.5654 153.659 84.8886 153.738 85.2584 153.738C85.4984 153.738 85.7172 153.704 85.9148 153.636C86.1124 153.566 86.2832 153.461 86.4271 153.323C86.5711 153.184 86.6812 153.014 86.7574 152.81L87.9558 153.026C87.8598 153.379 87.6876 153.688 87.4392 153.954C87.1936 154.216 86.8845 154.421 86.5118 154.568C86.142 154.712 85.72 154.784 85.2457 154.784ZM92.2982 148.148V149.165H88.7455V148.148H92.2982ZM89.6983 146.59H90.9644V152.743C90.9644 152.988 91.0011 153.173 91.0745 153.297C91.1479 153.419 91.2424 153.502 91.3582 153.547C91.4767 153.59 91.6052 153.611 91.7435 153.611C91.8451 153.611 91.934 153.604 92.0103 153.59C92.0865 153.575 92.1458 153.564 92.1881 153.556L92.4168 154.602C92.3434 154.63 92.2389 154.658 92.1034 154.686C91.9679 154.717 91.7985 154.734 91.5953 154.737C91.2622 154.743 90.9517 154.683 90.6637 154.559C90.3758 154.435 90.1429 154.243 89.965 153.983C89.7872 153.724 89.6983 153.398 89.6983 153.005V146.59ZM96.6152 148.148V149.165H92.9398V148.148H96.6152ZM93.9476 154.652V147.395C93.9476 146.988 94.0365 146.651 94.2143 146.383C94.3922 146.112 94.6279 145.91 94.9215 145.777C95.2151 145.641 95.5341 145.574 95.8785 145.574C96.1325 145.574 96.3499 145.595 96.5306 145.637C96.7112 145.677 96.8453 145.713 96.9328 145.747L96.6364 146.772C96.5771 146.755 96.5009 146.735 96.4078 146.713C96.3146 146.687 96.2017 146.675 96.069 146.675C95.7613 146.675 95.5411 146.751 95.4084 146.903C95.2786 147.056 95.2136 147.276 95.2136 147.564V154.652H93.9476ZM99.0088 145.98V154.652H97.7427V145.98H99.0088ZM100.533 154.652V148.148H101.799V154.652H100.533ZM101.173 147.145C100.952 147.145 100.763 147.071 100.605 146.925C100.45 146.775 100.372 146.597 100.372 146.391C100.372 146.182 100.45 146.004 100.605 145.857C100.763 145.708 100.952 145.633 101.173 145.633C101.393 145.633 101.581 145.708 101.736 145.857C101.894 146.004 101.973 146.182 101.973 146.391C101.973 146.597 101.894 146.775 101.736 146.925C101.581 147.071 101.393 147.145 101.173 147.145ZM104.323 148.148L105.759 150.68L107.207 148.148H108.591L106.563 151.4L108.608 154.652H107.224L105.759 152.222L104.298 154.652H102.909L104.933 151.4L102.934 148.148H104.323Z" fill="#272727"/>
<g clip-path="url(#clip1_14160_50977)">
<path fill-rule="evenodd" clip-rule="evenodd" d="M178.012 195.214C178.18 195.046 178.18 194.773 178.012 194.605L173.42 190.013C173.252 189.845 172.98 189.845 172.811 190.013L170.82 192.004L167.68 188.865C167.512 188.697 167.24 188.697 167.071 188.865C166.903 189.033 166.903 189.306 167.071 189.474L170.515 192.918C170.684 193.086 170.956 193.086 171.124 192.918L173.116 190.926L177.403 195.214C177.572 195.382 177.844 195.382 178.012 195.214Z" fill="#E2001A"/>
<path fill-rule="evenodd" clip-rule="evenodd" d="M173.26 194.909C173.26 195.147 173.453 195.34 173.69 195.34H177.708C177.946 195.34 178.139 195.147 178.139 194.909V190.891C178.139 190.654 177.946 190.461 177.708 190.461C177.471 190.461 177.278 190.654 177.278 190.891V194.479H173.69C173.453 194.479 173.26 194.672 173.26 194.909Z" fill="#E2001A"/>
</g>
<path d="M182.803 194.137V193.299L185.394 190.614C185.671 190.323 185.899 190.067 186.079 189.848C186.261 189.626 186.397 189.415 186.486 189.216C186.576 189.016 186.621 188.804 186.621 188.58C186.621 188.326 186.561 188.106 186.441 187.922C186.322 187.735 186.159 187.592 185.952 187.492C185.745 187.39 185.512 187.339 185.252 187.339C184.978 187.339 184.739 187.395 184.534 187.507C184.33 187.619 184.173 187.777 184.063 187.982C183.954 188.186 183.899 188.425 183.899 188.7H182.796C182.796 188.233 182.903 187.826 183.117 187.477C183.332 187.128 183.626 186.857 184 186.665C184.374 186.471 184.799 186.374 185.275 186.374C185.756 186.374 186.18 186.47 186.546 186.662C186.915 186.851 187.203 187.11 187.41 187.439C187.617 187.766 187.72 188.135 187.72 188.546C187.72 188.831 187.667 189.108 187.56 189.38C187.455 189.652 187.272 189.955 187.01 190.289C186.748 190.62 186.384 191.023 185.918 191.497L184.396 193.09V193.146H187.844V194.137H182.803ZM189.855 194.208C189.65 194.208 189.474 194.135 189.327 193.991C189.18 193.844 189.107 193.667 189.107 193.46C189.107 193.255 189.18 193.081 189.327 192.936C189.474 192.789 189.65 192.716 189.855 192.716C190.059 192.716 190.235 192.789 190.382 192.936C190.529 193.081 190.603 193.255 190.603 193.46C190.603 193.597 190.568 193.723 190.498 193.838C190.431 193.95 190.341 194.039 190.229 194.107C190.116 194.174 189.992 194.208 189.855 194.208ZM194.316 194.264C193.725 194.261 193.22 194.106 192.801 193.796C192.383 193.487 192.062 193.037 191.84 192.447C191.618 191.856 191.508 191.144 191.508 190.311C191.508 189.481 191.618 188.772 191.84 188.184C192.065 187.595 192.386 187.147 192.805 186.837C193.226 186.528 193.73 186.374 194.316 186.374C194.902 186.374 195.404 186.53 195.823 186.841C196.242 187.15 196.562 187.599 196.784 188.187C197.008 188.773 197.12 189.481 197.12 190.311C197.12 191.146 197.009 191.859 196.788 192.45C196.566 193.039 196.245 193.489 195.827 193.8C195.408 194.109 194.904 194.264 194.316 194.264ZM194.316 193.265C194.834 193.265 195.239 193.012 195.531 192.506C195.825 192 195.972 191.269 195.972 190.311C195.972 189.676 195.905 189.138 195.77 188.7C195.638 188.258 195.448 187.924 195.198 187.697C194.951 187.468 194.657 187.353 194.316 187.353C193.8 187.353 193.395 187.608 193.1 188.116C192.806 188.625 192.658 189.357 192.656 190.311C192.656 190.95 192.722 191.489 192.854 191.93C192.988 192.369 193.179 192.702 193.426 192.929C193.673 193.153 193.969 193.265 194.316 193.265ZM200.817 194.241C200.348 194.241 199.927 194.152 199.553 193.972C199.181 193.79 198.885 193.541 198.663 193.224C198.441 192.908 198.323 192.546 198.308 192.14H199.429C199.457 192.469 199.603 192.739 199.867 192.951C200.131 193.163 200.448 193.269 200.817 193.269C201.111 193.269 201.371 193.202 201.598 193.067C201.828 192.93 202.007 192.742 202.137 192.503C202.269 192.263 202.335 191.99 202.335 191.684C202.335 191.372 202.268 191.094 202.133 190.85C201.998 190.605 201.813 190.414 201.576 190.274C201.342 190.134 201.072 190.063 200.768 190.061C200.536 190.061 200.303 190.101 200.069 190.18C199.835 190.26 199.645 190.365 199.5 190.495L198.442 190.337L198.872 186.478H203.083V187.469H199.833L199.59 189.612H199.635C199.785 189.467 199.983 189.347 200.23 189.249C200.479 189.152 200.746 189.103 201.03 189.103C201.496 189.103 201.911 189.214 202.275 189.436C202.642 189.658 202.93 189.961 203.139 190.345C203.351 190.726 203.456 191.165 203.453 191.661C203.456 192.157 203.343 192.6 203.116 192.989C202.892 193.378 202.581 193.684 202.182 193.909C201.785 194.13 201.33 194.241 200.817 194.241ZM208.658 192.701V192.297C208.658 192.008 208.718 191.744 208.838 191.504C208.96 191.262 209.137 191.069 209.369 190.925C209.603 190.777 209.886 190.704 210.218 190.704C210.557 190.704 210.841 190.776 211.07 190.921C211.3 191.065 211.473 191.259 211.59 191.5C211.71 191.742 211.769 192.008 211.769 192.297V192.701C211.769 192.99 211.71 193.255 211.59 193.497C211.47 193.737 211.295 193.93 211.063 194.077C210.833 194.221 210.552 194.294 210.218 194.294C209.881 194.294 209.597 194.221 209.365 194.077C209.133 193.93 208.957 193.737 208.838 193.497C208.718 193.255 208.658 192.99 208.658 192.701ZM209.53 192.297V192.701C209.53 192.915 209.581 193.11 209.683 193.284C209.785 193.459 209.963 193.546 210.218 193.546C210.469 193.546 210.645 193.459 210.745 193.284C210.845 193.11 210.894 192.915 210.894 192.701V192.297C210.894 192.083 210.846 191.888 210.749 191.714C210.654 191.539 210.477 191.452 210.218 191.452C209.968 191.452 209.791 191.539 209.687 191.714C209.582 191.888 209.53 192.083 209.53 192.297ZM204.807 188.318V187.914C204.807 187.625 204.867 187.36 204.986 187.118C205.108 186.876 205.285 186.683 205.517 186.538C205.752 186.394 206.034 186.321 206.366 186.321C206.705 186.321 206.989 186.394 207.219 186.538C207.448 186.683 207.621 186.876 207.738 187.118C207.856 187.36 207.914 187.625 207.914 187.914V188.318C207.914 188.607 207.854 188.873 207.735 189.115C207.618 189.354 207.443 189.547 207.211 189.694C206.982 189.839 206.7 189.911 206.366 189.911C206.027 189.911 205.742 189.839 205.51 189.694C205.28 189.547 205.106 189.354 204.986 189.115C204.867 188.873 204.807 188.607 204.807 188.318ZM205.682 187.914V188.318C205.682 188.533 205.732 188.727 205.831 188.902C205.934 189.076 206.112 189.163 206.366 189.163C206.615 189.163 206.79 189.076 206.89 188.902C206.992 188.727 207.043 188.533 207.043 188.318V187.914C207.043 187.7 206.994 187.506 206.897 187.331C206.8 187.157 206.623 187.069 206.366 187.069C206.117 187.069 205.94 187.157 205.835 187.331C205.733 187.506 205.682 187.7 205.682 187.914ZM205.162 194.137L210.427 186.478H211.321L206.056 194.137H205.162Z" fill="#E2001A"/>
<path d="M228.164 182.873C228.388 182.433 229.051 182.433 229.275 182.873L231.261 186.764C231.554 187.337 232.112 187.727 232.747 187.818L237.163 188.454C237.688 188.53 237.844 189.119 237.509 189.439L234.32 192.479C233.854 192.924 233.636 193.569 233.746 194.206L234.489 198.49C234.565 198.925 234.077 199.344 233.588 199.096L229.631 197.084C229.059 196.793 228.379 196.793 227.807 197.084L223.85 199.096C223.362 199.344 222.874 198.925 222.949 198.49L223.692 194.206C223.803 193.569 223.585 192.924 223.119 192.479L219.93 189.439C219.595 189.119 219.75 188.53 220.275 188.454L224.692 187.818C225.327 187.727 225.884 187.337 226.177 186.764L228.164 182.873Z" fill="#821EC8" stroke="#821EC8" stroke-width="1.36749"/>
<g clip-path="url(#clip2_14160_50977)">
<rect x="45.7578" y="178.812" width="23.23" height="23.23" rx="11.615" fill="#E20074"/>
<g clip-path="url(#clip3_14160_50977)">
<path d="M47.9922 192.131V190.332H49.7913V192.131H47.9922ZM53.6467 192.131V190.332H55.4459V192.131H53.6467ZM59.3012 192.131V190.332H61.1004V192.131H59.3012ZM64.9557 192.131V190.332H66.7549V192.131H64.9557Z" fill="white"/>
<path d="M51.0765 186.408C50.3208 186.431 49.6474 186.688 49.2208 187.174C48.8172 187.637 48.5653 188.356 48.4728 189.313L47.9922 189.228L48.0847 185.961H55.3559L55.4459 189.228L54.9652 189.313C54.8727 188.346 54.6208 187.637 54.2173 187.174C53.7906 186.688 53.1172 186.431 52.3616 186.408V193.235C52.3616 193.828 52.5081 194.217 52.6829 194.394C52.8268 194.548 53.0453 194.641 53.3897 194.671C53.4976 194.679 53.6595 194.687 53.9037 194.687V195.214H49.5343V194.689C49.7785 194.689 49.9404 194.682 50.0484 194.674C50.3928 194.643 50.6087 194.551 50.7552 194.396C50.93 194.219 51.0765 193.834 51.0765 193.237V186.408Z" fill="white"/>
</g>
</g>
<path d="M73.7074 187.15V186.023H80.419V187.15H77.7132V194.695H76.409V187.15H73.7074ZM84.7434 189.809V190.91H80.8986V189.809H84.7434ZM86.3536 186.023H87.9415L90.7024 192.764H90.804L93.5648 186.023H95.1527V194.695H93.9078V188.42H93.8274L91.2698 194.683H90.2366L87.679 188.416H87.5985V194.695H86.3536V186.023ZM99.5142 194.827C98.9045 194.827 98.3724 194.687 97.9179 194.407C97.4634 194.128 97.1105 193.737 96.8593 193.234C96.608 192.732 96.4824 192.145 96.4824 191.473C96.4824 190.798 96.608 190.208 96.8593 189.703C97.1105 189.198 97.4634 188.805 97.9179 188.526C98.3724 188.246 98.9045 188.107 99.5142 188.107C100.124 188.107 100.656 188.246 101.111 188.526C101.565 188.805 101.918 189.198 102.169 189.703C102.42 190.208 102.546 190.798 102.546 191.473C102.546 192.145 102.42 192.732 102.169 193.234C101.918 193.737 101.565 194.128 101.111 194.407C100.656 194.687 100.124 194.827 99.5142 194.827ZM99.5185 193.764C99.9137 193.764 100.241 193.659 100.501 193.45C100.761 193.241 100.953 192.963 101.077 192.616C101.204 192.269 101.267 191.886 101.267 191.469C101.267 191.054 101.204 190.673 101.077 190.325C100.953 189.975 100.761 189.694 100.501 189.483C100.241 189.271 99.9137 189.165 99.5185 189.165C99.1204 189.165 98.7902 189.271 98.5276 189.483C98.2679 189.694 98.0745 189.975 97.9475 190.325C97.8233 190.673 97.7612 191.054 97.7612 191.469C97.7612 191.886 97.8233 192.269 97.9475 192.616C98.0745 192.963 98.2679 193.241 98.5276 193.45C98.7902 193.659 99.1204 193.764 99.5185 193.764ZM103.882 194.695V186.023H105.148V189.246H105.224C105.298 189.11 105.404 188.953 105.542 188.776C105.68 188.598 105.872 188.442 106.118 188.31C106.363 188.174 106.688 188.107 107.092 188.107C107.617 188.107 108.085 188.239 108.498 188.505C108.91 188.77 109.233 189.152 109.467 189.652C109.704 190.152 109.823 190.753 109.823 191.456C109.823 192.159 109.706 192.762 109.472 193.264C109.237 193.764 108.915 194.149 108.506 194.42C108.097 194.688 107.63 194.822 107.104 194.822C106.709 194.822 106.386 194.756 106.135 194.623C105.886 194.491 105.692 194.335 105.55 194.158C105.409 193.98 105.301 193.822 105.224 193.683H105.119V194.695H103.882ZM105.123 191.443C105.123 191.901 105.189 192.301 105.322 192.646C105.454 192.99 105.646 193.26 105.898 193.455C106.149 193.647 106.457 193.743 106.821 193.743C107.199 193.743 107.515 193.642 107.769 193.442C108.023 193.239 108.215 192.963 108.345 192.616C108.478 192.269 108.544 191.878 108.544 191.443C108.544 191.014 108.479 190.629 108.349 190.287C108.222 189.946 108.03 189.676 107.774 189.479C107.519 189.281 107.202 189.182 106.821 189.182C106.454 189.182 106.143 189.277 105.889 189.466C105.638 189.655 105.447 189.919 105.318 190.258C105.188 190.596 105.123 190.992 105.123 191.443ZM111.066 194.695V188.191H112.332V194.695H111.066ZM111.705 187.188C111.485 187.188 111.296 187.114 111.138 186.967C110.983 186.818 110.905 186.64 110.905 186.434C110.905 186.225 110.983 186.047 111.138 185.9C111.296 185.751 111.485 185.676 111.705 185.676C111.925 185.676 112.113 185.751 112.268 185.9C112.426 186.047 112.506 186.225 112.506 186.434C112.506 186.64 112.426 186.818 112.268 186.967C112.113 187.114 111.925 187.188 111.705 187.188ZM115.122 186.023V194.695H113.856V186.023H115.122ZM119.45 194.827C118.809 194.827 118.257 194.69 117.794 194.416C117.334 194.139 116.979 193.751 116.727 193.251C116.479 192.749 116.355 192.16 116.355 191.486C116.355 190.819 116.479 190.232 116.727 189.724C116.979 189.216 117.329 188.819 117.777 188.534C118.229 188.249 118.757 188.107 119.361 188.107C119.728 188.107 120.084 188.167 120.428 188.289C120.773 188.41 121.082 188.601 121.356 188.86C121.629 189.12 121.845 189.457 122.003 189.872C122.162 190.284 122.241 190.786 122.241 191.376V191.824H117.07V190.876H121C121 190.543 120.932 190.248 120.797 189.991C120.661 189.731 120.471 189.526 120.225 189.377C119.982 189.227 119.697 189.152 119.37 189.152C119.014 189.152 118.703 189.24 118.438 189.415C118.176 189.587 117.972 189.813 117.828 190.092C117.687 190.369 117.617 190.67 117.617 190.994V191.735C117.617 192.17 117.693 192.54 117.845 192.845C118 193.15 118.216 193.383 118.493 193.544C118.77 193.702 119.093 193.781 119.463 193.781C119.703 193.781 119.921 193.747 120.119 193.679C120.317 193.608 120.488 193.504 120.631 193.366C120.775 193.227 120.886 193.057 120.962 192.853L122.16 193.069C122.064 193.422 121.892 193.731 121.643 193.997C121.398 194.259 121.089 194.464 120.716 194.611C120.346 194.755 119.924 194.827 119.45 194.827Z" fill="#272727"/>
<defs>
<filter id="filter0_bd_14160_50977" x="0.688169" y="0.657842" width="307.36" height="263.831" filterUnits="userSpaceOnUse" color-interpolation-filters="sRGB">
<feFlood flood-opacity="0" result="BackgroundImageFix"/>
<feGaussianBlur in="BackgroundImageFix" stdDeviation="12.4564"/>
<feComposite in2="SourceAlpha" operator="in" result="effect1_backgroundBlur_14160_50977"/>
<feColorMatrix in="SourceAlpha" type="matrix" values="0 0 0 0 0 0 0 0 0 0 0 0 0 0 0 0 0 0 127 0" result="hardAlpha"/>
<feOffset dx="10.7716" dy="8.96195"/>
<feGaussianBlur stdDeviation="19.7282"/>
<feComposite in2="hardAlpha" operator="out"/>
<feColorMatrix type="matrix" values="0 0 0 0 0.509804 0 0 0 0 0.117647 0 0 0 0 0.784314 0 0 0 0.21 0"/>
<feBlend mode="normal" in2="effect1_backgroundBlur_14160_50977" result="effect2_dropShadow_14160_50977"/>
<feBlend mode="normal" in="SourceGraphic" in2="effect2_dropShadow_14160_50977" result="shape"/>
</filter>
<clipPath id="clip0_14160_50977">
<rect width="13.842" height="13.6171" fill="white" transform="translate(165.418 106.961)"/>
</clipPath>
<clipPath id="clip1_14160_50977">
<rect width="13.7761" height="13.7761" fill="white" transform="matrix(1 0 0 -1 165.656 198.922)"/>
</clipPath>
<clipPath id="clip2_14160_50977">
<rect width="23.23" height="23.23" fill="white" transform="translate(45.7578 178.812)"/>
</clipPath>
<clipPath id="clip3_14160_50977">
<rect width="18.7627" height="9.25283" fill="white" transform="translate(47.9902 185.961)"/>
</clipPath>
</defs>
</svg>
