<svg width="31" height="31" viewBox="0 0 31 31" fill="none" xmlns="http://www.w3.org/2000/svg">
<circle cx="11.6691" cy="19.7219" r="10.0831" stroke="#821ec8" stroke-width="1.5"/>
<path fill-rule="evenodd" clip-rule="evenodd" d="M24.1694 19.7424C27.233 18.2118 29.3369 15.0457 29.3369 11.3882C29.3369 6.23364 25.1583 2.05505 20.0037 2.05505C16.3468 2.05505 13.1811 4.15829 11.6502 7.22112C11.0746 7.22199 10.508 7.26178 9.95312 7.338C11.5571 3.3614 15.4527 0.555054 20.0037 0.555054C25.9867 0.555054 30.8369 5.40522 30.8369 11.3882C30.8369 15.9399 28.0298 19.8359 24.0523 21.4395C24.1286 20.8846 24.1685 20.3181 24.1694 19.7424ZM23.4012 15.3964C23.9947 14.8373 24.3666 14.0406 24.3666 13.1658C24.3666 11.5015 23.0202 10.1195 21.3628 10.1195H19.7544C19.7253 10.1195 19.6966 10.118 19.6685 10.1151C21.336 11.5052 22.636 13.3214 23.4012 15.3964ZM19.0288 9.61596C18.996 9.52603 18.9782 9.427 18.9782 9.32136C18.9782 8.859 19.3207 8.52319 19.7544 8.52319H21.3628C21.7965 8.52319 22.139 8.85896 22.139 9.32136C22.139 9.92237 22.6007 10.4045 23.2126 10.4045C23.8244 10.4045 24.286 9.92228 24.286 9.32136C24.286 7.77338 23.1214 6.46966 21.6251 6.29492V5.63777C21.6251 5.03675 21.1634 4.55458 20.5515 4.55458C19.9397 4.55458 19.478 5.03685 19.478 5.63777V6.28149C18.2492 6.36284 17.2202 7.20391 16.8339 8.3344C17.6114 8.68757 18.3463 9.11803 19.0288 9.61596Z" fill="#821ec8"/>
<path fill-rule="evenodd" clip-rule="evenodd" d="M12.6788 14.3048C10.5488 14.3048 8.72077 15.5619 7.86503 17.382H6.782C6.24278 17.382 5.83594 17.8059 5.83594 18.3371C5.83594 18.8683 6.24271 19.2923 6.782 19.2923H7.36259C7.35174 19.4339 7.34622 19.5769 7.34622 19.7213C7.34622 19.8402 7.34996 19.9581 7.35734 20.0752H6.782C6.24278 20.0752 5.83594 20.4991 5.83594 21.0303C5.83594 21.5614 6.24278 21.9853 6.782 21.9853H7.83033C8.67067 23.8461 10.5195 25.1379 12.6788 25.1379C14.0071 25.1379 15.3095 24.5506 16.2759 23.7314L16.3219 23.6924L16.3549 23.642C16.4561 23.4877 16.548 23.285 16.5639 23.0581C16.5809 22.817 16.5093 22.5614 16.3036 22.3522L16.2746 22.3227L16.2403 22.2995C16.0882 22.1963 15.8862 22.1011 15.6585 22.0846C15.4188 22.0671 15.1677 22.14 14.9631 22.3422C14.3549 22.8888 13.5485 23.2276 12.6788 23.2276C11.638 23.2276 10.695 22.7459 10.06 21.9853H12.5298C13.0691 21.9853 13.4759 21.5614 13.4759 21.0303C13.4759 20.4992 13.0691 20.0752 12.5298 20.0752H9.25598C9.24434 19.9588 9.23837 19.8408 9.23837 19.7213C9.23837 19.5761 9.2472 19.4329 9.26432 19.2923H12.5298C12.8283 19.2923 13.0663 19.141 13.2186 18.9706C13.3663 18.8053 13.4759 18.5755 13.4759 18.3371C13.4759 17.806 13.0691 17.382 12.5298 17.382H10.1247C10.7582 16.665 11.6728 16.215 12.6788 16.215C13.5028 16.215 14.3685 16.4959 14.9531 17.0905C15.1328 17.2733 15.3682 17.3881 15.6283 17.3881C15.8885 17.3881 16.1239 17.2733 16.3036 17.0905C16.4835 16.9076 16.5933 16.6714 16.5933 16.4138C16.5933 16.1562 16.4838 15.9198 16.304 15.7368L16.2906 15.7243C15.3044 14.8049 13.9922 14.3048 12.6788 14.3048ZM16.0062 16.0294L16.0065 16.0291L16.0062 16.0294C16.0062 16.0294 16.0062 16.0294 16.0062 16.0294Z" fill="#821ec8"/>
</svg>
