<svg width="31" height="30" viewBox="0 0 31 30" fill="none" xmlns="http://www.w3.org/2000/svg">
<path d="M29.4193 15.055C29.4193 22.7409 23.1886 28.9716 15.5026 28.9716C7.81664 28.9716 1.58594 22.7409 1.58594 15.055C1.58594 7.36901 7.81664 1.13831 15.5026 1.13831C23.1886 1.13831 29.4193 7.36901 29.4193 15.055Z" stroke="#821ec8" stroke-width="1.5"/>
<path fill-rule="evenodd" clip-rule="evenodd" d="M13.0667 5.88831C12.4633 5.88831 11.9993 6.35373 11.9993 6.95674V8.69505H11.0674C10.464 8.69505 10 9.16049 10 9.7635C10 10.3665 10.464 10.8319 11.0674 10.8319H11.9993V19.2226H11.0674C10.464 19.2226 10 19.6881 10 20.2911C10 20.8942 10.464 21.3595 11.0674 21.3595H11.9993V23.0981C11.9993 23.7011 12.4632 24.1666 13.0667 24.1666C13.3943 24.1666 13.6621 24.0029 13.8387 23.8082C14.011 23.6185 14.1341 23.3586 14.1341 23.0981V21.3579H15.3023V23.0981C15.3023 23.7011 15.7662 24.1666 16.3696 24.1666C16.6972 24.1666 16.965 24.0029 17.1417 23.8083C17.314 23.6185 17.4371 23.3586 17.4371 23.0981V21.3579H18.973C20.6863 21.3579 22.0426 19.9813 22.0426 18.1841V16.981C22.0426 15.7894 21.3762 14.762 20.3921 14.2514C20.5783 13.8341 20.6707 13.363 20.6412 12.8598V11.6678C20.6412 9.96205 19.2763 8.59435 17.5716 8.59435H17.4371V6.95674C17.4371 6.35368 16.973 5.88831 16.3696 5.88831C15.7663 5.88831 15.3023 6.35374 15.3023 6.95674V8.59435H14.1341V6.95674C14.1341 6.35373 13.6701 5.88831 13.0667 5.88831ZM14.1341 13.9076V10.8315H16.3272C16.3416 10.832 16.3557 10.8322 16.3696 10.8322C16.3836 10.8322 16.3978 10.832 16.4121 10.8315H17.5716C18.0693 10.8315 18.5064 11.2683 18.5064 11.7681V12.971C18.5064 13.4651 18.079 13.8985 17.5876 13.9076H14.1341ZM14.1341 19.221V16.1447H18.8729C19.3707 16.1447 19.8076 16.5815 19.8076 17.0813V18.2844C19.8076 18.7841 19.3707 19.221 18.8729 19.221H14.1341Z" fill="#821ec8"/>
</svg>
