<svg width="32" height="28" viewBox="0 0 32 28" fill="none" xmlns="http://www.w3.org/2000/svg">
<path fill-rule="evenodd" clip-rule="evenodd" d="M1.72275 1.19775C2.01862 1.19802 2.25825 1.4381 2.25798 1.73397L2.23598 25.8406L30.6283 25.8406C30.9242 25.8406 31.1641 26.0804 31.1641 26.3763C31.1641 26.6722 30.9242 26.912 30.6283 26.912L1.72194 26.912L1.71057 26.9119L1.69929 26.912C1.40342 26.9118 1.16379 26.6717 1.16406 26.3758L1.18655 1.73299C1.18682 1.43712 1.42688 1.19748 1.72275 1.19775ZM30.0078 7.82463C30.0898 7.90967 30.1343 8.02605 30.1308 8.14627L30.0357 11.402C30.0287 11.6428 29.8346 11.8321 29.6023 11.8248C29.37 11.8175 29.1874 11.6164 29.1944 11.3756L29.252 9.40484C29.1955 9.48418 29.148 9.53265 29.148 9.53265L24.2397 14.826C24.0076 15.0817 23.6335 15.0817 23.4015 14.826L21.4529 12.7291L17.1365 17.3831C16.9044 17.6388 16.5303 17.6388 16.2983 17.3831L14.3497 15.2862L7.66554 22.4974C7.54952 22.6253 7.39798 22.6892 7.24645 22.6892C7.09491 22.6892 6.94338 22.6253 6.82736 22.4974L4.45962 19.9403C4.22877 19.6973 4.22877 19.2882 4.45962 19.0453C4.69166 18.7895 5.06577 18.7895 5.2978 19.0453L7.24645 21.1421L13.9306 13.931C14.1626 13.6752 14.5367 13.6752 14.7687 13.931L16.7174 16.0278L21.0338 11.3738C21.2658 11.1181 21.6399 11.1181 21.8719 11.3738L23.8206 13.4707L28.311 8.62486C28.311 8.62486 28.3123 8.62339 28.3149 8.62067C28.3149 8.62067 28.3192 8.61615 28.3223 8.61301L26.5818 8.66764C26.3495 8.67493 26.1555 8.48565 26.1484 8.24486C26.1414 8.00407 26.324 7.80296 26.5563 7.79567L29.6974 7.69708C29.8134 7.69344 29.9257 7.73959 30.0078 7.82463Z" fill="#821ec8" stroke="#821ec8" stroke-width="0.5" stroke-linecap="round" stroke-linejoin="round"/>
</svg>
