<svg width="31" height="31" viewBox="0 0 31 31" fill="none" xmlns="http://www.w3.org/2000/svg">
<path fill-rule="evenodd" clip-rule="evenodd" d="M5.20946 3.05487C5.20946 2.40217 5.73858 1.87305 6.39128 1.87305C7.04398 1.87305 7.5731 2.40216 7.5731 3.05487V5.17346C9.61203 5.69822 11.1186 7.54907 11.1186 9.75181C11.1186 11.9546 9.61203 13.8054 7.5731 14.3302V25.9033C7.5731 26.556 7.04398 27.0852 6.39128 27.0852C5.73858 27.0852 5.20946 26.556 5.20946 25.9033V14.3301C3.17059 13.8053 1.66406 11.9545 1.66406 9.75181C1.66406 7.54911 3.17059 5.69828 5.20946 5.17348V3.05487ZM5.20946 6.74781C4.01174 7.21941 3.16406 8.38662 3.16406 9.75181C3.16406 11.117 4.01174 12.2842 5.20946 12.7558V6.74781ZM5.69188 12.9031C5.52595 12.8664 5.36482 12.817 5.20957 12.7559V6.74777C5.36552 6.68637 5.5274 6.63677 5.69411 6.60005H7.08856C8.53577 6.91876 9.61861 8.20883 9.61861 9.75181C9.61861 11.294 8.53688 12.5835 7.09079 12.9031H5.69188ZM17.8916 19.2064C17.8916 20.7486 16.8099 22.0381 15.3638 22.3577H13.9649C12.5188 22.0381 11.4371 20.7486 11.4371 19.2064C11.4371 17.6634 12.5199 16.3734 13.9671 16.0547H15.3616C16.8088 16.3734 17.8916 17.6634 17.8916 19.2064ZM13.4825 25.9033V23.7847C11.4436 23.2599 9.93706 21.4091 9.93706 19.2064C9.93706 17.0037 11.4436 15.1529 13.4825 14.6281V3.05487C13.4825 2.40217 14.0116 1.87305 14.6643 1.87305C15.317 1.87305 15.8461 2.40216 15.8461 3.05487V14.6281C17.885 15.1528 19.3916 17.0037 19.3916 19.2064C19.3916 21.4091 17.885 23.26 15.8461 23.7848V25.9033C15.8461 26.556 15.317 27.0852 14.6643 27.0852C14.0116 27.0852 13.4825 26.556 13.4825 25.9033ZM23.6362 12.9031C25.0823 12.5835 26.164 11.294 26.164 9.75181C26.164 8.20883 25.0812 6.91876 23.634 6.60005H22.2395C20.7923 6.91876 19.7095 8.20883 19.7095 9.75181C19.7095 11.294 20.7912 12.5835 22.2373 12.9031H23.6362ZM21.7549 14.3301V25.9033C21.7549 26.556 22.284 27.0852 22.9367 27.0852C23.5894 27.0852 24.1185 26.556 24.1185 25.9033V14.3302C26.1574 13.8054 27.664 11.9545 27.664 9.75181C27.664 7.54908 26.1574 5.69822 24.1185 5.17346V3.05487C24.1185 2.40216 23.5894 1.87305 22.9367 1.87305C22.284 1.87305 21.7549 2.40217 21.7549 3.05487V5.17348C19.716 5.69828 18.2095 7.54911 18.2095 9.75181C18.2095 11.9545 19.716 13.8053 21.7549 14.3301Z" fill="#821ec8"/>
</svg>
