<svg width="32" height="23" viewBox="0 0 32 23" fill="none" xmlns="http://www.w3.org/2000/svg">
<path fill-rule="evenodd" clip-rule="evenodd" d="M9.85618 2.40373C10.1942 1.59932 10.9626 1.08565 11.8038 1.08565H19.8717C20.713 1.08565 21.4816 1.59942 21.8195 2.40397L24.7235 9.34141H6.95213L9.85618 2.40373ZM5.91008 9.7568C5.91008 9.6968 5.92284 9.63977 5.94581 9.58827L9.0872 2.08357C9.55075 0.97994 10.6161 0.254883 11.8038 0.254883H19.8717C21.0595 0.254883 22.1246 0.979476 22.5882 2.0831L25.7334 9.59683C25.787 9.72504 25.7729 9.87151 25.6956 9.98712C25.6183 10.1027 25.4882 10.1722 25.3488 10.1722H6.32676C6.09663 10.1722 5.91008 9.98621 5.91008 9.7568ZM11.3777 3.10639C11.4424 2.95174 11.5941 2.85104 11.7622 2.85104H19.0083C19.2384 2.85104 19.425 3.03701 19.425 3.26642C19.425 3.49583 19.2384 3.68181 19.0083 3.68181H12.0397L10.5159 7.32068C10.4272 7.53238 10.1832 7.63235 9.97082 7.54397C9.75846 7.45559 9.65818 7.21232 9.74684 7.00062L11.3777 3.10639ZM4.78204 14.0864C5.12001 13.282 5.88848 12.7683 6.7297 12.7683H14.7976C15.6389 12.7683 16.4074 13.2821 16.7454 14.0867L19.6493 21.0241H1.87799L4.78204 14.0864ZM0.835938 21.4395C0.835938 21.3795 0.848698 21.3225 0.87166 21.271L4.01306 13.7663C4.4766 12.6626 5.54198 11.9376 6.7297 11.9376H14.7976C15.9853 11.9376 17.0505 12.6622 17.514 13.7658L20.6592 21.2795C20.7129 21.4077 20.6987 21.5542 20.6214 21.6698C20.5442 21.7854 20.414 21.8549 20.2747 21.8549H1.25261C1.02249 21.8549 0.835938 21.6689 0.835938 21.4395ZM6.72872 14.5337C6.56061 14.5337 6.40897 14.6344 6.34421 14.7891L4.71338 18.6833C4.62473 18.895 4.72501 19.1383 4.93737 19.2267C5.14973 19.315 5.39375 19.2151 5.4824 19.0034L7.00629 15.3645H13.933C14.1631 15.3645 14.3497 15.1785 14.3497 14.9491C14.3497 14.7197 14.1631 14.5337 13.933 14.5337H6.72872ZM18.5893 12.353C18.5893 12.1236 18.7759 11.9376 19.006 11.9376H24.9422C26.1299 11.9376 27.1951 12.6622 27.6586 13.7658L30.8038 21.2795C30.8575 21.4077 30.8433 21.5542 30.766 21.6698C30.6887 21.7854 30.5586 21.8549 30.4193 21.8549H22.8104C22.5803 21.8549 22.3938 21.6689 22.3938 21.4395C22.3938 21.2101 22.5803 21.0241 22.8104 21.0241H29.7939L26.8899 14.0867C26.552 13.2821 25.7835 12.7683 24.9422 12.7683H19.006C18.7759 12.7683 18.5893 12.5824 18.5893 12.353ZM20.2756 14.5337C20.0454 14.5337 19.8589 14.7197 19.8589 14.9491C19.8589 15.1785 20.0454 15.3645 20.2756 15.3645H24.08C24.3101 15.3645 24.4967 15.1785 24.4967 14.9491C24.4967 14.7197 24.3101 14.5337 24.08 14.5337H20.2756Z" fill="#821ec8" stroke="#821ec8" stroke-width="0.5" stroke-linecap="round" stroke-linejoin="round"/>
</svg>
