<svg width="17" height="16" viewBox="0 0 17 16" fill="none" xmlns="http://www.w3.org/2000/svg">
<g clip-path="url(#clip0_11101_63800)">
<path d="M8.59832 2.66927C9.65312 2.66927 10.6843 2.98206 11.5613 3.5681C12.4384 4.15413 13.122 4.98708 13.5257 5.96162C13.9293 6.93614 14.0349 8.00854 13.8292 9.04307C13.6234 10.0777 13.1155 11.0279 12.3695 11.7739C11.6237 12.5197 10.6734 13.0277 9.63879 13.2335C8.60426 13.4393 7.53185 13.3336 6.55733 12.9299C5.58279 12.5263 4.74984 11.8427 4.1638 10.9657C3.57777 10.0886 3.26497 9.05747 3.26497 8.0026C3.26659 6.58861 3.82901 5.233 4.82886 4.23316C5.8287 3.23331 7.18431 2.67089 8.59832 2.66927ZM8.59832 1.33594C7.27979 1.33594 5.99083 1.72693 4.89451 2.45947C3.79818 3.19202 2.94369 4.2332 2.43911 5.45138C1.93453 6.66954 1.80251 8.01 2.05974 9.3032C2.31697 10.5964 2.95191 11.7843 3.88426 12.7167C4.81661 13.649 6.0045 14.2839 7.29772 14.5412C8.59092 14.7984 9.93139 14.6664 11.1495 14.1618C12.3677 13.6572 13.4089 12.8027 14.1415 11.7064C14.874 10.6101 15.265 9.32114 15.265 8.0026C15.265 7.12714 15.0926 6.26021 14.7575 5.45137C14.4225 4.64252 13.9315 3.90759 13.3124 3.28853C12.6933 2.66947 11.9584 2.17841 11.1495 1.84338C10.3407 1.50836 9.47379 1.33592 8.59832 1.33594Z" fill="#76808F"/>
<path d="M10.9781 11.312L7.93945 8.27333V4H9.27279V7.72133L11.9208 10.3693L10.9781 11.312Z" fill="#76808F"/>
</g>
<defs>
<clipPath id="clip0_11101_63800">
<rect width="16.2025" height="16" fill="white" transform="translate(0.603516)"/>
</clipPath>
</defs>
</svg>
