<svg width="24" height="25" viewBox="0 0 24 25" fill="none" xmlns="http://www.w3.org/2000/svg">
<path d="M15.5006 14.891H14.7106L14.4306 14.621C15.6306 13.221 16.2506 11.311 15.9106 9.28101C15.4406 6.50101 13.1206 4.28101 10.3206 3.94101C6.09063 3.42101 2.53063 6.98101 3.05063 11.211C3.39063 14.011 5.61063 16.331 8.39063 16.801C10.4206 17.141 12.3306 16.521 13.7306 15.321L14.0006 15.601V16.391L18.2506 20.641C18.6606 21.051 19.3306 21.051 19.7406 20.641C20.1506 20.231 20.1506 19.561 19.7406 19.151L15.5006 14.891ZM9.50063 14.891C7.01063 14.891 5.00063 12.881 5.00063 10.391C5.00063 7.90101 7.01063 5.89101 9.50063 5.89101C11.9906 5.89101 14.0006 7.90101 14.0006 10.391C14.0006 12.881 11.9906 14.891 9.50063 14.891Z" fill="#4B47FF"/>
</svg>
