<svg width="73" height="72" viewBox="0 0 73 72" fill="none" xmlns="http://www.w3.org/2000/svg">
<path d="M69.8753 1.78818C69.2053 1.35329 68.4561 1.05467 67.6706 0.909396C66.8851 0.764119 66.0786 0.775024 65.2973 0.941488C64.516 1.10795 63.7752 1.42671 63.1171 1.87956C62.4591 2.33241 61.8967 2.91048 61.4621 3.58073L27.3751 56.1225L10.7514 40.7519C10.1649 40.2096 9.47732 39.7882 8.72793 39.5116C7.97854 39.235 7.18201 39.1087 6.38382 39.14C4.7718 39.2031 3.25089 39.904 2.15566 41.0885C1.06043 42.273 0.480599 43.8441 0.543726 45.4561C0.606853 47.0681 1.30776 48.5891 2.49227 49.6843L24.3193 69.8647C24.3193 69.8647 24.9459 70.4041 25.2358 70.5927C25.906 71.0279 26.6553 71.3268 27.441 71.4722C28.2267 71.6177 29.0334 71.6069 29.8149 71.4404C30.5965 71.2739 31.3375 70.955 31.9958 70.502C32.654 70.049 33.2165 69.4707 33.6511 68.8001L71.6679 10.2014C72.1028 9.53136 72.4014 8.78217 72.5467 7.99666C72.6919 7.21116 72.681 6.40473 72.5146 5.62344C72.3481 4.84215 72.0293 4.10131 71.5765 3.44325C71.1236 2.78518 70.5456 2.22278 69.8753 1.78818Z" fill="#821EC8"/>
</svg>
