<svg width="512" height="512" xmlns="http://www.w3.org/2000/svg">

 <g>
  <title>background</title>
  <rect fill="#1eab89" id="canvas_background" height="514" width="514" y="-1" x="-1"/>
 </g>
 <g>
  <title>Layer 1</title>
  <path stroke="null" fill="#20252e" id="svg_2" d="m256.970815,141.465046c-62.687246,0 -115.50552,50.364725 -115.50552,112.541044c0,1.993913 0.050794,116.52887 0.050794,116.52887l115.455224,-0.102584c62.738538,0 113.563398,-52.30635 113.563398,-114.483167c-0.000498,-62.175821 -50.824859,-114.484163 -113.563896,-114.484163zm-0.970563,179.984002c-9.919766,0 -19.379399,-2.199579 -27.81618,-6.186906l-41.467312,10.277814l11.708511,-38.349458c-5.010677,-9.254963 -7.874064,-19.890327 -7.874064,-31.190494c0,-36.149879 29.298667,-65.448547 65.449045,-65.448547s65.448049,29.298667 65.448049,65.448547c0,36.151373 -29.297671,65.449045 -65.448049,65.449045z"/>
 </g>
</svg>
