<svg width="512" height="512" xmlns="http://www.w3.org/2000/svg">

 <g>
  <title>background</title>
  <rect fill="none" id="canvas_background" height="402" width="582" y="-1" x="-1"/>
 </g>
 <g>
  <title>Layer 1</title>
  <rect fill="#1eab89" fill-rule="nonzero" y="0" x="-0.000003" width="512" id="rect2987" height="512"/>
  <path stroke="null" fill="#20252e" id="path9" d="m367.748496,131.489185l-256.007586,98.742651c-17.47293,7.01047 -17.369306,16.756104 -3.184841,21.101757l63.849065,19.928593l24.430151,74.900963c2.969988,8.197892 1.505912,11.449295 10.114513,11.449295c6.643498,0 9.590675,-3.028929 13.290802,-6.643498c2.352979,-2.30259 16.323523,-15.885266 31.922637,-31.051784l66.415005,49.070423c12.221255,6.742361 21.045662,3.249488 24.088857,-11.350424l43.596297,-205.442656c4.463542,-17.895036 -6.822235,-26.01213 -18.514899,-20.705321zm-185.322974,135.194431l143.916145,-90.797642c7.18444,-4.357058 13.771842,-2.014531 8.363302,2.786506l-123.229843,111.184465l-4.798176,51.176226l-24.251428,-74.349555z"/>
 </g>
</svg>