<svg width="24" height="24" viewBox="0 0 24 24" fill="none" xmlns="http://www.w3.org/2000/svg">
<g clip-path="url(#clip0_1238_33859)">
<path d="M12 21.9043C17.5228 21.9043 22 17.4271 22 11.9043C22 6.38145 17.5228 1.9043 12 1.9043C6.47715 1.9043 2 6.38145 2 11.9043C2 17.4271 6.47715 21.9043 12 21.9043Z" fill="#FCFCFC"/>
<path d="M17.652 10.5996C17.3476 10.5996 16.9708 10.5996 16.3476 10.5996C16.3476 13.0009 14.401 14.9474 11.9998 14.9474C9.59852 14.9474 7.65199 13.0009 7.65199 10.5996C7.23168 10.5996 6.76789 10.5996 6.34766 10.5996C6.34766 13.1861 8.085 15.3669 10.4565 16.0385C10.1965 16.5324 10.2361 17.1542 10.6075 17.6177C11.0953 17.2267 11.6004 16.822 12.0288 16.4787C12.4572 16.822 12.9623 17.2268 13.4501 17.6177C13.8252 17.1496 13.8621 16.5199 13.5934 16.0236C15.9389 15.3355 17.652 13.1677 17.652 10.5996Z" fill="#6DA544"/>
<path d="M8.52197 10.1651C8.52197 10.1651 8.52197 12.339 10.6959 12.339L11.1306 12.7737H12.0002C12.0002 12.7737 12.435 11.4694 13.3046 11.4694C13.3046 11.4694 13.3046 10.5998 14.1741 10.5998C15.0437 10.5998 15.4785 10.5998 15.4785 10.5998C15.4785 10.5998 15.0437 8.86068 17.2176 7.55635L16.348 7.12158C16.348 7.12158 13.3046 9.29549 11.1306 8.86072V9.73029H10.2611L9.82631 9.29553L8.52197 10.1651Z" fill="#FFDA44"/>
</g>
<defs>
<clipPath id="clip0_1238_33859">
<rect width="20" height="20" fill="white" transform="translate(2 1.9043)"/>
</clipPath>
</defs>
</svg>
