<svg width="24" height="24" viewBox="0 0 24 24" fill="none" xmlns="http://www.w3.org/2000/svg">
<path d="M12 22C17.5228 22 22 17.5228 22 12C22 6.47715 17.5228 2 12 2C6.47715 2 2 6.47715 2 12C2 17.5228 6.47715 22 12 22Z" fill="#F0F0F0"/>
<path d="M15.7656 9.82625H13.2553L12.0002 7.65234L10.7452 9.82625H8.23486L9.4901 12.0002L8.23486 14.1741H10.7452L12.0002 16.348L13.2553 14.1741H15.7656L14.5103 12.0002L15.7656 9.82625ZM13.5422 12.0002L12.7713 13.3356H11.2293L10.4582 12.0002L11.2292 10.6647H12.7712L13.5422 12.0002ZM12.0002 9.32918L12.2872 9.82621H11.7133L12.0002 9.32918ZM9.68717 10.6647H10.2611L9.97412 11.1617L9.68717 10.6647ZM9.68717 13.3356L9.97416 12.8386L10.2611 13.3356H9.68717ZM12.0002 14.6711L11.7133 14.1741H12.2872L12.0002 14.6711ZM14.3133 13.3356H13.7394L14.0263 12.8386L14.3133 13.3356ZM13.7394 10.6647H14.3133L14.0263 11.1617L13.7394 10.6647Z" fill="#0052B4"/>
<path d="M18.2249 4.17383H5.77516C4.86254 4.9007 4.07988 5.78359 3.46777 6.78254H20.5323C19.9202 5.78363 19.1375 4.9007 18.2249 4.17383Z" fill="#0052B4"/>
<path d="M5.77516 19.826H18.2249C19.1375 19.0991 19.9202 18.2162 20.5323 17.2173H3.46777C4.07992 18.2162 4.86258 19.0991 5.77516 19.826Z" fill="#0052B4"/>
</svg>
