<svg width="24" height="24" viewBox="0 0 24 24" fill="none" xmlns="http://www.w3.org/2000/svg">
<g clip-path="url(#clip0_1238_33873)">
<path d="M12 21.9043C17.5228 21.9043 22 17.4271 22 11.9043C22 6.38145 17.5228 1.9043 12 1.9043C6.47715 1.9043 2 6.38145 2 11.9043C2 17.4271 6.47715 21.9043 12 21.9043Z" fill="#F0F0F0"/>
<path d="M4.92892 18.9752C1.02369 15.0699 1.02369 8.73828 4.92892 4.83301C4.92865 4.83344 10.6957 11.9041 10.6957 11.9041L4.92892 18.9752Z" fill="black"/>
<path d="M10.6956 11.9043L3.32623 6.92432C3.09775 7.32146 2.89627 7.736 2.72314 8.16506L6.45396 11.9043L2.72326 15.6438C2.89623 16.0725 3.09752 16.4868 3.32584 16.8837L10.6956 11.9043Z" fill="#FFDA44"/>
<path d="M21.9151 10.5996H10.6952L4.92861 4.83301C4.30721 5.45441 3.76732 6.15719 3.32607 6.92402L8.29635 11.9039L3.32568 16.8832C3.76693 17.6503 4.30705 18.3533 4.92861 18.9748L10.6952 13.2083H21.9151C21.9707 12.7813 21.9998 12.346 21.9998 11.9039C21.9998 11.4619 21.9707 11.0266 21.9151 10.5996Z" fill="#6DA544"/>
<path d="M5.91162 19.8372C7.59791 21.1333 9.70873 21.9045 12 21.9045C16.6203 21.9045 20.508 18.7708 21.6555 14.5132H11.2356L5.91162 19.8372Z" fill="#0052B4"/>
<path d="M21.6555 9.29559C20.508 5.03793 16.6203 1.9043 12 1.9043C9.70873 1.9043 7.59791 2.67543 5.91162 3.9716L11.2356 9.29559H21.6555Z" fill="#D80027"/>
</g>
<defs>
<clipPath id="clip0_1238_33873">
<rect width="20" height="20" fill="white" transform="translate(2 1.9043)"/>
</clipPath>
</defs>
</svg>
