<svg xmlns="http://www.w3.org/2000/svg" width="70" height="70" viewBox="0 0 70 70"><path fill="#D2B775" d="M60 35c0-13.8-11.2-25-25-25S10 21.2 10 35s11.2 25 25 25 25-11.2 25-25zm-48 0c0-12.7 10.3-23 23-23s23 10.3 23 23-10.3 23-23 23-23-10.3-23-23z"/><path fill="#D2B775" d="M36 54c0 .6.4 1 1 1s1-.4 1-1v-5h2c4.4 0 8-3.6 8-8 0-3.6-2.4-6.7-5.8-7.7 1.7-1.4 2.8-3.5 2.8-5.8 0-4-3.1-7.2-7-7.5v-5c0-.6-.4-1-1-1s-1 .4-1 1v5h-2v-5c0-.6-.4-1-1-1s-1 .4-1 1v5h-7v29h7v5c0 .6.4 1 1 1s1-.4 1-1v-5h2v5zm-9-32h10.5c3 0 5.5 2.5 5.5 5.5S40.5 33 37.5 33H27V22zm0 25V35h13c3.3 0 6 2.7 6 6s-2.7 6-6 6H27z"/><path fill="#D2B775" d="M35 5C18.5 5 5 18.5 5 35c0 .6.4 1 1 1s1-.4 1-1C7 19.6 19.6 7 35 7c2.3 0 4.7.3 6.9.9 0 1.9 1.6 3.5 3.5 3.5 1 0 2-.5 2.6-1.2 9.3 4.9 15 14.3 15 24.8 0 15.4-12.6 28-28 28-.6 0-1 .4-1 1s.4 1 1 1c16.5 0 30-13.5 30-30 0-11.3-6.2-21.4-16.1-26.6v-.5c0-1.9-1.6-3.5-3.5-3.5-1.2 0-2.3.6-2.9 1.5-2.4-.6-5-.9-7.5-.9zm10.4 1.4c.8 0 1.5.7 1.5 1.5s-.7 1.5-1.5 1.5-1.5-.7-1.5-1.5.7-1.5 1.5-1.5z"/><path fill="#D2B775" d="M69 34c-.6 0-1 .4-1 1 0 18.2-14.8 33-33 33-11.4 0-22-6-28-15.6.6-.6 1-1.5 1-2.4 0-1.9-1.6-3.5-3.5-3.5h-.4C2.7 42.9 2 39 2 35 2 16.8 16.8 2 35 2c.6 0 1-.4 1-1s-.4-1-1-1C15.7 0 0 15.7 0 35c0 4.3.8 8.4 2.2 12.3C1.5 48 1 48.9 1 50c0 1.9 1.6 3.5 3.5 3.5.3 0 .5 0 .8-.1C11.6 63.7 22.9 70 35 70c19.3 0 35-15.7 35-35 0-.6-.4-1-1-1zM3 50c0-.8.7-1.5 1.5-1.5S6 49.2 6 50s-.7 1.5-1.5 1.5S3 50.8 3 50zM52.7 7.1c4.1 2.6 7.7 6.2 10.3 10.4.2.3.5.5.8.5.2 0 .4 0 .5-.2.5-.3.6-.9.3-1.4-2.8-4.4-6.5-8.2-10.9-11-.5-.3-1.1-.2-1.4.3-.2.5-.1 1.1.4 1.4z"/></svg>