<svg xmlns="http://www.w3.org/2000/svg" xmlns:xlink="http://www.w3.org/1999/xlink" width="150" height="236" viewBox="0 0 150 236">
  <defs>
    <clipPath id="clip-path">
      <rect id="Rectangle_19578" data-name="Rectangle 19578" width="150" height="236" transform="translate(60.333 2199)" fill="#fff" stroke="#707070" stroke-width="1"/>
    </clipPath>
  </defs>
  <g id="Mask_Group_912" data-name="Mask Group 912" transform="translate(-60.333 -2199)" clip-path="url(#clip-path)">
    <g id="Group_117539" data-name="Group 117539" transform="translate(-7)">
      <g id="Group_101101" data-name="Group 101101" transform="translate(48.991 2370.5)">
        <g id="Group_117540" data-name="Group 117540" transform="matrix(0.848, -0.53, 0.53, 0.848, -11.451, 20.68)">
          <g id="Group_98629" data-name="Group 98629">
            <g id="Group_98625" data-name="Group 98625">
              <g id="Group_98622" data-name="Group 98622">
                <g id="Group_98621" data-name="Group 98621">
                  <path id="Path_79203" data-name="Path 79203" d="M211.023,390.548a30.146,30.146,0,1,1-16.516-39.25A30.11,30.11,0,0,1,211.023,390.548Z" transform="translate(-152.98 -349.041)" fill="#f99d25"/>
                </g>
              </g>
              <g id="Group_98624" data-name="Group 98624" transform="translate(7.164 7.144)">
                <g id="Group_98623" data-name="Group 98623">
                  <path id="Path_79204" data-name="Path 79204" d="M204.958,388.4a22.975,22.975,0,1,1-12.584-29.924A22.941,22.941,0,0,1,204.958,388.4Z" transform="translate(-160.723 -356.763)" fill="#f99d25"/>
                </g>
              </g>
            </g>
            <g id="Group_98628" data-name="Group 98628" transform="translate(6.923 6.929)">
              <g id="Group_98627" data-name="Group 98627">
                <g id="Group_98626" data-name="Group 98626">
                  <path id="Path_79205" data-name="Path 79205" d="M204.938,388.387a2.06,2.06,0,0,1,.1-.361c.083-.259.194-.6.342-1.036.074-.231.157-.481.259-.759.083-.287.139-.6.222-.944a16.978,16.978,0,0,0,.444-2.369,21.9,21.9,0,0,0-.074-6.579,22.821,22.821,0,0,0-2.942-8.17,22.591,22.591,0,0,0-7.273-7.541,22.919,22.919,0,0,0-11.427-3.6,23.77,23.77,0,0,0-3.239.083c-.546.055-1.083.166-1.628.241a11.108,11.108,0,0,0-1.628.352,27.773,27.773,0,0,0-3.22,1.046,26.042,26.042,0,0,0-3.063,1.591,21.871,21.871,0,0,0-5.376,4.552,22.407,22.407,0,0,0-5.431,13.259,21.96,21.96,0,0,0,.648,7.023,25.553,25.553,0,0,0,1.064,3.275,24.2,24.2,0,0,0,1.564,3,20.946,20.946,0,0,0,4.155,5.034,22.838,22.838,0,0,0,10.678,5.441,22.53,22.53,0,0,0,10.474-.287,22.851,22.851,0,0,0,7.828-3.766,21.652,21.652,0,0,0,4.663-4.645,16.759,16.759,0,0,0,1.342-2c.176-.3.361-.574.5-.833s.25-.5.352-.722c.2-.416.37-.74.481-.981.12-.194.176-.305.185-.305a1.748,1.748,0,0,1-.139.342c-.111.25-.259.574-.444,1-.1.222-.213.463-.333.731-.139.268-.305.537-.481.842a16.488,16.488,0,0,1-1.314,2.045,21.58,21.58,0,0,1-4.654,4.747,23.114,23.114,0,0,1-18.543,4.219,23.217,23.217,0,0,1-10.891-5.505,24.265,24.265,0,0,1-2.3-2.369,24.622,24.622,0,0,1-1.952-2.757,25.931,25.931,0,0,1-1.6-3.063,25.622,25.622,0,0,1-1.092-3.34,22.593,22.593,0,0,1-.666-7.171,24.754,24.754,0,0,1,1.656-7.226,24.3,24.3,0,0,1,3.886-6.31,22.236,22.236,0,0,1,5.5-4.645,26.351,26.351,0,0,1,3.127-1.619,26.619,26.619,0,0,1,3.285-1.064,13.253,13.253,0,0,1,1.656-.361c.555-.083,1.11-.185,1.665-.241a23.633,23.633,0,0,1,14.934,3.636,23.123,23.123,0,0,1,10.261,16.007,21.478,21.478,0,0,1-.009,6.653,16.439,16.439,0,0,1-.49,2.378c-.093.342-.157.657-.25.944s-.194.527-.278.759c-.167.435-.287.768-.389,1.027A1.551,1.551,0,0,1,204.938,388.387Z" transform="translate(-160.463 -356.53)" fill="#263238"/>
                </g>
              </g>
            </g>
          </g>
          <g id="Group_98631" data-name="Group 98631" transform="translate(8.5 7.225)" opacity="0.3">
            <g id="Group_98630" data-name="Group 98630">
              <path id="Path_79206" data-name="Path 79206" d="M204.816,388.569a14.061,14.061,0,0,1,.49-2.785,24.568,24.568,0,0,0,.241-7.513,23.73,23.73,0,0,0-1.2-5.006,23,23,0,0,0-2.711-5.209,20.686,20.686,0,0,0-1.989-2.461,21.583,21.583,0,0,0-2.424-2.239,21.94,21.94,0,0,0-2.831-1.906,23.222,23.222,0,0,0-3.183-1.48,23.984,23.984,0,0,0-3.377-.962,22.378,22.378,0,0,0-3.387-.407,21.582,21.582,0,0,0-3.294.1,21.09,21.09,0,0,0-3.118.555,22.864,22.864,0,0,0-5.459,2.165,23.853,23.853,0,0,0-4.192,2.989,24.675,24.675,0,0,0-4.737,5.829,13.776,13.776,0,0,1-1.453,2.424,6.854,6.854,0,0,1,.851-2.739,21.563,21.563,0,0,1,4.5-6.421,23.192,23.192,0,0,1,4.321-3.35,23.51,23.51,0,0,1,5.774-2.47,23.232,23.232,0,0,1,6.893-.814,22.582,22.582,0,0,1,3.655.416,26.14,26.14,0,0,1,3.646,1.027,25.825,25.825,0,0,1,3.433,1.61,23.127,23.127,0,0,1,5.616,4.525,21.64,21.64,0,0,1,2.091,2.683,22.9,22.9,0,0,1,3.812,11,21.464,21.464,0,0,1-.8,7.8A6.959,6.959,0,0,1,204.816,388.569Z" transform="translate(-162.167 -356.85)"/>
            </g>
          </g>
          <g id="Group_98635" data-name="Group 98635" transform="translate(16.766 14.924)" opacity="0.3">
            <g id="Group_98634" data-name="Group 98634">
              <g id="Group_98633" data-name="Group 98633">
                <g id="Group_98632" data-name="Group 98632">
                  <path id="Path_79207" data-name="Path 79207" d="M181.694,394l-1.462,3.729-3.322-1.3,1.425-3.627a16.946,16.946,0,0,1-7.236-5.913l3.424-3.34a14.454,14.454,0,0,0,5.524,4.895l2.174-5.552c-3.34-2.341-6.977-5.191-5.117-9.947,1.388-3.525,5.135-5.552,10.622-4.08l1.453-3.692,3.331,1.3-1.425,3.627a16.224,16.224,0,0,1,5.959,4.673l-3.266,3.442a14.524,14.524,0,0,0-4.414-3.729l-2.221,5.653c3.349,2.313,6.93,5.135,5.089,9.826C190.864,393.419,187.163,395.417,181.694,394Zm2.443-16.007,1.851-4.719c-1.915-.3-3,.4-3.424,1.5C182.1,375.931,182.851,376.958,184.137,377.994Zm2.572,10.261c.453-1.166-.259-2.174-1.49-3.238l-1.8,4.589C185.22,389.9,186.293,389.32,186.709,388.256Z" transform="translate(-171.1 -365.17)"/>
                </g>
              </g>
            </g>
          </g>
        </g>
      </g>
      <g id="Group_117542" data-name="Group 117542" transform="matrix(0.848, -0.53, 0.53, 0.848, 162.106, 2202.031)">
        <g id="Group_98629-2" data-name="Group 98629">
          <g id="Group_98625-2" data-name="Group 98625">
            <g id="Group_98622-2" data-name="Group 98622">
              <g id="Group_98621-2" data-name="Group 98621">
                <path id="Path_79203-2" data-name="Path 79203" d="M185.906,372.587a17.1,17.1,0,1,1-9.369-22.265A17.081,17.081,0,0,1,185.906,372.587Z" transform="translate(-152.98 -349.041)" fill="#f99d25"/>
              </g>
            </g>
            <g id="Group_98624-2" data-name="Group 98624" transform="translate(4.064 4.053)">
              <g id="Group_98623-2" data-name="Group 98623">
                <path id="Path_79204-2" data-name="Path 79204" d="M185.816,374.712a13.033,13.033,0,1,1-7.138-16.975A13.014,13.014,0,0,1,185.816,374.712Z" transform="translate(-160.723 -356.763)" fill="#f99d25"/>
              </g>
            </g>
          </g>
          <g id="Group_98628-2" data-name="Group 98628" transform="translate(3.927 3.931)">
            <g id="Group_98627-2" data-name="Group 98627">
              <g id="Group_98626-2" data-name="Group 98626">
                <path id="Path_79205-2" data-name="Path 79205" d="M185.692,374.6a1.17,1.17,0,0,1,.058-.2c.047-.147.11-.341.194-.588.042-.131.089-.273.147-.43s.079-.341.126-.535a9.633,9.633,0,0,0,.252-1.344,12.424,12.424,0,0,0-.042-3.732,12.947,12.947,0,0,0-1.669-4.635,12.815,12.815,0,0,0-4.126-4.278,13,13,0,0,0-6.482-2.042,13.479,13.479,0,0,0-1.837.047c-.31.031-.614.094-.924.136a6.3,6.3,0,0,0-.924.2,15.74,15.74,0,0,0-1.827.593,14.785,14.785,0,0,0-1.737.9,12.409,12.409,0,0,0-3.05,2.582,12.711,12.711,0,0,0-3.081,7.521,12.457,12.457,0,0,0,.367,3.984,14.5,14.5,0,0,0,.6,1.858,13.728,13.728,0,0,0,.887,1.7,11.881,11.881,0,0,0,2.357,2.855,12.955,12.955,0,0,0,6.057,3.086,12.781,12.781,0,0,0,5.942-.163,12.961,12.961,0,0,0,4.441-2.136,12.282,12.282,0,0,0,2.645-2.635,9.506,9.506,0,0,0,.761-1.134c.1-.168.2-.325.283-.472s.142-.284.2-.409c.115-.236.21-.42.273-.556.068-.11.1-.173.1-.173a.991.991,0,0,1-.079.194c-.063.142-.147.325-.252.567-.058.126-.121.262-.189.415s-.173.3-.273.478a9.351,9.351,0,0,1-.745,1.16,12.241,12.241,0,0,1-2.64,2.693A13.112,13.112,0,0,1,171,382.5a13.17,13.17,0,0,1-6.178-3.123,13.769,13.769,0,0,1-1.307-1.344,13.964,13.964,0,0,1-1.107-1.564,14.711,14.711,0,0,1-.908-1.737,14.536,14.536,0,0,1-.619-1.895,12.816,12.816,0,0,1-.378-4.068,14.042,14.042,0,0,1,.94-4.1,13.784,13.784,0,0,1,2.2-3.58,12.612,12.612,0,0,1,3.118-2.635,14.956,14.956,0,0,1,1.774-.919,15.107,15.107,0,0,1,1.863-.6,7.52,7.52,0,0,1,.94-.2c.315-.047.63-.1.945-.136a13.406,13.406,0,0,1,8.472,2.063,13.117,13.117,0,0,1,5.821,9.08,12.184,12.184,0,0,1-.005,3.774,9.323,9.323,0,0,1-.278,1.349c-.052.194-.089.373-.142.535s-.11.3-.157.43c-.094.247-.163.436-.22.583A.884.884,0,0,1,185.692,374.6Z" transform="translate(-160.463 -356.53)" fill="#263238"/>
              </g>
            </g>
          </g>
        </g>
        <g id="Group_98631-2" data-name="Group 98631" transform="translate(4.822 4.099)" opacity="0.3">
          <g id="Group_98630-2" data-name="Group 98630">
            <path id="Path_79206-2" data-name="Path 79206" d="M186.36,374.843a7.978,7.978,0,0,1,.278-1.58,13.937,13.937,0,0,0,.136-4.262,13.461,13.461,0,0,0-.682-2.84,13.051,13.051,0,0,0-1.538-2.955,11.736,11.736,0,0,0-1.128-1.4,12.25,12.25,0,0,0-1.375-1.27,12.446,12.446,0,0,0-1.606-1.081,13.167,13.167,0,0,0-1.806-.84,13.6,13.6,0,0,0-1.916-.546,12.686,12.686,0,0,0-1.921-.231,12.248,12.248,0,0,0-1.869.058,11.966,11.966,0,0,0-1.769.315,12.972,12.972,0,0,0-3.1,1.228,13.53,13.53,0,0,0-2.378,1.7A14,14,0,0,0,163,364.445a7.816,7.816,0,0,1-.824,1.375,3.889,3.889,0,0,1,.483-1.554,12.231,12.231,0,0,1,2.551-3.643,13.154,13.154,0,0,1,2.451-1.9,13.334,13.334,0,0,1,3.275-1.4,13.182,13.182,0,0,1,3.91-.462,12.81,12.81,0,0,1,2.073.236,14.825,14.825,0,0,1,2.068.583,14.659,14.659,0,0,1,1.947.913,13.12,13.12,0,0,1,3.186,2.567,12.271,12.271,0,0,1,1.186,1.522,12.991,12.991,0,0,1,2.163,6.241,12.176,12.176,0,0,1-.457,4.425A3.947,3.947,0,0,1,186.36,374.843Z" transform="translate(-162.167 -356.85)"/>
          </g>
        </g>
        <g id="Group_98635-2" data-name="Group 98635" transform="translate(9.511 8.466)" opacity="0.3">
          <g id="Group_98634-2" data-name="Group 98634">
            <g id="Group_98633-2" data-name="Group 98633">
              <g id="Group_98632-2" data-name="Group 98632">
                <path id="Path_79207-2" data-name="Path 79207" d="M177.11,381.525l-.829,2.115-1.884-.74.808-2.057a9.613,9.613,0,0,1-4.1-3.354l1.942-1.895a8.2,8.2,0,0,0,3.134,2.777l1.233-3.149c-1.895-1.328-3.958-2.945-2.9-5.643.787-2,2.913-3.149,6.026-2.315l.824-2.094,1.89.74-.808,2.058a9.2,9.2,0,0,1,3.38,2.651l-1.853,1.953a8.24,8.24,0,0,0-2.5-2.115l-1.26,3.207c1.9,1.312,3.931,2.913,2.887,5.574C182.311,381.195,180.212,382.328,177.11,381.525Zm1.386-9.08,1.05-2.677c-1.087-.168-1.7.226-1.942.85C177.341,371.274,177.766,371.857,178.5,372.445Zm1.459,5.821c.257-.661-.147-1.233-.845-1.837l-1.024,2.6C179.11,379.2,179.719,378.869,179.955,378.266Z" transform="translate(-171.1 -365.17)"/>
              </g>
            </g>
          </g>
        </g>
      </g>
      <g id="Group_119053" data-name="Group 119053" transform="matrix(0.966, 0.259, -0.259, 0.966, 84.939, 2283.229)">
        <g id="Group_98629-3" data-name="Group 98629">
          <g id="Group_98625-3" data-name="Group 98625">
            <g id="Group_98622-3" data-name="Group 98622">
              <g id="Group_98621-3" data-name="Group 98621">
                <path id="Path_79203-3" data-name="Path 79203" d="M175.969,365.48a11.94,11.94,0,1,1-6.541-15.545A11.925,11.925,0,0,1,175.969,365.48Z" transform="translate(-152.98 -349.041)" fill="#f99d25"/>
              </g>
            </g>
            <g id="Group_98624-3" data-name="Group 98624" transform="translate(2.837 2.83)">
              <g id="Group_98623-3" data-name="Group 98623">
                <path id="Path_79204-3" data-name="Path 79204" d="M178.243,369.295a9.1,9.1,0,1,1-4.984-11.852A9.086,9.086,0,0,1,178.243,369.295Z" transform="translate(-160.723 -356.763)" fill="#f99d25"/>
              </g>
            </g>
          </g>
          <g id="Group_98628-3" data-name="Group 98628" transform="translate(2.742 2.744)">
            <g id="Group_98627-3" data-name="Group 98627">
              <g id="Group_98626-3" data-name="Group 98626">
                <path id="Path_79205-3" data-name="Path 79205" d="M178.078,369.147a.813.813,0,0,1,.04-.143c.033-.1.077-.238.136-.41.029-.092.062-.191.1-.3s.055-.238.088-.374a6.727,6.727,0,0,0,.176-.938,8.674,8.674,0,0,0-.029-2.606,9.039,9.039,0,0,0-1.165-3.236,8.947,8.947,0,0,0-2.88-2.987,9.077,9.077,0,0,0-4.526-1.426,9.41,9.41,0,0,0-1.283.033c-.216.022-.429.066-.645.1a4.4,4.4,0,0,0-.645.139,11,11,0,0,0-1.275.414,10.312,10.312,0,0,0-1.213.63,8.662,8.662,0,0,0-2.129,1.8,8.874,8.874,0,0,0-2.151,5.251,8.7,8.7,0,0,0,.257,2.781,10.124,10.124,0,0,0,.421,1.3,9.588,9.588,0,0,0,.619,1.187,8.3,8.3,0,0,0,1.645,1.994,9.046,9.046,0,0,0,4.229,2.155A8.924,8.924,0,0,0,172,374.4a9.05,9.05,0,0,0,3.1-1.492,8.575,8.575,0,0,0,1.847-1.84,6.638,6.638,0,0,0,.531-.792c.07-.117.143-.227.2-.33s.1-.2.139-.286c.081-.165.147-.293.191-.388.048-.077.07-.121.073-.121a.693.693,0,0,1-.055.136c-.044.1-.1.227-.176.4-.04.088-.084.183-.132.289s-.121.213-.191.333a6.528,6.528,0,0,1-.52.81,8.547,8.547,0,0,1-1.843,1.88,9.155,9.155,0,0,1-7.344,1.671,9.2,9.2,0,0,1-4.313-2.18,9.612,9.612,0,0,1-.913-.938,9.753,9.753,0,0,1-.773-1.092,10.268,10.268,0,0,1-.634-1.213,10.146,10.146,0,0,1-.432-1.323,8.949,8.949,0,0,1-.264-2.84,9.806,9.806,0,0,1,.656-2.862,9.626,9.626,0,0,1,1.539-2.5,8.807,8.807,0,0,1,2.177-1.84,10.435,10.435,0,0,1,1.239-.641,10.549,10.549,0,0,1,1.3-.421,5.248,5.248,0,0,1,.656-.143c.22-.033.44-.073.66-.1a9.359,9.359,0,0,1,5.915,1.44,9.158,9.158,0,0,1,4.064,6.34,8.506,8.506,0,0,1,0,2.635,6.507,6.507,0,0,1-.194.942c-.037.136-.062.26-.1.374s-.077.209-.11.3c-.066.172-.114.3-.154.407A.615.615,0,0,1,178.078,369.147Z" transform="translate(-160.463 -356.53)" fill="#263238"/>
              </g>
            </g>
          </g>
        </g>
        <g id="Group_98631-3" data-name="Group 98631" transform="translate(3.367 2.862)" opacity="0.3">
          <g id="Group_98630-3" data-name="Group 98630">
            <path id="Path_79206-3" data-name="Path 79206" d="M179.058,369.412a5.568,5.568,0,0,1,.194-1.1,9.73,9.73,0,0,0,.1-2.976,9.4,9.4,0,0,0-.476-1.983,9.113,9.113,0,0,0-1.074-2.063,8.2,8.2,0,0,0-.788-.975,8.546,8.546,0,0,0-.96-.887,8.692,8.692,0,0,0-1.121-.755,9.2,9.2,0,0,0-1.261-.586,9.5,9.5,0,0,0-1.338-.381,8.862,8.862,0,0,0-1.341-.161,8.546,8.546,0,0,0-1.3.04,8.351,8.351,0,0,0-1.235.22,9.055,9.055,0,0,0-2.162.858,9.444,9.444,0,0,0-1.66,1.184,9.773,9.773,0,0,0-1.876,2.309,5.458,5.458,0,0,1-.575.96,2.715,2.715,0,0,1,.337-1.085,8.54,8.54,0,0,1,1.781-2.543A9.186,9.186,0,0,1,166,358.158a9.313,9.313,0,0,1,2.287-.978,9.2,9.2,0,0,1,2.73-.323,8.946,8.946,0,0,1,1.448.165,10.358,10.358,0,0,1,1.444.407,10.234,10.234,0,0,1,1.36.638,9.159,9.159,0,0,1,2.224,1.792,8.57,8.57,0,0,1,.828,1.063,9.07,9.07,0,0,1,1.51,4.357,8.5,8.5,0,0,1-.319,3.089A2.757,2.757,0,0,1,179.058,369.412Z" transform="translate(-162.167 -356.85)"/>
          </g>
        </g>
        <g id="Group_98635-3" data-name="Group 98635" transform="translate(6.64 5.911)" opacity="0.3">
          <g id="Group_98634-3" data-name="Group 98634">
            <g id="Group_98633-3" data-name="Group 98633">
              <g id="Group_98632-3" data-name="Group 98632">
                <path id="Path_79207-3" data-name="Path 79207" d="M175.3,376.589l-.579,1.477-1.316-.517.564-1.437a6.712,6.712,0,0,1-2.866-2.342l1.356-1.323a5.725,5.725,0,0,0,2.188,1.939l.861-2.2c-1.323-.927-2.763-2.056-2.027-3.94.55-1.4,2.034-2.2,4.207-1.616l.575-1.462,1.319.517-.564,1.437a6.426,6.426,0,0,1,2.36,1.851l-1.294,1.363a5.752,5.752,0,0,0-1.748-1.477l-.88,2.239c1.327.916,2.745,2.034,2.016,3.892C178.928,376.358,177.462,377.15,175.3,376.589Zm.967-6.34L177,368.38c-.759-.117-1.187.158-1.356.594C175.457,369.432,175.754,369.839,176.263,370.249Zm1.019,4.064c.18-.462-.1-.861-.59-1.283l-.715,1.818C176.692,374.966,177.117,374.735,177.282,374.313Z" transform="translate(-171.1 -365.17)"/>
              </g>
            </g>
          </g>
        </g>
      </g>
    </g>
  </g>
</svg>
