<svg xmlns="http://www.w3.org/2000/svg" width="157" height="224" viewBox="0 0 157 224" fill="none"><path d="M0.0690918 10C0.0690918 4.47715 3.9411 0 8.71747 0H147.421C152.197 0 156.069 4.47715 156.069 10V214C156.069 219.523 152.197 224 147.421 224H8.71748C3.94111 224 0.0690918 219.523 0.0690918 214V10Z" fill="white"></path><path fill-rule="evenodd" clip-rule="evenodd" d="M147.421 0.5H8.71747C4.17992 0.5 0.501511 4.7533 0.501511 10V214C0.501511 219.247 4.17993 223.5 8.71748 223.5H147.421C151.958 223.5 155.637 219.247 155.637 214V10C155.637 4.7533 151.958 0.5 147.421 0.5ZM8.71747 0C3.9411 0 0.0690918 4.47715 0.0690918 10V214C0.0690918 219.523 3.94111 224 8.71748 224H147.421C152.197 224 156.069 219.523 156.069 214V10C156.069 4.47715 152.197 0 147.421 0H8.71747Z" fill="#CCCCCC"></path><path d="M42.3046 174.656V176H35.6326V164.912H37.1846V174.656H42.3046ZM50.99 171.84C50.99 172.501 50.894 173.099 50.702 173.632C50.51 174.165 50.238 174.624 49.886 175.008C49.5446 175.392 49.134 175.691 48.654 175.904C48.174 176.107 47.6513 176.208 47.086 176.208C46.5206 176.208 45.998 176.107 45.518 175.904C45.038 175.691 44.622 175.392 44.27 175.008C43.9286 174.624 43.662 174.165 43.47 173.632C43.278 173.099 43.182 172.501 43.182 171.84C43.182 171.189 43.278 170.597 43.47 170.064C43.662 169.52 43.9286 169.056 44.27 168.672C44.622 168.288 45.038 167.995 45.518 167.792C45.998 167.579 46.5206 167.472 47.086 167.472C47.6513 167.472 48.174 167.579 48.654 167.792C49.134 167.995 49.5446 168.288 49.886 168.672C50.238 169.056 50.51 169.52 50.702 170.064C50.894 170.597 50.99 171.189 50.99 171.84ZM49.438 171.84C49.438 170.901 49.2246 170.16 48.798 169.616C48.382 169.061 47.8113 168.784 47.086 168.784C46.3606 168.784 45.7846 169.061 45.358 169.616C44.942 170.16 44.734 170.901 44.734 171.84C44.734 172.779 44.942 173.525 45.358 174.08C45.7846 174.624 46.3606 174.896 47.086 174.896C47.8113 174.896 48.382 174.624 48.798 174.08C49.2246 173.525 49.438 172.779 49.438 171.84ZM54.4755 167.68H57.6275V168.928H54.4755V172.768C54.4755 173.184 54.5075 173.531 54.5715 173.808C54.6355 174.075 54.7315 174.288 54.8595 174.448C54.9875 174.597 55.1475 174.704 55.3395 174.768C55.5315 174.832 55.7555 174.864 56.0115 174.864C56.4595 174.864 56.8168 174.816 57.0835 174.72C57.3608 174.613 57.5528 174.539 57.6595 174.496L57.9475 175.728C57.7981 175.803 57.5368 175.893 57.1635 176C56.7901 176.117 56.3635 176.176 55.8835 176.176C55.3181 176.176 54.8488 176.107 54.4755 175.968C54.1128 175.819 53.8195 175.6 53.5955 175.312C53.3715 175.024 53.2115 174.672 53.1155 174.256C53.0301 173.829 52.9875 173.339 52.9875 172.784V165.36L54.4755 165.104V167.68ZM61.457 174.928C62.065 174.928 62.513 174.848 62.801 174.688C63.0996 174.528 63.249 174.272 63.249 173.92C63.249 173.557 63.105 173.269 62.817 173.056C62.529 172.843 62.0543 172.603 61.393 172.336C61.073 172.208 60.7636 172.08 60.465 171.952C60.177 171.813 59.9263 171.653 59.713 171.472C59.4996 171.291 59.329 171.072 59.201 170.816C59.073 170.56 59.009 170.245 59.009 169.872C59.009 169.136 59.281 168.555 59.825 168.128C60.369 167.691 61.1103 167.472 62.049 167.472C62.2836 167.472 62.5183 167.488 62.753 167.52C62.9876 167.541 63.2063 167.573 63.409 167.616C63.6116 167.648 63.7876 167.685 63.937 167.728C64.097 167.771 64.2196 167.808 64.305 167.84L64.033 169.12C63.873 169.035 63.6223 168.949 63.281 168.864C62.9396 168.768 62.529 168.72 62.049 168.72C61.633 168.72 61.2703 168.805 60.961 168.976C60.6516 169.136 60.497 169.392 60.497 169.744C60.497 169.925 60.529 170.085 60.593 170.224C60.6676 170.363 60.7743 170.491 60.913 170.608C61.0623 170.715 61.2436 170.816 61.457 170.912C61.6703 171.008 61.9263 171.109 62.225 171.216C62.6196 171.365 62.9716 171.515 63.281 171.664C63.5903 171.803 63.8516 171.968 64.065 172.16C64.289 172.352 64.4596 172.587 64.577 172.864C64.6943 173.131 64.753 173.461 64.753 173.856C64.753 174.624 64.465 175.205 63.889 175.6C63.3236 175.995 62.513 176.192 61.457 176.192C60.721 176.192 60.145 176.128 59.729 176C59.313 175.883 59.0303 175.792 58.881 175.728L59.153 174.448C59.3236 174.512 59.5956 174.608 59.969 174.736C60.3423 174.864 60.8383 174.928 61.457 174.928ZM68.4216 175.136C68.4216 175.424 68.3256 175.675 68.1336 175.888C67.9416 176.101 67.6803 176.208 67.3496 176.208C67.0189 176.208 66.7576 176.101 66.5656 175.888C66.3736 175.675 66.2776 175.424 66.2776 175.136C66.2776 174.848 66.3736 174.597 66.5656 174.384C66.7576 174.171 67.0189 174.064 67.3496 174.064C67.6803 174.064 67.9416 174.171 68.1336 174.384C68.3256 174.597 68.4216 174.848 68.4216 175.136ZM68.4216 168.752C68.4216 169.04 68.3256 169.291 68.1336 169.504C67.9416 169.717 67.6803 169.824 67.3496 169.824C67.0189 169.824 66.7576 169.717 66.5656 169.504C66.3736 169.291 66.2776 169.04 66.2776 168.752C66.2776 168.464 66.3736 168.213 66.5656 168C66.7576 167.787 67.0189 167.68 67.3496 167.68C67.6803 167.68 67.9416 167.787 68.1336 168C68.3256 168.213 68.4216 168.464 68.4216 168.752ZM76.2062 169.184C77.8169 169.248 78.9956 169.6 79.7422 170.24C80.4996 170.88 80.8782 171.749 80.8782 172.848C80.8782 173.339 80.7929 173.792 80.6222 174.208C80.4622 174.624 80.2116 174.981 79.8702 175.28C79.5396 175.579 79.1182 175.813 78.6062 175.984C78.0942 176.155 77.4862 176.24 76.7822 176.24C76.5049 176.24 76.2222 176.219 75.9342 176.176C75.6462 176.133 75.3796 176.08 75.1342 176.016C74.8889 175.952 74.6702 175.888 74.4782 175.824C74.2862 175.76 74.1476 175.707 74.0622 175.664L74.3502 174.368C74.5316 174.453 74.8249 174.565 75.2302 174.704C75.6462 174.843 76.1529 174.912 76.7502 174.912C77.2302 174.912 77.6302 174.859 77.9502 174.752C78.2809 174.645 78.5476 174.501 78.7502 174.32C78.9529 174.139 79.0969 173.931 79.1822 173.696C79.2782 173.451 79.3262 173.195 79.3262 172.928C79.3262 172.523 79.2569 172.165 79.1182 171.856C78.9796 171.536 78.7342 171.269 78.3822 171.056C78.0302 170.843 77.5609 170.683 76.9742 170.576C76.3876 170.459 75.6462 170.4 74.7502 170.4C74.8142 169.877 74.8622 169.387 74.8942 168.928C74.9369 168.469 74.9742 168.021 75.0062 167.584C75.0382 167.147 75.0649 166.715 75.0862 166.288C75.1076 165.851 75.1289 165.392 75.1502 164.912H80.4942V166.176H76.4462C76.4356 166.336 76.4196 166.555 76.3982 166.832C76.3769 167.099 76.3556 167.381 76.3342 167.68C76.3129 167.968 76.2916 168.251 76.2702 168.528C76.2489 168.805 76.2276 169.024 76.2062 169.184ZM82.8535 170.448C82.8535 168.592 83.1788 167.163 83.8295 166.16C84.4908 165.157 85.4028 164.656 86.5655 164.656C87.7281 164.656 88.6348 165.157 89.2855 166.16C89.9468 167.163 90.2775 168.592 90.2775 170.448C90.2775 172.304 89.9468 173.733 89.2855 174.736C88.6348 175.739 87.7281 176.24 86.5655 176.24C85.4028 176.24 84.4908 175.739 83.8295 174.736C83.1788 173.733 82.8535 172.304 82.8535 170.448ZM88.7095 170.448C88.7095 169.84 88.6721 169.264 88.5975 168.72C88.5335 168.176 88.4161 167.701 88.2455 167.296C88.0855 166.891 87.8668 166.571 87.5895 166.336C87.3121 166.091 86.9708 165.968 86.5655 165.968C86.1601 165.968 85.8188 166.091 85.5415 166.336C85.2641 166.571 85.0401 166.891 84.8695 167.296C84.7095 167.701 84.5921 168.176 84.5175 168.72C84.4535 169.264 84.4215 169.84 84.4215 170.448C84.4215 171.056 84.4535 171.632 84.5175 172.176C84.5921 172.72 84.7095 173.195 84.8695 173.6C85.0401 174.005 85.2641 174.331 85.5415 174.576C85.8188 174.811 86.1601 174.928 86.5655 174.928C86.9708 174.928 87.3121 174.811 87.5895 174.576C87.8668 174.331 88.0855 174.005 88.2455 173.6C88.4161 173.195 88.5335 172.72 88.5975 172.176C88.6721 171.632 88.7095 171.056 88.7095 170.448ZM91.8847 170.448C91.8847 168.592 92.2101 167.163 92.8607 166.16C93.5221 165.157 94.4341 164.656 95.5967 164.656C96.7594 164.656 97.6661 165.157 98.3167 166.16C98.9781 167.163 99.3087 168.592 99.3087 170.448C99.3087 172.304 98.9781 173.733 98.3167 174.736C97.6661 175.739 96.7594 176.24 95.5967 176.24C94.4341 176.24 93.5221 175.739 92.8607 174.736C92.2101 173.733 91.8847 172.304 91.8847 170.448ZM97.7407 170.448C97.7407 169.84 97.7034 169.264 97.6287 168.72C97.5647 168.176 97.4474 167.701 97.2767 167.296C97.1167 166.891 96.8981 166.571 96.6207 166.336C96.3434 166.091 96.0021 165.968 95.5967 165.968C95.1914 165.968 94.8501 166.091 94.5727 166.336C94.2954 166.571 94.0714 166.891 93.9007 167.296C93.7407 167.701 93.6234 168.176 93.5487 168.72C93.4847 169.264 93.4527 169.84 93.4527 170.448C93.4527 171.056 93.4847 171.632 93.5487 172.176C93.6234 172.72 93.7407 173.195 93.9007 173.6C94.0714 174.005 94.2954 174.331 94.5727 174.576C94.8501 174.811 95.1914 174.928 95.5967 174.928C96.0021 174.928 96.3434 174.811 96.6207 174.576C96.8981 174.331 97.1167 174.005 97.2767 173.6C97.4474 173.195 97.5647 172.72 97.6287 172.176C97.7034 171.632 97.7407 171.056 97.7407 170.448ZM100.916 170.448C100.916 168.592 101.241 167.163 101.892 166.16C102.553 165.157 103.465 164.656 104.628 164.656C105.791 164.656 106.697 165.157 107.348 166.16C108.009 167.163 108.34 168.592 108.34 170.448C108.34 172.304 108.009 173.733 107.348 174.736C106.697 175.739 105.791 176.24 104.628 176.24C103.465 176.24 102.553 175.739 101.892 174.736C101.241 173.733 100.916 172.304 100.916 170.448ZM106.772 170.448C106.772 169.84 106.735 169.264 106.66 168.72C106.596 168.176 106.479 167.701 106.308 167.296C106.148 166.891 105.929 166.571 105.652 166.336C105.375 166.091 105.033 165.968 104.628 165.968C104.223 165.968 103.881 166.091 103.604 166.336C103.327 166.571 103.103 166.891 102.932 167.296C102.772 167.701 102.655 168.176 102.58 168.72C102.516 169.264 102.484 169.84 102.484 170.448C102.484 171.056 102.516 171.632 102.58 172.176C102.655 172.72 102.772 173.195 102.932 173.6C103.103 174.005 103.327 174.331 103.604 174.576C103.881 174.811 104.223 174.928 104.628 174.928C105.033 174.928 105.375 174.811 105.652 174.576C105.929 174.331 106.148 174.005 106.308 173.6C106.479 173.195 106.596 172.72 106.66 172.176C106.735 171.632 106.772 171.056 106.772 170.448ZM109.995 170.576H113.019V167.28H114.299V170.576H117.323V171.84H114.299V175.152H113.019V171.84H109.995V170.576ZM36.1703 182.8C37.7277 182.8 38.9223 183.099 39.7543 183.696C40.597 184.283 41.0183 185.163 41.0183 186.336C41.0183 186.976 40.901 187.525 40.6663 187.984C40.4423 188.432 40.1117 188.8 39.6743 189.088C39.2477 189.365 38.725 189.568 38.1063 189.696C37.4877 189.824 36.789 189.888 36.0103 189.888H34.7783V194H33.2263V183.072C33.6637 182.965 34.149 182.896 34.6823 182.864C35.2263 182.821 35.7223 182.8 36.1703 182.8ZM36.2983 184.16C35.637 184.16 35.1303 184.176 34.7783 184.208V188.56H35.9463C36.4797 188.56 36.9597 188.528 37.3863 188.464C37.813 188.389 38.1703 188.272 38.4583 188.112C38.757 187.941 38.9863 187.712 39.1463 187.424C39.3063 187.136 39.3863 186.768 39.3863 186.32C39.3863 185.893 39.301 185.541 39.1303 185.264C38.9703 184.987 38.7463 184.768 38.4583 184.608C38.181 184.437 37.8557 184.32 37.4823 184.256C37.109 184.192 36.7143 184.16 36.2983 184.16ZM49.865 189.84C49.865 190.501 49.769 191.099 49.577 191.632C49.385 192.165 49.113 192.624 48.761 193.008C48.4196 193.392 48.009 193.691 47.529 193.904C47.049 194.107 46.5263 194.208 45.961 194.208C45.3956 194.208 44.873 194.107 44.393 193.904C43.913 193.691 43.497 193.392 43.145 193.008C42.8036 192.624 42.537 192.165 42.345 191.632C42.153 191.099 42.057 190.501 42.057 189.84C42.057 189.189 42.153 188.597 42.345 188.064C42.537 187.52 42.8036 187.056 43.145 186.672C43.497 186.288 43.913 185.995 44.393 185.792C44.873 185.579 45.3956 185.472 45.961 185.472C46.5263 185.472 47.049 185.579 47.529 185.792C48.009 185.995 48.4196 186.288 48.761 186.672C49.113 187.056 49.385 187.52 49.577 188.064C49.769 188.597 49.865 189.189 49.865 189.84ZM48.313 189.84C48.313 188.901 48.0996 188.16 47.673 187.616C47.257 187.061 46.6863 186.784 45.961 186.784C45.2356 186.784 44.6596 187.061 44.233 187.616C43.817 188.16 43.609 188.901 43.609 189.84C43.609 190.779 43.817 191.525 44.233 192.08C44.6596 192.624 45.2356 192.896 45.961 192.896C46.6863 192.896 47.257 192.624 47.673 192.08C48.0996 191.525 48.313 190.779 48.313 189.84ZM53.4465 194H51.9585V185.68H53.4465V194ZM52.6945 184.176C52.4278 184.176 52.1985 184.091 52.0065 183.92C51.8251 183.739 51.7345 183.499 51.7345 183.2C51.7345 182.901 51.8251 182.667 52.0065 182.496C52.1985 182.315 52.4278 182.224 52.6945 182.224C52.9611 182.224 53.1851 182.315 53.3665 182.496C53.5585 182.667 53.6545 182.901 53.6545 183.2C53.6545 183.499 53.5585 183.739 53.3665 183.92C53.1851 184.091 52.9611 184.176 52.6945 184.176ZM56.0053 185.92C56.3467 185.835 56.8 185.744 57.3653 185.648C57.9307 185.552 58.5813 185.504 59.3173 185.504C59.9787 185.504 60.528 185.6 60.9653 185.792C61.4027 185.973 61.7493 186.235 62.0053 186.576C62.272 186.907 62.4587 187.307 62.5653 187.776C62.672 188.245 62.7253 188.763 62.7253 189.328V194H61.2373V189.648C61.2373 189.136 61.2 188.699 61.1253 188.336C61.0613 187.973 60.9493 187.68 60.7893 187.456C60.6293 187.232 60.416 187.072 60.1493 186.976C59.8827 186.869 59.552 186.816 59.1573 186.816C58.9973 186.816 58.832 186.821 58.6613 186.832C58.4907 186.843 58.3253 186.859 58.1653 186.88C58.016 186.891 57.8773 186.907 57.7493 186.928C57.632 186.949 57.5467 186.965 57.4933 186.976V194H56.0053V185.92ZM66.5848 185.68H69.7368V186.928H66.5848V190.768C66.5848 191.184 66.6168 191.531 66.6808 191.808C66.7448 192.075 66.8408 192.288 66.9688 192.448C67.0968 192.597 67.2568 192.704 67.4488 192.768C67.6408 192.832 67.8648 192.864 68.1208 192.864C68.5688 192.864 68.9262 192.816 69.1928 192.72C69.4702 192.613 69.6622 192.539 69.7688 192.496L70.0568 193.728C69.9075 193.803 69.6462 193.893 69.2728 194C68.8995 194.117 68.4728 194.176 67.9928 194.176C67.4275 194.176 66.9582 194.107 66.5848 193.968C66.2222 193.819 65.9288 193.6 65.7048 193.312C65.4808 193.024 65.3208 192.672 65.2248 192.256C65.1395 191.829 65.0968 191.339 65.0968 190.784V183.36L66.5848 183.104V185.68ZM73.5663 192.928C74.1743 192.928 74.6223 192.848 74.9103 192.688C75.209 192.528 75.3583 192.272 75.3583 191.92C75.3583 191.557 75.2143 191.269 74.9263 191.056C74.6383 190.843 74.1637 190.603 73.5023 190.336C73.1823 190.208 72.873 190.08 72.5743 189.952C72.2863 189.813 72.0357 189.653 71.8223 189.472C71.609 189.291 71.4383 189.072 71.3103 188.816C71.1823 188.56 71.1183 188.245 71.1183 187.872C71.1183 187.136 71.3903 186.555 71.9343 186.128C72.4783 185.691 73.2197 185.472 74.1583 185.472C74.393 185.472 74.6277 185.488 74.8623 185.52C75.097 185.541 75.3157 185.573 75.5183 185.616C75.721 185.648 75.897 185.685 76.0463 185.728C76.2063 185.771 76.329 185.808 76.4143 185.84L76.1423 187.12C75.9823 187.035 75.7317 186.949 75.3903 186.864C75.049 186.768 74.6383 186.72 74.1583 186.72C73.7423 186.72 73.3797 186.805 73.0703 186.976C72.761 187.136 72.6063 187.392 72.6063 187.744C72.6063 187.925 72.6383 188.085 72.7023 188.224C72.777 188.363 72.8837 188.491 73.0223 188.608C73.1717 188.715 73.353 188.816 73.5663 188.912C73.7797 189.008 74.0357 189.109 74.3343 189.216C74.729 189.365 75.081 189.515 75.3903 189.664C75.6997 189.803 75.961 189.968 76.1743 190.16C76.3983 190.352 76.569 190.587 76.6863 190.864C76.8037 191.131 76.8623 191.461 76.8623 191.856C76.8623 192.624 76.5743 193.205 75.9983 193.6C75.433 193.995 74.6223 194.192 73.5663 194.192C72.8303 194.192 72.2543 194.128 71.8383 194C71.4223 193.883 71.1397 193.792 70.9903 193.728L71.2623 192.448C71.433 192.512 71.705 192.608 72.0783 192.736C72.4517 192.864 72.9477 192.928 73.5663 192.928ZM78.627 196.96H77.107L82.531 181.472H84.019L78.627 196.96ZM91.6796 192.656V194H85.0076V182.912H86.5596V192.656H91.6796ZM100.365 189.84C100.365 190.501 100.269 191.099 100.077 191.632C99.885 192.165 99.613 192.624 99.261 193.008C98.9196 193.392 98.509 193.691 98.029 193.904C97.549 194.107 97.0263 194.208 96.461 194.208C95.8956 194.208 95.373 194.107 94.893 193.904C94.413 193.691 93.997 193.392 93.645 193.008C93.3036 192.624 93.037 192.165 92.845 191.632C92.653 191.099 92.557 190.501 92.557 189.84C92.557 189.189 92.653 188.597 92.845 188.064C93.037 187.52 93.3036 187.056 93.645 186.672C93.997 186.288 94.413 185.995 94.893 185.792C95.373 185.579 95.8956 185.472 96.461 185.472C97.0263 185.472 97.549 185.579 98.029 185.792C98.509 185.995 98.9196 186.288 99.261 186.672C99.613 187.056 99.885 187.52 100.077 188.064C100.269 188.597 100.365 189.189 100.365 189.84ZM98.813 189.84C98.813 188.901 98.5996 188.16 98.173 187.616C97.757 187.061 97.1863 186.784 96.461 186.784C95.7356 186.784 95.1596 187.061 94.733 187.616C94.317 188.16 94.109 188.901 94.109 189.84C94.109 190.779 94.317 191.525 94.733 192.08C95.1596 192.624 95.7356 192.896 96.461 192.896C97.1863 192.896 97.757 192.624 98.173 192.08C98.5996 191.525 98.813 190.779 98.813 189.84ZM103.85 185.68H107.002V186.928H103.85V190.768C103.85 191.184 103.882 191.531 103.946 191.808C104.01 192.075 104.106 192.288 104.234 192.448C104.362 192.597 104.522 192.704 104.714 192.768C104.906 192.832 105.13 192.864 105.386 192.864C105.834 192.864 106.192 192.816 106.458 192.72C106.736 192.613 106.928 192.539 107.034 192.496L107.322 193.728C107.173 193.803 106.912 193.893 106.538 194C106.165 194.117 105.738 194.176 105.258 194.176C104.693 194.176 104.224 194.107 103.85 193.968C103.488 193.819 103.194 193.6 102.97 193.312C102.746 193.024 102.586 192.672 102.49 192.256C102.405 191.829 102.362 191.339 102.362 190.784V183.36L103.85 183.104V185.68ZM110.656 193.136C110.656 193.424 110.56 193.675 110.368 193.888C110.176 194.101 109.915 194.208 109.584 194.208C109.253 194.208 108.992 194.101 108.8 193.888C108.608 193.675 108.512 193.424 108.512 193.136C108.512 192.848 108.608 192.597 108.8 192.384C108.992 192.171 109.253 192.064 109.584 192.064C109.915 192.064 110.176 192.171 110.368 192.384C110.56 192.597 110.656 192.848 110.656 193.136ZM110.656 186.752C110.656 187.04 110.56 187.291 110.368 187.504C110.176 187.717 109.915 187.824 109.584 187.824C109.253 187.824 108.992 187.717 108.8 187.504C108.608 187.291 108.512 187.04 108.512 186.752C108.512 186.464 108.608 186.213 108.8 186C108.992 185.787 109.253 185.68 109.584 185.68C109.915 185.68 110.176 185.787 110.368 186C110.56 186.213 110.656 186.464 110.656 186.752ZM116.745 185.2C117.353 184.965 117.945 184.667 118.521 184.304C119.097 183.931 119.625 183.467 120.105 182.912H121.161V194H119.673V184.976C119.545 185.093 119.385 185.216 119.193 185.344C119.011 185.472 118.809 185.595 118.585 185.712C118.371 185.829 118.142 185.941 117.897 186.048C117.662 186.155 117.433 186.245 117.209 186.32L116.745 185.2Z" fill="#333333"></path><path d="M32.9288 146.504C33.1048 146.52 33.3368 146.536 33.6248 146.552C33.9128 146.552 34.3048 146.552 34.8008 146.552C36.8328 146.552 38.3448 146.04 39.3368 145.016C40.3448 143.976 40.8488 142.528 40.8488 140.672C40.8488 138.784 40.3608 137.336 39.3848 136.328C38.4088 135.32 36.8968 134.816 34.8488 134.816C33.9528 134.816 33.3128 134.84 32.9288 134.888V146.504ZM44.0168 140.672C44.0168 142.112 43.7928 143.368 43.3448 144.44C42.8968 145.496 42.2568 146.384 41.4248 147.104C40.6088 147.808 39.6168 148.336 38.4488 148.688C37.2968 149.024 36.0168 149.192 34.6088 149.192C33.9368 149.192 33.1768 149.16 32.3288 149.096C31.4808 149.048 30.6728 148.936 29.9048 148.76V132.608C30.6728 132.432 31.4888 132.32 32.3528 132.272C33.2168 132.224 33.9848 132.2 34.6568 132.2C36.0488 132.2 37.3208 132.368 38.4728 132.704C39.6248 133.024 40.6088 133.536 41.4248 134.24C42.2568 134.928 42.8968 135.808 43.3448 136.88C43.7928 137.936 44.0168 139.2 44.0168 140.672ZM50.1029 149H47.1989V136.448H50.1029V149ZM50.4149 132.776C50.4149 133.32 50.2389 133.752 49.8869 134.072C49.5349 134.392 49.1189 134.552 48.6389 134.552C48.1429 134.552 47.7189 134.392 47.3669 134.072C47.0149 133.752 46.8389 133.32 46.8389 132.776C46.8389 132.216 47.0149 131.776 47.3669 131.456C47.7189 131.136 48.1429 130.976 48.6389 130.976C49.1189 130.976 49.5349 131.136 49.8869 131.456C50.2389 131.776 50.4149 132.216 50.4149 132.776ZM58.2237 146.96C59.1197 146.96 59.7997 146.912 60.2637 146.816V143.6C60.1037 143.552 59.8717 143.504 59.5677 143.456C59.2637 143.408 58.9277 143.384 58.5597 143.384C58.2397 143.384 57.9117 143.408 57.5757 143.456C57.2557 143.504 56.9597 143.592 56.6877 143.72C56.4317 143.848 56.2237 144.032 56.0637 144.272C55.9037 144.496 55.8237 144.784 55.8237 145.136C55.8237 145.824 56.0397 146.304 56.4717 146.576C56.9037 146.832 57.4877 146.96 58.2237 146.96ZM57.9837 136.136C58.9437 136.136 59.7517 136.256 60.4077 136.496C61.0637 136.736 61.5837 137.072 61.9677 137.504C62.3677 137.936 62.6477 138.464 62.8077 139.088C62.9837 139.696 63.0717 140.368 63.0717 141.104V148.712C62.6237 148.808 61.9437 148.92 61.0317 149.048C60.1357 149.192 59.1197 149.264 57.9837 149.264C57.2317 149.264 56.5437 149.192 55.9197 149.048C55.2957 148.904 54.7597 148.672 54.3117 148.352C53.8797 148.032 53.5357 147.616 53.2797 147.104C53.0397 146.592 52.9197 145.96 52.9197 145.208C52.9197 144.488 53.0557 143.88 53.3277 143.384C53.6157 142.888 53.9997 142.488 54.4797 142.184C54.9597 141.864 55.5117 141.64 56.1357 141.512C56.7757 141.368 57.4397 141.296 58.1277 141.296C58.4477 141.296 58.7837 141.32 59.1357 141.368C59.4877 141.4 59.8637 141.464 60.2637 141.56V141.08C60.2637 140.744 60.2237 140.424 60.1437 140.12C60.0637 139.816 59.9197 139.552 59.7117 139.328C59.5197 139.088 59.2557 138.904 58.9197 138.776C58.5997 138.648 58.1917 138.584 57.6957 138.584C57.0237 138.584 56.4077 138.632 55.8477 138.728C55.2877 138.824 54.8317 138.936 54.4797 139.064L54.1197 136.712C54.4877 136.584 55.0237 136.456 55.7277 136.328C56.4317 136.2 57.1837 136.136 57.9837 136.136ZM73.78 142.4C73.78 141.088 73.612 140.144 73.276 139.568C72.956 138.976 72.348 138.68 71.452 138.68C71.132 138.68 70.78 138.704 70.396 138.752C70.012 138.8 69.724 138.84 69.532 138.872V149H66.628V136.856C67.188 136.696 67.916 136.544 68.812 136.4C69.724 136.256 70.684 136.184 71.692 136.184C72.556 136.184 73.26 136.296 73.804 136.52C74.364 136.744 74.828 137.04 75.196 137.408C75.372 137.28 75.596 137.144 75.868 137C76.14 136.856 76.444 136.728 76.78 136.616C77.116 136.488 77.468 136.384 77.836 136.304C78.22 136.224 78.604 136.184 78.988 136.184C79.964 136.184 80.764 136.328 81.388 136.616C82.028 136.888 82.524 137.28 82.876 137.792C83.244 138.288 83.492 138.896 83.62 139.616C83.764 140.32 83.836 141.096 83.836 141.944V149H80.932V142.4C80.932 141.088 80.772 140.144 80.452 139.568C80.132 138.976 79.516 138.68 78.604 138.68C78.14 138.68 77.7 138.76 77.284 138.92C76.868 139.064 76.556 139.208 76.348 139.352C76.476 139.752 76.564 140.176 76.612 140.624C76.66 141.072 76.684 141.552 76.684 142.064V149H73.78V142.4ZM98.7457 142.712C98.7457 143.704 98.6017 144.608 98.3137 145.424C98.0257 146.24 97.6177 146.936 97.0897 147.512C96.5617 148.088 95.9217 148.536 95.1697 148.856C94.4337 149.176 93.6177 149.336 92.7217 149.336C91.8257 149.336 91.0097 149.176 90.2737 148.856C89.5377 148.536 88.9057 148.088 88.3777 147.512C87.8497 146.936 87.4337 146.24 87.1297 145.424C86.8417 144.608 86.6977 143.704 86.6977 142.712C86.6977 141.72 86.8417 140.824 87.1297 140.024C87.4337 139.208 87.8497 138.512 88.3777 137.936C88.9217 137.36 89.5617 136.92 90.2977 136.616C91.0337 136.296 91.8417 136.136 92.7217 136.136C93.6017 136.136 94.4097 136.296 95.1457 136.616C95.8977 136.92 96.5377 137.36 97.0657 137.936C97.5937 138.512 98.0017 139.208 98.2897 140.024C98.5937 140.824 98.7457 141.72 98.7457 142.712ZM95.7697 142.712C95.7697 141.464 95.4977 140.48 94.9537 139.76C94.4257 139.024 93.6817 138.656 92.7217 138.656C91.7617 138.656 91.0097 139.024 90.4657 139.76C89.9377 140.48 89.6737 141.464 89.6737 142.712C89.6737 143.976 89.9377 144.976 90.4657 145.712C91.0097 146.448 91.7617 146.816 92.7217 146.816C93.6817 146.816 94.4257 146.448 94.9537 145.712C95.4977 144.976 95.7697 143.976 95.7697 142.712ZM101.737 136.856C102.297 136.696 103.025 136.544 103.921 136.4C104.817 136.256 105.809 136.184 106.897 136.184C107.921 136.184 108.777 136.328 109.465 136.616C110.153 136.888 110.697 137.28 111.097 137.792C111.513 138.288 111.801 138.896 111.961 139.616C112.137 140.32 112.225 141.096 112.225 141.944V149H109.321V142.4C109.321 141.728 109.273 141.16 109.177 140.696C109.097 140.216 108.953 139.832 108.745 139.544C108.553 139.24 108.281 139.024 107.929 138.896C107.593 138.752 107.177 138.68 106.681 138.68C106.313 138.68 105.929 138.704 105.529 138.752C105.129 138.8 104.833 138.84 104.641 138.872V149H101.737V136.856ZM118.056 142.688C118.056 143.968 118.36 144.976 118.968 145.712C119.576 146.432 120.416 146.792 121.488 146.792C121.952 146.792 122.344 146.776 122.664 146.744C123 146.696 123.272 146.648 123.48 146.6V139.4C123.224 139.224 122.88 139.064 122.448 138.92C122.032 138.76 121.584 138.68 121.104 138.68C120.048 138.68 119.272 139.04 118.776 139.76C118.296 140.48 118.056 141.456 118.056 142.688ZM126.384 148.616C125.808 148.792 125.08 148.952 124.2 149.096C123.336 149.24 122.424 149.312 121.464 149.312C120.472 149.312 119.584 149.16 118.8 148.856C118.016 148.552 117.344 148.12 116.784 147.56C116.24 146.984 115.816 146.296 115.512 145.496C115.224 144.68 115.08 143.768 115.08 142.76C115.08 141.768 115.2 140.872 115.44 140.072C115.696 139.256 116.064 138.56 116.544 137.984C117.024 137.408 117.608 136.968 118.296 136.664C118.984 136.344 119.776 136.184 120.672 136.184C121.28 136.184 121.816 136.256 122.28 136.4C122.744 136.544 123.144 136.704 123.48 136.88V130.856L126.384 130.376V148.616Z" fill="#333333"></path><circle cx="78.0691" cy="69" r="40" fill="#00C8FF"></circle><path d="M67.3415 56.8008C67.0618 56.8008 66.7935 56.9119 66.5958 57.1097C66.398 57.3075 66.2869 57.5757 66.2869 57.8554V85.6363C66.2868 85.8219 66.3357 86.0043 66.4287 86.165C66.5217 86.3257 66.6555 86.459 66.8165 86.5515C66.9775 86.6439 67.1601 86.6922 67.3458 86.6914C67.5315 86.6906 67.7136 86.6409 67.8739 86.5471L78.0663 80.5885L79.451 69.3534L78.0663 56.8008H67.3415Z" fill="#93E5FF"></path><path d="M88.7925 56.8008H78.0676V80.5885L88.2601 86.5471C88.4203 86.6408 88.6024 86.6906 88.788 86.6914C88.9736 86.6922 89.1561 86.644 89.3171 86.5517C89.4781 86.4593 89.6119 86.3262 89.705 86.1656C89.798 86.005 89.847 85.8227 89.8471 85.6371V57.8554C89.8471 57.5757 89.736 57.3075 89.5382 57.1097C89.3404 56.9119 89.0722 56.8008 88.7925 56.8008Z" fill="#7BE0FF"></path><path d="M62.0046 50.6914C61.7249 50.6914 61.4566 50.8025 61.2588 51.0003C61.0611 51.1981 60.95 51.4663 60.95 51.746C60.952 53.6451 61.7073 55.4659 63.0502 56.8088C64.393 58.1516 66.2138 58.9069 68.1129 58.909H78.0697L79.4544 55.0817L78.0697 50.6914H62.0046Z" fill="#68DBFF"></path><path d="M94.1348 50.6914H78.0696V58.909H88.0264C89.9255 58.9069 91.7463 58.1516 93.0891 56.8088C94.432 55.4659 95.1873 53.6451 95.1894 51.746C95.1894 51.6075 95.1621 51.4704 95.1091 51.3424C95.0561 51.2145 94.9784 51.0982 94.8805 51.0003C94.7825 50.9024 94.6663 50.8247 94.5383 50.7717C94.4104 50.7187 94.2732 50.6914 94.1348 50.6914V50.6914Z" fill="#68DBFF"></path><path d="M77.1166 63.1314L75.8715 66.9586H71.8435C71.6324 66.9588 71.4267 67.0257 71.256 67.1498C71.0852 67.274 70.9582 67.449 70.8929 67.6498C70.8277 67.8506 70.8277 68.0668 70.8929 68.2676C70.958 68.4684 71.0851 68.6434 71.2558 68.7676L74.5149 71.1354L73.2698 74.9627C73.2046 75.1635 73.2047 75.3798 73.2699 75.5806C73.3352 75.7814 73.4623 75.9563 73.6331 76.0805C73.8038 76.2046 74.0095 76.2715 74.2206 76.2716C74.4317 76.2718 74.6375 76.2051 74.8084 76.0811L78.0675 73.7133L78.9478 69.4608L78.0675 62.4297C77.8564 62.4297 77.6507 62.4966 77.4799 62.6206C77.3091 62.7447 77.182 62.9196 77.1166 63.1203V63.1314Z" fill="#52D5FF"></path><path d="M85.241 67.6499C85.1757 67.4492 85.0485 67.2743 84.8777 67.1502C84.7069 67.0262 84.5012 66.9593 84.2901 66.9593H80.2622L79.017 63.132C78.9517 62.9313 78.8245 62.7564 78.6537 62.6323C78.4829 62.5083 78.2773 62.4415 78.0662 62.4414V73.7174L81.3253 76.0852C81.4982 76.204 81.7032 76.2677 81.913 76.2677C82.1228 76.2677 82.3277 76.204 82.5007 76.0852C82.6718 75.9612 82.7991 75.7861 82.8644 75.5851C82.9296 75.3841 82.9294 75.1676 82.8638 74.9668L81.6187 71.1395L84.8778 68.7717C85.0494 68.6473 85.177 68.4716 85.2423 68.27C85.3076 68.0684 85.3071 67.8512 85.241 67.6499Z" fill="#2ECDFF"></path></svg>