<svg xmlns="http://www.w3.org/2000/svg" width="181" height="225" viewBox="0 0 181 225" fill="none"><path d="M0 10.3906C0 4.86778 4.47715 0.390625 10 0.390625H170.381C175.903 0.390625 180.381 4.86778 180.381 10.3906V214.391C180.381 219.913 175.903 224.391 170.381 224.391H10C4.47716 224.391 0 219.913 0 214.391V10.3906Z" fill="white"></path><path fill-rule="evenodd" clip-rule="evenodd" d="M170.381 0.890625H10C4.75329 0.890625 0.5 5.14392 0.5 10.3906V214.391C0.5 219.637 4.75331 223.891 10 223.891H170.381C175.627 223.891 179.881 219.637 179.881 214.391V10.3906C179.881 5.14392 175.627 0.890625 170.381 0.890625ZM10 0.390625C4.47715 0.390625 0 4.86778 0 10.3906V214.391C0 219.913 4.47716 224.391 10 224.391H170.381C175.903 224.391 180.381 219.913 180.381 214.391V10.3906C180.381 4.86778 175.903 0.390625 170.381 0.390625H10Z" fill="#CCCCCC"></path><path d="M54.4259 175.047V176.391H47.7539V165.303H49.3059V175.047H54.4259ZM63.1113 172.231C63.1113 172.892 63.0153 173.489 62.8233 174.023C62.6313 174.556 62.3593 175.015 62.0073 175.399C61.666 175.783 61.2553 176.081 60.7753 176.295C60.2953 176.497 59.7726 176.599 59.2073 176.599C58.642 176.599 58.1193 176.497 57.6393 176.295C57.1593 176.081 56.7433 175.783 56.3913 175.399C56.05 175.015 55.7833 174.556 55.5913 174.023C55.3993 173.489 55.3033 172.892 55.3033 172.231C55.3033 171.58 55.3993 170.988 55.5913 170.455C55.7833 169.911 56.05 169.447 56.3913 169.063C56.7433 168.679 57.1593 168.385 57.6393 168.183C58.1193 167.969 58.642 167.863 59.2073 167.863C59.7726 167.863 60.2953 167.969 60.7753 168.183C61.2553 168.385 61.666 168.679 62.0073 169.063C62.3593 169.447 62.6313 169.911 62.8233 170.455C63.0153 170.988 63.1113 171.58 63.1113 172.231ZM61.5593 172.231C61.5593 171.292 61.346 170.551 60.9193 170.007C60.5033 169.452 59.9326 169.175 59.2073 169.175C58.482 169.175 57.906 169.452 57.4793 170.007C57.0633 170.551 56.8553 171.292 56.8553 172.231C56.8553 173.169 57.0633 173.916 57.4793 174.471C57.906 175.015 58.482 175.287 59.2073 175.287C59.9326 175.287 60.5033 175.015 60.9193 174.471C61.346 173.916 61.5593 173.169 61.5593 172.231ZM66.5968 168.071H69.7488V169.319H66.5968V173.159C66.5968 173.575 66.6288 173.921 66.6928 174.199C66.7568 174.465 66.8528 174.679 66.9808 174.839C67.1088 174.988 67.2688 175.095 67.4608 175.159C67.6528 175.223 67.8768 175.255 68.1328 175.255C68.5808 175.255 68.9381 175.207 69.2048 175.111C69.4821 175.004 69.6741 174.929 69.7808 174.887L70.0688 176.119C69.9195 176.193 69.6581 176.284 69.2848 176.391C68.9115 176.508 68.4848 176.567 68.0048 176.567C67.4395 176.567 66.9701 176.497 66.5968 176.359C66.2341 176.209 65.9408 175.991 65.7168 175.703C65.4928 175.415 65.3328 175.063 65.2368 174.647C65.1515 174.22 65.1088 173.729 65.1088 173.175V165.751L66.5968 165.495V168.071ZM73.5783 175.319C74.1863 175.319 74.6343 175.239 74.9223 175.079C75.221 174.919 75.3703 174.663 75.3703 174.311C75.3703 173.948 75.2263 173.66 74.9383 173.447C74.6503 173.233 74.1756 172.993 73.5143 172.727C73.1943 172.599 72.885 172.471 72.5863 172.343C72.2983 172.204 72.0476 172.044 71.8343 171.863C71.621 171.681 71.4503 171.463 71.3223 171.207C71.1943 170.951 71.1303 170.636 71.1303 170.263C71.1303 169.527 71.4023 168.945 71.9463 168.519C72.4903 168.081 73.2316 167.863 74.1703 167.863C74.405 167.863 74.6396 167.879 74.8743 167.911C75.109 167.932 75.3276 167.964 75.5303 168.007C75.733 168.039 75.909 168.076 76.0583 168.119C76.2183 168.161 76.341 168.199 76.4263 168.231L76.1543 169.511C75.9943 169.425 75.7436 169.34 75.4023 169.255C75.061 169.159 74.6503 169.111 74.1703 169.111C73.7543 169.111 73.3916 169.196 73.0823 169.367C72.773 169.527 72.6183 169.783 72.6183 170.135C72.6183 170.316 72.6503 170.476 72.7143 170.615C72.789 170.753 72.8956 170.881 73.0343 170.999C73.1836 171.105 73.365 171.207 73.5783 171.303C73.7916 171.399 74.0476 171.5 74.3463 171.607C74.741 171.756 75.093 171.905 75.4023 172.055C75.7116 172.193 75.973 172.359 76.1863 172.551C76.4103 172.743 76.581 172.977 76.6983 173.255C76.8156 173.521 76.8743 173.852 76.8743 174.247C76.8743 175.015 76.5863 175.596 76.0103 175.991C75.445 176.385 74.6343 176.583 73.5783 176.583C72.8423 176.583 72.2663 176.519 71.8503 176.391C71.4343 176.273 71.1516 176.183 71.0023 176.119L71.2743 174.839C71.445 174.903 71.717 174.999 72.0903 175.127C72.4636 175.255 72.9596 175.319 73.5783 175.319ZM80.5429 175.527C80.5429 175.815 80.4469 176.065 80.2549 176.279C80.0629 176.492 79.8016 176.599 79.4709 176.599C79.1403 176.599 78.8789 176.492 78.6869 176.279C78.4949 176.065 78.3989 175.815 78.3989 175.527C78.3989 175.239 78.4949 174.988 78.6869 174.775C78.8789 174.561 79.1403 174.455 79.4709 174.455C79.8016 174.455 80.0629 174.561 80.2549 174.775C80.4469 174.988 80.5429 175.239 80.5429 175.527ZM80.5429 169.143C80.5429 169.431 80.4469 169.681 80.2549 169.895C80.0629 170.108 79.8016 170.215 79.4709 170.215C79.1403 170.215 78.8789 170.108 78.6869 169.895C78.4949 169.681 78.3989 169.431 78.3989 169.143C78.3989 168.855 78.4949 168.604 78.6869 168.391C78.8789 168.177 79.1403 168.071 79.4709 168.071C79.8016 168.071 80.0629 168.177 80.2549 168.391C80.4469 168.604 80.5429 168.855 80.5429 169.143ZM88.3276 169.575C89.9382 169.639 91.1169 169.991 91.8636 170.631C92.6209 171.271 92.9996 172.14 92.9996 173.239C92.9996 173.729 92.9142 174.183 92.7436 174.599C92.5836 175.015 92.3329 175.372 91.9916 175.671C91.6609 175.969 91.2396 176.204 90.7276 176.375C90.2156 176.545 89.6076 176.631 88.9036 176.631C88.6262 176.631 88.3436 176.609 88.0556 176.567C87.7676 176.524 87.5009 176.471 87.2556 176.407C87.0102 176.343 86.7916 176.279 86.5996 176.215C86.4076 176.151 86.2689 176.097 86.1836 176.055L86.4716 174.759C86.6529 174.844 86.9462 174.956 87.3516 175.095C87.7676 175.233 88.2742 175.303 88.8716 175.303C89.3516 175.303 89.7516 175.249 90.0716 175.143C90.4022 175.036 90.6689 174.892 90.8716 174.711C91.0742 174.529 91.2182 174.321 91.3036 174.087C91.3996 173.841 91.4476 173.585 91.4476 173.319C91.4476 172.913 91.3782 172.556 91.2396 172.247C91.1009 171.927 90.8556 171.66 90.5036 171.447C90.1516 171.233 89.6822 171.073 89.0956 170.967C88.5089 170.849 87.7676 170.791 86.8716 170.791C86.9356 170.268 86.9836 169.777 87.0156 169.319C87.0582 168.86 87.0956 168.412 87.1276 167.975C87.1596 167.537 87.1862 167.105 87.2076 166.679C87.2289 166.241 87.2502 165.783 87.2716 165.303H92.6156V166.567H88.5676C88.5569 166.727 88.5409 166.945 88.5196 167.223C88.4982 167.489 88.4769 167.772 88.4556 168.071C88.4342 168.359 88.4129 168.641 88.3916 168.919C88.3702 169.196 88.3489 169.415 88.3276 169.575ZM94.9748 170.839C94.9748 168.983 95.3001 167.553 95.9508 166.551C96.6121 165.548 97.5241 165.047 98.6868 165.047C99.8495 165.047 100.756 165.548 101.407 166.551C102.068 167.553 102.399 168.983 102.399 170.839C102.399 172.695 102.068 174.124 101.407 175.127C100.756 176.129 99.8495 176.631 98.6868 176.631C97.5241 176.631 96.6121 176.129 95.9508 175.127C95.3001 174.124 94.9748 172.695 94.9748 170.839ZM100.831 170.839C100.831 170.231 100.793 169.655 100.719 169.111C100.655 168.567 100.537 168.092 100.367 167.687C100.207 167.281 99.9881 166.961 99.7108 166.727C99.4335 166.481 99.0921 166.359 98.6868 166.359C98.2815 166.359 97.9401 166.481 97.6628 166.727C97.3855 166.961 97.1615 167.281 96.9908 167.687C96.8308 168.092 96.7135 168.567 96.6388 169.111C96.5748 169.655 96.5428 170.231 96.5428 170.839C96.5428 171.447 96.5748 172.023 96.6388 172.567C96.7135 173.111 96.8308 173.585 96.9908 173.991C97.1615 174.396 97.3855 174.721 97.6628 174.967C97.9401 175.201 98.2815 175.319 98.6868 175.319C99.0921 175.319 99.4335 175.201 99.7108 174.967C99.9881 174.721 100.207 174.396 100.367 173.991C100.537 173.585 100.655 173.111 100.719 172.567C100.793 172.023 100.831 171.447 100.831 170.839ZM104.006 170.839C104.006 168.983 104.331 167.553 104.982 166.551C105.643 165.548 106.555 165.047 107.718 165.047C108.881 165.047 109.787 165.548 110.438 166.551C111.099 167.553 111.43 168.983 111.43 170.839C111.43 172.695 111.099 174.124 110.438 175.127C109.787 176.129 108.881 176.631 107.718 176.631C106.555 176.631 105.643 176.129 104.982 175.127C104.331 174.124 104.006 172.695 104.006 170.839ZM109.862 170.839C109.862 170.231 109.825 169.655 109.75 169.111C109.686 168.567 109.569 168.092 109.398 167.687C109.238 167.281 109.019 166.961 108.742 166.727C108.465 166.481 108.123 166.359 107.718 166.359C107.313 166.359 106.971 166.481 106.694 166.727C106.417 166.961 106.193 167.281 106.022 167.687C105.862 168.092 105.745 168.567 105.67 169.111C105.606 169.655 105.574 170.231 105.574 170.839C105.574 171.447 105.606 172.023 105.67 172.567C105.745 173.111 105.862 173.585 106.022 173.991C106.193 174.396 106.417 174.721 106.694 174.967C106.971 175.201 107.313 175.319 107.718 175.319C108.123 175.319 108.465 175.201 108.742 174.967C109.019 174.721 109.238 174.396 109.398 173.991C109.569 173.585 109.686 173.111 109.75 172.567C109.825 172.023 109.862 171.447 109.862 170.839ZM113.037 170.839C113.037 168.983 113.363 167.553 114.013 166.551C114.675 165.548 115.587 165.047 116.749 165.047C117.912 165.047 118.819 165.548 119.469 166.551C120.131 167.553 120.461 168.983 120.461 170.839C120.461 172.695 120.131 174.124 119.469 175.127C118.819 176.129 117.912 176.631 116.749 176.631C115.587 176.631 114.675 176.129 114.013 175.127C113.363 174.124 113.037 172.695 113.037 170.839ZM118.893 170.839C118.893 170.231 118.856 169.655 118.781 169.111C118.717 168.567 118.6 168.092 118.429 167.687C118.269 167.281 118.051 166.961 117.773 166.727C117.496 166.481 117.155 166.359 116.749 166.359C116.344 166.359 116.003 166.481 115.725 166.727C115.448 166.961 115.224 167.281 115.053 167.687C114.893 168.092 114.776 168.567 114.701 169.111C114.637 169.655 114.605 170.231 114.605 170.839C114.605 171.447 114.637 172.023 114.701 172.567C114.776 173.111 114.893 173.585 115.053 173.991C115.224 174.396 115.448 174.721 115.725 174.967C116.003 175.201 116.344 175.319 116.749 175.319C117.155 175.319 117.496 175.201 117.773 174.967C118.051 174.721 118.269 174.396 118.429 173.991C118.6 173.585 118.717 173.111 118.781 172.567C118.856 172.023 118.893 171.447 118.893 170.839ZM122.117 170.967H125.141V167.671H126.421V170.967H129.445V172.231H126.421V175.543H125.141V172.231H122.117V170.967ZM48.2917 183.191C49.849 183.191 51.0437 183.489 51.8757 184.087C52.7183 184.673 53.1397 185.553 53.1397 186.727C53.1397 187.367 53.0223 187.916 52.7877 188.375C52.5637 188.823 52.233 189.191 51.7957 189.479C51.369 189.756 50.8463 189.959 50.2277 190.087C49.609 190.215 48.9103 190.279 48.1317 190.279H46.8997V194.391H45.3477V183.463C45.785 183.356 46.2703 183.287 46.8037 183.255C47.3477 183.212 47.8437 183.191 48.2917 183.191ZM48.4197 184.551C47.7583 184.551 47.2517 184.567 46.8997 184.599V188.951H48.0677C48.601 188.951 49.081 188.919 49.5077 188.855C49.9343 188.78 50.2917 188.663 50.5797 188.503C50.8783 188.332 51.1077 188.103 51.2677 187.815C51.4277 187.527 51.5077 187.159 51.5077 186.711C51.5077 186.284 51.4223 185.932 51.2517 185.655C51.0917 185.377 50.8677 185.159 50.5797 184.999C50.3023 184.828 49.977 184.711 49.6037 184.647C49.2303 184.583 48.8357 184.551 48.4197 184.551ZM61.9863 190.231C61.9863 190.892 61.8903 191.489 61.6983 192.023C61.5063 192.556 61.2343 193.015 60.8823 193.399C60.541 193.783 60.1303 194.081 59.6503 194.295C59.1703 194.497 58.6476 194.599 58.0823 194.599C57.517 194.599 56.9943 194.497 56.5143 194.295C56.0343 194.081 55.6183 193.783 55.2663 193.399C54.925 193.015 54.6583 192.556 54.4663 192.023C54.2743 191.489 54.1783 190.892 54.1783 190.231C54.1783 189.58 54.2743 188.988 54.4663 188.455C54.6583 187.911 54.925 187.447 55.2663 187.063C55.6183 186.679 56.0343 186.385 56.5143 186.183C56.9943 185.969 57.517 185.863 58.0823 185.863C58.6476 185.863 59.1703 185.969 59.6503 186.183C60.1303 186.385 60.541 186.679 60.8823 187.063C61.2343 187.447 61.5063 187.911 61.6983 188.455C61.8903 188.988 61.9863 189.58 61.9863 190.231ZM60.4343 190.231C60.4343 189.292 60.221 188.551 59.7943 188.007C59.3783 187.452 58.8076 187.175 58.0823 187.175C57.357 187.175 56.781 187.452 56.3543 188.007C55.9383 188.551 55.7303 189.292 55.7303 190.231C55.7303 191.169 55.9383 191.916 56.3543 192.471C56.781 193.015 57.357 193.287 58.0823 193.287C58.8076 193.287 59.3783 193.015 59.7943 192.471C60.221 191.916 60.4343 191.169 60.4343 190.231ZM65.5678 194.391H64.0798V186.071H65.5678V194.391ZM64.8158 184.567C64.5491 184.567 64.3198 184.481 64.1278 184.311C63.9465 184.129 63.8558 183.889 63.8558 183.591C63.8558 183.292 63.9465 183.057 64.1278 182.887C64.3198 182.705 64.5491 182.615 64.8158 182.615C65.0825 182.615 65.3065 182.705 65.4878 182.887C65.6798 183.057 65.7758 183.292 65.7758 183.591C65.7758 183.889 65.6798 184.129 65.4878 184.311C65.3065 184.481 65.0825 184.567 64.8158 184.567ZM68.1267 186.311C68.468 186.225 68.9213 186.135 69.4867 186.039C70.052 185.943 70.7027 185.895 71.4387 185.895C72.1 185.895 72.6493 185.991 73.0867 186.183C73.524 186.364 73.8707 186.625 74.1267 186.967C74.3933 187.297 74.58 187.697 74.6867 188.167C74.7933 188.636 74.8467 189.153 74.8467 189.719V194.391H73.3587V190.039C73.3587 189.527 73.3213 189.089 73.2467 188.727C73.1827 188.364 73.0707 188.071 72.9107 187.847C72.7507 187.623 72.5373 187.463 72.2707 187.367C72.004 187.26 71.6733 187.207 71.2787 187.207C71.1187 187.207 70.9533 187.212 70.7827 187.223C70.612 187.233 70.4467 187.249 70.2867 187.271C70.1373 187.281 69.9987 187.297 69.8707 187.319C69.7533 187.34 69.668 187.356 69.6147 187.367V194.391H68.1267V186.311ZM78.7062 186.071H81.8582V187.319H78.7062V191.159C78.7062 191.575 78.7382 191.921 78.8022 192.199C78.8662 192.465 78.9622 192.679 79.0902 192.839C79.2182 192.988 79.3782 193.095 79.5702 193.159C79.7622 193.223 79.9862 193.255 80.2422 193.255C80.6902 193.255 81.0475 193.207 81.3142 193.111C81.5915 193.004 81.7835 192.929 81.8902 192.887L82.1782 194.119C82.0288 194.193 81.7675 194.284 81.3942 194.391C81.0208 194.508 80.5942 194.567 80.1142 194.567C79.5488 194.567 79.0795 194.497 78.7062 194.359C78.3435 194.209 78.0502 193.991 77.8262 193.703C77.6022 193.415 77.4422 193.063 77.3462 192.647C77.2608 192.22 77.2182 191.729 77.2182 191.175V183.751L78.7062 183.495V186.071ZM85.6877 193.319C86.2957 193.319 86.7437 193.239 87.0317 193.079C87.3303 192.919 87.4797 192.663 87.4797 192.311C87.4797 191.948 87.3357 191.66 87.0477 191.447C86.7597 191.233 86.285 190.993 85.6237 190.727C85.3037 190.599 84.9943 190.471 84.6957 190.343C84.4077 190.204 84.157 190.044 83.9437 189.863C83.7303 189.681 83.5597 189.463 83.4317 189.207C83.3037 188.951 83.2397 188.636 83.2397 188.263C83.2397 187.527 83.5117 186.945 84.0557 186.519C84.5997 186.081 85.341 185.863 86.2797 185.863C86.5143 185.863 86.749 185.879 86.9837 185.911C87.2183 185.932 87.437 185.964 87.6397 186.007C87.8423 186.039 88.0183 186.076 88.1677 186.119C88.3277 186.161 88.4503 186.199 88.5357 186.231L88.2637 187.511C88.1037 187.425 87.853 187.34 87.5117 187.255C87.1703 187.159 86.7597 187.111 86.2797 187.111C85.8637 187.111 85.501 187.196 85.1917 187.367C84.8823 187.527 84.7277 187.783 84.7277 188.135C84.7277 188.316 84.7597 188.476 84.8237 188.615C84.8983 188.753 85.005 188.881 85.1437 188.999C85.293 189.105 85.4743 189.207 85.6877 189.303C85.901 189.399 86.157 189.5 86.4557 189.607C86.8503 189.756 87.2023 189.905 87.5117 190.055C87.821 190.193 88.0823 190.359 88.2957 190.551C88.5197 190.743 88.6903 190.977 88.8077 191.255C88.925 191.521 88.9837 191.852 88.9837 192.247C88.9837 193.015 88.6957 193.596 88.1197 193.991C87.5543 194.385 86.7437 194.583 85.6877 194.583C84.9517 194.583 84.3757 194.519 83.9597 194.391C83.5437 194.273 83.261 194.183 83.1117 194.119L83.3837 192.839C83.5543 192.903 83.8263 192.999 84.1997 193.127C84.573 193.255 85.069 193.319 85.6877 193.319ZM90.7483 197.351H89.2283L94.6523 181.863H96.1403L90.7483 197.351ZM103.801 193.047V194.391H97.1289V183.303H98.6809V193.047H103.801ZM112.486 190.231C112.486 190.892 112.39 191.489 112.198 192.023C112.006 192.556 111.734 193.015 111.382 193.399C111.041 193.783 110.63 194.081 110.15 194.295C109.67 194.497 109.148 194.599 108.582 194.599C108.017 194.599 107.494 194.497 107.014 194.295C106.534 194.081 106.118 193.783 105.766 193.399C105.425 193.015 105.158 192.556 104.966 192.023C104.774 191.489 104.678 190.892 104.678 190.231C104.678 189.58 104.774 188.988 104.966 188.455C105.158 187.911 105.425 187.447 105.766 187.063C106.118 186.679 106.534 186.385 107.014 186.183C107.494 185.969 108.017 185.863 108.582 185.863C109.148 185.863 109.67 185.969 110.15 186.183C110.63 186.385 111.041 186.679 111.382 187.063C111.734 187.447 112.006 187.911 112.198 188.455C112.39 188.988 112.486 189.58 112.486 190.231ZM110.934 190.231C110.934 189.292 110.721 188.551 110.294 188.007C109.878 187.452 109.308 187.175 108.582 187.175C107.857 187.175 107.281 187.452 106.854 188.007C106.438 188.551 106.23 189.292 106.23 190.231C106.23 191.169 106.438 191.916 106.854 192.471C107.281 193.015 107.857 193.287 108.582 193.287C109.308 193.287 109.878 193.015 110.294 192.471C110.721 191.916 110.934 191.169 110.934 190.231ZM115.972 186.071H119.124V187.319H115.972V191.159C115.972 191.575 116.004 191.921 116.068 192.199C116.132 192.465 116.228 192.679 116.356 192.839C116.484 192.988 116.644 193.095 116.836 193.159C117.028 193.223 117.252 193.255 117.508 193.255C117.956 193.255 118.313 193.207 118.58 193.111C118.857 193.004 119.049 192.929 119.156 192.887L119.444 194.119C119.294 194.193 119.033 194.284 118.66 194.391C118.286 194.508 117.86 194.567 117.38 194.567C116.814 194.567 116.345 194.497 115.972 194.359C115.609 194.209 115.316 193.991 115.092 193.703C114.868 193.415 114.708 193.063 114.612 192.647C114.526 192.22 114.484 191.729 114.484 191.175V183.751L115.972 183.495V186.071ZM122.777 193.527C122.777 193.815 122.681 194.065 122.489 194.279C122.297 194.492 122.036 194.599 121.705 194.599C121.375 194.599 121.113 194.492 120.921 194.279C120.729 194.065 120.633 193.815 120.633 193.527C120.633 193.239 120.729 192.988 120.921 192.775C121.113 192.561 121.375 192.455 121.705 192.455C122.036 192.455 122.297 192.561 122.489 192.775C122.681 192.988 122.777 193.239 122.777 193.527ZM122.777 187.143C122.777 187.431 122.681 187.681 122.489 187.895C122.297 188.108 122.036 188.215 121.705 188.215C121.375 188.215 121.113 188.108 120.921 187.895C120.729 187.681 120.633 187.431 120.633 187.143C120.633 186.855 120.729 186.604 120.921 186.391C121.113 186.177 121.375 186.071 121.705 186.071C122.036 186.071 122.297 186.177 122.489 186.391C122.681 186.604 122.777 186.855 122.777 187.143ZM128.866 185.591C129.474 185.356 130.066 185.057 130.642 184.695C131.218 184.321 131.746 183.857 132.226 183.303H133.282V194.391H131.794V185.367C131.666 185.484 131.506 185.607 131.314 185.735C131.133 185.863 130.93 185.985 130.706 186.103C130.493 186.22 130.263 186.332 130.018 186.439C129.783 186.545 129.554 186.636 129.33 186.711L128.866 185.591Z" fill="#333333"></path><path d="M45.0502 146.895C45.2262 146.911 45.4582 146.927 45.7462 146.943C46.0342 146.943 46.4262 146.943 46.9222 146.943C48.9542 146.943 50.4662 146.431 51.4582 145.407C52.4662 144.367 52.9702 142.919 52.9702 141.063C52.9702 139.175 52.4822 137.727 51.5062 136.719C50.5302 135.711 49.0182 135.207 46.9702 135.207C46.0742 135.207 45.4342 135.231 45.0502 135.279V146.895ZM56.1382 141.063C56.1382 142.503 55.9142 143.759 55.4662 144.831C55.0182 145.887 54.3782 146.775 53.5462 147.495C52.7302 148.199 51.7382 148.727 50.5702 149.079C49.4182 149.415 48.1382 149.583 46.7302 149.583C46.0582 149.583 45.2982 149.551 44.4502 149.487C43.6022 149.439 42.7942 149.327 42.0262 149.151V132.999C42.7942 132.823 43.6102 132.711 44.4742 132.663C45.3382 132.615 46.1062 132.591 46.7782 132.591C48.1702 132.591 49.4422 132.759 50.5942 133.095C51.7462 133.415 52.7302 133.927 53.5462 134.631C54.3782 135.319 55.0182 136.199 55.4662 137.271C55.9142 138.327 56.1382 139.591 56.1382 141.063ZM62.2242 149.391H59.3202V136.839H62.2242V149.391ZM62.5362 133.167C62.5362 133.711 62.3602 134.143 62.0082 134.463C61.6562 134.783 61.2402 134.943 60.7602 134.943C60.2642 134.943 59.8402 134.783 59.4882 134.463C59.1362 134.143 58.9602 133.711 58.9602 133.167C58.9602 132.607 59.1362 132.167 59.4882 131.847C59.8402 131.527 60.2642 131.367 60.7602 131.367C61.2402 131.367 61.6562 131.527 62.0082 131.847C62.3602 132.167 62.5362 132.607 62.5362 133.167ZM70.3451 147.351C71.2411 147.351 71.9211 147.303 72.3851 147.207V143.991C72.2251 143.943 71.9931 143.895 71.6891 143.847C71.3851 143.799 71.0491 143.775 70.6811 143.775C70.3611 143.775 70.0331 143.799 69.6971 143.847C69.3771 143.895 69.0811 143.983 68.8091 144.111C68.5531 144.239 68.3451 144.423 68.1851 144.663C68.0251 144.887 67.9451 145.175 67.9451 145.527C67.9451 146.215 68.1611 146.695 68.5931 146.967C69.0251 147.223 69.6091 147.351 70.3451 147.351ZM70.1051 136.527C71.0651 136.527 71.8731 136.647 72.5291 136.887C73.1851 137.127 73.7051 137.463 74.0891 137.895C74.4891 138.327 74.7691 138.855 74.9291 139.479C75.1051 140.087 75.1931 140.759 75.1931 141.495V149.103C74.7451 149.199 74.0651 149.311 73.1531 149.439C72.2571 149.583 71.2411 149.655 70.1051 149.655C69.3531 149.655 68.6651 149.583 68.0411 149.439C67.4171 149.295 66.8811 149.063 66.4331 148.743C66.0011 148.423 65.6571 148.007 65.4011 147.495C65.1611 146.983 65.0411 146.351 65.0411 145.599C65.0411 144.879 65.1771 144.271 65.4491 143.775C65.7371 143.279 66.1211 142.879 66.6011 142.575C67.0811 142.255 67.6331 142.031 68.2571 141.903C68.8971 141.759 69.5611 141.687 70.2491 141.687C70.5691 141.687 70.9051 141.711 71.2571 141.759C71.6091 141.791 71.9851 141.855 72.3851 141.951V141.471C72.3851 141.135 72.3451 140.815 72.2651 140.511C72.1851 140.207 72.0411 139.943 71.8331 139.719C71.6411 139.479 71.3771 139.295 71.0411 139.167C70.7211 139.039 70.3131 138.975 69.8171 138.975C69.1451 138.975 68.5291 139.023 67.9691 139.119C67.4091 139.215 66.9531 139.327 66.6011 139.455L66.2411 137.103C66.6091 136.975 67.1451 136.847 67.8491 136.719C68.5531 136.591 69.3051 136.527 70.1051 136.527ZM85.9014 142.791C85.9014 141.479 85.7334 140.535 85.3974 139.959C85.0774 139.367 84.4694 139.071 83.5734 139.071C83.2534 139.071 82.9014 139.095 82.5174 139.143C82.1334 139.191 81.8454 139.231 81.6534 139.263V149.391H78.7494V137.247C79.3094 137.087 80.0374 136.935 80.9334 136.791C81.8454 136.647 82.8054 136.575 83.8134 136.575C84.6774 136.575 85.3814 136.687 85.9254 136.911C86.4854 137.135 86.9494 137.431 87.3174 137.799C87.4934 137.671 87.7174 137.535 87.9894 137.391C88.2614 137.247 88.5654 137.119 88.9014 137.007C89.2374 136.879 89.5894 136.775 89.9574 136.695C90.3414 136.615 90.7254 136.575 91.1094 136.575C92.0854 136.575 92.8854 136.719 93.5094 137.007C94.1494 137.279 94.6454 137.671 94.9974 138.183C95.3654 138.679 95.6134 139.287 95.7414 140.007C95.8854 140.711 95.9574 141.487 95.9574 142.335V149.391H93.0534V142.791C93.0534 141.479 92.8934 140.535 92.5734 139.959C92.2534 139.367 91.6374 139.071 90.7254 139.071C90.2614 139.071 89.8214 139.151 89.4054 139.311C88.9894 139.455 88.6774 139.599 88.4694 139.743C88.5974 140.143 88.6854 140.567 88.7334 141.015C88.7814 141.463 88.8054 141.943 88.8054 142.455V149.391H85.9014V142.791ZM110.867 143.103C110.867 144.095 110.723 144.999 110.435 145.815C110.147 146.631 109.739 147.327 109.211 147.903C108.683 148.479 108.043 148.927 107.291 149.247C106.555 149.567 105.739 149.727 104.843 149.727C103.947 149.727 103.131 149.567 102.395 149.247C101.659 148.927 101.027 148.479 100.499 147.903C99.971 147.327 99.555 146.631 99.251 145.815C98.963 144.999 98.819 144.095 98.819 143.103C98.819 142.111 98.963 141.215 99.251 140.415C99.555 139.599 99.971 138.903 100.499 138.327C101.043 137.751 101.683 137.311 102.419 137.007C103.155 136.687 103.963 136.527 104.843 136.527C105.723 136.527 106.531 136.687 107.267 137.007C108.019 137.311 108.659 137.751 109.187 138.327C109.715 138.903 110.123 139.599 110.411 140.415C110.715 141.215 110.867 142.111 110.867 143.103ZM107.891 143.103C107.891 141.855 107.619 140.871 107.075 140.151C106.547 139.415 105.803 139.047 104.843 139.047C103.883 139.047 103.131 139.415 102.587 140.151C102.059 140.871 101.795 141.855 101.795 143.103C101.795 144.367 102.059 145.367 102.587 146.103C103.131 146.839 103.883 147.207 104.843 147.207C105.803 147.207 106.547 146.839 107.075 146.103C107.619 145.367 107.891 144.367 107.891 143.103ZM113.859 137.247C114.419 137.087 115.147 136.935 116.043 136.791C116.939 136.647 117.931 136.575 119.019 136.575C120.043 136.575 120.899 136.719 121.587 137.007C122.275 137.279 122.819 137.671 123.219 138.183C123.635 138.679 123.923 139.287 124.083 140.007C124.259 140.711 124.347 141.487 124.347 142.335V149.391H121.443V142.791C121.443 142.119 121.395 141.551 121.299 141.087C121.219 140.607 121.075 140.223 120.867 139.935C120.675 139.631 120.403 139.415 120.051 139.287C119.715 139.143 119.299 139.071 118.803 139.071C118.435 139.071 118.051 139.095 117.651 139.143C117.251 139.191 116.955 139.231 116.763 139.263V149.391H113.859V137.247ZM130.178 143.079C130.178 144.359 130.482 145.367 131.09 146.103C131.698 146.823 132.538 147.183 133.61 147.183C134.074 147.183 134.466 147.167 134.786 147.135C135.122 147.087 135.394 147.039 135.602 146.991V139.791C135.346 139.615 135.002 139.455 134.57 139.311C134.154 139.151 133.706 139.071 133.226 139.071C132.17 139.071 131.394 139.431 130.898 140.151C130.418 140.871 130.178 141.847 130.178 143.079ZM138.506 149.007C137.93 149.183 137.202 149.343 136.322 149.487C135.458 149.631 134.546 149.703 133.586 149.703C132.594 149.703 131.706 149.551 130.922 149.247C130.138 148.943 129.466 148.511 128.906 147.951C128.362 147.375 127.938 146.687 127.634 145.887C127.346 145.071 127.202 144.159 127.202 143.151C127.202 142.159 127.322 141.263 127.562 140.463C127.818 139.647 128.186 138.951 128.666 138.375C129.146 137.799 129.73 137.359 130.418 137.055C131.106 136.735 131.898 136.575 132.794 136.575C133.402 136.575 133.938 136.647 134.402 136.791C134.866 136.935 135.266 137.095 135.602 137.271V131.247L138.506 130.767V149.007Z" fill="#333333"></path><circle cx="90.1904" cy="69.3906" r="40" fill="#00C8FF"></circle><path d="M79.4628 57.1914C79.1831 57.1914 78.9149 57.3025 78.7171 57.5003C78.5193 57.6981 78.4082 57.9663 78.4082 58.246V86.0269C78.4081 86.2126 78.457 86.395 78.55 86.5557C78.643 86.7164 78.7768 86.8497 78.9378 86.9421C79.0989 87.0345 79.2815 87.0828 79.4671 87.082C79.6528 87.0813 79.835 87.0315 79.9952 86.9378L90.1877 80.9791L91.5723 69.744L90.1877 57.1914H79.4628Z" fill="#93E5FF"></path><path d="M100.914 57.1914H90.189V80.9791L100.381 86.9378C100.542 87.0315 100.724 87.0812 100.909 87.082C101.095 87.0828 101.277 87.0346 101.438 86.9423C101.599 86.85 101.733 86.7168 101.826 86.5562C101.919 86.3956 101.968 86.2133 101.968 86.0277V58.246C101.968 57.9663 101.857 57.6981 101.66 57.5003C101.462 57.3025 101.194 57.1914 100.914 57.1914V57.1914Z" fill="#7BE0FF"></path><path d="M74.1259 51.082C73.8462 51.082 73.578 51.1931 73.3802 51.3909C73.1824 51.5887 73.0713 51.857 73.0713 52.1367C73.0733 54.0358 73.8286 55.8565 75.1715 57.1994C76.5144 58.5423 78.3351 59.2976 80.2342 59.2996H90.1911L91.5757 55.4723L90.1911 51.082H74.1259Z" fill="#68DBFF"></path><path d="M106.256 51.082H90.1909V59.2996H100.148C102.047 59.2976 103.868 58.5423 105.21 57.1994C106.553 55.8565 107.309 54.0358 107.311 52.1367C107.311 51.9982 107.283 51.861 107.23 51.7331C107.177 51.6051 107.1 51.4889 107.002 51.3909C106.904 51.293 106.788 51.2153 106.66 51.1623C106.532 51.1093 106.395 51.082 106.256 51.082V51.082Z" fill="#68DBFF"></path><path d="M89.238 63.522L87.9928 67.3492H83.9648C83.7537 67.3494 83.5481 67.4163 83.3773 67.5405C83.2066 67.6646 83.0795 67.8396 83.0143 68.0404C82.949 68.2412 82.949 68.4575 83.0142 68.6583C83.0794 68.8591 83.2064 69.0341 83.3772 69.1583L86.6363 71.5261L85.3911 75.3533C85.326 75.5541 85.326 75.7704 85.3913 75.9712C85.4565 76.172 85.5836 76.347 85.7544 76.4711C85.9252 76.5952 86.1308 76.6622 86.3419 76.6623C86.5531 76.6624 86.7588 76.5957 86.9297 76.4717L90.1888 74.1039L91.0691 69.8514L90.1888 62.8203C89.9777 62.8204 89.7721 62.8872 89.6013 63.0112C89.4305 63.1353 89.3033 63.3102 89.238 63.5109V63.522Z" fill="#52D5FF"></path><path d="M97.3624 68.0405C97.297 67.8398 97.1698 67.6649 96.999 67.5408C96.8282 67.4168 96.6226 67.3499 96.4115 67.3499H92.3835L91.1384 63.5226C91.073 63.3219 90.9458 63.147 90.7751 63.023C90.6043 62.8989 90.3986 62.8321 90.1875 62.832V74.108L93.4466 76.4758C93.6196 76.5947 93.8245 76.6583 94.0343 76.6583C94.2442 76.6583 94.4491 76.5947 94.622 76.4758C94.7931 76.3518 94.9204 76.1767 94.9857 75.9757C95.051 75.7748 95.0508 75.5583 94.9852 75.3574L93.7401 71.5301L96.9992 69.1623C97.1708 69.0379 97.2984 68.8623 97.3637 68.6606C97.4289 68.459 97.4285 68.2419 97.3624 68.0405V68.0405Z" fill="#2ECDFF"></path></svg>