<svg xmlns="http://www.w3.org/2000/svg" width="157" height="224" viewBox="0 0 157 224" fill="none"><path d="M0.320801 10C0.320801 4.47715 4.19281 0 8.96918 0H147.672C152.449 0 156.321 4.47715 156.321 10V214C156.321 219.523 152.449 224 147.672 224H8.96919C4.19282 224 0.320801 219.523 0.320801 214V10Z" fill="white"></path><path fill-rule="evenodd" clip-rule="evenodd" d="M147.672 0.5H8.96918C4.43163 0.5 0.75322 4.7533 0.75322 10V214C0.75322 219.247 4.43164 223.5 8.96919 223.5H147.672C152.21 223.5 155.888 219.247 155.888 214V10C155.888 4.7533 152.21 0.5 147.672 0.5ZM8.96918 0C4.19281 0 0.320801 4.47715 0.320801 10V214C0.320801 219.523 4.19282 224 8.96919 224H147.672C152.449 224 156.321 219.523 156.321 214V10C156.321 4.47715 152.449 0 147.672 0H8.96918Z" fill="#CCCCCC"></path><path d="M25.4626 177.656V179H18.7906V167.912H20.3426V177.656H25.4626ZM34.1479 174.84C34.1479 175.501 34.0519 176.099 33.8599 176.632C33.6679 177.165 33.3959 177.624 33.0439 178.008C32.7026 178.392 32.2919 178.691 31.8119 178.904C31.3319 179.107 30.8093 179.208 30.2439 179.208C29.6786 179.208 29.1559 179.107 28.6759 178.904C28.1959 178.691 27.7799 178.392 27.4279 178.008C27.0866 177.624 26.8199 177.165 26.6279 176.632C26.4359 176.099 26.3399 175.501 26.3399 174.84C26.3399 174.189 26.4359 173.597 26.6279 173.064C26.8199 172.52 27.0866 172.056 27.4279 171.672C27.7799 171.288 28.1959 170.995 28.6759 170.792C29.1559 170.579 29.6786 170.472 30.2439 170.472C30.8093 170.472 31.3319 170.579 31.8119 170.792C32.2919 170.995 32.7026 171.288 33.0439 171.672C33.3959 172.056 33.6679 172.52 33.8599 173.064C34.0519 173.597 34.1479 174.189 34.1479 174.84ZM32.5959 174.84C32.5959 173.901 32.3826 173.16 31.9559 172.616C31.5399 172.061 30.9693 171.784 30.2439 171.784C29.5186 171.784 28.9426 172.061 28.5159 172.616C28.0999 173.16 27.8919 173.901 27.8919 174.84C27.8919 175.779 28.0999 176.525 28.5159 177.08C28.9426 177.624 29.5186 177.896 30.2439 177.896C30.9693 177.896 31.5399 177.624 31.9559 177.08C32.3826 176.525 32.5959 175.779 32.5959 174.84ZM37.6334 170.68H40.7854V171.928H37.6334V175.768C37.6334 176.184 37.6654 176.531 37.7294 176.808C37.7934 177.075 37.8894 177.288 38.0174 177.448C38.1454 177.597 38.3054 177.704 38.4974 177.768C38.6894 177.832 38.9134 177.864 39.1694 177.864C39.6174 177.864 39.9748 177.816 40.2414 177.72C40.5188 177.613 40.7108 177.539 40.8174 177.496L41.1054 178.728C40.9561 178.803 40.6948 178.893 40.3214 179C39.9481 179.117 39.5214 179.176 39.0414 179.176C38.4761 179.176 38.0068 179.107 37.6334 178.968C37.2708 178.819 36.9774 178.6 36.7534 178.312C36.5294 178.024 36.3694 177.672 36.2734 177.256C36.1881 176.829 36.1454 176.339 36.1454 175.784V168.36L37.6334 168.104V170.68ZM44.6149 177.928C45.2229 177.928 45.6709 177.848 45.9589 177.688C46.2576 177.528 46.4069 177.272 46.4069 176.92C46.4069 176.557 46.2629 176.269 45.9749 176.056C45.6869 175.843 45.2123 175.603 44.5509 175.336C44.2309 175.208 43.9216 175.08 43.6229 174.952C43.3349 174.813 43.0843 174.653 42.8709 174.472C42.6576 174.291 42.4869 174.072 42.3589 173.816C42.2309 173.56 42.1669 173.245 42.1669 172.872C42.1669 172.136 42.4389 171.555 42.9829 171.128C43.5269 170.691 44.2683 170.472 45.2069 170.472C45.4416 170.472 45.6763 170.488 45.9109 170.52C46.1456 170.541 46.3643 170.573 46.5669 170.616C46.7696 170.648 46.9456 170.685 47.0949 170.728C47.2549 170.771 47.3776 170.808 47.4629 170.84L47.1909 172.12C47.0309 172.035 46.7803 171.949 46.4389 171.864C46.0976 171.768 45.6869 171.72 45.2069 171.72C44.7909 171.72 44.4283 171.805 44.1189 171.976C43.8096 172.136 43.6549 172.392 43.6549 172.744C43.6549 172.925 43.6869 173.085 43.7509 173.224C43.8256 173.363 43.9323 173.491 44.0709 173.608C44.2203 173.715 44.4016 173.816 44.6149 173.912C44.8283 174.008 45.0843 174.109 45.3829 174.216C45.7776 174.365 46.1296 174.515 46.4389 174.664C46.7483 174.803 47.0096 174.968 47.2229 175.16C47.4469 175.352 47.6176 175.587 47.7349 175.864C47.8523 176.131 47.9109 176.461 47.9109 176.856C47.9109 177.624 47.6229 178.205 47.0469 178.6C46.4816 178.995 45.6709 179.192 44.6149 179.192C43.8789 179.192 43.3029 179.128 42.8869 179C42.4709 178.883 42.1883 178.792 42.0389 178.728L42.3109 177.448C42.4816 177.512 42.7536 177.608 43.1269 177.736C43.5003 177.864 43.9963 177.928 44.6149 177.928ZM51.5796 178.136C51.5796 178.424 51.4836 178.675 51.2916 178.888C51.0996 179.101 50.8382 179.208 50.5076 179.208C50.1769 179.208 49.9156 179.101 49.7236 178.888C49.5316 178.675 49.4356 178.424 49.4356 178.136C49.4356 177.848 49.5316 177.597 49.7236 177.384C49.9156 177.171 50.1769 177.064 50.5076 177.064C50.8382 177.064 51.0996 177.171 51.2916 177.384C51.4836 177.597 51.5796 177.848 51.5796 178.136ZM51.5796 171.752C51.5796 172.04 51.4836 172.291 51.2916 172.504C51.0996 172.717 50.8382 172.824 50.5076 172.824C50.1769 172.824 49.9156 172.717 49.7236 172.504C49.5316 172.291 49.4356 172.04 49.4356 171.752C49.4356 171.464 49.5316 171.213 49.7236 171C49.9156 170.787 50.1769 170.68 50.5076 170.68C50.8382 170.68 51.0996 170.787 51.2916 171C51.4836 171.213 51.5796 171.464 51.5796 171.752ZM63.6522 170.744C63.6522 171.128 63.5722 171.501 63.4122 171.864C63.2628 172.216 63.0602 172.568 62.8042 172.92C62.5482 173.261 62.2602 173.603 61.9402 173.944C61.6202 174.275 61.3002 174.6 60.9802 174.92C60.7988 175.101 60.5855 175.315 60.3402 175.56C60.1055 175.805 59.8815 176.061 59.6682 176.328C59.4548 176.595 59.2735 176.851 59.1242 177.096C58.9855 177.341 58.9162 177.555 58.9162 177.736H64.0202V179H57.3002C57.2895 178.936 57.2842 178.872 57.2842 178.808C57.2842 178.744 57.2842 178.685 57.2842 178.632C57.2842 178.131 57.3642 177.667 57.5242 177.24C57.6948 176.803 57.9135 176.392 58.1802 176.008C58.4468 175.624 58.7455 175.261 59.0762 174.92C59.4068 174.579 59.7322 174.248 60.0522 173.928C60.3188 173.672 60.5695 173.421 60.8042 173.176C61.0495 172.92 61.2628 172.669 61.4442 172.424C61.6362 172.168 61.7855 171.907 61.8922 171.64C62.0095 171.373 62.0682 171.091 62.0682 170.792C62.0682 170.472 62.0148 170.2 61.9082 169.976C61.8122 169.752 61.6788 169.565 61.5082 169.416C61.3375 169.267 61.1348 169.16 60.9002 169.096C60.6762 169.021 60.4362 168.984 60.1802 168.984C59.8708 168.984 59.5882 169.027 59.3322 169.112C59.0762 169.197 58.8468 169.299 58.6442 169.416C58.4415 169.523 58.2708 169.64 58.1322 169.768C57.9935 169.885 57.8868 169.976 57.8122 170.04L57.0762 168.984C57.1722 168.877 57.3162 168.749 57.5082 168.6C57.7002 168.44 57.9295 168.291 58.1962 168.152C58.4628 168.013 58.7615 167.896 59.0922 167.8C59.4228 167.704 59.7802 167.656 60.1642 167.656C61.3268 167.656 62.1962 167.928 62.7722 168.472C63.3588 169.005 63.6522 169.763 63.6522 170.744ZM66.0114 173.448C66.0114 171.592 66.3368 170.163 66.9874 169.16C67.6488 168.157 68.5608 167.656 69.7234 167.656C70.8861 167.656 71.7928 168.157 72.4434 169.16C73.1048 170.163 73.4354 171.592 73.4354 173.448C73.4354 175.304 73.1048 176.733 72.4434 177.736C71.7928 178.739 70.8861 179.24 69.7234 179.24C68.5608 179.24 67.6488 178.739 66.9874 177.736C66.3368 176.733 66.0114 175.304 66.0114 173.448ZM71.8674 173.448C71.8674 172.84 71.8301 172.264 71.7554 171.72C71.6914 171.176 71.5741 170.701 71.4034 170.296C71.2434 169.891 71.0248 169.571 70.7474 169.336C70.4701 169.091 70.1288 168.968 69.7234 168.968C69.3181 168.968 68.9768 169.091 68.6994 169.336C68.4221 169.571 68.1981 169.891 68.0274 170.296C67.8674 170.701 67.7501 171.176 67.6754 171.72C67.6114 172.264 67.5794 172.84 67.5794 173.448C67.5794 174.056 67.6114 174.632 67.6754 175.176C67.7501 175.72 67.8674 176.195 68.0274 176.6C68.1981 177.005 68.4221 177.331 68.6994 177.576C68.9768 177.811 69.3181 177.928 69.7234 177.928C70.1288 177.928 70.4701 177.811 70.7474 177.576C71.0248 177.331 71.2434 177.005 71.4034 176.6C71.5741 176.195 71.6914 175.72 71.7554 175.176C71.8301 174.632 71.8674 174.056 71.8674 173.448ZM78.3618 173.512H82.3138V174.904H78.3618V173.512ZM87.0702 175.16C87.2728 174.691 87.5502 174.147 87.9022 173.528C88.2542 172.899 88.6488 172.253 89.0862 171.592C89.5342 170.931 90.0088 170.28 90.5102 169.64C91.0222 169 91.5342 168.424 92.0462 167.912H93.4702V174.952H94.7822V176.168H93.4702V179H92.0302V176.168H87.0702V175.16ZM92.0302 169.672C91.7102 170.013 91.3848 170.397 91.0542 170.824C90.7342 171.24 90.4195 171.677 90.1102 172.136C89.8008 172.595 89.5075 173.064 89.2302 173.544C88.9635 174.024 88.7235 174.493 88.5102 174.952H92.0302V169.672ZM103.477 172.344C103.477 174.541 102.928 176.205 101.829 177.336C100.741 178.456 99.1201 179.021 96.9654 179.032L96.9174 177.784C97.5894 177.784 98.1921 177.72 98.7254 177.592C99.2694 177.464 99.7441 177.261 100.149 176.984C100.555 176.696 100.891 176.328 101.157 175.88C101.435 175.432 101.637 174.883 101.765 174.232C101.488 174.36 101.173 174.467 100.821 174.552C100.469 174.627 100.107 174.664 99.7334 174.664C99.1041 174.664 98.5708 174.573 98.1334 174.392C97.6961 174.2 97.3388 173.949 97.0614 173.64C96.7841 173.32 96.5814 172.957 96.4534 172.552C96.3361 172.136 96.2774 171.704 96.2774 171.256C96.2774 170.861 96.3468 170.451 96.4854 170.024C96.6241 169.597 96.8321 169.208 97.1094 168.856C97.3974 168.504 97.7601 168.216 98.1974 167.992C98.6348 167.768 99.1521 167.656 99.7494 167.656C100.357 167.656 100.891 167.763 101.349 167.976C101.819 168.189 102.208 168.499 102.517 168.904C102.837 169.309 103.077 169.805 103.237 170.392C103.397 170.968 103.477 171.619 103.477 172.344ZM99.8934 173.448C100.267 173.448 100.619 173.416 100.949 173.352C101.28 173.277 101.6 173.171 101.909 173.032C101.92 172.915 101.925 172.803 101.925 172.696C101.925 172.579 101.925 172.461 101.925 172.344C101.925 171.885 101.893 171.448 101.829 171.032C101.765 170.605 101.648 170.237 101.477 169.928C101.317 169.608 101.099 169.357 100.821 169.176C100.544 168.984 100.192 168.888 99.7654 168.888C99.4134 168.888 99.1148 168.963 98.8694 169.112C98.6241 169.261 98.4214 169.453 98.2614 169.688C98.1014 169.912 97.9841 170.163 97.9094 170.44C97.8454 170.707 97.8134 170.968 97.8134 171.224C97.8134 171.949 97.9841 172.504 98.3254 172.888C98.6774 173.261 99.2001 173.448 99.8934 173.448ZM112.509 172.344C112.509 174.541 111.959 176.205 110.861 177.336C109.773 178.456 108.151 179.021 105.997 179.032L105.949 177.784C106.621 177.784 107.223 177.72 107.757 177.592C108.301 177.464 108.775 177.261 109.181 176.984C109.586 176.696 109.922 176.328 110.189 175.88C110.466 175.432 110.669 174.883 110.797 174.232C110.519 174.36 110.205 174.467 109.853 174.552C109.501 174.627 109.138 174.664 108.765 174.664C108.135 174.664 107.602 174.573 107.165 174.392C106.727 174.2 106.37 173.949 106.093 173.64C105.815 173.32 105.613 172.957 105.485 172.552C105.367 172.136 105.309 171.704 105.309 171.256C105.309 170.861 105.378 170.451 105.517 170.024C105.655 169.597 105.863 169.208 106.141 168.856C106.429 168.504 106.791 168.216 107.229 167.992C107.666 167.768 108.183 167.656 108.781 167.656C109.389 167.656 109.922 167.763 110.381 167.976C110.85 168.189 111.239 168.499 111.549 168.904C111.869 169.309 112.109 169.805 112.269 170.392C112.429 170.968 112.509 171.619 112.509 172.344ZM108.925 173.448C109.298 173.448 109.65 173.416 109.981 173.352C110.311 173.277 110.631 173.171 110.941 173.032C110.951 172.915 110.957 172.803 110.957 172.696C110.957 172.579 110.957 172.461 110.957 172.344C110.957 171.885 110.925 171.448 110.861 171.032C110.797 170.605 110.679 170.237 110.509 169.928C110.349 169.608 110.13 169.357 109.853 169.176C109.575 168.984 109.223 168.888 108.797 168.888C108.445 168.888 108.146 168.963 107.901 169.112C107.655 169.261 107.453 169.453 107.293 169.688C107.133 169.912 107.015 170.163 106.941 170.44C106.877 170.707 106.845 170.968 106.845 171.224C106.845 171.949 107.015 172.504 107.357 172.888C107.709 173.261 108.231 173.448 108.925 173.448ZM116.564 178.136C116.564 178.424 116.468 178.675 116.276 178.888C116.084 179.101 115.823 179.208 115.492 179.208C115.161 179.208 114.9 179.101 114.708 178.888C114.516 178.675 114.42 178.424 114.42 178.136C114.42 177.848 114.516 177.597 114.708 177.384C114.9 177.171 115.161 177.064 115.492 177.064C115.823 177.064 116.084 177.171 116.276 177.384C116.468 177.597 116.564 177.848 116.564 178.136ZM125.477 172.344C125.477 174.541 124.928 176.205 123.829 177.336C122.741 178.456 121.12 179.021 118.965 179.032L118.917 177.784C119.589 177.784 120.192 177.72 120.725 177.592C121.269 177.464 121.744 177.261 122.149 176.984C122.555 176.696 122.891 176.328 123.157 175.88C123.435 175.432 123.637 174.883 123.765 174.232C123.488 174.36 123.173 174.467 122.821 174.552C122.469 174.627 122.107 174.664 121.733 174.664C121.104 174.664 120.571 174.573 120.133 174.392C119.696 174.2 119.339 173.949 119.061 173.64C118.784 173.32 118.581 172.957 118.453 172.552C118.336 172.136 118.277 171.704 118.277 171.256C118.277 170.861 118.347 170.451 118.485 170.024C118.624 169.597 118.832 169.208 119.109 168.856C119.397 168.504 119.76 168.216 120.197 167.992C120.635 167.768 121.152 167.656 121.749 167.656C122.357 167.656 122.891 167.763 123.349 167.976C123.819 168.189 124.208 168.499 124.517 168.904C124.837 169.309 125.077 169.805 125.237 170.392C125.397 170.968 125.477 171.619 125.477 172.344ZM121.893 173.448C122.267 173.448 122.619 173.416 122.949 173.352C123.28 173.277 123.6 173.171 123.909 173.032C123.92 172.915 123.925 172.803 123.925 172.696C123.925 172.579 123.925 172.461 123.925 172.344C123.925 171.885 123.893 171.448 123.829 171.032C123.765 170.605 123.648 170.237 123.477 169.928C123.317 169.608 123.099 169.357 122.821 169.176C122.544 168.984 122.192 168.888 121.765 168.888C121.413 168.888 121.115 168.963 120.869 169.112C120.624 169.261 120.421 169.453 120.261 169.688C120.101 169.912 119.984 170.163 119.909 170.44C119.845 170.707 119.813 170.968 119.813 171.224C119.813 171.949 119.984 172.504 120.325 172.888C120.677 173.261 121.2 173.448 121.893 173.448ZM134.509 172.344C134.509 174.541 133.959 176.205 132.861 177.336C131.773 178.456 130.151 179.021 127.997 179.032L127.949 177.784C128.621 177.784 129.223 177.72 129.757 177.592C130.301 177.464 130.775 177.261 131.181 176.984C131.586 176.696 131.922 176.328 132.189 175.88C132.466 175.432 132.669 174.883 132.797 174.232C132.519 174.36 132.205 174.467 131.853 174.552C131.501 174.627 131.138 174.664 130.765 174.664C130.135 174.664 129.602 174.573 129.165 174.392C128.727 174.2 128.37 173.949 128.093 173.64C127.815 173.32 127.613 172.957 127.485 172.552C127.367 172.136 127.309 171.704 127.309 171.256C127.309 170.861 127.378 170.451 127.517 170.024C127.655 169.597 127.863 169.208 128.141 168.856C128.429 168.504 128.791 168.216 129.229 167.992C129.666 167.768 130.183 167.656 130.781 167.656C131.389 167.656 131.922 167.763 132.381 167.976C132.85 168.189 133.239 168.499 133.549 168.904C133.869 169.309 134.109 169.805 134.269 170.392C134.429 170.968 134.509 171.619 134.509 172.344ZM130.925 173.448C131.298 173.448 131.65 173.416 131.981 173.352C132.311 173.277 132.631 173.171 132.941 173.032C132.951 172.915 132.957 172.803 132.957 172.696C132.957 172.579 132.957 172.461 132.957 172.344C132.957 171.885 132.925 171.448 132.861 171.032C132.797 170.605 132.679 170.237 132.509 169.928C132.349 169.608 132.13 169.357 131.853 169.176C131.575 168.984 131.223 168.888 130.797 168.888C130.445 168.888 130.146 168.963 129.901 169.112C129.655 169.261 129.453 169.453 129.293 169.688C129.133 169.912 129.015 170.163 128.941 170.44C128.877 170.707 128.845 170.968 128.845 171.224C128.845 171.949 129.015 172.504 129.357 172.888C129.709 173.261 130.231 173.448 130.925 173.448ZM29.9377 185.8C31.495 185.8 32.6897 186.099 33.5217 186.696C34.3643 187.283 34.7857 188.163 34.7857 189.336C34.7857 189.976 34.6683 190.525 34.4337 190.984C34.2097 191.432 33.879 191.8 33.4417 192.088C33.015 192.365 32.4923 192.568 31.8737 192.696C31.255 192.824 30.5563 192.888 29.7777 192.888H28.5457V197H26.9937V186.072C27.431 185.965 27.9163 185.896 28.4497 185.864C28.9937 185.821 29.4897 185.8 29.9377 185.8ZM30.0657 187.16C29.4043 187.16 28.8977 187.176 28.5457 187.208V191.56H29.7137C30.247 191.56 30.727 191.528 31.1537 191.464C31.5803 191.389 31.9377 191.272 32.2257 191.112C32.5243 190.941 32.7537 190.712 32.9137 190.424C33.0737 190.136 33.1537 189.768 33.1537 189.32C33.1537 188.893 33.0683 188.541 32.8977 188.264C32.7377 187.987 32.5137 187.768 32.2257 187.608C31.9483 187.437 31.623 187.32 31.2497 187.256C30.8763 187.192 30.4817 187.16 30.0657 187.16ZM43.6323 192.84C43.6323 193.501 43.5363 194.099 43.3443 194.632C43.1523 195.165 42.8803 195.624 42.5283 196.008C42.187 196.392 41.7763 196.691 41.2963 196.904C40.8163 197.107 40.2936 197.208 39.7283 197.208C39.163 197.208 38.6403 197.107 38.1603 196.904C37.6803 196.691 37.2643 196.392 36.9123 196.008C36.571 195.624 36.3043 195.165 36.1123 194.632C35.9203 194.099 35.8243 193.501 35.8243 192.84C35.8243 192.189 35.9203 191.597 36.1123 191.064C36.3043 190.52 36.571 190.056 36.9123 189.672C37.2643 189.288 37.6803 188.995 38.1603 188.792C38.6403 188.579 39.163 188.472 39.7283 188.472C40.2936 188.472 40.8163 188.579 41.2963 188.792C41.7763 188.995 42.187 189.288 42.5283 189.672C42.8803 190.056 43.1523 190.52 43.3443 191.064C43.5363 191.597 43.6323 192.189 43.6323 192.84ZM42.0803 192.84C42.0803 191.901 41.867 191.16 41.4403 190.616C41.0243 190.061 40.4536 189.784 39.7283 189.784C39.003 189.784 38.427 190.061 38.0003 190.616C37.5843 191.16 37.3763 191.901 37.3763 192.84C37.3763 193.779 37.5843 194.525 38.0003 195.08C38.427 195.624 39.003 195.896 39.7283 195.896C40.4536 195.896 41.0243 195.624 41.4403 195.08C41.867 194.525 42.0803 193.779 42.0803 192.84ZM47.2138 197H45.7258V188.68H47.2138V197ZM46.4618 187.176C46.1951 187.176 45.9658 187.091 45.7738 186.92C45.5925 186.739 45.5018 186.499 45.5018 186.2C45.5018 185.901 45.5925 185.667 45.7738 185.496C45.9658 185.315 46.1951 185.224 46.4618 185.224C46.7285 185.224 46.9525 185.315 47.1338 185.496C47.3258 185.667 47.4218 185.901 47.4218 186.2C47.4218 186.499 47.3258 186.739 47.1338 186.92C46.9525 187.091 46.7285 187.176 46.4618 187.176ZM49.7727 188.92C50.114 188.835 50.5673 188.744 51.1327 188.648C51.698 188.552 52.3487 188.504 53.0847 188.504C53.746 188.504 54.2953 188.6 54.7327 188.792C55.17 188.973 55.5167 189.235 55.7727 189.576C56.0393 189.907 56.226 190.307 56.3327 190.776C56.4393 191.245 56.4927 191.763 56.4927 192.328V197H55.0047V192.648C55.0047 192.136 54.9673 191.699 54.8927 191.336C54.8287 190.973 54.7167 190.68 54.5567 190.456C54.3967 190.232 54.1833 190.072 53.9167 189.976C53.65 189.869 53.3193 189.816 52.9247 189.816C52.7647 189.816 52.5993 189.821 52.4287 189.832C52.258 189.843 52.0927 189.859 51.9327 189.88C51.7833 189.891 51.6447 189.907 51.5167 189.928C51.3993 189.949 51.314 189.965 51.2607 189.976V197H49.7727V188.92ZM60.3522 188.68H63.5042V189.928H60.3522V193.768C60.3522 194.184 60.3842 194.531 60.4482 194.808C60.5122 195.075 60.6082 195.288 60.7362 195.448C60.8642 195.597 61.0242 195.704 61.2162 195.768C61.4082 195.832 61.6322 195.864 61.8882 195.864C62.3362 195.864 62.6935 195.816 62.9602 195.72C63.2375 195.613 63.4295 195.539 63.5362 195.496L63.8242 196.728C63.6748 196.803 63.4135 196.893 63.0402 197C62.6668 197.117 62.2402 197.176 61.7602 197.176C61.1948 197.176 60.7255 197.107 60.3522 196.968C59.9895 196.819 59.6962 196.6 59.4722 196.312C59.2482 196.024 59.0882 195.672 58.9922 195.256C58.9068 194.829 58.8642 194.339 58.8642 193.784V186.36L60.3522 186.104V188.68ZM67.3337 195.928C67.9417 195.928 68.3897 195.848 68.6777 195.688C68.9763 195.528 69.1257 195.272 69.1257 194.92C69.1257 194.557 68.9817 194.269 68.6937 194.056C68.4057 193.843 67.931 193.603 67.2697 193.336C66.9497 193.208 66.6403 193.08 66.3417 192.952C66.0537 192.813 65.803 192.653 65.5897 192.472C65.3763 192.291 65.2057 192.072 65.0777 191.816C64.9497 191.56 64.8857 191.245 64.8857 190.872C64.8857 190.136 65.1577 189.555 65.7017 189.128C66.2457 188.691 66.987 188.472 67.9257 188.472C68.1603 188.472 68.395 188.488 68.6297 188.52C68.8643 188.541 69.083 188.573 69.2857 188.616C69.4883 188.648 69.6643 188.685 69.8137 188.728C69.9737 188.771 70.0963 188.808 70.1817 188.84L69.9097 190.12C69.7497 190.035 69.499 189.949 69.1577 189.864C68.8163 189.768 68.4057 189.72 67.9257 189.72C67.5097 189.72 67.147 189.805 66.8377 189.976C66.5283 190.136 66.3737 190.392 66.3737 190.744C66.3737 190.925 66.4057 191.085 66.4697 191.224C66.5443 191.363 66.651 191.491 66.7897 191.608C66.939 191.715 67.1203 191.816 67.3337 191.912C67.547 192.008 67.803 192.109 68.1017 192.216C68.4963 192.365 68.8483 192.515 69.1577 192.664C69.467 192.803 69.7283 192.968 69.9417 193.16C70.1657 193.352 70.3363 193.587 70.4537 193.864C70.571 194.131 70.6297 194.461 70.6297 194.856C70.6297 195.624 70.3417 196.205 69.7657 196.6C69.2003 196.995 68.3897 197.192 67.3337 197.192C66.5977 197.192 66.0217 197.128 65.6057 197C65.1897 196.883 64.907 196.792 64.7577 196.728L65.0297 195.448C65.2003 195.512 65.4723 195.608 65.8457 195.736C66.219 195.864 66.715 195.928 67.3337 195.928ZM72.3943 199.96H70.8743L76.2983 184.472H77.7863L72.3943 199.96ZM85.4469 195.656V197H78.7749V185.912H80.3269V195.656H85.4469ZM94.1323 192.84C94.1323 193.501 94.0363 194.099 93.8443 194.632C93.6523 195.165 93.3803 195.624 93.0283 196.008C92.687 196.392 92.2763 196.691 91.7963 196.904C91.3163 197.107 90.7936 197.208 90.2283 197.208C89.663 197.208 89.1403 197.107 88.6603 196.904C88.1803 196.691 87.7643 196.392 87.4123 196.008C87.071 195.624 86.8043 195.165 86.6123 194.632C86.4203 194.099 86.3243 193.501 86.3243 192.84C86.3243 192.189 86.4203 191.597 86.6123 191.064C86.8043 190.52 87.071 190.056 87.4123 189.672C87.7643 189.288 88.1803 188.995 88.6603 188.792C89.1403 188.579 89.663 188.472 90.2283 188.472C90.7936 188.472 91.3163 188.579 91.7963 188.792C92.2763 188.995 92.687 189.288 93.0283 189.672C93.3803 190.056 93.6523 190.52 93.8443 191.064C94.0363 191.597 94.1323 192.189 94.1323 192.84ZM92.5803 192.84C92.5803 191.901 92.367 191.16 91.9403 190.616C91.5243 190.061 90.9536 189.784 90.2283 189.784C89.503 189.784 88.927 190.061 88.5003 190.616C88.0843 191.16 87.8763 191.901 87.8763 192.84C87.8763 193.779 88.0843 194.525 88.5003 195.08C88.927 195.624 89.503 195.896 90.2283 195.896C90.9536 195.896 91.5243 195.624 91.9403 195.08C92.367 194.525 92.5803 193.779 92.5803 192.84ZM97.6178 188.68H100.77V189.928H97.6178V193.768C97.6178 194.184 97.6498 194.531 97.7138 194.808C97.7778 195.075 97.8738 195.288 98.0018 195.448C98.1298 195.597 98.2898 195.704 98.4818 195.768C98.6738 195.832 98.8978 195.864 99.1538 195.864C99.6018 195.864 99.9591 195.816 100.226 195.72C100.503 195.613 100.695 195.539 100.802 195.496L101.09 196.728C100.94 196.803 100.679 196.893 100.306 197C99.9325 197.117 99.5058 197.176 99.0258 197.176C98.4605 197.176 97.9911 197.107 97.6178 196.968C97.2551 196.819 96.9618 196.6 96.7378 196.312C96.5138 196.024 96.3538 195.672 96.2578 195.256C96.1725 194.829 96.1298 194.339 96.1298 193.784V186.36L97.6178 186.104V188.68ZM104.423 196.136C104.423 196.424 104.327 196.675 104.135 196.888C103.943 197.101 103.682 197.208 103.351 197.208C103.021 197.208 102.759 197.101 102.567 196.888C102.375 196.675 102.279 196.424 102.279 196.136C102.279 195.848 102.375 195.597 102.567 195.384C102.759 195.171 103.021 195.064 103.351 195.064C103.682 195.064 103.943 195.171 104.135 195.384C104.327 195.597 104.423 195.848 104.423 196.136ZM104.423 189.752C104.423 190.04 104.327 190.291 104.135 190.504C103.943 190.717 103.682 190.824 103.351 190.824C103.021 190.824 102.759 190.717 102.567 190.504C102.375 190.291 102.279 190.04 102.279 189.752C102.279 189.464 102.375 189.213 102.567 189C102.759 188.787 103.021 188.68 103.351 188.68C103.682 188.68 103.943 188.787 104.135 189C104.327 189.213 104.423 189.464 104.423 189.752ZM109.824 191.448C109.824 189.592 110.149 188.163 110.8 187.16C111.461 186.157 112.373 185.656 113.536 185.656C114.699 185.656 115.605 186.157 116.256 187.16C116.917 188.163 117.248 189.592 117.248 191.448C117.248 193.304 116.917 194.733 116.256 195.736C115.605 196.739 114.699 197.24 113.536 197.24C112.373 197.24 111.461 196.739 110.8 195.736C110.149 194.733 109.824 193.304 109.824 191.448ZM115.68 191.448C115.68 190.84 115.643 190.264 115.568 189.72C115.504 189.176 115.387 188.701 115.216 188.296C115.056 187.891 114.837 187.571 114.56 187.336C114.283 187.091 113.941 186.968 113.536 186.968C113.131 186.968 112.789 187.091 112.512 187.336C112.235 187.571 112.011 187.891 111.84 188.296C111.68 188.701 111.563 189.176 111.488 189.72C111.424 190.264 111.392 190.84 111.392 191.448C111.392 192.056 111.424 192.632 111.488 193.176C111.563 193.72 111.68 194.195 111.84 194.6C112.011 195.005 112.235 195.331 112.512 195.576C112.789 195.811 113.131 195.928 113.536 195.928C113.941 195.928 114.283 195.811 114.56 195.576C114.837 195.331 115.056 195.005 115.216 194.6C115.387 194.195 115.504 193.72 115.568 193.176C115.643 192.632 115.68 192.056 115.68 191.448ZM121.095 196.136C121.095 196.424 120.999 196.675 120.807 196.888C120.615 197.101 120.354 197.208 120.023 197.208C119.693 197.208 119.431 197.101 119.239 196.888C119.047 196.675 118.951 196.424 118.951 196.136C118.951 195.848 119.047 195.597 119.239 195.384C119.431 195.171 119.693 195.064 120.023 195.064C120.354 195.064 120.615 195.171 120.807 195.384C120.999 195.597 121.095 195.848 121.095 196.136ZM125.177 190.184C126.787 190.248 127.966 190.6 128.713 191.24C129.47 191.88 129.849 192.749 129.849 193.848C129.849 194.339 129.763 194.792 129.593 195.208C129.433 195.624 129.182 195.981 128.841 196.28C128.51 196.579 128.089 196.813 127.577 196.984C127.065 197.155 126.457 197.24 125.753 197.24C125.475 197.24 125.193 197.219 124.905 197.176C124.617 197.133 124.35 197.08 124.105 197.016C123.859 196.952 123.641 196.888 123.449 196.824C123.257 196.76 123.118 196.707 123.033 196.664L123.321 195.368C123.502 195.453 123.795 195.565 124.201 195.704C124.617 195.843 125.123 195.912 125.721 195.912C126.201 195.912 126.601 195.859 126.921 195.752C127.251 195.645 127.518 195.501 127.721 195.32C127.923 195.139 128.067 194.931 128.153 194.696C128.249 194.451 128.297 194.195 128.297 193.928C128.297 193.523 128.227 193.165 128.089 192.856C127.95 192.536 127.705 192.269 127.353 192.056C127.001 191.843 126.531 191.683 125.945 191.576C125.358 191.459 124.617 191.4 123.721 191.4C123.785 190.877 123.833 190.387 123.865 189.928C123.907 189.469 123.945 189.021 123.977 188.584C124.009 188.147 124.035 187.715 124.057 187.288C124.078 186.851 124.099 186.392 124.121 185.912H129.465V187.176H125.417C125.406 187.336 125.39 187.555 125.369 187.832C125.347 188.099 125.326 188.381 125.305 188.68C125.283 188.968 125.262 189.251 125.241 189.528C125.219 189.805 125.198 190.024 125.177 190.184Z" fill="#333333"></path><path d="M62.0146 137.648C60.3026 137.648 58.9906 138.184 58.0786 139.256C57.1826 140.312 56.7346 141.784 56.7346 143.672C56.7346 144.568 56.8386 145.392 57.0466 146.144C57.2706 146.88 57.5906 147.512 58.0066 148.04C58.4386 148.568 58.9666 148.984 59.5906 149.288C60.2306 149.576 60.9746 149.72 61.8226 149.72C62.3506 149.72 62.8066 149.704 63.1906 149.672C63.5746 149.624 63.8786 149.568 64.1026 149.504V143.528H67.1266V151.52C66.7106 151.68 66.0066 151.856 65.0146 152.048C64.0226 152.24 62.8786 152.336 61.5826 152.336C60.3826 152.336 59.2866 152.144 58.2946 151.76C57.3026 151.376 56.4546 150.816 55.7506 150.08C55.0626 149.344 54.5266 148.44 54.1426 147.368C53.7586 146.296 53.5666 145.064 53.5666 143.672C53.5666 142.28 53.7746 141.048 54.1906 139.976C54.6226 138.904 55.2066 138 55.9426 137.264C56.6786 136.512 57.5426 135.944 58.5346 135.56C59.5266 135.176 60.5826 134.984 61.7026 134.984C62.4706 134.984 63.1506 135.04 63.7426 135.152C64.3506 135.248 64.8706 135.36 65.3026 135.488C65.7346 135.616 66.0866 135.752 66.3586 135.896C66.6466 136.04 66.8466 136.144 66.9586 136.208L66.0466 138.68C65.5666 138.392 64.9666 138.152 64.2466 137.96C63.5426 137.752 62.7986 137.648 62.0146 137.648ZM81.8294 145.712C81.8294 146.704 81.6854 147.608 81.3974 148.424C81.1094 149.24 80.7014 149.936 80.1734 150.512C79.6454 151.088 79.0054 151.536 78.2534 151.856C77.5174 152.176 76.7014 152.336 75.8054 152.336C74.9094 152.336 74.0934 152.176 73.3574 151.856C72.6214 151.536 71.9894 151.088 71.4614 150.512C70.9334 149.936 70.5174 149.24 70.2134 148.424C69.9254 147.608 69.7814 146.704 69.7814 145.712C69.7814 144.72 69.9254 143.824 70.2134 143.024C70.5174 142.208 70.9334 141.512 71.4614 140.936C72.0054 140.36 72.6454 139.92 73.3814 139.616C74.1174 139.296 74.9254 139.136 75.8054 139.136C76.6854 139.136 77.4934 139.296 78.2294 139.616C78.9814 139.92 79.6214 140.36 80.1494 140.936C80.6774 141.512 81.0854 142.208 81.3734 143.024C81.6774 143.824 81.8294 144.72 81.8294 145.712ZM78.8534 145.712C78.8534 144.464 78.5814 143.48 78.0374 142.76C77.5094 142.024 76.7654 141.656 75.8054 141.656C74.8454 141.656 74.0934 142.024 73.5494 142.76C73.0214 143.48 72.7574 144.464 72.7574 145.712C72.7574 146.976 73.0214 147.976 73.5494 148.712C74.0934 149.448 74.8454 149.816 75.8054 149.816C76.7654 149.816 77.5094 149.448 78.0374 148.712C78.5814 147.976 78.8534 146.976 78.8534 145.712ZM89.1891 152.24C88.3251 152.224 87.6051 152.128 87.0291 151.952C86.4691 151.776 86.0211 151.528 85.6851 151.208C85.3491 150.872 85.1091 150.464 84.9651 149.984C84.8371 149.488 84.7731 148.928 84.7731 148.304V133.856L87.6771 133.376V147.752C87.6771 148.104 87.7011 148.4 87.7491 148.64C87.8131 148.88 87.9171 149.088 88.0611 149.264C88.2051 149.424 88.3971 149.552 88.6371 149.648C88.8931 149.728 89.2131 149.792 89.5971 149.84L89.1891 152.24ZM94.2261 145.688C94.2261 146.968 94.5301 147.976 95.1381 148.712C95.7461 149.432 96.5861 149.792 97.6581 149.792C98.1221 149.792 98.5141 149.776 98.8341 149.744C99.1701 149.696 99.4421 149.648 99.6501 149.6V142.4C99.3941 142.224 99.0501 142.064 98.6181 141.92C98.2021 141.76 97.7541 141.68 97.2741 141.68C96.2181 141.68 95.4421 142.04 94.9461 142.76C94.4661 143.48 94.2261 144.456 94.2261 145.688ZM102.554 151.616C101.978 151.792 101.25 151.952 100.37 152.096C99.5061 152.24 98.5941 152.312 97.6341 152.312C96.6421 152.312 95.7541 152.16 94.9701 151.856C94.1861 151.552 93.5141 151.12 92.9541 150.56C92.4101 149.984 91.9861 149.296 91.6821 148.496C91.3941 147.68 91.2501 146.768 91.2501 145.76C91.2501 144.768 91.3701 143.872 91.6101 143.072C91.8661 142.256 92.2341 141.56 92.7141 140.984C93.1941 140.408 93.7781 139.968 94.4661 139.664C95.1541 139.344 95.9461 139.184 96.8421 139.184C97.4501 139.184 97.9861 139.256 98.4501 139.4C98.9141 139.544 99.3141 139.704 99.6501 139.88V133.856L102.554 133.376V151.616Z" fill="#333333"></path><circle cx="78.3208" cy="72" r="40" fill="#00C8FF"></circle><path d="M67.5928 60.1094C67.313 60.1094 67.0448 60.2205 66.847 60.4183C66.6492 60.6161 66.5381 60.8843 66.5381 61.164V88.9461C66.538 89.1318 66.5869 89.3142 66.6799 89.4749C66.7729 89.6356 66.9067 89.7689 67.0678 89.8613C67.2288 89.9537 67.4114 90.002 67.597 90.0013C67.7827 90.0005 67.9649 89.9507 68.1252 89.857L78.3181 83.8981L79.7027 72.6625L78.3181 60.1094H67.5928Z" fill="#FDBF00"></path><path d="M89.0463 60.1094H78.321V83.8981L88.5139 89.857C88.6741 89.9507 88.8562 90.0005 89.0419 90.0013C89.2275 90.0021 89.41 89.9539 89.571 89.8615C89.732 89.7692 89.8658 89.636 89.9589 89.4754C90.0519 89.3148 90.101 89.1325 90.101 88.9469V61.164C90.101 60.8843 89.9899 60.6161 89.7921 60.4183C89.5943 60.2205 89.3261 60.1094 89.0463 60.1094Z" fill="#FFD74A"></path><path d="M62.2549 54C61.9751 54 61.7069 54.1111 61.5091 54.3089C61.3113 54.5067 61.2002 54.775 61.2002 55.0547C61.2022 56.9539 61.9576 58.7747 63.3005 60.1176C64.6434 61.4605 66.4643 62.2159 68.3634 62.2179H78.3207L79.7054 58.3905L78.3207 54H62.2549Z" fill="#EDB200"></path><path d="M94.3867 54H78.3208V62.2179H88.2781C90.1773 62.2159 91.9981 61.4605 93.341 60.1176C94.6839 58.7747 95.4393 56.9539 95.4413 55.0547C95.4413 54.9162 95.414 54.779 95.361 54.6511C95.308 54.5231 95.2303 54.4068 95.1324 54.3089C95.0345 54.211 94.9182 54.1333 94.7903 54.0803C94.6623 54.0273 94.5252 54 94.3867 54V54Z" fill="#EDB200"></path><path d="M77.3693 66.44L76.1242 70.2674H72.096C71.8849 70.2675 71.6792 70.3345 71.5085 70.4586C71.3377 70.5828 71.2106 70.7578 71.1454 70.9586C71.0801 71.1594 71.0801 71.3757 71.1453 71.5765C71.2105 71.7773 71.3375 71.9523 71.5083 72.0765L74.7675 74.4444L73.5223 78.2718C73.4572 78.4726 73.4572 78.6889 73.5225 78.8897C73.5877 79.0905 73.7148 79.2655 73.8856 79.3897C74.0564 79.5138 74.2621 79.5807 74.4732 79.5808C74.6843 79.5809 74.8901 79.5142 75.061 79.3903L78.3202 77.0224L79.2006 72.7697L78.3202 65.7383C78.1091 65.7383 77.9035 65.8052 77.7327 65.9292C77.5619 66.0533 77.4347 66.2282 77.3693 66.4289V66.44Z" fill="#D8AA05"></path><path d="M85.4957 70.9607C85.4304 70.7599 85.3032 70.585 85.1324 70.461C84.9616 70.3369 84.7559 70.2701 84.5448 70.27H80.5167L79.2715 66.4426C79.2061 66.2419 79.0789 66.0669 78.9081 65.9429C78.7373 65.8188 78.5317 65.752 78.3206 65.752V77.0284L81.5798 79.3963C81.7528 79.5152 81.9577 79.5788 82.1676 79.5788C82.3774 79.5788 82.5823 79.5152 82.7553 79.3963C82.9264 79.2723 83.0537 79.0972 83.119 78.8962C83.1842 78.6952 83.184 78.4787 83.1184 78.2779L81.8733 74.4504L85.1325 72.0825C85.3041 71.9581 85.4317 71.7824 85.497 71.5808C85.5623 71.3792 85.5618 71.162 85.4957 70.9607Z" fill="#F0B70C"></path></svg>