<svg xmlns="http://www.w3.org/2000/svg" width="181" height="225" viewBox="0 0 181 225" fill="none"><path d="M0.320801 10.3906C0.320801 4.86778 4.79795 0.390625 10.3208 0.390625H170.701C176.224 0.390625 180.701 4.86778 180.701 10.3906V214.391C180.701 219.913 176.224 224.391 170.701 224.391H10.3208C4.79797 224.391 0.320801 219.913 0.320801 214.391V10.3906Z" fill="white"></path><path fill-rule="evenodd" clip-rule="evenodd" d="M170.701 0.890625H10.3208C5.0741 0.890625 0.820801 5.14392 0.820801 10.3906V214.391C0.820801 219.637 5.07411 223.891 10.3208 223.891H170.701C175.948 223.891 180.201 219.637 180.201 214.391V10.3906C180.201 5.14392 175.948 0.890625 170.701 0.890625ZM10.3208 0.390625C4.79795 0.390625 0.320801 4.86778 0.320801 10.3906V214.391C0.320801 219.913 4.79797 224.391 10.3208 224.391H170.701C176.224 224.391 180.701 219.913 180.701 214.391V10.3906C180.701 4.86778 176.224 0.390625 170.701 0.390625H10.3208Z" fill="#CCCCCC"></path><path d="M37.6527 178.047V179.391H30.9807V168.303H32.5327V178.047H37.6527ZM46.3381 175.231C46.3381 175.892 46.2421 176.489 46.0501 177.023C45.8581 177.556 45.5861 178.015 45.2341 178.399C44.8928 178.783 44.4821 179.081 44.0021 179.295C43.5221 179.497 42.9994 179.599 42.4341 179.599C41.8688 179.599 41.3461 179.497 40.8661 179.295C40.3861 179.081 39.9701 178.783 39.6181 178.399C39.2768 178.015 39.0101 177.556 38.8181 177.023C38.6261 176.489 38.5301 175.892 38.5301 175.231C38.5301 174.58 38.6261 173.988 38.8181 173.455C39.0101 172.911 39.2768 172.447 39.6181 172.063C39.9701 171.679 40.3861 171.385 40.8661 171.183C41.3461 170.969 41.8688 170.863 42.4341 170.863C42.9994 170.863 43.5221 170.969 44.0021 171.183C44.4821 171.385 44.8928 171.679 45.2341 172.063C45.5861 172.447 45.8581 172.911 46.0501 173.455C46.2421 173.988 46.3381 174.58 46.3381 175.231ZM44.7861 175.231C44.7861 174.292 44.5728 173.551 44.1461 173.007C43.7301 172.452 43.1594 172.175 42.4341 172.175C41.7088 172.175 41.1328 172.452 40.7061 173.007C40.2901 173.551 40.0821 174.292 40.0821 175.231C40.0821 176.169 40.2901 176.916 40.7061 177.471C41.1328 178.015 41.7088 178.287 42.4341 178.287C43.1594 178.287 43.7301 178.015 44.1461 177.471C44.5728 176.916 44.7861 176.169 44.7861 175.231ZM49.8236 171.071H52.9756V172.319H49.8236V176.159C49.8236 176.575 49.8556 176.921 49.9196 177.199C49.9836 177.465 50.0796 177.679 50.2076 177.839C50.3356 177.988 50.4956 178.095 50.6876 178.159C50.8796 178.223 51.1036 178.255 51.3596 178.255C51.8076 178.255 52.1649 178.207 52.4316 178.111C52.7089 178.004 52.9009 177.929 53.0076 177.887L53.2956 179.119C53.1463 179.193 52.8849 179.284 52.5116 179.391C52.1383 179.508 51.7116 179.567 51.2316 179.567C50.6663 179.567 50.1969 179.497 49.8236 179.359C49.4609 179.209 49.1676 178.991 48.9436 178.703C48.7196 178.415 48.5596 178.063 48.4636 177.647C48.3783 177.22 48.3356 176.729 48.3356 176.175V168.751L49.8236 168.495V171.071ZM56.8051 178.319C57.4131 178.319 57.8611 178.239 58.1491 178.079C58.4478 177.919 58.5971 177.663 58.5971 177.311C58.5971 176.948 58.4531 176.66 58.1651 176.447C57.8771 176.233 57.4024 175.993 56.7411 175.727C56.4211 175.599 56.1118 175.471 55.8131 175.343C55.5251 175.204 55.2744 175.044 55.0611 174.863C54.8478 174.681 54.6771 174.463 54.5491 174.207C54.4211 173.951 54.3571 173.636 54.3571 173.263C54.3571 172.527 54.6291 171.945 55.1731 171.519C55.7171 171.081 56.4584 170.863 57.3971 170.863C57.6318 170.863 57.8664 170.879 58.1011 170.911C58.3358 170.932 58.5544 170.964 58.7571 171.007C58.9598 171.039 59.1358 171.076 59.2851 171.119C59.4451 171.161 59.5678 171.199 59.6531 171.231L59.3811 172.511C59.2211 172.425 58.9704 172.34 58.6291 172.255C58.2878 172.159 57.8771 172.111 57.3971 172.111C56.9811 172.111 56.6184 172.196 56.3091 172.367C55.9998 172.527 55.8451 172.783 55.8451 173.135C55.8451 173.316 55.8771 173.476 55.9411 173.615C56.0158 173.753 56.1224 173.881 56.2611 173.999C56.4104 174.105 56.5918 174.207 56.8051 174.303C57.0184 174.399 57.2744 174.5 57.5731 174.607C57.9678 174.756 58.3198 174.905 58.6291 175.055C58.9384 175.193 59.1998 175.359 59.4131 175.551C59.6371 175.743 59.8078 175.977 59.9251 176.255C60.0424 176.521 60.1011 176.852 60.1011 177.247C60.1011 178.015 59.8131 178.596 59.2371 178.991C58.6718 179.385 57.8611 179.583 56.8051 179.583C56.0691 179.583 55.4931 179.519 55.0771 179.391C54.6611 179.273 54.3784 179.183 54.2291 179.119L54.5011 177.839C54.6718 177.903 54.9438 177.999 55.3171 178.127C55.6904 178.255 56.1864 178.319 56.8051 178.319ZM63.7697 178.527C63.7697 178.815 63.6737 179.065 63.4817 179.279C63.2897 179.492 63.0284 179.599 62.6977 179.599C62.3671 179.599 62.1057 179.492 61.9137 179.279C61.7217 179.065 61.6257 178.815 61.6257 178.527C61.6257 178.239 61.7217 177.988 61.9137 177.775C62.1057 177.561 62.3671 177.455 62.6977 177.455C63.0284 177.455 63.2897 177.561 63.4817 177.775C63.6737 177.988 63.7697 178.239 63.7697 178.527ZM63.7697 172.143C63.7697 172.431 63.6737 172.681 63.4817 172.895C63.2897 173.108 63.0284 173.215 62.6977 173.215C62.3671 173.215 62.1057 173.108 61.9137 172.895C61.7217 172.681 61.6257 172.431 61.6257 172.143C61.6257 171.855 61.7217 171.604 61.9137 171.391C62.1057 171.177 62.3671 171.071 62.6977 171.071C63.0284 171.071 63.2897 171.177 63.4817 171.391C63.6737 171.604 63.7697 171.855 63.7697 172.143ZM75.8424 171.135C75.8424 171.519 75.7624 171.892 75.6024 172.255C75.453 172.607 75.2504 172.959 74.9944 173.311C74.7384 173.652 74.4504 173.993 74.1304 174.335C73.8104 174.665 73.4904 174.991 73.1704 175.311C72.989 175.492 72.7757 175.705 72.5304 175.951C72.2957 176.196 72.0717 176.452 71.8584 176.719C71.645 176.985 71.4637 177.241 71.3144 177.487C71.1757 177.732 71.1064 177.945 71.1064 178.127H76.2104V179.391H69.4904C69.4797 179.327 69.4744 179.263 69.4744 179.199C69.4744 179.135 69.4744 179.076 69.4744 179.023C69.4744 178.521 69.5544 178.057 69.7144 177.631C69.885 177.193 70.1037 176.783 70.3704 176.399C70.637 176.015 70.9357 175.652 71.2664 175.311C71.597 174.969 71.9224 174.639 72.2424 174.319C72.509 174.063 72.7597 173.812 72.9944 173.567C73.2397 173.311 73.453 173.06 73.6344 172.815C73.8264 172.559 73.9757 172.297 74.0824 172.031C74.1997 171.764 74.2584 171.481 74.2584 171.183C74.2584 170.863 74.205 170.591 74.0984 170.367C74.0024 170.143 73.869 169.956 73.6984 169.807C73.5277 169.657 73.325 169.551 73.0904 169.487C72.8664 169.412 72.6264 169.375 72.3704 169.375C72.061 169.375 71.7784 169.417 71.5224 169.503C71.2664 169.588 71.037 169.689 70.8344 169.807C70.6317 169.913 70.461 170.031 70.3224 170.159C70.1837 170.276 70.077 170.367 70.0024 170.431L69.2664 169.375C69.3624 169.268 69.5064 169.14 69.6984 168.991C69.8904 168.831 70.1197 168.681 70.3864 168.543C70.653 168.404 70.9517 168.287 71.2824 168.191C71.613 168.095 71.9704 168.047 72.3544 168.047C73.517 168.047 74.3864 168.319 74.9624 168.863C75.549 169.396 75.8424 170.153 75.8424 171.135ZM78.2016 173.839C78.2016 171.983 78.5269 170.553 79.1776 169.551C79.8389 168.548 80.7509 168.047 81.9136 168.047C83.0763 168.047 83.9829 168.548 84.6336 169.551C85.2949 170.553 85.6256 171.983 85.6256 173.839C85.6256 175.695 85.2949 177.124 84.6336 178.127C83.9829 179.129 83.0763 179.631 81.9136 179.631C80.7509 179.631 79.8389 179.129 79.1776 178.127C78.5269 177.124 78.2016 175.695 78.2016 173.839ZM84.0576 173.839C84.0576 173.231 84.0203 172.655 83.9456 172.111C83.8816 171.567 83.7643 171.092 83.5936 170.687C83.4336 170.281 83.2149 169.961 82.9376 169.727C82.6603 169.481 82.3189 169.359 81.9136 169.359C81.5083 169.359 81.1669 169.481 80.8896 169.727C80.6123 169.961 80.3883 170.281 80.2176 170.687C80.0576 171.092 79.9403 171.567 79.8656 172.111C79.8016 172.655 79.7696 173.231 79.7696 173.839C79.7696 174.447 79.8016 175.023 79.8656 175.567C79.9403 176.111 80.0576 176.585 80.2176 176.991C80.3883 177.396 80.6123 177.721 80.8896 177.967C81.1669 178.201 81.5083 178.319 81.9136 178.319C82.3189 178.319 82.6603 178.201 82.9376 177.967C83.2149 177.721 83.4336 177.396 83.5936 176.991C83.7643 176.585 83.8816 176.111 83.9456 175.567C84.0203 175.023 84.0576 174.447 84.0576 173.839ZM90.552 173.903H94.504V175.295H90.552V173.903ZM99.2604 175.551C99.463 175.081 99.7404 174.537 100.092 173.919C100.444 173.289 100.839 172.644 101.276 171.983C101.724 171.321 102.199 170.671 102.7 170.031C103.212 169.391 103.724 168.815 104.236 168.303H105.66V175.343H106.972V176.559H105.66V179.391H104.22V176.559H99.2604V175.551ZM104.22 170.063C103.9 170.404 103.575 170.788 103.244 171.215C102.924 171.631 102.61 172.068 102.3 172.527C101.991 172.985 101.698 173.455 101.42 173.935C101.154 174.415 100.914 174.884 100.7 175.343H104.22V170.063ZM115.668 172.735C115.668 174.932 115.118 176.596 114.02 177.727C112.932 178.847 111.31 179.412 109.156 179.423L109.108 178.175C109.78 178.175 110.382 178.111 110.916 177.983C111.46 177.855 111.934 177.652 112.34 177.375C112.745 177.087 113.081 176.719 113.348 176.271C113.625 175.823 113.828 175.273 113.956 174.623C113.678 174.751 113.364 174.857 113.012 174.943C112.66 175.017 112.297 175.055 111.924 175.055C111.294 175.055 110.761 174.964 110.324 174.783C109.886 174.591 109.529 174.34 109.252 174.031C108.974 173.711 108.772 173.348 108.644 172.943C108.526 172.527 108.468 172.095 108.468 171.647C108.468 171.252 108.537 170.841 108.676 170.415C108.814 169.988 109.022 169.599 109.3 169.247C109.588 168.895 109.95 168.607 110.388 168.383C110.825 168.159 111.342 168.047 111.94 168.047C112.548 168.047 113.081 168.153 113.54 168.367C114.009 168.58 114.398 168.889 114.708 169.295C115.028 169.7 115.268 170.196 115.428 170.783C115.588 171.359 115.668 172.009 115.668 172.735ZM112.084 173.839C112.457 173.839 112.809 173.807 113.14 173.743C113.47 173.668 113.79 173.561 114.1 173.423C114.11 173.305 114.116 173.193 114.116 173.087C114.116 172.969 114.116 172.852 114.116 172.735C114.116 172.276 114.084 171.839 114.02 171.423C113.956 170.996 113.838 170.628 113.668 170.319C113.508 169.999 113.289 169.748 113.012 169.567C112.734 169.375 112.382 169.279 111.956 169.279C111.604 169.279 111.305 169.353 111.06 169.503C110.814 169.652 110.612 169.844 110.452 170.079C110.292 170.303 110.174 170.553 110.1 170.831C110.036 171.097 110.004 171.359 110.004 171.615C110.004 172.34 110.174 172.895 110.516 173.279C110.868 173.652 111.39 173.839 112.084 173.839ZM124.699 172.735C124.699 174.932 124.15 176.596 123.051 177.727C121.963 178.847 120.342 179.412 118.187 179.423L118.139 178.175C118.811 178.175 119.414 178.111 119.947 177.983C120.491 177.855 120.966 177.652 121.371 177.375C121.776 177.087 122.112 176.719 122.379 176.271C122.656 175.823 122.859 175.273 122.987 174.623C122.71 174.751 122.395 174.857 122.043 174.943C121.691 175.017 121.328 175.055 120.955 175.055C120.326 175.055 119.792 174.964 119.355 174.783C118.918 174.591 118.56 174.34 118.283 174.031C118.006 173.711 117.803 173.348 117.675 172.943C117.558 172.527 117.499 172.095 117.499 171.647C117.499 171.252 117.568 170.841 117.707 170.415C117.846 169.988 118.054 169.599 118.331 169.247C118.619 168.895 118.982 168.607 119.419 168.383C119.856 168.159 120.374 168.047 120.971 168.047C121.579 168.047 122.112 168.153 122.571 168.367C123.04 168.58 123.43 168.889 123.739 169.295C124.059 169.7 124.299 170.196 124.459 170.783C124.619 171.359 124.699 172.009 124.699 172.735ZM121.115 173.839C121.488 173.839 121.84 173.807 122.171 173.743C122.502 173.668 122.822 173.561 123.131 173.423C123.142 173.305 123.147 173.193 123.147 173.087C123.147 172.969 123.147 172.852 123.147 172.735C123.147 172.276 123.115 171.839 123.051 171.423C122.987 170.996 122.87 170.628 122.699 170.319C122.539 169.999 122.32 169.748 122.043 169.567C121.766 169.375 121.414 169.279 120.987 169.279C120.635 169.279 120.336 169.353 120.091 169.503C119.846 169.652 119.643 169.844 119.483 170.079C119.323 170.303 119.206 170.553 119.131 170.831C119.067 171.097 119.035 171.359 119.035 171.615C119.035 172.34 119.206 172.895 119.547 173.279C119.899 173.652 120.422 173.839 121.115 173.839ZM128.754 178.527C128.754 178.815 128.658 179.065 128.466 179.279C128.274 179.492 128.013 179.599 127.682 179.599C127.351 179.599 127.09 179.492 126.898 179.279C126.706 179.065 126.61 178.815 126.61 178.527C126.61 178.239 126.706 177.988 126.898 177.775C127.09 177.561 127.351 177.455 127.682 177.455C128.013 177.455 128.274 177.561 128.466 177.775C128.658 177.988 128.754 178.239 128.754 178.527ZM137.668 172.735C137.668 174.932 137.118 176.596 136.02 177.727C134.932 178.847 133.31 179.412 131.156 179.423L131.108 178.175C131.78 178.175 132.382 178.111 132.916 177.983C133.46 177.855 133.934 177.652 134.34 177.375C134.745 177.087 135.081 176.719 135.348 176.271C135.625 175.823 135.828 175.273 135.956 174.623C135.678 174.751 135.364 174.857 135.012 174.943C134.66 175.017 134.297 175.055 133.924 175.055C133.294 175.055 132.761 174.964 132.324 174.783C131.886 174.591 131.529 174.34 131.252 174.031C130.974 173.711 130.772 173.348 130.644 172.943C130.526 172.527 130.468 172.095 130.468 171.647C130.468 171.252 130.537 170.841 130.676 170.415C130.814 169.988 131.022 169.599 131.3 169.247C131.588 168.895 131.95 168.607 132.388 168.383C132.825 168.159 133.342 168.047 133.94 168.047C134.548 168.047 135.081 168.153 135.54 168.367C136.009 168.58 136.398 168.889 136.708 169.295C137.028 169.7 137.268 170.196 137.428 170.783C137.588 171.359 137.668 172.009 137.668 172.735ZM134.084 173.839C134.457 173.839 134.809 173.807 135.14 173.743C135.47 173.668 135.79 173.561 136.1 173.423C136.11 173.305 136.116 173.193 136.116 173.087C136.116 172.969 136.116 172.852 136.116 172.735C136.116 172.276 136.084 171.839 136.02 171.423C135.956 170.996 135.838 170.628 135.668 170.319C135.508 169.999 135.289 169.748 135.012 169.567C134.734 169.375 134.382 169.279 133.956 169.279C133.604 169.279 133.305 169.353 133.06 169.503C132.814 169.652 132.612 169.844 132.452 170.079C132.292 170.303 132.174 170.553 132.1 170.831C132.036 171.097 132.004 171.359 132.004 171.615C132.004 172.34 132.174 172.895 132.516 173.279C132.868 173.652 133.39 173.839 134.084 173.839ZM146.699 172.735C146.699 174.932 146.15 176.596 145.051 177.727C143.963 178.847 142.342 179.412 140.187 179.423L140.139 178.175C140.811 178.175 141.414 178.111 141.947 177.983C142.491 177.855 142.966 177.652 143.371 177.375C143.776 177.087 144.112 176.719 144.379 176.271C144.656 175.823 144.859 175.273 144.987 174.623C144.71 174.751 144.395 174.857 144.043 174.943C143.691 175.017 143.328 175.055 142.955 175.055C142.326 175.055 141.792 174.964 141.355 174.783C140.918 174.591 140.56 174.34 140.283 174.031C140.006 173.711 139.803 173.348 139.675 172.943C139.558 172.527 139.499 172.095 139.499 171.647C139.499 171.252 139.568 170.841 139.707 170.415C139.846 169.988 140.054 169.599 140.331 169.247C140.619 168.895 140.982 168.607 141.419 168.383C141.856 168.159 142.374 168.047 142.971 168.047C143.579 168.047 144.112 168.153 144.571 168.367C145.04 168.58 145.43 168.889 145.739 169.295C146.059 169.7 146.299 170.196 146.459 170.783C146.619 171.359 146.699 172.009 146.699 172.735ZM143.115 173.839C143.488 173.839 143.84 173.807 144.171 173.743C144.502 173.668 144.822 173.561 145.131 173.423C145.142 173.305 145.147 173.193 145.147 173.087C145.147 172.969 145.147 172.852 145.147 172.735C145.147 172.276 145.115 171.839 145.051 171.423C144.987 170.996 144.87 170.628 144.699 170.319C144.539 169.999 144.32 169.748 144.043 169.567C143.766 169.375 143.414 169.279 142.987 169.279C142.635 169.279 142.336 169.353 142.091 169.503C141.846 169.652 141.643 169.844 141.483 170.079C141.323 170.303 141.206 170.553 141.131 170.831C141.067 171.097 141.035 171.359 141.035 171.615C141.035 172.34 141.206 172.895 141.547 173.279C141.899 173.652 142.422 173.839 143.115 173.839ZM42.1279 186.191C43.6852 186.191 44.8799 186.489 45.7119 187.087C46.5545 187.673 46.9759 188.553 46.9759 189.727C46.9759 190.367 46.8585 190.916 46.6239 191.375C46.3999 191.823 46.0692 192.191 45.6319 192.479C45.2052 192.756 44.6825 192.959 44.0639 193.087C43.4452 193.215 42.7465 193.279 41.9679 193.279H40.7359V197.391H39.1839V186.463C39.6212 186.356 40.1065 186.287 40.6399 186.255C41.1839 186.212 41.6799 186.191 42.1279 186.191ZM42.2559 187.551C41.5945 187.551 41.0879 187.567 40.7359 187.599V191.951H41.9039C42.4372 191.951 42.9172 191.919 43.3439 191.855C43.7705 191.78 44.1279 191.663 44.4159 191.503C44.7145 191.332 44.9439 191.103 45.1039 190.815C45.2639 190.527 45.3439 190.159 45.3439 189.711C45.3439 189.284 45.2585 188.932 45.0879 188.655C44.9279 188.377 44.7039 188.159 44.4159 187.999C44.1385 187.828 43.8132 187.711 43.4399 187.647C43.0665 187.583 42.6719 187.551 42.2559 187.551ZM55.8225 193.231C55.8225 193.892 55.7265 194.489 55.5345 195.023C55.3425 195.556 55.0705 196.015 54.7185 196.399C54.3772 196.783 53.9665 197.081 53.4865 197.295C53.0065 197.497 52.4838 197.599 51.9185 197.599C51.3532 197.599 50.8305 197.497 50.3505 197.295C49.8705 197.081 49.4545 196.783 49.1025 196.399C48.7612 196.015 48.4945 195.556 48.3025 195.023C48.1105 194.489 48.0145 193.892 48.0145 193.231C48.0145 192.58 48.1105 191.988 48.3025 191.455C48.4945 190.911 48.7612 190.447 49.1025 190.063C49.4545 189.679 49.8705 189.385 50.3505 189.183C50.8305 188.969 51.3532 188.863 51.9185 188.863C52.4838 188.863 53.0065 188.969 53.4865 189.183C53.9665 189.385 54.3772 189.679 54.7185 190.063C55.0705 190.447 55.3425 190.911 55.5345 191.455C55.7265 191.988 55.8225 192.58 55.8225 193.231ZM54.2705 193.231C54.2705 192.292 54.0572 191.551 53.6305 191.007C53.2145 190.452 52.6438 190.175 51.9185 190.175C51.1932 190.175 50.6172 190.452 50.1905 191.007C49.7745 191.551 49.5665 192.292 49.5665 193.231C49.5665 194.169 49.7745 194.916 50.1905 195.471C50.6172 196.015 51.1932 196.287 51.9185 196.287C52.6438 196.287 53.2145 196.015 53.6305 195.471C54.0572 194.916 54.2705 194.169 54.2705 193.231ZM59.404 197.391H57.916V189.071H59.404V197.391ZM58.652 187.567C58.3853 187.567 58.156 187.481 57.964 187.311C57.7827 187.129 57.692 186.889 57.692 186.591C57.692 186.292 57.7827 186.057 57.964 185.887C58.156 185.705 58.3853 185.615 58.652 185.615C58.9187 185.615 59.1427 185.705 59.324 185.887C59.516 186.057 59.612 186.292 59.612 186.591C59.612 186.889 59.516 187.129 59.324 187.311C59.1427 187.481 58.9187 187.567 58.652 187.567ZM61.9629 189.311C62.3042 189.225 62.7575 189.135 63.3229 189.039C63.8882 188.943 64.5389 188.895 65.2749 188.895C65.9362 188.895 66.4855 188.991 66.9229 189.183C67.3602 189.364 67.7069 189.625 67.9629 189.967C68.2295 190.297 68.4162 190.697 68.5229 191.167C68.6295 191.636 68.6829 192.153 68.6829 192.719V197.391H67.1949V193.039C67.1949 192.527 67.1575 192.089 67.0829 191.727C67.0189 191.364 66.9069 191.071 66.7469 190.847C66.5869 190.623 66.3735 190.463 66.1069 190.367C65.8402 190.26 65.5095 190.207 65.1149 190.207C64.9549 190.207 64.7895 190.212 64.6189 190.223C64.4482 190.233 64.2829 190.249 64.1229 190.271C63.9735 190.281 63.8349 190.297 63.7069 190.319C63.5895 190.34 63.5042 190.356 63.4509 190.367V197.391H61.9629V189.311ZM72.5424 189.071H75.6944V190.319H72.5424V194.159C72.5424 194.575 72.5744 194.921 72.6384 195.199C72.7024 195.465 72.7984 195.679 72.9264 195.839C73.0544 195.988 73.2144 196.095 73.4064 196.159C73.5984 196.223 73.8224 196.255 74.0784 196.255C74.5264 196.255 74.8837 196.207 75.1504 196.111C75.4277 196.004 75.6197 195.929 75.7264 195.887L76.0144 197.119C75.865 197.193 75.6037 197.284 75.2304 197.391C74.857 197.508 74.4304 197.567 73.9504 197.567C73.385 197.567 72.9157 197.497 72.5424 197.359C72.1797 197.209 71.8864 196.991 71.6624 196.703C71.4384 196.415 71.2784 196.063 71.1824 195.647C71.097 195.22 71.0544 194.729 71.0544 194.175V186.751L72.5424 186.495V189.071ZM79.5239 196.319C80.1319 196.319 80.5799 196.239 80.8679 196.079C81.1665 195.919 81.3159 195.663 81.3159 195.311C81.3159 194.948 81.1719 194.66 80.8839 194.447C80.5959 194.233 80.1212 193.993 79.4599 193.727C79.1399 193.599 78.8305 193.471 78.5319 193.343C78.2439 193.204 77.9932 193.044 77.7799 192.863C77.5665 192.681 77.3959 192.463 77.2679 192.207C77.1399 191.951 77.0759 191.636 77.0759 191.263C77.0759 190.527 77.3479 189.945 77.8919 189.519C78.4359 189.081 79.1772 188.863 80.1159 188.863C80.3505 188.863 80.5852 188.879 80.8199 188.911C81.0545 188.932 81.2732 188.964 81.4759 189.007C81.6785 189.039 81.8545 189.076 82.0039 189.119C82.1639 189.161 82.2865 189.199 82.3719 189.231L82.0999 190.511C81.9399 190.425 81.6892 190.34 81.3479 190.255C81.0065 190.159 80.5959 190.111 80.1159 190.111C79.6999 190.111 79.3372 190.196 79.0279 190.367C78.7185 190.527 78.5639 190.783 78.5639 191.135C78.5639 191.316 78.5959 191.476 78.6599 191.615C78.7345 191.753 78.8412 191.881 78.9799 191.999C79.1292 192.105 79.3105 192.207 79.5239 192.303C79.7372 192.399 79.9932 192.5 80.2919 192.607C80.6865 192.756 81.0385 192.905 81.3479 193.055C81.6572 193.193 81.9185 193.359 82.1319 193.551C82.3559 193.743 82.5265 193.977 82.6439 194.255C82.7612 194.521 82.8199 194.852 82.8199 195.247C82.8199 196.015 82.5319 196.596 81.9559 196.991C81.3905 197.385 80.5799 197.583 79.5239 197.583C78.7879 197.583 78.2119 197.519 77.7959 197.391C77.3799 197.273 77.0972 197.183 76.9479 197.119L77.2199 195.839C77.3905 195.903 77.6625 195.999 78.0359 196.127C78.4092 196.255 78.9052 196.319 79.5239 196.319ZM84.5845 200.351H83.0645L88.4885 184.863H89.9765L84.5845 200.351ZM97.6371 196.047V197.391H90.9651V186.303H92.5171V196.047H97.6371ZM106.322 193.231C106.322 193.892 106.226 194.489 106.034 195.023C105.842 195.556 105.57 196.015 105.218 196.399C104.877 196.783 104.466 197.081 103.986 197.295C103.506 197.497 102.984 197.599 102.418 197.599C101.853 197.599 101.33 197.497 100.85 197.295C100.37 197.081 99.9545 196.783 99.6025 196.399C99.2612 196.015 98.9945 195.556 98.8025 195.023C98.6105 194.489 98.5145 193.892 98.5145 193.231C98.5145 192.58 98.6105 191.988 98.8025 191.455C98.9945 190.911 99.2612 190.447 99.6025 190.063C99.9545 189.679 100.37 189.385 100.85 189.183C101.33 188.969 101.853 188.863 102.418 188.863C102.984 188.863 103.506 188.969 103.986 189.183C104.466 189.385 104.877 189.679 105.218 190.063C105.57 190.447 105.842 190.911 106.034 191.455C106.226 191.988 106.322 192.58 106.322 193.231ZM104.77 193.231C104.77 192.292 104.557 191.551 104.13 191.007C103.714 190.452 103.144 190.175 102.418 190.175C101.693 190.175 101.117 190.452 100.69 191.007C100.274 191.551 100.066 192.292 100.066 193.231C100.066 194.169 100.274 194.916 100.69 195.471C101.117 196.015 101.693 196.287 102.418 196.287C103.144 196.287 103.714 196.015 104.13 195.471C104.557 194.916 104.77 194.169 104.77 193.231ZM109.808 189.071H112.96V190.319H109.808V194.159C109.808 194.575 109.84 194.921 109.904 195.199C109.968 195.465 110.064 195.679 110.192 195.839C110.32 195.988 110.48 196.095 110.672 196.159C110.864 196.223 111.088 196.255 111.344 196.255C111.792 196.255 112.149 196.207 112.416 196.111C112.693 196.004 112.885 195.929 112.992 195.887L113.28 197.119C113.131 197.193 112.869 197.284 112.496 197.391C112.123 197.508 111.696 197.567 111.216 197.567C110.651 197.567 110.181 197.497 109.808 197.359C109.445 197.209 109.152 196.991 108.928 196.703C108.704 196.415 108.544 196.063 108.448 195.647C108.363 195.22 108.32 194.729 108.32 194.175V186.751L109.808 186.495V189.071ZM116.613 196.527C116.613 196.815 116.517 197.065 116.325 197.279C116.133 197.492 115.872 197.599 115.541 197.599C115.211 197.599 114.949 197.492 114.757 197.279C114.565 197.065 114.469 196.815 114.469 196.527C114.469 196.239 114.565 195.988 114.757 195.775C114.949 195.561 115.211 195.455 115.541 195.455C115.872 195.455 116.133 195.561 116.325 195.775C116.517 195.988 116.613 196.239 116.613 196.527ZM116.613 190.143C116.613 190.431 116.517 190.681 116.325 190.895C116.133 191.108 115.872 191.215 115.541 191.215C115.211 191.215 114.949 191.108 114.757 190.895C114.565 190.681 114.469 190.431 114.469 190.143C114.469 189.855 114.565 189.604 114.757 189.391C114.949 189.177 115.211 189.071 115.541 189.071C115.872 189.071 116.133 189.177 116.325 189.391C116.517 189.604 116.613 189.855 116.613 190.143ZM122.014 191.839C122.014 189.983 122.339 188.553 122.99 187.551C123.651 186.548 124.563 186.047 125.726 186.047C126.889 186.047 127.795 186.548 128.446 187.551C129.107 188.553 129.438 189.983 129.438 191.839C129.438 193.695 129.107 195.124 128.446 196.127C127.795 197.129 126.889 197.631 125.726 197.631C124.563 197.631 123.651 197.129 122.99 196.127C122.339 195.124 122.014 193.695 122.014 191.839ZM127.87 191.839C127.87 191.231 127.833 190.655 127.758 190.111C127.694 189.567 127.577 189.092 127.406 188.687C127.246 188.281 127.027 187.961 126.75 187.727C126.473 187.481 126.131 187.359 125.726 187.359C125.321 187.359 124.979 187.481 124.702 187.727C124.425 187.961 124.201 188.281 124.03 188.687C123.87 189.092 123.753 189.567 123.678 190.111C123.614 190.655 123.582 191.231 123.582 191.839C123.582 192.447 123.614 193.023 123.678 193.567C123.753 194.111 123.87 194.585 124.03 194.991C124.201 195.396 124.425 195.721 124.702 195.967C124.979 196.201 125.321 196.319 125.726 196.319C126.131 196.319 126.473 196.201 126.75 195.967C127.027 195.721 127.246 195.396 127.406 194.991C127.577 194.585 127.694 194.111 127.758 193.567C127.833 193.023 127.87 192.447 127.87 191.839ZM133.285 196.527C133.285 196.815 133.189 197.065 132.997 197.279C132.805 197.492 132.544 197.599 132.213 197.599C131.883 197.599 131.621 197.492 131.429 197.279C131.237 197.065 131.141 196.815 131.141 196.527C131.141 196.239 131.237 195.988 131.429 195.775C131.621 195.561 131.883 195.455 132.213 195.455C132.544 195.455 132.805 195.561 132.997 195.775C133.189 195.988 133.285 196.239 133.285 196.527ZM137.367 190.575C138.978 190.639 140.156 190.991 140.903 191.631C141.66 192.271 142.039 193.14 142.039 194.239C142.039 194.729 141.954 195.183 141.783 195.599C141.623 196.015 141.372 196.372 141.031 196.671C140.7 196.969 140.279 197.204 139.767 197.375C139.255 197.545 138.647 197.631 137.943 197.631C137.666 197.631 137.383 197.609 137.095 197.567C136.807 197.524 136.54 197.471 136.295 197.407C136.05 197.343 135.831 197.279 135.639 197.215C135.447 197.151 135.308 197.097 135.223 197.055L135.511 195.759C135.692 195.844 135.986 195.956 136.391 196.095C136.807 196.233 137.314 196.303 137.911 196.303C138.391 196.303 138.791 196.249 139.111 196.143C139.442 196.036 139.708 195.892 139.911 195.711C140.114 195.529 140.258 195.321 140.343 195.087C140.439 194.841 140.487 194.585 140.487 194.319C140.487 193.913 140.418 193.556 140.279 193.247C140.14 192.927 139.895 192.66 139.543 192.447C139.191 192.233 138.722 192.073 138.135 191.967C137.548 191.849 136.807 191.791 135.911 191.791C135.975 191.268 136.023 190.777 136.055 190.319C136.098 189.86 136.135 189.412 136.167 188.975C136.199 188.537 136.226 188.105 136.247 187.679C136.268 187.241 136.29 186.783 136.311 186.303H141.655V187.567H137.607C137.596 187.727 137.58 187.945 137.559 188.223C137.538 188.489 137.516 188.772 137.495 189.071C137.474 189.359 137.452 189.641 137.431 189.919C137.41 190.196 137.388 190.415 137.367 190.575Z" fill="#333333"></path><path d="M74.2048 138.039C72.4928 138.039 71.1808 138.575 70.2688 139.647C69.3728 140.703 68.9248 142.175 68.9248 144.063C68.9248 144.959 69.0288 145.783 69.2368 146.535C69.4608 147.271 69.7808 147.903 70.1968 148.431C70.6288 148.959 71.1568 149.375 71.7808 149.679C72.4208 149.967 73.1648 150.111 74.0128 150.111C74.5408 150.111 74.9968 150.095 75.3808 150.063C75.7648 150.015 76.0688 149.959 76.2928 149.895V143.919H79.3168V151.911C78.9008 152.071 78.1968 152.247 77.2048 152.439C76.2128 152.631 75.0688 152.727 73.7728 152.727C72.5728 152.727 71.4768 152.535 70.4848 152.151C69.4928 151.767 68.6448 151.207 67.9408 150.471C67.2528 149.735 66.7168 148.831 66.3328 147.759C65.9488 146.687 65.7568 145.455 65.7568 144.063C65.7568 142.671 65.9648 141.439 66.3808 140.367C66.8128 139.295 67.3968 138.391 68.1328 137.655C68.8688 136.903 69.7328 136.335 70.7248 135.951C71.7168 135.567 72.7728 135.375 73.8928 135.375C74.6608 135.375 75.3408 135.431 75.9328 135.543C76.5408 135.639 77.0608 135.751 77.4928 135.879C77.9248 136.007 78.2768 136.143 78.5488 136.287C78.8368 136.431 79.0368 136.535 79.1488 136.599L78.2368 139.071C77.7568 138.783 77.1568 138.543 76.4368 138.351C75.7328 138.143 74.9888 138.039 74.2048 138.039ZM94.0196 146.103C94.0196 147.095 93.8756 147.999 93.5876 148.815C93.2996 149.631 92.8916 150.327 92.3636 150.903C91.8356 151.479 91.1956 151.927 90.4436 152.247C89.7076 152.567 88.8916 152.727 87.9956 152.727C87.0996 152.727 86.2836 152.567 85.5476 152.247C84.8116 151.927 84.1796 151.479 83.6516 150.903C83.1236 150.327 82.7076 149.631 82.4036 148.815C82.1156 147.999 81.9716 147.095 81.9716 146.103C81.9716 145.111 82.1156 144.215 82.4036 143.415C82.7076 142.599 83.1236 141.903 83.6516 141.327C84.1956 140.751 84.8356 140.311 85.5716 140.007C86.3076 139.687 87.1156 139.527 87.9956 139.527C88.8756 139.527 89.6836 139.687 90.4196 140.007C91.1716 140.311 91.8116 140.751 92.3396 141.327C92.8676 141.903 93.2756 142.599 93.5636 143.415C93.8676 144.215 94.0196 145.111 94.0196 146.103ZM91.0436 146.103C91.0436 144.855 90.7716 143.871 90.2276 143.151C89.6996 142.415 88.9556 142.047 87.9956 142.047C87.0356 142.047 86.2836 142.415 85.7396 143.151C85.2116 143.871 84.9476 144.855 84.9476 146.103C84.9476 147.367 85.2116 148.367 85.7396 149.103C86.2836 149.839 87.0356 150.207 87.9956 150.207C88.9556 150.207 89.6996 149.839 90.2276 149.103C90.7716 148.367 91.0436 147.367 91.0436 146.103ZM101.379 152.631C100.515 152.615 99.7953 152.519 99.2193 152.343C98.6593 152.167 98.2113 151.919 97.8753 151.599C97.5393 151.263 97.2993 150.855 97.1553 150.375C97.0273 149.879 96.9633 149.319 96.9633 148.695V134.247L99.8673 133.767V148.143C99.8673 148.495 99.8913 148.791 99.9393 149.031C100.003 149.271 100.107 149.479 100.251 149.655C100.395 149.815 100.587 149.943 100.827 150.039C101.083 150.119 101.403 150.183 101.787 150.231L101.379 152.631ZM106.416 146.079C106.416 147.359 106.72 148.367 107.328 149.103C107.936 149.823 108.776 150.183 109.848 150.183C110.312 150.183 110.704 150.167 111.024 150.135C111.36 150.087 111.632 150.039 111.84 149.991V142.791C111.584 142.615 111.24 142.455 110.808 142.311C110.392 142.151 109.944 142.071 109.464 142.071C108.408 142.071 107.632 142.431 107.136 143.151C106.656 143.871 106.416 144.847 106.416 146.079ZM114.744 152.007C114.168 152.183 113.44 152.343 112.56 152.487C111.696 152.631 110.784 152.703 109.824 152.703C108.832 152.703 107.944 152.551 107.16 152.247C106.376 151.943 105.704 151.511 105.144 150.951C104.6 150.375 104.176 149.687 103.872 148.887C103.584 148.071 103.44 147.159 103.44 146.151C103.44 145.159 103.56 144.263 103.8 143.463C104.056 142.647 104.424 141.951 104.904 141.375C105.384 140.799 105.968 140.359 106.656 140.055C107.344 139.735 108.136 139.575 109.032 139.575C109.64 139.575 110.176 139.647 110.64 139.791C111.104 139.935 111.504 140.095 111.84 140.271V134.247L114.744 133.767V152.007Z" fill="#333333"></path><circle cx="90.511" cy="72.3906" r="40" fill="#00C8FF"></circle><path d="M79.7829 60.5C79.5032 60.5 79.235 60.6111 79.0372 60.8089C78.8394 61.0067 78.7283 61.275 78.7283 61.5547V89.3367C78.7282 89.5224 78.7771 89.7048 78.8701 89.8655C78.9631 90.0262 79.0969 90.1595 79.2579 90.2519C79.419 90.3444 79.6016 90.3926 79.7872 90.3919C79.9729 90.3911 80.1551 90.3414 80.3154 90.2476L90.5082 84.2888L91.8929 73.0531L90.5082 60.5H79.7829Z" fill="#FDBF00"></path><path d="M101.237 60.5H90.5112V84.2888L100.704 90.2476C100.864 90.3413 101.046 90.3911 101.232 90.3919C101.418 90.3927 101.6 90.3445 101.761 90.2522C101.922 90.1598 102.056 90.0266 102.149 89.8661C102.242 89.7055 102.291 89.5232 102.291 89.3376V61.5547C102.291 61.275 102.18 61.0067 101.982 60.8089C101.785 60.6111 101.516 60.5 101.237 60.5Z" fill="#FFD74A"></path><path d="M74.4451 54.3906C74.1653 54.3906 73.8971 54.5017 73.6993 54.6995C73.5015 54.8973 73.3904 55.1656 73.3904 55.4453C73.3924 57.3445 74.1478 59.1653 75.4907 60.5082C76.8336 61.8512 78.6544 62.6065 80.5536 62.6085H90.5109L91.8956 58.7811L90.5109 54.3906H74.4451Z" fill="#EDB200"></path><path d="M106.577 54.3906H90.511V62.6085H100.468C102.367 62.6065 104.188 61.8512 105.531 60.5082C106.874 59.1653 107.629 57.3445 107.632 55.4453C107.632 55.3068 107.604 55.1696 107.551 55.0417C107.498 54.9137 107.421 54.7975 107.323 54.6995C107.225 54.6016 107.108 54.5239 106.98 54.4709C106.852 54.4179 106.715 54.3906 106.577 54.3906V54.3906Z" fill="#EDB200"></path><path d="M89.5595 66.8306L88.3143 70.658H84.2862C84.0751 70.6582 83.8694 70.7251 83.6986 70.8493C83.5279 70.9734 83.4008 71.1484 83.3356 71.3492C83.2703 71.55 83.2703 71.7663 83.3355 71.9671C83.4007 72.1679 83.5277 72.3429 83.6985 72.4671L86.9577 74.835L85.7125 78.6625C85.6474 78.8633 85.6474 79.0796 85.7127 79.2803C85.7779 79.4811 85.905 79.6561 86.0758 79.7803C86.2466 79.9044 86.4523 79.9713 86.6634 79.9715C86.8745 79.9716 87.0803 79.9049 87.2512 79.7809L90.5104 77.413L91.3907 73.1603L90.5104 66.1289C90.2993 66.129 90.0936 66.1958 89.9228 66.3198C89.752 66.4439 89.6249 66.6188 89.5595 66.8195V66.8306Z" fill="#D8AA05"></path><path d="M97.6859 71.3513C97.6206 71.1505 97.4934 70.9756 97.3226 70.8516C97.1518 70.7275 96.9461 70.6607 96.735 70.6606H92.7068L91.4617 66.8332C91.3963 66.6325 91.2691 66.4576 91.0983 66.3335C90.9275 66.2095 90.7218 66.1426 90.5107 66.1426V77.419L93.77 79.7869C93.943 79.9058 94.1479 79.9694 94.3577 79.9694C94.5676 79.9694 94.7725 79.9058 94.9454 79.7869C95.1165 79.6629 95.2439 79.4878 95.3091 79.2868C95.3744 79.0859 95.3742 78.8694 95.3086 78.6685L94.0634 74.8411L97.3227 72.4731C97.4943 72.3487 97.6219 72.1731 97.6872 71.9714C97.7525 71.7698 97.752 71.5526 97.6859 71.3513Z" fill="#F0B70C"></path></svg>