<svg xmlns="http://www.w3.org/2000/svg" width="157" height="224" viewBox="0 0 157 224" fill="none"><path d="M0.838867 10C0.838867 4.47715 4.71088 0 9.48725 0H148.19C152.967 0 156.839 4.47715 156.839 10V214C156.839 219.523 152.967 224 148.19 224H9.48726C4.71089 224 0.838867 219.523 0.838867 214V10Z" fill="white"></path><path fill-rule="evenodd" clip-rule="evenodd" d="M148.19 0.5H9.48725C4.9497 0.5 1.27129 4.7533 1.27129 10V214C1.27129 219.247 4.94971 223.5 9.48726 223.5H148.19C152.728 223.5 156.406 219.247 156.406 214V10C156.406 4.7533 152.728 0.5 148.19 0.5ZM9.48725 0C4.71088 0 0.838867 4.47715 0.838867 10V214C0.838867 219.523 4.71089 224 9.48726 224H148.19C152.967 224 156.839 219.523 156.839 214V10C156.839 4.47715 152.967 0 148.19 0H9.48725Z" fill="#CCCCCC"></path><path d="M16.9494 177.656V179H10.2774V167.912H11.8294V177.656H16.9494ZM25.6347 174.84C25.6347 175.501 25.5387 176.099 25.3467 176.632C25.1547 177.165 24.8827 177.624 24.5307 178.008C24.1894 178.392 23.7787 178.691 23.2987 178.904C22.8187 179.107 22.2961 179.208 21.7307 179.208C21.1654 179.208 20.6427 179.107 20.1627 178.904C19.6827 178.691 19.2667 178.392 18.9147 178.008C18.5734 177.624 18.3067 177.165 18.1147 176.632C17.9227 176.099 17.8267 175.501 17.8267 174.84C17.8267 174.189 17.9227 173.597 18.1147 173.064C18.3067 172.52 18.5734 172.056 18.9147 171.672C19.2667 171.288 19.6827 170.995 20.1627 170.792C20.6427 170.579 21.1654 170.472 21.7307 170.472C22.2961 170.472 22.8187 170.579 23.2987 170.792C23.7787 170.995 24.1894 171.288 24.5307 171.672C24.8827 172.056 25.1547 172.52 25.3467 173.064C25.5387 173.597 25.6347 174.189 25.6347 174.84ZM24.0827 174.84C24.0827 173.901 23.8694 173.16 23.4427 172.616C23.0267 172.061 22.4561 171.784 21.7307 171.784C21.0054 171.784 20.4294 172.061 20.0027 172.616C19.5867 173.16 19.3787 173.901 19.3787 174.84C19.3787 175.779 19.5867 176.525 20.0027 177.08C20.4294 177.624 21.0054 177.896 21.7307 177.896C22.4561 177.896 23.0267 177.624 23.4427 177.08C23.8694 176.525 24.0827 175.779 24.0827 174.84ZM29.1202 170.68H32.2722V171.928H29.1202V175.768C29.1202 176.184 29.1522 176.531 29.2162 176.808C29.2802 177.075 29.3762 177.288 29.5042 177.448C29.6322 177.597 29.7922 177.704 29.9842 177.768C30.1762 177.832 30.4002 177.864 30.6562 177.864C31.1042 177.864 31.4616 177.816 31.7282 177.72C32.0056 177.613 32.1976 177.539 32.3042 177.496L32.5922 178.728C32.4429 178.803 32.1816 178.893 31.8082 179C31.4349 179.117 31.0082 179.176 30.5282 179.176C29.9629 179.176 29.4936 179.107 29.1202 178.968C28.7576 178.819 28.4642 178.6 28.2402 178.312C28.0162 178.024 27.8562 177.672 27.7602 177.256C27.6749 176.829 27.6322 176.339 27.6322 175.784V168.36L29.1202 168.104V170.68ZM36.1017 177.928C36.7097 177.928 37.1577 177.848 37.4457 177.688C37.7444 177.528 37.8937 177.272 37.8937 176.92C37.8937 176.557 37.7497 176.269 37.4617 176.056C37.1737 175.843 36.6991 175.603 36.0377 175.336C35.7177 175.208 35.4084 175.08 35.1097 174.952C34.8217 174.813 34.5711 174.653 34.3577 174.472C34.1444 174.291 33.9737 174.072 33.8457 173.816C33.7177 173.56 33.6537 173.245 33.6537 172.872C33.6537 172.136 33.9257 171.555 34.4697 171.128C35.0137 170.691 35.7551 170.472 36.6937 170.472C36.9284 170.472 37.1631 170.488 37.3977 170.52C37.6324 170.541 37.8511 170.573 38.0537 170.616C38.2564 170.648 38.4324 170.685 38.5817 170.728C38.7417 170.771 38.8644 170.808 38.9497 170.84L38.6777 172.12C38.5177 172.035 38.2671 171.949 37.9257 171.864C37.5844 171.768 37.1737 171.72 36.6937 171.72C36.2777 171.72 35.9151 171.805 35.6057 171.976C35.2964 172.136 35.1417 172.392 35.1417 172.744C35.1417 172.925 35.1737 173.085 35.2377 173.224C35.3124 173.363 35.4191 173.491 35.5577 173.608C35.7071 173.715 35.8884 173.816 36.1017 173.912C36.3151 174.008 36.5711 174.109 36.8697 174.216C37.2644 174.365 37.6164 174.515 37.9257 174.664C38.2351 174.803 38.4964 174.968 38.7097 175.16C38.9337 175.352 39.1044 175.587 39.2217 175.864C39.3391 176.131 39.3977 176.461 39.3977 176.856C39.3977 177.624 39.1097 178.205 38.5337 178.6C37.9684 178.995 37.1577 179.192 36.1017 179.192C35.3657 179.192 34.7897 179.128 34.3737 179C33.9577 178.883 33.6751 178.792 33.5257 178.728L33.7977 177.448C33.9684 177.512 34.2404 177.608 34.6137 177.736C34.9871 177.864 35.4831 177.928 36.1017 177.928ZM43.0664 178.136C43.0664 178.424 42.9704 178.675 42.7784 178.888C42.5864 179.101 42.325 179.208 41.9944 179.208C41.6637 179.208 41.4024 179.101 41.2104 178.888C41.0184 178.675 40.9224 178.424 40.9224 178.136C40.9224 177.848 41.0184 177.597 41.2104 177.384C41.4024 177.171 41.6637 177.064 41.9944 177.064C42.325 177.064 42.5864 177.171 42.7784 177.384C42.9704 177.597 43.0664 177.848 43.0664 178.136ZM43.0664 171.752C43.0664 172.04 42.9704 172.291 42.7784 172.504C42.5864 172.717 42.325 172.824 41.9944 172.824C41.6637 172.824 41.4024 172.717 41.2104 172.504C41.0184 172.291 40.9224 172.04 40.9224 171.752C40.9224 171.464 41.0184 171.213 41.2104 171C41.4024 170.787 41.6637 170.68 41.9944 170.68C42.325 170.68 42.5864 170.787 42.7784 171C42.9704 171.213 43.0664 171.464 43.0664 171.752ZM50.851 172.184C52.4617 172.248 53.6403 172.6 54.387 173.24C55.1443 173.88 55.523 174.749 55.523 175.848C55.523 176.339 55.4377 176.792 55.267 177.208C55.107 177.624 54.8563 177.981 54.515 178.28C54.1843 178.579 53.763 178.813 53.251 178.984C52.739 179.155 52.131 179.24 51.427 179.24C51.1497 179.24 50.867 179.219 50.579 179.176C50.291 179.133 50.0243 179.08 49.779 179.016C49.5337 178.952 49.315 178.888 49.123 178.824C48.931 178.76 48.7923 178.707 48.707 178.664L48.995 177.368C49.1763 177.453 49.4697 177.565 49.875 177.704C50.291 177.843 50.7977 177.912 51.395 177.912C51.875 177.912 52.275 177.859 52.595 177.752C52.9257 177.645 53.1923 177.501 53.395 177.32C53.5977 177.139 53.7417 176.931 53.827 176.696C53.923 176.451 53.971 176.195 53.971 175.928C53.971 175.523 53.9017 175.165 53.763 174.856C53.6243 174.536 53.379 174.269 53.027 174.056C52.675 173.843 52.2057 173.683 51.619 173.576C51.0323 173.459 50.291 173.4 49.395 173.4C49.459 172.877 49.507 172.387 49.539 171.928C49.5817 171.469 49.619 171.021 49.651 170.584C49.683 170.147 49.7097 169.715 49.731 169.288C49.7523 168.851 49.7737 168.392 49.795 167.912H55.139V169.176H51.091C51.0803 169.336 51.0643 169.555 51.043 169.832C51.0217 170.099 51.0003 170.381 50.979 170.68C50.9577 170.968 50.9363 171.251 50.915 171.528C50.8937 171.805 50.8723 172.024 50.851 172.184ZM57.4982 173.448C57.4982 171.592 57.8236 170.163 58.4742 169.16C59.1356 168.157 60.0476 167.656 61.2102 167.656C62.3729 167.656 63.2796 168.157 63.9302 169.16C64.5916 170.163 64.9222 171.592 64.9222 173.448C64.9222 175.304 64.5916 176.733 63.9302 177.736C63.2796 178.739 62.3729 179.24 61.2102 179.24C60.0476 179.24 59.1356 178.739 58.4742 177.736C57.8236 176.733 57.4982 175.304 57.4982 173.448ZM63.3542 173.448C63.3542 172.84 63.3169 172.264 63.2422 171.72C63.1782 171.176 63.0609 170.701 62.8902 170.296C62.7302 169.891 62.5116 169.571 62.2342 169.336C61.9569 169.091 61.6156 168.968 61.2102 168.968C60.8049 168.968 60.4636 169.091 60.1862 169.336C59.9089 169.571 59.6849 169.891 59.5142 170.296C59.3542 170.701 59.2369 171.176 59.1622 171.72C59.0982 172.264 59.0662 172.84 59.0662 173.448C59.0662 174.056 59.0982 174.632 59.1622 175.176C59.2369 175.72 59.3542 176.195 59.5142 176.6C59.6849 177.005 59.9089 177.331 60.1862 177.576C60.4636 177.811 60.8049 177.928 61.2102 177.928C61.6156 177.928 61.9569 177.811 62.2342 177.576C62.5116 177.331 62.7302 177.005 62.8902 176.6C63.0609 176.195 63.1782 175.72 63.2422 175.176C63.3169 174.632 63.3542 174.056 63.3542 173.448ZM66.5295 173.448C66.5295 171.592 66.8548 170.163 67.5055 169.16C68.1668 168.157 69.0788 167.656 70.2415 167.656C71.4042 167.656 72.3108 168.157 72.9615 169.16C73.6228 170.163 73.9535 171.592 73.9535 173.448C73.9535 175.304 73.6228 176.733 72.9615 177.736C72.3108 178.739 71.4042 179.24 70.2415 179.24C69.0788 179.24 68.1668 178.739 67.5055 177.736C66.8548 176.733 66.5295 175.304 66.5295 173.448ZM72.3855 173.448C72.3855 172.84 72.3482 172.264 72.2735 171.72C72.2095 171.176 72.0922 170.701 71.9215 170.296C71.7615 169.891 71.5428 169.571 71.2655 169.336C70.9882 169.091 70.6468 168.968 70.2415 168.968C69.8362 168.968 69.4948 169.091 69.2175 169.336C68.9402 169.571 68.7162 169.891 68.5455 170.296C68.3855 170.701 68.2682 171.176 68.1935 171.72C68.1295 172.264 68.0975 172.84 68.0975 173.448C68.0975 174.056 68.1295 174.632 68.1935 175.176C68.2682 175.72 68.3855 176.195 68.5455 176.6C68.7162 177.005 68.9402 177.331 69.2175 177.576C69.4948 177.811 69.8362 177.928 70.2415 177.928C70.6468 177.928 70.9882 177.811 71.2655 177.576C71.5428 177.331 71.7615 177.005 71.9215 176.6C72.0922 176.195 72.2095 175.72 72.2735 175.176C72.3482 174.632 72.3855 174.056 72.3855 173.448ZM78.8799 173.512H82.8319V174.904H78.8799V173.512ZM87.5882 175.16C87.7909 174.691 88.0682 174.147 88.4202 173.528C88.7722 172.899 89.1669 172.253 89.6042 171.592C90.0522 170.931 90.5269 170.28 91.0282 169.64C91.5402 169 92.0522 168.424 92.5642 167.912H93.9882V174.952H95.3002V176.168H93.9882V179H92.5482V176.168H87.5882V175.16ZM92.5482 169.672C92.2282 170.013 91.9029 170.397 91.5722 170.824C91.2522 171.24 90.9376 171.677 90.6282 172.136C90.3189 172.595 90.0256 173.064 89.7482 173.544C89.4816 174.024 89.2416 174.493 89.0282 174.952H92.5482V169.672ZM103.995 172.344C103.995 174.541 103.446 176.205 102.347 177.336C101.259 178.456 99.6382 179.021 97.4835 179.032L97.4355 177.784C98.1075 177.784 98.7102 177.72 99.2435 177.592C99.7875 177.464 100.262 177.261 100.667 176.984C101.073 176.696 101.409 176.328 101.675 175.88C101.953 175.432 102.155 174.883 102.283 174.232C102.006 174.36 101.691 174.467 101.339 174.552C100.987 174.627 100.625 174.664 100.251 174.664C99.6222 174.664 99.0888 174.573 98.6515 174.392C98.2142 174.2 97.8568 173.949 97.5795 173.64C97.3022 173.32 97.0995 172.957 96.9715 172.552C96.8542 172.136 96.7955 171.704 96.7955 171.256C96.7955 170.861 96.8648 170.451 97.0035 170.024C97.1422 169.597 97.3502 169.208 97.6275 168.856C97.9155 168.504 98.2782 168.216 98.7155 167.992C99.1528 167.768 99.6702 167.656 100.267 167.656C100.875 167.656 101.409 167.763 101.867 167.976C102.337 168.189 102.726 168.499 103.035 168.904C103.355 169.309 103.595 169.805 103.755 170.392C103.915 170.968 103.995 171.619 103.995 172.344ZM100.411 173.448C100.785 173.448 101.137 173.416 101.467 173.352C101.798 173.277 102.118 173.171 102.427 173.032C102.438 172.915 102.443 172.803 102.443 172.696C102.443 172.579 102.443 172.461 102.443 172.344C102.443 171.885 102.411 171.448 102.347 171.032C102.283 170.605 102.166 170.237 101.995 169.928C101.835 169.608 101.617 169.357 101.339 169.176C101.062 168.984 100.71 168.888 100.283 168.888C99.9315 168.888 99.6328 168.963 99.3875 169.112C99.1422 169.261 98.9395 169.453 98.7795 169.688C98.6195 169.912 98.5022 170.163 98.4275 170.44C98.3635 170.707 98.3315 170.968 98.3315 171.224C98.3315 171.949 98.5022 172.504 98.8435 172.888C99.1955 173.261 99.7182 173.448 100.411 173.448ZM113.027 172.344C113.027 174.541 112.477 176.205 111.379 177.336C110.291 178.456 108.669 179.021 106.515 179.032L106.467 177.784C107.139 177.784 107.741 177.72 108.275 177.592C108.819 177.464 109.293 177.261 109.699 176.984C110.104 176.696 110.44 176.328 110.707 175.88C110.984 175.432 111.187 174.883 111.315 174.232C111.037 174.36 110.723 174.467 110.371 174.552C110.019 174.627 109.656 174.664 109.283 174.664C108.653 174.664 108.12 174.573 107.683 174.392C107.245 174.2 106.888 173.949 106.611 173.64C106.333 173.32 106.131 172.957 106.003 172.552C105.885 172.136 105.827 171.704 105.827 171.256C105.827 170.861 105.896 170.451 106.035 170.024C106.173 169.597 106.381 169.208 106.659 168.856C106.947 168.504 107.309 168.216 107.747 167.992C108.184 167.768 108.701 167.656 109.299 167.656C109.907 167.656 110.44 167.763 110.899 167.976C111.368 168.189 111.757 168.499 112.067 168.904C112.387 169.309 112.627 169.805 112.787 170.392C112.947 170.968 113.027 171.619 113.027 172.344ZM109.443 173.448C109.816 173.448 110.168 173.416 110.499 173.352C110.829 173.277 111.149 173.171 111.459 173.032C111.469 172.915 111.475 172.803 111.475 172.696C111.475 172.579 111.475 172.461 111.475 172.344C111.475 171.885 111.443 171.448 111.379 171.032C111.315 170.605 111.197 170.237 111.027 169.928C110.867 169.608 110.648 169.357 110.371 169.176C110.093 168.984 109.741 168.888 109.315 168.888C108.963 168.888 108.664 168.963 108.419 169.112C108.173 169.261 107.971 169.453 107.811 169.688C107.651 169.912 107.533 170.163 107.459 170.44C107.395 170.707 107.363 170.968 107.363 171.224C107.363 171.949 107.533 172.504 107.875 172.888C108.227 173.261 108.749 173.448 109.443 173.448ZM122.058 172.344C122.058 174.541 121.509 176.205 120.41 177.336C119.322 178.456 117.701 179.021 115.546 179.032L115.498 177.784C116.17 177.784 116.773 177.72 117.306 177.592C117.85 177.464 118.325 177.261 118.73 176.984C119.135 176.696 119.471 176.328 119.738 175.88C120.015 175.432 120.218 174.883 120.346 174.232C120.069 174.36 119.754 174.467 119.402 174.552C119.05 174.627 118.687 174.664 118.314 174.664C117.685 174.664 117.151 174.573 116.714 174.392C116.277 174.2 115.919 173.949 115.642 173.64C115.365 173.32 115.162 172.957 115.034 172.552C114.917 172.136 114.858 171.704 114.858 171.256C114.858 170.861 114.927 170.451 115.066 170.024C115.205 169.597 115.413 169.208 115.69 168.856C115.978 168.504 116.341 168.216 116.778 167.992C117.215 167.768 117.733 167.656 118.33 167.656C118.938 167.656 119.471 167.763 119.93 167.976C120.399 168.189 120.789 168.499 121.098 168.904C121.418 169.309 121.658 169.805 121.818 170.392C121.978 170.968 122.058 171.619 122.058 172.344ZM118.474 173.448C118.847 173.448 119.199 173.416 119.53 173.352C119.861 173.277 120.181 173.171 120.49 173.032C120.501 172.915 120.506 172.803 120.506 172.696C120.506 172.579 120.506 172.461 120.506 172.344C120.506 171.885 120.474 171.448 120.41 171.032C120.346 170.605 120.229 170.237 120.058 169.928C119.898 169.608 119.679 169.357 119.402 169.176C119.125 168.984 118.773 168.888 118.346 168.888C117.994 168.888 117.695 168.963 117.45 169.112C117.205 169.261 117.002 169.453 116.842 169.688C116.682 169.912 116.565 170.163 116.49 170.44C116.426 170.707 116.394 170.968 116.394 171.224C116.394 171.949 116.565 172.504 116.906 172.888C117.258 173.261 117.781 173.448 118.474 173.448ZM126.113 178.136C126.113 178.424 126.017 178.675 125.825 178.888C125.633 179.101 125.372 179.208 125.041 179.208C124.711 179.208 124.449 179.101 124.257 178.888C124.065 178.675 123.969 178.424 123.969 178.136C123.969 177.848 124.065 177.597 124.257 177.384C124.449 177.171 124.711 177.064 125.041 177.064C125.372 177.064 125.633 177.171 125.825 177.384C126.017 177.597 126.113 177.848 126.113 178.136ZM135.027 172.344C135.027 174.541 134.477 176.205 133.379 177.336C132.291 178.456 130.669 179.021 128.515 179.032L128.467 177.784C129.139 177.784 129.741 177.72 130.275 177.592C130.819 177.464 131.293 177.261 131.699 176.984C132.104 176.696 132.44 176.328 132.707 175.88C132.984 175.432 133.187 174.883 133.315 174.232C133.037 174.36 132.723 174.467 132.371 174.552C132.019 174.627 131.656 174.664 131.283 174.664C130.653 174.664 130.12 174.573 129.683 174.392C129.245 174.2 128.888 173.949 128.611 173.64C128.333 173.32 128.131 172.957 128.003 172.552C127.885 172.136 127.827 171.704 127.827 171.256C127.827 170.861 127.896 170.451 128.035 170.024C128.173 169.597 128.381 169.208 128.659 168.856C128.947 168.504 129.309 168.216 129.747 167.992C130.184 167.768 130.701 167.656 131.299 167.656C131.907 167.656 132.44 167.763 132.899 167.976C133.368 168.189 133.757 168.499 134.067 168.904C134.387 169.309 134.627 169.805 134.787 170.392C134.947 170.968 135.027 171.619 135.027 172.344ZM131.443 173.448C131.816 173.448 132.168 173.416 132.499 173.352C132.829 173.277 133.149 173.171 133.459 173.032C133.469 172.915 133.475 172.803 133.475 172.696C133.475 172.579 133.475 172.461 133.475 172.344C133.475 171.885 133.443 171.448 133.379 171.032C133.315 170.605 133.197 170.237 133.027 169.928C132.867 169.608 132.648 169.357 132.371 169.176C132.093 168.984 131.741 168.888 131.315 168.888C130.963 168.888 130.664 168.963 130.419 169.112C130.173 169.261 129.971 169.453 129.811 169.688C129.651 169.912 129.533 170.163 129.459 170.44C129.395 170.707 129.363 170.968 129.363 171.224C129.363 171.949 129.533 172.504 129.875 172.888C130.227 173.261 130.749 173.448 131.443 173.448ZM144.058 172.344C144.058 174.541 143.509 176.205 142.41 177.336C141.322 178.456 139.701 179.021 137.546 179.032L137.498 177.784C138.17 177.784 138.773 177.72 139.306 177.592C139.85 177.464 140.325 177.261 140.73 176.984C141.135 176.696 141.471 176.328 141.738 175.88C142.015 175.432 142.218 174.883 142.346 174.232C142.069 174.36 141.754 174.467 141.402 174.552C141.05 174.627 140.687 174.664 140.314 174.664C139.685 174.664 139.151 174.573 138.714 174.392C138.277 174.2 137.919 173.949 137.642 173.64C137.365 173.32 137.162 172.957 137.034 172.552C136.917 172.136 136.858 171.704 136.858 171.256C136.858 170.861 136.927 170.451 137.066 170.024C137.205 169.597 137.413 169.208 137.69 168.856C137.978 168.504 138.341 168.216 138.778 167.992C139.215 167.768 139.733 167.656 140.33 167.656C140.938 167.656 141.471 167.763 141.93 167.976C142.399 168.189 142.789 168.499 143.098 168.904C143.418 169.309 143.658 169.805 143.818 170.392C143.978 170.968 144.058 171.619 144.058 172.344ZM140.474 173.448C140.847 173.448 141.199 173.416 141.53 173.352C141.861 173.277 142.181 173.171 142.49 173.032C142.501 172.915 142.506 172.803 142.506 172.696C142.506 172.579 142.506 172.461 142.506 172.344C142.506 171.885 142.474 171.448 142.41 171.032C142.346 170.605 142.229 170.237 142.058 169.928C141.898 169.608 141.679 169.357 141.402 169.176C141.125 168.984 140.773 168.888 140.346 168.888C139.994 168.888 139.695 168.963 139.45 169.112C139.205 169.261 139.002 169.453 138.842 169.688C138.682 169.912 138.565 170.163 138.49 170.44C138.426 170.707 138.394 170.968 138.394 171.224C138.394 171.949 138.565 172.504 138.906 172.888C139.258 173.261 139.781 173.448 140.474 173.448ZM30.4557 185.8C32.0131 185.8 33.2077 186.099 34.0397 186.696C34.8824 187.283 35.3037 188.163 35.3037 189.336C35.3037 189.976 35.1864 190.525 34.9517 190.984C34.7277 191.432 34.3971 191.8 33.9597 192.088C33.5331 192.365 33.0104 192.568 32.3917 192.696C31.7731 192.824 31.0744 192.888 30.2957 192.888H29.0637V197H27.5117V186.072C27.9491 185.965 28.4344 185.896 28.9677 185.864C29.5117 185.821 30.0077 185.8 30.4557 185.8ZM30.5837 187.16C29.9224 187.16 29.4157 187.176 29.0637 187.208V191.56H30.2317C30.7651 191.56 31.2451 191.528 31.6717 191.464C32.0984 191.389 32.4557 191.272 32.7437 191.112C33.0424 190.941 33.2717 190.712 33.4317 190.424C33.5917 190.136 33.6717 189.768 33.6717 189.32C33.6717 188.893 33.5864 188.541 33.4157 188.264C33.2557 187.987 33.0317 187.768 32.7437 187.608C32.4664 187.437 32.1411 187.32 31.7677 187.256C31.3944 187.192 30.9997 187.16 30.5837 187.16ZM44.1504 192.84C44.1504 193.501 44.0544 194.099 43.8624 194.632C43.6704 195.165 43.3984 195.624 43.0464 196.008C42.705 196.392 42.2944 196.691 41.8144 196.904C41.3344 197.107 40.8117 197.208 40.2464 197.208C39.681 197.208 39.1584 197.107 38.6784 196.904C38.1984 196.691 37.7824 196.392 37.4304 196.008C37.089 195.624 36.8224 195.165 36.6304 194.632C36.4384 194.099 36.3424 193.501 36.3424 192.84C36.3424 192.189 36.4384 191.597 36.6304 191.064C36.8224 190.52 37.089 190.056 37.4304 189.672C37.7824 189.288 38.1984 188.995 38.6784 188.792C39.1584 188.579 39.681 188.472 40.2464 188.472C40.8117 188.472 41.3344 188.579 41.8144 188.792C42.2944 188.995 42.705 189.288 43.0464 189.672C43.3984 190.056 43.6704 190.52 43.8624 191.064C44.0544 191.597 44.1504 192.189 44.1504 192.84ZM42.5984 192.84C42.5984 191.901 42.385 191.16 41.9584 190.616C41.5424 190.061 40.9717 189.784 40.2464 189.784C39.521 189.784 38.945 190.061 38.5184 190.616C38.1024 191.16 37.8944 191.901 37.8944 192.84C37.8944 193.779 38.1024 194.525 38.5184 195.08C38.945 195.624 39.521 195.896 40.2464 195.896C40.9717 195.896 41.5424 195.624 41.9584 195.08C42.385 194.525 42.5984 193.779 42.5984 192.84ZM47.7319 197H46.2439V188.68H47.7319V197ZM46.9799 187.176C46.7132 187.176 46.4839 187.091 46.2919 186.92C46.1105 186.739 46.0199 186.499 46.0199 186.2C46.0199 185.901 46.1105 185.667 46.2919 185.496C46.4839 185.315 46.7132 185.224 46.9799 185.224C47.2465 185.224 47.4705 185.315 47.6519 185.496C47.8439 185.667 47.9399 185.901 47.9399 186.2C47.9399 186.499 47.8439 186.739 47.6519 186.92C47.4705 187.091 47.2465 187.176 46.9799 187.176ZM50.2907 188.92C50.6321 188.835 51.0854 188.744 51.6507 188.648C52.2161 188.552 52.8667 188.504 53.6027 188.504C54.2641 188.504 54.8134 188.6 55.2507 188.792C55.6881 188.973 56.0347 189.235 56.2907 189.576C56.5574 189.907 56.7441 190.307 56.8507 190.776C56.9574 191.245 57.0107 191.763 57.0107 192.328V197H55.5227V192.648C55.5227 192.136 55.4854 191.699 55.4107 191.336C55.3467 190.973 55.2347 190.68 55.0747 190.456C54.9147 190.232 54.7014 190.072 54.4347 189.976C54.1681 189.869 53.8374 189.816 53.4427 189.816C53.2827 189.816 53.1174 189.821 52.9467 189.832C52.7761 189.843 52.6107 189.859 52.4507 189.88C52.3014 189.891 52.1627 189.907 52.0347 189.928C51.9174 189.949 51.8321 189.965 51.7787 189.976V197H50.2907V188.92ZM60.8702 188.68H64.0222V189.928H60.8702V193.768C60.8702 194.184 60.9022 194.531 60.9662 194.808C61.0302 195.075 61.1262 195.288 61.2542 195.448C61.3822 195.597 61.5422 195.704 61.7342 195.768C61.9262 195.832 62.1502 195.864 62.4062 195.864C62.8542 195.864 63.2116 195.816 63.4782 195.72C63.7556 195.613 63.9476 195.539 64.0542 195.496L64.3422 196.728C64.1929 196.803 63.9316 196.893 63.5582 197C63.1849 197.117 62.7582 197.176 62.2782 197.176C61.7129 197.176 61.2436 197.107 60.8702 196.968C60.5076 196.819 60.2142 196.6 59.9902 196.312C59.7662 196.024 59.6062 195.672 59.5102 195.256C59.4249 194.829 59.3822 194.339 59.3822 193.784V186.36L60.8702 186.104V188.68ZM67.8517 195.928C68.4597 195.928 68.9077 195.848 69.1957 195.688C69.4944 195.528 69.6437 195.272 69.6437 194.92C69.6437 194.557 69.4997 194.269 69.2117 194.056C68.9237 193.843 68.4491 193.603 67.7877 193.336C67.4677 193.208 67.1584 193.08 66.8597 192.952C66.5717 192.813 66.3211 192.653 66.1077 192.472C65.8944 192.291 65.7237 192.072 65.5957 191.816C65.4677 191.56 65.4037 191.245 65.4037 190.872C65.4037 190.136 65.6757 189.555 66.2197 189.128C66.7637 188.691 67.5051 188.472 68.4437 188.472C68.6784 188.472 68.9131 188.488 69.1477 188.52C69.3824 188.541 69.6011 188.573 69.8037 188.616C70.0064 188.648 70.1824 188.685 70.3317 188.728C70.4917 188.771 70.6144 188.808 70.6997 188.84L70.4277 190.12C70.2677 190.035 70.0171 189.949 69.6757 189.864C69.3344 189.768 68.9237 189.72 68.4437 189.72C68.0277 189.72 67.6651 189.805 67.3557 189.976C67.0464 190.136 66.8917 190.392 66.8917 190.744C66.8917 190.925 66.9237 191.085 66.9877 191.224C67.0624 191.363 67.1691 191.491 67.3077 191.608C67.4571 191.715 67.6384 191.816 67.8517 191.912C68.0651 192.008 68.3211 192.109 68.6197 192.216C69.0144 192.365 69.3664 192.515 69.6757 192.664C69.9851 192.803 70.2464 192.968 70.4597 193.16C70.6837 193.352 70.8544 193.587 70.9717 193.864C71.0891 194.131 71.1477 194.461 71.1477 194.856C71.1477 195.624 70.8597 196.205 70.2837 196.6C69.7184 196.995 68.9077 197.192 67.8517 197.192C67.1157 197.192 66.5397 197.128 66.1237 197C65.7077 196.883 65.4251 196.792 65.2757 196.728L65.5477 195.448C65.7184 195.512 65.9904 195.608 66.3637 195.736C66.7371 195.864 67.2331 195.928 67.8517 195.928ZM72.9124 199.96H71.3924L76.8164 184.472H78.3044L72.9124 199.96ZM85.965 195.656V197H79.293V185.912H80.845V195.656H85.965ZM94.6504 192.84C94.6504 193.501 94.5544 194.099 94.3624 194.632C94.1704 195.165 93.8984 195.624 93.5464 196.008C93.205 196.392 92.7944 196.691 92.3144 196.904C91.8344 197.107 91.3117 197.208 90.7464 197.208C90.181 197.208 89.6584 197.107 89.1784 196.904C88.6984 196.691 88.2824 196.392 87.9304 196.008C87.589 195.624 87.3224 195.165 87.1304 194.632C86.9384 194.099 86.8424 193.501 86.8424 192.84C86.8424 192.189 86.9384 191.597 87.1304 191.064C87.3224 190.52 87.589 190.056 87.9304 189.672C88.2824 189.288 88.6984 188.995 89.1784 188.792C89.6584 188.579 90.181 188.472 90.7464 188.472C91.3117 188.472 91.8344 188.579 92.3144 188.792C92.7944 188.995 93.205 189.288 93.5464 189.672C93.8984 190.056 94.1704 190.52 94.3624 191.064C94.5544 191.597 94.6504 192.189 94.6504 192.84ZM93.0984 192.84C93.0984 191.901 92.885 191.16 92.4584 190.616C92.0424 190.061 91.4717 189.784 90.7464 189.784C90.021 189.784 89.445 190.061 89.0184 190.616C88.6024 191.16 88.3944 191.901 88.3944 192.84C88.3944 193.779 88.6024 194.525 89.0184 195.08C89.445 195.624 90.021 195.896 90.7464 195.896C91.4717 195.896 92.0424 195.624 92.4584 195.08C92.885 194.525 93.0984 193.779 93.0984 192.84ZM98.1359 188.68H101.288V189.928H98.1359V193.768C98.1359 194.184 98.1679 194.531 98.2319 194.808C98.2959 195.075 98.3919 195.288 98.5199 195.448C98.6479 195.597 98.8079 195.704 98.9999 195.768C99.1919 195.832 99.4159 195.864 99.6719 195.864C100.12 195.864 100.477 195.816 100.744 195.72C101.021 195.613 101.213 195.539 101.32 195.496L101.608 196.728C101.459 196.803 101.197 196.893 100.824 197C100.451 197.117 100.024 197.176 99.5439 197.176C98.9785 197.176 98.5092 197.107 98.1359 196.968C97.7732 196.819 97.4799 196.6 97.2559 196.312C97.0319 196.024 96.8719 195.672 96.7759 195.256C96.6905 194.829 96.6479 194.339 96.6479 193.784V186.36L98.1359 186.104V188.68ZM104.941 196.136C104.941 196.424 104.845 196.675 104.653 196.888C104.461 197.101 104.2 197.208 103.869 197.208C103.539 197.208 103.277 197.101 103.085 196.888C102.893 196.675 102.797 196.424 102.797 196.136C102.797 195.848 102.893 195.597 103.085 195.384C103.277 195.171 103.539 195.064 103.869 195.064C104.2 195.064 104.461 195.171 104.653 195.384C104.845 195.597 104.941 195.848 104.941 196.136ZM104.941 189.752C104.941 190.04 104.845 190.291 104.653 190.504C104.461 190.717 104.2 190.824 103.869 190.824C103.539 190.824 103.277 190.717 103.085 190.504C102.893 190.291 102.797 190.04 102.797 189.752C102.797 189.464 102.893 189.213 103.085 189C103.277 188.787 103.539 188.68 103.869 188.68C104.2 188.68 104.461 188.787 104.653 189C104.845 189.213 104.941 189.464 104.941 189.752ZM110.342 191.448C110.342 189.592 110.667 188.163 111.318 187.16C111.979 186.157 112.891 185.656 114.054 185.656C115.217 185.656 116.123 186.157 116.774 187.16C117.435 188.163 117.766 189.592 117.766 191.448C117.766 193.304 117.435 194.733 116.774 195.736C116.123 196.739 115.217 197.24 114.054 197.24C112.891 197.24 111.979 196.739 111.318 195.736C110.667 194.733 110.342 193.304 110.342 191.448ZM116.198 191.448C116.198 190.84 116.161 190.264 116.086 189.72C116.022 189.176 115.905 188.701 115.734 188.296C115.574 187.891 115.355 187.571 115.078 187.336C114.801 187.091 114.459 186.968 114.054 186.968C113.649 186.968 113.307 187.091 113.03 187.336C112.753 187.571 112.529 187.891 112.358 188.296C112.198 188.701 112.081 189.176 112.006 189.72C111.942 190.264 111.91 190.84 111.91 191.448C111.91 192.056 111.942 192.632 112.006 193.176C112.081 193.72 112.198 194.195 112.358 194.6C112.529 195.005 112.753 195.331 113.03 195.576C113.307 195.811 113.649 195.928 114.054 195.928C114.459 195.928 114.801 195.811 115.078 195.576C115.355 195.331 115.574 195.005 115.734 194.6C115.905 194.195 116.022 193.72 116.086 193.176C116.161 192.632 116.198 192.056 116.198 191.448ZM121.613 196.136C121.613 196.424 121.517 196.675 121.325 196.888C121.133 197.101 120.872 197.208 120.541 197.208C120.211 197.208 119.949 197.101 119.757 196.888C119.565 196.675 119.469 196.424 119.469 196.136C119.469 195.848 119.565 195.597 119.757 195.384C119.949 195.171 120.211 195.064 120.541 195.064C120.872 195.064 121.133 195.171 121.325 195.384C121.517 195.597 121.613 195.848 121.613 196.136ZM125.119 197C125.183 196.147 125.332 195.251 125.567 194.312C125.812 193.363 126.111 192.445 126.463 191.56C126.815 190.664 127.199 189.837 127.615 189.08C128.041 188.312 128.457 187.688 128.863 187.208H123.471V185.912H130.527V187.144C130.175 187.549 129.785 188.109 129.359 188.824C128.932 189.528 128.527 190.323 128.143 191.208C127.769 192.083 127.444 193.021 127.167 194.024C126.9 195.016 126.735 196.008 126.671 197H125.119Z" fill="#333333"></path><path d="M35.3552 135.2C37.7712 135.2 39.6192 135.64 40.8992 136.52C42.1952 137.4 42.8432 138.776 42.8432 140.648C42.8432 141.624 42.6672 142.464 42.3152 143.168C41.9792 143.856 41.4832 144.424 40.8272 144.872C40.1712 145.304 39.3712 145.624 38.4272 145.832C37.4832 146.04 36.4032 146.144 35.1872 146.144H33.6752V152H30.6512V135.608C31.3552 135.448 32.1312 135.344 32.9792 135.296C33.8432 135.232 34.6352 135.2 35.3552 135.2ZM35.5712 137.816C34.8032 137.816 34.1712 137.84 33.6752 137.888V143.552H35.1392C36.5952 143.552 37.7152 143.352 38.4992 142.952C39.2832 142.536 39.6752 141.76 39.6752 140.624C39.6752 140.08 39.5712 139.624 39.3632 139.256C39.1552 138.888 38.8672 138.6 38.4992 138.392C38.1312 138.184 37.6912 138.04 37.1792 137.96C36.6832 137.864 36.1472 137.816 35.5712 137.816ZM49.8283 152.24C48.9643 152.224 48.2443 152.128 47.6683 151.952C47.1083 151.776 46.6603 151.528 46.3243 151.208C45.9883 150.872 45.7483 150.464 45.6043 149.984C45.4763 149.488 45.4123 148.928 45.4123 148.304V133.856L48.3163 133.376V147.752C48.3163 148.104 48.3403 148.4 48.3883 148.64C48.4523 148.88 48.5563 149.088 48.7003 149.264C48.8443 149.424 49.0363 149.552 49.2763 149.648C49.5323 149.728 49.8523 149.792 50.2363 149.84L49.8283 152.24ZM57.0013 149.96C57.8973 149.96 58.5773 149.912 59.0413 149.816V146.6C58.8813 146.552 58.6493 146.504 58.3453 146.456C58.0413 146.408 57.7053 146.384 57.3373 146.384C57.0173 146.384 56.6893 146.408 56.3533 146.456C56.0333 146.504 55.7373 146.592 55.4653 146.72C55.2093 146.848 55.0013 147.032 54.8413 147.272C54.6813 147.496 54.6013 147.784 54.6013 148.136C54.6013 148.824 54.8173 149.304 55.2493 149.576C55.6813 149.832 56.2653 149.96 57.0013 149.96ZM56.7613 139.136C57.7213 139.136 58.5293 139.256 59.1853 139.496C59.8413 139.736 60.3613 140.072 60.7453 140.504C61.1453 140.936 61.4253 141.464 61.5853 142.088C61.7613 142.696 61.8493 143.368 61.8493 144.104V151.712C61.4013 151.808 60.7213 151.92 59.8093 152.048C58.9133 152.192 57.8973 152.264 56.7613 152.264C56.0093 152.264 55.3213 152.192 54.6973 152.048C54.0733 151.904 53.5373 151.672 53.0893 151.352C52.6573 151.032 52.3133 150.616 52.0573 150.104C51.8173 149.592 51.6973 148.96 51.6973 148.208C51.6973 147.488 51.8333 146.88 52.1053 146.384C52.3933 145.888 52.7773 145.488 53.2573 145.184C53.7373 144.864 54.2893 144.64 54.9133 144.512C55.5533 144.368 56.2173 144.296 56.9053 144.296C57.2253 144.296 57.5613 144.32 57.9133 144.368C58.2653 144.4 58.6413 144.464 59.0413 144.56V144.08C59.0413 143.744 59.0013 143.424 58.9213 143.12C58.8413 142.816 58.6973 142.552 58.4893 142.328C58.2973 142.088 58.0333 141.904 57.6973 141.776C57.3773 141.648 56.9693 141.584 56.4733 141.584C55.8013 141.584 55.1853 141.632 54.6253 141.728C54.0653 141.824 53.6093 141.936 53.2573 142.064L52.8973 139.712C53.2653 139.584 53.8013 139.456 54.5053 139.328C55.2093 139.2 55.9613 139.136 56.7613 139.136ZM65.2616 136.136L68.1656 135.656V139.448H72.6296V141.872H68.1656V146.984C68.1656 147.992 68.3256 148.712 68.6456 149.144C68.9656 149.576 69.5096 149.792 70.2776 149.792C70.8056 149.792 71.2696 149.736 71.6696 149.624C72.0856 149.512 72.4136 149.408 72.6536 149.312L73.1336 151.616C72.7976 151.76 72.3576 151.904 71.8136 152.048C71.2696 152.208 70.6296 152.288 69.8936 152.288C68.9976 152.288 68.2456 152.168 67.6376 151.928C67.0456 151.688 66.5736 151.344 66.2216 150.896C65.8696 150.432 65.6216 149.88 65.4776 149.24C65.3336 148.584 65.2616 147.84 65.2616 147.008V136.136ZM78.3649 152H75.4609V139.448H78.3649V152ZM78.6769 135.776C78.6769 136.32 78.5009 136.752 78.1489 137.072C77.7969 137.392 77.3809 137.552 76.9009 137.552C76.4049 137.552 75.9809 137.392 75.6289 137.072C75.2769 136.752 75.1009 136.32 75.1009 135.776C75.1009 135.216 75.2769 134.776 75.6289 134.456C75.9809 134.136 76.4049 133.976 76.9009 133.976C77.3809 133.976 77.7969 134.136 78.1489 134.456C78.5009 134.776 78.6769 135.216 78.6769 135.776ZM82.0697 139.856C82.6297 139.696 83.3577 139.544 84.2537 139.4C85.1497 139.256 86.1417 139.184 87.2297 139.184C88.2537 139.184 89.1097 139.328 89.7977 139.616C90.4857 139.888 91.0297 140.28 91.4297 140.792C91.8457 141.288 92.1337 141.896 92.2937 142.616C92.4697 143.32 92.5577 144.096 92.5577 144.944V152H89.6537V145.4C89.6537 144.728 89.6057 144.16 89.5097 143.696C89.4297 143.216 89.2857 142.832 89.0777 142.544C88.8857 142.24 88.6137 142.024 88.2617 141.896C87.9257 141.752 87.5097 141.68 87.0137 141.68C86.6457 141.68 86.2617 141.704 85.8617 141.752C85.4617 141.8 85.1657 141.84 84.9737 141.872V152H82.0697V139.856ZM106.405 151.616C105.845 151.76 105.117 151.904 104.221 152.048C103.325 152.208 102.341 152.288 101.269 152.288C100.261 152.288 99.4127 152.144 98.7247 151.856C98.0527 151.568 97.5087 151.168 97.0927 150.656C96.6927 150.144 96.4047 149.536 96.2287 148.832C96.0527 148.112 95.9647 147.328 95.9647 146.48V139.448H98.8687V146.024C98.8687 147.368 99.0607 148.328 99.4447 148.904C99.8447 149.48 100.533 149.768 101.509 149.768C101.861 149.768 102.229 149.752 102.613 149.72C103.013 149.688 103.309 149.648 103.501 149.6V139.448H106.405V151.616ZM117.253 145.4C117.253 144.088 117.085 143.144 116.749 142.568C116.429 141.976 115.821 141.68 114.925 141.68C114.605 141.68 114.253 141.704 113.869 141.752C113.485 141.8 113.197 141.84 113.005 141.872V152H110.101V139.856C110.661 139.696 111.389 139.544 112.285 139.4C113.197 139.256 114.157 139.184 115.165 139.184C116.029 139.184 116.733 139.296 117.277 139.52C117.837 139.744 118.301 140.04 118.669 140.408C118.845 140.28 119.069 140.144 119.341 140C119.613 139.856 119.917 139.728 120.253 139.616C120.589 139.488 120.941 139.384 121.309 139.304C121.693 139.224 122.077 139.184 122.461 139.184C123.437 139.184 124.237 139.328 124.861 139.616C125.501 139.888 125.997 140.28 126.349 140.792C126.717 141.288 126.965 141.896 127.093 142.616C127.237 143.32 127.309 144.096 127.309 144.944V152H124.405V145.4C124.405 144.088 124.245 143.144 123.925 142.568C123.605 141.976 122.989 141.68 122.077 141.68C121.613 141.68 121.173 141.76 120.757 141.92C120.341 142.064 120.029 142.208 119.821 142.352C119.949 142.752 120.037 143.176 120.085 143.624C120.133 144.072 120.157 144.552 120.157 145.064V152H117.253V145.4Z" fill="#333333"></path><circle cx="78.8389" cy="72" r="40" fill="#00C8FF"></circle><path d="M68.1108 60.1094C67.8311 60.1094 67.5628 60.2205 67.3651 60.4183C67.1673 60.6161 67.0562 60.8843 67.0562 61.164V88.9461C67.0561 89.1318 67.105 89.3142 67.198 89.4749C67.291 89.6356 67.4248 89.7689 67.5858 89.8613C67.7469 89.9537 67.9294 90.002 68.1151 90.0013C68.3008 90.0005 68.483 89.9507 68.6433 89.857L78.8361 83.8981L80.2208 72.6625L78.8361 60.1094H68.1108Z" fill="#828282"></path><path d="M89.5644 60.1094H78.8391V83.8981L89.032 89.857C89.1922 89.9507 89.3743 90.0005 89.5599 90.0013C89.7455 90.0021 89.9281 89.9539 90.0891 89.8615C90.2501 89.7692 90.3839 89.636 90.4769 89.4754C90.57 89.3148 90.619 89.1325 90.6191 88.9469V61.164C90.6191 60.8843 90.508 60.6161 90.3102 60.4183C90.1124 60.2205 89.8441 60.1094 89.5644 60.1094Z" fill="#999999"></path><path d="M62.7729 54C62.4932 54 62.225 54.1111 62.0272 54.3089C61.8294 54.5067 61.7183 54.775 61.7183 55.0547C61.7203 56.9539 62.4756 58.7747 63.8186 60.1176C65.1615 61.4605 66.9823 62.2159 68.8815 62.2179H78.8388L80.2235 58.3905L78.8388 54H62.7729Z" fill="#767676"></path><path d="M94.9047 54H78.8389V62.2179H88.7961C90.6953 62.2159 92.5161 61.4605 93.8591 60.1176C95.202 58.7747 95.9574 56.9539 95.9594 55.0547C95.9594 54.9162 95.9321 54.779 95.8791 54.6511C95.8261 54.5231 95.7484 54.4068 95.6505 54.3089C95.5525 54.211 95.4363 54.1333 95.3083 54.0803C95.1804 54.0273 95.0432 54 94.9047 54V54Z" fill="#767676"></path><path d="M77.8874 66.44L76.6422 70.2674H72.6141C72.4029 70.2675 72.1973 70.3345 72.0265 70.4586C71.8558 70.5828 71.7287 70.7578 71.6634 70.9586C71.5982 71.1594 71.5982 71.3757 71.6634 71.5765C71.7286 71.7773 71.8556 71.9523 72.0263 72.0765L75.2856 74.4444L74.0404 78.2718C73.9752 78.4726 73.9753 78.6889 74.0405 78.8897C74.1058 79.0905 74.2329 79.2655 74.4037 79.3897C74.5745 79.5138 74.7801 79.5807 74.9913 79.5808C75.2024 79.5809 75.4081 79.5142 75.579 79.3903L78.8383 77.0224L79.7186 72.7697L78.8383 65.7383C78.6272 65.7383 78.4215 65.8052 78.2507 65.9292C78.0799 66.0533 77.9528 66.2282 77.8874 66.4289V66.44Z" fill="#706F6F"></path><path opacity="0.997" d="M86.0138 70.9607C85.9484 70.7599 85.8212 70.585 85.6504 70.461C85.4796 70.3369 85.274 70.2701 85.0629 70.27H81.0347L79.7895 66.4426C79.7242 66.2419 79.597 66.0669 79.4262 65.9429C79.2554 65.8188 79.0497 65.752 78.8386 65.752V77.0284L82.0979 79.3963C82.2708 79.5152 82.4758 79.5788 82.6856 79.5788C82.8955 79.5788 83.1004 79.5152 83.2733 79.3963C83.4444 79.2723 83.5718 79.0972 83.637 78.8962C83.7023 78.6952 83.7021 78.4787 83.6365 78.2779L82.3913 74.4504L85.6506 72.0825C85.8222 71.9581 85.9498 71.7824 86.0151 71.5808C86.0804 71.3792 86.0799 71.162 86.0138 70.9607Z" fill="#848383"></path></svg>