<svg xmlns="http://www.w3.org/2000/svg" width="182" height="225" viewBox="0 0 182 225" fill="none"><path d="M0.743652 10.3906C0.743652 4.86778 5.22081 0.390625 10.7437 0.390625H171.124C176.647 0.390625 181.124 4.86778 181.124 10.3906V214.391C181.124 219.913 176.647 224.391 171.124 224.391H10.7437C5.22082 224.391 0.743652 219.913 0.743652 214.391V10.3906Z" fill="white"></path><path fill-rule="evenodd" clip-rule="evenodd" d="M171.124 0.890625H10.7437C5.49695 0.890625 1.24365 5.14392 1.24365 10.3906V214.391C1.24365 219.637 5.49696 223.891 10.7437 223.891H171.124C176.371 223.891 180.624 219.637 180.624 214.391V10.3906C180.624 5.14392 176.371 0.890625 171.124 0.890625ZM10.7437 0.390625C5.2208 0.390625 0.743652 4.86778 0.743652 10.3906V214.391C0.743652 219.913 5.22082 224.391 10.7437 224.391H171.124C176.647 224.391 181.124 219.913 181.124 214.391V10.3906C181.124 4.86778 176.647 0.390625 171.124 0.390625H10.7437Z" fill="#CCCCCC"></path><path d="M29.0446 178.047V179.391H22.3726V168.303H23.9246V178.047H29.0446ZM37.73 175.231C37.73 175.892 37.634 176.489 37.442 177.023C37.25 177.556 36.978 178.015 36.626 178.399C36.2846 178.783 35.874 179.081 35.394 179.295C34.914 179.497 34.3913 179.599 33.826 179.599C33.2606 179.599 32.738 179.497 32.258 179.295C31.778 179.081 31.362 178.783 31.01 178.399C30.6686 178.015 30.402 177.556 30.21 177.023C30.018 176.489 29.922 175.892 29.922 175.231C29.922 174.58 30.018 173.988 30.21 173.455C30.402 172.911 30.6686 172.447 31.01 172.063C31.362 171.679 31.778 171.385 32.258 171.183C32.738 170.969 33.2606 170.863 33.826 170.863C34.3913 170.863 34.914 170.969 35.394 171.183C35.874 171.385 36.2846 171.679 36.626 172.063C36.978 172.447 37.25 172.911 37.442 173.455C37.634 173.988 37.73 174.58 37.73 175.231ZM36.178 175.231C36.178 174.292 35.9646 173.551 35.538 173.007C35.122 172.452 34.5513 172.175 33.826 172.175C33.1006 172.175 32.5246 172.452 32.098 173.007C31.682 173.551 31.474 174.292 31.474 175.231C31.474 176.169 31.682 176.916 32.098 177.471C32.5246 178.015 33.1006 178.287 33.826 178.287C34.5513 178.287 35.122 178.015 35.538 177.471C35.9646 176.916 36.178 176.169 36.178 175.231ZM41.2155 171.071H44.3675V172.319H41.2155V176.159C41.2155 176.575 41.2475 176.921 41.3115 177.199C41.3755 177.465 41.4715 177.679 41.5995 177.839C41.7275 177.988 41.8875 178.095 42.0795 178.159C42.2715 178.223 42.4955 178.255 42.7515 178.255C43.1995 178.255 43.5568 178.207 43.8235 178.111C44.1008 178.004 44.2928 177.929 44.3995 177.887L44.6875 179.119C44.5381 179.193 44.2768 179.284 43.9035 179.391C43.5301 179.508 43.1035 179.567 42.6235 179.567C42.0581 179.567 41.5888 179.497 41.2155 179.359C40.8528 179.209 40.5595 178.991 40.3355 178.703C40.1115 178.415 39.9515 178.063 39.8555 177.647C39.7701 177.22 39.7275 176.729 39.7275 176.175V168.751L41.2155 168.495V171.071ZM48.197 178.319C48.805 178.319 49.253 178.239 49.541 178.079C49.8396 177.919 49.989 177.663 49.989 177.311C49.989 176.948 49.845 176.66 49.557 176.447C49.269 176.233 48.7943 175.993 48.133 175.727C47.813 175.599 47.5036 175.471 47.205 175.343C46.917 175.204 46.6663 175.044 46.453 174.863C46.2396 174.681 46.069 174.463 45.941 174.207C45.813 173.951 45.749 173.636 45.749 173.263C45.749 172.527 46.021 171.945 46.565 171.519C47.109 171.081 47.8503 170.863 48.789 170.863C49.0236 170.863 49.2583 170.879 49.493 170.911C49.7276 170.932 49.9463 170.964 50.149 171.007C50.3516 171.039 50.5276 171.076 50.677 171.119C50.837 171.161 50.9596 171.199 51.045 171.231L50.773 172.511C50.613 172.425 50.3623 172.34 50.021 172.255C49.6796 172.159 49.269 172.111 48.789 172.111C48.373 172.111 48.0103 172.196 47.701 172.367C47.3916 172.527 47.237 172.783 47.237 173.135C47.237 173.316 47.269 173.476 47.333 173.615C47.4076 173.753 47.5143 173.881 47.653 173.999C47.8023 174.105 47.9836 174.207 48.197 174.303C48.4103 174.399 48.6663 174.5 48.965 174.607C49.3596 174.756 49.7116 174.905 50.021 175.055C50.3303 175.193 50.5916 175.359 50.805 175.551C51.029 175.743 51.1996 175.977 51.317 176.255C51.4343 176.521 51.493 176.852 51.493 177.247C51.493 178.015 51.205 178.596 50.629 178.991C50.0636 179.385 49.253 179.583 48.197 179.583C47.461 179.583 46.885 179.519 46.469 179.391C46.053 179.273 45.7703 179.183 45.621 179.119L45.893 177.839C46.0636 177.903 46.3356 177.999 46.709 178.127C47.0823 178.255 47.5783 178.319 48.197 178.319ZM55.1616 178.527C55.1616 178.815 55.0656 179.065 54.8736 179.279C54.6816 179.492 54.4202 179.599 54.0896 179.599C53.7589 179.599 53.4976 179.492 53.3056 179.279C53.1136 179.065 53.0176 178.815 53.0176 178.527C53.0176 178.239 53.1136 177.988 53.3056 177.775C53.4976 177.561 53.7589 177.455 54.0896 177.455C54.4202 177.455 54.6816 177.561 54.8736 177.775C55.0656 177.988 55.1616 178.239 55.1616 178.527ZM55.1616 172.143C55.1616 172.431 55.0656 172.681 54.8736 172.895C54.6816 173.108 54.4202 173.215 54.0896 173.215C53.7589 173.215 53.4976 173.108 53.3056 172.895C53.1136 172.681 53.0176 172.431 53.0176 172.143C53.0176 171.855 53.1136 171.604 53.3056 171.391C53.4976 171.177 53.7589 171.071 54.0896 171.071C54.4202 171.071 54.6816 171.177 54.8736 171.391C55.0656 171.604 55.1616 171.855 55.1616 172.143ZM62.9462 172.575C64.5569 172.639 65.7355 172.991 66.4822 173.631C67.2395 174.271 67.6182 175.14 67.6182 176.239C67.6182 176.729 67.5329 177.183 67.3622 177.599C67.2022 178.015 66.9515 178.372 66.6102 178.671C66.2795 178.969 65.8582 179.204 65.3462 179.375C64.8342 179.545 64.2262 179.631 63.5222 179.631C63.2449 179.631 62.9622 179.609 62.6742 179.567C62.3862 179.524 62.1195 179.471 61.8742 179.407C61.6289 179.343 61.4102 179.279 61.2182 179.215C61.0262 179.151 60.8875 179.097 60.8022 179.055L61.0902 177.759C61.2715 177.844 61.5649 177.956 61.9702 178.095C62.3862 178.233 62.8929 178.303 63.4902 178.303C63.9702 178.303 64.3702 178.249 64.6902 178.143C65.0209 178.036 65.2875 177.892 65.4902 177.711C65.6929 177.529 65.8369 177.321 65.9222 177.087C66.0182 176.841 66.0662 176.585 66.0662 176.319C66.0662 175.913 65.9969 175.556 65.8582 175.247C65.7195 174.927 65.4742 174.66 65.1222 174.447C64.7702 174.233 64.3009 174.073 63.7142 173.967C63.1275 173.849 62.3862 173.791 61.4902 173.791C61.5542 173.268 61.6022 172.777 61.6342 172.319C61.6769 171.86 61.7142 171.412 61.7462 170.975C61.7782 170.537 61.8049 170.105 61.8262 169.679C61.8475 169.241 61.8689 168.783 61.8902 168.303H67.2342V169.567H63.1862C63.1755 169.727 63.1595 169.945 63.1382 170.223C63.1169 170.489 63.0955 170.772 63.0742 171.071C63.0529 171.359 63.0315 171.641 63.0102 171.919C62.9889 172.196 62.9675 172.415 62.9462 172.575ZM69.5935 173.839C69.5935 171.983 69.9188 170.553 70.5695 169.551C71.2308 168.548 72.1428 168.047 73.3055 168.047C74.4681 168.047 75.3748 168.548 76.0255 169.551C76.6868 170.553 77.0175 171.983 77.0175 173.839C77.0175 175.695 76.6868 177.124 76.0255 178.127C75.3748 179.129 74.4681 179.631 73.3055 179.631C72.1428 179.631 71.2308 179.129 70.5695 178.127C69.9188 177.124 69.5935 175.695 69.5935 173.839ZM75.4495 173.839C75.4495 173.231 75.4121 172.655 75.3375 172.111C75.2735 171.567 75.1561 171.092 74.9855 170.687C74.8255 170.281 74.6068 169.961 74.3295 169.727C74.0521 169.481 73.7108 169.359 73.3055 169.359C72.9001 169.359 72.5588 169.481 72.2815 169.727C72.0041 169.961 71.7801 170.281 71.6095 170.687C71.4495 171.092 71.3321 171.567 71.2575 172.111C71.1935 172.655 71.1615 173.231 71.1615 173.839C71.1615 174.447 71.1935 175.023 71.2575 175.567C71.3321 176.111 71.4495 176.585 71.6095 176.991C71.7801 177.396 72.0041 177.721 72.2815 177.967C72.5588 178.201 72.9001 178.319 73.3055 178.319C73.7108 178.319 74.0521 178.201 74.3295 177.967C74.6068 177.721 74.8255 177.396 74.9855 176.991C75.1561 176.585 75.2735 176.111 75.3375 175.567C75.4121 175.023 75.4495 174.447 75.4495 173.839ZM78.6247 173.839C78.6247 171.983 78.95 170.553 79.6007 169.551C80.262 168.548 81.174 168.047 82.3367 168.047C83.4994 168.047 84.406 168.548 85.0567 169.551C85.718 170.553 86.0487 171.983 86.0487 173.839C86.0487 175.695 85.718 177.124 85.0567 178.127C84.406 179.129 83.4994 179.631 82.3367 179.631C81.174 179.631 80.262 179.129 79.6007 178.127C78.95 177.124 78.6247 175.695 78.6247 173.839ZM84.4807 173.839C84.4807 173.231 84.4434 172.655 84.3687 172.111C84.3047 171.567 84.1874 171.092 84.0167 170.687C83.8567 170.281 83.638 169.961 83.3607 169.727C83.0834 169.481 82.742 169.359 82.3367 169.359C81.9314 169.359 81.59 169.481 81.3127 169.727C81.0354 169.961 80.8114 170.281 80.6407 170.687C80.4807 171.092 80.3634 171.567 80.2887 172.111C80.2247 172.655 80.1927 173.231 80.1927 173.839C80.1927 174.447 80.2247 175.023 80.2887 175.567C80.3634 176.111 80.4807 176.585 80.6407 176.991C80.8114 177.396 81.0354 177.721 81.3127 177.967C81.59 178.201 81.9314 178.319 82.3367 178.319C82.742 178.319 83.0834 178.201 83.3607 177.967C83.638 177.721 83.8567 177.396 84.0167 176.991C84.1874 176.585 84.3047 176.111 84.3687 175.567C84.4434 175.023 84.4807 174.447 84.4807 173.839ZM90.9751 173.903H94.9271V175.295H90.9751V173.903ZM99.6835 175.551C99.8861 175.081 100.163 174.537 100.515 173.919C100.867 173.289 101.262 172.644 101.699 171.983C102.147 171.321 102.622 170.671 103.123 170.031C103.635 169.391 104.147 168.815 104.659 168.303H106.083V175.343H107.395V176.559H106.083V179.391H104.643V176.559H99.6835V175.551ZM104.643 170.063C104.323 170.404 103.998 170.788 103.667 171.215C103.347 171.631 103.033 172.068 102.723 172.527C102.414 172.985 102.121 173.455 101.843 173.935C101.577 174.415 101.337 174.884 101.123 175.343H104.643V170.063ZM116.091 172.735C116.091 174.932 115.541 176.596 114.443 177.727C113.355 178.847 111.733 179.412 109.579 179.423L109.531 178.175C110.203 178.175 110.805 178.111 111.339 177.983C111.883 177.855 112.357 177.652 112.763 177.375C113.168 177.087 113.504 176.719 113.771 176.271C114.048 175.823 114.251 175.273 114.379 174.623C114.101 174.751 113.787 174.857 113.435 174.943C113.083 175.017 112.72 175.055 112.347 175.055C111.717 175.055 111.184 174.964 110.747 174.783C110.309 174.591 109.952 174.34 109.675 174.031C109.397 173.711 109.195 173.348 109.067 172.943C108.949 172.527 108.891 172.095 108.891 171.647C108.891 171.252 108.96 170.841 109.099 170.415C109.237 169.988 109.445 169.599 109.723 169.247C110.011 168.895 110.373 168.607 110.811 168.383C111.248 168.159 111.765 168.047 112.363 168.047C112.971 168.047 113.504 168.153 113.963 168.367C114.432 168.58 114.821 168.889 115.131 169.295C115.451 169.7 115.691 170.196 115.851 170.783C116.011 171.359 116.091 172.009 116.091 172.735ZM112.507 173.839C112.88 173.839 113.232 173.807 113.563 173.743C113.893 173.668 114.213 173.561 114.523 173.423C114.533 173.305 114.539 173.193 114.539 173.087C114.539 172.969 114.539 172.852 114.539 172.735C114.539 172.276 114.507 171.839 114.443 171.423C114.379 170.996 114.261 170.628 114.091 170.319C113.931 169.999 113.712 169.748 113.435 169.567C113.157 169.375 112.805 169.279 112.379 169.279C112.027 169.279 111.728 169.353 111.483 169.503C111.237 169.652 111.035 169.844 110.875 170.079C110.715 170.303 110.597 170.553 110.523 170.831C110.459 171.097 110.427 171.359 110.427 171.615C110.427 172.34 110.597 172.895 110.939 173.279C111.291 173.652 111.813 173.839 112.507 173.839ZM125.122 172.735C125.122 174.932 124.573 176.596 123.474 177.727C122.386 178.847 120.765 179.412 118.61 179.423L118.562 178.175C119.234 178.175 119.837 178.111 120.37 177.983C120.914 177.855 121.389 177.652 121.794 177.375C122.199 177.087 122.535 176.719 122.802 176.271C123.079 175.823 123.282 175.273 123.41 174.623C123.133 174.751 122.818 174.857 122.466 174.943C122.114 175.017 121.751 175.055 121.378 175.055C120.749 175.055 120.215 174.964 119.778 174.783C119.341 174.591 118.983 174.34 118.706 174.031C118.429 173.711 118.226 173.348 118.098 172.943C117.981 172.527 117.922 172.095 117.922 171.647C117.922 171.252 117.991 170.841 118.13 170.415C118.269 169.988 118.477 169.599 118.754 169.247C119.042 168.895 119.405 168.607 119.842 168.383C120.279 168.159 120.797 168.047 121.394 168.047C122.002 168.047 122.535 168.153 122.994 168.367C123.463 168.58 123.853 168.889 124.162 169.295C124.482 169.7 124.722 170.196 124.882 170.783C125.042 171.359 125.122 172.009 125.122 172.735ZM121.538 173.839C121.911 173.839 122.263 173.807 122.594 173.743C122.925 173.668 123.245 173.561 123.554 173.423C123.565 173.305 123.57 173.193 123.57 173.087C123.57 172.969 123.57 172.852 123.57 172.735C123.57 172.276 123.538 171.839 123.474 171.423C123.41 170.996 123.293 170.628 123.122 170.319C122.962 169.999 122.743 169.748 122.466 169.567C122.189 169.375 121.837 169.279 121.41 169.279C121.058 169.279 120.759 169.353 120.514 169.503C120.269 169.652 120.066 169.844 119.906 170.079C119.746 170.303 119.629 170.553 119.554 170.831C119.49 171.097 119.458 171.359 119.458 171.615C119.458 172.34 119.629 172.895 119.97 173.279C120.322 173.652 120.845 173.839 121.538 173.839ZM134.153 172.735C134.153 174.932 133.604 176.596 132.505 177.727C131.417 178.847 129.796 179.412 127.641 179.423L127.593 178.175C128.265 178.175 128.868 178.111 129.401 177.983C129.945 177.855 130.42 177.652 130.825 177.375C131.231 177.087 131.567 176.719 131.833 176.271C132.111 175.823 132.313 175.273 132.441 174.623C132.164 174.751 131.849 174.857 131.497 174.943C131.145 175.017 130.783 175.055 130.409 175.055C129.78 175.055 129.247 174.964 128.809 174.783C128.372 174.591 128.015 174.34 127.737 174.031C127.46 173.711 127.257 173.348 127.129 172.943C127.012 172.527 126.953 172.095 126.953 171.647C126.953 171.252 127.023 170.841 127.161 170.415C127.3 169.988 127.508 169.599 127.785 169.247C128.073 168.895 128.436 168.607 128.873 168.383C129.311 168.159 129.828 168.047 130.425 168.047C131.033 168.047 131.567 168.153 132.025 168.367C132.495 168.58 132.884 168.889 133.193 169.295C133.513 169.7 133.753 170.196 133.913 170.783C134.073 171.359 134.153 172.009 134.153 172.735ZM130.569 173.839C130.943 173.839 131.295 173.807 131.625 173.743C131.956 173.668 132.276 173.561 132.585 173.423C132.596 173.305 132.601 173.193 132.601 173.087C132.601 172.969 132.601 172.852 132.601 172.735C132.601 172.276 132.569 171.839 132.505 171.423C132.441 170.996 132.324 170.628 132.153 170.319C131.993 169.999 131.775 169.748 131.497 169.567C131.22 169.375 130.868 169.279 130.441 169.279C130.089 169.279 129.791 169.353 129.545 169.503C129.3 169.652 129.097 169.844 128.937 170.079C128.777 170.303 128.66 170.553 128.585 170.831C128.521 171.097 128.489 171.359 128.489 171.615C128.489 172.34 128.66 172.895 129.001 173.279C129.353 173.652 129.876 173.839 130.569 173.839ZM138.208 178.527C138.208 178.815 138.112 179.065 137.92 179.279C137.728 179.492 137.467 179.599 137.136 179.599C136.806 179.599 136.544 179.492 136.352 179.279C136.16 179.065 136.064 178.815 136.064 178.527C136.064 178.239 136.16 177.988 136.352 177.775C136.544 177.561 136.806 177.455 137.136 177.455C137.467 177.455 137.728 177.561 137.92 177.775C138.112 177.988 138.208 178.239 138.208 178.527ZM147.122 172.735C147.122 174.932 146.573 176.596 145.474 177.727C144.386 178.847 142.765 179.412 140.61 179.423L140.562 178.175C141.234 178.175 141.837 178.111 142.37 177.983C142.914 177.855 143.389 177.652 143.794 177.375C144.199 177.087 144.535 176.719 144.802 176.271C145.079 175.823 145.282 175.273 145.41 174.623C145.133 174.751 144.818 174.857 144.466 174.943C144.114 175.017 143.751 175.055 143.378 175.055C142.749 175.055 142.215 174.964 141.778 174.783C141.341 174.591 140.983 174.34 140.706 174.031C140.429 173.711 140.226 173.348 140.098 172.943C139.981 172.527 139.922 172.095 139.922 171.647C139.922 171.252 139.991 170.841 140.13 170.415C140.269 169.988 140.477 169.599 140.754 169.247C141.042 168.895 141.405 168.607 141.842 168.383C142.279 168.159 142.797 168.047 143.394 168.047C144.002 168.047 144.535 168.153 144.994 168.367C145.463 168.58 145.853 168.889 146.162 169.295C146.482 169.7 146.722 170.196 146.882 170.783C147.042 171.359 147.122 172.009 147.122 172.735ZM143.538 173.839C143.911 173.839 144.263 173.807 144.594 173.743C144.925 173.668 145.245 173.561 145.554 173.423C145.565 173.305 145.57 173.193 145.57 173.087C145.57 172.969 145.57 172.852 145.57 172.735C145.57 172.276 145.538 171.839 145.474 171.423C145.41 170.996 145.293 170.628 145.122 170.319C144.962 169.999 144.743 169.748 144.466 169.567C144.189 169.375 143.837 169.279 143.41 169.279C143.058 169.279 142.759 169.353 142.514 169.503C142.269 169.652 142.066 169.844 141.906 170.079C141.746 170.303 141.629 170.553 141.554 170.831C141.49 171.097 141.458 171.359 141.458 171.615C141.458 172.34 141.629 172.895 141.97 173.279C142.322 173.652 142.845 173.839 143.538 173.839ZM156.153 172.735C156.153 174.932 155.604 176.596 154.505 177.727C153.417 178.847 151.796 179.412 149.641 179.423L149.593 178.175C150.265 178.175 150.868 178.111 151.401 177.983C151.945 177.855 152.42 177.652 152.825 177.375C153.231 177.087 153.567 176.719 153.833 176.271C154.111 175.823 154.313 175.273 154.441 174.623C154.164 174.751 153.849 174.857 153.497 174.943C153.145 175.017 152.783 175.055 152.409 175.055C151.78 175.055 151.247 174.964 150.809 174.783C150.372 174.591 150.015 174.34 149.737 174.031C149.46 173.711 149.257 173.348 149.129 172.943C149.012 172.527 148.953 172.095 148.953 171.647C148.953 171.252 149.023 170.841 149.161 170.415C149.3 169.988 149.508 169.599 149.785 169.247C150.073 168.895 150.436 168.607 150.873 168.383C151.311 168.159 151.828 168.047 152.425 168.047C153.033 168.047 153.567 168.153 154.025 168.367C154.495 168.58 154.884 168.889 155.193 169.295C155.513 169.7 155.753 170.196 155.913 170.783C156.073 171.359 156.153 172.009 156.153 172.735ZM152.569 173.839C152.943 173.839 153.295 173.807 153.625 173.743C153.956 173.668 154.276 173.561 154.585 173.423C154.596 173.305 154.601 173.193 154.601 173.087C154.601 172.969 154.601 172.852 154.601 172.735C154.601 172.276 154.569 171.839 154.505 171.423C154.441 170.996 154.324 170.628 154.153 170.319C153.993 169.999 153.775 169.748 153.497 169.567C153.22 169.375 152.868 169.279 152.441 169.279C152.089 169.279 151.791 169.353 151.545 169.503C151.3 169.652 151.097 169.844 150.937 170.079C150.777 170.303 150.66 170.553 150.585 170.831C150.521 171.097 150.489 171.359 150.489 171.615C150.489 172.34 150.66 172.895 151.001 173.279C151.353 173.652 151.876 173.839 152.569 173.839ZM42.551 186.191C44.1083 186.191 45.303 186.489 46.135 187.087C46.9776 187.673 47.399 188.553 47.399 189.727C47.399 190.367 47.2816 190.916 47.047 191.375C46.823 191.823 46.4923 192.191 46.055 192.479C45.6283 192.756 45.1056 192.959 44.487 193.087C43.8683 193.215 43.1696 193.279 42.391 193.279H41.159V197.391H39.607V186.463C40.0443 186.356 40.5296 186.287 41.063 186.255C41.607 186.212 42.103 186.191 42.551 186.191ZM42.679 187.551C42.0176 187.551 41.511 187.567 41.159 187.599V191.951H42.327C42.8603 191.951 43.3403 191.919 43.767 191.855C44.1936 191.78 44.551 191.663 44.839 191.503C45.1376 191.332 45.367 191.103 45.527 190.815C45.687 190.527 45.767 190.159 45.767 189.711C45.767 189.284 45.6816 188.932 45.511 188.655C45.351 188.377 45.127 188.159 44.839 187.999C44.5616 187.828 44.2363 187.711 43.863 187.647C43.4896 187.583 43.095 187.551 42.679 187.551ZM56.2456 193.231C56.2456 193.892 56.1496 194.489 55.9576 195.023C55.7656 195.556 55.4936 196.015 55.1416 196.399C54.8002 196.783 54.3896 197.081 53.9096 197.295C53.4296 197.497 52.9069 197.599 52.3416 197.599C51.7762 197.599 51.2536 197.497 50.7736 197.295C50.2936 197.081 49.8776 196.783 49.5256 196.399C49.1842 196.015 48.9176 195.556 48.7256 195.023C48.5336 194.489 48.4376 193.892 48.4376 193.231C48.4376 192.58 48.5336 191.988 48.7256 191.455C48.9176 190.911 49.1842 190.447 49.5256 190.063C49.8776 189.679 50.2936 189.385 50.7736 189.183C51.2536 188.969 51.7762 188.863 52.3416 188.863C52.9069 188.863 53.4296 188.969 53.9096 189.183C54.3896 189.385 54.8002 189.679 55.1416 190.063C55.4936 190.447 55.7656 190.911 55.9576 191.455C56.1496 191.988 56.2456 192.58 56.2456 193.231ZM54.6936 193.231C54.6936 192.292 54.4802 191.551 54.0536 191.007C53.6376 190.452 53.0669 190.175 52.3416 190.175C51.6162 190.175 51.0402 190.452 50.6136 191.007C50.1976 191.551 49.9896 192.292 49.9896 193.231C49.9896 194.169 50.1976 194.916 50.6136 195.471C51.0402 196.015 51.6162 196.287 52.3416 196.287C53.0669 196.287 53.6376 196.015 54.0536 195.471C54.4802 194.916 54.6936 194.169 54.6936 193.231ZM59.8271 197.391H58.3391V189.071H59.8271V197.391ZM59.0751 187.567C58.8084 187.567 58.5791 187.481 58.3871 187.311C58.2057 187.129 58.1151 186.889 58.1151 186.591C58.1151 186.292 58.2057 186.057 58.3871 185.887C58.5791 185.705 58.8084 185.615 59.0751 185.615C59.3417 185.615 59.5657 185.705 59.7471 185.887C59.9391 186.057 60.0351 186.292 60.0351 186.591C60.0351 186.889 59.9391 187.129 59.7471 187.311C59.5657 187.481 59.3417 187.567 59.0751 187.567ZM62.386 189.311C62.7273 189.225 63.1806 189.135 63.746 189.039C64.3113 188.943 64.962 188.895 65.698 188.895C66.3593 188.895 66.9086 188.991 67.346 189.183C67.7833 189.364 68.13 189.625 68.386 189.967C68.6526 190.297 68.8393 190.697 68.946 191.167C69.0526 191.636 69.106 192.153 69.106 192.719V197.391H67.618V193.039C67.618 192.527 67.5806 192.089 67.506 191.727C67.442 191.364 67.33 191.071 67.17 190.847C67.01 190.623 66.7966 190.463 66.53 190.367C66.2633 190.26 65.9326 190.207 65.538 190.207C65.378 190.207 65.2126 190.212 65.042 190.223C64.8713 190.233 64.706 190.249 64.546 190.271C64.3966 190.281 64.258 190.297 64.13 190.319C64.0126 190.34 63.9273 190.356 63.874 190.367V197.391H62.386V189.311ZM72.9655 189.071H76.1175V190.319H72.9655V194.159C72.9655 194.575 72.9975 194.921 73.0615 195.199C73.1255 195.465 73.2215 195.679 73.3495 195.839C73.4775 195.988 73.6375 196.095 73.8295 196.159C74.0215 196.223 74.2455 196.255 74.5015 196.255C74.9495 196.255 75.3068 196.207 75.5735 196.111C75.8508 196.004 76.0428 195.929 76.1495 195.887L76.4375 197.119C76.2881 197.193 76.0268 197.284 75.6535 197.391C75.2801 197.508 74.8535 197.567 74.3735 197.567C73.8081 197.567 73.3388 197.497 72.9655 197.359C72.6028 197.209 72.3095 196.991 72.0855 196.703C71.8615 196.415 71.7015 196.063 71.6055 195.647C71.5201 195.22 71.4775 194.729 71.4775 194.175V186.751L72.9655 186.495V189.071ZM79.947 196.319C80.555 196.319 81.003 196.239 81.291 196.079C81.5896 195.919 81.739 195.663 81.739 195.311C81.739 194.948 81.595 194.66 81.307 194.447C81.019 194.233 80.5443 193.993 79.883 193.727C79.563 193.599 79.2536 193.471 78.955 193.343C78.667 193.204 78.4163 193.044 78.203 192.863C77.9896 192.681 77.819 192.463 77.691 192.207C77.563 191.951 77.499 191.636 77.499 191.263C77.499 190.527 77.771 189.945 78.315 189.519C78.859 189.081 79.6003 188.863 80.539 188.863C80.7736 188.863 81.0083 188.879 81.243 188.911C81.4776 188.932 81.6963 188.964 81.899 189.007C82.1016 189.039 82.2776 189.076 82.427 189.119C82.587 189.161 82.7096 189.199 82.795 189.231L82.523 190.511C82.363 190.425 82.1123 190.34 81.771 190.255C81.4296 190.159 81.019 190.111 80.539 190.111C80.123 190.111 79.7603 190.196 79.451 190.367C79.1416 190.527 78.987 190.783 78.987 191.135C78.987 191.316 79.019 191.476 79.083 191.615C79.1576 191.753 79.2643 191.881 79.403 191.999C79.5523 192.105 79.7336 192.207 79.947 192.303C80.1603 192.399 80.4163 192.5 80.715 192.607C81.1096 192.756 81.4616 192.905 81.771 193.055C82.0803 193.193 82.3416 193.359 82.555 193.551C82.779 193.743 82.9496 193.977 83.067 194.255C83.1843 194.521 83.243 194.852 83.243 195.247C83.243 196.015 82.955 196.596 82.379 196.991C81.8136 197.385 81.003 197.583 79.947 197.583C79.211 197.583 78.635 197.519 78.219 197.391C77.803 197.273 77.5203 197.183 77.371 197.119L77.643 195.839C77.8136 195.903 78.0856 195.999 78.459 196.127C78.8323 196.255 79.3283 196.319 79.947 196.319ZM85.0076 200.351H83.4876L88.9116 184.863H90.3996L85.0076 200.351ZM98.0602 196.047V197.391H91.3882V186.303H92.9402V196.047H98.0602ZM106.746 193.231C106.746 193.892 106.65 194.489 106.458 195.023C106.266 195.556 105.994 196.015 105.642 196.399C105.3 196.783 104.89 197.081 104.41 197.295C103.93 197.497 103.407 197.599 102.842 197.599C102.276 197.599 101.754 197.497 101.274 197.295C100.794 197.081 100.378 196.783 100.026 196.399C99.6842 196.015 99.4176 195.556 99.2256 195.023C99.0336 194.489 98.9376 193.892 98.9376 193.231C98.9376 192.58 99.0336 191.988 99.2256 191.455C99.4176 190.911 99.6842 190.447 100.026 190.063C100.378 189.679 100.794 189.385 101.274 189.183C101.754 188.969 102.276 188.863 102.842 188.863C103.407 188.863 103.93 188.969 104.41 189.183C104.89 189.385 105.3 189.679 105.642 190.063C105.994 190.447 106.266 190.911 106.458 191.455C106.65 191.988 106.746 192.58 106.746 193.231ZM105.194 193.231C105.194 192.292 104.98 191.551 104.554 191.007C104.138 190.452 103.567 190.175 102.842 190.175C102.116 190.175 101.54 190.452 101.114 191.007C100.698 191.551 100.49 192.292 100.49 193.231C100.49 194.169 100.698 194.916 101.114 195.471C101.54 196.015 102.116 196.287 102.842 196.287C103.567 196.287 104.138 196.015 104.554 195.471C104.98 194.916 105.194 194.169 105.194 193.231ZM110.231 189.071H113.383V190.319H110.231V194.159C110.231 194.575 110.263 194.921 110.327 195.199C110.391 195.465 110.487 195.679 110.615 195.839C110.743 195.988 110.903 196.095 111.095 196.159C111.287 196.223 111.511 196.255 111.767 196.255C112.215 196.255 112.572 196.207 112.839 196.111C113.116 196.004 113.308 195.929 113.415 195.887L113.703 197.119C113.554 197.193 113.292 197.284 112.919 197.391C112.546 197.508 112.119 197.567 111.639 197.567C111.074 197.567 110.604 197.497 110.231 197.359C109.868 197.209 109.575 196.991 109.351 196.703C109.127 196.415 108.967 196.063 108.871 195.647C108.786 195.22 108.743 194.729 108.743 194.175V186.751L110.231 186.495V189.071ZM117.037 196.527C117.037 196.815 116.941 197.065 116.749 197.279C116.557 197.492 116.295 197.599 115.965 197.599C115.634 197.599 115.373 197.492 115.181 197.279C114.989 197.065 114.893 196.815 114.893 196.527C114.893 196.239 114.989 195.988 115.181 195.775C115.373 195.561 115.634 195.455 115.965 195.455C116.295 195.455 116.557 195.561 116.749 195.775C116.941 195.988 117.037 196.239 117.037 196.527ZM117.037 190.143C117.037 190.431 116.941 190.681 116.749 190.895C116.557 191.108 116.295 191.215 115.965 191.215C115.634 191.215 115.373 191.108 115.181 190.895C114.989 190.681 114.893 190.431 114.893 190.143C114.893 189.855 114.989 189.604 115.181 189.391C115.373 189.177 115.634 189.071 115.965 189.071C116.295 189.071 116.557 189.177 116.749 189.391C116.941 189.604 117.037 189.855 117.037 190.143ZM122.437 191.839C122.437 189.983 122.763 188.553 123.413 187.551C124.075 186.548 124.987 186.047 126.149 186.047C127.312 186.047 128.219 186.548 128.869 187.551C129.531 188.553 129.861 189.983 129.861 191.839C129.861 193.695 129.531 195.124 128.869 196.127C128.219 197.129 127.312 197.631 126.149 197.631C124.987 197.631 124.075 197.129 123.413 196.127C122.763 195.124 122.437 193.695 122.437 191.839ZM128.293 191.839C128.293 191.231 128.256 190.655 128.181 190.111C128.117 189.567 128 189.092 127.829 188.687C127.669 188.281 127.451 187.961 127.173 187.727C126.896 187.481 126.555 187.359 126.149 187.359C125.744 187.359 125.403 187.481 125.125 187.727C124.848 187.961 124.624 188.281 124.453 188.687C124.293 189.092 124.176 189.567 124.101 190.111C124.037 190.655 124.005 191.231 124.005 191.839C124.005 192.447 124.037 193.023 124.101 193.567C124.176 194.111 124.293 194.585 124.453 194.991C124.624 195.396 124.848 195.721 125.125 195.967C125.403 196.201 125.744 196.319 126.149 196.319C126.555 196.319 126.896 196.201 127.173 195.967C127.451 195.721 127.669 195.396 127.829 194.991C128 194.585 128.117 194.111 128.181 193.567C128.256 193.023 128.293 192.447 128.293 191.839ZM133.708 196.527C133.708 196.815 133.612 197.065 133.42 197.279C133.228 197.492 132.967 197.599 132.636 197.599C132.306 197.599 132.044 197.492 131.852 197.279C131.66 197.065 131.564 196.815 131.564 196.527C131.564 196.239 131.66 195.988 131.852 195.775C132.044 195.561 132.306 195.455 132.636 195.455C132.967 195.455 133.228 195.561 133.42 195.775C133.612 195.988 133.708 196.239 133.708 196.527ZM137.214 197.391C137.278 196.537 137.427 195.641 137.662 194.703C137.907 193.753 138.206 192.836 138.558 191.951C138.91 191.055 139.294 190.228 139.71 189.471C140.137 188.703 140.553 188.079 140.958 187.599H135.566V186.303H142.622V187.535C142.27 187.94 141.881 188.5 141.454 189.215C141.027 189.919 140.622 190.713 140.238 191.599C139.865 192.473 139.539 193.412 139.262 194.415C138.995 195.407 138.83 196.399 138.766 197.391H137.214Z" fill="#333333"></path><path d="M47.4504 135.591C49.8664 135.591 51.7144 136.031 52.9944 136.911C54.2904 137.791 54.9384 139.167 54.9384 141.039C54.9384 142.015 54.7624 142.855 54.4104 143.559C54.0744 144.247 53.5784 144.815 52.9224 145.263C52.2664 145.695 51.4664 146.015 50.5224 146.223C49.5784 146.431 48.4984 146.535 47.2824 146.535H45.7704V152.391H42.7464V135.999C43.4504 135.839 44.2264 135.735 45.0744 135.687C45.9384 135.623 46.7304 135.591 47.4504 135.591ZM47.6664 138.207C46.8984 138.207 46.2664 138.231 45.7704 138.279V143.943H47.2344C48.6904 143.943 49.8104 143.743 50.5944 143.343C51.3784 142.927 51.7704 142.151 51.7704 141.015C51.7704 140.471 51.6664 140.015 51.4584 139.647C51.2504 139.279 50.9624 138.991 50.5944 138.783C50.2264 138.575 49.7864 138.431 49.2744 138.351C48.7784 138.255 48.2424 138.207 47.6664 138.207ZM61.9235 152.631C61.0595 152.615 60.3395 152.519 59.7635 152.343C59.2035 152.167 58.7555 151.919 58.4195 151.599C58.0835 151.263 57.8435 150.855 57.6995 150.375C57.5715 149.879 57.5075 149.319 57.5075 148.695V134.247L60.4115 133.767V148.143C60.4115 148.495 60.4355 148.791 60.4835 149.031C60.5475 149.271 60.6515 149.479 60.7955 149.655C60.9395 149.815 61.1315 149.943 61.3715 150.039C61.6275 150.119 61.9475 150.183 62.3315 150.231L61.9235 152.631ZM69.0965 150.351C69.9925 150.351 70.6725 150.303 71.1365 150.207V146.991C70.9765 146.943 70.7445 146.895 70.4405 146.847C70.1365 146.799 69.8005 146.775 69.4325 146.775C69.1125 146.775 68.7845 146.799 68.4485 146.847C68.1285 146.895 67.8325 146.983 67.5605 147.111C67.3045 147.239 67.0965 147.423 66.9365 147.663C66.7765 147.887 66.6965 148.175 66.6965 148.527C66.6965 149.215 66.9125 149.695 67.3445 149.967C67.7765 150.223 68.3605 150.351 69.0965 150.351ZM68.8565 139.527C69.8165 139.527 70.6245 139.647 71.2805 139.887C71.9365 140.127 72.4565 140.463 72.8405 140.895C73.2405 141.327 73.5205 141.855 73.6805 142.479C73.8565 143.087 73.9445 143.759 73.9445 144.495V152.103C73.4965 152.199 72.8165 152.311 71.9045 152.439C71.0085 152.583 69.9925 152.655 68.8565 152.655C68.1045 152.655 67.4165 152.583 66.7925 152.439C66.1685 152.295 65.6325 152.063 65.1845 151.743C64.7525 151.423 64.4085 151.007 64.1525 150.495C63.9125 149.983 63.7925 149.351 63.7925 148.599C63.7925 147.879 63.9285 147.271 64.2005 146.775C64.4885 146.279 64.8725 145.879 65.3525 145.575C65.8325 145.255 66.3845 145.031 67.0085 144.903C67.6485 144.759 68.3125 144.687 69.0005 144.687C69.3205 144.687 69.6565 144.711 70.0085 144.759C70.3605 144.791 70.7365 144.855 71.1365 144.951V144.471C71.1365 144.135 71.0965 143.815 71.0165 143.511C70.9365 143.207 70.7925 142.943 70.5845 142.719C70.3925 142.479 70.1285 142.295 69.7925 142.167C69.4725 142.039 69.0645 141.975 68.5685 141.975C67.8965 141.975 67.2805 142.023 66.7205 142.119C66.1605 142.215 65.7045 142.327 65.3525 142.455L64.9925 140.103C65.3605 139.975 65.8965 139.847 66.6005 139.719C67.3045 139.591 68.0565 139.527 68.8565 139.527ZM77.3568 136.527L80.2608 136.047V139.839H84.7248V142.263H80.2608V147.375C80.2608 148.383 80.4208 149.103 80.7408 149.535C81.0608 149.967 81.6048 150.183 82.3728 150.183C82.9008 150.183 83.3648 150.127 83.7648 150.015C84.1808 149.903 84.5088 149.799 84.7488 149.703L85.2288 152.007C84.8928 152.151 84.4528 152.295 83.9088 152.439C83.3648 152.599 82.7248 152.679 81.9888 152.679C81.0928 152.679 80.3408 152.559 79.7328 152.319C79.1408 152.079 78.6688 151.735 78.3168 151.287C77.9648 150.823 77.7168 150.271 77.5728 149.631C77.4288 148.975 77.3568 148.231 77.3568 147.399V136.527ZM90.4601 152.391H87.5561V139.839H90.4601V152.391ZM90.7721 136.167C90.7721 136.711 90.5961 137.143 90.2441 137.463C89.8921 137.783 89.4761 137.943 88.9961 137.943C88.5001 137.943 88.0761 137.783 87.7241 137.463C87.3721 137.143 87.1961 136.711 87.1961 136.167C87.1961 135.607 87.3721 135.167 87.7241 134.847C88.0761 134.527 88.5001 134.367 88.9961 134.367C89.4761 134.367 89.8921 134.527 90.2441 134.847C90.5961 135.167 90.7721 135.607 90.7721 136.167ZM94.1649 140.247C94.7249 140.087 95.4529 139.935 96.3489 139.791C97.2449 139.647 98.2369 139.575 99.3249 139.575C100.349 139.575 101.205 139.719 101.893 140.007C102.581 140.279 103.125 140.671 103.525 141.183C103.941 141.679 104.229 142.287 104.389 143.007C104.565 143.711 104.653 144.487 104.653 145.335V152.391H101.749V145.791C101.749 145.119 101.701 144.551 101.605 144.087C101.525 143.607 101.381 143.223 101.173 142.935C100.981 142.631 100.709 142.415 100.357 142.287C100.021 142.143 99.6049 142.071 99.1089 142.071C98.7409 142.071 98.3569 142.095 97.9569 142.143C97.5569 142.191 97.2609 142.231 97.0689 142.263V152.391H94.1649V140.247ZM118.5 152.007C117.94 152.151 117.212 152.295 116.316 152.439C115.42 152.599 114.436 152.679 113.364 152.679C112.356 152.679 111.508 152.535 110.82 152.247C110.148 151.959 109.604 151.559 109.188 151.047C108.788 150.535 108.5 149.927 108.324 149.223C108.148 148.503 108.06 147.719 108.06 146.871V139.839H110.964V146.415C110.964 147.759 111.156 148.719 111.54 149.295C111.94 149.871 112.628 150.159 113.604 150.159C113.956 150.159 114.324 150.143 114.708 150.111C115.108 150.079 115.404 150.039 115.596 149.991V139.839H118.5V152.007ZM129.348 145.791C129.348 144.479 129.18 143.535 128.844 142.959C128.524 142.367 127.916 142.071 127.02 142.071C126.7 142.071 126.348 142.095 125.964 142.143C125.58 142.191 125.292 142.231 125.1 142.263V152.391H122.196V140.247C122.756 140.087 123.484 139.935 124.38 139.791C125.292 139.647 126.252 139.575 127.26 139.575C128.124 139.575 128.828 139.687 129.372 139.911C129.932 140.135 130.396 140.431 130.764 140.799C130.94 140.671 131.164 140.535 131.436 140.391C131.708 140.247 132.012 140.119 132.348 140.007C132.684 139.879 133.036 139.775 133.404 139.695C133.788 139.615 134.172 139.575 134.556 139.575C135.532 139.575 136.332 139.719 136.956 140.007C137.596 140.279 138.092 140.671 138.444 141.183C138.812 141.679 139.06 142.287 139.188 143.007C139.332 143.711 139.404 144.487 139.404 145.335V152.391H136.5V145.791C136.5 144.479 136.34 143.535 136.02 142.959C135.7 142.367 135.084 142.071 134.172 142.071C133.708 142.071 133.268 142.151 132.852 142.311C132.436 142.455 132.124 142.599 131.916 142.743C132.044 143.143 132.132 143.567 132.18 144.015C132.228 144.463 132.252 144.943 132.252 145.455V152.391H129.348V145.791Z" fill="#333333"></path><circle cx="90.9341" cy="72.3906" r="40" fill="#00C8FF"></circle><path d="M80.206 60.5C79.9263 60.5 79.6581 60.6111 79.4603 60.8089C79.2625 61.0067 79.1514 61.275 79.1514 61.5547V89.3367C79.1513 89.5224 79.2002 89.7048 79.2932 89.8655C79.3862 90.0262 79.52 90.1595 79.681 90.2519C79.8421 90.3444 80.0247 90.3926 80.2103 90.3919C80.396 90.3911 80.5782 90.3414 80.7385 90.2476L90.9313 84.2888L92.316 73.0531L90.9313 60.5H80.206Z" fill="#828282"></path><path d="M101.66 60.5H90.9343V84.2888L101.127 90.2476C101.287 90.3413 101.47 90.3911 101.655 90.3919C101.841 90.3927 102.023 90.3445 102.184 90.2522C102.345 90.1598 102.479 90.0266 102.572 89.8661C102.665 89.7055 102.714 89.5232 102.714 89.3376V61.5547C102.714 61.275 102.603 61.0067 102.405 60.8089C102.208 60.6111 101.939 60.5 101.66 60.5Z" fill="#999999"></path><path d="M74.8681 54.3906C74.5884 54.3906 74.3202 54.5017 74.1224 54.6995C73.9246 54.8973 73.8135 55.1656 73.8135 55.4453C73.8155 57.3445 74.5709 59.1653 75.9138 60.5082C77.2567 61.8512 79.0775 62.6065 80.9767 62.6085H90.934L92.3187 58.7811L90.934 54.3906H74.8681Z" fill="#767676"></path><path d="M107 54.3906H90.9341V62.6085H100.891C102.791 62.6065 104.611 61.8512 105.954 60.5082C107.297 59.1653 108.053 57.3445 108.055 55.4453C108.055 55.3068 108.027 55.1696 107.974 55.0417C107.921 54.9137 107.844 54.7975 107.746 54.6995C107.648 54.6016 107.531 54.5239 107.404 54.4709C107.276 54.4179 107.138 54.3906 107 54.3906V54.3906Z" fill="#767676"></path><path d="M89.9826 66.8306L88.7374 70.658H84.7093C84.4981 70.6582 84.2925 70.7251 84.1217 70.8493C83.951 70.9734 83.8239 71.1484 83.7587 71.3492C83.6934 71.55 83.6934 71.7663 83.7586 71.9671C83.8238 72.1679 83.9508 72.3429 84.1216 72.4671L87.3808 74.835L86.1356 78.6625C86.0705 78.8633 86.0705 79.0796 86.1358 79.2803C86.201 79.4811 86.3281 79.6561 86.4989 79.7803C86.6697 79.9044 86.8753 79.9713 87.0865 79.9715C87.2976 79.9716 87.5033 79.9049 87.6743 79.7809L90.9335 77.413L91.8138 73.1603L90.9335 66.1289C90.7224 66.129 90.5167 66.1958 90.3459 66.3198C90.1751 66.4439 90.048 66.6188 89.9826 66.8195V66.8306Z" fill="#706F6F"></path><path opacity="0.997" d="M98.109 71.3513C98.0437 71.1505 97.9165 70.9756 97.7457 70.8516C97.5749 70.7275 97.3692 70.6607 97.1581 70.6606H93.1299L91.8848 66.8332C91.8194 66.6325 91.6922 66.4576 91.5214 66.3335C91.3506 66.2095 91.1449 66.1426 90.9338 66.1426V77.419L94.1931 79.7869C94.3661 79.9058 94.571 79.9694 94.7808 79.9694C94.9907 79.9694 95.1956 79.9058 95.3685 79.7869C95.5396 79.6629 95.667 79.4878 95.7322 79.2868C95.7975 79.0859 95.7973 78.8694 95.7317 78.6685L94.4865 74.8411L97.7458 72.4731C97.9174 72.3487 98.045 72.1731 98.1103 71.9714C98.1756 71.7698 98.1751 71.5526 98.109 71.3513Z" fill="#848383"></path></svg>