<svg xmlns="http://www.w3.org/2000/svg" width="181" height="225" viewBox="0 0 181 225" fill="none"><path d="M0.531738 10.3906C0.531738 4.86778 5.00889 0.390625 10.5317 0.390625H170.912C176.435 0.390625 180.912 4.86778 180.912 10.3906V214.391C180.912 219.913 176.435 224.391 170.912 224.391H10.5317C5.0089 224.391 0.531738 219.913 0.531738 214.391V10.3906Z" fill="white"></path><path fill-rule="evenodd" clip-rule="evenodd" d="M170.912 0.890625H10.5317C5.28503 0.890625 1.03174 5.14392 1.03174 10.3906V214.391C1.03174 219.637 5.28504 223.891 10.5317 223.891H170.912C176.159 223.891 180.412 219.637 180.412 214.391V10.3906C180.412 5.14392 176.159 0.890625 170.912 0.890625ZM10.5317 0.390625C5.00889 0.390625 0.531738 4.86778 0.531738 10.3906V214.391C0.531738 219.913 5.0089 224.391 10.5317 224.391H170.912C176.435 224.391 180.912 219.913 180.912 214.391V10.3906C180.912 4.86778 176.435 0.390625 170.912 0.390625H10.5317Z" fill="#CCCCCC"></path><circle cx="90.7217" cy="72.3906" r="40" fill="#00C8FF"></circle><path d="M79.9941 60.5C79.7144 60.5 79.4461 60.6111 79.2484 60.8089C79.0506 61.0067 78.9395 61.275 78.9395 61.5547V89.3367C78.9394 89.5224 78.9883 89.7048 79.0813 89.8655C79.1743 90.0262 79.3081 90.1595 79.4691 90.2519C79.6302 90.3444 79.8127 90.3926 79.9984 90.3919C80.1841 90.3911 80.3663 90.3414 80.5266 90.2476L90.7194 84.2887L92.1041 73.0531L90.7194 60.5H79.9941Z" fill="#DEDEDD"></path><path d="M101.447 60.5H90.7222V84.2887L100.915 90.2476C101.075 90.3413 101.257 90.3911 101.443 90.3919C101.629 90.3927 101.811 90.3445 101.972 90.2521C102.133 90.1598 102.267 90.0266 102.36 89.866C102.453 89.7055 102.502 89.5232 102.502 89.3375V61.5547C102.502 61.275 102.391 61.0067 102.193 60.8089C101.995 60.6111 101.727 60.5 101.447 60.5Z" fill="#F2F2F2"></path><path d="M74.6572 54.3906C74.3775 54.3906 74.1092 54.5017 73.9114 54.6995C73.7137 54.8973 73.6025 55.1656 73.6025 55.4453C73.6046 57.3445 74.3599 59.1653 75.7028 60.5082C77.0458 61.8512 78.8666 62.6065 80.7658 62.6085H90.7231L92.1077 58.7811L90.7231 54.3906H74.6572Z" fill="#D6D5D4"></path><path d="M106.789 54.3906H90.7231V62.6085H100.68C102.58 62.6065 104.4 61.8512 105.743 60.5082C107.086 59.1653 107.842 57.3445 107.844 55.4453C107.844 55.3068 107.816 55.1696 107.763 55.0417C107.71 54.9137 107.633 54.7975 107.535 54.6995C107.437 54.6016 107.321 54.5239 107.193 54.4709C107.065 54.4179 106.927 54.3906 106.789 54.3906V54.3906Z" fill="#D6D5D4"></path><path d="M89.7729 66.8267L88.5277 70.6541H84.4996C84.2884 70.6543 84.0828 70.7212 83.912 70.8454C83.7413 70.9695 83.6142 71.1445 83.5489 71.3453C83.4837 71.5461 83.4837 71.7624 83.5489 71.9632C83.6141 72.164 83.7411 72.339 83.9118 72.4632L87.1711 74.8311L85.9259 78.6585C85.8607 78.8594 85.8608 79.0757 85.926 79.2764C85.9913 79.4772 86.1184 79.6522 86.2892 79.7764C86.46 79.9005 86.6656 79.9674 86.8768 79.9675C87.0879 79.9677 87.2936 79.901 87.4645 79.777L90.7238 77.4091L91.6041 73.1564L90.7238 66.125C90.5127 66.125 90.307 66.1919 90.1362 66.3159C89.9654 66.44 89.8383 66.6149 89.7729 66.8156V66.8267Z" fill="#C5C5C5"></path><path opacity="0.997" d="M97.8993 71.3474C97.8339 71.1466 97.7067 70.9717 97.5359 70.8477C97.3651 70.7236 97.1595 70.6568 96.9484 70.6567H92.9202L91.675 66.8293C91.6097 66.6286 91.4825 66.4537 91.3117 66.3296C91.1409 66.2056 90.9352 66.1387 90.7241 66.1387V77.4151L93.9834 79.783C94.1563 79.9019 94.3613 79.9655 94.5711 79.9655C94.781 79.9655 94.9859 79.9019 95.1588 79.783C95.3299 79.659 95.4573 79.4839 95.5225 79.2829C95.5878 79.082 95.5876 78.8654 95.522 78.6646L94.2768 74.8371L97.5361 72.4692C97.7077 72.3448 97.8353 72.1692 97.9006 71.9675C97.9659 71.7659 97.9654 71.5487 97.8993 71.3474Z" fill="#DDDDDD"></path><path d="M65.5152 150.135C66.6032 150.135 67.3952 149.951 67.8912 149.583C68.3872 149.215 68.6352 148.695 68.6352 148.023C68.6352 147.623 68.5472 147.279 68.3712 146.991C68.2112 146.703 67.9712 146.447 67.6512 146.223C67.3472 145.983 66.9712 145.767 66.5232 145.575C66.0752 145.367 65.5632 145.167 64.9872 144.975C64.4112 144.767 63.8512 144.543 63.3072 144.303C62.7792 144.047 62.3072 143.735 61.8912 143.367C61.4912 142.999 61.1632 142.559 60.9072 142.047C60.6672 141.535 60.5472 140.919 60.5472 140.199C60.5472 138.695 61.0672 137.519 62.1072 136.671C63.1472 135.807 64.5632 135.375 66.3552 135.375C67.3952 135.375 68.3152 135.495 69.1152 135.735C69.9312 135.959 70.5712 136.207 71.0352 136.479L70.0992 138.927C69.5552 138.623 68.9552 138.391 68.2992 138.231C67.6592 138.071 66.9952 137.991 66.3072 137.991C65.4912 137.991 64.8512 138.159 64.3872 138.495C63.9392 138.831 63.7152 139.303 63.7152 139.911C63.7152 140.279 63.7872 140.599 63.9312 140.871C64.0912 141.127 64.3072 141.359 64.5792 141.567C64.8672 141.775 65.1952 141.967 65.5632 142.143C65.9472 142.319 66.3632 142.487 66.8112 142.647C67.5952 142.935 68.2912 143.231 68.8992 143.535C69.5232 143.823 70.0432 144.175 70.4592 144.591C70.8912 144.991 71.2192 145.471 71.4432 146.031C71.6672 146.575 71.7792 147.239 71.7792 148.023C71.7792 149.527 71.2432 150.695 70.1712 151.527C69.1152 152.343 67.5632 152.751 65.5152 152.751C64.8272 152.751 64.1952 152.703 63.6192 152.607C63.0592 152.527 62.5552 152.423 62.1072 152.295C61.6752 152.167 61.2992 152.039 60.9792 151.911C60.6592 151.767 60.4032 151.639 60.2112 151.527L61.0992 149.055C61.5312 149.295 62.1152 149.535 62.8512 149.775C63.5872 150.015 64.4752 150.135 65.5152 150.135ZM77.2281 152.391H74.3241V139.839H77.2281V152.391ZM77.5401 136.167C77.5401 136.711 77.3641 137.143 77.0121 137.463C76.6601 137.783 76.2441 137.943 75.7641 137.943C75.2681 137.943 74.8441 137.783 74.4921 137.463C74.1401 137.143 73.9641 136.711 73.9641 136.167C73.9641 135.607 74.1401 135.167 74.4921 134.847C74.8441 134.527 75.2681 134.367 75.7641 134.367C76.2441 134.367 76.6601 134.527 77.0121 134.847C77.3641 135.167 77.5401 135.607 77.5401 136.167ZM85.301 152.631C84.437 152.615 83.717 152.519 83.141 152.343C82.581 152.167 82.133 151.919 81.797 151.599C81.461 151.263 81.221 150.855 81.077 150.375C80.949 149.879 80.885 149.319 80.885 148.695V134.247L83.789 133.767V148.143C83.789 148.495 83.813 148.791 83.861 149.031C83.925 149.271 84.029 149.479 84.173 149.655C84.317 149.815 84.509 149.943 84.749 150.039C85.005 150.119 85.325 150.183 85.709 150.231L85.301 152.631ZM91.274 152.391C90.474 150.743 89.65 148.855 88.802 146.727C87.97 144.583 87.21 142.287 86.522 139.839H89.618C89.794 140.543 89.994 141.303 90.218 142.119C90.458 142.919 90.706 143.727 90.962 144.543C91.234 145.343 91.506 146.127 91.778 146.895C92.066 147.647 92.33 148.327 92.57 148.935C92.81 148.327 93.066 147.647 93.338 146.895C93.61 146.127 93.874 145.343 94.13 144.543C94.402 143.727 94.658 142.919 94.898 142.119C95.138 141.303 95.346 140.543 95.522 139.839H98.522C97.834 142.287 97.066 144.583 96.218 146.727C95.386 148.855 94.57 150.743 93.77 152.391H91.274ZM99.7135 146.175C99.7135 145.071 99.8735 144.103 100.194 143.271C100.53 142.439 100.97 141.751 101.514 141.207C102.058 140.647 102.682 140.231 103.386 139.959C104.09 139.671 104.81 139.527 105.546 139.527C107.274 139.527 108.618 140.063 109.578 141.135C110.554 142.207 111.042 143.807 111.042 145.935C111.042 146.095 111.034 146.279 111.018 146.487C111.018 146.679 111.01 146.855 110.994 147.015H102.714C102.794 148.023 103.146 148.807 103.77 149.367C104.41 149.911 105.33 150.183 106.53 150.183C107.234 150.183 107.874 150.119 108.45 149.991C109.042 149.863 109.506 149.727 109.842 149.583L110.226 151.959C110.066 152.039 109.842 152.127 109.554 152.223C109.282 152.303 108.962 152.375 108.594 152.439C108.242 152.519 107.858 152.583 107.442 152.631C107.026 152.679 106.602 152.703 106.17 152.703C105.066 152.703 104.106 152.543 103.29 152.223C102.474 151.887 101.802 151.431 101.274 150.855C100.746 150.263 100.354 149.575 100.098 148.791C99.8415 147.991 99.7135 147.119 99.7135 146.175ZM108.138 144.879C108.138 144.479 108.082 144.103 107.97 143.751C107.858 143.383 107.69 143.071 107.466 142.815C107.258 142.543 106.994 142.335 106.674 142.191C106.37 142.031 106.002 141.951 105.57 141.951C105.122 141.951 104.73 142.039 104.394 142.215C104.058 142.375 103.77 142.591 103.53 142.863C103.306 143.135 103.13 143.447 103.002 143.799C102.874 144.151 102.786 144.511 102.738 144.879H108.138ZM121.272 142.455C121.032 142.375 120.696 142.295 120.264 142.215C119.848 142.119 119.36 142.071 118.8 142.071C118.48 142.071 118.136 142.103 117.768 142.167C117.416 142.231 117.168 142.287 117.024 142.335V152.391H114.12V140.439C114.68 140.231 115.376 140.039 116.208 139.863C117.056 139.671 117.992 139.575 119.016 139.575C119.208 139.575 119.432 139.591 119.688 139.623C119.944 139.639 120.2 139.671 120.456 139.719C120.712 139.751 120.96 139.799 121.2 139.863C121.44 139.911 121.632 139.959 121.776 140.007L121.272 142.455Z" fill="#333333"></path><path d="M46.8947 178.047V179.391H40.2227V168.303H41.7747V178.047H46.8947ZM55.5801 175.231C55.5801 175.892 55.4841 176.489 55.2921 177.023C55.1001 177.556 54.8281 178.015 54.4761 178.399C54.1347 178.783 53.7241 179.081 53.2441 179.295C52.7641 179.497 52.2414 179.599 51.6761 179.599C51.1107 179.599 50.5881 179.497 50.1081 179.295C49.6281 179.081 49.2121 178.783 48.8601 178.399C48.5187 178.015 48.2521 177.556 48.0601 177.023C47.8681 176.489 47.7721 175.892 47.7721 175.231C47.7721 174.58 47.8681 173.988 48.0601 173.455C48.2521 172.911 48.5187 172.447 48.8601 172.063C49.2121 171.679 49.6281 171.385 50.1081 171.183C50.5881 170.969 51.1107 170.863 51.6761 170.863C52.2414 170.863 52.7641 170.969 53.2441 171.183C53.7241 171.385 54.1347 171.679 54.4761 172.063C54.8281 172.447 55.1001 172.911 55.2921 173.455C55.4841 173.988 55.5801 174.58 55.5801 175.231ZM54.0281 175.231C54.0281 174.292 53.8147 173.551 53.3881 173.007C52.9721 172.452 52.4014 172.175 51.6761 172.175C50.9507 172.175 50.3747 172.452 49.9481 173.007C49.5321 173.551 49.3241 174.292 49.3241 175.231C49.3241 176.169 49.5321 176.916 49.9481 177.471C50.3747 178.015 50.9507 178.287 51.6761 178.287C52.4014 178.287 52.9721 178.015 53.3881 177.471C53.8147 176.916 54.0281 176.169 54.0281 175.231ZM59.0656 171.071H62.2176V172.319H59.0656V176.159C59.0656 176.575 59.0976 176.921 59.1616 177.199C59.2256 177.465 59.3216 177.679 59.4496 177.839C59.5776 177.988 59.7376 178.095 59.9296 178.159C60.1216 178.223 60.3456 178.255 60.6016 178.255C61.0496 178.255 61.4069 178.207 61.6736 178.111C61.9509 178.004 62.1429 177.929 62.2496 177.887L62.5376 179.119C62.3882 179.193 62.1269 179.284 61.7536 179.391C61.3802 179.508 60.9536 179.567 60.4736 179.567C59.9082 179.567 59.4389 179.497 59.0656 179.359C58.7029 179.209 58.4096 178.991 58.1856 178.703C57.9616 178.415 57.8016 178.063 57.7056 177.647C57.6202 177.22 57.5776 176.729 57.5776 176.175V168.751L59.0656 168.495V171.071ZM66.0471 178.319C66.6551 178.319 67.1031 178.239 67.3911 178.079C67.6897 177.919 67.8391 177.663 67.8391 177.311C67.8391 176.948 67.6951 176.66 67.4071 176.447C67.1191 176.233 66.6444 175.993 65.9831 175.727C65.6631 175.599 65.3537 175.471 65.0551 175.343C64.7671 175.204 64.5164 175.044 64.3031 174.863C64.0897 174.681 63.9191 174.463 63.7911 174.207C63.6631 173.951 63.5991 173.636 63.5991 173.263C63.5991 172.527 63.8711 171.945 64.4151 171.519C64.9591 171.081 65.7004 170.863 66.6391 170.863C66.8737 170.863 67.1084 170.879 67.3431 170.911C67.5777 170.932 67.7964 170.964 67.9991 171.007C68.2017 171.039 68.3777 171.076 68.5271 171.119C68.6871 171.161 68.8097 171.199 68.8951 171.231L68.6231 172.511C68.4631 172.425 68.2124 172.34 67.8711 172.255C67.5297 172.159 67.1191 172.111 66.6391 172.111C66.2231 172.111 65.8604 172.196 65.5511 172.367C65.2417 172.527 65.0871 172.783 65.0871 173.135C65.0871 173.316 65.1191 173.476 65.1831 173.615C65.2577 173.753 65.3644 173.881 65.5031 173.999C65.6524 174.105 65.8337 174.207 66.0471 174.303C66.2604 174.399 66.5164 174.5 66.8151 174.607C67.2097 174.756 67.5617 174.905 67.8711 175.055C68.1804 175.193 68.4417 175.359 68.6551 175.551C68.8791 175.743 69.0497 175.977 69.1671 176.255C69.2844 176.521 69.3431 176.852 69.3431 177.247C69.3431 178.015 69.0551 178.596 68.4791 178.991C67.9137 179.385 67.1031 179.583 66.0471 179.583C65.3111 179.583 64.7351 179.519 64.3191 179.391C63.9031 179.273 63.6204 179.183 63.4711 179.119L63.7431 177.839C63.9137 177.903 64.1857 177.999 64.5591 178.127C64.9324 178.255 65.4284 178.319 66.0471 178.319ZM73.0117 178.527C73.0117 178.815 72.9157 179.065 72.7237 179.279C72.5317 179.492 72.2703 179.599 71.9397 179.599C71.609 179.599 71.3477 179.492 71.1557 179.279C70.9637 179.065 70.8677 178.815 70.8677 178.527C70.8677 178.239 70.9637 177.988 71.1557 177.775C71.3477 177.561 71.609 177.455 71.9397 177.455C72.2703 177.455 72.5317 177.561 72.7237 177.775C72.9157 177.988 73.0117 178.239 73.0117 178.527ZM73.0117 172.143C73.0117 172.431 72.9157 172.681 72.7237 172.895C72.5317 173.108 72.2703 173.215 71.9397 173.215C71.609 173.215 71.3477 173.108 71.1557 172.895C70.9637 172.681 70.8677 172.431 70.8677 172.143C70.8677 171.855 70.9637 171.604 71.1557 171.391C71.3477 171.177 71.609 171.071 71.9397 171.071C72.2703 171.071 72.5317 171.177 72.7237 171.391C72.9157 171.604 73.0117 171.855 73.0117 172.143ZM78.4123 173.839C78.4123 171.983 78.7376 170.553 79.3883 169.551C80.0496 168.548 80.9616 168.047 82.1243 168.047C83.287 168.047 84.1936 168.548 84.8443 169.551C85.5056 170.553 85.8363 171.983 85.8363 173.839C85.8363 175.695 85.5056 177.124 84.8443 178.127C84.1936 179.129 83.287 179.631 82.1243 179.631C80.9616 179.631 80.0496 179.129 79.3883 178.127C78.7376 177.124 78.4123 175.695 78.4123 173.839ZM84.2683 173.839C84.2683 173.231 84.231 172.655 84.1563 172.111C84.0923 171.567 83.975 171.092 83.8043 170.687C83.6443 170.281 83.4256 169.961 83.1483 169.727C82.871 169.481 82.5296 169.359 82.1243 169.359C81.719 169.359 81.3776 169.481 81.1003 169.727C80.823 169.961 80.599 170.281 80.4283 170.687C80.2683 171.092 80.151 171.567 80.0763 172.111C80.0123 172.655 79.9803 173.231 79.9803 173.839C79.9803 174.447 80.0123 175.023 80.0763 175.567C80.151 176.111 80.2683 176.585 80.4283 176.991C80.599 177.396 80.823 177.721 81.1003 177.967C81.3776 178.201 81.719 178.319 82.1243 178.319C82.5296 178.319 82.871 178.201 83.1483 177.967C83.4256 177.721 83.6443 177.396 83.8043 176.991C83.975 176.585 84.0923 176.111 84.1563 175.567C84.231 175.023 84.2683 174.447 84.2683 173.839ZM90.7627 173.903H94.7147V175.295H90.7627V173.903ZM100.319 170.591C100.927 170.356 101.519 170.057 102.095 169.695C102.671 169.321 103.199 168.857 103.679 168.303H104.735V179.391H103.247V170.367C103.119 170.484 102.959 170.607 102.767 170.735C102.586 170.863 102.383 170.985 102.159 171.103C101.946 171.22 101.716 171.332 101.471 171.439C101.236 171.545 101.007 171.636 100.783 171.711L100.319 170.591ZM115.878 172.735C115.878 174.932 115.329 176.596 114.23 177.727C113.142 178.847 111.521 179.412 109.366 179.423L109.318 178.175C109.99 178.175 110.593 178.111 111.126 177.983C111.67 177.855 112.145 177.652 112.55 177.375C112.956 177.087 113.292 176.719 113.558 176.271C113.836 175.823 114.038 175.273 114.166 174.623C113.889 174.751 113.574 174.857 113.222 174.943C112.87 175.017 112.508 175.055 112.134 175.055C111.505 175.055 110.972 174.964 110.534 174.783C110.097 174.591 109.74 174.34 109.462 174.031C109.185 173.711 108.982 173.348 108.854 172.943C108.737 172.527 108.678 172.095 108.678 171.647C108.678 171.252 108.748 170.841 108.886 170.415C109.025 169.988 109.233 169.599 109.51 169.247C109.798 168.895 110.161 168.607 110.598 168.383C111.036 168.159 111.553 168.047 112.15 168.047C112.758 168.047 113.292 168.153 113.75 168.367C114.22 168.58 114.609 168.889 114.918 169.295C115.238 169.7 115.478 170.196 115.638 170.783C115.798 171.359 115.878 172.009 115.878 172.735ZM112.294 173.839C112.668 173.839 113.02 173.807 113.35 173.743C113.681 173.668 114.001 173.561 114.31 173.423C114.321 173.305 114.326 173.193 114.326 173.087C114.326 172.969 114.326 172.852 114.326 172.735C114.326 172.276 114.294 171.839 114.23 171.423C114.166 170.996 114.049 170.628 113.878 170.319C113.718 169.999 113.5 169.748 113.222 169.567C112.945 169.375 112.593 169.279 112.166 169.279C111.814 169.279 111.516 169.353 111.27 169.503C111.025 169.652 110.822 169.844 110.662 170.079C110.502 170.303 110.385 170.553 110.31 170.831C110.246 171.097 110.214 171.359 110.214 171.615C110.214 172.34 110.385 172.895 110.726 173.279C111.078 173.652 111.601 173.839 112.294 173.839ZM119.934 178.527C119.934 178.815 119.838 179.065 119.646 179.279C119.454 179.492 119.192 179.599 118.862 179.599C118.531 179.599 118.27 179.492 118.078 179.279C117.886 179.065 117.79 178.815 117.79 178.527C117.79 178.239 117.886 177.988 118.078 177.775C118.27 177.561 118.531 177.455 118.862 177.455C119.192 177.455 119.454 177.561 119.646 177.775C119.838 177.988 119.934 178.239 119.934 178.527ZM128.847 172.735C128.847 174.932 128.298 176.596 127.199 177.727C126.111 178.847 124.49 179.412 122.335 179.423L122.287 178.175C122.959 178.175 123.562 178.111 124.095 177.983C124.639 177.855 125.114 177.652 125.519 177.375C125.924 177.087 126.26 176.719 126.527 176.271C126.804 175.823 127.007 175.273 127.135 174.623C126.858 174.751 126.543 174.857 126.191 174.943C125.839 175.017 125.476 175.055 125.103 175.055C124.474 175.055 123.94 174.964 123.503 174.783C123.066 174.591 122.708 174.34 122.431 174.031C122.154 173.711 121.951 173.348 121.823 172.943C121.706 172.527 121.647 172.095 121.647 171.647C121.647 171.252 121.716 170.841 121.855 170.415C121.994 169.988 122.202 169.599 122.479 169.247C122.767 168.895 123.13 168.607 123.567 168.383C124.004 168.159 124.522 168.047 125.119 168.047C125.727 168.047 126.26 168.153 126.719 168.367C127.188 168.58 127.578 168.889 127.887 169.295C128.207 169.7 128.447 170.196 128.607 170.783C128.767 171.359 128.847 172.009 128.847 172.735ZM125.263 173.839C125.636 173.839 125.988 173.807 126.319 173.743C126.65 173.668 126.97 173.561 127.279 173.423C127.29 173.305 127.295 173.193 127.295 173.087C127.295 172.969 127.295 172.852 127.295 172.735C127.295 172.276 127.263 171.839 127.199 171.423C127.135 170.996 127.018 170.628 126.847 170.319C126.687 169.999 126.468 169.748 126.191 169.567C125.914 169.375 125.562 169.279 125.135 169.279C124.783 169.279 124.484 169.353 124.239 169.503C123.994 169.652 123.791 169.844 123.631 170.079C123.471 170.303 123.354 170.553 123.279 170.831C123.215 171.097 123.183 171.359 123.183 171.615C123.183 172.34 123.354 172.895 123.695 173.279C124.047 173.652 124.57 173.839 125.263 173.839ZM137.878 172.735C137.878 174.932 137.329 176.596 136.23 177.727C135.142 178.847 133.521 179.412 131.366 179.423L131.318 178.175C131.99 178.175 132.593 178.111 133.126 177.983C133.67 177.855 134.145 177.652 134.55 177.375C134.956 177.087 135.292 176.719 135.558 176.271C135.836 175.823 136.038 175.273 136.166 174.623C135.889 174.751 135.574 174.857 135.222 174.943C134.87 175.017 134.508 175.055 134.134 175.055C133.505 175.055 132.972 174.964 132.534 174.783C132.097 174.591 131.74 174.34 131.462 174.031C131.185 173.711 130.982 173.348 130.854 172.943C130.737 172.527 130.678 172.095 130.678 171.647C130.678 171.252 130.748 170.841 130.886 170.415C131.025 169.988 131.233 169.599 131.51 169.247C131.798 168.895 132.161 168.607 132.598 168.383C133.036 168.159 133.553 168.047 134.15 168.047C134.758 168.047 135.292 168.153 135.75 168.367C136.22 168.58 136.609 168.889 136.918 169.295C137.238 169.7 137.478 170.196 137.638 170.783C137.798 171.359 137.878 172.009 137.878 172.735ZM134.294 173.839C134.668 173.839 135.02 173.807 135.35 173.743C135.681 173.668 136.001 173.561 136.31 173.423C136.321 173.305 136.326 173.193 136.326 173.087C136.326 172.969 136.326 172.852 136.326 172.735C136.326 172.276 136.294 171.839 136.23 171.423C136.166 170.996 136.049 170.628 135.878 170.319C135.718 169.999 135.5 169.748 135.222 169.567C134.945 169.375 134.593 169.279 134.166 169.279C133.814 169.279 133.516 169.353 133.27 169.503C133.025 169.652 132.822 169.844 132.662 170.079C132.502 170.303 132.385 170.553 132.31 170.831C132.246 171.097 132.214 171.359 132.214 171.615C132.214 172.34 132.385 172.895 132.726 173.279C133.078 173.652 133.601 173.839 134.294 173.839ZM42.3386 186.191C43.8959 186.191 45.0906 186.489 45.9226 187.087C46.7652 187.673 47.1866 188.553 47.1866 189.727C47.1866 190.367 47.0692 190.916 46.8346 191.375C46.6106 191.823 46.2799 192.191 45.8426 192.479C45.4159 192.756 44.8932 192.959 44.2746 193.087C43.6559 193.215 42.9572 193.279 42.1786 193.279H40.9466V197.391H39.3946V186.463C39.8319 186.356 40.3172 186.287 40.8506 186.255C41.3946 186.212 41.8906 186.191 42.3386 186.191ZM42.4666 187.551C41.8052 187.551 41.2986 187.567 40.9466 187.599V191.951H42.1146C42.6479 191.951 43.1279 191.919 43.5546 191.855C43.9812 191.78 44.3386 191.663 44.6266 191.503C44.9252 191.332 45.1546 191.103 45.3146 190.815C45.4746 190.527 45.5546 190.159 45.5546 189.711C45.5546 189.284 45.4692 188.932 45.2986 188.655C45.1386 188.377 44.9146 188.159 44.6266 187.999C44.3492 187.828 44.0239 187.711 43.6506 187.647C43.2772 187.583 42.8826 187.551 42.4666 187.551ZM56.0332 193.231C56.0332 193.892 55.9372 194.489 55.7452 195.023C55.5532 195.556 55.2812 196.015 54.9292 196.399C54.5878 196.783 54.1772 197.081 53.6972 197.295C53.2172 197.497 52.6945 197.599 52.1292 197.599C51.5638 197.599 51.0412 197.497 50.5612 197.295C50.0812 197.081 49.6652 196.783 49.3132 196.399C48.9718 196.015 48.7052 195.556 48.5132 195.023C48.3212 194.489 48.2252 193.892 48.2252 193.231C48.2252 192.58 48.3212 191.988 48.5132 191.455C48.7052 190.911 48.9718 190.447 49.3132 190.063C49.6652 189.679 50.0812 189.385 50.5612 189.183C51.0412 188.969 51.5638 188.863 52.1292 188.863C52.6945 188.863 53.2172 188.969 53.6972 189.183C54.1772 189.385 54.5878 189.679 54.9292 190.063C55.2812 190.447 55.5532 190.911 55.7452 191.455C55.9372 191.988 56.0332 192.58 56.0332 193.231ZM54.4812 193.231C54.4812 192.292 54.2678 191.551 53.8412 191.007C53.4252 190.452 52.8545 190.175 52.1292 190.175C51.4038 190.175 50.8278 190.452 50.4012 191.007C49.9852 191.551 49.7772 192.292 49.7772 193.231C49.7772 194.169 49.9852 194.916 50.4012 195.471C50.8278 196.015 51.4038 196.287 52.1292 196.287C52.8545 196.287 53.4252 196.015 53.8412 195.471C54.2678 194.916 54.4812 194.169 54.4812 193.231ZM59.6147 197.391H58.1267V189.071H59.6147V197.391ZM58.8627 187.567C58.596 187.567 58.3667 187.481 58.1747 187.311C57.9933 187.129 57.9027 186.889 57.9027 186.591C57.9027 186.292 57.9933 186.057 58.1747 185.887C58.3667 185.705 58.596 185.615 58.8627 185.615C59.1293 185.615 59.3533 185.705 59.5347 185.887C59.7267 186.057 59.8227 186.292 59.8227 186.591C59.8227 186.889 59.7267 187.129 59.5347 187.311C59.3533 187.481 59.1293 187.567 58.8627 187.567ZM62.1736 189.311C62.5149 189.225 62.9682 189.135 63.5336 189.039C64.0989 188.943 64.7496 188.895 65.4856 188.895C66.1469 188.895 66.6962 188.991 67.1336 189.183C67.5709 189.364 67.9176 189.625 68.1736 189.967C68.4402 190.297 68.6269 190.697 68.7336 191.167C68.8402 191.636 68.8936 192.153 68.8936 192.719V197.391H67.4056V193.039C67.4056 192.527 67.3682 192.089 67.2936 191.727C67.2296 191.364 67.1176 191.071 66.9576 190.847C66.7976 190.623 66.5842 190.463 66.3176 190.367C66.0509 190.26 65.7202 190.207 65.3256 190.207C65.1656 190.207 65.0002 190.212 64.8296 190.223C64.6589 190.233 64.4936 190.249 64.3336 190.271C64.1842 190.281 64.0456 190.297 63.9176 190.319C63.8002 190.34 63.7149 190.356 63.6616 190.367V197.391H62.1736V189.311ZM72.7531 189.071H75.9051V190.319H72.7531V194.159C72.7531 194.575 72.7851 194.921 72.8491 195.199C72.9131 195.465 73.0091 195.679 73.1371 195.839C73.2651 195.988 73.4251 196.095 73.6171 196.159C73.8091 196.223 74.0331 196.255 74.2891 196.255C74.7371 196.255 75.0944 196.207 75.3611 196.111C75.6384 196.004 75.8304 195.929 75.9371 195.887L76.2251 197.119C76.0757 197.193 75.8144 197.284 75.4411 197.391C75.0677 197.508 74.6411 197.567 74.1611 197.567C73.5957 197.567 73.1264 197.497 72.7531 197.359C72.3904 197.209 72.0971 196.991 71.8731 196.703C71.6491 196.415 71.4891 196.063 71.3931 195.647C71.3077 195.22 71.2651 194.729 71.2651 194.175V186.751L72.7531 186.495V189.071ZM79.7346 196.319C80.3426 196.319 80.7906 196.239 81.0786 196.079C81.3772 195.919 81.5266 195.663 81.5266 195.311C81.5266 194.948 81.3826 194.66 81.0946 194.447C80.8066 194.233 80.3319 193.993 79.6706 193.727C79.3506 193.599 79.0412 193.471 78.7426 193.343C78.4546 193.204 78.2039 193.044 77.9906 192.863C77.7772 192.681 77.6066 192.463 77.4786 192.207C77.3506 191.951 77.2866 191.636 77.2866 191.263C77.2866 190.527 77.5586 189.945 78.1026 189.519C78.6466 189.081 79.3879 188.863 80.3266 188.863C80.5612 188.863 80.7959 188.879 81.0306 188.911C81.2652 188.932 81.4839 188.964 81.6866 189.007C81.8892 189.039 82.0652 189.076 82.2146 189.119C82.3746 189.161 82.4972 189.199 82.5826 189.231L82.3106 190.511C82.1506 190.425 81.8999 190.34 81.5586 190.255C81.2172 190.159 80.8066 190.111 80.3266 190.111C79.9106 190.111 79.5479 190.196 79.2386 190.367C78.9292 190.527 78.7746 190.783 78.7746 191.135C78.7746 191.316 78.8066 191.476 78.8706 191.615C78.9452 191.753 79.0519 191.881 79.1906 191.999C79.3399 192.105 79.5212 192.207 79.7346 192.303C79.9479 192.399 80.2039 192.5 80.5026 192.607C80.8972 192.756 81.2492 192.905 81.5586 193.055C81.8679 193.193 82.1292 193.359 82.3426 193.551C82.5666 193.743 82.7372 193.977 82.8546 194.255C82.9719 194.521 83.0306 194.852 83.0306 195.247C83.0306 196.015 82.7426 196.596 82.1666 196.991C81.6012 197.385 80.7906 197.583 79.7346 197.583C78.9986 197.583 78.4226 197.519 78.0066 197.391C77.5906 197.273 77.3079 197.183 77.1586 197.119L77.4306 195.839C77.6012 195.903 77.8732 195.999 78.2466 196.127C78.6199 196.255 79.1159 196.319 79.7346 196.319ZM84.7952 200.351H83.2752L88.6992 184.863H90.1872L84.7952 200.351ZM97.8478 196.047V197.391H91.1758V186.303H92.7278V196.047H97.8478ZM106.533 193.231C106.533 193.892 106.437 194.489 106.245 195.023C106.053 195.556 105.781 196.015 105.429 196.399C105.088 196.783 104.677 197.081 104.197 197.295C103.717 197.497 103.195 197.599 102.629 197.599C102.064 197.599 101.541 197.497 101.061 197.295C100.581 197.081 100.165 196.783 99.8132 196.399C99.4718 196.015 99.2052 195.556 99.0132 195.023C98.8212 194.489 98.7252 193.892 98.7252 193.231C98.7252 192.58 98.8212 191.988 99.0132 191.455C99.2052 190.911 99.4718 190.447 99.8132 190.063C100.165 189.679 100.581 189.385 101.061 189.183C101.541 188.969 102.064 188.863 102.629 188.863C103.195 188.863 103.717 188.969 104.197 189.183C104.677 189.385 105.088 189.679 105.429 190.063C105.781 190.447 106.053 190.911 106.245 191.455C106.437 191.988 106.533 192.58 106.533 193.231ZM104.981 193.231C104.981 192.292 104.768 191.551 104.341 191.007C103.925 190.452 103.355 190.175 102.629 190.175C101.904 190.175 101.328 190.452 100.901 191.007C100.485 191.551 100.277 192.292 100.277 193.231C100.277 194.169 100.485 194.916 100.901 195.471C101.328 196.015 101.904 196.287 102.629 196.287C103.355 196.287 103.925 196.015 104.341 195.471C104.768 194.916 104.981 194.169 104.981 193.231ZM110.019 189.071H113.171V190.319H110.019V194.159C110.019 194.575 110.051 194.921 110.115 195.199C110.179 195.465 110.275 195.679 110.403 195.839C110.531 195.988 110.691 196.095 110.883 196.159C111.075 196.223 111.299 196.255 111.555 196.255C112.003 196.255 112.36 196.207 112.627 196.111C112.904 196.004 113.096 195.929 113.203 195.887L113.491 197.119C113.341 197.193 113.08 197.284 112.707 197.391C112.333 197.508 111.907 197.567 111.427 197.567C110.861 197.567 110.392 197.497 110.019 197.359C109.656 197.209 109.363 196.991 109.139 196.703C108.915 196.415 108.755 196.063 108.659 195.647C108.573 195.22 108.531 194.729 108.531 194.175V186.751L110.019 186.495V189.071ZM116.824 196.527C116.824 196.815 116.728 197.065 116.536 197.279C116.344 197.492 116.083 197.599 115.752 197.599C115.422 197.599 115.16 197.492 114.968 197.279C114.776 197.065 114.68 196.815 114.68 196.527C114.68 196.239 114.776 195.988 114.968 195.775C115.16 195.561 115.422 195.455 115.752 195.455C116.083 195.455 116.344 195.561 116.536 195.775C116.728 195.988 116.824 196.239 116.824 196.527ZM116.824 190.143C116.824 190.431 116.728 190.681 116.536 190.895C116.344 191.108 116.083 191.215 115.752 191.215C115.422 191.215 115.16 191.108 114.968 190.895C114.776 190.681 114.68 190.431 114.68 190.143C114.68 189.855 114.776 189.604 114.968 189.391C115.16 189.177 115.422 189.071 115.752 189.071C116.083 189.071 116.344 189.177 116.536 189.391C116.728 189.604 116.824 189.855 116.824 190.143ZM122.225 191.839C122.225 189.983 122.55 188.553 123.201 187.551C123.862 186.548 124.774 186.047 125.937 186.047C127.099 186.047 128.006 186.548 128.657 187.551C129.318 188.553 129.649 189.983 129.649 191.839C129.649 193.695 129.318 195.124 128.657 196.127C128.006 197.129 127.099 197.631 125.937 197.631C124.774 197.631 123.862 197.129 123.201 196.127C122.55 195.124 122.225 193.695 122.225 191.839ZM128.081 191.839C128.081 191.231 128.043 190.655 127.969 190.111C127.905 189.567 127.787 189.092 127.617 188.687C127.457 188.281 127.238 187.961 126.961 187.727C126.683 187.481 126.342 187.359 125.937 187.359C125.531 187.359 125.19 187.481 124.913 187.727C124.635 187.961 124.411 188.281 124.241 188.687C124.081 189.092 123.963 189.567 123.889 190.111C123.825 190.655 123.793 191.231 123.793 191.839C123.793 192.447 123.825 193.023 123.889 193.567C123.963 194.111 124.081 194.585 124.241 194.991C124.411 195.396 124.635 195.721 124.913 195.967C125.19 196.201 125.531 196.319 125.937 196.319C126.342 196.319 126.683 196.201 126.961 195.967C127.238 195.721 127.457 195.396 127.617 194.991C127.787 194.585 127.905 194.111 127.969 193.567C128.043 193.023 128.081 192.447 128.081 191.839ZM133.496 196.527C133.496 196.815 133.4 197.065 133.208 197.279C133.016 197.492 132.755 197.599 132.424 197.599C132.093 197.599 131.832 197.492 131.64 197.279C131.448 197.065 131.352 196.815 131.352 196.527C131.352 196.239 131.448 195.988 131.64 195.775C131.832 195.561 132.093 195.455 132.424 195.455C132.755 195.455 133.016 195.561 133.208 195.775C133.4 195.988 133.496 196.239 133.496 196.527ZM141.866 189.135C141.866 189.519 141.786 189.892 141.626 190.255C141.476 190.607 141.274 190.959 141.018 191.311C140.762 191.652 140.474 191.993 140.154 192.335C139.834 192.665 139.514 192.991 139.194 193.311C139.012 193.492 138.799 193.705 138.554 193.951C138.319 194.196 138.095 194.452 137.882 194.719C137.668 194.985 137.487 195.241 137.338 195.487C137.199 195.732 137.13 195.945 137.13 196.127H142.234V197.391H135.514C135.503 197.327 135.498 197.263 135.498 197.199C135.498 197.135 135.498 197.076 135.498 197.023C135.498 196.521 135.578 196.057 135.738 195.631C135.908 195.193 136.127 194.783 136.394 194.399C136.66 194.015 136.959 193.652 137.29 193.311C137.62 192.969 137.946 192.639 138.266 192.319C138.532 192.063 138.783 191.812 139.018 191.567C139.263 191.311 139.476 191.06 139.658 190.815C139.85 190.559 139.999 190.297 140.106 190.031C140.223 189.764 140.282 189.481 140.282 189.183C140.282 188.863 140.228 188.591 140.122 188.367C140.026 188.143 139.892 187.956 139.722 187.807C139.551 187.657 139.348 187.551 139.114 187.487C138.89 187.412 138.65 187.375 138.394 187.375C138.084 187.375 137.802 187.417 137.546 187.503C137.29 187.588 137.06 187.689 136.858 187.807C136.655 187.913 136.484 188.031 136.346 188.159C136.207 188.276 136.1 188.367 136.026 188.431L135.29 187.375C135.386 187.268 135.53 187.14 135.722 186.991C135.914 186.831 136.143 186.681 136.41 186.543C136.676 186.404 136.975 186.287 137.306 186.191C137.636 186.095 137.994 186.047 138.378 186.047C139.54 186.047 140.41 186.319 140.986 186.863C141.572 187.396 141.866 188.153 141.866 189.135Z" fill="#333333"></path></svg>