<svg xmlns="http://www.w3.org/2000/svg" width="157" height="224" viewBox="0 0 157 224" fill="none"><path d="M0.531738 10C0.531738 4.47715 4.40375 0 9.18012 0H147.883C152.66 0 156.532 4.47715 156.532 10V214C156.532 219.523 152.66 224 147.883 224H9.18013C4.40376 224 0.531738 219.523 0.531738 214V10Z" fill="white"></path><path fill-rule="evenodd" clip-rule="evenodd" d="M147.883 0.5H9.18012C4.64257 0.5 0.964157 4.7533 0.964157 10V214C0.964157 219.247 4.64258 223.5 9.18013 223.5H147.883C152.421 223.5 156.099 219.247 156.099 214V10C156.099 4.7533 152.421 0.5 147.883 0.5ZM9.18012 0C4.40375 0 0.531738 4.47715 0.531738 10V214C0.531738 219.523 4.40376 224 9.18013 224H147.883C152.66 224 156.532 219.523 156.532 214V10C156.532 4.47715 152.66 0 147.883 0H9.18012Z" fill="#CCCCCC"></path><circle cx="78.5317" cy="72" r="40" fill="#00C8FF"></circle><path d="M67.8042 60.1094C67.5245 60.1094 67.2562 60.2205 67.0584 60.4183C66.8606 60.6161 66.7495 60.8843 66.7495 61.164V88.9461C66.7494 89.1318 66.7983 89.3142 66.8914 89.4749C66.9844 89.6356 67.1181 89.7689 67.2792 89.8613C67.4402 89.9537 67.6228 90.002 67.8085 90.0013C67.9942 90.0005 68.1763 89.9507 68.3366 89.857L78.5295 83.8981L79.9142 72.6625L78.5295 60.1094H67.8042Z" fill="#DEDEDD"></path><path d="M89.2575 60.1094H78.5322V83.8981L88.7251 89.857C88.8853 89.9507 89.0674 90.0005 89.253 90.0013C89.4386 90.002 89.6212 89.9539 89.7822 89.8615C89.9432 89.7692 90.077 89.636 90.17 89.4754C90.2631 89.3148 90.3122 89.1325 90.3122 88.9469V61.164C90.3122 60.8843 90.2011 60.6161 90.0033 60.4183C89.8055 60.2205 89.5372 60.1094 89.2575 60.1094Z" fill="#F2F2F2"></path><path d="M62.4673 54C62.1876 54 61.9193 54.1111 61.7215 54.3089C61.5237 54.5067 61.4126 54.775 61.4126 55.0547C61.4146 56.9539 62.17 58.7747 63.5129 60.1176C64.8558 61.4605 66.6767 62.2159 68.5758 62.2179H78.5331L79.9178 58.3905L78.5331 54H62.4673Z" fill="#D6D5D4"></path><path d="M94.5991 54H78.5332V62.2179H88.4905C90.3897 62.2159 92.2105 61.4605 93.5534 60.1176C94.8963 58.7747 95.6517 56.9539 95.6537 55.0547C95.6537 54.9162 95.6264 54.779 95.5734 54.6511C95.5204 54.5231 95.4427 54.4068 95.3448 54.3089C95.2469 54.211 95.1306 54.1333 95.0026 54.0803C94.8747 54.0273 94.7376 54 94.5991 54V54Z" fill="#D6D5D4"></path><path d="M77.583 66.4361L76.3378 70.2635H72.3096C72.0985 70.2636 71.8928 70.3306 71.7221 70.4547C71.5513 70.5789 71.4242 70.7539 71.359 70.9547C71.2938 71.1555 71.2937 71.3718 71.3589 71.5726C71.4241 71.7734 71.5512 71.9484 71.7219 72.0726L74.9812 74.4405L73.736 78.2679C73.6708 78.4687 73.6708 78.685 73.7361 78.8858C73.8014 79.0866 73.9285 79.2616 74.0992 79.3857C74.27 79.5099 74.4757 79.5768 74.6868 79.5769C74.8979 79.577 75.1037 79.5103 75.2746 79.3864L78.5339 77.0185L79.4142 72.7658L78.5339 65.7344C78.3228 65.7344 78.1171 65.8013 77.9463 65.9253C77.7755 66.0494 77.6483 66.2243 77.583 66.425V66.4361Z" fill="#C5C5C5"></path><path opacity="0.997" d="M85.7093 70.9567C85.644 70.756 85.5168 70.5811 85.346 70.457C85.1752 70.333 84.9695 70.2662 84.7584 70.2661H80.7303L79.4851 66.4387C79.4198 66.2379 79.2926 66.063 79.1218 65.939C78.951 65.8149 78.7453 65.7481 78.5342 65.748V77.0245L81.7934 79.3924C81.9664 79.5113 82.1713 79.5749 82.3812 79.5749C82.591 79.5749 82.7959 79.5113 82.9689 79.3924C83.14 79.2684 83.2673 79.0933 83.3326 78.8923C83.3978 78.6913 83.3977 78.4748 83.3321 78.2739L82.0869 74.4465L85.3462 72.0786C85.5177 71.9542 85.6454 71.7785 85.7106 71.5769C85.7759 71.3753 85.7755 71.1581 85.7093 70.9567Z" fill="#DDDDDD"></path><path d="M53.3253 149.744C54.4133 149.744 55.2053 149.56 55.7013 149.192C56.1973 148.824 56.4453 148.304 56.4453 147.632C56.4453 147.232 56.3573 146.888 56.1813 146.6C56.0213 146.312 55.7813 146.056 55.4613 145.832C55.1573 145.592 54.7813 145.376 54.3333 145.184C53.8853 144.976 53.3733 144.776 52.7973 144.584C52.2213 144.376 51.6613 144.152 51.1173 143.912C50.5893 143.656 50.1173 143.344 49.7013 142.976C49.3013 142.608 48.9733 142.168 48.7173 141.656C48.4773 141.144 48.3573 140.528 48.3573 139.808C48.3573 138.304 48.8773 137.128 49.9173 136.28C50.9573 135.416 52.3733 134.984 54.1653 134.984C55.2053 134.984 56.1253 135.104 56.9253 135.344C57.7413 135.568 58.3813 135.816 58.8453 136.088L57.9093 138.536C57.3653 138.232 56.7653 138 56.1093 137.84C55.4693 137.68 54.8053 137.6 54.1173 137.6C53.3013 137.6 52.6613 137.768 52.1973 138.104C51.7493 138.44 51.5253 138.912 51.5253 139.52C51.5253 139.888 51.5973 140.208 51.7413 140.48C51.9013 140.736 52.1173 140.968 52.3893 141.176C52.6773 141.384 53.0053 141.576 53.3733 141.752C53.7573 141.928 54.1733 142.096 54.6213 142.256C55.4053 142.544 56.1013 142.84 56.7093 143.144C57.3333 143.432 57.8533 143.784 58.2693 144.2C58.7013 144.6 59.0293 145.08 59.2533 145.64C59.4773 146.184 59.5893 146.848 59.5893 147.632C59.5893 149.136 59.0533 150.304 57.9813 151.136C56.9253 151.952 55.3733 152.36 53.3253 152.36C52.6373 152.36 52.0053 152.312 51.4293 152.216C50.8693 152.136 50.3653 152.032 49.9173 151.904C49.4853 151.776 49.1093 151.648 48.7893 151.52C48.4693 151.376 48.2133 151.248 48.0213 151.136L48.9093 148.664C49.3413 148.904 49.9253 149.144 50.6613 149.384C51.3973 149.624 52.2853 149.744 53.3253 149.744ZM65.0382 152H62.1342V139.448H65.0382V152ZM65.3502 135.776C65.3502 136.32 65.1742 136.752 64.8222 137.072C64.4702 137.392 64.0542 137.552 63.5742 137.552C63.0782 137.552 62.6542 137.392 62.3022 137.072C61.9502 136.752 61.7742 136.32 61.7742 135.776C61.7742 135.216 61.9502 134.776 62.3022 134.456C62.6542 134.136 63.0782 133.976 63.5742 133.976C64.0542 133.976 64.4702 134.136 64.8222 134.456C65.1742 134.776 65.3502 135.216 65.3502 135.776ZM73.111 152.24C72.247 152.224 71.527 152.128 70.951 151.952C70.391 151.776 69.943 151.528 69.607 151.208C69.271 150.872 69.031 150.464 68.887 149.984C68.759 149.488 68.695 148.928 68.695 148.304V133.856L71.599 133.376V147.752C71.599 148.104 71.623 148.4 71.671 148.64C71.735 148.88 71.839 149.088 71.983 149.264C72.127 149.424 72.319 149.552 72.559 149.648C72.815 149.728 73.135 149.792 73.519 149.84L73.111 152.24ZM79.084 152C78.284 150.352 77.46 148.464 76.612 146.336C75.78 144.192 75.02 141.896 74.332 139.448H77.428C77.604 140.152 77.804 140.912 78.028 141.728C78.268 142.528 78.516 143.336 78.772 144.152C79.044 144.952 79.316 145.736 79.588 146.504C79.876 147.256 80.14 147.936 80.38 148.544C80.62 147.936 80.876 147.256 81.148 146.504C81.42 145.736 81.684 144.952 81.94 144.152C82.212 143.336 82.468 142.528 82.708 141.728C82.948 140.912 83.156 140.152 83.332 139.448H86.332C85.644 141.896 84.876 144.192 84.028 146.336C83.196 148.464 82.38 150.352 81.58 152H79.084ZM87.5236 145.784C87.5236 144.68 87.6836 143.712 88.0036 142.88C88.3396 142.048 88.7796 141.36 89.3236 140.816C89.8676 140.256 90.4916 139.84 91.1956 139.568C91.8996 139.28 92.6196 139.136 93.3556 139.136C95.0836 139.136 96.4276 139.672 97.3876 140.744C98.3636 141.816 98.8516 143.416 98.8516 145.544C98.8516 145.704 98.8436 145.888 98.8276 146.096C98.8276 146.288 98.8196 146.464 98.8036 146.624H90.5236C90.6036 147.632 90.9556 148.416 91.5796 148.976C92.2196 149.52 93.1396 149.792 94.3396 149.792C95.0436 149.792 95.6836 149.728 96.2596 149.6C96.8516 149.472 97.3156 149.336 97.6516 149.192L98.0356 151.568C97.8756 151.648 97.6516 151.736 97.3636 151.832C97.0916 151.912 96.7716 151.984 96.4036 152.048C96.0516 152.128 95.6676 152.192 95.2516 152.24C94.8356 152.288 94.4116 152.312 93.9796 152.312C92.8756 152.312 91.9156 152.152 91.0996 151.832C90.2836 151.496 89.6116 151.04 89.0836 150.464C88.5556 149.872 88.1636 149.184 87.9076 148.4C87.6516 147.6 87.5236 146.728 87.5236 145.784ZM95.9476 144.488C95.9476 144.088 95.8916 143.712 95.7796 143.36C95.6676 142.992 95.4996 142.68 95.2756 142.424C95.0676 142.152 94.8036 141.944 94.4836 141.8C94.1796 141.64 93.8116 141.56 93.3796 141.56C92.9316 141.56 92.5396 141.648 92.2036 141.824C91.8676 141.984 91.5796 142.2 91.3396 142.472C91.1156 142.744 90.9396 143.056 90.8116 143.408C90.6836 143.76 90.5956 144.12 90.5476 144.488H95.9476ZM109.083 142.064C108.843 141.984 108.507 141.904 108.075 141.824C107.659 141.728 107.171 141.68 106.611 141.68C106.291 141.68 105.947 141.712 105.579 141.776C105.227 141.84 104.979 141.896 104.835 141.944V152H101.931V140.048C102.491 139.84 103.187 139.648 104.019 139.472C104.867 139.28 105.803 139.184 106.827 139.184C107.019 139.184 107.243 139.2 107.499 139.232C107.755 139.248 108.011 139.28 108.267 139.328C108.523 139.36 108.771 139.408 109.011 139.472C109.251 139.52 109.443 139.568 109.587 139.616L109.083 142.064Z" fill="#333333"></path><path d="M34.7047 177.656V179H28.0327V167.912H29.5847V177.656H34.7047ZM43.3901 174.84C43.3901 175.501 43.2941 176.099 43.1021 176.632C42.9101 177.165 42.6381 177.624 42.2861 178.008C41.9448 178.392 41.5341 178.691 41.0541 178.904C40.5741 179.107 40.0514 179.208 39.4861 179.208C38.9208 179.208 38.3981 179.107 37.9181 178.904C37.4381 178.691 37.0221 178.392 36.6701 178.008C36.3288 177.624 36.0621 177.165 35.8701 176.632C35.6781 176.099 35.5821 175.501 35.5821 174.84C35.5821 174.189 35.6781 173.597 35.8701 173.064C36.0621 172.52 36.3288 172.056 36.6701 171.672C37.0221 171.288 37.4381 170.995 37.9181 170.792C38.3981 170.579 38.9208 170.472 39.4861 170.472C40.0514 170.472 40.5741 170.579 41.0541 170.792C41.5341 170.995 41.9448 171.288 42.2861 171.672C42.6381 172.056 42.9101 172.52 43.1021 173.064C43.2941 173.597 43.3901 174.189 43.3901 174.84ZM41.8381 174.84C41.8381 173.901 41.6248 173.16 41.1981 172.616C40.7821 172.061 40.2114 171.784 39.4861 171.784C38.7608 171.784 38.1848 172.061 37.7581 172.616C37.3421 173.16 37.1341 173.901 37.1341 174.84C37.1341 175.779 37.3421 176.525 37.7581 177.08C38.1848 177.624 38.7608 177.896 39.4861 177.896C40.2114 177.896 40.7821 177.624 41.1981 177.08C41.6248 176.525 41.8381 175.779 41.8381 174.84ZM46.8756 170.68H50.0276V171.928H46.8756V175.768C46.8756 176.184 46.9076 176.531 46.9716 176.808C47.0356 177.075 47.1316 177.288 47.2596 177.448C47.3876 177.597 47.5476 177.704 47.7396 177.768C47.9316 177.832 48.1556 177.864 48.4116 177.864C48.8596 177.864 49.2169 177.816 49.4836 177.72C49.7609 177.613 49.9529 177.539 50.0596 177.496L50.3476 178.728C50.1983 178.803 49.9369 178.893 49.5636 179C49.1903 179.117 48.7636 179.176 48.2836 179.176C47.7183 179.176 47.2489 179.107 46.8756 178.968C46.5129 178.819 46.2196 178.6 45.9956 178.312C45.7716 178.024 45.6116 177.672 45.5156 177.256C45.4303 176.829 45.3876 176.339 45.3876 175.784V168.36L46.8756 168.104V170.68ZM53.8571 177.928C54.4651 177.928 54.9131 177.848 55.2011 177.688C55.4998 177.528 55.6491 177.272 55.6491 176.92C55.6491 176.557 55.5051 176.269 55.2171 176.056C54.9291 175.843 54.4544 175.603 53.7931 175.336C53.4731 175.208 53.1638 175.08 52.8651 174.952C52.5771 174.813 52.3264 174.653 52.1131 174.472C51.8998 174.291 51.7291 174.072 51.6011 173.816C51.4731 173.56 51.4091 173.245 51.4091 172.872C51.4091 172.136 51.6811 171.555 52.2251 171.128C52.7691 170.691 53.5104 170.472 54.4491 170.472C54.6838 170.472 54.9184 170.488 55.1531 170.52C55.3878 170.541 55.6064 170.573 55.8091 170.616C56.0118 170.648 56.1878 170.685 56.3371 170.728C56.4971 170.771 56.6198 170.808 56.7051 170.84L56.4331 172.12C56.2731 172.035 56.0224 171.949 55.6811 171.864C55.3398 171.768 54.9291 171.72 54.4491 171.72C54.0331 171.72 53.6704 171.805 53.3611 171.976C53.0518 172.136 52.8971 172.392 52.8971 172.744C52.8971 172.925 52.9291 173.085 52.9931 173.224C53.0678 173.363 53.1744 173.491 53.3131 173.608C53.4624 173.715 53.6438 173.816 53.8571 173.912C54.0704 174.008 54.3264 174.109 54.6251 174.216C55.0198 174.365 55.3718 174.515 55.6811 174.664C55.9904 174.803 56.2518 174.968 56.4651 175.16C56.6891 175.352 56.8598 175.587 56.9771 175.864C57.0944 176.131 57.1531 176.461 57.1531 176.856C57.1531 177.624 56.8651 178.205 56.2891 178.6C55.7238 178.995 54.9131 179.192 53.8571 179.192C53.1211 179.192 52.5451 179.128 52.1291 179C51.7131 178.883 51.4304 178.792 51.2811 178.728L51.5531 177.448C51.7238 177.512 51.9958 177.608 52.3691 177.736C52.7424 177.864 53.2384 177.928 53.8571 177.928ZM60.8217 178.136C60.8217 178.424 60.7257 178.675 60.5337 178.888C60.3417 179.101 60.0804 179.208 59.7497 179.208C59.4191 179.208 59.1577 179.101 58.9657 178.888C58.7737 178.675 58.6777 178.424 58.6777 178.136C58.6777 177.848 58.7737 177.597 58.9657 177.384C59.1577 177.171 59.4191 177.064 59.7497 177.064C60.0804 177.064 60.3417 177.171 60.5337 177.384C60.7257 177.597 60.8217 177.848 60.8217 178.136ZM60.8217 171.752C60.8217 172.04 60.7257 172.291 60.5337 172.504C60.3417 172.717 60.0804 172.824 59.7497 172.824C59.4191 172.824 59.1577 172.717 58.9657 172.504C58.7737 172.291 58.6777 172.04 58.6777 171.752C58.6777 171.464 58.7737 171.213 58.9657 171C59.1577 170.787 59.4191 170.68 59.7497 170.68C60.0804 170.68 60.3417 170.787 60.5337 171C60.7257 171.213 60.8217 171.464 60.8217 171.752ZM66.2224 173.448C66.2224 171.592 66.5477 170.163 67.1984 169.16C67.8597 168.157 68.7717 167.656 69.9344 167.656C71.097 167.656 72.0037 168.157 72.6544 169.16C73.3157 170.163 73.6464 171.592 73.6464 173.448C73.6464 175.304 73.3157 176.733 72.6544 177.736C72.0037 178.739 71.097 179.24 69.9344 179.24C68.7717 179.24 67.8597 178.739 67.1984 177.736C66.5477 176.733 66.2224 175.304 66.2224 173.448ZM72.0784 173.448C72.0784 172.84 72.041 172.264 71.9664 171.72C71.9024 171.176 71.785 170.701 71.6144 170.296C71.4544 169.891 71.2357 169.571 70.9584 169.336C70.681 169.091 70.3397 168.968 69.9344 168.968C69.529 168.968 69.1877 169.091 68.9104 169.336C68.633 169.571 68.409 169.891 68.2384 170.296C68.0784 170.701 67.961 171.176 67.8864 171.72C67.8224 172.264 67.7904 172.84 67.7904 173.448C67.7904 174.056 67.8224 174.632 67.8864 175.176C67.961 175.72 68.0784 176.195 68.2384 176.6C68.409 177.005 68.633 177.331 68.9104 177.576C69.1877 177.811 69.529 177.928 69.9344 177.928C70.3397 177.928 70.681 177.811 70.9584 177.576C71.2357 177.331 71.4544 177.005 71.6144 176.6C71.785 176.195 71.9024 175.72 71.9664 175.176C72.041 174.632 72.0784 174.056 72.0784 173.448ZM78.5727 173.512H82.5247V174.904H78.5727V173.512ZM88.1291 170.2C88.7371 169.965 89.3291 169.667 89.9051 169.304C90.4811 168.931 91.0091 168.467 91.4891 167.912H92.5451V179H91.0571V169.976C90.9291 170.093 90.7691 170.216 90.5771 170.344C90.3958 170.472 90.1931 170.595 89.9691 170.712C89.7558 170.829 89.5264 170.941 89.2811 171.048C89.0464 171.155 88.8171 171.245 88.5931 171.32L88.1291 170.2ZM103.688 172.344C103.688 174.541 103.139 176.205 102.04 177.336C100.952 178.456 99.331 179.021 97.1764 179.032L97.1284 177.784C97.8004 177.784 98.403 177.72 98.9364 177.592C99.4804 177.464 99.955 177.261 100.36 176.984C100.766 176.696 101.102 176.328 101.368 175.88C101.646 175.432 101.848 174.883 101.976 174.232C101.699 174.36 101.384 174.467 101.032 174.552C100.68 174.627 100.318 174.664 99.9444 174.664C99.315 174.664 98.7817 174.573 98.3444 174.392C97.907 174.2 97.5497 173.949 97.2724 173.64C96.995 173.32 96.7924 172.957 96.6644 172.552C96.547 172.136 96.4884 171.704 96.4884 171.256C96.4884 170.861 96.5577 170.451 96.6964 170.024C96.835 169.597 97.043 169.208 97.3204 168.856C97.6084 168.504 97.971 168.216 98.4084 167.992C98.8457 167.768 99.363 167.656 99.9604 167.656C100.568 167.656 101.102 167.763 101.56 167.976C102.03 168.189 102.419 168.499 102.728 168.904C103.048 169.309 103.288 169.805 103.448 170.392C103.608 170.968 103.688 171.619 103.688 172.344ZM100.104 173.448C100.478 173.448 100.83 173.416 101.16 173.352C101.491 173.277 101.811 173.171 102.12 173.032C102.131 172.915 102.136 172.803 102.136 172.696C102.136 172.579 102.136 172.461 102.136 172.344C102.136 171.885 102.104 171.448 102.04 171.032C101.976 170.605 101.859 170.237 101.688 169.928C101.528 169.608 101.31 169.357 101.032 169.176C100.755 168.984 100.403 168.888 99.9764 168.888C99.6244 168.888 99.3257 168.963 99.0804 169.112C98.835 169.261 98.6324 169.453 98.4724 169.688C98.3124 169.912 98.195 170.163 98.1204 170.44C98.0564 170.707 98.0244 170.968 98.0244 171.224C98.0244 171.949 98.195 172.504 98.5364 172.888C98.8884 173.261 99.411 173.448 100.104 173.448ZM107.744 178.136C107.744 178.424 107.648 178.675 107.456 178.888C107.264 179.101 107.002 179.208 106.672 179.208C106.341 179.208 106.08 179.101 105.888 178.888C105.696 178.675 105.6 178.424 105.6 178.136C105.6 177.848 105.696 177.597 105.888 177.384C106.08 177.171 106.341 177.064 106.672 177.064C107.002 177.064 107.264 177.171 107.456 177.384C107.648 177.597 107.744 177.848 107.744 178.136ZM116.657 172.344C116.657 174.541 116.108 176.205 115.009 177.336C113.921 178.456 112.3 179.021 110.145 179.032L110.097 177.784C110.769 177.784 111.372 177.72 111.905 177.592C112.449 177.464 112.924 177.261 113.329 176.984C113.734 176.696 114.07 176.328 114.337 175.88C114.614 175.432 114.817 174.883 114.945 174.232C114.668 174.36 114.353 174.467 114.001 174.552C113.649 174.627 113.286 174.664 112.913 174.664C112.284 174.664 111.75 174.573 111.313 174.392C110.876 174.2 110.518 173.949 110.241 173.64C109.964 173.32 109.761 172.957 109.633 172.552C109.516 172.136 109.457 171.704 109.457 171.256C109.457 170.861 109.526 170.451 109.665 170.024C109.804 169.597 110.012 169.208 110.289 168.856C110.577 168.504 110.94 168.216 111.377 167.992C111.814 167.768 112.332 167.656 112.929 167.656C113.537 167.656 114.07 167.763 114.529 167.976C114.998 168.189 115.388 168.499 115.697 168.904C116.017 169.309 116.257 169.805 116.417 170.392C116.577 170.968 116.657 171.619 116.657 172.344ZM113.073 173.448C113.446 173.448 113.798 173.416 114.129 173.352C114.46 173.277 114.78 173.171 115.089 173.032C115.1 172.915 115.105 172.803 115.105 172.696C115.105 172.579 115.105 172.461 115.105 172.344C115.105 171.885 115.073 171.448 115.009 171.032C114.945 170.605 114.828 170.237 114.657 169.928C114.497 169.608 114.278 169.357 114.001 169.176C113.724 168.984 113.372 168.888 112.945 168.888C112.593 168.888 112.294 168.963 112.049 169.112C111.804 169.261 111.601 169.453 111.441 169.688C111.281 169.912 111.164 170.163 111.089 170.44C111.025 170.707 110.993 170.968 110.993 171.224C110.993 171.949 111.164 172.504 111.505 172.888C111.857 173.261 112.38 173.448 113.073 173.448ZM125.688 172.344C125.688 174.541 125.139 176.205 124.04 177.336C122.952 178.456 121.331 179.021 119.176 179.032L119.128 177.784C119.8 177.784 120.403 177.72 120.936 177.592C121.48 177.464 121.955 177.261 122.36 176.984C122.766 176.696 123.102 176.328 123.368 175.88C123.646 175.432 123.848 174.883 123.976 174.232C123.699 174.36 123.384 174.467 123.032 174.552C122.68 174.627 122.318 174.664 121.944 174.664C121.315 174.664 120.782 174.573 120.344 174.392C119.907 174.2 119.55 173.949 119.272 173.64C118.995 173.32 118.792 172.957 118.664 172.552C118.547 172.136 118.488 171.704 118.488 171.256C118.488 170.861 118.558 170.451 118.696 170.024C118.835 169.597 119.043 169.208 119.32 168.856C119.608 168.504 119.971 168.216 120.408 167.992C120.846 167.768 121.363 167.656 121.96 167.656C122.568 167.656 123.102 167.763 123.56 167.976C124.03 168.189 124.419 168.499 124.728 168.904C125.048 169.309 125.288 169.805 125.448 170.392C125.608 170.968 125.688 171.619 125.688 172.344ZM122.104 173.448C122.478 173.448 122.83 173.416 123.16 173.352C123.491 173.277 123.811 173.171 124.12 173.032C124.131 172.915 124.136 172.803 124.136 172.696C124.136 172.579 124.136 172.461 124.136 172.344C124.136 171.885 124.104 171.448 124.04 171.032C123.976 170.605 123.859 170.237 123.688 169.928C123.528 169.608 123.31 169.357 123.032 169.176C122.755 168.984 122.403 168.888 121.976 168.888C121.624 168.888 121.326 168.963 121.08 169.112C120.835 169.261 120.632 169.453 120.472 169.688C120.312 169.912 120.195 170.163 120.12 170.44C120.056 170.707 120.024 170.968 120.024 171.224C120.024 171.949 120.195 172.504 120.536 172.888C120.888 173.261 121.411 173.448 122.104 173.448ZM30.1486 185.8C31.7059 185.8 32.9006 186.099 33.7326 186.696C34.5753 187.283 34.9966 188.163 34.9966 189.336C34.9966 189.976 34.8793 190.525 34.6446 190.984C34.4206 191.432 34.0899 191.8 33.6526 192.088C33.2259 192.365 32.7033 192.568 32.0846 192.696C31.4659 192.824 30.7673 192.888 29.9886 192.888H28.7566V197H27.2046V186.072C27.6419 185.965 28.1273 185.896 28.6606 185.864C29.2046 185.821 29.7006 185.8 30.1486 185.8ZM30.2766 187.16C29.6153 187.16 29.1086 187.176 28.7566 187.208V191.56H29.9246C30.4579 191.56 30.9379 191.528 31.3646 191.464C31.7913 191.389 32.1486 191.272 32.4366 191.112C32.7353 190.941 32.9646 190.712 33.1246 190.424C33.2846 190.136 33.3646 189.768 33.3646 189.32C33.3646 188.893 33.2793 188.541 33.1086 188.264C32.9486 187.987 32.7246 187.768 32.4366 187.608C32.1593 187.437 31.8339 187.32 31.4606 187.256C31.0873 187.192 30.6926 187.16 30.2766 187.16ZM43.8432 192.84C43.8432 193.501 43.7472 194.099 43.5552 194.632C43.3632 195.165 43.0912 195.624 42.7392 196.008C42.3979 196.392 41.9872 196.691 41.5072 196.904C41.0272 197.107 40.5046 197.208 39.9392 197.208C39.3739 197.208 38.8512 197.107 38.3712 196.904C37.8912 196.691 37.4752 196.392 37.1232 196.008C36.7819 195.624 36.5152 195.165 36.3232 194.632C36.1312 194.099 36.0352 193.501 36.0352 192.84C36.0352 192.189 36.1312 191.597 36.3232 191.064C36.5152 190.52 36.7819 190.056 37.1232 189.672C37.4752 189.288 37.8912 188.995 38.3712 188.792C38.8512 188.579 39.3739 188.472 39.9392 188.472C40.5046 188.472 41.0272 188.579 41.5072 188.792C41.9872 188.995 42.3979 189.288 42.7392 189.672C43.0912 190.056 43.3632 190.52 43.5552 191.064C43.7472 191.597 43.8432 192.189 43.8432 192.84ZM42.2912 192.84C42.2912 191.901 42.0779 191.16 41.6512 190.616C41.2352 190.061 40.6646 189.784 39.9392 189.784C39.2139 189.784 38.6379 190.061 38.2112 190.616C37.7952 191.16 37.5872 191.901 37.5872 192.84C37.5872 193.779 37.7952 194.525 38.2112 195.08C38.6379 195.624 39.2139 195.896 39.9392 195.896C40.6646 195.896 41.2352 195.624 41.6512 195.08C42.0779 194.525 42.2912 193.779 42.2912 192.84ZM47.4247 197H45.9367V188.68H47.4247V197ZM46.6727 187.176C46.4061 187.176 46.1767 187.091 45.9847 186.92C45.8034 186.739 45.7127 186.499 45.7127 186.2C45.7127 185.901 45.8034 185.667 45.9847 185.496C46.1767 185.315 46.4061 185.224 46.6727 185.224C46.9394 185.224 47.1634 185.315 47.3447 185.496C47.5367 185.667 47.6327 185.901 47.6327 186.2C47.6327 186.499 47.5367 186.739 47.3447 186.92C47.1634 187.091 46.9394 187.176 46.6727 187.176ZM49.9836 188.92C50.3249 188.835 50.7783 188.744 51.3436 188.648C51.9089 188.552 52.5596 188.504 53.2956 188.504C53.9569 188.504 54.5063 188.6 54.9436 188.792C55.3809 188.973 55.7276 189.235 55.9836 189.576C56.2503 189.907 56.4369 190.307 56.5436 190.776C56.6503 191.245 56.7036 191.763 56.7036 192.328V197H55.2156V192.648C55.2156 192.136 55.1783 191.699 55.1036 191.336C55.0396 190.973 54.9276 190.68 54.7676 190.456C54.6076 190.232 54.3943 190.072 54.1276 189.976C53.8609 189.869 53.5303 189.816 53.1356 189.816C52.9756 189.816 52.8103 189.821 52.6396 189.832C52.4689 189.843 52.3036 189.859 52.1436 189.88C51.9943 189.891 51.8556 189.907 51.7276 189.928C51.6103 189.949 51.5249 189.965 51.4716 189.976V197H49.9836V188.92ZM60.5631 188.68H63.7151V189.928H60.5631V193.768C60.5631 194.184 60.5951 194.531 60.6591 194.808C60.7231 195.075 60.8191 195.288 60.9471 195.448C61.0751 195.597 61.2351 195.704 61.4271 195.768C61.6191 195.832 61.8431 195.864 62.0991 195.864C62.5471 195.864 62.9044 195.816 63.1711 195.72C63.4484 195.613 63.6404 195.539 63.7471 195.496L64.0351 196.728C63.8858 196.803 63.6244 196.893 63.2511 197C62.8778 197.117 62.4511 197.176 61.9711 197.176C61.4058 197.176 60.9364 197.107 60.5631 196.968C60.2004 196.819 59.9071 196.6 59.6831 196.312C59.4591 196.024 59.2991 195.672 59.2031 195.256C59.1178 194.829 59.0751 194.339 59.0751 193.784V186.36L60.5631 186.104V188.68ZM67.5446 195.928C68.1526 195.928 68.6006 195.848 68.8886 195.688C69.1873 195.528 69.3366 195.272 69.3366 194.92C69.3366 194.557 69.1926 194.269 68.9046 194.056C68.6166 193.843 68.1419 193.603 67.4806 193.336C67.1606 193.208 66.8513 193.08 66.5526 192.952C66.2646 192.813 66.0139 192.653 65.8006 192.472C65.5873 192.291 65.4166 192.072 65.2886 191.816C65.1606 191.56 65.0966 191.245 65.0966 190.872C65.0966 190.136 65.3686 189.555 65.9126 189.128C66.4566 188.691 67.1979 188.472 68.1366 188.472C68.3713 188.472 68.6059 188.488 68.8406 188.52C69.0753 188.541 69.2939 188.573 69.4966 188.616C69.6993 188.648 69.8753 188.685 70.0246 188.728C70.1846 188.771 70.3073 188.808 70.3926 188.84L70.1206 190.12C69.9606 190.035 69.7099 189.949 69.3686 189.864C69.0273 189.768 68.6166 189.72 68.1366 189.72C67.7206 189.72 67.3579 189.805 67.0486 189.976C66.7393 190.136 66.5846 190.392 66.5846 190.744C66.5846 190.925 66.6166 191.085 66.6806 191.224C66.7553 191.363 66.8619 191.491 67.0006 191.608C67.1499 191.715 67.3313 191.816 67.5446 191.912C67.7579 192.008 68.0139 192.109 68.3126 192.216C68.7073 192.365 69.0593 192.515 69.3686 192.664C69.6779 192.803 69.9393 192.968 70.1526 193.16C70.3766 193.352 70.5473 193.587 70.6646 193.864C70.7819 194.131 70.8406 194.461 70.8406 194.856C70.8406 195.624 70.5526 196.205 69.9766 196.6C69.4113 196.995 68.6006 197.192 67.5446 197.192C66.8086 197.192 66.2326 197.128 65.8166 197C65.4006 196.883 65.1179 196.792 64.9686 196.728L65.2406 195.448C65.4113 195.512 65.6833 195.608 66.0566 195.736C66.4299 195.864 66.9259 195.928 67.5446 195.928ZM72.6052 199.96H71.0852L76.5092 184.472H77.9972L72.6052 199.96ZM85.6579 195.656V197H78.9859V185.912H80.5379V195.656H85.6579ZM94.3432 192.84C94.3432 193.501 94.2472 194.099 94.0552 194.632C93.8632 195.165 93.5912 195.624 93.2392 196.008C92.8979 196.392 92.4872 196.691 92.0072 196.904C91.5272 197.107 91.0046 197.208 90.4392 197.208C89.8739 197.208 89.3512 197.107 88.8712 196.904C88.3912 196.691 87.9752 196.392 87.6232 196.008C87.2819 195.624 87.0152 195.165 86.8232 194.632C86.6312 194.099 86.5352 193.501 86.5352 192.84C86.5352 192.189 86.6312 191.597 86.8232 191.064C87.0152 190.52 87.2819 190.056 87.6232 189.672C87.9752 189.288 88.3912 188.995 88.8712 188.792C89.3512 188.579 89.8739 188.472 90.4392 188.472C91.0046 188.472 91.5272 188.579 92.0072 188.792C92.4872 188.995 92.8979 189.288 93.2392 189.672C93.5912 190.056 93.8632 190.52 94.0552 191.064C94.2472 191.597 94.3432 192.189 94.3432 192.84ZM92.7912 192.84C92.7912 191.901 92.5779 191.16 92.1512 190.616C91.7352 190.061 91.1646 189.784 90.4392 189.784C89.7139 189.784 89.1379 190.061 88.7112 190.616C88.2952 191.16 88.0872 191.901 88.0872 192.84C88.0872 193.779 88.2952 194.525 88.7112 195.08C89.1379 195.624 89.7139 195.896 90.4392 195.896C91.1646 195.896 91.7352 195.624 92.1512 195.08C92.5779 194.525 92.7912 193.779 92.7912 192.84ZM97.8287 188.68H100.981V189.928H97.8287V193.768C97.8287 194.184 97.8607 194.531 97.9247 194.808C97.9887 195.075 98.0847 195.288 98.2127 195.448C98.3407 195.597 98.5007 195.704 98.6927 195.768C98.8847 195.832 99.1087 195.864 99.3647 195.864C99.8127 195.864 100.17 195.816 100.437 195.72C100.714 195.613 100.906 195.539 101.013 195.496L101.301 196.728C101.151 196.803 100.89 196.893 100.517 197C100.143 197.117 99.7167 197.176 99.2367 197.176C98.6714 197.176 98.2021 197.107 97.8287 196.968C97.4661 196.819 97.1727 196.6 96.9487 196.312C96.7247 196.024 96.5647 195.672 96.4687 195.256C96.3834 194.829 96.3407 194.339 96.3407 193.784V186.36L97.8287 186.104V188.68ZM104.634 196.136C104.634 196.424 104.538 196.675 104.346 196.888C104.154 197.101 103.893 197.208 103.562 197.208C103.232 197.208 102.97 197.101 102.778 196.888C102.586 196.675 102.49 196.424 102.49 196.136C102.49 195.848 102.586 195.597 102.778 195.384C102.97 195.171 103.232 195.064 103.562 195.064C103.893 195.064 104.154 195.171 104.346 195.384C104.538 195.597 104.634 195.848 104.634 196.136ZM104.634 189.752C104.634 190.04 104.538 190.291 104.346 190.504C104.154 190.717 103.893 190.824 103.562 190.824C103.232 190.824 102.97 190.717 102.778 190.504C102.586 190.291 102.49 190.04 102.49 189.752C102.49 189.464 102.586 189.213 102.778 189C102.97 188.787 103.232 188.68 103.562 188.68C103.893 188.68 104.154 188.787 104.346 189C104.538 189.213 104.634 189.464 104.634 189.752ZM110.035 191.448C110.035 189.592 110.36 188.163 111.011 187.16C111.672 186.157 112.584 185.656 113.747 185.656C114.91 185.656 115.816 186.157 116.467 187.16C117.128 188.163 117.459 189.592 117.459 191.448C117.459 193.304 117.128 194.733 116.467 195.736C115.816 196.739 114.91 197.24 113.747 197.24C112.584 197.24 111.672 196.739 111.011 195.736C110.36 194.733 110.035 193.304 110.035 191.448ZM115.891 191.448C115.891 190.84 115.854 190.264 115.779 189.72C115.715 189.176 115.598 188.701 115.427 188.296C115.267 187.891 115.048 187.571 114.771 187.336C114.494 187.091 114.152 186.968 113.747 186.968C113.342 186.968 113 187.091 112.723 187.336C112.446 187.571 112.222 187.891 112.051 188.296C111.891 188.701 111.774 189.176 111.699 189.72C111.635 190.264 111.603 190.84 111.603 191.448C111.603 192.056 111.635 192.632 111.699 193.176C111.774 193.72 111.891 194.195 112.051 194.6C112.222 195.005 112.446 195.331 112.723 195.576C113 195.811 113.342 195.928 113.747 195.928C114.152 195.928 114.494 195.811 114.771 195.576C115.048 195.331 115.267 195.005 115.427 194.6C115.598 194.195 115.715 193.72 115.779 193.176C115.854 192.632 115.891 192.056 115.891 191.448ZM121.306 196.136C121.306 196.424 121.21 196.675 121.018 196.888C120.826 197.101 120.565 197.208 120.234 197.208C119.903 197.208 119.642 197.101 119.45 196.888C119.258 196.675 119.162 196.424 119.162 196.136C119.162 195.848 119.258 195.597 119.45 195.384C119.642 195.171 119.903 195.064 120.234 195.064C120.565 195.064 120.826 195.171 121.018 195.384C121.21 195.597 121.306 195.848 121.306 196.136ZM129.676 188.744C129.676 189.128 129.596 189.501 129.436 189.864C129.286 190.216 129.084 190.568 128.828 190.92C128.572 191.261 128.284 191.603 127.964 191.944C127.644 192.275 127.324 192.6 127.004 192.92C126.822 193.101 126.609 193.315 126.364 193.56C126.129 193.805 125.905 194.061 125.692 194.328C125.478 194.595 125.297 194.851 125.148 195.096C125.009 195.341 124.94 195.555 124.94 195.736H130.044V197H123.324C123.313 196.936 123.308 196.872 123.308 196.808C123.308 196.744 123.308 196.685 123.308 196.632C123.308 196.131 123.388 195.667 123.548 195.24C123.718 194.803 123.937 194.392 124.204 194.008C124.47 193.624 124.769 193.261 125.1 192.92C125.43 192.579 125.756 192.248 126.076 191.928C126.342 191.672 126.593 191.421 126.828 191.176C127.073 190.92 127.286 190.669 127.468 190.424C127.66 190.168 127.809 189.907 127.916 189.64C128.033 189.373 128.092 189.091 128.092 188.792C128.092 188.472 128.038 188.2 127.932 187.976C127.836 187.752 127.702 187.565 127.532 187.416C127.361 187.267 127.158 187.16 126.924 187.096C126.7 187.021 126.46 186.984 126.204 186.984C125.894 186.984 125.612 187.027 125.356 187.112C125.1 187.197 124.87 187.299 124.668 187.416C124.465 187.523 124.294 187.64 124.156 187.768C124.017 187.885 123.91 187.976 123.836 188.04L123.1 186.984C123.196 186.877 123.34 186.749 123.532 186.6C123.724 186.44 123.953 186.291 124.22 186.152C124.486 186.013 124.785 185.896 125.116 185.8C125.446 185.704 125.804 185.656 126.188 185.656C127.35 185.656 128.22 185.928 128.796 186.472C129.382 187.005 129.676 187.763 129.676 188.744Z" fill="#333333"></path></svg>