<?xml version="1.0" standalone="no"?>
<!DOCTYPE svg PUBLIC "-//W3C//DTD SVG 1.1//EN" "http://www.w3.org/Graphics/SVG/1.1/DTD/svg11.dtd" >
<svg xmlns="http://www.w3.org/2000/svg">
<metadata>Generated by IcoMoon</metadata>
<defs>
<font id="Round-Icons-Email" horiz-adv-x="1024">
<font-face units-per-em="1024" ascent="960" descent="-64" />
<missing-glyph horiz-adv-x="1024" />
<glyph unicode="&#x20;" horiz-adv-x="512" d="" />
<glyph unicode="&#xe900;" glyph-name="Email_Email-01" d="M593.203 272.947h-530.364c-5.973 0-10.803 4.847-10.803 10.803v442.419l405.641-283.255c2.236-1.57 4.83-2.355 7.458-2.355s5.239 0.785 7.475 2.372l405.589 285.235v-209.22c0-14.37 11.657-25.993 26.010-25.993 14.387 0 26.010 11.639 26.010 25.993v210.347c0 18.21-7.885 35.516-21.658 47.445-11.418 9.933-26.027 15.394-41.182 15.394h-804.54c-34.662 0.017-62.839-28.177-62.839-62.839v-445.542c0-34.628 28.177-62.822 62.839-62.822h530.364c14.37 0 26.010 11.639 26.010 26.010 0 14.387-11.639 26.010-26.010 26.010zM465.084 469.47l-387.584 270.643h772.454l-384.87-270.643zM969.335 422.895c-35.294 35.294-82.21 54.733-132.147 54.733-49.92 0-96.853-19.439-132.147-54.733s-54.75-82.227-54.75-132.164c0-49.92 19.439-96.836 54.733-132.13 35.311-35.311 82.244-54.75 132.164-54.75s96.853 19.439 132.147 54.733c72.875 72.875 72.875 191.437 0 264.311zM932.557 195.362c-25.463-25.463-59.358-39.492-95.369-39.492s-69.905 14.029-95.386 39.509c-25.463 25.463-39.475 59.341-39.475 95.351 0 36.028 14.029 69.905 39.492 95.386 25.481 25.463 59.358 39.492 95.369 39.492 36.028 0 69.905-14.012 95.369-39.492 52.582-52.582 52.582-138.172 0-190.754zM856.593 289.741l54.238 54.238c5.086 5.069 5.086 13.295 0 18.381s-13.312 5.086-18.381 0l-54.255-54.238-54.221 54.221c-5.086 5.086-13.295 5.086-18.381 0s-5.086-13.312 0-18.381l54.221-54.221-54.238-54.238c-5.086-5.086-5.086-13.312 0-18.398 2.526-2.526 5.871-3.806 9.182-3.806 3.328 0 6.673 1.263 9.199 3.806l54.238 54.238 54.255-54.238c2.526-2.543 5.871-3.823 9.199-3.823s6.656 1.263 9.199 3.823c5.069 5.069 5.069 13.295 0 18.381l-54.255 54.255z" />
<glyph unicode="&#xe901;" glyph-name="Email_Email-02" d="M1000.175 800.546c-12.561 10.94-28.672 16.93-45.329 16.93h-885.675c-38.161 0-69.171-31.010-69.171-69.154v-490.462c0-38.127 31.010-69.154 69.171-69.154h602.914c15.821 0 28.638 12.817 28.638 28.638s-12.817 28.638-28.638 28.638h-602.914c-6.571 0-11.895 5.325-11.895 11.878v487.031l446.532-311.825c2.475-1.741 5.325-2.577 8.192-2.577 2.884 0 5.769 0.87 8.226 2.594l446.481 313.975v-249.378c0-15.821 12.817-28.638 28.638-28.638s28.655 12.817 28.655 28.638v250.641c0 20.036-8.704 39.1-23.825 52.224zM511.966 462.285l-426.667 297.933h850.33l-423.663-297.933zM922.624 460.663c-33.058 2.953-56.73-9.011-72.636-25.498-15.923 16.486-40.636 28.382-72.516 25.515-18.739-1.57-46.438-13.892-66.116-37.922-18.739-22.869-26.726-51.61-23.108-83.166 3.379-29.013 10.291-50.227 42.308-99.174l2.031-3.106c46.524-70.878 76.288-118.101 93.047-145.237 5.239-8.431 14.438-13.585 24.354-13.585h0.017c9.916 0 19.115 5.154 24.354 13.568 39.782 64.29 89.481 139.844 95.078 148.326 32.034 48.964 38.912 70.178 42.257 99.209 3.618 31.539-4.369 60.279-23.108 83.149-19.695 24.064-47.394 36.369-65.963 37.922zM954.778 346.163c-2.031-17.681-4.71-30.737-33.229-74.308-4.489-6.81-37.769-57.429-71.543-110.746-17.118 27.034-39.987 62.635-69.53 107.674l-1.98 3.021c-28.587 43.674-31.3 56.73-33.348 74.394-1.809 15.94 1.69 29.457 10.428 40.175 9.847 12.1 23.177 16.93 26.778 17.254 1.604 0.154 3.157 0.222 4.642 0.222 24.542 0 28.518-20.173 28.535-20.275l0.512-4.813c3.174-30.891 20.207-37.342 33.946-37.342s30.788 6.485 33.929 37.359l0.478 4.71c0.034 0.222 3.994 20.361 28.553 20.361 1.502 0 3.055-0.068 4.762-0.222 3.465-0.324 16.777-5.154 26.641-17.237 8.772-10.735 12.288-24.269 10.428-40.226z" />
<glyph unicode="&#xe902;" glyph-name="Email_Email-03" d="M651.093 240.725c0 15.121-12.237 27.375-27.358 27.375h-557.67c-6.263 0-11.366 5.086-11.366 11.349v465.186l426.53-297.83c2.355-1.638 5.086-2.475 7.834-2.475s5.495 0.836 7.868 2.492l426.479 299.93v-219.989c0-15.121 12.254-27.358 27.358-27.358 15.121 0 27.375 12.237 27.375 27.358v221.184c0 19.166-8.311 37.359-22.767 49.886-11.998 10.428-27.375 16.179-43.315 16.179h-845.995c-36.437 0-66.065-29.628-66.065-66.065v-468.497c0-36.437 29.628-66.065 66.065-66.065h557.687c15.121 0 27.341 12.254 27.341 27.341zM489.028 474.709l-407.569 284.604h812.254l-404.685-284.604zM1018.658 383.881l-74.854 74.854c-7.134 7.134-18.671 7.134-25.805 0l-217.225-217.259c-0.393-0.393-0.683-0.87-1.058-1.28-0.307-0.358-0.614-0.7-0.887-1.075-0.734-1.058-1.365-2.133-1.86-3.26-0.034-0.085-0.102-0.171-0.137-0.256l-0.051-0.102c-0.017-0.034-0.034-0.068-0.051-0.102l-53.419-128.171c-2.85-6.81-1.297-14.677 3.925-19.917 3.482-3.482 8.158-5.325 12.902-5.325 2.372 0 4.745 0.444 7.014 1.399l128.307 53.504c0 0 0.017 0 0.017 0.017h0.034c0.017 0.017 0.051 0.051 0.085 0.051 1.212 0.512 2.372 1.195 3.447 1.963 0.358 0.273 0.683 0.563 1.041 0.853 0.427 0.358 0.905 0.683 1.297 1.075l217.259 217.242c3.413 3.413 5.342 8.073 5.342 12.902s-1.911 9.472-5.325 12.885zM694.016 134.093l25.993 62.327 36.318-36.318-62.31-26.010zM788.497 179.524l-49.067 49.084 191.454 191.488 49.067-49.067-191.454-191.505z" />
<glyph unicode="&#xe903;" glyph-name="Email_Email-04" d="M654.524 243.763h-589.926c-6.11 0-11.11 5.001-11.11 11.093v454.929l417.109-291.243c2.304-1.604 4.966-2.406 7.646-2.406s5.376 0.802 7.697 2.441l417.058 293.257v-250.778c0-14.797 11.964-26.761 26.743-26.761 14.763 0 26.743 11.964 26.743 26.761v251.955c0 18.722-8.124 36.506-22.272 48.777-11.725 10.206-26.761 15.838-42.342 15.838h-827.273c-35.618 0-64.597-28.996-64.597-64.614v-458.138c0-35.601 28.979-64.597 64.597-64.597h589.909c14.78 0 26.743 11.964 26.743 26.761 0.017 14.763-11.947 26.726-26.726 26.726zM478.225 445.833l-398.558 278.289h794.283l-395.725-278.289zM1023.113 345.737c-2.099 6.468-7.68 11.162-14.404 12.169l-110.626 16.060-49.459 100.267c-3.021 6.059-9.216 9.933-16.009 9.933s-12.988-3.874-15.991-9.933l-49.493-100.267-110.626-16.060c-6.724-1.007-12.305-5.7-14.404-12.169-2.099-6.434-0.358-13.534 4.506-18.261l80.077-78.029-18.91-110.199c-1.126-6.707 1.621-13.466 7.1-17.425 5.495-3.994 12.783-4.54 18.79-1.365l98.97 52.036 98.953-52.036c2.611-1.365 5.461-2.065 8.294-2.065 3.703 0 7.39 1.161 10.479 3.43 5.478 3.959 8.243 10.735 7.1 17.425l-18.876 110.199 80.043 78.029c4.847 4.727 6.588 11.827 4.489 18.261zM906.957 268.407c-4.198-4.062-6.11-9.967-5.137-15.77l14.387-83.831-75.281 39.595c-5.188 2.731-11.418 2.731-16.606 0l-75.281-39.595 14.387 83.831c0.99 5.803-0.939 11.708-5.137 15.77l-60.894 59.392 84.156 12.203c5.837 0.87 10.837 4.506 13.449 9.762l37.632 76.271 37.632-76.271c2.594-5.274 7.612-8.892 13.431-9.762l84.173-12.203-60.911-59.392z" />
<glyph unicode="&#xe904;" glyph-name="Email_Email-05" d="M641.775 281.481h-578.423c-6.025 0-10.906 4.881-10.906 10.889v446.037l408.969-285.559c2.253-1.587 4.881-2.372 7.492-2.372 2.645 0 5.291 0.802 7.543 2.406l408.917 287.556v-245.879c0-14.507 11.742-26.231 26.231-26.231s26.214 11.742 26.214 26.231v247.006c0 18.364-7.953 35.806-21.828 47.855-11.52 10.001-26.266 15.497-41.523 15.497h-811.11c-34.935 0-63.351-28.416-63.351-63.351v-449.195c0-34.935 28.416-63.334 63.351-63.334h578.423c14.49 0 26.231 11.742 26.231 26.214s-11.759 26.231-26.231 26.231zM468.907 479.607l-390.775 272.862h778.803l-388.028-272.862zM859.307 450.645c-0.137 0-0.29 0-0.41 0-71.799-0.188-136.038-48.401-156.211-117.248-2.048-6.946 1.946-14.234 8.892-16.265 1.212-0.358 2.475-0.529 3.686-0.529 5.683 0 10.923 3.703 12.578 9.438 16.93 57.771 70.844 98.236 131.123 98.389 0.119 0 0.239 0 0.358 0 46.234 0 88.576-23.040 113.869-60.962l-118.903 24.832-5.325-25.685 154.163-32.205 20.873 156.126-26.010 3.499-13.158-98.304c-30.635 36.966-76.254 58.914-125.525 58.914zM1008.179 264.209c-7.049 1.724-14.148-2.577-15.872-9.609-15.019-61.201-69.598-104.055-132.676-104.209-0.119 0-0.222 0-0.341 0-48.026 0-92.467 25.498-117.094 66.048l117.658-30.089 6.468 25.446-152.593 38.963-27.785-155.034 25.839-4.642 17.493 97.707c30.498-40.090 78.575-64.614 130.031-64.614 0.137 0 0.273 0 0.393 0 75.162 0.171 140.169 51.251 158.106 124.177 1.707 7.031-2.594 14.131-9.626 15.855z" />
<glyph unicode="&#xe905;" glyph-name="Email_Email-06" d="M601.873 272.964h-539.034c-5.956 0-10.803 4.83-10.803 10.803v442.402l405.623-283.238c2.253-1.57 4.847-2.372 7.458-2.372s5.257 0.802 7.475 2.372l405.606 285.235v-209.203c0-14.37 11.657-25.993 26.010-25.993s26.010 11.639 26.010 25.993v210.33c0 18.227-7.902 35.533-21.658 47.462-11.418 9.933-26.044 15.36-41.182 15.36h-804.54c-34.662 0.017-62.839-28.143-62.839-62.822v-445.525c0-34.628 28.177-62.839 62.839-62.839h539.034c14.37 0 25.993 11.639 25.993 26.027 0 14.37-11.639 26.010-25.993 26.010zM465.084 469.47l-387.584 270.66h772.454l-384.87-270.66zM969.353 422.895c-35.294 35.294-82.227 54.733-132.164 54.733-49.92 0-96.853-19.439-132.181-54.733-72.858-72.875-72.841-191.437 0.034-264.294 35.294-35.294 82.244-54.733 132.164-54.733 49.937 0 96.853 19.439 132.147 54.733 72.858 72.858 72.858 191.437 0 264.294zM932.574 195.362c-25.463-25.463-59.341-39.492-95.369-39.492-36.011 0-69.905 14.029-95.386 39.526-52.582 52.565-52.582 138.138-0.017 190.703 25.481 25.498 59.375 39.526 95.386 39.526 36.028 0 69.905-14.029 95.386-39.492 52.565-52.599 52.565-138.172 0-190.771zM925.508 326.861l-74.308-79.94v127.181c0 7.202-5.82 13.039-13.005 13.039s-13.022-5.837-13.022-13.039v-127.232l-74.308 80.009-19.063-17.766 106.359-114.398 106.394 114.398-19.046 17.749z" />
<glyph unicode="&#xe906;" glyph-name="Email_Email-07" d="M593.152 272.964h-530.313c-5.956 0-10.803 4.847-10.803 10.803v442.368l405.606-283.221c2.236-1.57 4.83-2.355 7.441-2.355s5.257 0.802 7.475 2.372l405.572 285.201v-209.186c0-14.37 11.657-26.010 26.010-26.010s25.993 11.657 25.993 26.010v210.33c0 18.193-7.885 35.499-21.641 47.445-11.418 9.916-26.044 15.377-41.182 15.377h-804.471c-34.645 0.017-62.839-28.177-62.839-62.822v-445.508c0-34.628 28.194-62.822 62.839-62.822h530.313c14.37 0 26.010 11.657 26.010 26.010s-11.639 26.010-26.010 26.010zM465.050 469.47l-387.567 270.609h772.403l-384.836-270.609zM969.267 422.895c-0.034 0.034-0.085 0.068-0.137 0.119 0 0.017-0.034 0.051-0.051 0.068-0.051 0.034-0.102 0.068-0.154 0.119-35.243 35.106-82.039 54.426-131.823 54.426-49.903 0-96.836-19.439-132.13-54.733s-54.733-82.227-54.733-132.147c-0.017-49.92 19.439-96.836 54.716-132.113 0.495-0.495 1.041-0.922 1.536-1.399 0.256-0.273 0.427-0.58 0.7-0.853 0.631-0.597 1.331-1.058 1.997-1.604 34.799-32.768 79.923-50.893 127.915-50.893 49.92 0 96.853 19.422 132.147 54.716s54.75 82.227 54.75 132.147-19.439 96.853-54.733 132.147zM741.769 386.116c25.463 25.463 59.341 39.492 95.351 39.492 27.29 0 53.299-8.073 75.401-23.040l-185.771-189.15c-15.855 22.511-24.491 49.237-24.491 77.329 0 36.028 14.046 69.888 39.509 95.369zM932.489 195.379c-25.463-25.446-59.358-39.475-95.369-39.475-26.249 0-51.337 7.526-72.892 21.453l185.020 188.399c14.78-22.016 22.733-47.906 22.733-75.008 0-36.011-14.029-69.888-39.492-95.369z" />
<glyph unicode="&#xe907;" glyph-name="Email_Email-08" d="M620.51 281.003h-555.725c-6.144 0-11.145 5.001-11.145 11.127v456.141l418.219-292.028c2.304-1.638 4.983-2.441 7.663-2.441 2.697 0 5.41 0.802 7.714 2.441l418.167 294.059v-215.671c0-14.831 12.015-26.829 26.829-26.829 14.797 0 26.812 11.998 26.812 26.829v216.832c0 18.807-8.141 36.625-22.323 48.93-11.776 10.24-26.846 15.872-42.462 15.872h-829.474c-35.721 0-64.785-29.065-64.785-64.802v-459.332c0-35.738 29.065-64.768 64.785-64.768h555.725c14.814 0 26.812 11.998 26.812 26.795 0.017 14.848-11.981 26.846-26.812 26.846zM479.505 483.601l-399.599 279.040h796.399l-396.8-279.040zM997.188 341.538h-10.53v14.302c0 75.861-61.696 137.574-137.54 137.574s-137.557-61.696-137.557-137.574v-14.302h-10.513c-14.814 0-26.812-11.998-26.812-26.795v-208.162c0-14.831 11.998-26.829 26.812-26.829h296.141c14.814 0 26.812 11.998 26.812 26.829v208.145c0 14.814-11.998 26.812-26.812 26.812zM765.201 355.84c0 46.268 37.649 83.934 83.917 83.934s83.9-37.666 83.9-83.934v-14.302h-167.817v14.302zM970.359 133.359h-242.5v154.539h242.5v-154.539zM832.905 201.66v-43.964h33.382v43.127c13.841 6.127 23.552 19.968 23.552 36.062 0 21.76-17.698 39.458-39.458 39.458s-39.458-17.698-39.458-39.458c-0.017-15.445 8.994-28.757 21.982-35.226zM850.364 251.068c7.817 0 14.165-6.366 14.165-14.165 0-0.137-0.034-0.273-0.034-0.393h-1.519c0 0.137 0.034 0.273 0.034 0.393 0 6.963-5.649 12.663-12.646 12.663-6.98 0-12.646-5.7-12.646-12.663 0-0.137 0.034-0.273 0.034-0.393h-1.519c0 0.137-0.034 0.273-0.034 0.393 0 7.799 6.349 14.165 14.165 14.165z" />
<glyph unicode="&#xe908;" glyph-name="Email_Email-09" d="M939.366 775.168h-854.75c-46.643 0-84.617-37.973-84.617-84.634v-485.086c0-46.643 37.973-84.617 84.617-84.617h854.75c46.66 0 84.634 37.973 84.634 84.617v485.086c0 46.66-37.973 84.634-84.634 84.634zM967.799 205.449c0-15.667-12.766-28.416-28.433-28.416h-854.75c-15.667 0-28.416 12.749-28.416 28.416v485.086c0 15.667 12.749 28.433 28.416 28.433h854.75c15.667 0 28.433-12.766 28.433-28.433v-485.086zM870.229 640.887l-358.281-185.054-363.674 185.088c-6.929 3.533-15.377 0.768-18.893-6.144-3.533-6.912-0.768-15.377 6.127-18.893l370.125-188.365c0.563-0.307 1.178-0.444 1.775-0.649 0.358-0.137 0.7-0.307 1.058-0.393 1.143-0.307 2.338-0.478 3.516-0.478v0 0c1.178 0 2.389 0.188 3.55 0.478 0.358 0.102 0.7 0.29 1.058 0.41 0.614 0.205 1.229 0.358 1.826 0.666l364.681 188.348c6.878 3.567 9.591 12.032 6.042 18.927-3.533 6.912-12.015 9.591-18.91 6.059zM377.498 452.966l-159.898-159.898c-5.478-5.495-5.478-14.387 0-19.866 2.748-2.748 6.349-4.13 9.933-4.13 3.601 0 7.202 1.382 9.933 4.13l159.898 159.881c5.495 5.495 5.495 14.387 0 19.883-5.478 5.478-14.387 5.478-19.866 0zM646.758 449.98c-5.495 5.478-14.387 5.478-19.866 0-5.495-5.495-5.495-14.387 0-19.883l155.904-155.921c2.748-2.748 6.332-4.113 9.933-4.113s7.202 1.365 9.933 4.113c5.495 5.478 5.495 14.387 0 19.866l-155.904 155.938z" />
<glyph unicode="&#xe909;" glyph-name="Email_Email-10" d="M700.092 305.408c-2.56 2.236-5.837 3.447-9.216 3.447h-0.017l-357.069-0.666c-3.294 0-6.485-1.161-9.011-3.294l-138.155-116.395c-5.939-5.001-6.69-13.858-1.69-19.797 2.782-3.294 6.758-5.001 10.752-5.001 3.209 0 6.417 1.092 9.045 3.294l134.212 113.118 346.675 0.631 129.741-112.503c5.854-5.103 14.746-4.454 19.814 1.417 5.086 5.871 4.454 14.729-1.417 19.814l-133.666 115.934zM1023.607 523.605c1.365 9.506-2.048 19.439-10.052 25.907l-483.908 390.332c-10.308 8.294-25.003 8.294-35.294 0l-483.908-390.349c-8.004-6.468-11.418-16.401-10.052-25.907-0.171-1.28-0.393-2.611-0.393-3.959v-485.069c0-46.66 37.973-84.634 84.634-84.634h854.75c46.643 0 84.617 37.973 84.617 84.634v485.069c0 1.348-0.222 2.679-0.393 3.977zM939.383 6.144h-854.75c-15.667 0-28.433 12.732-28.433 28.416v456.858l248.064-177.63c2.475-1.775 5.325-2.611 8.175-2.611 4.369 0 8.687 2.031 11.435 5.871 4.523 6.298 3.072 15.087-3.243 19.593l-256.683 183.791 448.051 361.438 445.559-359.441-255.147-185.856c-6.281-4.591-7.646-13.363-3.106-19.627 2.748-3.789 7.049-5.786 11.383-5.786 2.867 0 5.769 0.87 8.243 2.679l248.849 181.248v-460.527c0.017-15.684-12.732-28.416-28.399-28.416z" />
<glyph unicode="&#xe90a;" glyph-name="Email_Email-11" d="M645.291 251.068h-581.615c-6.042 0-10.957 4.898-10.957 10.94v448.461l411.204-287.147c2.27-1.57 4.898-2.372 7.543-2.372s5.325 0.802 7.578 2.406l411.153 289.126v-247.228c0-14.575 11.793-26.368 26.368-26.368s26.368 11.793 26.368 26.368v248.388c0 18.466-7.987 35.994-21.931 48.111-11.588 10.052-26.402 15.599-41.728 15.599h-815.599c-35.089 0-63.676-28.57-63.676-63.71v-451.652c0-35.14 28.587-63.693 63.676-63.693h581.615c14.575 0 26.368 11.827 26.368 26.402s-11.81 26.368-26.368 26.368zM471.45 450.27l-392.892 274.347h783.070l-390.178-274.347zM1016.286 163.669l-101.001 100.966c10.871 19.098 17.135 41.097 17.135 64.597 0 72.329-58.829 131.209-131.191 131.209s-131.209-58.863-131.209-131.209c0-72.363 58.863-131.209 131.209-131.209 29.764 0 57.173 10.103 79.223 26.863l98.526-98.526c5.154-5.137 11.895-7.731 18.654-7.731s13.483 2.594 18.654 7.731c10.291 10.308 10.291 26.999 0 37.308zM722.773 329.233c0 43.264 35.191 78.473 78.473 78.473 43.247 0 78.455-35.191 78.455-78.473s-35.191-78.473-78.455-78.473c-43.281 0-78.473 35.209-78.473 78.473z" />
<glyph unicode="&#xe90b;" glyph-name="Email_Email-12" d="M629.026 279.228h-566.938c-5.888 0-10.684 4.796-10.684 10.667v437.197l400.845-279.893c2.219-1.57 4.779-2.338 7.356-2.338s5.188 0.802 7.407 2.372l400.811 281.839v-241.015c0-14.199 11.503-25.702 25.702-25.702s25.719 11.503 25.719 25.702v242.142c0 18.005-7.799 35.089-21.402 46.899-11.298 9.796-25.754 15.206-40.704 15.206h-795.051c-34.236-0.017-62.089-27.87-62.089-62.106v-440.286c0-34.253 27.853-62.071 62.089-62.071h566.955c14.199 0 25.702 11.503 25.702 25.702s-11.52 25.685-25.719 25.685zM459.588 473.429l-383.027 267.452h763.341l-380.314-267.452zM849.715 452.233c-96.085 0-174.251-78.165-174.251-174.268 0-96.068 78.165-174.268 174.251-174.268 96.102 0 174.285 78.199 174.285 174.268 0 96.102-78.182 174.268-174.285 174.268zM849.715 155.136c-67.738 0-122.846 55.108-122.846 122.829 0 67.772 55.108 122.863 122.846 122.863 67.755 0 122.863-55.108 122.863-122.863 0-67.738-55.108-122.829-122.863-122.829zM895.659 277.965h-41.66v76.373c0 4.727-3.84 8.567-8.567 8.567s-8.567-3.84-8.567-8.567v-84.941c0-4.727 3.84-8.567 8.567-8.567h50.227c4.727 0 8.567 3.84 8.567 8.567s-3.823 8.567-8.567 8.567z" />
<glyph unicode="&#xe90c;" glyph-name="Email_Email-13" d="M645.564 246.306h-581.837c-6.042 0-10.974 4.915-10.974 10.957v448.683l411.392-287.3c2.27-1.587 4.898-2.372 7.543-2.372s5.308 0.802 7.578 2.406l411.358 289.246v-247.33c0-14.575 11.81-26.385 26.385-26.385s26.385 11.81 26.385 26.385v248.491c0 18.483-8.021 36.011-21.948 48.128-11.588 10.052-26.419 15.599-41.762 15.599h-815.957c-35.123 0-63.727-28.587-63.727-63.727v-451.84c0-35.14 28.604-63.71 63.727-63.71h581.837c14.575 0 26.385 11.81 26.385 26.385s-11.81 26.385-26.385 26.385zM471.671 445.577l-393.079 274.483h783.377l-390.298-274.483zM1019.307 164.625l-152.593 280.883c-4.608 8.499-13.5 13.807-23.159 13.807-0.068 0-0.137 0-0.188 0-9.728-0.068-18.654-5.495-23.159-14.114l-148.975-283.358c-4.301-8.175-4.011-18.022 0.768-25.924 4.762-7.902 13.329-12.749 22.579-12.749h302.865c0.068 0 0.137 0 0.188 0 14.575 0 26.368 11.81 26.368 26.385 0 5.615-1.741 10.803-4.693 15.070zM738.253 175.957l105.643 200.994 109.193-200.994h-214.835zM843.622 217.566c-4.523 0-8.38-1.587-11.554-4.762-3.191-3.191-4.762-7.031-4.762-11.554s1.587-8.363 4.762-11.554c3.174-3.191 7.031-4.762 11.554-4.762s8.38 1.604 11.605 4.813c3.209 3.209 4.813 7.049 4.813 11.503 0 4.523-1.604 8.363-4.813 11.554s-7.1 4.762-11.605 4.762zM830.43 331.554h26.351v-102.622h-26.351v102.622z" />
<glyph unicode="&#xe90d;" glyph-name="Email_Email-14" d="M610.543 280.098h-547.703c-5.956 0-10.803 4.83-10.803 10.803v442.419l405.641-283.255c2.253-1.57 4.83-2.338 7.458-2.338s5.257 0.768 7.475 2.372l405.623 285.218v-217.89c0-14.37 11.657-25.993 26.010-25.993s26.010 11.639 26.010 25.993v219.034c0 18.21-7.885 35.516-21.692 47.462-11.418 9.916-26.027 15.377-41.148 15.377h-804.574c-34.645-0.017-62.839-28.194-62.839-62.839v-445.559c0-34.628 28.194-62.839 62.839-62.839h547.721c14.37 0 26.010 11.639 26.010 26.027 0 14.37-11.657 26.010-26.027 26.010zM465.101 476.604l-387.601 270.66h772.489l-384.887-270.66zM1008.981 255.061c-14.114 1.929-24.764 14.131-24.764 28.365 0 14.268 10.65 26.436 24.764 28.365 4.966 0.666 9.404 3.465 12.151 7.663 2.765 4.164 3.567 9.335 2.236 14.165-8.414 30.174-24.474 57.958-46.455 80.401-3.499 3.601-8.346 5.427-13.38 5.205-5.001-0.307-9.626-2.731-12.715-6.707-8.397-10.837-24.849-14.234-36.949-7.236-12.356 7.1-17.562 22.426-12.169 35.635 1.911 4.625 1.724 9.865-0.529 14.37-2.236 4.506-6.332 7.765-11.162 9.028-30.14 7.731-62.703 7.765-92.843 0-4.847-1.229-8.926-4.54-11.179-8.994-2.27-4.471-2.475-9.728-0.563-14.37 5.41-13.193 0.171-28.535-12.203-35.635-12.066-6.963-28.535-3.601-36.932 7.27-3.072 3.959-7.697 6.4-12.698 6.707-5.035 0.273-9.882-1.604-13.397-5.205-21.999-22.46-38.076-50.261-46.507-80.469-1.348-4.83-0.529-10.001 2.219-14.165 2.748-4.198 7.185-6.997 12.151-7.663 14.131-1.929 24.764-14.097 24.764-28.365 0-14.234-10.633-26.436-24.764-28.365-4.966-0.666-9.404-3.465-12.151-7.629-2.748-4.198-3.567-9.37-2.219-14.199 8.38-30.174 24.439-57.958 46.438-80.401 3.499-3.601 8.482-5.495 13.397-5.205 4.983 0.307 9.626 2.731 12.698 6.707 8.431 10.871 24.866 14.234 36.949 7.236 12.356-7.134 17.579-22.46 12.186-35.669-1.911-4.625-1.707-9.865 0.529-14.37 2.253-4.471 6.332-7.765 11.196-8.994 15.070-3.874 30.703-5.837 46.455-5.837 15.684 0 31.283 1.963 46.353 5.803 4.864 1.263 8.943 4.54 11.196 9.028 2.253 4.471 2.475 9.728 0.546 14.37-5.41 13.193-0.188 28.535 12.186 35.669 12.083 6.963 28.535 3.601 36.949-7.305 3.072-3.925 7.697-6.4 12.698-6.707 4.966-0.341 9.882 1.604 13.414 5.171 21.999 22.46 38.076 50.295 46.507 80.503 1.331 4.83 0.529 10.001-2.236 14.199-2.765 4.164-7.202 6.963-12.169 7.629zM963.055 189.508c-19.371 12.766-46.080 13.926-66.577 2.099-21.163-12.203-32.905-35.328-31.539-58.692-14.199-1.997-28.809-1.997-42.94 0 1.399 23.364-10.325 46.507-31.505 58.692-20.463 11.861-47.172 10.735-66.56-2.031-8.892 11.332-16.162 23.893-21.521 37.239 20.924 10.496 35.089 32.205 35.089 56.627s-14.165 46.131-35.089 56.627c5.376 13.363 12.646 25.941 21.589 37.308 19.354-12.766 46.046-13.892 66.526-2.099 21.18 12.237 32.939 35.328 31.556 58.692 14.165 1.997 28.791 1.997 42.957 0-1.399-23.364 10.308-46.507 31.505-58.726 20.48-11.793 47.189-10.701 66.543 2.065 8.892-11.332 16.145-23.893 21.521-37.239-20.924-10.496-35.072-32.205-35.072-56.627s14.148-46.131 35.072-56.627c-5.376-13.38-12.646-25.941-21.555-37.308zM843.52 365.227c-45.124 0-81.818-36.659-81.818-81.801 0-45.107 36.693-81.801 81.818-81.801s81.801 36.693 81.801 81.801c0 45.141-36.693 81.801-81.801 81.801zM843.52 227.635c-30.771 0-55.808 25.037-55.808 55.808s25.037 55.808 55.808 55.808 55.791-25.037 55.791-55.808-25.020-55.808-55.791-55.808z" />
<glyph unicode="&#xe90e;" glyph-name="Email_Email-15" d="M601.89 272.947h-539.034c-5.973 0-10.837 4.847-10.837 10.803v442.436l405.658-283.273c2.236-1.57 4.83-2.355 7.458-2.355 2.594 0 5.239 0.785 7.475 2.372l405.606 285.218v-209.203c0-14.37 11.657-25.993 26.010-25.993s26.010 11.639 26.010 25.993v210.347c0 18.193-7.885 35.499-21.641 47.445-11.401 9.916-26.044 15.394-41.199 15.394h-804.54c-34.679 0.017-62.857-28.177-62.857-62.839v-445.542c0-34.628 28.177-62.822 62.857-62.822h539.034c14.37 0 25.993 11.639 25.993 26.010 0 14.387-11.639 26.010-25.993 26.010zM465.084 469.47l-387.567 270.643h772.437l-384.87-270.643zM969.353 422.895c-35.294 35.294-82.227 54.733-132.147 54.733s-96.853-19.439-132.147-54.733-54.75-82.227-54.767-132.164c0-49.92 19.456-96.853 54.75-132.13 35.294-35.311 82.244-54.75 132.147-54.75 49.937 0 96.87 19.439 132.164 54.733 72.858 72.875 72.858 191.454 0 264.311zM932.574 195.362c-25.481-25.463-59.358-39.492-95.386-39.492-36.011 0-69.871 14.029-95.369 39.526-25.463 25.446-39.492 59.324-39.492 95.334 0 36.028 14.029 69.905 39.509 95.386 25.481 25.463 59.358 39.492 95.369 39.492s69.888-14.012 95.369-39.492c52.582-52.582 52.582-138.155 0-190.754zM838.246 386.782l-106.394-114.398 19.046-17.749 74.308 79.957v-127.198c0-7.168 5.82-13.005 13.005-13.005s13.005 5.837 13.005 13.005l0.017 127.249 74.308-80.009 19.063 17.749-106.359 114.398z" />
<glyph unicode="&#xe90f;" glyph-name="Email_Email-16" d="M1016.678-2.287l-80.725 80.742c10.274 18.091 16.213 38.946 16.213 61.201 0 68.54-55.757 124.279-124.262 124.279-68.557 0-124.314-55.757-124.314-124.279 0-68.557 55.774-124.297 124.314-124.297 28.194 0 54.17 9.557 75.025 25.446l78.438-78.421c4.864-4.881 11.264-7.322 17.664-7.322 6.383 0 12.766 2.441 17.647 7.322 9.779 9.762 9.779 25.583 0 35.328zM753.545 139.674c0 40.977 33.348 74.308 74.342 74.308 40.96 0 74.308-33.331 74.308-74.308s-33.348-74.325-74.308-74.325c-40.994-0.017-74.342 33.331-74.342 74.325zM614.144 374.443c0 0-0.017 0-0.034 0l-317.406-0.58c-2.935 0-5.786-1.058-8.021-2.935l-122.778-103.458c-5.274-4.454-5.956-12.339-1.519-17.596 2.492-2.935 6.025-4.454 9.574-4.454 2.85 0 5.7 0.973 8.055 2.935l119.296 100.557 308.19 0.563 115.302-99.994c5.222-4.54 13.124-3.959 17.613 1.246 4.54 5.222 3.959 13.107-1.246 17.613l-118.835 103.066c-2.287 1.98-5.188 3.038-8.192 3.038zM661.76 105.387h-586.53c-13.926 0-25.259 11.315-25.259 25.242v406.118l220.501-157.901c2.202-1.587 4.727-2.338 7.253-2.338 3.908 0 7.731 1.809 10.172 5.222 4.011 5.598 2.731 13.414-2.884 17.425l-228.164 163.379 398.285 321.28 396.066-319.505-226.799-165.222c-5.581-4.062-6.81-11.878-2.765-17.442 2.458-3.345 6.263-5.137 10.121-5.137 2.543 0 5.12 0.785 7.356 2.389l221.201 161.109v-243.883c0-13.807 11.162-24.986 24.969-24.986s24.986 11.179 24.986 24.986v265.711c0 1.195-0.188 2.372-0.358 3.516 1.212 8.448-1.826 17.289-8.926 23.023l-430.165 346.999c-9.148 7.39-22.221 7.39-31.386 0l-430.131-346.999c-7.117-5.734-10.155-14.575-8.926-23.023-0.171-1.143-0.375-2.321-0.375-3.516v-431.206c0-41.472 33.758-75.213 75.23-75.213h586.53c13.807 0 24.969 11.179 24.969 24.986s-11.162 24.986-24.969 24.986z" />
<glyph unicode="&#xe910;" glyph-name="Email_Email-17" d="M288 807.919h95.266c5.001 0 9.028 4.045 9.028 9.045s-4.028 9.045-9.028 9.045h-95.266c-5.001 0-9.062-4.045-9.062-9.045s4.062-9.045 9.062-9.045zM406.374 760.286h323.294c5.001 0 9.028 4.045 9.028 9.045 0 5.018-4.028 9.062-9.028 9.062h-323.294c-5.035 0-9.062-4.045-9.062-9.062-0.017-5.001 4.028-9.045 9.062-9.045zM288 662.135h441.668c5.001 0 9.028 4.045 9.028 9.045s-4.028 9.045-9.028 9.045h-441.668c-5.001 0-9.062-4.045-9.062-9.045s4.062-9.045 9.062-9.045zM288 559.667h441.668c5.001 0 9.028 4.028 9.028 9.045 0 5.001-4.028 9.045-9.028 9.045h-441.668c-5.001 0-9.062-4.045-9.062-9.045 0-5.018 4.062-9.045 9.062-9.045zM738.697 474.88c0 5.018-4.028 9.045-9.028 9.045h-441.668c-5.001 0-9.062-4.028-9.062-9.045 0-5.001 4.062-9.045 9.062-9.045h441.668c5.001 0 9.028 4.045 9.028 9.045zM693.726 279.467c-2.475 2.15-5.632 3.311-8.892 3.311h-0.034l-344.969-0.631c-3.209 0-6.298-1.126-8.738-3.191l-133.461-112.469c-5.734-4.83-6.468-13.397-1.673-19.132 2.697-3.191 6.537-4.83 10.394-4.83 3.106 0 6.195 1.058 8.772 3.209l129.673 109.261 334.967 0.631 125.372-108.698c5.666-4.932 14.234-4.318 19.132 1.348 4.932 5.666 4.301 14.251-1.365 19.149l-129.178 112.043zM1006.336 490.291c1.297 9.182-1.997 18.79-9.728 25.037l-144.64 116.651c-6.929 5.598-15.77 7.134-23.808 5.069v295.799c0 15.002-12.134 27.153-27.136 27.153h-578.031c-15.002 0-27.17-12.151-27.17-27.153v-299.11c-8.738 3.328-18.927 2.185-26.726-4.096l-141.705-114.313c-7.731-6.246-11.059-15.855-9.728-25.037-0.171-1.246-0.358-2.509-0.358-3.823v-468.702c0-45.090 36.659-81.766 81.766-81.766h825.873c45.107 0 81.766 36.676 81.766 81.766v468.702c-0.017 1.297-0.205 2.56-0.375 3.823zM924.928-9.677h-825.856c-15.172 0-27.46 12.305-27.46 27.443v441.412l239.65-171.605c2.406-1.724 5.171-2.526 7.902-2.526 4.233 0 8.397 1.963 11.025 5.666 4.369 6.093 2.97 14.575-3.14 18.944l-247.979 177.579 116.77 94.191v-141.722c0-15.002 12.169-27.153 27.17-27.153s27.136 12.151 27.136 27.153v465.971h523.742v-465.988c0-15.002 12.169-27.153 27.17-27.153s27.136 12.151 27.136 27.153v141.705l114.364-92.228-246.562-179.575c-6.059-4.42-7.407-12.919-3.004-18.961 2.662-3.652 6.793-5.581 11.008-5.581 2.765 0 5.564 0.836 7.97 2.594l240.435 175.138v-444.996c0-15.172-12.339-27.46-27.477-27.46z" />
<glyph unicode="&#xe911;" glyph-name="Email_Email-18" d="M926.908 510.925c-11.332 9.847-25.907 15.292-40.909 15.292h-747.964c-34.406 0-62.413-28.023-62.413-62.413v-414.208c0-34.406 28.006-62.396 62.413-62.396h747.947c34.406 0 62.396 27.989 62.396 62.396v414.208c0 18.125-7.868 35.311-21.47 47.121zM860.621 469.828l-348.655-245.146-351.113 245.146h699.767zM885.982 43.554h-747.947c-3.328 0-6.042 2.714-6.042 6.042v406.050l371.951-259.721c2.423-1.724 5.239-2.56 8.055-2.56 2.833 0 5.683 0.87 8.124 2.56l371.917 261.564v-407.893c0-3.328-2.748-6.042-6.059-6.042zM492.766 833.348l0.444-259.584c0.017-10.325 8.414-18.739 18.79-18.739 0 0 0.017 0 0.051 0 10.342 0 18.756 8.431 18.756 18.825l-0.478 259.618 107.571-115.337 27.46 25.685-153.89 164.983-153.395-165.53 27.563-25.566 107.127 115.644z" />
<glyph unicode="&#xe912;" glyph-name="Email_Email-19" d="M918.562 500.446c-11.127 9.66-25.361 14.985-40.073 14.985h-732.996c-33.741 0-61.167-27.426-61.167-61.167v-405.914c0-33.724 27.443-61.15 61.167-61.15h732.996c33.724 0 61.167 27.426 61.167 61.15v405.914c0.017 17.766-7.714 34.611-21.094 46.182zM853.641 460.22l-341.692-240.282-344.115 240.282h685.807zM878.507 42.428h-733.013c-3.26 0-5.939 2.645-5.939 5.922v397.909l364.527-254.515c2.372-1.673 5.137-2.492 7.885-2.492 2.782 0 5.564 0.819 7.953 2.492l364.476 256.324v-399.735c0.017-3.243-2.628-5.905-5.888-5.905zM662.255 723.763l-26.914 25.19-105.387-112.964 0.444 254.362c0.017 10.172-8.209 18.415-18.381 18.449 0 0-0.017 0-0.034 0-10.155 0-18.381-8.226-18.398-18.381l-0.444-254.447-105.011 113.425-27.034-25.071 150.289-162.236 150.869 161.673z" />
<glyph unicode="&#xe913;" glyph-name="Email_Email-20" d="M1000.192 745.455c-12.561 10.923-28.672 16.947-45.363 16.947h-885.641c-38.161 0-69.188-31.027-69.188-69.171v-490.462c0-38.127 31.027-69.171 69.188-69.171h885.658c38.127 0 69.171 31.027 69.171 69.171v490.462c-0.017 20.036-8.687 39.066-23.825 52.224zM966.741 202.769c0-6.571-5.325-11.895-11.895-11.895h-885.658c-6.571 0-11.895 5.325-11.895 11.895v490.462c0 6.571 5.325 11.895 11.895 11.895h885.658c3.686 0 6.246-1.57 7.782-2.901s4.113-4.301 4.113-8.994v-490.462zM882.278 661.385h-183.757c-5.291 0-9.557-4.267-9.557-9.557v-194.56c0-5.291 4.267-9.557 9.557-9.557h183.774c5.291 0 9.557 4.267 9.557 9.557v194.56c-0.017 5.291-4.284 9.557-9.574 9.557zM872.738 466.825h-164.659v175.462h164.659v-175.462zM152.064 601.907h91.87c7.919 0 14.336 6.417 14.336 14.319s-6.417 14.319-14.336 14.319h-91.87c-7.902 0-14.319-6.417-14.319-14.319s6.417-14.319 14.319-14.319zM152.064 345.668h486.434c7.902 0 14.319 6.417 14.319 14.319s-6.417 14.319-14.319 14.319h-486.434c-7.902 0-14.319-6.417-14.319-14.319s6.417-14.319 14.319-14.319zM808.755 274.313h-656.691c-7.902 0-14.319-6.417-14.319-14.319s6.417-14.319 14.319-14.319h656.691c7.902 0 14.319 6.417 14.319 14.319s-6.417 14.319-14.319 14.319z" />
<glyph unicode="&#xe914;" glyph-name="Email_Email-21" d="M1000.175 643.84c-12.578 10.923-28.672 16.93-45.329 16.93h-885.675c-38.161 0-69.171-31.044-69.171-69.171v-490.462c0-38.127 31.010-69.171 69.171-69.171h885.675c38.127 0 69.171 31.027 69.171 69.171v490.462c-0.017 20.036-8.704 39.066-23.842 52.241zM966.724 101.137c0-6.554-5.325-11.878-11.878-11.878h-885.675c-6.571 0-11.895 5.325-11.895 11.878v490.462c0 6.571 5.325 11.878 11.895 11.878h885.675c3.669 0 6.246-1.57 7.765-2.884 1.536-1.331 4.113-4.301 4.113-8.994v-490.462zM882.244 559.753h-183.74c-5.291 0-9.557-4.267-9.557-9.557v-194.56c0-5.291 4.267-9.557 9.557-9.557h183.757c5.291 0 9.557 4.267 9.557 9.557v194.56c-0.017 5.291-4.284 9.557-9.574 9.557zM872.721 365.175h-164.676v175.479h164.676v-175.479zM152.047 500.258h91.87c7.919 0 14.319 6.417 14.319 14.319s-6.4 14.319-14.319 14.319h-91.87c-7.902 0-14.319-6.417-14.319-14.319s6.417-14.319 14.319-14.319zM152.047 244.036h486.434c7.902 0 14.319 6.417 14.319 14.319s-6.417 14.319-14.319 14.319h-486.434c-7.902 0-14.319-6.417-14.319-14.319s6.417-14.319 14.319-14.319zM808.738 172.681h-656.691c-7.902 0-14.319-6.4-14.319-14.319 0-7.902 6.417-14.319 14.319-14.319h656.691c7.902 0 14.319 6.417 14.319 14.319 0 7.919-6.417 14.319-14.319 14.319zM104.329 690.722h816.094c10.547 0 19.098 8.55 19.098 19.098 0 10.53-8.55 19.081-19.098 19.081h-816.094c-10.547 0-19.098-8.55-19.098-19.081 0-10.547 8.55-19.098 19.098-19.098zM162.441 758.289h697.207c10.53 0 19.081 8.55 19.081 19.098 0 10.53-8.55 19.081-19.081 19.081h-697.207c-10.547 0-19.081-8.55-19.081-19.081-0.017-10.547 8.516-19.098 19.081-19.098zM234.035 825.856h553.984c10.547 0 19.081 8.55 19.081 19.081 0 10.547-8.533 19.098-19.081 19.098h-553.984c-10.53 0-19.081-8.55-19.081-19.098 0-10.53 8.55-19.081 19.081-19.081z" />
<glyph unicode="&#xe915;" glyph-name="Email_Email-22" d="M869.308 808.397h-73.933l-85.197 94.31c-5.001 5.513-12.066 8.67-19.507 8.67h-159.829v22.323c0 14.541-11.776 26.3-26.283 26.3-14.541 0-26.3-11.759-26.3-26.3v-22.323h-159.795c-7.441 0-14.541-3.157-19.507-8.67l-85.231-94.31h-59.034c-14.541 0-26.3-11.759-26.3-26.283v-90.829c0-14.524 11.759-26.3 26.3-26.3h44.442v-702.686c0-14.524 11.759-26.283 26.266-26.283h558.302c14.541 0 26.3 11.759 26.3 26.283v702.686h59.307c14.541 0 26.3 11.776 26.3 26.3v90.829c0 14.524-11.776 26.283-26.3 26.283zM330.138 858.795h348.826l45.534-50.398h-439.893l45.534 50.398zM251.699-11.418v42.069h505.702v-42.069h-505.702zM757.402 56.934h-505.702v608.051h505.702v-608.051zM843.008 717.585h-662.016v38.229h662.016v-38.229zM691.541 463.155c-0.137 0.597-0.273 1.161-0.529 1.724-0.068 0.119-0.034 0.29-0.137 0.393-0.171 0.358-0.495 0.546-0.734 0.87-0.358 0.495-0.7 0.99-1.161 1.399-0.427 0.375-0.905 0.631-1.365 0.939-0.495 0.273-0.939 0.546-1.468 0.751-0.597 0.205-1.195 0.29-1.826 0.358-0.358 0.051-0.7 0.222-1.092 0.222h-357.325c-0.393 0-0.734-0.171-1.092-0.222-0.631-0.085-1.229-0.171-1.826-0.358-0.529-0.205-0.973-0.478-1.468-0.751-0.461-0.307-0.939-0.546-1.365-0.939-0.461-0.41-0.802-0.905-1.195-1.399-0.205-0.324-0.529-0.512-0.7-0.87-0.102-0.119-0.068-0.29-0.137-0.393-0.273-0.546-0.393-1.109-0.529-1.707-0.171-0.58-0.341-1.109-0.358-1.69 0-0.171-0.068-0.307-0.068-0.444v-197.274c0-4.847 3.908-8.772 8.772-8.772h357.308c4.864 0 8.772 3.908 8.772 8.772v197.274c0 0.154-0.068 0.29-0.068 0.444-0.085 0.563-0.256 1.092-0.41 1.673zM504.559 372.412l-144.674 79.855h289.297l-144.623-79.855zM334.66 272.538v173.67l165.495-91.375c0 0 0-0.017 0.034-0.017l0.137-0.085c0.358-0.205 0.734-0.324 1.126-0.444 0.273-0.119 0.563-0.273 0.87-0.358 0.734-0.188 1.468-0.307 2.202-0.307h0.034c0.734 0 1.468 0.119 2.202 0.307 0.307 0.085 0.597 0.239 0.905 0.358 0.358 0.137 0.768 0.256 1.126 0.444l0.137 0.085c0 0 0 0 0.034 0.017l165.461 91.358v-173.653h-339.763zM325.905 562.022h357.308c7.27 0 13.158 5.905 13.158 13.158s-5.905 13.158-13.158 13.158h-357.308c-7.27 0-13.158-5.905-13.158-13.158s5.888-13.158 13.158-13.158z" />
<glyph unicode="&#xe916;" glyph-name="Email_Email-23" d="M900.028 738.253h-701.457v36.25h106.018c13.909 0 25.207 11.281 25.207 25.207v68.864c0 13.909-11.281 25.207-25.207 25.207h-131.209c-13.909 0-25.207-11.281-25.207-25.207v-130.321h-24.201c-0.239 0-0.461-0.034-0.683-0.034-0.256 0-0.461 0.034-0.717 0.034-67.584 0-122.573-54.972-122.573-122.556v-361.097c0-13.909 11.281-25.207 25.207-25.207h516.642v-201.967c0-13.909 11.264-25.207 25.19-25.207s25.207 11.281 25.207 25.207v201.967h406.562c13.909 0 25.207 11.281 25.207 25.207v359.68c-0.017 68.352-55.637 123.972-123.989 123.972zM279.398 824.9h-80.828v18.466h80.828v-18.466zM50.381 279.808v334.473c0 40.329 32.649 73.165 72.892 73.557 39.458-0.375 71.441-32.58 71.441-72.141v-335.906h-144.333zM973.619 279.808h-728.508v335.889c0 26.982-8.892 51.883-23.723 72.175h678.639c40.567 0 73.591-33.007 73.591-73.591v-334.473zM158.003 346.522h-75.093c-6.963 0-12.595-5.632-12.595-12.595 0-6.946 5.632-12.595 12.595-12.595h75.076c6.946 0 12.595 5.649 12.595 12.595 0.017 6.963-5.632 12.595-12.578 12.595z" />
<glyph unicode="&#xe917;" glyph-name="Email_Email-24" d="M822.050 770.901c-8.892 5.939-20.361 6.349-29.696 1.178l-588.493-327.902c-10.035-5.581-15.753-16.64-14.507-28.058s9.199-20.975 20.207-24.252l238.234-71.475v-152.695c0-13.158 8.977-24.61 21.76-27.733 2.27-0.563 4.54-0.836 6.793-0.836 10.462 0 20.326 5.769 25.327 15.377l50.193 96.427 170.871-125.116c5.001-3.652 10.923-5.513 16.879-5.513 3.908 0 7.799 0.802 11.486 2.423 9.318 4.096 15.77 12.868 16.896 22.989l66.594 598.255c1.229 10.615-3.635 21.009-12.544 26.931zM723.917 668.57l-242.842-298.513-190.362 57.122 433.203 241.391zM504.934 284.45v0.887l0.324-0.239-0.324-0.649zM716.715 201.079l-210.773 154.3 264.090 324.608-53.316-478.908z" />
<glyph unicode="&#xe918;" glyph-name="Email_Email-25" d="M822.050 770.901c-8.892 5.939-20.378 6.366-29.696 1.178l-588.493-327.902c-10.035-5.598-15.735-16.64-14.507-28.058 1.246-11.418 9.199-20.975 20.207-24.269l253.867-76.169 259.345-189.85c5.001-3.635 10.923-5.513 16.879-5.513 3.908 0 7.799 0.802 11.486 2.441 9.335 4.079 15.77 12.851 16.896 22.989l66.594 598.238c1.195 10.598-3.669 20.992-12.578 26.914zM723.917 668.57l-242.859-298.513-190.345 57.122 433.203 241.391zM716.715 201.079l-210.773 154.3 264.090 324.591-53.316-478.891z" />
<glyph unicode="&#xe919;" glyph-name="Email_Email-26" d="M879.701 623.070h-461.875c-24.934 0-59.255-17.903-62.396-47.377l-74.684-243.78c-0.717-2.321-1.058-4.727-1.058-7.168 0-28.57 23.45-51.814 52.275-51.814h461.858c27.375 0 49.92 20.975 52.087 47.582l74.615 243.558c0.717 2.338 1.075 4.745 1.075 7.185 0 45.073-26.249 51.814-41.899 51.814zM798.225 331.913c-0.734-2.321-1.075-4.727-1.075-7.168 0-1.587-1.502-2.884-3.328-2.884h-461.858c-1.126 0-2.133 0.495-2.731 1.229l73.796 240.981c0.427 1.365 0.734 2.782 0.905 4.215 0.205 0.205 0.58 0.393 0.836 0.597-0.393-4.267 1.434-8.619 5.239-11.213l163.106-111.189c0 0 0.034 0 0.051-0.017 0.956-0.649 2.014-1.126 3.123-1.485 1.212-0.375 2.475-0.614 3.721-0.614v0 0c0.017 0 0.017 0 0.017 0 1.365 0.017 2.662 0.324 3.942 0.751 0.171 0.051 0.358 0.034 0.495 0.102l257.758 101.103c6.298 2.475 9.387 9.574 6.912 15.855-2.492 6.298-9.591 9.387-15.872 6.912l-251.716-98.731-152.235 103.765h443.136l-74.223-242.21zM515.567 449.553l-163.089-92.621c-5.888-3.328-7.953-10.803-4.625-16.674 2.27-3.959 6.4-6.195 10.65-6.195 2.048 0 4.113 0.495 6.042 1.587l163.089 92.621c5.888 3.345 7.953 10.82 4.608 16.691s-10.82 7.936-16.674 4.591zM787.558 344.422l-138.581 89.617c-5.666 3.669-13.244 2.065-16.93-3.635-3.652-5.666-2.031-13.227 3.652-16.896l138.581-89.634c2.048-1.331 4.352-1.963 6.639-1.963 3.994 0 7.936 1.963 10.274 5.598 3.635 5.649 2.031 13.227-3.635 16.913zM317.85 539.034c0 13.5-10.957 24.474-24.474 24.474h-166.502c-13.517 0-24.474-10.974-24.474-24.474 0-13.534 10.957-24.474 24.474-24.474h166.519c13.5 0 24.457 10.94 24.457 24.474zM295.031 464.555c0 13.5-10.957 24.474-24.474 24.474h-114.364c-13.517 0-24.474-10.974-24.474-24.474 0-13.517 10.957-24.474 24.474-24.474h114.364c13.534 0 24.474 10.957 24.474 24.474zM243.917 422.571h-50.33c-13.5 0-24.474-10.974-24.474-24.474 0-13.534 10.974-24.474 24.474-24.474h50.33c13.517 0 24.474 10.94 24.474 24.474 0 13.5-10.957 24.474-24.474 24.474z" />
<glyph unicode="&#xe91a;" glyph-name="Email_Email-27" d="M1019.341 606.447c-3.584 4.113-8.772 6.485-14.234 6.485h-87.791v65.536c0 15.667-12.681 28.348-28.348 28.348h-84.241c-15.667 0-28.348-12.681-28.348-28.348 0-15.65 12.681-28.331 28.348-28.331h55.893v-355.328h-803.942v303.428c0 28.621 23.279 51.9 51.9 51.9h555.196c15.65 0 28.348 12.681 28.348 28.331 0 15.667-12.698 28.348-28.348 28.348h-555.196c-59.87 0-108.578-48.708-108.578-108.578v-331.776c0-15.65 12.681-28.331 28.331-28.331h401.988v-209.391c0-15.667 12.681-28.348 28.331-28.348 15.667 0 28.348 12.681 28.348 28.348v209.374h401.971c15.667 0 28.348 12.681 28.348 28.331v18.91h47.65c9.438 0 17.425 6.963 18.722 16.299l40.141 289.775c0.734 5.444-0.887 10.906-4.489 15.019zM948.497 323.174h-31.181v251.955h66.082l-34.901-251.955zM532.958 745.455h184.422v-191.71c0-10.445 8.465-18.893 18.893-18.893s18.893 8.448 18.893 18.893v322.97c0 10.428-8.465 18.893-18.893 18.893h-203.315c-10.428 0-18.893-8.465-18.893-18.893v-112.367c-0.017-10.428 8.448-18.893 18.893-18.893zM551.851 857.822h165.513v-74.564h-165.513v74.564z" />
<glyph unicode="&#xe91b;" glyph-name="Email_Email-28" d="M731.204 395.042c-28.228 0-52.975 24.747-52.975 52.941 0 91.665-74.564 166.246-166.229 166.246-91.648 0-166.229-74.581-166.229-166.246 0-91.648 74.581-166.212 166.229-166.212 62.771 0 117.487 34.987 145.766 86.443 19.558-18.074 45.414-29.355 73.438-29.355 58.812 0 108.476 49.971 108.476 109.124 0 180.685-146.978 327.697-327.68 327.697-180.668 0-327.68-147.012-327.68-327.697s147.012-327.663 327.68-327.663c91.102 0 175.718 36.489 238.302 102.758 10.667 11.264 10.155 29.065-1.126 39.697-11.281 10.667-29.082 10.155-39.697-1.126-51.866-54.886-121.975-85.129-197.461-85.129-149.692 0-271.497 121.805-271.497 271.479 0 149.692 121.805 271.514 271.497 271.514s271.497-121.822 271.497-271.514c-0.017-28.194-24.439-52.958-52.309-52.958zM512 337.954c-60.672 0-110.029 49.374-110.029 110.029 0 60.689 49.374 110.063 110.029 110.063s110.029-49.391 110.029-110.063c0-60.672-49.357-110.029-110.029-110.029z" />
<glyph unicode="&#xe91c;" glyph-name="Email_Email-29" d="M512 664.508c-119.381 0-216.508-97.126-216.508-216.525 0-119.364 97.109-216.491 216.508-216.491 59.324 0 116.702 24.73 157.44 67.874 10.291 10.906 9.796 28.075-1.092 38.349-10.889 10.308-28.092 9.779-38.332-1.092-30.993-32.785-72.892-50.842-117.999-50.842-89.446 0-162.236 72.772-162.236 162.219 0 89.463 72.789 162.253 162.236 162.253s162.236-72.789 162.236-162.253c0-12.595-11.264-24.081-23.671-24.081-12.612 0-24.115 11.486-24.115 24.081 0 63.113-51.354 114.449-114.449 114.449s-114.432-51.337-114.432-114.449c0-63.078 51.337-114.415 114.432-114.415 39.253 0 73.95 19.866 94.566 50.074 12.646-8.789 27.836-13.995 43.998-13.995 42.24 0 77.926 35.891 77.926 78.353 0 119.347-97.143 216.491-216.508 216.491zM512 387.823c-33.178 0-60.177 26.999-60.177 60.16 0 33.178 26.999 60.194 60.177 60.194 33.195 0 60.177-27.017 60.177-60.194 0-33.161-26.982-60.16-60.177-60.16zM512 775.68c-180.685 0-327.68-147.012-327.68-327.697s146.995-327.663 327.68-327.663 327.68 146.978 327.68 327.663-146.995 327.697-327.68 327.697zM512 174.575c-150.767 0-273.425 122.675-273.425 273.425 0 150.784 122.658 273.425 273.425 273.425s273.425-122.658 273.425-273.425c0-150.767-122.658-273.425-273.425-273.425z" />
<glyph unicode="&#xe91d;" glyph-name="Email_Email-30" d="M512 623.991c-98.594 0-178.842-80.23-178.842-178.842s80.247-178.825 178.842-178.825c49.698 0 95.898 19.934 130.031 56.064 4.54 4.796 4.301 12.373-0.478 16.896s-12.39 4.335-16.913-0.461c-29.559-31.334-69.564-48.589-112.64-48.589-85.419 0-154.914 69.495-154.914 154.914s69.495 154.931 154.914 154.931 154.897-69.513 154.897-154.931c0-17.664-15.326-33.195-32.802-33.195-17.698 0-33.195 15.531-33.195 33.195 0 49.015-39.868 88.883-88.9 88.883s-88.9-39.868-88.9-88.883 39.868-88.883 88.9-88.883c35.328 0 65.826 20.753 80.145 50.688 10.53-11.503 25.532-18.876 41.95-18.876 30.737 0 56.713 26.129 56.713 57.088 0.017 98.594-80.213 178.825-178.807 178.825zM512 380.177c-35.84 0-65.007 29.15-65.007 64.99s29.167 65.007 65.007 65.007 64.99-29.167 64.99-65.007-29.15-64.99-64.99-64.99zM815.77 654.165c13.193 0 23.91 10.718 23.91 23.927v35.209c0 34.389-27.989 62.362-62.362 62.362h-34.15c-6.451 0-12.578-2.577-17.084-7.185-4.506-4.591-6.963-10.803-6.81-17.22l0.034-0.939c-0.171-11.571-9.609-20.924-21.197-20.924-11.537 0-20.958 9.25-21.214 20.702 0.017 0.256 0.017 0.495 0.017 0.631 0.29 6.519-2.116 12.851-6.622 17.545-4.523 4.71-10.735 7.373-17.254 7.373h-95.13c-13.193 0-23.893-10.718-23.893-23.91 0-0.58 0-1.126 0.051-1.724-0.324-11.418-9.694-20.617-21.214-20.617-11.537 0-20.975 9.284-21.197 20.787 0.017 0.222 0.017 0.444 0.017 0.546 0.273 6.519-2.116 12.851-6.622 17.545-4.523 4.71-10.752 7.373-17.271 7.373h-97.161c-6.417 0-12.578-2.577-17.084-7.185-4.489-4.608-6.946-10.803-6.81-17.22l0.051-0.99c-0.188-11.537-9.626-20.873-21.214-20.873-11.691 0-21.197 9.523-21.214 21.197 0.324 6.468-1.98 12.8-6.417 17.493-4.54 4.813-10.82 7.543-17.425 7.543h-33.792c-34.389 0-62.362-27.989-62.362-62.362v-35.243c0-13.141 10.581-23.808 23.723-23.893 11.605-0.102 21.009-9.591 21.009-21.197s-9.421-21.094-21.009-21.197c-13.141-0.085-23.723-10.786-23.723-23.893v-97.092c0-13.141 10.581-23.808 23.723-23.893 11.605-0.085 21.009-9.591 21.009-21.197s-9.421-21.094-21.009-21.197c-13.141-0.119-23.723-10.786-23.723-23.893v-95.044c0-13.141 10.581-23.825 23.723-23.893 11.605-0.102 21.009-9.591 21.009-21.214 0-11.571-9.421-21.077-21.009-21.163-13.141-0.119-23.723-10.803-23.723-23.927v-32.614c0-34.389 27.989-62.362 62.362-62.362h33.809c12.885 0 23.467 10.257 23.876 23.108 0.375 11.52 9.66 20.514 21.146 20.514 11.503 0 20.787-8.994 21.163-20.514 0.41-12.868 11.008-23.108 23.876-23.108h97.212c12.902 0 23.484 10.257 23.893 23.125 0.358 11.503 9.66 20.497 21.129 20.497 11.486 0 20.787-8.994 21.163-20.514 0.41-12.868 10.991-23.108 23.893-23.108h95.147c12.902 0 23.467 10.257 23.893 23.125 0.358 11.503 9.66 20.497 21.146 20.497 11.469 0 20.77-9.011 21.129-20.514 0.427-12.885 11.008-23.108 23.893-23.108h34.185c34.389 0 62.362 27.989 62.362 62.362v32.614c0 13.193-10.718 23.893-23.91 23.893-11.691 0-21.197 9.523-21.197 21.197 0 11.708 9.523 21.231 21.197 21.231 13.193 0 23.91 10.701 23.91 23.893v95.027c0 13.193-10.718 23.893-23.91 23.893-11.691 0-21.197 9.523-21.197 21.214s9.523 21.214 21.197 21.214c13.193 0 23.91 10.684 23.91 23.893v97.075c0 13.193-10.718 23.91-23.91 23.91-11.691 0-21.197 9.506-21.197 21.197s9.557 21.214 21.248 21.214zM791.859 697.737c-26.317-9.762-45.124-35.106-45.124-64.768s18.807-55.023 45.124-64.768v-57.771c-26.317-9.745-45.124-35.123-45.124-64.768s18.807-55.023 45.124-64.768v-55.74c-26.317-9.728-45.124-35.106-45.124-64.768 0-29.645 18.807-55.006 45.124-64.751v-12.971c0-8.038-6.519-14.558-14.558-14.558h-15.019c-10.069 25.702-34.953 43.639-64.205 43.639-29.269 0-54.187-17.937-64.222-43.639h-56.849c-10.035 25.702-34.935 43.639-64.205 43.639s-54.153-17.937-64.222-43.639h-58.846c-10.069 25.702-34.97 43.639-64.239 43.639-29.252 0-54.153-17.937-64.205-43.639h-14.643c-8.038 0-14.558 6.519-14.558 14.558v13.158c26.095 9.865 44.749 35.174 44.749 64.563 0 29.44-18.671 54.716-44.749 64.597v56.081c26.095 9.882 44.749 35.157 44.749 64.58s-18.671 54.716-44.749 64.597v58.112c26.078 9.882 44.749 35.174 44.749 64.58s-18.671 54.699-44.749 64.58v15.77c0 8.038 6.519 14.558 14.558 14.558h13.687c9.438-26.897 35.072-46.234 65.161-46.234s55.74 19.337 65.161 46.234h56.986c9.421-26.897 35.072-46.234 65.143-46.234s55.74 19.337 65.161 46.234h54.938c9.438-26.897 35.072-46.234 65.161-46.234 30.071 0 55.723 19.337 65.126 46.234h14.080c8.038 0 14.558-6.519 14.558-14.558v-15.548z" />
<glyph unicode="&#xe91e;" glyph-name="Email_Email-31" d="M921.481 482.355c-0.068 1.212-0.205 2.423-0.427 3.601-0.119 0.631-0.239 1.28-0.393 1.894-0.324 1.195-0.751 2.355-1.246 3.482-0.239 0.529-0.41 1.075-0.683 1.604-0.819 1.604-1.775 3.123-2.918 4.506-0.068 0.102-0.171 0.171-0.239 0.256-1.092 1.297-2.355 2.492-3.721 3.55-0.119 0.102-0.205 0.239-0.324 0.341-0.358 0.273-0.785 0.41-1.161 0.666-1.007 0.7-2.048 1.331-3.191 1.877-0.666 0.341-1.348 0.58-2.048 0.853-0.58 0.222-1.109 0.529-1.724 0.717l-241.050 71.953c-13.483 3.994-27.682-3.669-31.71-17.135-4.011-13.483 3.652-27.665 17.135-31.693l156.501-46.711-292.028-81.476-295.919 88.303 145.34 44.066c13.466 4.062 21.060 18.295 16.981 31.761s-18.295 21.077-31.761 16.981l-226.406-68.659c-0.563-0.171-1.024-0.461-1.57-0.666-0.666-0.239-1.297-0.495-1.946-0.802-1.143-0.546-2.219-1.195-3.26-1.877-0.341-0.239-0.734-0.358-1.058-0.614-0.137-0.102-0.256-0.273-0.393-0.358-1.229-0.973-2.338-2.031-3.345-3.191-0.205-0.222-0.444-0.41-0.649-0.649-1.161-1.399-2.15-2.953-2.987-4.557-0.222-0.427-0.358-0.905-0.563-1.348-0.546-1.229-1.024-2.475-1.382-3.755-0.154-0.614-0.256-1.229-0.375-1.843-0.239-1.195-0.375-2.441-0.427-3.669-0.034-0.358-0.137-0.7-0.137-1.058v-272.452c0-11.264 7.407-21.197 18.193-24.422l384.137-114.637c0.7-0.205 1.417-0.324 2.133-0.461 0.41-0.085 0.836-0.222 1.229-0.29 1.297-0.205 2.594-0.307 3.908-0.307 1.246 0 2.509 0.102 3.772 0.307 0.375 0.068 0.785 0.171 1.178 0.239 0.631 0.137 1.263 0.239 1.877 0.393l384.119 107.179c11.042 3.106 18.654 13.107 18.654 24.542v272.469c0 0.375-0.102 0.717-0.119 1.092zM153.344 454.519l333.175-99.413v-219.307l-333.175 99.43v219.29zM870.656 228.147l-333.175-92.979v219.58l333.158 92.945v-219.546zM394.957 559.531l106.53-84.173c0.051-0.017 0.119-0.051 0.171-0.085 0.188-0.137 0.358-0.256 0.529-0.375 0.649-0.461 1.331-0.836 2.048-1.195 0.324-0.188 0.614-0.375 0.973-0.529 0.324-0.137 0.649-0.239 0.973-0.358s0.597-0.188 0.922-0.29c0.273-0.085 0.529-0.171 0.819-0.239 0.205-0.068 0.393-0.171 0.597-0.205 1.126-0.256 2.287-0.375 3.482-0.375 0 0 0 0 0.017 0 0 0 0 0 0.017 0v0 0 0c1.058 0 2.133 0.119 3.174 0.324 0.154 0.034 0.29 0.068 0.41 0.085 0.273 0.051 0.512 0.188 0.802 0.256 0.614 0.171 1.212 0.341 1.809 0.563 0.273 0.102 0.495 0.205 0.751 0.324 0.29 0.119 0.529 0.29 0.819 0.41 0.41 0.222 0.836 0.427 1.212 0.7 0.358 0.205 0.7 0.444 1.041 0.7 0.273 0.188 0.512 0.358 0.751 0.563 0.085 0.068 0.188 0.102 0.273 0.188l98.253 84.156c7.134 6.093 7.97 16.811 1.86 23.927-6.11 7.134-16.828 7.987-23.945 1.86l-70.229-60.143v277.248c0 9.37-7.595 16.981-16.964 16.981-9.387 0-16.981-7.612-16.981-16.981v-279.108l-79.019 62.43c-7.373 5.803-18.057 4.54-23.859-2.799-5.854-7.356-4.608-18.039 2.765-23.859z" />
<glyph unicode="&#xe91f;" glyph-name="Email_Email-32" d="M773.751 332.1v236.134c0 30.020-24.439 54.443-54.443 54.443h-416.068c-30.037 0-54.46-24.439-54.46-54.443v-236.134c0-30.020 24.439-54.443 54.46-54.443h416.068c30.003 0 54.443 24.422 54.443 54.443zM302.626 332.1l0.597 236.715 416.666-0.58v-236.134c0-0.341-0.273-0.58-0.597-0.58l-416.666 0.58zM682.615 553.813l-171.401-88.542-174.012 88.559c-6.639 3.362-14.729 0.751-18.108-5.888s-0.734-14.729 5.888-18.125l122.505-62.345-84.224-84.207c-5.274-5.274-5.274-13.79 0-19.046 2.628-2.611 6.059-3.942 9.523-3.942s6.895 1.331 9.523 3.942l90.419 90.419 32.444-16.503c0.546-0.307 1.126-0.427 1.707-0.649 0.358-0.102 0.666-0.29 1.041-0.358 1.092-0.29 2.236-0.444 3.345-0.444h0.017c1.126 0 2.27 0.171 3.379 0.461 0.375 0.085 0.717 0.273 1.058 0.375 0.58 0.222 1.161 0.358 1.724 0.631l31.351 16.179 89.617-89.634c2.628-2.628 6.076-3.925 9.523-3.925s6.895 1.297 9.523 3.925c5.274 5.274 5.274 13.79 0 19.046l-83.541 83.558 121.071 62.532c6.605 3.413 9.199 11.537 5.803 18.142-3.465 6.656-11.571 9.233-18.176 5.837zM781.414 202.701c3.055-1.126 6.229-1.741 9.438-1.741 7.629 0 15.206 3.226 20.531 9.506 56.866 66.901 84.514 146.466 84.514 243.2 0 90.897-27.29 171.059-81.084 238.234-5.854 7.305-14.694 10.735-23.33 10.001l126.174 126.191c5.274 5.274 5.274 13.79 0 19.029-5.257 5.274-13.773 5.274-19.029 0l-123.836-123.819c0.051 7.356-2.782 14.711-8.636 20.070-69.905 64-159.010 97.792-257.775 97.792-94.686 0-180.873-31.198-249.242-90.249-8.226-7.083-11.042-18.091-8.209-27.887l-124.092 124.092c-5.257 5.274-13.79 5.274-19.029 0-5.257-5.257-5.257-13.773 0-19.029l122.078-122.078c-8.892 1.297-18.227-1.775-24.491-9.097-56.866-66.901-84.497-146.466-84.497-243.234 0-91.887 32.717-180.975 92.126-250.829 4.932-5.82 11.827-8.892 18.893-9.318l-125.577-125.594c-5.274-5.274-5.274-13.79 0-19.029 2.611-2.628 6.059-3.942 9.523-3.942 3.43 0 6.895 1.314 9.523 3.942l128.068 128.085c-0.222-7.543 2.611-15.138 8.636-20.634 68.079-62.345 144.060-90.146 246.306-90.146 103.458 0 182.955 28.672 250.146 90.163 6.537 5.99 9.37 14.455 8.516 22.63l130.099-130.099c2.628-2.628 6.076-3.942 9.523-3.942s6.895 1.314 9.523 3.942c5.274 5.257 5.274 13.773 0 19.029l-134.793 134.758zM722.159 196.079c-57.446-52.582-123.375-76.049-213.777-76.049-88.951 0-151.757 22.733-209.954 76.015-5.325 4.915-12.134 7.202-18.859 7.014l27.051 27.051c5.257 5.274 5.257 13.79 0 19.046-5.274 5.274-13.79 5.274-19.046 0l-27.255-27.255c-0.341 5.632-2.338 11.179-6.263 15.804-51.132 60.143-79.292 136.858-79.292 215.945 0 83.439 23.433 151.603 71.663 208.333 5.274 6.178 7.117 14.029 6.007 21.47l36.608-36.625c2.628-2.611 6.059-3.942 9.523-3.942s6.878 1.331 9.523 3.942c5.274 5.257 5.274 13.79 0 19.046l-38.793 38.793c8.448-2.441 17.903-0.734 25.054 5.461 59.324 51.183 131.311 77.141 214.067 77.141 85.043 0 161.604-28.928 221.389-83.644 5.188-4.745 11.691-7.066 18.176-7.066 0.051 0 0.085 0 0.154 0l-30.72-30.686c-5.274-5.274-5.274-13.807 0-19.046 2.628-2.611 6.059-3.942 9.523-3.942s6.895 1.331 9.54 3.942l30.583 30.583c-0.58-6.673 1.229-13.551 5.751-19.183 45.961-57.395 69.274-126.225 69.274-204.578 0-83.439-23.467-151.569-71.697-208.333-6.605-7.765-7.902-18.159-4.506-27.068l-30.891 30.908c-5.257 5.274-13.79 5.274-19.046 0s-5.257-13.79 0-19.046l27.255-27.221c-7.458 0.768-15.121-1.382-21.043-6.81z" />
<glyph unicode="&#xe920;" glyph-name="Email_Email-33" d="M730.931 611.84h-429.978c-23.364 0-42.359-18.995-42.359-42.359v-244.036c0-23.33 18.995-42.325 42.359-42.325h429.978c23.364 0 42.359 18.995 42.359 42.325v244.019c0.017 23.364-18.995 42.377-42.359 42.377zM745.472 325.427c0-8.004-6.519-14.524-14.541-14.524h-429.978c-8.021 0-14.524 6.519-14.524 14.524v244.036c0 8.021 6.502 14.524 14.524 14.524h429.978c8.021 0 14.541-6.502 14.541-14.524v-244.036zM692.992 554.564l-177.101-91.477-179.849 91.529c-6.861 3.482-15.223 0.751-18.705-6.093-3.499-6.844-0.768-15.223 6.076-18.722l126.601-64.427-87.040-87.023c-5.427-5.427-5.427-14.251 0-19.661 2.714-2.714 6.281-4.079 9.83-4.079 3.567 0 7.134 1.365 9.847 4.079l93.423 93.423 33.536-17.067c0.563-0.29 1.161-0.427 1.775-0.649 0.358-0.102 0.7-0.29 1.058-0.375 1.143-0.29 2.321-0.461 3.482-0.461h0.017c1.161 0 2.355 0.188 3.499 0.478 0.375 0.085 0.717 0.273 1.092 0.393 0.597 0.222 1.195 0.358 1.775 0.666l32.375 16.725 92.621-92.655c2.714-2.714 6.281-4.062 9.83-4.062 3.567 0 7.134 1.348 9.847 4.062 5.427 5.444 5.427 14.251 0 19.678l-86.357 86.374 125.099 64.614c6.844 3.533 9.523 11.93 6.007 18.773-3.499 6.827-11.93 9.472-18.739 5.956zM512 857.6c-225.843 0-409.6-183.757-409.6-409.6s183.757-409.6 409.6-409.6 409.6 183.757 409.6 409.6-183.757 409.6-409.6 409.6zM512 94.071c-195.174 0-353.929 158.754-353.929 353.929s158.754 353.929 353.929 353.929 353.929-158.754 353.929-353.929-158.754-353.929-353.929-353.929z" />
<glyph unicode="&#xe921;" glyph-name="Email_Email-34" d="M921.481 446.959c-0.051 0.819-0.119 1.638-0.256 2.475-0.137 0.734-0.29 1.468-0.461 2.185-0.205 0.683-0.393 1.399-0.649 2.082-0.29 0.802-0.631 1.553-1.024 2.304-0.171 0.358-0.273 0.734-0.461 1.075l-125.713 223.249c-4.079 7.253-11.742 11.742-20.087 11.742h-516.113c-8.158 0-15.718-4.318-19.849-11.366l-131.277-223.249c-0.239-0.375-0.358-0.802-0.546-1.195-0.393-0.768-0.785-1.519-1.058-2.321-0.273-0.7-0.461-1.399-0.666-2.116s-0.375-1.434-0.512-2.185c-0.137-0.836-0.205-1.673-0.256-2.492-0.034-0.461-0.154-0.922-0.154-1.382v-218.795c0-12.715 10.308-23.040 23.040-23.040h773.12c12.732 0 23.057 10.308 23.057 23.040v218.795c-0.017 0.427-0.119 0.802-0.137 1.195zM269.892 645.973h489.472l99.772-177.135h-183.228c-12.732 0-23.057-10.325-23.057-23.074v-48.606c0-0.717-0.546-1.28-1.246-1.28h-279.211c-0.7 0-1.263 0.563-1.263 1.28v48.606c0 12.732-10.308 23.074-23.040 23.074h-182.357l104.158 177.135zM875.503 250.027h-727.006v172.715h176.538v-25.566c0-26.129 21.248-47.36 47.36-47.36h279.211c26.095 0 47.343 21.231 47.343 47.36v25.566h176.555v-172.715z" />
<glyph unicode="&#xe922;" glyph-name="Email_Email-35" d="M921.481 313.498c-0.051 0.836-0.119 1.673-0.256 2.492-0.137 0.717-0.273 1.451-0.461 2.167s-0.393 1.417-0.649 2.099c-0.29 0.802-0.631 1.553-1.024 2.304-0.171 0.358-0.273 0.717-0.461 1.075l-125.713 223.232c-4.079 7.253-11.742 11.742-20.087 11.742h-17.647v243.883c0 12.715-10.308 23.040-23.057 23.040h-435.456c-12.732 0-23.057-10.308-23.057-23.040v-243.9h-16.896c-8.158 0-15.718-4.318-19.849-11.366l-131.277-223.215c-0.239-0.393-0.358-0.836-0.546-1.229-0.393-0.751-0.785-1.519-1.058-2.321-0.273-0.7-0.461-1.382-0.666-2.099-0.205-0.734-0.375-1.451-0.512-2.202-0.137-0.819-0.205-1.655-0.256-2.492-0.034-0.444-0.154-0.887-0.154-1.331v-218.812c0-12.732 10.308-23.057 23.040-23.057h773.12c12.715 0 23.040 10.308 23.040 23.057v218.812c0 0.393-0.102 0.768-0.119 1.161zM269.892 512.512h3.721v-106.274c0-12.715 10.308-23.040 23.057-23.040s23.040 10.308 23.040 23.040v373.197h389.393v-373.18c0-12.715 10.308-23.040 23.040-23.040s23.057 10.308 23.057 23.040v106.257h4.181l99.755-177.152h-183.228c-12.732 0-23.040-10.308-23.040-23.040v-48.64c0-0.7-0.563-1.263-1.28-1.263h-279.211c-0.683 0-1.246 0.563-1.246 1.263v48.64c0 12.715-10.308 23.040-23.040 23.040h-182.357l104.158 177.152zM875.503 116.565h-727.006v172.698h176.538v-25.566c0-26.112 21.248-47.36 47.343-47.36h279.194c26.112 0 47.36 21.248 47.36 47.36v25.566h176.555v-172.698zM357.205 706.543h66.782c6.366 0 11.52 5.171 11.52 11.554 0 6.332-5.154 11.52-11.52 11.52h-66.782c-6.366 0-11.52-5.188-11.52-11.52 0-6.383 5.154-11.554 11.52-11.554zM428.646 682.206c0-6.366 5.171-11.52 11.52-11.52h226.645c6.349 0 11.52 5.154 11.52 11.52 0 6.349-5.171 11.52-11.52 11.52h-226.645c-6.349-0.017-11.52-5.171-11.52-11.52zM357.205 596.736h309.623c6.349 0 11.52 5.154 11.52 11.52 0 6.349-5.171 11.52-11.52 11.52h-309.623c-6.366 0-11.52-5.171-11.52-11.52 0-6.366 5.154-11.52 11.52-11.52zM357.205 519.526h309.623c6.349 0 11.52 5.154 11.52 11.52 0 6.349-5.171 11.52-11.52 11.52h-309.623c-6.366 0-11.52-5.171-11.52-11.52 0-6.366 5.154-11.52 11.52-11.52zM357.205 448.836h309.623c6.349 0 11.52 5.188 11.52 11.537 0 6.366-5.171 11.52-11.52 11.52h-309.623c-6.366 0-11.52-5.154-11.52-11.52 0-6.349 5.154-11.537 11.52-11.537z" />
<glyph unicode="&#xe923;" glyph-name="Email_Email-36" d="M355.772 524.083l150.153-118.63c0.068-0.051 0.137-0.051 0.205-0.102 0.205-0.154 0.393-0.307 0.614-0.444 0.7-0.495 1.485-0.922 2.253-1.331 0.375-0.205 0.751-0.444 1.143-0.614 0.358-0.154 0.734-0.273 1.109-0.375 0.341-0.137 0.666-0.239 1.007-0.341 0.307-0.085 0.563-0.188 0.853-0.256 0.273-0.068 0.512-0.205 0.768-0.256 1.263-0.273 2.577-0.41 3.942-0.41v0c0 0 0 0 0.017 0v0 0 0c1.195 0 2.423 0.137 3.601 0.358 0.171 0.034 0.307 0.051 0.461 0.085 0.307 0.068 0.58 0.205 0.905 0.273 0.683 0.205 1.365 0.393 2.048 0.649 0.307 0.119 0.58 0.239 0.853 0.358 0.341 0.137 0.614 0.324 0.939 0.478 0.461 0.239 0.922 0.478 1.365 0.768 0.393 0.256 0.802 0.512 1.178 0.802 0.29 0.205 0.546 0.393 0.836 0.631 0.102 0.068 0.222 0.137 0.307 0.222l138.496 118.613c8.073 6.878 8.994 19.012 2.099 27.068s-19.012 9.011-27.085 2.099l-106.803-91.477v401.084c0 10.598-8.602 19.2-19.2 19.2s-19.2-8.602-19.2-19.2v-403.166l-119.057 94.054c-8.311 6.571-20.395 5.154-26.982-3.174-6.571-8.311-5.154-20.395 3.174-26.965zM1023.846 317.252c-0.051 1.041-0.154 2.048-0.324 3.106-0.137 0.922-0.341 1.809-0.563 2.714-0.239 0.87-0.495 1.758-0.836 2.611-0.358 1.007-0.785 1.929-1.246 2.867-0.222 0.444-0.358 0.922-0.58 1.348l-157.15 279.074c-5.103 9.062-14.694 14.66-25.105 14.66h-112.026c-15.906 0-28.809-12.902-28.809-28.809 0-15.923 12.902-28.809 28.809-28.809h95.198l124.706-221.44h-229.035c-15.906 0-28.809-12.902-28.809-28.809v-60.774c0-0.887-0.7-1.604-1.587-1.604h-348.979c-0.887 0-1.587 0.717-1.587 1.604v60.774c0 15.923-12.902 28.809-28.809 28.809h-227.942l130.236 221.44h94.601c15.906 0 28.809 12.902 28.809 28.809s-12.902 28.809-28.809 28.809h-111.087c-10.223 0-19.644-5.393-24.832-14.199l-164.13-279.074c-0.29-0.478-0.427-1.007-0.683-1.502-0.478-0.973-0.956-1.894-1.348-2.901-0.324-0.887-0.563-1.758-0.802-2.645-0.256-0.905-0.478-1.775-0.649-2.714-0.188-1.058-0.256-2.082-0.324-3.14-0.017-0.563-0.154-1.109-0.154-1.69v-273.493c0-15.906 12.902-28.809 28.809-28.809h966.4c15.906 0 28.809 12.902 28.809 28.809v273.493c-0.017 0.512-0.137 0.99-0.171 1.485zM966.383 71.083h-908.766v215.876h220.706v-31.966c0-32.649 26.573-59.204 59.204-59.204h348.979c32.631 0 59.204 26.556 59.204 59.204v31.966h220.689v-215.876z" />
<glyph unicode="&#xe924;" glyph-name="Email_Email-37" d="M367.684 725.504c4.164 0 8.363 1.365 11.895 4.147l119.040 94.037v-403.149c0-10.615 8.602-19.217 19.217-19.217 10.598 0 19.2 8.602 19.2 19.217v401.067l106.803-91.46c3.635-3.106 8.073-4.625 12.476-4.625 5.41 0 10.803 2.287 14.592 6.741 6.895 8.055 5.956 20.173-2.099 27.068l-138.496 118.613c-0.017 0.017-0.017 0.017-0.034 0.017-0.307 0.273-0.649 0.461-0.956 0.7-0.495 0.358-1.007 0.7-1.519 1.041-0.222 0.137-0.393 0.307-0.614 0.41-0.034 0.017-0.051 0.051-0.085 0.051-0.307 0.188-0.649 0.29-0.973 0.427-0.546 0.273-1.092 0.512-1.69 0.734-0.137 0.034-0.273 0.119-0.393 0.171-0.461 0.154-0.939 0.273-1.417 0.375-0.58 0.154-1.143 0.29-1.758 0.375-0.29 0.051-0.563 0.137-0.836 0.171-0.393 0.051-0.802 0-1.195 0.034-0.358 0.017-0.683 0.102-1.041 0.102-0.239 0-0.461-0.051-0.7-0.068-0.683-0.017-1.365-0.102-2.031-0.205-0.597-0.085-1.161-0.171-1.758-0.307-0.597-0.154-1.195-0.358-1.792-0.563s-1.195-0.41-1.758-0.683c-0.546-0.239-1.058-0.529-1.587-0.836-0.563-0.358-1.109-0.666-1.655-1.058-0.188-0.137-0.375-0.239-0.546-0.358-0.034-0.034-0.068-0.034-0.102-0.068l-150.153-118.613c-8.311-6.588-9.728-18.654-3.174-26.982 3.84-4.796 9.455-7.305 15.138-7.305zM1023.863 317.252c-0.051 1.041-0.154 2.048-0.324 3.106-0.154 0.922-0.358 1.809-0.58 2.714-0.239 0.87-0.495 1.758-0.819 2.611-0.358 1.007-0.785 1.929-1.246 2.867-0.222 0.444-0.358 0.922-0.597 1.348l-157.133 279.074c-5.103 9.062-14.694 14.66-25.105 14.66h-112.043c-15.923 0-28.809-12.902-28.809-28.809 0-15.923 12.902-28.809 28.809-28.809h95.215l124.706-221.44h-229.052c-15.923 0-28.809-12.902-28.809-28.809v-60.774c0-0.887-0.717-1.604-1.587-1.604h-348.979c-0.887 0-1.587 0.717-1.587 1.604v60.774c0 15.923-12.885 28.809-28.809 28.809h-227.942l130.236 221.44h94.601c15.923 0 28.809 12.902 28.809 28.809s-12.885 28.809-28.809 28.809h-111.087c-10.223 0-19.644-5.393-24.832-14.199l-164.113-279.074c-0.29-0.478-0.427-1.007-0.683-1.502-0.495-0.973-0.973-1.894-1.348-2.918-0.341-0.87-0.563-1.741-0.819-2.628s-0.478-1.775-0.631-2.714c-0.188-1.058-0.273-2.082-0.324-3.14-0.017-0.563-0.171-1.109-0.171-1.69v-273.493c0-15.923 12.902-28.809 28.809-28.809h966.383c15.923 0 28.809 12.885 28.809 28.809v273.493c0 0.512-0.119 0.99-0.137 1.485zM966.4 71.066h-908.783v215.893h220.723v-31.966c0-32.649 26.556-59.204 59.187-59.204h348.979c32.631 0 59.204 26.556 59.204 59.204v31.966h220.706v-215.893z" />
<glyph unicode="&#xe925;" glyph-name="Email_Email-38" d="M832.051 466.381l-223.812 223.829c-7.458 7.458-18.654 9.677-28.365 5.649-9.728-4.028-16.060-13.517-16.060-24.047v-117.726h-353.451c-14.387 0-26.027-11.657-26.027-26.010v-160.154c0-14.37 11.657-26.027 26.027-26.027h353.451v-117.726c0-10.53 6.332-20.019 16.060-24.030 3.209-1.348 6.605-1.98 9.95-1.98 6.758 0 13.414 2.628 18.415 7.612l223.812 223.829c10.172 10.155 10.172 26.607 0 36.779zM615.834 286.959v80.947c0 14.387-11.657 26.027-25.993 26.027h-353.468v108.083h353.468c14.353 0 25.993 11.657 25.993 26.027v80.93l161.024-161.024-161.024-160.99z" />
<glyph unicode="&#xe926;" glyph-name="Email_Email-39" d="M842.53 473.532c-76.902 65.109-197.7 78.797-285.491 78.797-15.36 0-28.894-0.427-39.885-0.99v120.986c0 10.906-6.537 20.77-16.589 25.037-10.069 4.267-21.692 2.116-29.508-5.478l-233.95-226.27c-5.325-5.154-8.329-12.254-8.294-19.644 0.034-7.424 3.106-14.524 8.448-19.593l233.984-222.396c5.154-4.915 11.895-7.492 18.739-7.492 3.635 0 7.27 0.717 10.735 2.219 10.001 4.284 16.469 14.097 16.469 24.986v124.774c15.189 2.799 38.741 5.939 68.471 5.939 49.732 0 100.113-8.431 149.76-25.054 76.954-25.702 138.103-92.314 138.701-92.979 7.407-8.175 18.995-11.093 29.372-7.373s17.459 13.363 17.971 24.388c0.256 5.973 5.769 148.412-78.933 220.143zM752.64 380.911c-55.211 18.483-111.394 27.853-166.997 27.853-62.703 0-102.178-12.22-103.817-12.732-11.332-3.567-19.046-14.063-19.046-25.941v-83.046l-167.458 159.198 167.458 161.946v-86.135c0-7.731 3.311-15.121 9.062-20.275 5.803-5.171 13.5-7.629 21.18-6.758 0.273 0.017 26.283 2.901 64.034 2.901 64.41 0 182.596-8.567 250.334-65.911 33.178-28.109 48.009-73.916 54.613-111.787-28.314 21.982-66.304 46.336-109.363 60.689zM168.892 446.242l213.589 206.541c10.803 10.428 11.076 27.648 0.631 38.451-10.411 10.803-27.665 11.093-38.468 0.649l-233.95-226.27c-5.325-5.154-8.329-12.254-8.294-19.644 0.034-7.424 3.106-14.524 8.465-19.593l233.967-222.396c5.274-5.018 11.998-7.492 18.739-7.492 7.202 0 14.387 2.833 19.712 8.448 10.342 10.923 9.916 28.109-0.973 38.485l-213.419 202.82z" />
<glyph unicode="&#xe927;" glyph-name="Email_Email-40" d="M764.877 472.149c-72.772 61.594-187.034 74.53-270.080 74.53-14.524 0-27.341-0.41-37.7-0.939v114.449c0 10.325-6.195 19.661-15.701 23.689-9.54 4.045-20.514 1.997-27.938-5.205l-221.286-213.999c-5.052-4.864-7.885-11.588-7.851-18.62 0.034-6.997 2.918-13.705 8.004-18.517l221.321-210.381c4.864-4.642 11.247-7.1 17.732-7.1 3.413 0 6.861 0.683 10.138 2.082 9.472 4.045 15.599 13.363 15.599 23.654v118.033c14.336 2.645 36.625 5.581 64.751 5.581 47.036 0 94.72-7.97 141.687-23.671 72.789-24.32 130.628-87.347 131.209-87.962 6.997-7.731 17.971-10.496 27.767-6.946 9.83 3.516 16.538 12.612 17.015 23.040 0.239 5.683 5.461 140.407-74.667 208.282zM679.851 384.546c-52.258 17.459-105.421 26.317-158.003 26.317-59.324 0-96.649-11.537-98.219-12.049-10.735-3.362-18.005-13.295-18.005-24.542v-78.541l-158.396 150.579 158.396 153.19v-81.459c0-7.322 3.123-14.302 8.585-19.166 5.444-4.881 12.749-7.202 20.019-6.4 0.256 0.034 24.866 2.731 60.57 2.731 60.962 0 172.749-8.107 236.834-62.327 31.386-26.607 45.397-69.939 51.644-105.762-26.778 20.787-62.703 43.827-103.424 57.429z" />
<glyph unicode="&#xe928;" glyph-name="Email_Email-41" d="M1000.141 745.489c-12.578 10.906-28.689 16.93-45.312 16.93h-885.658c-38.161 0-69.171-31.044-69.171-69.205v-490.428c0-38.161 31.010-69.205 69.171-69.205h885.658c38.144 0 69.188 31.027 69.188 69.205v490.428c-0.017 20.070-8.721 39.1-23.876 52.275zM935.646 705.109l-423.68-297.933-426.667 297.933h850.347zM954.812 190.891h-885.641c-6.571 0-11.895 5.325-11.895 11.895v486.997l446.532-311.808c2.458-1.741 5.325-2.594 8.175-2.594 2.884 0 5.769 0.87 8.243 2.594l446.481 313.993v-489.199c0.017-6.554-5.325-11.878-11.895-11.878z" />
<glyph unicode="&#xe929;" glyph-name="Email_Email-42" d="M969.267 422.912c-16.009 16.009-34.492 28.553-54.426 37.7 8.994 4.079 15.292 13.124 15.292 23.654v245.009c0 18.21-7.902 35.516-21.658 47.462-11.418 9.899-26.044 15.36-41.182 15.36h-804.454c-34.645 0.017-62.839-28.16-62.839-62.822v-445.508c0-34.628 28.194-62.839 62.839-62.839h573.679c9.677 0 18.039 5.342 22.511 13.21 8.909-28.177 24.439-54.033 45.943-75.537 35.294-35.311 82.227-54.75 132.147-54.75s96.836 19.439 132.13 54.733 54.75 82.261 54.75 132.181-19.439 96.853-54.733 132.147zM849.903 740.096l-384.853-270.626-387.567 270.626h772.42zM636.518 272.981h-573.679c-5.973 0-10.803 4.847-10.803 10.803v442.368l405.606-283.221c2.236-1.57 4.83-2.355 7.441-2.355s5.257 0.785 7.475 2.372l405.572 285.184v-243.866c0-4.369 1.161-8.414 3.089-12.032-14.285 3.447-28.996 5.41-44.066 5.41-49.92 0-96.853-19.439-132.147-54.733s-54.767-82.227-54.767-132.147c0-7.697 0.614-15.292 1.536-22.818-4.301 3.14-9.54 5.035-15.258 5.035zM932.489 195.379c-25.463-25.446-59.341-39.475-95.351-39.475-36.028 0-69.905 14.029-95.369 39.509-25.481 25.463-39.492 59.341-39.492 95.351s14.012 69.888 39.492 95.351c25.481 25.481 59.358 39.509 95.369 39.509 36.028 0 69.888-14.029 95.351-39.492s39.492-59.341 39.492-95.369-14.029-69.905-39.492-95.386zM941.943 358.69c-5.086 5.086-13.295 5.086-18.381 0l-117.777-117.777-55.245 53.487c-5.154 4.983-13.38 4.864-18.398-0.307-4.983-5.154-4.847-13.38 0.324-18.381l64.222-62.191c0 0 0.017-0.051 0.051-0.068 0.017-0.034 0.068-0.034 0.085-0.068l0.085-0.068c0.375-0.358 0.853-0.529 1.263-0.836 2.321-1.758 4.983-2.85 7.748-2.85 0.051 0 0.102 0.034 0.171 0.034 1.536 0.017 3.072 0.324 4.54 0.887 0.085 0.034 0.171 0.034 0.273 0.068 1.485 0.614 2.867 1.536 4.079 2.731 0.034 0.034 0.102 0.051 0.154 0.102l126.857 126.857c5.035 5.069 5.035 13.312-0.051 18.381z" />
<glyph unicode="&#xe92a;" glyph-name="Email_Email-43" d="M969.335 422.912c-15.991 16.009-34.475 28.553-54.426 37.7 9.011 4.079 15.309 13.107 15.309 23.671v245.026c0 18.193-7.885 35.499-21.692 47.479-11.435 9.899-26.044 15.343-41.165 15.343h-804.54c-34.645 0.017-62.822-28.16-62.822-62.822v-445.525c0-34.662 28.177-62.857 62.822-62.857h573.713c9.694 0 18.057 5.359 22.528 13.227 8.909-28.194 24.457-54.067 45.943-75.571 35.294-35.294 82.227-54.75 132.164-54.75 49.92 0 96.853 19.439 132.147 54.733 72.892 72.892 72.892 191.488 0.017 264.346zM849.971 740.113l-384.887-270.626-387.618 270.626h772.506zM636.535 272.964h-573.713c-5.956 0-10.786 4.847-10.786 10.82v442.402l405.641-283.255c2.236-1.57 4.83-2.355 7.441-2.355s5.257 0.785 7.475 2.372l405.623 285.218v-243.883c0-4.369 1.161-8.431 3.072-12.049-14.285 3.43-28.996 5.41-44.066 5.41-49.937 0-96.87-19.456-132.164-54.733-35.294-35.294-54.75-82.227-54.75-132.164 0-7.697 0.614-15.292 1.536-22.835-4.335 3.14-9.574 5.052-15.309 5.052zM932.557 195.379c-25.463-25.463-59.341-39.492-95.369-39.492-36.011 0-69.905 14.029-95.386 39.492-25.463 25.463-39.492 59.358-39.492 95.369 0 36.028 14.029 69.905 39.509 95.369 25.481 25.481 59.358 39.509 95.386 39.509 36.011 0 69.888-14.029 95.351-39.492 52.582-52.582 52.582-138.172 0-190.754zM927.898 302.729h-76.681v76.681c0 7.185-5.837 13.005-13.022 13.005-7.168 0-13.005-5.82-13.005-13.005v-76.681l-76.698 0.017c-7.168 0-13.005-5.837-13.005-13.022s5.837-13.005 13.005-13.005l76.698-0.017v-76.681c0-7.185 5.837-13.022 13.005-13.022 7.185 0 13.022 5.837 13.022 13.022v76.681h76.681c7.185 0 13.022 5.837 13.022 13.022s-5.837 13.005-13.022 13.005z" />
<glyph unicode="&#xe92b;" glyph-name="Email_Email-44" d="M969.353 422.912c-16.009 16.009-34.492 28.553-54.443 37.7 9.011 4.079 15.309 13.124 15.309 23.671v245.026c0 18.193-7.885 35.499-21.658 47.445-11.435 9.916-26.044 15.377-41.182 15.377h-804.523c-34.662 0.017-62.857-28.177-62.857-62.822v-445.525c0-34.662 28.194-62.857 62.857-62.857h573.696c9.677 0 18.057 5.359 22.511 13.21 8.926-28.177 24.457-54.050 45.961-75.554 35.294-35.294 82.227-54.75 132.164-54.75 49.92 0 96.853 19.456 132.147 54.733 72.875 72.892 72.875 191.488 0.017 264.346zM849.971 740.113l-384.887-270.626-387.601 270.626h772.489zM636.553 272.964h-573.696c-5.973 0-10.82 4.847-10.82 10.82v442.402l405.641-283.255c2.236-1.57 4.83-2.355 7.458-2.355s5.257 0.785 7.475 2.372l405.606 285.218v-243.883c0-4.369 1.161-8.431 3.072-12.049-14.268 3.43-28.996 5.41-44.066 5.41-49.92 0-96.853-19.439-132.164-54.733-35.294-35.294-54.75-82.227-54.75-132.164 0-7.697 0.614-15.292 1.536-22.835-4.318 3.14-9.557 5.052-15.292 5.052zM932.574 195.379c-25.463-25.463-59.358-39.492-95.369-39.492-36.028 0-69.922 14.029-95.403 39.492-25.463 25.463-39.475 59.358-39.475 95.369 0 36.028 14.029 69.905 39.509 95.369 25.463 25.481 59.358 39.509 95.369 39.509 36.028 0 69.905-14.029 95.369-39.492 52.582-52.582 52.582-138.172 0-190.754zM927.932 302.729l-179.439 0.017c-7.168 0-13.005-5.837-13.005-13.022s5.837-13.005 13.005-13.005l179.439-0.017c7.168 0 13.005 5.837 13.005 13.022s-5.837 13.005-13.005 13.005z" />
</font>
</defs>
</svg>
